<svg width="152" height="44" viewBox="0 0 152 44" fill="none" xmlns="http://www.w3.org/2000/svg">
<path d="M151.155 38.9255C151.155 41.2704 149.22 43.1697 146.826 43.1697H5.1778C2.78555 43.1697 0.84375 41.2704 0.84375 38.9255V5.07978C0.84375 2.73607 2.78555 0.830078 5.1778 0.830078H146.825C149.22 0.830078 151.154 2.73607 151.154 5.07978L151.155 38.9255Z" fill="black"/>
<path d="M146.37 0.881381C148.977 0.881381 151.098 2.9535 151.098 5.50001V38.5C151.098 41.0465 148.977 43.1186 146.37 43.1186H5.62963C3.02311 43.1186 0.902148 41.0465 0.902148 38.5V5.50001C0.902148 2.9535 3.02311 0.881381 5.62963 0.881381H146.37ZM146.37 7.04954e-06H5.62963C2.53474 7.04954e-06 0 2.47638 0 5.50001V38.5C0 41.5236 2.53474 44 5.62963 44H146.37C149.465 44 152 41.5236 152 38.5V5.50001C152 2.47638 149.465 7.04954e-06 146.37 7.04954e-06Z" fill="#A6A6A6"/>
<path d="M33.9215 21.7626C33.8888 18.2173 36.8928 16.4925 37.0302 16.4122C35.3289 13.9889 32.692 13.6578 31.7654 13.6314C29.5507 13.4037 27.4024 14.9261 26.2742 14.9261C25.1235 14.9261 23.3862 13.6534 21.5138 13.6908C19.1043 13.7271 16.8502 15.09 15.6139 17.2064C13.0626 21.5217 14.9654 27.8632 17.4098 31.3513C18.6326 33.0596 20.0614 34.967 21.9315 34.8999C23.7611 34.8262 24.4446 33.7603 26.6525 33.7603C28.8402 33.7603 29.482 34.8999 31.3893 34.857C33.3529 34.8262 34.5892 33.141 35.7691 31.4173C37.1822 29.4593 37.7496 27.531 37.7722 27.432C37.726 27.4166 33.9587 26.0119 33.9215 21.7626Z" fill="white"/>
<path d="M30.3185 11.3368C31.3026 10.1345 31.9759 8.49877 31.789 6.83887C30.3647 6.90047 28.5835 7.80137 27.5578 8.97727C26.6503 10.0135 25.8396 11.7119 26.049 13.3091C27.649 13.4257 29.2917 12.5204 30.3185 11.3368Z" fill="white"/>
<path d="M60.3998 34.6544H57.8428L56.4421 30.3545H51.5736L50.2394 34.6544H47.75L52.5735 20.0156H55.5527L60.3998 34.6544ZM56.0199 28.5505L54.7533 24.728C54.6193 24.3375 54.3682 23.4179 53.9978 21.9703H53.9527C53.8052 22.5929 53.5677 23.5125 53.2411 24.728L51.997 28.5505H56.0199Z" fill="white"/>
<path d="M72.8031 29.247C72.8031 31.0422 72.3066 32.4612 71.3135 33.5029C70.424 34.4302 69.3195 34.8933 68.001 34.8933C66.5779 34.8933 65.5555 34.3939 64.9329 33.3951H64.8879V38.9556H62.4874V27.5739C62.4874 26.4453 62.457 25.287 62.3984 24.099H64.5095L64.6435 25.7721H64.6886C65.4891 24.5115 66.704 23.8823 68.3343 23.8823C69.6089 23.8823 70.6729 24.374 71.5241 25.3585C72.3775 26.3441 72.8031 27.6399 72.8031 29.247ZM70.3576 29.3328C70.3576 28.3054 70.1212 27.4584 69.646 26.7918C69.127 26.0966 68.43 25.749 67.5563 25.749C66.9641 25.749 66.4259 25.9426 65.9451 26.3243C65.4632 26.7093 65.1479 27.212 65.0004 27.8346C64.9261 28.125 64.889 28.3626 64.889 28.5496V30.3096C64.889 31.0774 65.1299 31.7253 65.6118 32.2544C66.0937 32.7835 66.7197 33.0475 67.4899 33.0475C68.394 33.0475 69.0977 32.7065 69.601 32.0267C70.1054 31.3458 70.3576 30.4482 70.3576 29.3328Z" fill="white"/>
<path d="M85.2317 29.247C85.2317 31.0422 84.7352 32.4612 83.741 33.5029C82.8526 34.4302 81.7481 34.8933 80.4296 34.8933C79.0064 34.8933 77.9841 34.3939 77.3626 33.3951H77.3175V38.9556H74.9171V27.5739C74.9171 26.4453 74.8867 25.287 74.8281 24.099H76.9392L77.0732 25.7721H77.1183C77.9177 24.5115 79.1325 23.8823 80.764 23.8823C82.0374 23.8823 83.1014 24.374 83.9549 25.3585C84.805 26.3441 85.2317 27.6399 85.2317 29.247ZM82.7862 29.3328C82.7862 28.3054 82.5486 27.4584 82.0735 26.7918C81.5544 26.0966 80.8597 25.749 79.9849 25.749C79.3915 25.749 78.8544 25.9426 78.3725 26.3243C77.8906 26.7093 77.5765 27.212 77.429 27.8346C77.3558 28.125 77.3175 28.3626 77.3175 28.5496V30.3096C77.3175 31.0774 77.5585 31.7253 78.0381 32.2544C78.52 32.7824 79.1461 33.0475 79.9184 33.0475C80.8226 33.0475 81.5263 32.7065 82.0296 32.0267C82.534 31.3458 82.7862 30.4482 82.7862 29.3328Z" fill="white"/>
<path d="M99.1238 30.5494C99.1238 31.7946 98.6813 32.8077 97.7929 33.5898C96.8168 34.4445 95.4578 34.8713 93.7114 34.8713C92.0991 34.8713 90.8066 34.5677 89.8281 33.9594L90.3843 32.0047C91.4382 32.6273 92.5945 32.9397 93.8544 32.9397C94.7586 32.9397 95.4623 32.7395 95.9678 32.3413C96.4711 31.9431 96.7222 31.4085 96.7222 30.7419C96.7222 30.1479 96.515 29.6474 96.0995 29.2415C95.6863 28.8356 94.9961 28.4583 94.0323 28.1096C91.4089 27.1537 90.0984 25.7534 90.0984 23.912C90.0984 22.7086 90.5577 21.7219 91.4776 20.9541C92.3941 20.1852 93.6169 19.8013 95.1459 19.8013C96.5094 19.8013 97.6421 20.0334 98.5462 20.4965L97.946 22.4083C97.1016 21.9595 96.1468 21.7351 95.0783 21.7351C94.2339 21.7351 93.5741 21.9386 93.1012 22.3434C92.7015 22.7053 92.5011 23.1464 92.5011 23.6689C92.5011 24.2475 92.7296 24.726 93.189 25.1022C93.5887 25.4498 94.3149 25.826 95.3688 26.2319C96.658 26.739 97.6049 27.3319 98.214 28.0117C98.8209 28.6893 99.1238 29.5374 99.1238 30.5494Z" fill="white"/>
<path d="M107.06 25.8588H104.414V30.9837C104.414 32.2872 104.881 32.9384 105.815 32.9384C106.244 32.9384 106.6 32.9021 106.881 32.8295L106.948 34.6104C106.475 34.7831 105.852 34.87 105.081 34.87C104.133 34.87 103.392 34.5873 102.857 34.023C102.325 33.4576 102.057 32.5094 102.057 31.1773V25.8566H100.48V24.0966H102.057V22.1639L104.414 21.4688V24.0966H107.06V25.8588Z" fill="white"/>
<path d="M119.001 29.2898C119.001 30.9123 118.525 32.2444 117.577 33.2861C116.583 34.3586 115.264 34.8932 113.619 34.8932C112.033 34.8932 110.771 34.3795 109.83 33.3521C108.889 32.3247 108.418 31.0278 108.418 29.4647C108.418 27.829 108.902 26.4892 109.874 25.4475C110.843 24.4047 112.152 23.8833 113.797 23.8833C115.382 23.8833 116.657 24.397 117.62 25.4255C118.541 26.4232 119.001 27.7113 119.001 29.2898ZM116.51 29.3657C116.51 28.3922 116.297 27.5573 115.866 26.861C115.363 26.0184 114.643 25.5982 113.711 25.5982C112.746 25.5982 112.013 26.0195 111.51 26.861C111.079 27.5584 110.866 28.4065 110.866 29.4097C110.866 30.3832 111.079 31.2181 111.51 31.9133C112.029 32.7559 112.754 33.1761 113.69 33.1761C114.606 33.1761 115.326 32.7471 115.845 31.8913C116.287 31.1818 116.51 30.3381 116.51 29.3657Z" fill="white"/>
<path d="M126.804 26.1615C126.566 26.1186 126.313 26.0966 126.047 26.0966C125.203 26.0966 124.55 26.4079 124.09 27.0316C123.691 27.5816 123.49 28.2768 123.49 29.1161V34.6546H121.091L121.114 27.4232C121.114 26.2066 121.083 25.0989 121.023 24.1001H123.114L123.202 26.1197H123.269C123.522 25.4256 123.922 24.8668 124.469 24.4477C125.004 24.0704 125.581 23.8823 126.204 23.8823C126.426 23.8823 126.626 23.8977 126.804 23.9252V26.1615Z" fill="white"/>
<path d="M137.539 28.8772C137.539 29.2974 137.511 29.6516 137.452 29.9409H130.25C130.278 30.9837 130.626 31.7812 131.295 32.3312C131.902 32.8229 132.687 33.0693 133.65 33.0693C134.717 33.0693 135.689 32.9032 136.564 32.5699L136.94 34.1979C135.918 34.6335 134.711 34.8502 133.318 34.8502C131.643 34.8502 130.328 34.3684 129.371 33.4059C128.416 32.4434 127.938 31.1509 127.938 29.5295C127.938 27.9378 128.382 26.6123 129.273 25.5552C130.205 24.4266 131.465 23.8623 133.05 23.8623C134.607 23.8623 135.786 24.4266 136.587 25.5552C137.221 26.4517 137.539 27.5605 137.539 28.8772ZM135.25 28.2689C135.266 27.5737 135.11 26.9731 134.784 26.466C134.369 25.8137 133.73 25.4881 132.871 25.4881C132.087 25.4881 131.448 25.806 130.961 26.444C130.561 26.9511 130.323 27.5594 130.25 28.2678H135.25V28.2689Z" fill="white"/>
<path d="M55.2265 11.0096C55.2265 12.3043 54.8291 13.2789 54.0353 13.9334C53.3001 14.5373 52.2552 14.8398 50.9018 14.8398C50.2308 14.8398 49.6566 14.8112 49.1758 14.754V7.67987C49.8029 7.58087 50.4785 7.53027 51.2081 7.53027C52.4973 7.53027 53.4689 7.80417 54.1242 8.35197C54.8583 8.97127 55.2265 9.85677 55.2265 11.0096ZM53.9824 11.0415C53.9824 10.2022 53.7549 9.55867 53.3001 9.10987C52.8452 8.66217 52.1809 8.43777 51.306 8.43777C50.9345 8.43777 50.6181 8.46197 50.3558 8.51257V13.8905C50.501 13.9125 50.7667 13.9224 51.1529 13.9224C52.0559 13.9224 52.7529 13.6771 53.2438 13.1865C53.7347 12.6959 53.9824 11.9809 53.9824 11.0415Z" fill="white"/>
<path d="M61.8234 12.1407C61.8234 12.9382 61.5903 13.5916 61.1242 14.1042C60.6355 14.6311 59.9881 14.894 59.1797 14.894C58.4006 14.894 57.7802 14.6421 57.3174 14.1361C56.8558 13.6312 56.625 12.9943 56.625 12.2266C56.625 11.4236 56.8626 10.7647 57.34 10.2532C57.8174 9.74165 58.4591 9.48535 59.2676 9.48535C60.0467 9.48535 60.6727 9.73725 61.1467 10.2422C61.5971 10.7328 61.8234 11.3664 61.8234 12.1407ZM60.5995 12.1782C60.5995 11.6997 60.4937 11.2894 60.2831 10.9473C60.0354 10.5337 59.683 10.3269 59.2248 10.3269C58.7508 10.3269 58.3905 10.5337 58.1427 10.9473C57.9311 11.2894 57.8264 11.7063 57.8264 12.1991C57.8264 12.6776 57.9322 13.0878 58.1427 13.4299C58.3983 13.8435 58.7541 14.0503 59.2135 14.0503C59.6639 14.0503 60.0174 13.8403 60.2719 13.419C60.4903 13.0703 60.5995 12.6567 60.5995 12.1782Z" fill="white"/>
<path d="M70.6705 9.59082L69.0098 14.7762H67.9289L67.241 12.5245C67.0665 11.9624 66.9246 11.4036 66.8142 10.8492H66.7928C66.6904 11.419 66.5485 11.9767 66.3661 12.5245L65.6354 14.7762H64.5421L62.9805 9.59082H64.1931L64.7932 12.0559C64.9384 12.6389 65.0578 13.1944 65.1535 13.7202H65.1749C65.2627 13.2868 65.408 12.7346 65.6129 12.0669L66.3661 9.59192H67.3277L68.0494 12.0141C68.2239 12.6048 68.3658 13.1735 68.475 13.7213H68.5076C68.5876 13.1878 68.7081 12.6191 68.8679 12.0141L69.512 9.59192H70.6705V9.59082Z" fill="white"/>
<path d="M76.7851 14.7762H75.6052V11.8062C75.6052 10.891 75.2494 10.4334 74.5355 10.4334C74.1854 10.4334 73.9028 10.5588 73.6832 10.8107C73.4659 11.0626 73.3556 11.3596 73.3556 11.6995V14.7751H72.1756V11.0725C72.1756 10.6171 72.161 10.1232 72.1328 9.58863H73.1698L73.225 10.3993H73.2576C73.395 10.1474 73.5999 9.93953 73.869 9.77343C74.1887 9.57983 74.5468 9.48193 74.9386 9.48193C75.434 9.48193 75.8461 9.63813 76.1737 9.95163C76.5813 10.3355 76.7851 10.9086 76.7851 11.6698V14.7762Z" fill="white"/>
<path d="M80.0421 14.7761H78.8633V7.21143H80.0421V14.7761Z" fill="white"/>
<path d="M86.9875 12.1407C86.9875 12.9382 86.7544 13.5916 86.2883 14.1042C85.7996 14.6311 85.1511 14.894 84.3438 14.894C83.5635 14.894 82.9431 14.6421 82.4815 14.1361C82.0199 13.6312 81.7891 12.9943 81.7891 12.2266C81.7891 11.4236 82.0266 10.7647 82.504 10.2532C82.9814 9.74165 83.6232 9.48535 84.4305 9.48535C85.2108 9.48535 85.8356 9.73725 86.3108 10.2422C86.7611 10.7328 86.9875 11.3664 86.9875 12.1407ZM85.7625 12.1782C85.7625 11.6997 85.6566 11.2894 85.4461 10.9473C85.1995 10.5337 84.8459 10.3269 84.3888 10.3269C83.9137 10.3269 83.5534 10.5337 83.3068 10.9473C83.0951 11.2894 82.9904 11.7063 82.9904 12.1991C82.9904 12.6776 83.0963 13.0878 83.3068 13.4299C83.5624 13.8435 83.9182 14.0503 84.3776 14.0503C84.8279 14.0503 85.1803 13.8403 85.4348 13.419C85.6544 13.0703 85.7625 12.6567 85.7625 12.1782Z" fill="white"/>
<path d="M92.6972 14.7763H91.6377L91.5499 14.179H91.5172C91.1547 14.6553 90.6379 14.894 89.9668 14.894C89.4658 14.894 89.0604 14.7367 88.7553 14.4243C88.4783 14.1405 88.3398 13.7874 88.3398 13.3683C88.3398 12.7348 88.6101 12.2518 89.1539 11.9174C89.6966 11.5831 90.46 11.4192 91.4429 11.4269V11.3301C91.4429 10.647 91.0758 10.306 90.3406 10.306C89.8171 10.306 89.3554 10.4347 88.9569 10.6899L88.717 9.93305C89.2102 9.63495 89.8193 9.48535 90.5377 9.48535C91.9248 9.48535 92.6206 10.2004 92.6206 11.6304V13.5399C92.6206 14.058 92.6465 14.4705 92.6972 14.7763ZM91.4722 12.9943V12.1947C90.1706 12.1727 89.5198 12.5214 89.5198 13.2397C89.5198 13.5103 89.5941 13.7126 89.7461 13.8479C89.8981 13.9832 90.0918 14.0503 90.3226 14.0503C90.5816 14.0503 90.8236 13.97 91.0443 13.8105C91.2661 13.65 91.4024 13.4464 91.453 13.1967C91.4654 13.1406 91.4722 13.0724 91.4722 12.9943Z" fill="white"/>
<path d="M99.4026 14.7761H98.3555L98.3003 13.9434H98.2677C97.9333 14.577 97.3635 14.8938 96.563 14.8938C95.9235 14.8938 95.3909 14.6485 94.9687 14.1579C94.5465 13.6673 94.3359 13.0304 94.3359 12.2483C94.3359 11.409 94.5645 10.7292 95.0239 10.21C95.4686 9.72602 96.0136 9.48403 96.6621 9.48403C97.3748 9.48403 97.8736 9.71833 98.1573 10.188H98.1798V7.21143H99.3609V13.3791C99.3609 13.884 99.3744 14.3493 99.4026 14.7761ZM98.1798 12.5893V11.7247C98.1798 11.5751 98.1686 11.4541 98.1472 11.3617C98.0808 11.0845 97.9378 10.8513 97.7205 10.6632C97.5009 10.4751 97.2363 10.3805 96.9312 10.3805C96.4909 10.3805 96.1464 10.551 95.8931 10.8931C95.642 11.2352 95.5148 11.6719 95.5148 12.2054C95.5148 12.718 95.6352 13.1338 95.8773 13.4539C96.1329 13.7949 96.4774 13.9654 96.9087 13.9654C97.296 13.9654 97.6056 13.8235 97.8409 13.5386C98.0684 13.2757 98.1798 12.9589 98.1798 12.5893Z" fill="white"/>
<path d="M109.495 12.1407C109.495 12.9382 109.262 13.5916 108.796 14.1042C108.307 14.6311 107.661 14.894 106.852 14.894C106.074 14.894 105.453 14.6421 104.989 14.1361C104.528 13.6312 104.297 12.9943 104.297 12.2266C104.297 11.4236 104.534 10.7647 105.012 10.2532C105.489 9.74165 106.131 9.48535 106.941 9.48535C107.719 9.48535 108.346 9.73725 108.819 10.2422C109.269 10.7328 109.495 11.3664 109.495 12.1407ZM108.273 12.1782C108.273 11.6997 108.167 11.2894 107.956 10.9473C107.707 10.5337 107.356 10.3269 106.897 10.3269C106.424 10.3269 106.063 10.5337 105.815 10.9473C105.603 11.2894 105.498 11.7063 105.498 12.1991C105.498 12.6776 105.604 13.0878 105.815 13.4299C106.07 13.8435 106.426 14.0503 106.885 14.0503C107.336 14.0503 107.69 13.8403 107.945 13.419C108.162 13.0703 108.273 12.6567 108.273 12.1782Z" fill="white"/>
<path d="M115.839 14.7762H114.66V11.8062C114.66 10.891 114.304 10.4334 113.589 10.4334C113.239 10.4334 112.956 10.5588 112.738 10.8107C112.519 11.0626 112.41 11.3596 112.41 11.6995V14.7751H111.229V11.0725C111.229 10.6171 111.216 10.1232 111.188 9.58863H112.223L112.279 10.3993H112.311C112.45 10.1474 112.655 9.93953 112.923 9.77343C113.243 9.57983 113.6 9.48193 113.993 9.48193C114.488 9.48193 114.9 9.63813 115.227 9.95163C115.636 10.3355 115.839 10.9086 115.839 11.6698V14.7762Z" fill="white"/>
<path d="M123.779 10.4542H122.48V12.9732C122.48 13.6134 122.711 13.9335 123.168 13.9335C123.38 13.9335 123.555 13.9159 123.694 13.8796L123.724 14.7541C123.491 14.8399 123.185 14.8828 122.808 14.8828C122.342 14.8828 121.979 14.7442 121.717 14.467C121.453 14.1898 121.323 13.7234 121.323 13.0689V10.4542H120.547V9.59072H121.323V8.64032L122.479 8.29932V9.58962H123.778V10.4542H123.779Z" fill="white"/>
<path d="M130.028 14.7761H128.846V11.8281C128.846 10.8986 128.491 10.4333 127.778 10.4333C127.231 10.4333 126.857 10.7028 126.652 11.2418C126.617 11.3551 126.597 11.4937 126.597 11.6565V14.775H125.418V7.21143H126.597V10.3365H126.619C126.991 9.76783 127.523 9.48403 128.214 9.48403C128.702 9.48403 129.107 9.64023 129.427 9.95373C129.827 10.3442 130.028 10.925 130.028 11.6928V14.7761Z" fill="white"/>
<path d="M136.469 11.938C136.469 12.1448 136.453 12.3186 136.425 12.4605H132.886C132.902 12.9731 133.071 13.3636 133.398 13.6342C133.698 13.8762 134.084 13.9972 134.557 13.9972C135.08 13.9972 135.558 13.9158 135.988 13.7519L136.173 14.5527C135.669 14.7661 135.077 14.8728 134.391 14.8728C133.569 14.8728 132.922 14.6363 132.454 14.1633C131.983 13.6903 131.75 13.0556 131.75 12.2592C131.75 11.4771 131.967 10.8259 132.405 10.3067C132.862 9.7523 133.481 9.4751 134.261 9.4751C135.024 9.4751 135.604 9.7523 135.996 10.3067C136.312 10.7467 136.469 11.2912 136.469 11.938ZM135.343 11.6399C135.352 11.2978 135.274 11.003 135.114 10.7544C134.909 10.4343 134.597 10.2737 134.175 10.2737C133.79 10.2737 133.476 10.4299 133.236 10.7434C133.04 10.9931 132.924 11.2912 132.886 11.6399H135.343Z" fill="white"/>
</svg>
