<svg width="375" height="748" viewBox="0 0 375 748" fill="none" xmlns="http://www.w3.org/2000/svg">
<g clip-path="url(#clip0_2014_501858)">
<path fill-rule="evenodd" clip-rule="evenodd" d="M64.679 749.726C64.5938 749.842 64.49 749.948 64.3682 750.038C63.7158 750.522 62.7944 750.385 62.3104 749.733C62.014 749.334 61.9151 748.808 62.0782 748.309C62.2076 747.914 62.4586 747.668 62.5846 747.558C62.8468 747.328 63.1668 747.174 63.3936 747.075C63.8986 746.854 64.6246 746.621 65.4986 746.375C67.2731 745.875 69.9302 745.246 73.3246 744.49C76.9572 743.68 81.485 742.713 86.7515 741.588C91.3279 740.61 96.462 739.513 102.051 738.297C126.13 733.058 158.827 725.569 192.695 715.661C226.574 705.751 261.569 693.438 290.262 678.566C319.025 663.658 341.151 646.332 349.722 626.545C354.558 615.38 355.891 605.259 354.586 595.942C353.281 586.616 349.32 577.998 343.421 569.867C331.587 553.556 312.092 539.383 291.136 525.621C286.383 522.5 281.554 519.4 276.73 516.302C260.382 505.805 244.081 495.339 230.929 484.188C213.903 469.751 201.764 453.853 201.764 434.795C201.764 422.823 205.655 409.986 211.296 397.019C216.941 384.042 224.399 370.805 231.628 358.037L232.121 357.167C239.193 344.677 245.993 332.668 250.723 321.681C255.579 310.401 258.13 300.462 256.743 292.355C255.846 287.114 254.046 283.162 251.575 280.362C249.116 277.576 245.921 275.846 242.064 275.154C234.269 273.753 223.719 276.592 211.501 283.812C199.15 291.11 186.265 296.902 175.465 297.111C170.013 297.217 165.006 295.901 160.896 292.563C156.796 289.233 153.749 284.022 151.954 276.641C148.1 260.802 156.74 246.688 167.002 236.191C177.305 225.653 189.581 218.397 193.89 216.149C194.61 215.773 195.499 216.052 195.874 216.772C196.25 217.493 195.971 218.381 195.251 218.757C191.101 220.922 179.116 228.009 169.106 238.248C159.054 248.529 151.329 261.629 154.812 275.946C156.506 282.907 159.292 287.47 162.75 290.279C166.198 293.079 170.474 294.265 175.408 294.17C185.384 293.977 197.695 288.552 210.004 281.279C222.445 273.927 233.755 270.672 242.584 272.258C247.04 273.058 250.848 275.092 253.781 278.415C256.7 281.723 258.678 286.225 259.643 291.859C261.181 300.852 258.326 311.462 253.426 322.844C248.631 333.981 241.762 346.112 234.726 358.537L234.188 359.487C226.946 372.278 219.567 385.381 213.994 398.193C208.416 411.014 204.706 423.415 204.706 434.795C204.706 452.506 215.976 467.652 232.832 481.944C245.819 492.956 261.889 503.275 278.204 513.751C283.056 516.867 287.93 519.996 292.751 523.162C313.685 536.91 333.614 551.341 345.802 568.139C351.914 576.564 356.113 585.626 357.5 595.534C358.888 605.45 357.446 616.115 352.421 627.715C343.422 648.492 320.484 666.216 291.616 681.178C262.679 696.176 227.477 708.552 193.521 718.485C159.555 728.421 126.779 735.928 102.676 741.172C97.0566 742.395 91.9177 743.493 87.3447 744.469C82.0962 745.591 77.5933 746.552 73.9646 747.361C70.5693 748.118 67.984 748.731 66.2964 749.207C65.5302 749.422 65.0016 749.596 64.679 749.726Z" fill="#777E90"/>
<path fill-rule="evenodd" clip-rule="evenodd" d="M137.527 -598.991C136.9 -598.474 136.81 -597.547 137.327 -596.92C192.01 -530.578 216.699 -483.685 215.538 -434.976C214.375 -386.183 187.28 -335.217 137.241 -260.711C117.131 -230.767 109.027 -205.637 109.07 -184.125C109.112 -162.587 117.318 -144.862 129.464 -129.75C141.588 -114.665 157.667 -102.144 173.526 -90.9752C178.352 -87.5764 183.147 -84.3094 187.807 -81.1343C198.535 -73.8242 208.547 -67.0016 216.577 -60.1826C241.107 -39.3513 249.373 -14.9073 242.796 8.53973C240.743 15.8609 236.682 23.2502 231.751 30.8137C228.862 35.2455 225.736 39.6475 222.568 44.11C220.293 47.3137 217.997 50.5486 215.749 53.8483C205.144 69.4172 195.964 85.9577 199 103.698C199.964 109.331 201.942 113.833 204.862 117.142C207.794 120.464 211.603 122.498 216.058 123.299C224.888 124.885 236.197 121.629 248.639 114.278C260.947 107.004 273.259 101.58 283.234 101.387C288.169 101.291 292.445 102.478 295.892 105.278C299.351 108.086 302.137 112.65 303.83 119.611C307.313 133.927 299.588 147.027 289.537 157.309C279.527 167.548 267.542 174.634 263.392 176.799C262.672 177.175 262.393 178.064 262.768 178.784C263.144 179.504 264.033 179.784 264.753 179.408C269.062 177.16 281.338 169.904 291.641 159.365C301.903 148.869 310.542 134.755 306.689 118.915C304.893 111.534 301.847 106.323 297.747 102.994C293.637 99.6556 288.63 98.3396 283.177 98.4453C272.378 98.6544 259.493 104.446 247.142 111.745C234.923 118.965 224.374 121.803 216.578 120.403C212.722 119.71 209.526 117.981 207.068 115.195C204.597 112.395 202.797 108.443 201.9 103.202C199.083 86.7405 207.556 71.1027 218.18 55.5045C220.35 52.3189 222.626 49.1131 224.898 45.9107C228.11 41.3848 231.317 36.8658 234.216 32.4205C239.197 24.7796 243.453 17.0911 245.629 9.33435C252.586 -15.4679 243.673 -41.0326 218.481 -62.4251C210.328 -69.3493 200.105 -76.3151 189.31 -83.6718C184.679 -86.827 179.944 -90.054 175.22 -93.3806C159.407 -104.518 143.611 -116.844 131.757 -131.593C119.925 -146.315 112.052 -163.411 112.012 -184.131C111.971 -204.876 119.782 -229.438 139.683 -259.071C189.673 -333.504 217.293 -385.142 218.479 -434.906C219.668 -484.756 194.342 -532.375 139.597 -598.792C139.081 -599.419 138.153 -599.508 137.527 -598.991Z" fill="#777E90"/>
<path fill-rule="evenodd" clip-rule="evenodd" d="M186.983 217.697C186.689 217.188 186.864 216.536 187.373 216.242C187.883 215.947 188.535 216.122 188.829 216.632L192.293 222.631C192.587 223.14 192.412 223.792 191.903 224.086C191.393 224.381 190.741 224.206 190.447 223.696L186.983 217.697ZM190.141 214.643C189.632 214.937 189.457 215.589 189.751 216.099L193.215 222.098C193.509 222.607 194.161 222.782 194.671 222.488C195.18 222.194 195.355 221.542 195.061 221.032L191.597 215.033C191.303 214.523 190.651 214.349 190.141 214.643ZM193.454 216.119C192.349 214.206 193.005 211.759 194.918 210.655L196.53 209.724L202.125 219.415L200.513 220.346C198.6 221.45 196.153 220.795 195.049 218.881L193.454 216.119ZM196.533 209.724C194.767 206.665 195.815 202.755 198.873 200.989L199.764 202.532C198.719 200.63 199.382 198.233 201.27 197.143L207.958 193.282L207.292 192.128C206.483 190.727 206.963 188.934 208.365 188.125C209.766 187.316 211.559 187.796 212.368 189.198L227.821 215.962C228.63 217.364 228.15 219.157 226.748 219.966C225.346 220.775 223.554 220.295 222.744 218.893L222.079 217.74L215.391 221.601C213.503 222.691 211.096 222.067 209.971 220.212L210.862 221.755C207.804 223.521 203.893 222.473 202.127 219.414L196.533 209.724Z" fill="#777E90"/>
<path fill-rule="evenodd" clip-rule="evenodd" d="M223.907 190.346C223.015 190.861 222.709 192.002 223.224 192.894C223.739 193.786 224.88 194.092 225.772 193.577L235.231 188.115L233.367 184.885L223.907 190.346ZM251.603 206.349C253.005 205.54 253.485 203.748 252.676 202.346L237.223 175.581C236.414 174.18 234.621 173.699 233.22 174.509C231.818 175.318 231.338 177.11 232.147 178.512L247.599 205.277C248.409 206.678 250.201 207.159 251.603 206.349ZM262.44 185.326C263.071 190.753 260.504 196.288 255.472 199.193L252.011 201.191L237.89 176.734L241.351 174.736C246.384 171.83 252.462 172.375 256.846 175.635L258.07 174.929C259.984 173.824 262.43 174.479 263.534 176.393L265.129 179.155C266.234 181.068 265.578 183.515 263.665 184.619L262.44 185.326ZM268.726 180.466C269.235 180.171 269.41 179.519 269.116 179.01L265.652 173.011C265.358 172.501 264.706 172.326 264.196 172.621C263.687 172.915 263.512 173.567 263.806 174.076L267.27 180.075C267.564 180.585 268.216 180.76 268.726 180.466ZM272.175 177.246C272.469 177.755 272.294 178.407 271.785 178.701C271.275 178.996 270.623 178.821 270.329 178.311L266.865 172.312C266.571 171.803 266.746 171.151 267.255 170.857C267.765 170.562 268.417 170.737 268.711 171.247L272.175 177.246ZM230.683 205.814C230.168 204.922 230.474 203.782 231.366 203.267L240.826 197.805L242.691 201.035L233.231 206.497C232.339 207.012 231.198 206.706 230.683 205.814Z" fill="#777E90"/>
<path fill-rule="evenodd" clip-rule="evenodd" d="M243.969 224.041C243.266 224.448 243.025 225.347 243.431 226.051L251.154 239.427C251.56 240.131 252.46 240.372 253.163 239.966C253.867 239.559 254.108 238.66 253.702 237.956L245.979 224.58C245.572 223.876 244.673 223.635 243.969 224.041Z" fill="#777E90"/>
<path fill-rule="evenodd" clip-rule="evenodd" d="M204.25 155.248C203.547 155.654 203.306 156.554 203.712 157.257L211.435 170.634C211.841 171.337 212.741 171.578 213.444 171.172C214.148 170.766 214.389 169.866 213.983 169.163L206.26 155.786C205.854 155.083 204.954 154.842 204.25 155.248Z" fill="#777E90"/>
<path fill-rule="evenodd" clip-rule="evenodd" d="M255.673 213.407C255.267 214.11 255.508 215.01 256.211 215.416L269.588 223.139C270.291 223.545 271.191 223.304 271.597 222.601C272.003 221.897 271.762 220.997 271.059 220.591L257.682 212.868C256.979 212.462 256.079 212.703 255.673 213.407Z" fill="#777E90"/>
<path fill-rule="evenodd" clip-rule="evenodd" d="M186.884 173.689C186.478 174.393 186.719 175.293 187.422 175.699L200.799 183.422C201.502 183.828 202.402 183.587 202.808 182.883C203.214 182.18 202.973 181.28 202.27 180.874L188.893 173.151C188.19 172.745 187.29 172.986 186.884 173.689Z" fill="#777E90"/>
<path fill-rule="evenodd" clip-rule="evenodd" d="M228.51 227.395C227.698 227.395 227.039 228.053 227.039 228.866L227.039 244.311C227.039 245.124 227.698 245.782 228.51 245.782C229.322 245.782 229.981 245.124 229.981 244.311L229.981 228.866C229.981 228.053 229.322 227.395 228.51 227.395Z" fill="#777E90"/>
<path fill-rule="evenodd" clip-rule="evenodd" d="M228.51 147.96C227.698 147.96 227.039 148.619 227.039 149.431L227.039 164.877C227.039 165.689 227.698 166.348 228.51 166.348C229.322 166.348 229.981 165.689 229.981 164.877L229.981 149.431C229.981 148.619 229.322 147.96 228.51 147.96Z" fill="#777E90"/>
<path fill-rule="evenodd" clip-rule="evenodd" d="M236.663 226.822C235.878 227.032 235.413 227.839 235.623 228.624L237.527 235.728C237.737 236.513 238.543 236.978 239.328 236.768C240.113 236.558 240.579 235.751 240.368 234.967L238.465 227.862C238.254 227.077 237.448 226.612 236.663 226.822Z" fill="#777E90"/>
<path fill-rule="evenodd" clip-rule="evenodd" d="M218.101 157.554C217.316 157.764 216.85 158.571 217.06 159.355L218.964 166.46C219.174 167.245 219.981 167.71 220.766 167.5C221.55 167.29 222.016 166.483 221.806 165.698L219.902 158.594C219.692 157.809 218.885 157.344 218.101 157.554Z" fill="#777E90"/>
<path fill-rule="evenodd" clip-rule="evenodd" d="M250.81 219.534C250.235 220.108 250.235 221.039 250.81 221.614L256.011 226.815C256.585 227.389 257.516 227.389 258.091 226.815C258.665 226.24 258.665 225.309 258.091 224.734L252.89 219.534C252.316 218.959 251.384 218.959 250.81 219.534Z" fill="#777E90"/>
<path fill-rule="evenodd" clip-rule="evenodd" d="M200.099 168.825C199.524 169.4 199.524 170.331 200.099 170.905L205.3 176.106C205.874 176.681 206.805 176.681 207.38 176.106C207.954 175.532 207.954 174.6 207.38 174.026L202.179 168.825C201.605 168.251 200.673 168.251 200.099 168.825Z" fill="#777E90"/>
<rect width="36.9228" height="8.52219" rx="4.26109" transform="matrix(-0.756823 0.65362 0.65362 0.756823 38.9453 382.521)" fill="#777E90"/>
<rect width="38.4929" height="8.52165" rx="4.26083" transform="matrix(0.502632 0.8645 0.8645 -0.502632 15.2227 384.723)" fill="#777E90"/>
<rect width="49.2887" height="11.3764" rx="5.6882" transform="matrix(-0.756823 0.65362 0.65362 0.756823 106.301 192.778)" fill="#777E90"/>
<rect width="51.3847" height="11.3757" rx="5.68784" transform="matrix(0.502632 0.8645 0.8645 -0.502632 74.6367 195.718)" fill="#777E90"/>
<rect width="16.4296" height="3.79213" rx="1.89607" transform="matrix(-0.756823 0.65362 0.65362 0.756823 299.434 47.9258)" fill="#777E90"/>
<rect width="17.1282" height="3.79189" rx="1.89595" transform="matrix(0.502632 0.8645 0.8645 -0.502632 288.879 48.9058)" fill="#777E90"/>
<path d="M95.9714 34.9617C103.135 34.9733 108.951 29.1757 108.963 22.0123C108.974 14.849 103.177 9.03257 96.0133 9.02098C88.85 9.00939 83.0336 14.807 83.022 21.9704C83.0104 29.1337 88.808 34.9501 95.9714 34.9617ZM96.0085 12.0235C101.514 12.0324 105.969 16.5024 105.96 22.0075C105.951 27.5126 101.481 31.9681 95.9762 31.9592C90.4711 31.9503 86.0156 27.4803 86.0245 21.9752C86.0334 16.4701 90.5034 12.0146 96.0085 12.0235Z" fill="#777E90"/>
<path d="M297.286 352.586C302.966 352.595 307.578 347.998 307.588 342.318C307.597 336.638 303 332.026 297.32 332.017C291.64 332.007 287.028 336.605 287.019 342.285C287.009 347.965 291.606 352.577 297.286 352.586ZM297.316 334.397C301.681 334.404 305.214 337.949 305.207 342.314C305.2 346.679 301.655 350.212 297.29 350.205C292.925 350.198 289.392 346.654 289.399 342.288C289.406 337.923 292.951 334.39 297.316 334.397Z" fill="#777E90"/>
</g>
<defs>
<clipPath id="clip0_2014_501858">
<rect width="375" height="1093.29" fill="white" transform="matrix(1 0 0 -1 0 769)"/>
</clipPath>
</defs>
</svg>
