<svg width="592" height="1000" viewBox="0 0 592 1000" fill="none" xmlns="http://www.w3.org/2000/svg">
<path fill-rule="evenodd" clip-rule="evenodd" d="M31.6424 -223.182C31.5266 -223.34 31.3854 -223.483 31.2199 -223.606C30.3328 -224.264 29.0801 -224.079 28.422 -223.192C28.019 -222.648 27.8846 -221.934 28.1063 -221.256C28.2822 -220.718 28.6234 -220.384 28.7949 -220.234C29.1513 -219.922 29.5863 -219.712 29.8948 -219.577C30.5813 -219.277 31.5685 -218.96 32.7568 -218.626C35.1693 -217.946 38.782 -217.091 43.397 -216.063C48.3359 -214.962 54.492 -213.647 61.6523 -212.117C67.8744 -210.788 74.8547 -209.297 82.4536 -207.643C115.191 -200.52 159.646 -190.337 205.694 -176.868C251.755 -163.394 299.335 -146.652 338.347 -126.432C377.453 -106.164 407.536 -82.607 419.188 -55.705C425.764 -40.5242 427.576 -26.7639 425.802 -14.0959C424.028 -1.41652 418.642 10.3012 410.622 21.3555C394.532 43.5318 368.027 62.8016 339.535 81.5121C333.073 85.756 326.508 89.9713 319.948 94.1831C297.721 108.454 275.558 122.685 257.677 137.845C234.528 157.474 218.024 179.089 218.024 205C218.024 221.278 223.314 238.73 230.984 256.36C238.659 274.004 248.799 292.001 258.628 309.361L259.297 310.543C268.913 327.525 278.159 343.853 284.589 358.791C291.192 374.128 294.66 387.64 292.773 398.663C291.554 405.789 289.107 411.162 285.747 414.969C282.405 418.757 278.06 421.108 272.817 422.05C262.218 423.954 247.875 420.095 231.262 410.278C214.469 400.355 196.952 392.48 182.268 392.196C174.855 392.052 168.048 393.842 162.459 398.38C156.885 402.907 152.743 409.992 150.301 420.027C145.063 441.562 156.809 460.752 170.761 475.023C184.769 489.352 201.46 499.217 207.318 502.273C208.297 502.784 209.506 502.405 210.016 501.425C210.527 500.446 210.148 499.238 209.168 498.727C203.527 495.783 187.231 486.149 173.621 472.227C159.956 458.248 149.453 440.438 154.188 420.973C156.49 411.509 160.279 405.304 164.981 401.485C169.668 397.678 175.481 396.065 182.191 396.195C195.754 396.458 212.492 403.833 229.227 413.722C246.143 423.717 261.519 428.143 273.524 425.987C279.581 424.899 284.759 422.133 288.746 417.616C292.716 413.117 295.405 406.997 296.716 399.337C298.808 387.111 294.926 372.685 288.264 357.209C281.745 342.067 272.406 325.575 262.84 308.682L262.109 307.39C252.262 289.999 242.23 272.184 234.652 254.765C227.068 237.333 222.024 220.472 222.024 205C222.024 180.92 237.347 160.328 260.264 140.896C277.922 125.925 299.77 111.895 321.952 97.6516C328.549 93.4153 335.176 89.1602 341.731 84.8557C370.193 66.1646 397.289 46.5439 413.859 23.7045C422.169 12.2508 427.878 -0.0707092 429.764 -13.5414C431.651 -27.0236 429.69 -41.5242 422.859 -57.2948C410.623 -85.5435 379.437 -109.641 340.187 -129.984C300.844 -150.375 252.984 -167.202 206.817 -180.707C160.636 -194.216 116.075 -204.422 83.304 -211.552C75.6632 -213.214 68.6762 -214.707 62.4588 -216.035C55.3229 -217.559 49.2007 -218.867 44.2672 -219.967C39.6509 -220.996 36.1359 -221.829 33.8414 -222.476C32.7997 -222.769 32.081 -223.005 31.6424 -223.182Z" fill="#777E90"/>
<path fill-rule="evenodd" clip-rule="evenodd" d="M130.69 1610.54C129.838 1609.84 129.716 1608.58 130.419 1607.73C204.766 1517.53 238.334 1453.77 236.755 1387.55C235.173 1321.21 198.335 1251.91 130.302 1150.62C102.96 1109.9 91.9424 1075.74 91.9997 1046.49C92.057 1017.21 103.215 993.106 119.728 972.56C136.212 952.049 158.074 935.027 179.636 919.841C186.197 915.22 192.716 910.778 199.051 906.461C213.637 896.523 227.25 887.247 238.168 877.975C271.519 849.653 282.757 816.419 273.815 784.54C271.023 774.586 265.503 764.54 258.798 754.256C254.87 748.231 250.621 742.246 246.313 736.179C243.22 731.823 240.098 727.425 237.042 722.938C222.623 701.771 210.143 679.282 214.27 655.163C215.581 647.503 218.27 641.383 222.24 636.884C226.227 632.367 231.405 629.601 237.462 628.513C249.467 626.357 264.843 630.783 281.759 640.778C298.494 650.667 315.232 658.042 328.795 658.305C335.505 658.435 341.318 656.822 346.005 653.015C350.707 649.196 354.496 642.991 356.798 633.527C361.533 614.062 351.031 596.252 337.365 582.273C323.755 568.352 307.459 558.717 301.818 555.773C300.838 555.262 300.459 554.054 300.97 553.075C301.481 552.096 302.689 551.716 303.668 552.227C309.526 555.283 326.217 565.148 340.225 579.477C354.177 593.748 365.923 612.938 360.685 634.473C358.243 644.508 354.101 651.593 348.527 656.12C342.939 660.658 336.131 662.448 328.718 662.304C314.035 662.02 296.517 654.145 279.724 644.222C263.111 634.405 248.768 630.546 238.17 632.45C232.926 633.392 228.581 635.744 225.239 639.531C221.879 643.338 219.432 648.711 218.213 655.837C214.383 678.218 225.902 699.479 240.348 720.687C243.298 725.018 246.391 729.376 249.481 733.73C253.848 739.884 258.209 746.028 262.149 752.072C268.922 762.46 274.709 772.914 277.667 783.46C287.125 817.181 275.007 851.939 240.757 881.024C229.671 890.439 215.773 899.909 201.095 909.911C194.799 914.201 188.361 918.589 181.939 923.112C160.438 938.254 138.962 955.013 122.846 975.065C106.76 995.081 96.0548 1018.33 95.9997 1046.5C95.9444 1074.7 106.565 1108.1 133.622 1148.38C201.589 1249.59 239.141 1319.79 240.754 1387.45C242.37 1455.23 207.937 1519.97 133.505 1610.27C132.803 1611.12 131.542 1611.25 130.69 1610.54Z" fill="#777E90"/>
<path fill-rule="evenodd" clip-rule="evenodd" d="M197.927 500.169C197.527 500.862 197.764 501.748 198.458 502.148C199.151 502.548 200.037 502.311 200.437 501.618L205.146 493.462C205.546 492.769 205.308 491.882 204.615 491.482C203.922 491.082 203.036 491.32 202.636 492.013L197.927 500.169ZM202.221 504.321C201.528 503.921 201.29 503.035 201.69 502.342L206.399 494.185C206.799 493.492 207.686 493.255 208.379 493.655C209.072 494.055 209.309 494.941 208.909 495.634L204.2 503.791C203.8 504.484 202.914 504.721 202.221 504.321ZM206.006 503.561C204.901 505.474 205.556 507.92 207.47 509.025L210.907 511.009L218.514 497.834L215.077 495.849C213.163 494.745 210.717 495.4 209.612 497.313L206.006 503.561ZM210.907 511.01C208.507 515.168 209.931 520.485 214.089 522.885L214.608 521.987C213.548 523.892 214.21 526.301 216.104 527.395L226.443 533.364L245.641 500.111L235.302 494.142C233.408 493.049 230.991 493.68 229.871 495.55L230.39 494.652C226.232 492.251 220.915 493.676 218.514 497.834L210.907 511.01ZM225.54 534.932C224.44 536.838 225.093 539.275 226.999 540.375C228.905 541.476 231.341 540.823 232.442 538.917L253.451 502.527C254.552 500.622 253.899 498.185 251.993 497.084C250.087 495.984 247.65 496.637 246.55 498.543L225.54 534.932Z" fill="#777E90"/>
<path fill-rule="evenodd" clip-rule="evenodd" d="M257.345 516.325C256.645 517.538 257.061 519.089 258.274 519.789L271.135 527.214L273.671 522.823L260.809 515.397C259.596 514.697 258.046 515.112 257.345 516.325ZM248.132 537.356C246.919 536.656 246.503 535.105 247.204 533.892C247.904 532.68 249.455 532.264 250.667 532.964L263.529 540.39L260.994 544.782L248.132 537.356ZM285.789 515.598C287.695 516.698 288.348 519.135 287.248 521.041L266.238 557.43C265.138 559.336 262.701 559.989 260.795 558.889C258.89 557.788 258.237 555.351 259.337 553.446L280.346 517.056C281.447 515.15 283.884 514.497 285.789 515.598ZM300.522 544.181C301.381 536.802 297.89 529.277 291.048 525.327L286.343 522.61L267.144 555.862L271.85 558.579C278.692 562.529 286.955 561.789 292.916 557.356L295.826 559.037C297.74 560.141 300.186 559.486 301.291 557.573L304.897 551.325C306.002 549.412 305.347 546.966 303.433 545.861L300.522 544.181ZM309.071 550.789C309.764 551.189 310.001 552.075 309.601 552.768L304.892 560.925C304.492 561.618 303.606 561.855 302.913 561.455C302.22 561.055 301.983 560.169 302.383 559.476L307.092 551.319C307.492 550.626 308.378 550.389 309.071 550.789ZM313.756 555.167C314.156 554.474 313.918 553.588 313.225 553.187C312.532 552.787 311.646 553.025 311.246 553.718L306.537 561.874C306.137 562.567 306.374 563.453 307.067 563.853C307.76 564.253 308.646 564.016 309.047 563.323L313.756 555.167Z" fill="#777E90"/>
<path fill-rule="evenodd" clip-rule="evenodd" d="M275.404 491.543C274.447 490.991 274.12 489.768 274.672 488.811L285.172 470.625C285.724 469.668 286.947 469.341 287.904 469.893C288.861 470.445 289.188 471.668 288.636 472.625L278.136 490.811C277.584 491.768 276.361 492.096 275.404 491.543Z" fill="#777E90"/>
<path fill-rule="evenodd" clip-rule="evenodd" d="M221.404 585.074C220.447 584.521 220.12 583.298 220.672 582.342L231.172 564.155C231.724 563.199 232.947 562.871 233.904 563.423C234.861 563.975 235.188 565.199 234.636 566.155L224.136 584.342C223.584 585.298 222.361 585.626 221.404 585.074Z" fill="#777E90"/>
<path fill-rule="evenodd" clip-rule="evenodd" d="M291.324 506.002C290.772 505.045 291.1 503.822 292.056 503.27L310.243 492.77C311.199 492.217 312.423 492.545 312.975 493.502C313.527 494.458 313.199 495.681 312.243 496.234L294.056 506.734C293.1 507.286 291.877 506.958 291.324 506.002Z" fill="#777E90"/>
<path fill-rule="evenodd" clip-rule="evenodd" d="M197.797 560.002C197.245 559.045 197.572 557.822 198.529 557.27L216.715 546.77C217.672 546.217 218.895 546.545 219.448 547.502C220 548.458 219.672 549.681 218.715 550.234L200.529 560.734C199.572 561.286 198.349 560.958 197.797 560.002Z" fill="#777E90"/>
<path fill-rule="evenodd" clip-rule="evenodd" d="M254.387 486.984C253.282 486.984 252.387 486.088 252.387 484.984L252.387 463.984C252.387 462.879 253.282 461.984 254.387 461.984C255.491 461.984 256.387 462.879 256.387 463.984L256.387 484.984C256.387 486.088 255.491 486.984 254.387 486.984Z" fill="#777E90"/>
<path fill-rule="evenodd" clip-rule="evenodd" d="M254.387 594.984C253.282 594.984 252.387 594.088 252.387 592.984L252.387 571.984C252.387 570.879 253.282 569.984 254.387 569.984C255.491 569.984 256.387 570.879 256.387 571.984L256.387 592.984C256.387 594.088 255.491 594.984 254.387 594.984Z" fill="#777E90"/>
<path fill-rule="evenodd" clip-rule="evenodd" d="M265.475 487.762C264.408 487.476 263.775 486.379 264.061 485.312L266.649 475.653C266.935 474.586 268.031 473.953 269.098 474.239C270.165 474.525 270.798 475.621 270.513 476.688L267.924 486.348C267.638 487.414 266.542 488.048 265.475 487.762Z" fill="#777E90"/>
<path fill-rule="evenodd" clip-rule="evenodd" d="M240.24 581.94C239.174 581.654 238.54 580.557 238.826 579.49L241.414 569.831C241.7 568.764 242.797 568.131 243.864 568.417C244.931 568.702 245.564 569.799 245.278 570.866L242.69 580.525C242.404 581.592 241.307 582.225 240.24 581.94Z" fill="#777E90"/>
<path fill-rule="evenodd" clip-rule="evenodd" d="M284.711 497.672C283.93 496.89 283.93 495.624 284.711 494.843L291.782 487.772C292.563 486.991 293.83 486.991 294.611 487.772C295.392 488.553 295.392 489.819 294.611 490.6L287.54 497.672C286.758 498.453 285.492 498.453 284.711 497.672Z" fill="#777E90"/>
<path fill-rule="evenodd" clip-rule="evenodd" d="M215.766 566.614C214.985 565.833 214.985 564.567 215.766 563.786L222.837 556.715C223.618 555.934 224.884 555.934 225.665 556.715C226.446 557.496 226.446 558.762 225.665 559.543L218.594 566.614C217.813 567.395 216.547 567.395 215.766 566.614Z" fill="#777E90"/>
<rect x="38.9453" y="386.479" width="36.9228" height="8.52219" rx="4.26109" transform="rotate(-139.185 38.9453 386.479)" fill="#777E90"/>
<rect x="15.2227" y="384.277" width="38.4929" height="8.52165" rx="4.26083" transform="rotate(-59.8257 15.2227 384.277)" fill="#777E90"/>
<rect x="529.301" y="467.362" width="49.2887" height="11.3764" rx="5.6882" transform="rotate(-139.185 529.301 467.362)" fill="#777E90"/>
<rect x="497.637" y="464.422" width="51.3847" height="11.3757" rx="5.68784" transform="rotate(-59.8257 497.637 464.422)" fill="#777E90"/>
<rect x="463.434" y="680.787" width="16.4296" height="3.79213" rx="1.89607" transform="rotate(-139.185 463.434 680.787)" fill="#777E90"/>
<rect x="452.879" y="679.807" width="17.1282" height="3.79189" rx="1.89595" transform="rotate(-59.8257 452.879 679.807)" fill="#777E90"/>
<path d="M107.128 732.047C123.216 732.021 136.278 745.041 136.304 761.129C136.33 777.216 123.31 790.278 107.223 790.304C91.1352 790.33 78.0727 777.31 78.0466 761.223C78.0206 745.135 91.0409 732.073 107.128 732.047ZM107.212 783.561C119.575 783.541 129.581 773.503 129.561 761.139C129.541 748.776 119.503 738.77 107.139 738.79C94.7759 738.81 84.7697 748.849 84.7897 761.212C84.8097 773.575 94.8483 783.581 107.212 783.561Z" fill="#777E90"/>
<path d="M368.286 316.017C373.966 316.008 378.578 320.605 378.588 326.285C378.597 331.965 374 336.577 368.32 336.586C362.64 336.595 358.028 331.998 358.019 326.318C358.009 320.638 362.606 316.026 368.286 316.017ZM368.316 334.205C372.681 334.198 376.214 330.654 376.207 326.289C376.2 321.923 372.655 318.391 368.29 318.398C363.925 318.405 360.392 321.949 360.399 326.314C360.406 330.679 363.951 334.212 368.316 334.205Z" fill="#777E90"/>
</svg>
