<svg width="131" height="196" viewBox="0 0 131 196" fill="none" xmlns="http://www.w3.org/2000/svg">
<path d="M44.0009 18.3136C38.5664 18.3136 34.2186 20.4558 30.9579 23.669C23.3495 31.1665 19.0019 46.1616 20.0888 67.583C20.0888 93.2887 26.6102 142.558 47.2615 168.264C50.5222 172.548 53.783 175.761 58.1306 177.903C61.3913 180.046 65.739 182.188 72.2605 182.188C74.4343 182.188 75.5212 182.188 77.695 182.188C89.651 178.974 103.781 167.193 114.65 150.055C116.824 147.913 118.998 145.771 122.258 145.771C124.432 145.771 125.519 145.771 126.606 146.842C128.78 147.913 129.867 150.055 130.954 152.198C130.954 154.34 130.954 156.482 129.867 158.624C115.737 180.045 98.3464 195.041 82.0427 199.325C78.782 200.396 75.5213 200.396 73.3474 200.396C62.4783 200.396 54.87 196.112 49.4355 192.898C44.0009 189.685 39.6532 184.33 34.2186 178.974C5.95901 142.558 3.78516 75.0805 3.78516 67.583C3.78516 49.3748 5.95898 25.8112 20.0888 10.8162C26.6102 4.38975 35.3056 0.105469 46.1747 0.105469H48.3485C58.1307 0.105469 66.8259 3.31868 74.4342 10.8162C88.5641 24.7401 91.8248 49.3748 90.7379 67.583C90.7379 85.7912 87.4772 122.208 66.8259 155.411C65.739 157.553 62.4783 159.695 59.2176 159.695C58.1307 159.695 55.9569 159.695 54.87 158.624C50.5224 156.482 49.4354 151.126 51.6093 146.842C65.7391 124.35 72.2605 98.6441 72.2605 67.583C72.2605 47.2326 68.9997 31.1665 61.3914 23.669C58.1306 20.4558 53.783 18.3136 48.3485 18.3136H44.0009Z" fill="url(#paint0_linear_6087_641186)"/>
<ellipse cx="10.9088" cy="191.682" rx="10.3033" ry="10.3033" fill="url(#paint1_linear_6087_641186)"/>
<defs>
<linearGradient id="paint0_linear_6087_641186" x1="4.08302" y1="100.196" x2="130.628" y2="100.196" gradientUnits="userSpaceOnUse">
<stop stop-color="#8CB7A6"/>
<stop offset="0.227" stop-color="#E9E8E9"/>
<stop offset="0.4049" stop-color="#E4BA8A"/>
<stop offset="0.6687" stop-color="#DEA0BB"/>
<stop offset="0.88" stop-color="#82A7C1"/>
<stop offset="1" stop-color="#E8D3BC"/>
</linearGradient>
<linearGradient id="paint1_linear_6087_641186" x1="0.653735" y1="191.677" x2="21.1593" y2="191.677" gradientUnits="userSpaceOnUse">
<stop stop-color="#8CB7A6"/>
<stop offset="0.227" stop-color="#E9E8E9"/>
<stop offset="0.4049" stop-color="#E4BA8A"/>
<stop offset="0.6687" stop-color="#DEA0BB"/>
<stop offset="0.88" stop-color="#82A7C1"/>
<stop offset="1" stop-color="#E8D3BC"/>
</linearGradient>
</defs>
</svg>
