<svg width="48" height="48" viewBox="0 0 48 48" fill="none" xmlns="http://www.w3.org/2000/svg">
<rect width="48" height="48" rx="24" fill="url(#paint0_linear_2734_105832)"/>
<path d="M17.4746 19.0469V29H16.1553V19.0469H17.4746ZM23.4834 19.0469L19.3477 23.6885L17.0234 26.1016L16.8047 24.6934L18.5547 22.7656L21.8975 19.0469H23.4834ZM22.2119 29L18.5273 24.1465L19.3135 23.1006L23.7842 29H22.2119ZM28.7941 24.3447H26.2717L26.258 23.2852H28.548C28.9263 23.2852 29.2567 23.2214 29.5393 23.0938C29.8218 22.9661 30.0406 22.7839 30.1955 22.5469C30.355 22.3053 30.4348 22.0182 30.4348 21.6855C30.4348 21.321 30.3641 21.0247 30.2229 20.7969C30.0861 20.5645 29.8742 20.3958 29.5871 20.291C29.3046 20.1816 28.9445 20.127 28.507 20.127H26.5656V29H25.2463V19.0469H28.507C29.0174 19.0469 29.4732 19.0993 29.8742 19.2041C30.2753 19.3044 30.6148 19.4639 30.8928 19.6826C31.1753 19.8968 31.3895 20.1702 31.5354 20.5029C31.6812 20.8356 31.7541 21.2344 31.7541 21.6992C31.7541 22.1094 31.6493 22.4808 31.4396 22.8135C31.23 23.1416 30.9383 23.4105 30.5646 23.6201C30.1955 23.8298 29.7626 23.9642 29.2658 24.0234L28.7941 24.3447ZM28.7326 29H25.7521L26.4973 27.9268H28.7326C29.1519 27.9268 29.5074 27.8538 29.799 27.708C30.0952 27.5622 30.3208 27.3571 30.4758 27.0928C30.6307 26.8239 30.7082 26.5072 30.7082 26.1426C30.7082 25.7734 30.6421 25.4544 30.51 25.1855C30.3778 24.9167 30.1704 24.7093 29.8879 24.5635C29.6053 24.4176 29.2408 24.3447 28.7941 24.3447H26.9143L26.9279 23.2852H29.4982L29.7785 23.668C30.257 23.709 30.6626 23.8457 30.9953 24.0781C31.328 24.306 31.5809 24.5977 31.7541 24.9531C31.9318 25.3086 32.0207 25.7005 32.0207 26.1289C32.0207 26.7487 31.884 27.2728 31.6105 27.7012C31.3417 28.125 30.9611 28.4486 30.4689 28.6719C29.9768 28.8906 29.398 29 28.7326 29Z" fill="#E15449"/>
<defs>
<linearGradient id="paint0_linear_2734_105832" x1="6" y1="8.625" x2="42" y2="40.125" gradientUnits="userSpaceOnUse">
<stop stop-color="#FBEFDF"/>
<stop offset="1" stop-color="#F2C8A0"/>
</linearGradient>
</defs>
</svg>
