<svg width="152" height="44" viewBox="0 0 152 44" fill="none" xmlns="http://www.w3.org/2000/svg">
<path d="M146.37 44H5.62963C2.53474 44 0 41.5236 0 38.5V5.50002C0 2.4764 2.53474 2.1222e-05 5.62963 2.1222e-05H146.37C149.465 2.1222e-05 152 2.4764 152 5.50002V38.5C152 41.5236 149.465 44 146.37 44Z" fill="black"/>
<path d="M146.37 0.881395C148.977 0.881395 151.098 2.95352 151.098 5.50002V38.5C151.098 41.0465 148.977 43.1186 146.37 43.1186H5.62963C3.02311 43.1186 0.902148 41.0465 0.902148 38.5V5.50002C0.902148 2.95352 3.02311 0.881395 5.62963 0.881395H146.37ZM146.37 2.1222e-05H5.62963C2.53474 2.1222e-05 0 2.4764 0 5.50002V38.5C0 41.5236 2.53474 44 5.62963 44H146.37C149.465 44 152 41.5236 152 38.5V5.50002C152 2.4764 149.465 2.1222e-05 146.37 2.1222e-05Z" fill="#A6A6A6"/>
<path d="M53.3873 11.2679C53.3873 12.1864 53.1059 12.922 52.5513 13.4706C51.9138 14.121 51.0834 14.4483 50.0659 14.4483C49.0933 14.4483 48.263 14.1155 47.5818 13.4596C46.8992 12.7941 46.5586 11.9774 46.5586 10.9998C46.5586 10.0221 46.8992 9.2054 47.5818 8.5454C48.263 7.88402 49.0933 7.55127 50.0659 7.55127C50.55 7.55127 51.0116 7.64889 51.4521 7.83039C51.8913 8.01327 52.2487 8.26077 52.5077 8.56602L51.9194 9.14627C51.4676 8.62515 50.8526 8.36802 50.0659 8.36802C49.3565 8.36802 48.7415 8.61002 48.2193 9.09814C47.7028 9.58764 47.4439 10.2215 47.4439 10.9998C47.4439 11.778 47.7028 12.4174 48.2193 12.9069C48.7415 13.3895 49.3565 13.637 50.0659 13.637C50.8188 13.637 51.4522 13.3895 51.9518 12.9014C52.2811 12.5783 52.4683 12.1328 52.5176 11.5635H50.0659V10.7688H53.3367C53.3761 10.9406 53.3873 11.107 53.3873 11.2679Z" fill="white" stroke="white" stroke-width="0.16" stroke-miterlimit="10"/>
<path d="M58.5789 8.51251H55.5065V10.6025H58.2763V11.3973H55.5065V13.4873H58.5789V14.2971H54.6367V7.70264H58.5789V8.51251Z" fill="white" stroke="white" stroke-width="0.16" stroke-miterlimit="10"/>
<path d="M62.2387 14.2971H61.3689V8.51251H59.4844V7.70264H64.1246V8.51251H62.2387V14.2971Z" fill="white" stroke="white" stroke-width="0.16" stroke-miterlimit="10"/>
<path d="M67.4844 14.2971V7.70264H68.3527V14.2971H67.4844Z" fill="white" stroke="white" stroke-width="0.16" stroke-miterlimit="10"/>
<path d="M72.1996 14.2971H71.3369V8.51251H69.4453V7.70264H74.0912V8.51251H72.1996V14.2971Z" fill="white" stroke="white" stroke-width="0.16" stroke-miterlimit="10"/>
<path d="M82.8788 13.4486C82.2131 14.1155 81.3884 14.4483 80.4046 14.4483C79.4152 14.4483 78.5904 14.1155 77.9247 13.4486C77.2604 12.7831 76.9297 11.9664 76.9297 10.9998C76.9297 10.0331 77.2604 9.21639 77.9247 8.55089C78.5904 7.88402 79.4152 7.55127 80.4046 7.55127C81.3827 7.55127 82.2075 7.88402 82.8732 8.55639C83.5431 9.22739 83.8738 10.0386 83.8738 10.9998C83.8738 11.9664 83.5431 12.7831 82.8788 13.4486ZM78.5679 12.8959C79.0689 13.3895 79.6784 13.637 80.4046 13.637C81.1252 13.637 81.7402 13.3895 82.2356 12.8959C82.7352 12.4023 82.9886 11.7684 82.9886 10.9998C82.9886 10.2311 82.7352 9.59727 82.2356 9.10365C81.7402 8.61002 81.1252 8.36252 80.4046 8.36252C79.6784 8.36252 79.0689 8.61002 78.5679 9.10365C78.0683 9.59727 77.8149 10.2311 77.8149 10.9998C77.8149 11.7684 78.0683 12.4023 78.5679 12.8959Z" fill="white" stroke="white" stroke-width="0.16" stroke-miterlimit="10"/>
<path d="M85.0938 14.2971V7.70264H86.1493L89.4314 12.8314H89.4694L89.4314 11.5636V7.70264H90.2998V14.2971H89.3934L85.9565 8.91539H85.9185L85.9565 10.1886V14.2971H85.0938Z" fill="white" stroke="white" stroke-width="0.16" stroke-miterlimit="10"/>
<path d="M76.714 23.9279C74.0695 23.9279 71.9091 25.8941 71.9091 28.607C71.9091 31.2979 74.0695 33.2847 76.714 33.2847C79.3641 33.2847 81.5245 31.2979 81.5245 28.607C81.5245 25.8941 79.3641 23.9279 76.714 23.9279ZM76.714 31.4422C75.2629 31.4422 74.0146 30.2721 74.0146 28.607C74.0146 26.9199 75.2629 25.7704 76.714 25.7704C78.165 25.7704 79.419 26.9199 79.419 28.607C79.419 30.2721 78.165 31.4422 76.714 31.4422ZM66.2302 23.9279C63.5801 23.9279 61.4253 25.8941 61.4253 28.607C61.4253 31.2979 63.5801 33.2847 66.2302 33.2847C68.8789 33.2847 71.0351 31.2979 71.0351 28.607C71.0351 25.8941 68.8789 23.9279 66.2302 23.9279ZM66.2302 31.4422C64.7778 31.4422 63.5252 30.2721 63.5252 28.607C63.5252 26.9199 64.7778 25.7704 66.2302 25.7704C67.6812 25.7704 68.9296 26.9199 68.9296 28.607C68.9296 30.2721 67.6812 31.4422 66.2302 31.4422ZM53.755 25.362V27.3502H58.6147C58.4726 28.4612 58.0926 29.278 57.5099 29.8472C56.8006 30.5347 55.6958 31.2979 53.755 31.2979C50.7642 31.2979 48.4223 28.9397 48.4223 26.0179C48.4223 23.096 50.7642 20.7379 53.755 20.7379C55.3721 20.7379 56.5487 21.3552 57.417 22.1555L58.8512 20.7544C57.6366 19.6214 56.0209 18.751 53.755 18.751C49.6538 18.751 46.207 22.0111 46.207 26.0179C46.207 30.0246 49.6538 33.2847 53.755 33.2847C55.9716 33.2847 57.6366 32.5752 58.9455 31.2442C60.2867 29.9339 60.7047 28.0914 60.7047 26.6036C60.7047 26.1416 60.6653 25.7167 60.595 25.362H53.755ZM104.768 26.9034C104.372 25.857 103.152 23.9279 100.667 23.9279C98.2037 23.9279 96.1531 25.824 96.1531 28.607C96.1531 31.2277 98.1826 33.2847 100.903 33.2847C103.103 33.2847 104.372 31.9744 104.894 31.2112L103.262 30.1484C102.717 30.9266 101.976 31.4422 100.903 31.4422C99.8377 31.4422 99.0734 30.9651 98.5837 30.0246L104.989 27.4355L104.768 26.9034ZM98.2375 28.4612C98.1826 26.6572 99.6716 25.7332 100.738 25.7332C101.574 25.7332 102.284 26.1416 102.52 26.726L98.2375 28.4612ZM93.0315 33.0001H95.1369V19.2501H93.0315V33.0001ZM89.5833 24.9701H89.5129C89.04 24.4229 88.1379 23.9279 86.9951 23.9279C84.5969 23.9279 82.4041 25.9849 82.4041 28.6221C82.4041 31.2442 84.5969 33.2847 86.9951 33.2847C88.1379 33.2847 89.04 32.7856 89.5129 32.2219H89.5833V32.8929C89.5833 34.6817 88.6052 35.6429 87.0275 35.6429C85.7411 35.6429 84.9431 34.7354 84.6138 33.9722L82.7827 34.7189C83.3105 35.9591 84.708 37.4854 87.0275 37.4854C89.496 37.4854 91.579 36.0664 91.579 32.6137V24.2125H89.5833V24.9701ZM87.1752 31.4422C85.7242 31.4422 84.5096 30.2556 84.5096 28.6221C84.5096 26.9735 85.7242 25.7704 87.1752 25.7704C88.6052 25.7704 89.7325 26.9735 89.7325 28.6221C89.7325 30.2556 88.6052 31.4422 87.1752 31.4422ZM114.625 19.2501H109.59V33.0001H111.689V27.7902H114.625C116.957 27.7902 119.244 26.1416 119.244 23.5195C119.244 20.8987 116.952 19.2501 114.625 19.2501ZM114.68 25.8776H111.689V21.1627H114.68C116.248 21.1627 117.143 22.4346 117.143 23.5195C117.143 24.5837 116.248 25.8776 114.68 25.8776ZM127.661 23.9017C126.144 23.9017 124.566 24.5562 123.917 26.0069L125.78 26.77C126.182 26.0069 126.919 25.7594 127.699 25.7594C128.788 25.7594 129.893 26.3987 129.91 27.5276V27.672C129.53 27.4575 128.716 27.1399 127.716 27.1399C125.709 27.1399 123.664 28.2192 123.664 30.2336C123.664 32.0761 125.308 33.2627 127.155 33.2627C128.568 33.2627 129.348 32.6399 129.838 31.9152H129.91V32.9781H131.938V27.7036C131.938 25.2657 130.074 23.9017 127.661 23.9017ZM127.407 31.4367C126.721 31.4367 125.764 31.104 125.764 30.2721C125.764 29.2079 126.957 28.7995 127.99 28.7995C128.915 28.7995 129.348 28.9989 129.91 29.2615C129.745 30.5347 128.623 31.4367 127.407 31.4367ZM139.327 24.2029L136.913 30.1635H136.841L134.346 24.2029H132.081L135.831 32.5326L133.691 37.1677H135.886L141.663 24.2029H139.327ZM120.398 33.0001H122.504V19.2501H120.398V33.0001Z" fill="white"/>
<path d="M11.7487 8.2926C11.418 8.63085 11.2266 9.15748 11.2266 9.83948V34.166C11.2266 34.848 11.418 35.3746 11.7487 35.7129L11.8303 35.7871L25.7834 22.1609V21.8391L11.8303 8.21285L11.7487 8.2926Z" fill="url(#paint0_linear_934_195519)"/>
<path d="M30.431 26.7056L25.7852 22.1612V21.8394L30.4366 17.2951L30.5408 17.3542L36.0494 20.4163C37.6215 21.2853 37.6215 22.7153 36.0494 23.5898L30.5408 26.6464L30.431 26.7056Z" fill="url(#paint1_linear_934_195519)"/>
<path d="M30.5403 26.6462L25.7847 22.0001L11.75 35.713C12.2721 36.2492 13.1236 36.3138 14.0919 35.7776L30.5403 26.6462Z" fill="url(#paint2_linear_934_195519)"/>
<path d="M30.5403 17.3539L14.0919 8.2225C13.1236 7.69175 12.2721 7.75638 11.75 8.29263L25.7847 22L30.5403 17.3539Z" fill="url(#paint3_linear_934_195519)"/>
<defs>
<linearGradient id="paint0_linear_934_195519" x1="24.5445" y1="34.4193" x2="6.08888" y2="15.5287" gradientUnits="userSpaceOnUse">
<stop stop-color="#00A0FF"/>
<stop offset="0.0066" stop-color="#00A1FF"/>
<stop offset="0.2601" stop-color="#00BEFF"/>
<stop offset="0.5122" stop-color="#00D2FF"/>
<stop offset="0.7604" stop-color="#00DFFF"/>
<stop offset="1" stop-color="#00E3FF"/>
</linearGradient>
<linearGradient id="paint1_linear_934_195519" x1="38.0965" y1="21.9988" x2="10.8526" y2="21.9988" gradientUnits="userSpaceOnUse">
<stop stop-color="#FFE000"/>
<stop offset="0.4087" stop-color="#FFBD00"/>
<stop offset="0.7754" stop-color="#FFA500"/>
<stop offset="1" stop-color="#FF9C00"/>
</linearGradient>
<linearGradient id="paint2_linear_934_195519" x1="27.9543" y1="19.4744" x2="2.92699" y2="-6.14282" gradientUnits="userSpaceOnUse">
<stop stop-color="#FF3A44"/>
<stop offset="1" stop-color="#C31162"/>
</linearGradient>
<linearGradient id="paint3_linear_934_195519" x1="8.21718" y1="43.8062" x2="19.393" y2="32.3671" gradientUnits="userSpaceOnUse">
<stop stop-color="#32A071"/>
<stop offset="0.0685" stop-color="#2DA771"/>
<stop offset="0.4762" stop-color="#15CF74"/>
<stop offset="0.8009" stop-color="#06E775"/>
<stop offset="1" stop-color="#00F076"/>
</linearGradient>
</defs>
</svg>
