<svg width="42" height="60" viewBox="0 0 42 60" fill="none" xmlns="http://www.w3.org/2000/svg">
<path d="M30.6061 54.4295C31.4252 54.5533 31.9889 55.3176 31.8651 56.1368C31.7414 56.9559 30.977 57.5196 30.1579 57.3958L30.6061 54.4295ZM10.1215 30.1584L11.6164 30.0349L11.6164 30.0349L10.1215 30.1584ZM21.2595 2.82366C21.9099 2.31062 22.8531 2.42201 23.3661 3.07245C23.8792 3.72289 23.7678 4.66608 23.1174 5.17913L21.2595 2.82366ZM21.5888 11.8222C21.3212 12.6063 20.4687 13.0249 19.6847 12.7574C18.9007 12.4898 18.482 11.6373 18.7496 10.8533L21.5888 11.8222ZM22.7469 3.7847L22.9853 2.30377C23.4217 2.37402 23.8049 2.63317 24.0326 3.01202C24.2602 3.39088 24.3093 3.85086 24.1665 4.26918L22.7469 3.7847ZM15.3955 4.12049C14.5776 3.98882 14.0213 3.21904 14.153 2.40115C14.2847 1.58325 15.0544 1.02696 15.8723 1.15863L15.3955 4.12049ZM30.382 55.9127C30.1579 57.3958 30.1569 57.3957 30.1559 57.3955C30.1555 57.3955 30.1544 57.3953 30.1535 57.3952C30.1518 57.3949 30.1498 57.3946 30.1475 57.3942C30.1429 57.3935 30.1372 57.3926 30.1304 57.3915C30.1168 57.3893 30.0987 57.3864 30.0764 57.3825C30.0318 57.3749 29.97 57.3639 29.8922 57.3489C29.7367 57.3191 29.5167 57.2734 29.241 57.2076C28.6898 57.076 27.914 56.8634 26.9832 56.5343C25.124 55.8769 22.6301 54.7488 20.0724 52.8595C14.9129 49.0485 9.61298 42.2229 8.62656 30.2819L11.6164 30.0349C12.5283 41.0738 17.3586 47.1253 21.8548 50.4464C24.1249 52.1232 26.3402 53.125 27.9832 53.7059C28.8036 53.996 29.4771 54.1796 29.9375 54.2896C30.1676 54.3445 30.344 54.3809 30.4583 54.4028C30.5155 54.4138 30.5571 54.4212 30.582 54.4255C30.5945 54.4276 30.6029 54.429 30.6069 54.4296C30.6089 54.4299 30.6099 54.4301 30.6098 54.4301C30.6097 54.43 30.6093 54.43 30.6087 54.4299C30.6084 54.4299 30.6078 54.4298 30.6076 54.4297C30.6069 54.4296 30.6061 54.4295 30.382 55.9127ZM8.62656 30.2819C7.94262 22.004 11.1443 15.1212 14.438 10.3677C16.089 7.985 17.7802 6.11136 19.0609 4.83094C19.7021 4.18992 20.2427 3.69529 20.6271 3.35764C20.8194 3.18875 20.9728 3.05895 21.0804 2.96955C21.1343 2.92485 21.1767 2.89023 21.2068 2.86587C21.2218 2.85368 21.2338 2.84406 21.2427 2.83702C21.2471 2.8335 21.2507 2.83063 21.2535 2.8284C21.2549 2.82729 21.2561 2.82634 21.2571 2.82555C21.2576 2.82515 21.2582 2.82468 21.2584 2.82449C21.259 2.82405 21.2595 2.82366 22.1884 4.0014C23.1174 5.17913 23.1178 5.17882 23.1181 5.17855C23.1181 5.17852 23.1184 5.17828 23.1185 5.17821C23.1187 5.17806 23.1187 5.17808 23.1185 5.17825C23.1181 5.17859 23.1168 5.17956 23.1148 5.18116C23.1108 5.18437 23.1037 5.1901 23.0935 5.19833C23.0731 5.21479 23.0407 5.24124 22.997 5.27752C22.9096 5.35009 22.7773 5.4619 22.6069 5.61161C22.2658 5.91116 21.7729 6.3617 21.182 6.9525C19.9985 8.13573 18.431 9.87239 16.9039 12.0763C13.8415 16.496 11.0097 22.6917 11.6164 30.0349L8.62656 30.2819ZM18.7496 10.8533L21.3273 3.30022L24.1665 4.26918L21.5888 11.8222L18.7496 10.8533ZM22.5085 5.26563L15.3955 4.12049L15.8723 1.15863L22.9853 2.30377L22.5085 5.26563Z" fill="white"/>
</svg>
