<svg width="40" height="55" viewBox="0 0 40 55" fill="none" xmlns="http://www.w3.org/2000/svg">
<path d="M11.8344 5.90564C12.3828 5.28471 12.324 4.33679 11.7031 3.78838C11.0821 3.23998 10.1342 3.29876 9.58581 3.91969L11.8344 5.90564ZM12.0771 34.2127L13.2228 33.2445L13.2228 33.2445L12.0771 34.2127ZM38.052 44.5197C38.8752 44.4264 39.4668 43.6834 39.3735 42.8603C39.2801 42.0371 38.5371 41.4455 37.714 41.5388L38.052 44.5197ZM32.2951 38.3188C31.543 37.9715 30.6517 38.2997 30.3045 39.0518C29.9572 39.804 30.2854 40.6952 31.0375 41.0425L32.2951 38.3188ZM38.4398 42.8082L39.573 43.791C39.882 43.4347 40.0054 42.9538 39.9062 42.4927C39.807 42.0316 39.4967 41.6441 39.0686 41.4464L38.4398 42.8082ZM32.7207 47.1134C32.178 47.7392 32.2453 48.6866 32.8712 49.2294C33.497 49.7721 34.4444 49.7048 34.9872 49.0789L32.7207 47.1134ZM10.7101 4.91266C9.58581 3.91969 9.58521 3.92036 9.58457 3.92108C9.5843 3.9214 9.58361 3.92218 9.58307 3.9228C9.58197 3.92405 9.58069 3.9255 9.57923 3.92717C9.57631 3.9305 9.57268 3.93467 9.56834 3.93967C9.55967 3.94967 9.54819 3.963 9.53405 3.97961C9.50577 4.01282 9.46683 4.05919 9.4184 4.11836C9.32154 4.23667 9.18654 4.40637 9.02269 4.6247C8.69523 5.06103 8.25108 5.69353 7.76534 6.50005C6.79597 8.10956 5.64799 10.4337 4.94169 13.2911C3.51211 19.0748 3.93577 26.9027 10.9314 35.1809L13.2228 33.2445C6.89648 25.7584 6.63664 18.9363 7.85404 14.011C8.47124 11.514 9.47936 9.4689 10.3352 8.04783C10.7621 7.33905 11.1479 6.79091 11.4221 6.42543C11.5592 6.24285 11.668 6.10635 11.7398 6.01869C11.7756 5.97487 11.8022 5.9433 11.8183 5.92434C11.8264 5.91485 11.8319 5.90852 11.8346 5.90539C11.836 5.90383 11.8366 5.90306 11.8366 5.9031C11.8366 5.90312 11.8364 5.90334 11.836 5.90376C11.8358 5.90397 11.8354 5.90444 11.8353 5.90455C11.8349 5.90507 11.8344 5.90564 10.7101 4.91266ZM10.9314 35.1809C15.7861 40.9258 22.644 43.2276 28.1353 44.1202C30.8963 44.5689 33.3593 44.6697 35.1336 44.6586C36.0221 44.6531 36.7413 44.6195 37.2432 44.5868C37.4942 44.5705 37.6911 44.5543 37.8278 44.5419C37.8962 44.5357 37.9496 44.5305 37.9872 44.5266C38.006 44.5247 38.0209 44.5232 38.0317 44.522C38.0371 44.5214 38.0415 44.5209 38.0449 44.5205C38.0466 44.5204 38.0481 44.5202 38.0493 44.5201C38.0498 44.52 38.0505 44.5199 38.0508 44.5199C38.0515 44.5198 38.052 44.5197 37.883 43.0293C37.714 41.5388 37.7144 41.5388 37.7148 41.5388C37.7148 41.5388 37.7152 41.5387 37.7152 41.5387C37.7154 41.5387 37.7153 41.5387 37.715 41.5387C37.7143 41.5388 37.7126 41.539 37.71 41.5393C37.7046 41.5399 37.6953 41.5408 37.6822 41.5422C37.6559 41.5449 37.6141 41.549 37.5576 41.5541C37.4445 41.5643 37.2727 41.5785 37.048 41.5932C36.5984 41.6225 35.9383 41.6536 35.115 41.6587C33.4656 41.669 31.1751 41.5749 28.6166 41.159C23.4688 40.3223 17.4238 38.2159 13.2228 33.2445L10.9314 35.1809ZM31.0375 41.0425L37.8109 44.17L39.0686 41.4464L32.2951 38.3188L31.0375 41.0425ZM37.3065 41.8254L32.7207 47.1134L34.9872 49.0789L39.573 43.791L37.3065 41.8254Z" fill="white"/>
</svg>
