<svg width="24" height="24" viewBox="0 0 24 24" fill="none" xmlns="http://www.w3.org/2000/svg">
<path d="M16.5001 15C15.9999 14.9992 15.5046 15.0992 15.0439 15.2941C14.5833 15.489 14.1666 15.7748 13.8188 16.1344L9.49696 13.3594C9.83433 12.4845 9.83433 11.5155 9.49696 10.6406L13.8188 7.86562C14.4268 8.48742 15.232 8.87858 16.0966 8.97214C16.9612 9.0657 17.8315 8.85585 18.5584 8.3785C19.2854 7.90116 19.8238 7.186 20.0816 6.35543C20.3393 5.52486 20.3004 4.63052 19.9715 3.82548C19.6425 3.02044 19.044 2.35476 18.2784 1.94236C17.5127 1.52996 16.6275 1.39649 15.7743 1.5648C14.9211 1.73311 14.1529 2.19272 13.6012 2.86498C13.0496 3.53724 12.7487 4.38035 12.7501 5.25C12.7516 5.7147 12.8374 6.17528 13.0032 6.60937L8.68133 9.38437C8.16101 8.84981 7.49306 8.48258 6.76292 8.32965C6.03277 8.17671 5.2736 8.24503 4.58249 8.52585C3.89137 8.80667 3.29972 9.28724 2.88318 9.9061C2.46664 10.525 2.24414 11.254 2.24414 12C2.24414 12.746 2.46664 13.475 2.88318 14.0939C3.29972 14.7128 3.89137 15.1933 4.58249 15.4742C5.2736 15.755 6.03277 15.8233 6.76292 15.6704C7.49306 15.5174 8.16101 15.1502 8.68133 14.6156L13.0032 17.3906C12.8374 17.8247 12.7516 18.2853 12.7501 18.75C12.7501 19.4917 12.97 20.2167 13.3821 20.8334C13.7941 21.4501 14.3798 21.9307 15.065 22.2145C15.7502 22.4984 16.5042 22.5726 17.2317 22.4279C17.9591 22.2832 18.6273 21.9261 19.1517 21.4016C19.6762 20.8772 20.0333 20.209 20.178 19.4816C20.3227 18.7542 20.2485 18.0002 19.9646 17.3149C19.6808 16.6297 19.2002 16.044 18.5835 15.632C17.9668 15.2199 17.2418 15 16.5001 15Z" fill="white"/>
</svg>
