<svg width="49" height="48" viewBox="0 0 49 48" fill="none" xmlns="http://www.w3.org/2000/svg">
<path d="M36.1672 6.71844V4.55844C36.1672 3.3655 35.2001 2.39844 34.0072 2.39844H13.1272C11.9343 2.39844 10.9672 3.3655 10.9672 4.55844V6.71844C10.9672 7.91137 11.9343 8.87844 13.1272 8.87844V11.0384C13.1271 12.077 12.6786 13.0649 11.8967 13.7485L9.82311 15.5615C8.26359 16.9283 7.36864 18.9008 7.36719 20.9744V38.3984C7.37155 42.3731 10.5925 45.5941 14.5672 45.5984H32.5672C36.5418 45.5941 39.7628 42.3731 39.7672 38.3984V20.9744C39.7664 18.8994 38.8711 16.9255 37.3106 15.5579L35.2377 13.7456C34.4566 13.0627 34.0081 12.076 34.0072 11.0384V8.87844C35.2001 8.87844 36.1672 7.91137 36.1672 6.71844ZM12.4072 6.71844V4.55844C12.4072 4.16079 12.7295 3.83844 13.1272 3.83844H34.0072C34.4048 3.83844 34.7272 4.16079 34.7272 4.55844V6.71844C34.7272 7.11608 34.4048 7.43844 34.0072 7.43844H13.1272C12.7295 7.43844 12.4072 7.11608 12.4072 6.71844ZM32.5672 10.3184H21.0472C20.6495 10.3184 20.3272 10.6408 20.3272 11.0384C20.3272 11.4361 20.6495 11.7584 21.0472 11.7584H32.6255C32.795 12.9493 33.3856 14.04 34.2902 14.8328L36.3623 16.6444C37.6097 17.7378 38.3257 19.3156 38.3272 20.9744V38.3984C38.3236 41.5781 35.7469 44.1549 32.5672 44.1584H14.5672C11.3875 44.1549 8.81076 41.5781 8.80719 38.3984V20.9744C8.8074 19.3147 9.52354 17.7357 10.7721 16.6422L12.8442 14.83C13.7482 14.0379 14.3387 12.9483 14.5089 11.7584H17.4472C17.8448 11.7584 18.1672 11.4361 18.1672 11.0384C18.1672 10.6408 17.8448 10.3184 17.4472 10.3184H14.5672V8.87844H32.5672V10.3184Z" fill="#23262F"/>
<path d="M15.3037 33.83C12.8715 34.305 11.2848 36.6617 11.7598 39.0939C12.2348 41.5261 14.5915 43.1127 17.0237 42.6378C20.1183 41.9363 23.0805 40.7435 25.7977 39.1047C30.3349 36.4893 34.0448 32.6502 36.5033 28.0261C37.6292 25.8377 36.7826 23.1507 34.6055 22.0031C32.4285 20.8554 29.7332 21.6752 28.5639 23.8407C24.3361 31.8644 15.3865 33.8127 15.3037 33.83ZM29.8383 24.5125C30.6231 23.0237 32.4661 22.453 33.9549 23.2377C35.4437 24.0225 36.0144 25.8655 35.2297 27.3543C32.8953 31.7426 29.3733 35.3854 25.0661 37.8663C22.4886 39.4159 19.6829 40.5494 16.7523 41.2251C15.1001 41.5444 13.5019 40.4639 13.1825 38.8117C12.8673 37.1621 13.9433 35.5676 15.5909 35.2426C15.9841 35.1598 25.2937 33.1309 29.8383 24.5125Z" fill="#23262F"/>
<path d="M17.1297 37.4821C17.471 37.4821 17.7477 37.2054 17.7477 36.8641C17.7477 36.5228 17.471 36.2461 17.1297 36.2461C16.7884 36.2461 16.5117 36.5228 16.5117 36.8641C16.5117 37.2054 16.7884 37.4821 17.1297 37.4821Z" fill="#23262F"/>
<path d="M20.8367 38.0993C21.1781 38.0993 21.4547 37.8226 21.4547 37.4813C21.4547 37.14 21.1781 36.8633 20.8367 36.8633C20.4954 36.8633 20.2188 37.14 20.2188 37.4813C20.2188 37.8226 20.4954 38.0993 20.8367 38.0993Z" fill="#23262F"/>
<path d="M22.6922 35.0094C23.0335 35.0094 23.3102 34.7327 23.3102 34.3914C23.3102 34.0501 23.0335 33.7734 22.6922 33.7734C22.3509 33.7734 22.0742 34.0501 22.0742 34.3914C22.0742 34.7327 22.3509 35.0094 22.6922 35.0094Z" fill="#23262F"/>
<path d="M26.3992 34.3922C26.7406 34.3922 27.0172 34.1156 27.0172 33.7742C27.0172 33.4329 26.7406 33.1562 26.3992 33.1562C26.0579 33.1562 25.7812 33.4329 25.7812 33.7742C25.7812 34.1156 26.0579 34.3922 26.3992 34.3922Z" fill="#23262F"/>
<path d="M27.6336 31.3024C27.9749 31.3024 28.2516 31.0257 28.2516 30.6844C28.2516 30.3431 27.9749 30.0664 27.6336 30.0664C27.2923 30.0664 27.0156 30.3431 27.0156 30.6844C27.0156 31.0257 27.2923 31.3024 27.6336 31.3024Z" fill="#23262F"/>
<path d="M30.7235 30.0641C31.0648 30.0641 31.3415 29.7874 31.3415 29.4461C31.3415 29.1048 31.0648 28.8281 30.7235 28.8281C30.3822 28.8281 30.1055 29.1048 30.1055 29.4461C30.1055 29.7874 30.3822 30.0641 30.7235 30.0641Z" fill="#23262F"/>
<path d="M30.1063 26.9743C30.4476 26.9743 30.7243 26.6976 30.7243 26.3563C30.7243 26.015 30.4476 25.7383 30.1063 25.7383C29.765 25.7383 29.4883 26.015 29.4883 26.3563C29.4883 26.6976 29.765 26.9743 30.1063 26.9743Z" fill="#23262F"/>
<path d="M17.4244 15.9665C15.198 16.1119 13.179 17.3239 12.0038 19.2206C10.8287 21.1172 10.6422 23.4647 11.5032 25.5231C11.5998 25.747 11.5476 26.0074 11.3721 26.1768C10.5895 26.9633 10.5895 28.2343 11.3721 29.0208L11.7062 29.3549C12.4927 30.1375 13.7637 30.1375 14.5502 29.3549C14.7174 29.1922 14.9668 29.1474 15.1802 29.2419C18.4062 30.599 22.1381 29.3465 23.8922 26.3179C25.435 23.5968 24.9742 20.1809 22.7654 17.9659C23.8051 17.3721 24.9975 17.0998 26.1919 17.1833C26.4491 17.2018 26.6967 17.0817 26.8413 16.8682C26.986 16.6547 27.0057 16.3802 26.8932 16.1482C26.7806 15.9162 26.5528 15.7618 26.2956 15.7433C25.6093 15.7067 24.921 15.7507 24.245 15.8743L24.7137 15.2717C24.8785 15.0693 24.9208 14.7936 24.8244 14.551C24.7279 14.3085 24.5077 14.1372 24.249 14.1032C23.9902 14.0693 23.7333 14.1781 23.5776 14.3875L23.1081 14.9902C23.0613 14.3047 22.9352 13.627 22.7323 12.9706C22.607 12.5928 22.1992 12.3881 21.8215 12.5134C21.4437 12.6386 21.239 13.0464 21.3643 13.4242C21.7393 14.5647 21.7669 15.7909 21.4435 16.9471C20.2342 16.2204 18.8325 15.8784 17.4244 15.9665ZM22.6437 25.5951C21.2548 27.9943 18.2998 28.9884 15.7432 27.9163C14.9896 27.5904 14.1135 27.757 13.5321 28.3368C13.308 28.5573 12.9484 28.5573 12.7243 28.3368L12.3902 28.0027C12.2808 27.8919 12.221 27.7414 12.2243 27.5857C12.2277 27.4299 12.2941 27.2822 12.4082 27.1762C12.9841 26.5953 13.1519 25.724 12.833 24.9708C11.8499 22.6008 12.6441 19.8659 14.7438 18.3911C16.8436 16.9164 19.6857 17.0972 21.5816 18.8262C23.4774 20.5552 23.9186 23.3687 22.643 25.5951H22.6437Z" fill="#23262F"/>
<path d="M17.8916 20.1481C17.1111 20.1467 16.3676 20.4808 15.8503 21.0654C15.3331 21.6499 15.092 22.4285 15.1883 23.203C15.2278 23.532 14.9932 23.8307 14.6642 23.8703C14.3351 23.9099 14.0363 23.6753 13.9967 23.3462L13.9966 23.346C13.8604 22.2309 14.2088 21.1109 14.9536 20.2699C15.6984 19.4289 16.7681 18.9476 17.8915 18.9481H17.8915C18.2229 18.9481 18.4915 19.2168 18.4915 19.5481C18.4915 19.8795 18.2229 20.1481 17.8916 20.1481ZM17.8916 20.1481C17.8917 20.1481 17.8917 20.1481 17.8917 20.1481L17.8915 20.2681M17.8916 20.1481C17.8916 20.1481 17.8916 20.1481 17.8915 20.1481V20.2681M17.8915 20.2681C18.2892 20.2681 18.6115 19.9458 18.6115 19.5481C18.6115 19.1505 18.2892 18.8281 17.8915 18.8281L13.8775 23.3605C13.925 23.7554 14.2837 24.037 14.6785 23.9894C15.0734 23.9419 15.355 23.5833 15.3074 23.1884C15.2153 22.448 15.4457 21.7037 15.9402 21.1449C16.4346 20.5861 17.1454 20.2667 17.8915 20.2681Z" fill="#23262F" stroke="white" stroke-width="0.24"/>
</svg>
