<svg width="16" height="16" viewBox="0 0 16 16" fill="none" xmlns="http://www.w3.org/2000/svg">
<path d="M14.1131 10.4418C14.3134 10.4309 14.4726 10.2652 14.4726 10.062C14.4726 8.96601 13.5929 8.1075 12.4698 8.1075H12.0987L11.6451 5.95433C12.0828 5.76415 12.3898 5.32738 12.3898 4.82C12.3898 4.13846 11.836 3.58398 11.1553 3.58398H9.40045C9.19036 3.58398 9.02004 3.75451 9.02004 3.96484V4.43914H8.08496C7.87488 4.43914 7.70455 4.60966 7.70455 4.82C7.70455 5.03034 7.87488 5.20086 8.08496 5.20086H9.02004V5.67516C9.02004 5.88549 9.19036 6.05602 9.40045 6.05602H9.56934C9.2544 6.42847 9.06389 6.9096 9.06389 7.4347V9.60202C9.06389 9.61314 9.05488 9.62215 9.04378 9.62215H7.50714C7.49828 9.62215 7.49036 9.61624 7.48785 9.60773L7.0736 8.20612C7.40746 8.11682 7.65415 7.8115 7.65415 7.44945C7.65415 6.5898 6.95563 5.89044 6.09705 5.89044H2.66964C2.02472 5.89042 1.5 6.41578 1.5 7.06151C1.5 7.65184 1.93857 8.14127 2.50659 8.221C1.90402 8.76065 1.52404 9.54461 1.52404 10.4159V11.6016C1.52404 11.8119 1.69437 11.9824 1.90445 11.9824H2.23359C2.41076 12.8671 3.19249 13.5356 4.1274 13.5356C5.0623 13.5356 5.84403 12.8671 6.02121 11.9824H10.6745C10.8517 12.8671 11.6334 13.5356 12.5684 13.5356C13.6334 13.5356 14.5 12.668 14.5 11.6016C14.5 11.1668 14.3559 10.7651 14.1131 10.4418ZM13.6495 9.68111H12.7932C12.7194 9.6725 12.6445 9.66758 12.5684 9.66758C12.432 9.66758 12.299 9.682 12.1706 9.70902V8.86922H12.4699C13.027 8.86922 13.4876 9.20455 13.6495 9.68111ZM9.78082 4.34568H11.1553C11.4165 4.34568 11.6291 4.55845 11.6291 4.81997C11.6291 5.0815 11.4165 5.29427 11.1553 5.29427H9.78082V4.34568ZM7.50717 10.3838H9.04381C9.47441 10.3838 9.8247 10.0331 9.8247 9.60199V7.43468C9.8247 6.78005 10.2839 6.23075 10.8968 6.09281L11.4098 8.52802V10.0551C11.0376 10.3354 10.7695 10.747 10.6746 11.2207H6.89264C6.71498 9.85422 5.58657 8.83187 4.17815 8.83187C3.55012 8.83187 2.98629 9.03703 2.54145 9.3897C2.9089 8.70182 3.63335 8.23263 4.46545 8.23263H6.28814L6.75842 9.82386C6.85582 10.1536 7.16373 10.3838 7.50717 10.3838ZM2.31575 11.2207C2.38222 10.8155 2.55531 10.45 2.82001 10.1668C3.1655 9.79715 3.64782 9.59356 4.1781 9.59356C5.15925 9.59356 5.95187 10.2831 6.12203 11.2207H2.31575V11.2207ZM2.66964 7.47091C2.4442 7.47091 2.26078 7.28726 2.26078 7.06151C2.26078 6.83576 2.4442 6.65211 2.66964 6.65211H6.09705C6.53615 6.65211 6.89337 7.00976 6.89337 7.4494C6.89012 7.46507 6.86504 7.47543 6.81835 7.47086C6.50188 7.47086 6.59234 7.47086 6.52643 7.47086C6.07191 7.47091 2.67185 7.47091 2.66964 7.47091ZM4.1274 12.7738C3.61494 12.7738 3.17862 12.4424 3.02034 11.9824H5.23445C5.07617 12.4424 4.63986 12.7738 4.1274 12.7738ZM12.5684 12.7738C11.9228 12.7738 11.3975 12.248 11.3975 11.6016C11.3975 10.9552 11.9228 10.4293 12.5684 10.4293C13.214 10.4293 13.7392 10.9552 13.7392 11.6016C13.7392 12.248 13.214 12.7738 12.5684 12.7738Z" fill="#DA291C"/>
<path d="M12.5685 11.985C12.7799 11.985 12.9514 11.8134 12.9514 11.6016C12.9514 11.3899 12.7799 11.2183 12.5685 11.2183C12.357 11.2183 12.1855 11.3899 12.1855 11.6016C12.1855 11.8134 12.357 11.985 12.5685 11.985Z" fill="#DA291C"/>
<path d="M1.89627 4.78662H5.30796C5.51804 4.78662 5.68836 4.6161 5.68836 4.40576C5.68836 4.19543 5.51804 4.0249 5.30796 4.0249H1.89627C1.68619 4.0249 1.51587 4.19543 1.51587 4.40576C1.51587 4.6161 1.68619 4.78662 1.89627 4.78662Z" fill="#DA291C"/>
<path d="M3.16019 3.22583H6.60128C6.81136 3.22583 6.98168 3.05531 6.98168 2.84497C6.98168 2.63463 6.81136 2.46411 6.60128 2.46411H3.16019C2.95011 2.46411 2.77979 2.63463 2.77979 2.84497C2.77979 3.05531 2.95011 3.22583 3.16019 3.22583Z" fill="#DA291C"/>
</svg>
