<?xml version="1.0" encoding="utf-8"?>
<!-- Generator: Adobe Illustrator 27.4.0, SVG Export Plug-In . SVG Version: 6.00 Build 0)  -->
<svg version="1.1" id="Layer_1" xmlns="http://www.w3.org/2000/svg" xmlns:xlink="http://www.w3.org/1999/xlink" x="0px" y="0px"
	 viewBox="0 0 40 40" style="enable-background:new 0 0 40 40;" xml:space="preserve">
<style type="text/css">
	.st0{fill:#141416;}
</style>
<path class="st0" d="M34.6,20.9l-6.6,6.6c-0.2,0.2-0.6,0.4-0.9,0.4c-0.2,0-0.3,0-0.5-0.1c-0.2-0.1-0.4-0.3-0.6-0.5
	c-0.1-0.2-0.2-0.4-0.2-0.7v-5.3h-9.7c-0.3,0-0.6-0.1-0.9-0.4C15.1,20.6,15,20.3,15,20s0.1-0.6,0.4-0.9c0.2-0.2,0.6-0.4,0.9-0.4h9.7
	v-5.3c0-0.2,0.1-0.5,0.2-0.7c0.1-0.2,0.3-0.4,0.6-0.5c0.2-0.1,0.5-0.1,0.7-0.1c0.2,0,0.5,0.2,0.6,0.3l6.6,6.6
	c0.2,0.2,0.4,0.6,0.4,0.9S34.9,20.7,34.6,20.9z M16.2,32.5H7.5v-25h8.8c0.3,0,0.6-0.1,0.9-0.4c0.2-0.2,0.4-0.6,0.4-0.9
	s-0.1-0.6-0.4-0.9C16.9,5.1,16.6,5,16.2,5H7.5C6.8,5,6.2,5.3,5.7,5.7C5.3,6.2,5,6.8,5,7.5v25c0,0.7,0.3,1.3,0.7,1.8
	C6.2,34.7,6.8,35,7.5,35h8.8c0.3,0,0.6-0.1,0.9-0.4c0.2-0.2,0.4-0.6,0.4-0.9s-0.1-0.6-0.4-0.9C16.9,32.6,16.6,32.5,16.2,32.5z"/>
</svg>
