<svg width="21" height="20" viewBox="0 0 21 20" fill="none" xmlns="http://www.w3.org/2000/svg">
<path d="M7.74219 16.8759H4.25C4.08424 16.8759 3.92527 16.8101 3.80806 16.6928C3.69085 16.5756 3.625 16.4167 3.625 16.2509V12.7587C3.62472 12.6776 3.64044 12.5971 3.67128 12.5221C3.70211 12.447 3.74745 12.3787 3.80469 12.3212L13.1797 2.94622C13.2378 2.88717 13.3072 2.84027 13.3836 2.80826C13.4601 2.77625 13.5421 2.75977 13.625 2.75977C13.7079 2.75977 13.7899 2.77625 13.8664 2.80826C13.9428 2.84027 14.0122 2.88717 14.0703 2.94622L17.5547 6.4306C17.6137 6.48875 17.6606 6.55807 17.6927 6.63452C17.7247 6.71097 17.7411 6.79303 17.7411 6.87591C17.7411 6.95879 17.7247 7.04084 17.6927 7.11729C17.6606 7.19374 17.6137 7.26306 17.5547 7.32122L8.17969 16.6962C8.12216 16.7535 8.05391 16.7988 7.97884 16.8296C7.90376 16.8605 7.82335 16.8762 7.74219 16.8759V16.8759Z" stroke="#141416" stroke-linecap="round" stroke-linejoin="round"/>
<path d="M11.125 5L15.5 9.375" stroke="#141416" stroke-linecap="round" stroke-linejoin="round"/>
</svg>
