<svg width="28" height="25" viewBox="0 0 28 25" fill="none" xmlns="http://www.w3.org/2000/svg">
<path d="M26.075 3.48736C25.3972 2.7267 24.5704 2.1134 23.6458 1.68551C22.7212 1.25761 21.7185 1.02424 20.7 0.999863C19.6824 0.977557 18.6707 1.16091 17.7256 1.53894C16.7805 1.91697 15.9215 2.4819 15.2 3.19986L14 4.38736L13.0625 3.46236C10.15 0.537363 5.39998 0.287363 2.48748 2.92486C1.72951 3.60483 1.1182 4.43225 0.690929 5.35654C0.263657 6.28083 0.0294036 7.28256 0.00249326 8.30047C-0.0244171 9.31838 0.156581 10.3311 0.53442 11.2767C0.912259 12.2222 1.479 13.0808 2.19998 13.7999L12.5875 24.1874C12.7723 24.3741 12.9923 24.5223 13.2347 24.6234C13.4772 24.7246 13.7373 24.7766 14 24.7766C14.2627 24.7766 14.5228 24.7246 14.7652 24.6234C15.0077 24.5223 15.2277 24.3741 15.4125 24.1874L25.5375 14.0624C28.4625 11.1499 28.7 6.39986 26.075 3.48736Z" fill="black"/>
</svg>
