<svg width="49" height="48" viewBox="0 0 49 48" fill="none" xmlns="http://www.w3.org/2000/svg">
<mask id="path-1-inside-1_1778_98455" fill="white">
<path d="M44.4088 3.36196C44.3428 3.29169 44.2621 3.23693 44.1724 3.20161C44.0827 3.16629 43.9863 3.15129 43.8901 3.15769L12.2651 3.87644C12.0773 3.88056 11.8986 3.95806 11.7673 4.09234C11.6359 4.22662 11.5624 4.407 11.5625 4.59483V8.90733C11.5623 9.09522 11.6358 9.27569 11.7671 9.41005C11.8985 9.54441 12.0772 9.62196 12.2651 9.62608L15.9345 9.7096C15.8953 9.91825 15.8754 10.1301 15.875 10.3424C15.8686 11.1755 16.1826 11.9791 16.7519 12.5873C16.9297 12.7638 17.0707 12.9738 17.167 13.2051C17.2633 13.4364 17.3128 13.6844 17.3127 13.9349C17.3127 14.1855 17.263 14.4335 17.1666 14.6647C17.0703 14.896 16.9291 15.1059 16.7512 15.2823C16.1879 15.895 15.8752 16.6969 15.8752 17.5293C15.8752 18.3616 16.1879 19.1636 16.7512 19.7763C16.9172 19.9678 17.0578 20.1799 17.1698 20.4073H5.8125C5.62188 20.4073 5.43906 20.4831 5.30427 20.6178C5.16948 20.7526 5.09375 20.9355 5.09375 21.1261V24.0011C5.09375 24.1917 5.16948 24.3745 5.30427 24.5093C5.43906 24.6441 5.62188 24.7198 5.8125 24.7198H6.6239L9.41344 44.9431C9.43706 45.115 9.52214 45.2726 9.65295 45.3867C9.78375 45.5007 9.95144 45.5636 10.125 45.5636H27.375C27.5486 45.5636 27.7162 45.5007 27.8471 45.3867C27.9779 45.2726 28.0629 45.115 28.0866 44.9431L30.8761 24.7198H31.6875C31.8781 24.7198 32.0609 24.6441 32.1957 24.5093C32.3305 24.3745 32.4062 24.1917 32.4062 24.0011V21.1261C32.4062 20.9355 32.3305 20.7526 32.1957 20.6178C32.0609 20.4831 31.8781 20.4073 31.6875 20.4073H27.3013C27.1664 19.8385 26.8905 19.3127 26.499 18.8785C26.3202 18.7024 26.1784 18.4922 26.0819 18.2604C25.9855 18.0286 25.9364 17.7799 25.9375 17.5288C25.9351 17.2777 25.9836 17.0288 26.0801 16.7969C26.1766 16.5651 26.3191 16.3553 26.499 16.1801C27.0624 15.568 27.3751 14.7663 27.3749 13.9344C27.3748 13.1024 27.0618 12.3008 26.4981 11.6889C26.3186 11.514 26.1763 11.3045 26.08 11.073C25.9836 10.8416 25.9352 10.5931 25.9375 10.3424C25.9367 10.2065 25.9495 10.0708 25.9759 9.93744L43.8901 10.3448H43.9062C44.0007 10.3449 44.0941 10.3263 44.1814 10.2902C44.2686 10.2541 44.3479 10.2012 44.4146 10.1344C44.4814 10.0677 44.5343 9.98843 44.5704 9.9012C44.6065 9.81397 44.6251 9.72048 44.625 9.62608V3.87608C44.625 3.78031 44.6059 3.68551 44.5687 3.59723C44.5316 3.50894 44.4772 3.42896 44.4088 3.36196ZM13 5.29741L43.1875 4.61129V6.03233H13V5.29741ZM22.5019 12.5873C22.6797 12.7638 22.8207 12.9738 22.917 13.2051C23.0133 13.4364 23.0628 13.6844 23.0627 13.9349C23.0627 14.1855 23.013 14.4335 22.9166 14.6647C22.8203 14.896 22.6791 15.1059 22.5012 15.2823C21.9379 15.895 21.6252 16.6969 21.6252 17.5293C21.6252 18.3616 21.9379 19.1636 22.5012 19.7763C22.6672 19.9678 22.8078 20.1799 22.9198 20.4073H21.5513C21.4164 19.8385 21.1405 19.3127 20.749 18.8785C20.5702 18.7024 20.4283 18.4922 20.3319 18.2604C20.2355 18.0286 20.1864 17.7799 20.1875 17.5288C20.1851 17.2777 20.2336 17.0288 20.3301 16.7969C20.4266 16.5651 20.5691 16.3553 20.749 16.1801C21.3124 15.568 21.6251 14.7663 21.6249 13.9344C21.6248 13.1024 21.3118 12.3008 20.7481 11.6889C20.5704 11.5125 20.4294 11.3028 20.3331 11.0716C20.2368 10.8405 20.1873 10.5926 20.1873 10.3423C20.1873 10.0919 20.2368 9.84403 20.3331 9.61291C20.4294 9.38179 20.5704 9.17201 20.7481 8.99567C21.1398 8.56266 21.416 8.03787 21.5511 7.46983H22.9217C22.8089 7.69596 22.6677 7.90681 22.5017 8.0973C21.9379 8.70905 21.625 9.51048 21.625 10.3424C21.625 11.1742 21.9379 11.9757 22.5017 12.5874L22.5019 12.5873ZM13 8.20475V7.46983H17.1717C17.0589 7.69596 16.9177 7.90681 16.7517 8.0973C16.7028 8.15839 16.6523 8.22128 16.6016 8.28691L13 8.20475ZM17.874 18.8785C17.6952 18.7024 17.5533 18.4922 17.4569 18.2604C17.3605 18.0286 17.3114 17.7799 17.3125 17.5288C17.3101 17.2777 17.3586 17.0288 17.4551 16.7969C17.5516 16.5651 17.6941 16.3553 17.874 16.1801C18.4374 15.568 18.7501 14.7663 18.7499 13.9344C18.7498 13.1024 18.4368 12.3008 17.8731 11.6889C17.6954 11.5125 17.5544 11.3028 17.4581 11.0716C17.3618 10.8405 17.3123 10.5926 17.3123 10.3423C17.3123 10.0919 17.3618 9.84403 17.4581 9.61291C17.5544 9.38179 17.6954 9.17201 17.8731 8.99567C18.2662 8.56334 18.5432 8.03835 18.6781 7.46983H20.0509C19.9367 7.69621 19.794 7.90708 19.6263 8.0973C19.0626 8.70905 18.7496 9.51048 18.7496 10.3424C18.7496 11.1742 19.0626 11.9757 19.6263 12.5874C19.8041 12.7639 19.9452 12.9739 20.0414 13.2051C20.1377 13.4364 20.1872 13.6845 20.1871 13.935C20.1871 14.1855 20.1374 14.4336 20.0411 14.6648C19.9447 14.8961 19.8035 15.1059 19.6257 15.2824C19.0623 15.8951 18.7497 16.697 18.7497 17.5293C18.7497 18.3617 19.0623 19.1636 19.6257 19.7763C19.7941 19.9674 19.937 20.1795 20.0509 20.4073H18.6791C18.5436 19.8381 18.2667 19.3123 17.874 18.8785ZM8.86755 30.4698H28.6328L27.6409 37.6573H9.85906L8.86755 30.4698ZM26.7489 44.1261H10.7511L10.0571 39.0948H27.4428L26.7489 44.1261ZM28.8307 29.0323H8.66932L8.07448 24.7198H29.4255L28.8307 29.0323ZM30.9688 23.2823H6.53125V21.8448H30.9688V23.2823ZM25.376 15.2826C24.8127 15.8953 24.5 16.6973 24.5 17.5296C24.5 18.362 24.8127 19.1639 25.376 19.7766C25.5443 19.9676 25.6871 20.1796 25.8009 20.4073H24.4291C24.2937 19.8381 24.0168 19.3123 23.6241 18.8785C23.4453 18.7024 23.3034 18.4922 23.207 18.2604C23.1105 18.0286 23.0614 17.7799 23.0625 17.5288C23.0601 17.2777 23.1086 17.0288 23.2051 16.7969C23.3016 16.5651 23.4441 16.3553 23.624 16.1801C24.1874 15.568 24.5001 14.7663 24.4999 13.9344C24.4998 13.1024 24.1868 12.3008 23.6231 11.6889C23.4454 11.5125 23.3044 11.3028 23.2081 11.0716C23.1118 10.8405 23.0623 10.5926 23.0623 10.3423C23.0623 10.0919 23.1118 9.84403 23.2081 9.61291C23.3044 9.38179 23.4454 9.17201 23.6231 8.99567C24.0162 8.56334 24.2932 8.03835 24.4281 7.46983H25.8009C25.6867 7.69621 25.544 7.90708 25.3763 8.0973C24.8126 8.70905 24.4996 9.51048 24.4996 10.3424C24.4996 11.1742 24.8126 11.9757 25.3763 12.5874C25.5541 12.7639 25.6952 12.9739 25.7914 13.2051C25.8877 13.4364 25.9372 13.6845 25.9371 13.935C25.9371 14.1855 25.8874 14.4336 25.7911 14.6648C25.6947 14.8961 25.5535 15.1059 25.3757 15.2824L25.376 15.2826ZM43.1875 8.89087L26.853 8.51978C27.0692 8.20224 27.2214 7.84561 27.3011 7.46983H43.1875V8.89087Z"/>
</mask>
<path d="M44.4088 3.36196C44.3428 3.29169 44.2621 3.23693 44.1724 3.20161C44.0827 3.16629 43.9863 3.15129 43.8901 3.15769L12.2651 3.87644C12.0773 3.88056 11.8986 3.95806 11.7673 4.09234C11.6359 4.22662 11.5624 4.407 11.5625 4.59483V8.90733C11.5623 9.09522 11.6358 9.27569 11.7671 9.41005C11.8985 9.54441 12.0772 9.62196 12.2651 9.62608L15.9345 9.7096C15.8953 9.91825 15.8754 10.1301 15.875 10.3424C15.8686 11.1755 16.1826 11.9791 16.7519 12.5873C16.9297 12.7638 17.0707 12.9738 17.167 13.2051C17.2633 13.4364 17.3128 13.6844 17.3127 13.9349C17.3127 14.1855 17.263 14.4335 17.1666 14.6647C17.0703 14.896 16.9291 15.1059 16.7512 15.2823C16.1879 15.895 15.8752 16.6969 15.8752 17.5293C15.8752 18.3616 16.1879 19.1636 16.7512 19.7763C16.9172 19.9678 17.0578 20.1799 17.1698 20.4073H5.8125C5.62188 20.4073 5.43906 20.4831 5.30427 20.6178C5.16948 20.7526 5.09375 20.9355 5.09375 21.1261V24.0011C5.09375 24.1917 5.16948 24.3745 5.30427 24.5093C5.43906 24.6441 5.62188 24.7198 5.8125 24.7198H6.6239L9.41344 44.9431C9.43706 45.115 9.52214 45.2726 9.65295 45.3867C9.78375 45.5007 9.95144 45.5636 10.125 45.5636H27.375C27.5486 45.5636 27.7162 45.5007 27.8471 45.3867C27.9779 45.2726 28.0629 45.115 28.0866 44.9431L30.8761 24.7198H31.6875C31.8781 24.7198 32.0609 24.6441 32.1957 24.5093C32.3305 24.3745 32.4062 24.1917 32.4062 24.0011V21.1261C32.4062 20.9355 32.3305 20.7526 32.1957 20.6178C32.0609 20.4831 31.8781 20.4073 31.6875 20.4073H27.3013C27.1664 19.8385 26.8905 19.3127 26.499 18.8785C26.3202 18.7024 26.1784 18.4922 26.0819 18.2604C25.9855 18.0286 25.9364 17.7799 25.9375 17.5288C25.9351 17.2777 25.9836 17.0288 26.0801 16.7969C26.1766 16.5651 26.3191 16.3553 26.499 16.1801C27.0624 15.568 27.3751 14.7663 27.3749 13.9344C27.3748 13.1024 27.0618 12.3008 26.4981 11.6889C26.3186 11.514 26.1763 11.3045 26.08 11.073C25.9836 10.8416 25.9352 10.5931 25.9375 10.3424C25.9367 10.2065 25.9495 10.0708 25.9759 9.93744L43.8901 10.3448H43.9062C44.0007 10.3449 44.0941 10.3263 44.1814 10.2902C44.2686 10.2541 44.3479 10.2012 44.4146 10.1344C44.4814 10.0677 44.5343 9.98843 44.5704 9.9012C44.6065 9.81397 44.6251 9.72048 44.625 9.62608V3.87608C44.625 3.78031 44.6059 3.68551 44.5687 3.59723C44.5316 3.50894 44.4772 3.42896 44.4088 3.36196ZM13 5.29741L43.1875 4.61129V6.03233H13V5.29741ZM22.5019 12.5873C22.6797 12.7638 22.8207 12.9738 22.917 13.2051C23.0133 13.4364 23.0628 13.6844 23.0627 13.9349C23.0627 14.1855 23.013 14.4335 22.9166 14.6647C22.8203 14.896 22.6791 15.1059 22.5012 15.2823C21.9379 15.895 21.6252 16.6969 21.6252 17.5293C21.6252 18.3616 21.9379 19.1636 22.5012 19.7763C22.6672 19.9678 22.8078 20.1799 22.9198 20.4073H21.5513C21.4164 19.8385 21.1405 19.3127 20.749 18.8785C20.5702 18.7024 20.4283 18.4922 20.3319 18.2604C20.2355 18.0286 20.1864 17.7799 20.1875 17.5288C20.1851 17.2777 20.2336 17.0288 20.3301 16.7969C20.4266 16.5651 20.5691 16.3553 20.749 16.1801C21.3124 15.568 21.6251 14.7663 21.6249 13.9344C21.6248 13.1024 21.3118 12.3008 20.7481 11.6889C20.5704 11.5125 20.4294 11.3028 20.3331 11.0716C20.2368 10.8405 20.1873 10.5926 20.1873 10.3423C20.1873 10.0919 20.2368 9.84403 20.3331 9.61291C20.4294 9.38179 20.5704 9.17201 20.7481 8.99567C21.1398 8.56266 21.416 8.03787 21.5511 7.46983H22.9217C22.8089 7.69596 22.6677 7.90681 22.5017 8.0973C21.9379 8.70905 21.625 9.51048 21.625 10.3424C21.625 11.1742 21.9379 11.9757 22.5017 12.5874L22.5019 12.5873ZM13 8.20475V7.46983H17.1717C17.0589 7.69596 16.9177 7.90681 16.7517 8.0973C16.7028 8.15839 16.6523 8.22128 16.6016 8.28691L13 8.20475ZM17.874 18.8785C17.6952 18.7024 17.5533 18.4922 17.4569 18.2604C17.3605 18.0286 17.3114 17.7799 17.3125 17.5288C17.3101 17.2777 17.3586 17.0288 17.4551 16.7969C17.5516 16.5651 17.6941 16.3553 17.874 16.1801C18.4374 15.568 18.7501 14.7663 18.7499 13.9344C18.7498 13.1024 18.4368 12.3008 17.8731 11.6889C17.6954 11.5125 17.5544 11.3028 17.4581 11.0716C17.3618 10.8405 17.3123 10.5926 17.3123 10.3423C17.3123 10.0919 17.3618 9.84403 17.4581 9.61291C17.5544 9.38179 17.6954 9.17201 17.8731 8.99567C18.2662 8.56334 18.5432 8.03835 18.6781 7.46983H20.0509C19.9367 7.69621 19.794 7.90708 19.6263 8.0973C19.0626 8.70905 18.7496 9.51048 18.7496 10.3424C18.7496 11.1742 19.0626 11.9757 19.6263 12.5874C19.8041 12.7639 19.9452 12.9739 20.0414 13.2051C20.1377 13.4364 20.1872 13.6845 20.1871 13.935C20.1871 14.1855 20.1374 14.4336 20.0411 14.6648C19.9447 14.8961 19.8035 15.1059 19.6257 15.2824C19.0623 15.8951 18.7497 16.697 18.7497 17.5293C18.7497 18.3617 19.0623 19.1636 19.6257 19.7763C19.7941 19.9674 19.937 20.1795 20.0509 20.4073H18.6791C18.5436 19.8381 18.2667 19.3123 17.874 18.8785ZM8.86755 30.4698H28.6328L27.6409 37.6573H9.85906L8.86755 30.4698ZM26.7489 44.1261H10.7511L10.0571 39.0948H27.4428L26.7489 44.1261ZM28.8307 29.0323H8.66932L8.07448 24.7198H29.4255L28.8307 29.0323ZM30.9688 23.2823H6.53125V21.8448H30.9688V23.2823ZM25.376 15.2826C24.8127 15.8953 24.5 16.6973 24.5 17.5296C24.5 18.362 24.8127 19.1639 25.376 19.7766C25.5443 19.9676 25.6871 20.1796 25.8009 20.4073H24.4291C24.2937 19.8381 24.0168 19.3123 23.6241 18.8785C23.4453 18.7024 23.3034 18.4922 23.207 18.2604C23.1105 18.0286 23.0614 17.7799 23.0625 17.5288C23.0601 17.2777 23.1086 17.0288 23.2051 16.7969C23.3016 16.5651 23.4441 16.3553 23.624 16.1801C24.1874 15.568 24.5001 14.7663 24.4999 13.9344C24.4998 13.1024 24.1868 12.3008 23.6231 11.6889C23.4454 11.5125 23.3044 11.3028 23.2081 11.0716C23.1118 10.8405 23.0623 10.5926 23.0623 10.3423C23.0623 10.0919 23.1118 9.84403 23.2081 9.61291C23.3044 9.38179 23.4454 9.17201 23.6231 8.99567C24.0162 8.56334 24.2932 8.03835 24.4281 7.46983H25.8009C25.6867 7.69621 25.544 7.90708 25.3763 8.0973C24.8126 8.70905 24.4996 9.51048 24.4996 10.3424C24.4996 11.1742 24.8126 11.9757 25.3763 12.5874C25.5541 12.7639 25.6952 12.9739 25.7914 13.2051C25.8877 13.4364 25.9372 13.6845 25.9371 13.935C25.9371 14.1855 25.8874 14.4336 25.7911 14.6648C25.6947 14.8961 25.5535 15.1059 25.3757 15.2824L25.376 15.2826ZM43.1875 8.89087L26.853 8.51978C27.0692 8.20224 27.2214 7.84561 27.3011 7.46983H43.1875V8.89087Z" fill="#23262F" stroke="white" stroke-width="0.23" mask="url(#path-1-inside-1_1778_98455)"/>
<path d="M18.7492 36.6508C20.0177 36.6508 21.0492 35.6188 21.0492 34.3508C21.0492 33.0828 20.0172 32.0508 18.7492 32.0508C17.4812 32.0508 16.4492 33.0828 16.4492 34.3508C16.4492 35.6188 17.4812 36.6508 18.7492 36.6508ZM18.7492 33.1253C19.4249 33.1253 19.9742 33.6751 19.9742 34.3502C19.9742 35.0254 19.4243 35.5752 18.7492 35.5752C18.0741 35.5752 17.5242 35.0254 17.5242 34.3502C17.5242 33.6751 18.0741 33.1253 18.7492 33.1253Z" fill="#23262F"/>
</svg>
