<svg width="56" height="56" viewBox="0 0 56 56" fill="none" xmlns="http://www.w3.org/2000/svg">
<g clip-path="url(#clip0_1491_43774)">
<path d="M48.9619 25.5636H47.5579C47.7706 25.12 47.9712 24.6702 48.1545 24.2165C48.9663 22.2093 48.415 19.9298 46.7829 18.5444C46.1936 18.0433 45.547 17.6136 44.8609 17.2672C44.4747 17.0723 44.0776 16.903 43.681 16.7644C41.7026 16.0696 39.4781 16.7119 38.1457 18.3625C37.4994 19.1628 36.9064 20.0178 36.3815 20.9039C36.1005 20.0826 35.6526 19.321 35.055 18.6672C34.2029 17.7352 33.1059 17.0853 31.9002 16.783C31.9793 16.5757 32.0417 16.3613 32.0859 16.1406C32.147 15.8346 32.0738 15.5162 31.8852 15.2669C31.6964 15.0175 31.4095 14.8606 31.0978 14.8365C30.7735 14.8116 30.4446 14.8089 30.1205 14.8285C29.8012 14.848 29.4815 14.8894 29.1671 14.9521C29.1464 14.7623 29.1958 14.4858 29.2616 14.2195C29.3453 13.8802 29.2619 13.5178 29.0385 13.2503C28.8133 12.9805 28.482 12.8389 28.1317 12.8603L26.6082 12.9555C26.198 12.9811 25.8404 13.2296 25.6747 13.6042C25.5701 13.841 25.4943 14.0894 25.4495 14.3427C25.4149 14.5386 25.3989 14.7376 25.4014 14.9372C24.6769 14.7899 23.9765 14.8024 23.4924 14.8435C22.91 14.893 22.4704 15.3903 22.4915 15.9755C22.5002 16.2179 22.5368 16.511 22.6306 16.8229C22.2222 16.9365 21.8261 17.0919 21.448 17.2838C21.1271 15.6718 20.1976 14.1882 18.9733 13.1929L20.1314 11.6625C21.0563 10.4534 20.6746 8.64174 19.3671 7.8872C18.7589 7.53616 18.0168 7.4488 17.347 7.64928C17.0093 6.4123 15.8754 5.5 14.5316 5.5C13.2295 5.5 12.0562 6.39692 11.7181 7.64963C11.0474 7.44862 10.3059 7.53484 9.6966 7.88676C8.37842 8.64824 8.00093 10.4453 8.93213 11.6625L10.0901 13.1927C8.45761 14.5142 7.47754 16.544 7.47754 18.6678C7.47754 20.4329 8.1064 23.153 9.04762 25.5636H7.03809C6.19003 25.5636 5.5 26.2536 5.5 27.1017V28.8982C5.5 29.6715 6.07428 30.3116 6.81836 30.4187V47.2041C6.81836 49.0215 8.29686 50.5 10.1143 50.5H45.8857C47.7031 50.5 49.1816 49.0215 49.1816 47.2041V44.1452C49.1816 43.781 48.8866 43.486 48.5225 43.486C48.1583 43.486 47.8633 43.781 47.8633 44.1452V47.2041C47.8633 48.2945 46.9761 49.1816 45.8857 49.1816H10.1143C9.02389 49.1816 8.13672 48.2945 8.13672 47.2041V30.4364H47.8633V41.0691C47.8633 41.4332 48.1583 41.7283 48.5225 41.7283C48.8866 41.7283 49.1816 41.4332 49.1816 41.0691V30.4188C49.9257 30.3116 50.5 29.6716 50.5 28.8983V27.1018C50.5 26.2536 49.81 25.5636 48.9619 25.5636ZM36.7249 23.8384V23.0468C36.9552 22.572 37.2078 22.098 37.4795 21.6358C37.9809 20.7825 38.5502 19.9599 39.1714 19.1907C40.1544 17.9732 41.7914 17.4979 43.2451 18.0086C43.5882 18.1286 43.932 18.2751 44.2668 18.4441C44.8597 18.7434 45.419 19.1151 45.9294 19.5491C47.1275 20.566 47.5306 22.2431 46.9323 23.7223C46.68 24.3466 46.3949 24.9636 46.0855 25.5635H36.5533C36.6665 24.9984 36.7249 24.4212 36.7249 23.8384ZM25.3605 16.2808C25.709 16.3737 26.0809 16.2879 26.3557 16.0518C26.6296 15.8162 26.7699 15.4625 26.7309 15.1051C26.7112 14.9258 26.7169 14.7464 26.7476 14.572C26.7662 14.4672 26.7938 14.3635 26.8301 14.2625L27.9178 14.1946C27.8654 14.4554 27.8231 14.7122 27.8509 15.0397C27.8644 15.1992 27.8937 15.3596 27.938 15.517C28.0976 16.0806 28.6699 16.4179 29.2415 16.2845C29.5557 16.2112 29.8784 16.1641 30.2006 16.1444C30.3759 16.1337 30.5527 16.131 30.7292 16.1365C30.6644 16.3502 30.5735 16.553 30.4579 16.7423C30.0483 17.4116 29.4422 17.7209 29.1174 17.8457C28.8627 17.9435 28.6945 18.1882 28.6945 18.4611V18.475C28.6945 18.7478 28.8626 18.9924 29.1172 19.0904C29.4421 19.2152 30.0485 19.5246 30.4579 20.1939C30.5732 20.3825 30.664 20.5848 30.7287 20.7981C30.1246 20.8147 29.0936 20.7568 28.4046 20.2393C28.3081 20.1669 28.2211 20.0874 28.1459 20.0031C27.9398 19.7726 27.6437 19.6404 27.3334 19.6404C27.0232 19.6404 26.7269 19.7726 26.5206 20.0032C26.4453 20.0876 26.3582 20.1669 26.2619 20.2393C25.5451 20.7776 24.4642 20.8207 23.8563 20.7952C23.9078 20.501 24.0273 20.138 24.2928 19.7951C24.4329 19.614 24.6001 19.4559 24.7899 19.3247C25.1073 19.1054 25.286 18.7454 25.2678 18.3616C25.25 17.9843 25.0427 17.6492 24.7133 17.465C24.2157 17.1866 23.8875 16.6199 23.8276 16.1423C24.2194 16.1234 24.8022 16.1327 25.3605 16.2808ZM17.3907 9.06933C17.7809 8.80899 18.2977 8.79186 18.7074 9.02837C19.3472 9.39769 19.5318 10.2783 19.08 10.8669L17.8756 12.4582C17.5998 12.3091 17.3126 12.1786 17.0164 12.0667L17.3907 9.06933ZM14.5316 6.81836C15.5099 6.81836 16.2344 7.68531 16.1148 8.64745L15.7313 11.7178C15.3411 11.6507 14.9408 11.6137 14.5316 11.6137C14.1226 11.6137 13.7222 11.6507 13.332 11.7178C13.33 11.7024 12.9484 8.64728 12.9467 8.63321C12.8349 7.68575 13.5787 6.81836 14.5316 6.81836ZM9.98348 10.867C9.53216 10.2777 9.71427 9.39909 10.3565 9.02811C10.7655 8.79186 11.282 8.80908 11.6726 9.06915L12.047 12.0667C11.7507 12.1785 11.4636 12.309 11.1878 12.4581L9.98348 10.867ZM9.03821 20.816C8.87781 19.9656 8.7959 19.2228 8.7959 18.6679C8.7959 18.0365 8.89996 17.4295 9.08919 16.8609H11.3831C11.7473 16.8609 12.0423 16.5659 12.0423 16.2017C12.0423 15.8376 11.7473 15.5426 11.3831 15.5426H9.72578C10.7502 13.9726 12.5211 12.932 14.5316 12.932C16.9997 12.932 19.1085 14.499 19.9158 16.6904H17.7263C17.3622 16.6904 17.0671 16.9855 17.0671 17.3496C17.0671 17.7137 17.3622 18.0088 17.7263 18.0088H20.2283C20.2531 18.2252 20.2673 18.4449 20.2673 18.6679C20.2673 19.4609 20.1005 20.6368 19.7753 21.9638H17.7263C17.3622 21.9638 17.0671 22.2589 17.0671 22.623C17.0671 22.9872 17.3622 23.2822 17.7263 23.2822H19.4129C19.1845 24.0324 18.911 24.8046 18.594 25.5637H10.4697C9.9877 24.4096 9.60607 23.2253 9.33019 22.1344H11.383C11.7472 22.1344 12.0422 21.8393 12.0422 21.4752C12.0422 21.111 11.7472 20.816 11.383 20.816H9.03821ZM49.1816 28.8983C49.1816 29.0195 49.0831 29.1181 48.9619 29.1181H7.03809C6.91688 29.1181 6.81836 29.0195 6.81836 28.8983V27.1018C6.81836 26.9806 6.91688 26.882 7.03809 26.882H23.9166C24.2807 26.882 24.5758 26.587 24.5758 26.2229C24.5758 25.8587 24.2807 25.5637 23.9166 25.5637H20.0157C20.947 23.1781 21.5722 20.4899 21.585 18.7237C22.1105 18.3827 22.6962 18.141 23.3085 18.014C23.4523 18.1703 23.611 18.3115 23.7841 18.4347C23.5865 18.5994 23.4076 18.7847 23.2501 18.9882C22.7114 19.6843 22.5521 20.4233 22.5132 20.9206C22.4664 21.5192 22.9174 22.0459 23.5185 22.0949C23.6928 22.109 23.8995 22.1197 24.1279 22.1197C24.9878 22.1197 26.1539 21.9691 27.0534 21.2935C27.152 21.2195 27.2457 21.1405 27.3333 21.0572C27.421 21.1404 27.5146 21.2194 27.6131 21.2934C28.7345 22.1355 30.2746 22.1595 31.093 22.0991C31.4058 22.0759 31.6942 21.9193 31.8842 21.6692C32.0736 21.4198 32.147 21.101 32.0858 20.7946C31.9936 20.3345 31.8243 19.9009 31.5826 19.5058C31.3102 19.0607 30.9815 18.7226 30.658 18.468C30.8326 18.3305 31.0086 18.1677 31.1767 17.9778C33.611 18.3768 35.4066 20.4643 35.4066 22.97V23.8385C35.4066 24.4236 35.338 25.0017 35.2042 25.5637H26.9928C26.6286 25.5637 26.3336 25.8587 26.3336 26.2229C26.3336 26.587 26.6286 26.882 26.9928 26.882H48.9619C49.0831 26.882 49.1816 26.9806 49.1816 27.1018V28.8983Z" fill="#141416"/>
<path d="M24.5557 38.13L24.0977 39.7641C24.0942 39.7745 24.096 39.7849 24.1029 39.7953C24.1099 39.8057 24.1185 39.8109 24.1289 39.8109H24.9928C25.0032 39.8109 25.0119 39.8057 25.0188 39.7953C25.0258 39.7849 25.0275 39.7745 25.024 39.7641L24.5661 38.13C24.5661 38.1265 24.5644 38.1248 24.5609 38.1248C24.5574 38.1248 24.5557 38.1265 24.5557 38.13ZM23.2078 41.2837C23.135 41.2837 23.0777 41.2542 23.0361 41.1952C22.9944 41.1362 22.9858 41.0721 23.0101 41.0027L24.0873 37.7657C24.1185 37.6824 24.1688 37.6148 24.2382 37.5627C24.3111 37.5107 24.3909 37.4847 24.4776 37.4847H24.665C24.7552 37.4847 24.835 37.5107 24.9044 37.5627C24.9772 37.6148 25.0275 37.6824 25.0553 37.7657L26.1325 41.0027C26.1568 41.0721 26.1481 41.1362 26.1065 41.1952C26.0649 41.2542 26.0076 41.2837 25.9348 41.2837H25.7474C25.6642 41.2837 25.5861 41.2577 25.5132 41.2056C25.4438 41.1501 25.397 41.0807 25.3727 40.9975L25.2062 40.4094C25.2027 40.3816 25.1836 40.3678 25.1489 40.3678H23.9728C23.9416 40.3678 23.9225 40.3816 23.9156 40.4094L23.749 40.9975C23.7282 41.0807 23.6814 41.1501 23.6085 41.2056C23.5391 41.2577 23.4611 41.2837 23.3743 41.2837H23.2078ZM26.9408 41.2837C26.861 41.2837 26.7916 41.2542 26.7327 41.1952C26.6772 41.1362 26.6494 41.0669 26.6494 40.9871V37.7813C26.6494 37.7015 26.6772 37.6321 26.7327 37.5732C26.7916 37.5142 26.861 37.4847 26.9408 37.4847H27.1074C27.1872 37.4847 27.2565 37.5142 27.3155 37.5732C27.3745 37.6321 27.404 37.7015 27.404 37.7813V40.6332C27.404 40.6644 27.4179 40.68 27.4456 40.68H28.7831C28.8629 40.68 28.9305 40.7095 28.986 40.7685C29.045 40.824 29.0745 40.8916 29.0745 40.9714V40.9871C29.0745 41.0669 29.045 41.1362 28.986 41.1952C28.9305 41.2542 28.8629 41.2837 28.7831 41.2837H26.9408ZM30.0562 41.2837C29.9764 41.2837 29.907 41.2542 29.848 41.1952C29.7925 41.1362 29.7648 41.0669 29.7648 40.9871V37.7813C29.7648 37.7015 29.7925 37.6321 29.848 37.5732C29.907 37.5142 29.9764 37.4847 30.0562 37.4847H30.2227C30.3025 37.4847 30.3719 37.5142 30.4309 37.5732C30.4899 37.6321 30.5193 37.7015 30.5193 37.7813V40.6332C30.5193 40.6644 30.5332 40.68 30.561 40.68H31.8984C31.9782 40.68 32.0459 40.7095 32.1014 40.7685C32.1604 40.824 32.1899 40.8916 32.1899 40.9714V40.9871C32.1899 41.0669 32.1604 41.1362 32.1014 41.1952C32.0459 41.2542 31.9782 41.2837 31.8984 41.2837H30.0562Z" fill="#DA291C"/>
</g>
<defs>
<clipPath id="clip0_1491_43774">
<rect width="45" height="45" fill="white" transform="translate(5.5 5.5)"/>
</clipPath>
</defs>
</svg>
