<svg width="32" height="32" viewBox="0 0 32 32" fill="none" xmlns="http://www.w3.org/2000/svg">
<path d="M10.9854 10.5025L3.02017 11.5635C3.02017 11.5635 2.66797 11.606 2.66797 12.0282V19.5885C2.66797 19.5885 2.71447 20.4735 3.72756 20.4735H12.7553C12.7553 20.4735 13.5596 20.2806 13.5596 19.4768V13.2365C13.5596 13.2365 13.5755 12.3516 12.5139 12.3516H3.80868C3.80868 12.3516 3.47033 12.2952 3.38425 11.9392C3.35853 11.7988 3.41393 11.784 3.56332 11.784H11.5562V10.9237C11.5562 10.9237 11.5285 10.462 10.9854 10.5025Z" fill="#ED4C2F"/>
<path d="M6.8718 17.7492C7.62667 18.4957 7.97789 18.6816 8.58139 18.5184C8.93161 18.4235 9.24623 17.9766 9.26502 17.4644C9.27887 17.0659 8.9979 16.8058 8.43002 16.6921C7.40902 16.4884 6.80651 16.0979 6.63931 15.5323M6.8718 17.7492C6.74319 17.6226 6.5374 17.6236 6.41077 17.7511M6.8718 17.7492L6.76531 17.8574M6.8718 17.7492L6.76505 17.8571M6.41077 17.7511C6.28413 17.8797 6.28512 18.0853 6.41275 18.2119M6.41077 17.7511L6.64268 17.9796M6.41077 17.7511L6.64179 17.9805L6.41275 18.2119M6.41275 18.2119C7.13002 18.9219 7.61579 19.1908 8.27667 19.1908H8.27766C8.39935 19.1908 8.52697 19.1809 8.66251 19.1641M6.41275 18.2119L6.64202 17.9807M8.66251 19.1641C9.25612 19.089 9.8893 18.2426 9.91601 17.4871M8.66251 19.1641L8.64407 19.0184M8.66251 19.1641L8.64407 19.0184M9.91601 17.4871C9.92788 17.1401 9.82004 16.3055 8.55665 16.0534C7.81366 15.9051 7.3546 15.6539 7.26358 15.3474C7.20224 15.1368 7.31602 14.8629 7.56929 14.6127C8.31031 14.0056 9.1651 14.7818 9.20368 14.8174C9.33527 14.94 9.54105 14.9331 9.66373 14.8026C9.7874 14.6711 9.78047 14.4654 9.64988 14.3418M9.91601 17.4871L9.76471 17.4819L8.52706 16.2016C8.52706 16.2016 8.52706 16.2016 8.52706 16.2016C8.52732 16.2017 8.52758 16.2017 8.52784 16.2018L8.52819 16.2019C8.85911 16.2681 9.17176 16.3885 9.40519 16.6044C9.65688 16.8372 9.77643 17.1447 9.76472 17.4818L9.76472 17.4818L9.91601 17.4871ZM9.64988 14.3418C9.19874 13.9176 8.09364 13.3253 7.14189 14.1203M9.64988 14.3418L9.45458 14.5481L9.45457 14.5481L9.42566 14.5787L9.42561 14.5788L9.35592 14.6524L9.30618 14.7049C9.2381 14.6405 9.23309 14.5307 9.2994 14.4601C9.29943 14.4601 9.29945 14.4601 9.29948 14.46C9.36508 14.3903 9.47315 14.3869 9.54271 14.4499C9.54289 14.4501 9.54307 14.4502 9.54325 14.4504M9.64988 14.3418L9.42644 14.5794L9.42638 14.5795L9.31414 14.6989L9.31413 14.6989L9.30737 14.7061C9.3072 14.7059 9.30703 14.7057 9.30685 14.7056C9.13253 14.5418 8.82109 14.3399 8.47375 14.2616C8.14974 14.1887 7.80606 14.2225 7.47326 14.4951L7.47306 14.4953L7.47017 14.498C7.46776 14.5004 7.46535 14.5027 7.46296 14.5051C7.11562 14.8477 7.05375 15.1684 7.11853 15.3896C7.1186 15.3899 7.11867 15.3901 7.11875 15.3904C7.11876 15.3904 7.11878 15.3905 7.11879 15.3905L7.22792 14.2471L7.12408 14.1371M7.14189 14.1203L7.12408 14.1371M7.14189 14.1203L7.23919 14.2368L7.23445 14.2407L7.22953 14.2455L7.12408 14.1371M7.14189 14.1203L7.24632 14.2309L7.25241 14.226C7.81296 13.7667 8.42341 13.8474 8.83321 14.0089C9.23031 14.1653 9.50781 14.4177 9.54272 14.4499L9.54325 14.4504M7.12408 14.1371C6.68086 14.5682 6.50476 15.0765 6.63931 15.5323M6.63931 15.5323L6.78419 15.4895L9.41632 17.4696C9.42022 17.3539 9.40253 17.1729 9.29473 17.0062C9.19651 16.8544 8.98113 16.6481 8.4597 16.5439C8.45967 16.5439 8.45963 16.5439 8.4596 16.5439C8.45933 16.5438 8.45906 16.5438 8.4588 16.5437L8.45877 16.5437C8.05906 16.4639 7.70511 16.351 7.42592 16.1985C7.15759 16.0519 6.88451 15.8273 6.78427 15.4897L6.78421 15.4895L6.63931 15.5323ZM9.54325 14.4504C9.54369 14.4508 9.54412 14.4512 9.54454 14.4516L9.54325 14.4504ZM8.64407 19.0184L8.59972 18.6681C8.60638 18.6672 8.61343 18.666 8.62084 18.6644C8.62087 18.6643 8.6209 18.6643 8.62093 18.6643C8.72971 18.6402 8.91629 18.5289 9.1014 18.2813C9.28976 18.0294 9.40715 17.7251 9.41631 17.4699L8.64407 19.0184ZM8.64407 19.0184C8.52021 19.0482 8.39861 19.0669 8.27766 19.0718C8.27733 19.0718 8.277 19.0718 8.27667 19.0719C8.04358 19.0813 7.81289 19.0397 7.5731 18.9286C7.22797 18.7686 6.89691 18.4772 6.52022 18.1047L6.64241 17.9811M8.64407 19.0184C8.64419 19.0184 8.64431 19.0184 8.64444 19.0183L8.60098 18.6679C8.47901 18.683 8.37288 18.6908 8.27766 18.6908H8.27667C7.80985 18.6908 7.44458 18.5295 6.76531 17.8574M6.64241 17.9811L6.64298 17.9817M6.64241 17.9811L6.6433 17.9802M6.64241 17.9811L6.64202 17.9807M6.64298 17.9817L6.5211 18.1055C6.58777 18.1711 6.69738 18.1721 6.7656 18.1034L6.64298 17.9817ZM6.64298 17.9817L6.64387 17.9808M6.64387 17.9808L6.76695 18.102C6.8326 18.0354 6.83372 17.9257 6.76531 17.8574M6.64387 17.9808L6.6433 17.9802M6.64387 17.9808L6.76531 17.8574M6.6433 17.9802L6.6429 17.9798M6.6433 17.9802L6.76505 17.8571M6.64202 17.9807L6.6429 17.9798M6.64202 17.9807L6.64268 17.9796M6.6429 17.9798L6.64268 17.9796M6.6429 17.9798L6.76482 17.8569C6.7649 17.857 6.76497 17.857 6.76505 17.8571M6.76505 17.8571L6.64268 17.9796M6.76505 17.8571C6.76486 17.8569 6.76467 17.8567 6.76448 17.8565L6.64268 17.9796M6.76505 17.8571L6.64268 17.9796" fill="white" stroke="#ED4C2F"/>
<mask id="path-3-inside-1_1194_435873" fill="white">
<path d="M16.909 12.308C16.7804 12.2299 16.628 12.1587 16.446 12.1093C16.1106 12.0144 15.8672 11.8898 15.7515 11.7336C15.6476 11.5971 15.6476 11.4191 15.7722 11.1917C15.8425 11.0553 16.0116 10.9682 16.2313 10.9524C16.4588 10.9356 16.7358 10.99 17.0257 11.1383C17.096 11.1759 17.187 11.1462 17.2246 11.0721C17.2622 11.0019 17.2325 10.9109 17.1583 10.8733C16.819 10.6993 16.4846 10.634 16.2065 10.6538C15.884 10.6785 15.6317 10.8189 15.5071 11.0464C15.3211 11.3895 15.333 11.6703 15.5071 11.9066C15.6683 12.1172 15.9622 12.2784 16.3629 12.3901C16.5202 12.4356 16.6527 12.4939 16.7556 12.5552C16.9129 12.6502 17.0158 12.7619 17.0663 12.8815C17.1158 12.9933 17.1197 13.1169 17.0871 13.2375C17.0702 13.2958 17.0416 13.3532 17.0089 13.4115C17.0089 13.4194 17.001 13.4283 16.9921 13.4402C16.8724 13.6182 16.6775 13.7092 16.442 13.7092C16.1818 13.7092 15.8632 13.6053 15.5239 13.3987C15.4744 13.37 15.4289 13.3403 15.3874 13.3117C15.3171 13.2662 15.2261 13.2869 15.1806 13.3532C15.1351 13.4234 15.1559 13.5144 15.2222 13.5599C15.2756 13.5974 15.326 13.6261 15.3626 13.6587C15.7515 13.8941 16.1195 14.0097 16.4341 14.0097C16.7734 14.0097 17.0544 13.8773 17.2325 13.6132C17.2365 13.6053 17.2454 13.5885 17.2572 13.5717C17.3067 13.4936 17.3443 13.4066 17.369 13.3235C17.4225 13.1416 17.4145 12.9478 17.3364 12.7698C17.2622 12.5958 17.1217 12.4346 16.91 12.3071L16.909 12.308Z"/>
</mask>
<path d="M16.909 12.308C16.7804 12.2299 16.628 12.1587 16.446 12.1093C16.1106 12.0144 15.8672 11.8898 15.7515 11.7336C15.6476 11.5971 15.6476 11.4191 15.7722 11.1917C15.8425 11.0553 16.0116 10.9682 16.2313 10.9524C16.4588 10.9356 16.7358 10.99 17.0257 11.1383C17.096 11.1759 17.187 11.1462 17.2246 11.0721C17.2622 11.0019 17.2325 10.9109 17.1583 10.8733C16.819 10.6993 16.4846 10.634 16.2065 10.6538C15.884 10.6785 15.6317 10.8189 15.5071 11.0464C15.3211 11.3895 15.333 11.6703 15.5071 11.9066C15.6683 12.1172 15.9622 12.2784 16.3629 12.3901C16.5202 12.4356 16.6527 12.4939 16.7556 12.5552C16.9129 12.6502 17.0158 12.7619 17.0663 12.8815C17.1158 12.9933 17.1197 13.1169 17.0871 13.2375C17.0702 13.2958 17.0416 13.3532 17.0089 13.4115C17.0089 13.4194 17.001 13.4283 16.9921 13.4402C16.8724 13.6182 16.6775 13.7092 16.442 13.7092C16.1818 13.7092 15.8632 13.6053 15.5239 13.3987C15.4744 13.37 15.4289 13.3403 15.3874 13.3117C15.3171 13.2662 15.2261 13.2869 15.1806 13.3532C15.1351 13.4234 15.1559 13.5144 15.2222 13.5599C15.2756 13.5974 15.326 13.6261 15.3626 13.6587C15.7515 13.8941 16.1195 14.0097 16.4341 14.0097C16.7734 14.0097 17.0544 13.8773 17.2325 13.6132C17.2365 13.6053 17.2454 13.5885 17.2572 13.5717C17.3067 13.4936 17.3443 13.4066 17.369 13.3235C17.4225 13.1416 17.4145 12.9478 17.3364 12.7698C17.2622 12.5958 17.1217 12.4346 16.91 12.3071L16.909 12.308Z" fill="#ED4C2F"/>
<path d="M16.909 12.308L16.3899 13.1628L17.0609 13.5703L17.6161 13.0151L16.909 12.308ZM16.446 12.1093L16.1736 13.0716L16.1839 13.0743L16.446 12.1093ZM15.7515 11.7336L16.555 11.1382L16.5471 11.1278L15.7515 11.7336ZM15.7722 11.1917L16.6491 11.6724L16.6554 11.661L16.6613 11.6494L15.7722 11.1917ZM16.2313 10.9524L16.3031 11.9498L16.305 11.9497L16.2313 10.9524ZM17.0257 11.1383L17.4974 10.2565L17.4893 10.2522L17.4812 10.2481L17.0257 11.1383ZM17.2246 11.0721L16.343 10.6L16.3377 10.6099L16.3327 10.6199L17.2246 11.0721ZM17.1583 10.8733L16.702 11.7631L16.7065 11.7655L17.1583 10.8733ZM16.2065 10.6538L16.1356 9.65631L16.1301 9.65673L16.2065 10.6538ZM15.5071 11.0464L14.6302 10.5657L14.6279 10.5698L15.5071 11.0464ZM15.5071 11.9066L14.702 12.4998L14.7075 12.5072L14.7131 12.5145L15.5071 11.9066ZM16.3629 12.3901L16.6406 11.4294L16.6315 11.4269L16.3629 12.3901ZM16.7556 12.5552L17.2723 11.699L17.2675 11.6962L16.7556 12.5552ZM17.0663 12.8815L16.1449 13.2701L16.1483 13.2783L16.1519 13.2864L17.0663 12.8815ZM17.0871 13.2375L18.0479 13.5145L18.0502 13.5067L18.0523 13.4988L17.0871 13.2375ZM17.0089 13.4115L16.1363 12.9232L16.0089 13.1507V13.4115H17.0089ZM16.9921 13.4402L16.1923 12.84L16.1767 12.8607L16.1623 12.8821L16.9921 13.4402ZM15.5239 13.3987L16.044 12.5446L16.0348 12.539L16.0254 12.5335L15.5239 13.3987ZM15.3874 13.3117L15.9553 12.4886L15.9432 12.4803L15.9309 12.4723L15.3874 13.3117ZM15.1806 13.3532L14.3563 12.787L14.3488 12.798L14.3415 12.8092L15.1806 13.3532ZM15.2222 13.5599L15.7975 12.7418L15.7879 12.7353L15.2222 13.5599ZM15.3626 13.6587L14.6972 14.4052L14.766 14.4665L14.8448 14.5142L15.3626 13.6587ZM17.2325 13.6132L18.0615 14.1725L18.0978 14.1187L18.1268 14.0607L17.2325 13.6132ZM17.2572 13.5717L18.074 14.1486L18.0886 14.128L18.1021 14.1067L17.2572 13.5717ZM17.369 13.3235L18.3274 13.6089L18.3285 13.6053L17.369 13.3235ZM17.3364 12.7698L16.4165 13.162L16.4208 13.1719L17.3364 12.7698ZM16.91 12.3071L17.426 11.4505L16.756 11.0468L16.2029 11.6L16.91 12.3071ZM17.4281 11.4533C17.2287 11.3323 16.9905 11.221 16.7081 11.1443L16.1839 13.0743C16.2655 13.0965 16.332 13.1276 16.3899 13.1628L17.4281 11.4533ZM16.7183 11.1471C16.595 11.1122 16.5222 11.0809 16.487 11.0621C16.4708 11.0534 16.4714 11.0521 16.4827 11.0611C16.494 11.07 16.5224 11.0944 16.5549 11.1382L14.948 12.3289C15.275 12.7703 15.8063 12.9675 16.1736 13.0715L16.7183 11.1471ZM16.5471 11.1278C16.6339 11.2418 16.6797 11.3873 16.6757 11.5256C16.6724 11.6422 16.6356 11.6971 16.6491 11.6724L14.8953 10.711C14.666 11.1293 14.5211 11.7683 14.9558 12.3393L16.5471 11.1278ZM16.6613 11.6494C16.5836 11.8004 16.4735 11.8796 16.4067 11.9143C16.3729 11.9318 16.3461 11.9405 16.3298 11.9447C16.3134 11.9491 16.3041 11.9498 16.3031 11.9498L16.1594 9.955C15.766 9.98334 15.1793 10.1587 14.8831 10.734L16.6613 11.6494ZM16.305 11.9497C16.3217 11.9485 16.4167 11.95 16.5702 12.0285L17.4812 10.2481C17.055 10.03 16.5959 9.92275 16.1576 9.95513L16.305 11.9497ZM16.5541 12.0201C17.1428 12.335 17.8377 12.0741 18.1165 11.5242L16.3327 10.6199C16.5362 10.2183 17.0491 10.0168 17.4974 10.2565L16.5541 12.0201ZM18.1061 11.5441C18.4218 10.9547 18.1598 10.2596 17.6101 9.98118L16.7065 11.7655C16.3052 11.5622 16.1026 11.049 16.343 10.6L18.1061 11.5441ZM17.6146 9.9835C17.1336 9.73679 16.618 9.62201 16.1356 9.65632L16.2775 11.6513C16.3511 11.646 16.5044 11.6618 16.702 11.7631L17.6146 9.9835ZM16.1301 9.65673C15.5705 9.69962 14.9601 9.96371 14.6302 10.5657L16.384 11.527C16.3483 11.5921 16.301 11.6299 16.2712 11.6466C16.2448 11.6613 16.2436 11.6539 16.283 11.6509L16.1301 9.65673ZM14.6279 10.5698C14.4782 10.846 14.3684 11.1698 14.3721 11.5269C14.376 11.8981 14.502 12.2283 14.702 12.4998L16.3121 11.3134C16.322 11.3268 16.3381 11.3527 16.3515 11.3908C16.3651 11.4297 16.3716 11.4697 16.372 11.5061C16.3727 11.578 16.35 11.5898 16.3862 11.5229L14.6279 10.5698ZM14.7131 12.5145C15.0687 12.979 15.6117 13.2188 16.0943 13.3534L16.6315 11.4269C16.4866 11.3865 16.3914 11.3452 16.3343 11.3132C16.2766 11.2809 16.2791 11.27 16.3011 11.2987L14.7131 12.5145ZM16.0851 13.3508C16.1699 13.3753 16.2224 13.4016 16.2438 13.4143L17.2675 11.6962C17.0831 11.5863 16.8704 11.4959 16.6406 11.4295L16.0851 13.3508ZM16.239 13.4114C16.2706 13.4305 16.1985 13.3973 16.1449 13.2701L17.9877 12.493C17.8332 12.1265 17.5553 11.8698 17.2723 11.699L16.239 13.4114ZM16.1519 13.2864C16.0949 13.1576 16.104 13.042 16.1218 12.9763L18.0523 13.4988C18.1354 13.1917 18.1366 12.8289 17.9807 12.4767L16.1519 13.2864ZM16.1262 12.9605C16.1353 12.929 16.1441 12.9094 16.1461 12.9053C16.1472 12.9028 16.1472 12.9029 16.1455 12.9062C16.1438 12.9095 16.1409 12.9149 16.1363 12.9232L17.8815 13.8999C17.9233 13.8253 17.9983 13.6866 18.0479 13.5145L16.1262 12.9605ZM16.0089 13.4115C16.0089 13.2464 16.0501 13.1162 16.0833 13.0357C16.1159 12.9569 16.1516 12.9003 16.1686 12.8746C16.1863 12.8477 16.2011 12.8283 16.202 12.8271C16.2124 12.8134 16.1938 12.8379 16.1923 12.84L17.7919 14.0404C17.7899 14.0431 17.7885 14.045 17.7891 14.0442C17.7892 14.044 17.7894 14.0438 17.7897 14.0434C17.7899 14.0431 17.7904 14.0425 17.7908 14.0419C17.7917 14.0407 17.7932 14.0388 17.7949 14.0365C17.7998 14.0301 17.8183 14.0058 17.8391 13.9742C17.8591 13.9438 17.8974 13.8827 17.9317 13.7996C17.9667 13.7149 18.0089 13.5807 18.0089 13.4115H16.0089ZM16.1623 12.8821C16.2023 12.8227 16.2604 12.7724 16.3254 12.741C16.3867 12.7114 16.4314 12.7092 16.442 12.7092V14.7092C16.9489 14.7092 17.4845 14.4999 17.8219 13.9983L16.1623 12.8821ZM16.442 12.7092C16.443 12.7092 16.4341 12.7092 16.4143 12.7056C16.3946 12.7021 16.3666 12.6954 16.3303 12.6832C16.2568 12.6586 16.1599 12.6152 16.044 12.5446L15.0038 14.2528C15.4358 14.5159 15.9356 14.7092 16.442 14.7092V12.7092ZM16.0254 12.5335C16.0043 12.5213 15.9815 12.5067 15.9553 12.4886L14.8194 14.1347C14.8763 14.174 14.9445 14.2187 15.0224 14.2638L16.0254 12.5335ZM15.9309 12.4723C15.3919 12.1232 14.6989 12.2883 14.3563 12.787L16.0049 13.9194C15.7533 14.2856 15.2424 14.4091 14.8438 14.1511L15.9309 12.4723ZM14.3415 12.8092C13.9917 13.3488 14.1575 14.0421 14.6564 14.3844L15.7879 12.7353C16.1543 12.9867 16.2784 13.498 16.0197 13.8972L14.3415 12.8092ZM14.6469 14.3778C14.6714 14.3951 14.6935 14.4099 14.7096 14.4205C14.7173 14.4256 14.7253 14.4308 14.7305 14.4342C14.7364 14.4381 14.7402 14.4406 14.7432 14.4427C14.7499 14.4471 14.7474 14.4456 14.741 14.4409C14.7344 14.4361 14.7182 14.4239 14.6972 14.4052L16.028 12.9122C15.9545 12.8467 15.8835 12.7992 15.8542 12.7796C15.8413 12.771 15.8172 12.7552 15.8134 12.7527C15.8038 12.7463 15.7996 12.7434 15.7974 12.7419L14.6469 14.3778ZM14.8448 14.5142C15.3372 14.8122 15.8839 15.0097 16.4341 15.0097V13.0097C16.3551 13.0097 16.1657 12.9759 15.8804 12.8032L14.8448 14.5142ZM16.4341 15.0097C17.0545 15.0097 17.6706 14.7521 18.0615 14.1725L16.4035 13.054C16.4058 13.0506 16.4118 13.0427 16.4222 13.0337C16.4327 13.0245 16.4438 13.0174 16.4537 13.0125C16.4745 13.0024 16.4735 13.0097 16.4341 13.0097V15.0097ZM18.1268 14.0607C18.1217 14.071 18.1156 14.0825 18.1082 14.0953C18.1011 14.1076 18.0899 14.1262 18.074 14.1486L16.4404 12.9948C16.3882 13.0687 16.3538 13.1346 16.3382 13.1658L18.1268 14.0607ZM18.1021 14.1067C18.2061 13.9425 18.2795 13.7698 18.3274 13.6089L16.4106 13.0381C16.4104 13.039 16.4097 13.0408 16.409 13.0424C16.4083 13.0441 16.4089 13.0421 16.4124 13.0367L18.1021 14.1067ZM18.3285 13.6053C18.4443 13.211 18.4304 12.774 18.252 12.3677L16.4208 13.1719C16.3987 13.1216 16.4006 13.0722 16.4095 13.0418L18.3285 13.6053ZM18.2563 12.3776C18.0881 11.9831 17.7908 11.6703 17.426 11.4505L16.3939 13.1636C16.409 13.1727 16.4192 13.1802 16.4256 13.1854C16.432 13.1906 16.4346 13.1935 16.4346 13.1935C16.4346 13.1935 16.4323 13.1909 16.4288 13.1854C16.4252 13.1799 16.4208 13.1721 16.4165 13.162L18.2563 12.3776ZM16.2029 11.6L16.2019 11.6009L17.6161 13.0151L17.6171 13.0142L16.2029 11.6Z" fill="#ED4C2F" mask="url(#path-3-inside-1_1194_435873)"/>
<mask id="path-5-inside-2_1194_435873" fill="white">
<path d="M19.187 11.9813C19.0337 11.9397 18.8566 11.9437 18.6745 11.9981C18.5024 12.0485 18.3273 12.1444 18.1621 12.2878V10.7947C18.1621 10.7166 18.0958 10.6543 18.0127 10.6543C17.9296 10.6543 17.8633 10.7166 17.8633 10.7947V13.8659C17.8633 13.944 17.9296 14.0063 18.0127 14.0063C18.0958 14.0063 18.1621 13.944 18.1621 13.8659V12.7159C18.1621 12.7159 18.168 12.711 18.17 12.708C18.356 12.4806 18.5627 12.3402 18.7616 12.2779C18.8902 12.2403 19.0099 12.2364 19.1128 12.265C19.2118 12.2937 19.2909 12.3481 19.3483 12.4262C19.4067 12.5093 19.4393 12.62 19.4393 12.7614V13.8609C19.4393 13.944 19.5056 14.0102 19.5887 14.0102C19.6718 14.0102 19.7381 13.944 19.7381 13.8609V12.7614C19.7381 12.5587 19.6847 12.3896 19.5887 12.2571C19.4898 12.1167 19.3493 12.0257 19.187 11.9803V11.9813Z"/>
</mask>
<path d="M19.187 11.9813C19.0337 11.9397 18.8566 11.9437 18.6745 11.9981C18.5024 12.0485 18.3273 12.1444 18.1621 12.2878V10.7947C18.1621 10.7166 18.0958 10.6543 18.0127 10.6543C17.9296 10.6543 17.8633 10.7166 17.8633 10.7947V13.8659C17.8633 13.944 17.9296 14.0063 18.0127 14.0063C18.0958 14.0063 18.1621 13.944 18.1621 13.8659V12.7159C18.1621 12.7159 18.168 12.711 18.17 12.708C18.356 12.4806 18.5627 12.3402 18.7616 12.2779C18.8902 12.2403 19.0099 12.2364 19.1128 12.265C19.2118 12.2937 19.2909 12.3481 19.3483 12.4262C19.4067 12.5093 19.4393 12.62 19.4393 12.7614V13.8609C19.4393 13.944 19.5056 14.0102 19.5887 14.0102C19.6718 14.0102 19.7381 13.944 19.7381 13.8609V12.7614C19.7381 12.5587 19.6847 12.3896 19.5887 12.2571C19.4898 12.1167 19.3493 12.0257 19.187 11.9803V11.9813Z" fill="#ED4C2F"/>
<path d="M19.187 11.9813L18.9256 12.9465L20.187 13.2881V11.9813H19.187ZM18.6745 11.9981L18.9557 12.9577L18.9608 12.9562L18.6745 11.9981ZM18.1621 12.2878H17.1621V14.4796L18.8175 13.043L18.1621 12.2878ZM18.1621 12.7159L17.5221 11.9475L17.1621 12.2474V12.7159H18.1621ZM18.17 12.708L17.3959 12.0749L17.3651 12.1126L17.3381 12.1531L18.17 12.708ZM18.7616 12.2779L18.4812 11.318L18.4719 11.3207L18.4627 11.3236L18.7616 12.2779ZM19.1128 12.265L19.3912 11.3045L19.3813 11.3017L19.1128 12.265ZM19.3483 12.4262L20.1664 11.8512L20.1604 11.8426L20.1542 11.8342L19.3483 12.4262ZM19.5887 12.2571L18.7712 12.8332L18.7788 12.8437L19.5887 12.2571ZM19.187 11.9803L19.4569 11.0174L18.187 10.6614V11.9803H19.187ZM19.4484 11.016C19.0931 10.9198 18.7252 10.9393 18.3883 11.0399L18.9608 12.9562C18.9732 12.9525 18.977 12.9531 18.9716 12.9532C18.9664 12.9534 18.9503 12.9532 18.9256 12.9465L19.4484 11.016ZM18.3934 11.0384C18.0689 11.1335 17.7686 11.3052 17.5067 11.5325L18.8175 13.043C18.886 12.9836 18.9359 12.9635 18.9557 12.9577L18.3934 11.0384ZM19.1621 12.2878V10.7947H17.1621V12.2878H19.1621ZM19.1621 10.7947C19.1621 10.1068 18.5887 9.6543 18.0127 9.6543V11.6543C17.6029 11.6543 17.1621 11.3264 17.1621 10.7947H19.1621ZM18.0127 9.6543C17.4366 9.6543 16.8633 10.1068 16.8633 10.7947H18.8633C18.8633 11.3264 18.4225 11.6543 18.0127 11.6543V9.6543ZM16.8633 10.7947V13.8659H18.8633V10.7947H16.8633ZM16.8633 13.8659C16.8633 14.5538 17.4366 15.0063 18.0127 15.0063V13.0063C18.4225 13.0063 18.8633 13.3342 18.8633 13.8659H16.8633ZM18.0127 15.0063C18.5887 15.0063 19.1621 14.5538 19.1621 13.8659H17.1621C17.1621 13.3342 17.6029 13.0063 18.0127 13.0063V15.0063ZM19.1621 13.8659V12.7159H17.1621V13.8659H19.1621ZM18.1621 12.7159C18.802 13.4843 18.8021 13.4843 18.8021 13.4842C18.8021 13.4842 18.8022 13.4842 18.8022 13.4842C18.8023 13.4841 18.8024 13.4841 18.8024 13.484C18.8026 13.4839 18.8027 13.4838 18.8028 13.4837C18.8031 13.4834 18.8034 13.4832 18.8037 13.483C18.8042 13.4825 18.8048 13.482 18.8054 13.4815C18.8066 13.4805 18.8079 13.4794 18.8092 13.4783C18.8119 13.476 18.815 13.4733 18.8185 13.4703C18.825 13.4647 18.8344 13.4563 18.8455 13.4461C18.8556 13.4367 18.8732 13.4201 18.8937 13.3985C18.9075 13.3838 18.9542 13.3345 19.0019 13.2629L17.3381 12.1531C17.3848 12.083 17.4299 12.0354 17.4422 12.0225C17.461 12.0027 17.4767 11.9879 17.485 11.9801C17.4944 11.9714 17.5022 11.9645 17.5076 11.9599C17.5104 11.9574 17.513 11.9551 17.5154 11.9531C17.5166 11.9521 17.5178 11.9512 17.5189 11.9502C17.5194 11.9498 17.52 11.9493 17.5205 11.9488C17.5208 11.9486 17.521 11.9484 17.5213 11.9482C17.5214 11.9481 17.5216 11.948 17.5217 11.9478C17.5218 11.9478 17.5218 11.9477 17.5219 11.9477C17.5219 11.9476 17.522 11.9476 17.522 11.9476C17.5221 11.9476 17.5221 11.9475 18.1621 12.7159ZM18.9441 13.3411C19.0304 13.2356 19.0811 13.2257 19.0605 13.2322L18.4627 11.3236C18.0444 11.4546 17.6816 11.7256 17.3959 12.0749L18.9441 13.3411ZM19.042 13.2378C19.0328 13.2405 18.9585 13.2601 18.8444 13.2283L19.3813 11.3017C19.0614 11.2126 18.7476 11.2402 18.4812 11.318L19.042 13.2378ZM18.8344 13.2255C18.7891 13.2124 18.7355 13.1894 18.6809 13.152C18.6259 13.1143 18.5791 13.0682 18.5424 13.0182L20.1542 11.8342C19.959 11.5684 19.6895 11.391 19.3912 11.3046L18.8344 13.2255ZM18.5301 13.0012C18.443 12.8773 18.4393 12.773 18.4393 12.7614H20.4393C20.4393 12.467 20.3703 12.1413 20.1664 11.8512L18.5301 13.0012ZM18.4393 12.7614V13.8609H20.4393V12.7614H18.4393ZM18.4393 13.8609C18.4393 14.4968 18.9538 15.0102 19.5887 15.0102V13.0102C20.0573 13.0102 20.4393 13.3912 20.4393 13.8609H18.4393ZM19.5887 15.0102C20.2236 15.0102 20.7381 14.4968 20.7381 13.8609H18.7381C18.7381 13.3912 19.12 13.0102 19.5887 13.0102V15.0102ZM20.7381 13.8609V12.7614H18.7381V13.8609H20.7381ZM20.7381 12.7614C20.7381 12.3782 20.6347 11.9966 20.3986 11.6705L18.7788 12.8437C18.759 12.8163 18.7476 12.7903 18.7419 12.7713C18.7364 12.7531 18.7381 12.7481 18.7381 12.7614H20.7381ZM20.4061 11.6811C20.1596 11.3312 19.8142 11.1175 19.4569 11.0174L18.9171 12.9431C18.9034 12.9393 18.8791 12.9302 18.8502 12.9106C18.8204 12.8904 18.7928 12.8637 18.7712 12.8331L20.4061 11.6811ZM18.187 11.9803V11.9813H20.187V11.9803H18.187Z" fill="#ED4C2F" mask="url(#path-5-inside-2_1194_435873)"/>
<mask id="path-7-inside-3_1194_435873" fill="white">
<path d="M21.1979 11.9531C20.9169 11.9531 20.6557 12.0688 20.4697 12.2547C20.2837 12.4406 20.168 12.6967 20.168 12.9825C20.168 13.2682 20.2837 13.5243 20.4697 13.7102C20.6557 13.8961 20.912 14.0118 21.1979 14.0118C21.4838 14.0118 21.74 13.8961 21.926 13.7102C22.112 13.5243 22.2278 13.2682 22.2278 12.9825C22.2278 12.6967 22.112 12.4406 21.926 12.2547C21.74 12.0688 21.4838 11.9531 21.1979 11.9531ZM21.7193 13.5035C21.5827 13.636 21.4007 13.7181 21.1979 13.7181C20.9951 13.7181 20.8091 13.6351 20.6765 13.5035C20.5439 13.371 20.4618 13.1852 20.4618 12.9825C20.4618 12.7798 20.5449 12.5939 20.6765 12.4614C20.813 12.3289 20.9951 12.2468 21.1979 12.2468C21.4007 12.2468 21.5867 12.3299 21.7193 12.4614C21.8518 12.5939 21.9339 12.7798 21.9339 12.9825C21.9339 13.1852 21.8508 13.371 21.7193 13.5035Z"/>
</mask>
<path d="M21.1979 11.9531C20.9169 11.9531 20.6557 12.0688 20.4697 12.2547C20.2837 12.4406 20.168 12.6967 20.168 12.9825C20.168 13.2682 20.2837 13.5243 20.4697 13.7102C20.6557 13.8961 20.912 14.0118 21.1979 14.0118C21.4838 14.0118 21.74 13.8961 21.926 13.7102C22.112 13.5243 22.2278 13.2682 22.2278 12.9825C22.2278 12.6967 22.112 12.4406 21.926 12.2547C21.74 12.0688 21.4838 11.9531 21.1979 11.9531ZM21.7193 13.5035C21.5827 13.636 21.4007 13.7181 21.1979 13.7181C20.9951 13.7181 20.8091 13.6351 20.6765 13.5035C20.5439 13.371 20.4618 13.1852 20.4618 12.9825C20.4618 12.7798 20.5449 12.5939 20.6765 12.4614C20.813 12.3289 20.9951 12.2468 21.1979 12.2468C21.4007 12.2468 21.5867 12.3299 21.7193 12.4614C21.8518 12.5939 21.9339 12.7798 21.9339 12.9825C21.9339 13.1852 21.8508 13.371 21.7193 13.5035Z" fill="#ED4C2F"/>
<path d="M21.7193 13.5035L22.4157 14.2212L22.4223 14.2147L22.4288 14.2082L21.7193 13.5035ZM20.6765 13.5035L19.9696 14.2109L19.9722 14.2135L20.6765 13.5035ZM20.6765 12.4614L19.9801 11.7437L19.9734 11.7502L19.9669 11.7567L20.6765 12.4614ZM21.7193 12.4614L22.4262 11.7541L22.4235 11.7514L21.7193 12.4614ZM21.1979 10.9531C20.6424 10.9531 20.1296 11.1808 19.7628 11.5474L21.1766 12.962C21.178 12.9607 21.1816 12.9578 21.1868 12.9556C21.1914 12.9537 21.1951 12.9531 21.1979 12.9531V10.9531ZM19.7628 11.5474C19.3979 11.9121 19.168 12.4193 19.168 12.9825H21.168C21.168 12.9787 21.1683 12.9764 21.1686 12.9752C21.1688 12.9739 21.1692 12.9728 21.1696 12.9718C21.1705 12.9696 21.1726 12.9661 21.1766 12.962L19.7628 11.5474ZM19.168 12.9825C19.168 13.5457 19.3979 14.0528 19.7628 14.4175L21.1766 13.0029C21.1726 12.9988 21.1705 12.9953 21.1696 12.9931C21.1692 12.9921 21.1688 12.991 21.1686 12.9897C21.1683 12.9885 21.168 12.9862 21.168 12.9825H19.168ZM19.7628 14.4175C20.1277 14.7822 20.6349 15.0118 21.1979 15.0118V13.0118C21.194 13.0118 21.1916 13.0114 21.1903 13.0111C21.1889 13.0109 21.1877 13.0105 21.1866 13.01C21.1843 13.009 21.1807 13.007 21.1766 13.0029L19.7628 14.4175ZM21.1979 15.0118C21.7609 15.0118 22.268 14.7822 22.6329 14.4175L21.2191 13.0029C21.2151 13.007 21.2114 13.009 21.2092 13.01C21.208 13.0105 21.2069 13.0109 21.2055 13.0111C21.2041 13.0114 21.2017 13.0118 21.1979 13.0118V15.0118ZM22.6329 14.4175C22.9978 14.0528 23.2278 13.5457 23.2278 12.9825H21.2278C21.2278 12.9862 21.2274 12.9885 21.2272 12.9897C21.2269 12.991 21.2266 12.9921 21.2261 12.9931C21.2252 12.9953 21.2232 12.9988 21.2191 13.0029L22.6329 14.4175ZM23.2278 12.9825C23.2278 12.4193 22.9978 11.9121 22.6329 11.5474L21.2191 12.962C21.2232 12.9661 21.2252 12.9696 21.2261 12.9718C21.2266 12.9728 21.2269 12.9739 21.2272 12.9752C21.2274 12.9764 21.2278 12.9787 21.2278 12.9825H23.2278ZM22.6329 11.5474C22.268 11.1827 21.7609 10.9531 21.1979 10.9531V12.9531C21.2017 12.9531 21.2041 12.9535 21.2055 12.9538C21.2069 12.9541 21.208 12.9544 21.2092 12.9549C21.2114 12.9559 21.2151 12.9579 21.2191 12.962L22.6329 11.5474ZM21.0228 12.7859C21.0583 12.7515 21.1211 12.7181 21.1979 12.7181V14.7181C21.6803 14.7181 22.1071 14.5206 22.4157 14.2212L21.0228 12.7859ZM21.1979 12.7181C21.2697 12.7181 21.3338 12.7471 21.3807 12.7936L19.9722 14.2135C20.2843 14.523 20.7204 14.7181 21.1979 14.7181V12.7181ZM21.3834 12.7962C21.4337 12.8465 21.4618 12.9132 21.4618 12.9825H19.4618C19.4618 13.4571 19.6541 13.8956 19.9696 14.2109L21.3834 12.7962ZM21.4618 12.9825C21.4618 13.0548 21.4326 13.1191 21.386 13.166L19.9669 11.7567C19.6572 12.0686 19.4618 12.5047 19.4618 12.9825H21.4618ZM21.3729 13.179C21.3374 13.2134 21.2747 13.2468 21.1979 13.2468V11.2468C20.7154 11.2468 20.2886 11.4443 19.9801 11.7437L21.3729 13.179ZM21.1979 13.2468C21.1261 13.2468 21.0619 13.2178 21.015 13.1713L22.4235 11.7514C22.1115 11.4419 21.6753 11.2468 21.1979 11.2468V13.2468ZM21.0124 13.1687C20.962 13.1184 20.9339 13.0517 20.9339 12.9825H22.9339C22.9339 12.5078 22.7416 12.0694 22.4262 11.7541L21.0124 13.1687ZM20.9339 12.9825C20.9339 12.9101 20.9631 12.8458 21.0097 12.7989L22.4288 14.2082C22.7385 13.8963 22.9339 13.4602 22.9339 12.9825H20.9339Z" fill="#ED4C2F" mask="url(#path-7-inside-3_1194_435873)"/>
<path d="M23.708 11.9522C23.4231 11.9522 23.1659 12.0678 22.9799 12.2537C22.967 12.2617 22.9591 12.2745 22.9472 12.2864V12.1005C22.9472 12.0174 22.8809 11.9512 22.7978 11.9512C22.7147 11.9512 22.6484 12.0174 22.6484 12.1005V15.0273C22.6484 15.1103 22.7147 15.1766 22.7978 15.1766C22.8809 15.1766 22.9472 15.1103 22.9472 15.0273V13.6756C22.9601 13.6835 22.968 13.6964 22.9799 13.7082C23.1659 13.8941 23.4221 14.0098 23.708 14.0098C23.9939 14.0098 24.2502 13.8941 24.4362 13.7082C24.6222 13.5224 24.7379 13.2663 24.7379 12.9805C24.7379 12.6947 24.6222 12.4386 24.4362 12.2528C24.2502 12.0669 23.9939 11.9512 23.708 11.9512V11.9522ZM24.2255 13.5026C24.0889 13.6351 23.9069 13.7171 23.7041 13.7171C23.5013 13.7171 23.3153 13.6341 23.1827 13.5026C23.0501 13.3701 22.968 13.1842 22.968 12.9815C22.968 12.7788 23.0511 12.5929 23.1827 12.4604C23.3192 12.3279 23.5013 12.2458 23.7041 12.2458C23.9069 12.2458 24.0929 12.3289 24.2255 12.4604C24.358 12.5919 24.4401 12.7788 24.4401 12.9815C24.4401 13.1842 24.357 13.3701 24.2255 13.5026Z" fill="#ED4C2F"/>
<path d="M26.7914 12.2241C26.6222 12.0501 26.3897 11.9512 26.1374 11.9512C25.8851 11.9512 25.6497 12.0461 25.4835 12.2241C25.1273 12.6087 25.1322 13.022 25.2727 13.4393C25.3351 13.6291 25.4666 13.7656 25.62 13.8655C25.7733 13.9643 25.9593 14.0148 26.1701 14.0098C26.3768 14.0059 26.6084 13.9564 26.8567 13.8526C26.9309 13.82 26.9685 13.733 26.9348 13.6588C26.9022 13.5846 26.8151 13.5471 26.7409 13.5807C26.5262 13.6717 26.3313 13.7171 26.1661 13.7171C26.0128 13.7171 25.8812 13.6845 25.7773 13.6183C25.6784 13.552 25.5992 13.4571 25.5458 13.3286C25.5171 13.2455 25.4924 13.1545 25.4795 13.0556H26.8488C26.923 13.0556 27.1673 13.0725 27.0387 12.6542C26.9892 12.5049 26.9309 12.3645 26.7904 12.2241H26.7914ZM25.4963 12.7531C25.5339 12.6295 25.6042 12.5217 25.6902 12.4347C25.8099 12.319 25.9673 12.2488 26.1374 12.2488C26.3076 12.2488 26.4639 12.319 26.5846 12.4347C26.6717 12.5217 26.738 12.6285 26.7835 12.7531H25.4973H25.4963Z" fill="#ED4C2F"/>
<path d="M29.2975 12.6542C29.248 12.5049 29.1897 12.3645 29.0492 12.2241C28.88 12.0501 28.6475 11.9512 28.3952 11.9512C28.143 11.9512 27.9075 12.0461 27.7413 12.2241C27.3851 12.6087 27.3901 13.022 27.5305 13.4393C27.5929 13.6291 27.7245 13.7656 27.8778 13.8655C28.0312 13.9643 28.2172 14.0148 28.4279 14.0098C28.6347 14.0059 28.8662 13.9564 29.1145 13.8526C29.1887 13.82 29.2263 13.733 29.1926 13.6588C29.159 13.5846 29.0729 13.5471 28.9987 13.5807C28.784 13.6717 28.5891 13.7171 28.4239 13.7171C28.2706 13.7171 28.139 13.6845 28.0351 13.6183C27.9362 13.552 27.857 13.4571 27.8036 13.3286C27.7749 13.2455 27.7502 13.1545 27.7373 13.0556H29.1066C29.1808 13.0556 29.4251 13.0725 29.2965 12.6542H29.2975ZM27.7551 12.7531C27.7927 12.6295 27.863 12.5217 27.949 12.4347C28.0688 12.319 28.2261 12.2488 28.3962 12.2488C28.5664 12.2488 28.7227 12.319 28.8434 12.4347C28.9305 12.5217 28.9968 12.6285 29.0423 12.7531H27.7561H27.7551Z" fill="#ED4C2F"/>
<path d="M17.4036 14.748H15.2617V20.4731H16.1304V18.7645H17.4966C17.9547 18.7645 18.4088 18.6538 18.8036 18.4214C19.2715 18.1435 19.7405 17.6551 19.7405 16.8107C19.7405 16.0186 19.3289 15.5163 18.8916 15.2059C18.4543 14.8954 17.9349 14.748 17.4046 14.748H17.4036ZM17.6767 17.8489H16.1314V15.6053H17.5263C17.5511 15.6053 17.5738 15.6063 17.5985 15.6093C17.8103 15.633 18.7383 15.7932 18.7383 16.7879C18.7383 17.8499 17.6767 17.8499 17.6767 17.8499V17.8489Z" fill="#ED4C2F"/>
<path d="M23.1828 16.405V16.8074C22.8306 16.5207 22.3824 16.3496 21.8937 16.3496C20.7638 16.3496 19.8438 17.2682 19.8438 18.3974C19.8438 19.5266 20.7638 20.4462 21.8937 20.4462C22.3824 20.4462 22.8306 20.2751 23.1828 19.9883V20.4462H24.0514V16.405H23.1828ZM21.8937 19.6858C21.1823 19.6858 20.6046 19.1093 20.6046 18.3974C20.6046 17.6855 21.1823 17.11 21.8937 17.11C22.605 17.11 23.1818 17.6855 23.1828 18.3954V18.3984C23.1828 19.1093 22.606 19.6858 21.8937 19.6858Z" fill="#ED4C2F"/>
<path d="M24.4414 16.3496H25.6029L26.9672 18.958L28.283 16.3496H29.3337L26.2064 22.1666H25.1834L26.3756 20.0071L24.4414 16.3496Z" fill="#ED4C2F"/>
</svg>
