<svg width="29" height="29" viewBox="0 0 29 29" fill="none" xmlns="http://www.w3.org/2000/svg">
<path d="M24.8358 13.2169C24.7997 12.9092 24.6713 12.6195 24.4677 12.386C24.264 12.1524 23.9945 11.9858 23.6945 11.9081L18.2996 10.475L17.2609 4.97526C17.2046 4.67261 17.0588 4.39382 16.8423 4.17498C16.6258 3.95614 16.3486 3.80733 16.0465 3.74781V3.74781C15.7441 3.69061 15.4314 3.72554 15.149 3.84805C14.8666 3.97057 14.6274 4.17504 14.4625 4.43499L11.4089 9.17329L5.91045 8.47452C5.60322 8.4363 5.29159 8.49115 5.01588 8.63198C4.74016 8.7728 4.51305 8.99311 4.36391 9.26442C4.21141 9.53968 4.14486 9.85431 4.17284 10.1677C4.20082 10.4812 4.32205 10.779 4.5209 11.0229L8.01752 15.3645L5.83115 20.0125C5.68133 20.3265 5.62944 20.6784 5.68223 21.0223C5.73502 21.3663 5.89005 21.6864 6.12716 21.941C6.35794 22.185 6.65626 22.3546 6.98397 22.4281C7.31167 22.5016 7.65385 22.4756 7.96671 22.3535L12.8117 20.4531L12.8301 20.4567L16.9117 24.2906C17.1202 24.4916 17.3822 24.6283 17.6663 24.6845C17.8989 24.7275 18.1382 24.7166 18.3659 24.6527C18.5935 24.5887 18.8035 24.4734 18.9797 24.3157C19.1558 24.1579 19.2935 23.9618 19.382 23.7425C19.4705 23.5232 19.5076 23.2865 19.4904 23.0507L19.2066 17.4484L24.0355 14.7906C24.3109 14.6383 24.5343 14.407 24.6769 14.1265C24.8196 13.846 24.8749 13.5292 24.8358 13.2169Z" fill="#FBB912"/>
</svg>
