<svg width="55" height="55" viewBox="0 0 55 55" fill="none" xmlns="http://www.w3.org/2000/svg">
<path fill-rule="evenodd" clip-rule="evenodd" d="M54.5967 27.074C54.5967 12.1225 42.4427 0 27.4488 0C12.4587 0 0.304688 12.1225 0.304688 27.074C0.304688 42.0291 12.4586 54.148 27.4488 54.148C42.4427 54.148 54.5967 42.0291 54.5967 27.074Z" fill="#E6E8EC"/>
<path fill-rule="evenodd" clip-rule="evenodd" d="M54.597 27.074C54.597 12.1225 42.443 0 27.4492 0C26.6697 0 25.8938 0.032875 25.1289 0.094875C39.0358 1.27025 49.9564 12.9 49.9564 27.074C49.9564 41.248 39.0358 52.8776 25.1289 54.0531C25.8938 54.1151 26.6697 54.148 27.4492 54.148C42.443 54.148 54.597 42.0291 54.597 27.074Z" fill="#DBDEE7"/>
<path d="M32.1626 40.4616C31.9446 40.4616 31.7254 40.3882 31.5447 40.2377C28.9511 38.076 24.7335 38.0757 22.1431 40.2374C21.7335 40.579 21.1245 40.5242 20.7829 40.1146C20.4411 39.7051 20.4961 39.0961 20.9056 38.7544C22.4985 37.4251 24.6069 36.6931 26.8424 36.6931C29.0777 36.6931 31.1869 37.425 32.7815 38.754C33.1912 39.0955 33.2465 39.7045 32.9051 40.1142C32.714 40.3432 32.4392 40.4616 32.1626 40.4616Z" fill="#554E56"/>
<path fill-rule="evenodd" clip-rule="evenodd" d="M23.9598 26.165C23.9598 22.5695 21.0357 19.6493 17.4272 19.6493C13.8187 19.6493 10.8945 22.5695 10.8945 26.165C10.8945 29.7642 13.8187 32.6844 17.4272 32.6844C21.0357 32.6844 23.9598 29.7643 23.9598 26.165Z" fill="#FAF7F7"/>
<path fill-rule="evenodd" clip-rule="evenodd" d="M43.6395 26.165C43.6395 22.5695 40.7153 19.6493 37.1068 19.6493C33.4983 19.6493 30.5742 22.5695 30.5742 26.165C30.5742 29.7642 33.4983 32.6844 37.1068 32.6844C40.7153 32.6844 43.6395 29.7643 43.6395 26.165Z" fill="#FAF7F7"/>
<path fill-rule="evenodd" clip-rule="evenodd" d="M42.0809 15.0135C43.0764 14.5244 43.4899 13.3161 42.9995 12.3233C42.5092 11.3304 41.2978 10.9179 40.3023 11.407C38.4175 12.3305 36.1412 11.5566 35.2153 9.67675C34.7285 8.68388 33.5172 8.27138 32.518 8.7605C31.5225 9.24963 31.1127 10.4579 31.5994 11.4508C33.5062 15.3201 38.1979 16.9153 42.0809 15.0135Z" fill="#554E56"/>
<path fill-rule="evenodd" clip-rule="evenodd" d="M12.4531 15.0135C16.3324 16.9152 21.0241 15.3201 22.9309 11.4509C23.4213 10.458 23.0078 9.24975 22.0123 8.76062C21.0168 8.2715 19.8055 8.684 19.315 9.67687C18.3891 11.5567 16.1128 12.3306 14.228 11.4071C13.2325 10.918 12.0213 11.3305 11.5345 12.3234C11.0443 13.3161 11.4578 14.5244 12.4531 15.0135Z" fill="#554E56"/>
<path fill-rule="evenodd" clip-rule="evenodd" d="M23.962 26.165C23.962 22.5695 21.0379 19.6493 17.4294 19.6493C17.0744 19.6493 16.723 19.6785 16.3864 19.7333C19.2373 20.4342 21.3526 23.0003 21.3526 26.0592C21.3526 29.3043 18.9738 31.9945 15.8594 32.4945C16.3644 32.6187 16.8877 32.6844 17.4294 32.6844C21.0379 32.6844 23.962 29.7643 23.962 26.165Z" fill="#DEDBEE"/>
<path fill-rule="evenodd" clip-rule="evenodd" d="M43.6381 26.165C43.6381 22.5695 40.7139 19.6493 37.1054 19.6493C36.7504 19.6493 36.4028 19.6785 36.0624 19.7333C38.9133 20.4342 41.0287 23.0003 41.0287 26.0592C41.0287 29.3043 38.6498 31.9945 35.5391 32.4945C36.0404 32.6187 36.5638 32.6844 37.1054 32.6844C40.7139 32.6844 43.6381 29.7643 43.6381 26.165Z" fill="#DEDBEE"/>
<path fill-rule="evenodd" clip-rule="evenodd" d="M19.7116 26.165C19.7116 24.9092 18.6869 23.8872 17.428 23.8872C16.1654 23.8872 15.1406 24.9093 15.1406 26.165C15.1406 27.4243 16.1654 28.4463 17.428 28.4463C18.6869 28.4465 19.7116 27.4243 19.7116 26.165Z" fill="#554E56"/>
<path fill-rule="evenodd" clip-rule="evenodd" d="M37.1077 28.4465C38.3703 28.4465 39.3913 27.4243 39.3913 26.1651C39.3913 24.9093 38.3703 23.8873 37.1077 23.8873C35.8451 23.8873 34.8203 24.9095 34.8203 26.1651C34.8204 27.4243 35.8451 28.4465 37.1077 28.4465Z" fill="#554E56"/>
</svg>
