<svg width="24" height="24" viewBox="0 0 24 24" fill="none" xmlns="http://www.w3.org/2000/svg">
<path d="M16.5002 21.7499C16.5002 21.9488 16.4211 22.1396 16.2805 22.2802C16.1398 22.4209 15.9491 22.4999 15.7502 22.4999H8.25016C8.05125 22.4999 7.86048 22.4209 7.71983 22.2802C7.57918 22.1396 7.50016 21.9488 7.50016 21.7499C7.50016 21.551 7.57918 21.3602 7.71983 21.2196C7.86048 21.0789 8.05125 20.9999 8.25016 20.9999H15.7502C15.9491 20.9999 16.1398 21.0789 16.2805 21.2196C16.4211 21.3602 16.5002 21.551 16.5002 21.7499ZM20.2502 9.7499C20.2527 10.9995 19.9703 12.2333 19.4244 13.3575C18.8786 14.4816 18.0837 15.4665 17.1002 16.2374C16.9144 16.3776 16.7636 16.5589 16.6595 16.7671C16.5554 16.9752 16.5009 17.2047 16.5002 17.4374V17.9999C16.5002 18.3977 16.3421 18.7793 16.0608 19.0606C15.7795 19.3419 15.398 19.4999 15.0002 19.4999H9.00016C8.60234 19.4999 8.22081 19.3419 7.9395 19.0606C7.6582 18.7793 7.50016 18.3977 7.50016 17.9999V17.4374C7.49952 17.2079 7.44689 16.9816 7.34622 16.7754C7.24554 16.5691 7.09945 16.3884 6.91891 16.2468C5.93742 15.4812 5.14233 14.503 4.59347 13.3858C4.04461 12.2686 3.75628 11.0415 3.75016 9.79677C3.72204 5.3249 7.34079 1.60302 11.8033 1.4999C12.9035 1.47235 13.9981 1.66546 15.0224 2.06783C16.0467 2.4702 16.9801 3.07367 17.7674 3.84264C18.5548 4.61161 19.1801 5.5305 19.6065 6.54507C20.0329 7.55965 20.2518 8.64936 20.2502 9.7499ZM15.5345 9.96552C15.3923 9.82469 15.2003 9.74568 15.0002 9.74568C14.8 9.74568 14.608 9.82469 14.4658 9.96552L12.0002 12.4405L9.53454 9.96552C9.38882 9.84592 9.20382 9.78481 9.01553 9.79405C8.82724 9.8033 8.64912 9.88225 8.51582 10.0156C8.38252 10.1489 8.30357 10.327 8.29432 10.5153C8.28507 10.7036 8.34619 10.8885 8.46579 11.0343L11.2502 13.8093V17.2499C11.2502 17.4488 11.3292 17.6396 11.4698 17.7802C11.6105 17.9209 11.8013 17.9999 12.0002 17.9999C12.1991 17.9999 12.3898 17.9209 12.5305 17.7802C12.6711 17.6396 12.7502 17.4488 12.7502 17.2499V13.8093L15.5345 11.0343C15.6754 10.8921 15.7544 10.7 15.7544 10.4999C15.7544 10.2998 15.6754 10.1077 15.5345 9.96552Z" fill="#FBB912"/>
</svg>
