<svg width="53" height="52" viewBox="0 0 53 52" fill="none" xmlns="http://www.w3.org/2000/svg">
<g clip-path="url(#clip0_1778_153709)">
<mask id="path-1-inside-1_1778_153709" fill="white">
<path d="M46.3304 31.0702V26.4085C46.3304 23.469 45.3397 20.6064 43.5402 18.3463C41.9877 16.3962 41.1325 13.9246 41.1325 11.3883V8.83123C41.9736 8.41685 42.557 7.52249 42.557 6.48828C42.557 5.06041 41.4457 3.89844 40.0783 3.89844H32.752C31.3854 3.89844 30.2733 5.06041 30.2733 6.48828C30.2733 7.52249 30.8575 8.41685 31.6986 8.83123V11.3883C31.6986 13.9255 30.8434 16.3962 29.2909 18.3463C27.6946 20.3517 26.7345 22.8319 26.5387 25.4192C26.0926 25.2957 25.6332 25.2146 25.1647 25.1783L24.6375 25.1377C24.5103 25.1274 24.3822 25.149 24.2641 25.199L7.84595 32.2011C7.54437 32.3297 7.33203 32.6397 7.33203 33.0005V47.2352C7.33203 47.7117 7.70219 48.0984 8.15827 48.0984H43.0957C44.8795 48.0984 46.3304 46.5825 46.3304 44.7187V41.5703H46.332V31.0702H46.3304ZM32.7528 5.625H40.0791C40.5343 5.625 40.9053 6.01175 40.9053 6.48828C40.9053 6.96481 40.5343 7.35156 40.0791 7.35156H32.7528C32.2968 7.35156 31.9266 6.96481 31.9266 6.48828C31.9266 6.01175 32.2968 5.625 32.7528 5.625ZM30.5608 19.4504C32.3604 17.1912 33.351 14.3277 33.351 11.3883V9.07813H39.4801V11.3883C39.4801 14.3277 40.4715 17.1912 42.2703 19.4504C43.6806 21.2228 44.516 23.4241 44.6564 25.7144C44.6515 25.7196 44.6457 25.7239 44.6407 25.73C43.6245 26.8047 42.2686 27.397 40.8219 27.397C39.3751 27.397 38.0193 26.8047 37.0013 25.7282C35.6728 24.3228 33.8997 23.5484 32.0084 23.5476H32.0068C30.6707 23.5476 29.3942 23.9361 28.2903 24.6586C28.5886 22.7534 29.3686 20.9482 30.5608 19.4504ZM23.347 27.4557C23.3329 27.6041 23.2974 27.7518 23.2412 27.8942C23.0892 28.2784 22.8041 28.5771 22.4373 28.7359C22.0704 28.8956 21.6656 28.8965 21.2987 28.7376C21.1566 28.6763 21.0269 28.5935 20.912 28.4933L23.347 27.4557ZM19.2951 29.1831C19.6347 29.6924 20.1065 30.0913 20.6683 30.333C21.055 30.5005 21.4607 30.5833 21.8664 30.5833C22.272 30.5833 22.6827 30.4996 23.071 30.3304C23.846 29.9946 24.4483 29.3635 24.7689 28.5538C24.9796 28.0202 25.0498 27.4522 24.9821 26.8954L25.0432 26.8997C27.8053 27.1129 30.023 29.3428 30.4072 32.1372H12.3688L19.2951 29.1831ZM8.9845 37.9722C9.56039 38.2847 9.95533 38.914 9.95533 39.6383C9.95533 40.3626 9.56039 40.9919 8.9845 41.3044V37.9722ZM16.2042 46.3719C15.3837 46.3719 14.7169 45.6752 14.7169 44.818C14.7169 43.9607 15.3837 43.2641 16.2042 43.2641C17.0246 43.2641 17.6914 43.9607 17.6914 44.818C17.6914 45.6752 17.0238 46.3719 16.2042 46.3719ZM26.181 46.3719C25.7249 46.3719 25.3547 45.9851 25.3547 45.5086C25.3547 45.0321 25.7249 44.6453 26.181 44.6453C26.637 44.6453 27.0072 45.0321 27.0072 45.5086C27.0072 45.9851 26.6362 46.3719 26.181 46.3719ZM30.4666 46.3719H28.5176C28.6093 46.1017 28.6597 45.8116 28.6597 45.5086C28.6597 44.0807 27.5476 42.9188 26.181 42.9188C24.8144 42.9188 23.7023 44.0807 23.7023 45.5086C23.7023 45.8116 23.7527 46.1017 23.8444 46.3719H18.9687C19.2075 45.9092 19.3439 45.38 19.3439 44.818C19.3439 43.0094 17.9351 41.5375 16.2042 41.5375C14.4732 41.5375 13.0645 43.0094 13.0645 44.818C13.0645 45.38 13.2 45.9092 13.4396 46.3719H8.9845V43.1372C10.4891 42.7495 11.6078 41.3277 11.6078 39.6383C11.6078 37.9488 10.4891 36.527 8.9845 36.1394V33.8638H30.4666V46.3719ZM44.6779 44.7187C44.6779 45.6303 43.9682 46.3719 43.0957 46.3719H32.1191V33.0005C32.1191 31.0132 31.4069 29.1175 30.1122 27.662C29.6958 27.1941 29.2314 26.7858 28.7299 26.4413C29.6644 25.6851 30.8046 25.2741 32.0068 25.2741H32.0084C33.4543 25.275 34.8102 25.8672 35.8273 26.9429C37.1559 28.3492 38.9298 29.1235 40.8219 29.1235C42.2149 29.1235 43.5435 28.7022 44.6779 27.9192V32.1605C44.6779 32.1864 44.6787 32.2123 44.6812 32.2374V38.99C44.6787 39.015 44.6779 39.0409 44.6779 39.0668V44.7187Z"/>
</mask>
<path d="M46.3304 31.0702V26.4085C46.3304 23.469 45.3397 20.6064 43.5402 18.3463C41.9877 16.3962 41.1325 13.9246 41.1325 11.3883V8.83123C41.9736 8.41685 42.557 7.52249 42.557 6.48828C42.557 5.06041 41.4457 3.89844 40.0783 3.89844H32.752C31.3854 3.89844 30.2733 5.06041 30.2733 6.48828C30.2733 7.52249 30.8575 8.41685 31.6986 8.83123V11.3883C31.6986 13.9255 30.8434 16.3962 29.2909 18.3463C27.6946 20.3517 26.7345 22.8319 26.5387 25.4192C26.0926 25.2957 25.6332 25.2146 25.1647 25.1783L24.6375 25.1377C24.5103 25.1274 24.3822 25.149 24.2641 25.199L7.84595 32.2011C7.54437 32.3297 7.33203 32.6397 7.33203 33.0005V47.2352C7.33203 47.7117 7.70219 48.0984 8.15827 48.0984H43.0957C44.8795 48.0984 46.3304 46.5825 46.3304 44.7187V41.5703H46.332V31.0702H46.3304ZM32.7528 5.625H40.0791C40.5343 5.625 40.9053 6.01175 40.9053 6.48828C40.9053 6.96481 40.5343 7.35156 40.0791 7.35156H32.7528C32.2968 7.35156 31.9266 6.96481 31.9266 6.48828C31.9266 6.01175 32.2968 5.625 32.7528 5.625ZM30.5608 19.4504C32.3604 17.1912 33.351 14.3277 33.351 11.3883V9.07813H39.4801V11.3883C39.4801 14.3277 40.4715 17.1912 42.2703 19.4504C43.6806 21.2228 44.516 23.4241 44.6564 25.7144C44.6515 25.7196 44.6457 25.7239 44.6407 25.73C43.6245 26.8047 42.2686 27.397 40.8219 27.397C39.3751 27.397 38.0193 26.8047 37.0013 25.7282C35.6728 24.3228 33.8997 23.5484 32.0084 23.5476H32.0068C30.6707 23.5476 29.3942 23.9361 28.2903 24.6586C28.5886 22.7534 29.3686 20.9482 30.5608 19.4504ZM23.347 27.4557C23.3329 27.6041 23.2974 27.7518 23.2412 27.8942C23.0892 28.2784 22.8041 28.5771 22.4373 28.7359C22.0704 28.8956 21.6656 28.8965 21.2987 28.7376C21.1566 28.6763 21.0269 28.5935 20.912 28.4933L23.347 27.4557ZM19.2951 29.1831C19.6347 29.6924 20.1065 30.0913 20.6683 30.333C21.055 30.5005 21.4607 30.5833 21.8664 30.5833C22.272 30.5833 22.6827 30.4996 23.071 30.3304C23.846 29.9946 24.4483 29.3635 24.7689 28.5538C24.9796 28.0202 25.0498 27.4522 24.9821 26.8954L25.0432 26.8997C27.8053 27.1129 30.023 29.3428 30.4072 32.1372H12.3688L19.2951 29.1831ZM8.9845 37.9722C9.56039 38.2847 9.95533 38.914 9.95533 39.6383C9.95533 40.3626 9.56039 40.9919 8.9845 41.3044V37.9722ZM16.2042 46.3719C15.3837 46.3719 14.7169 45.6752 14.7169 44.818C14.7169 43.9607 15.3837 43.2641 16.2042 43.2641C17.0246 43.2641 17.6914 43.9607 17.6914 44.818C17.6914 45.6752 17.0238 46.3719 16.2042 46.3719ZM26.181 46.3719C25.7249 46.3719 25.3547 45.9851 25.3547 45.5086C25.3547 45.0321 25.7249 44.6453 26.181 44.6453C26.637 44.6453 27.0072 45.0321 27.0072 45.5086C27.0072 45.9851 26.6362 46.3719 26.181 46.3719ZM30.4666 46.3719H28.5176C28.6093 46.1017 28.6597 45.8116 28.6597 45.5086C28.6597 44.0807 27.5476 42.9188 26.181 42.9188C24.8144 42.9188 23.7023 44.0807 23.7023 45.5086C23.7023 45.8116 23.7527 46.1017 23.8444 46.3719H18.9687C19.2075 45.9092 19.3439 45.38 19.3439 44.818C19.3439 43.0094 17.9351 41.5375 16.2042 41.5375C14.4732 41.5375 13.0645 43.0094 13.0645 44.818C13.0645 45.38 13.2 45.9092 13.4396 46.3719H8.9845V43.1372C10.4891 42.7495 11.6078 41.3277 11.6078 39.6383C11.6078 37.9488 10.4891 36.527 8.9845 36.1394V33.8638H30.4666V46.3719ZM44.6779 44.7187C44.6779 45.6303 43.9682 46.3719 43.0957 46.3719H32.1191V33.0005C32.1191 31.0132 31.4069 29.1175 30.1122 27.662C29.6958 27.1941 29.2314 26.7858 28.7299 26.4413C29.6644 25.6851 30.8046 25.2741 32.0068 25.2741H32.0084C33.4543 25.275 34.8102 25.8672 35.8273 26.9429C37.1559 28.3492 38.9298 29.1235 40.8219 29.1235C42.2149 29.1235 43.5435 28.7022 44.6779 27.9192V32.1605C44.6779 32.1864 44.6787 32.2123 44.6812 32.2374V38.99C44.6787 39.015 44.6779 39.0409 44.6779 39.0668V44.7187Z" fill="#23262F" stroke="white" stroke-width="0.26" mask="url(#path-1-inside-1_1778_153709)"/>
<path d="M24.304 37.8359C24.304 39.1974 23.2448 40.2958 21.9553 40.2958C20.6658 40.2958 19.6066 39.1974 19.6066 37.8359C19.6066 36.4744 20.6658 35.3761 21.9553 35.3761C23.2448 35.3761 24.304 36.4744 24.304 37.8359ZM22.9115 37.8359C22.9115 37.293 22.4885 36.8427 21.9553 36.8427C21.422 36.8427 20.999 37.294 20.999 37.8359C20.999 38.3779 21.422 38.8292 21.9553 38.8292C22.4885 38.8292 22.9115 38.3788 22.9115 37.8359Z" fill="#23262F" stroke="white" stroke-width="0.26"/>
<path d="M42.0472 35.3488H42.0481C42.4264 35.3488 42.7427 35.6708 42.7427 36.0803V42.9866C42.7427 43.396 42.4264 43.7181 42.0481 43.7181H42.0472C41.6689 43.7181 41.3527 43.396 41.3527 42.9866V36.0803C41.3527 35.6708 41.6689 35.3488 42.0472 35.3488Z" fill="#23262F" stroke="white" stroke-width="0.26"/>
</g>
<defs>
<clipPath id="clip0_1778_153709">
<rect width="39" height="44.2" fill="white" transform="translate(7.33203 3.89844)"/>
</clipPath>
</defs>
</svg>
