<svg width="25" height="24" viewBox="0 0 25 24" fill="none" xmlns="http://www.w3.org/2000/svg">
<path fill-rule="evenodd" clip-rule="evenodd" d="M3.84998 4.00004C3.84998 3.64105 4.14099 3.35004 4.49998 3.35004H10.5C10.859 3.35004 11.15 3.64105 11.15 4.00004V10C11.15 10.359 10.859 10.65 10.5 10.65H4.49998C4.14099 10.65 3.84998 10.359 3.84998 10V4.00004ZM5.14998 4.65004V9.35004H9.84998V4.65004H5.14998Z" fill="white"/>
<path fill-rule="evenodd" clip-rule="evenodd" d="M13.85 4.00004C13.85 3.64105 14.141 3.35004 14.5 3.35004H20.5C20.859 3.35004 21.15 3.64105 21.15 4.00004V10C21.15 10.359 20.859 10.65 20.5 10.65H14.5C14.141 10.65 13.85 10.359 13.85 10V4.00004ZM15.15 4.65004V9.35004H19.85V4.65004H15.15Z" fill="white"/>
<path fill-rule="evenodd" clip-rule="evenodd" d="M3.84998 14C3.84998 13.6411 4.14099 13.35 4.49998 13.35H10.5C10.859 13.35 11.15 13.6411 11.15 14V20C11.15 20.359 10.859 20.65 10.5 20.65H4.49998C4.14099 20.65 3.84998 20.359 3.84998 20V14ZM5.14998 14.65V19.35H9.84998V14.65H5.14998Z" fill="white"/>
<path fill-rule="evenodd" clip-rule="evenodd" d="M13.85 17C13.85 14.9842 15.4841 13.35 17.5 13.35C19.5158 13.35 21.15 14.9842 21.15 17C21.15 19.0159 19.5158 20.65 17.5 20.65C15.4841 20.65 13.85 19.0159 13.85 17ZM17.5 19.35C18.7978 19.35 19.85 18.2979 19.85 17C19.85 15.7022 18.7978 14.65 17.5 14.65C16.2021 14.65 15.15 15.7022 15.15 17C15.15 18.2979 16.2021 19.35 17.5 19.35Z" fill="white"/>
</svg>
