<svg width="21" height="20" viewBox="0 0 21 20" fill="none" xmlns="http://www.w3.org/2000/svg">
<path d="M16.75 3.125H4.25C3.90482 3.125 3.625 3.40482 3.625 3.75V16.25C3.625 16.5952 3.90482 16.875 4.25 16.875H16.75C17.0952 16.875 17.375 16.5952 17.375 16.25V3.75C17.375 3.40482 17.0952 3.125 16.75 3.125Z" stroke="#141416" stroke-linecap="round" stroke-linejoin="round"/>
<path d="M14.25 1.875V4.375" stroke="#141416" stroke-linecap="round" stroke-linejoin="round"/>
<path d="M6.75 1.875V4.375" stroke="#141416" stroke-linecap="round" stroke-linejoin="round"/>
<path d="M3.625 6.875H17.375" stroke="#141416" stroke-linecap="round" stroke-linejoin="round"/>
<path d="M7.6875 10H9.875L8.625 11.5625C8.83072 11.5621 9.03334 11.6126 9.2149 11.7093C9.39646 11.806 9.55134 11.9461 9.66579 12.117C9.78025 12.288 9.85075 12.4845 9.87104 12.6892C9.89133 12.8939 9.86079 13.1005 9.78211 13.2906C9.70343 13.4806 9.57906 13.6484 9.42002 13.7789C9.26098 13.9093 9.0722 13.9986 8.87041 14.0386C8.66863 14.0786 8.46008 14.0682 8.26327 14.0084C8.06646 13.9485 7.88748 13.841 7.74219 13.6953" stroke="#141416" stroke-linecap="round" stroke-linejoin="round"/>
<path d="M11.75 10.9375L13 10V14.0625" stroke="#141416" stroke-linecap="round" stroke-linejoin="round"/>
</svg>
