<svg width="56" height="56" viewBox="0 0 56 56" fill="none" xmlns="http://www.w3.org/2000/svg">
<path d="M25.8785 39.2207C25.5718 39.2207 25.3052 39.1074 25.0785 38.8807C24.8518 38.654 24.7385 38.3874 24.7385 38.0807V25.7607C24.7385 25.454 24.8518 25.1874 25.0785 24.9607C25.3052 24.734 25.5718 24.6207 25.8785 24.6207H25.8985C26.2052 24.6207 26.4718 24.734 26.6985 24.9607C26.9252 25.1874 27.0385 25.454 27.0385 25.7607V37.2007C27.0385 37.3207 27.0918 37.3807 27.1985 37.3807H32.8185C33.0718 37.3807 33.2852 37.474 33.4585 37.6607C33.6452 37.834 33.7385 38.0474 33.7385 38.3007C33.7385 38.554 33.6452 38.774 33.4585 38.9607C33.2852 39.134 33.0718 39.2207 32.8185 39.2207H25.8785Z" fill="#DA291C"/>
<path d="M21.3756 19.05C20.8689 19.05 20.4623 18.8867 20.1556 18.56C19.8523 18.2333 19.7006 17.7717 19.7006 17.175C19.7006 16.585 19.8473 16.125 20.1406 15.795C20.4373 15.465 20.8489 15.3 21.3756 15.3C21.6023 15.3 21.8089 15.3167 21.9956 15.35C22.0623 15.3633 22.1173 15.3983 22.1606 15.455C22.2039 15.5083 22.2256 15.57 22.2256 15.64C22.2256 15.7 22.2006 15.7483 22.1506 15.785C22.1039 15.8183 22.0523 15.8267 21.9956 15.81C21.8389 15.77 21.6489 15.75 21.4256 15.75C21.0656 15.75 20.7806 15.875 20.5706 16.125C20.3639 16.3717 20.2606 16.7217 20.2606 17.175C20.2606 17.6283 20.3673 17.98 20.5806 18.23C20.7939 18.4767 21.0756 18.6 21.4256 18.6C21.6456 18.6 21.8439 18.5783 22.0206 18.535C22.0773 18.5183 22.1289 18.5283 22.1756 18.565C22.2256 18.6017 22.2506 18.65 22.2506 18.71C22.2506 18.78 22.2289 18.8433 22.1856 18.9C22.1423 18.9533 22.0856 18.9867 22.0156 19C21.8189 19.0333 21.6056 19.05 21.3756 19.05ZM23.5157 18.92C23.4624 18.9733 23.3974 19 23.3207 19C23.2441 19 23.1791 18.9733 23.1257 18.92C23.0724 18.8667 23.0457 18.8017 23.0457 18.725V15.625C23.0457 15.5483 23.0724 15.4833 23.1257 15.43C23.1791 15.3767 23.2441 15.35 23.3207 15.35C23.3974 15.35 23.4624 15.3767 23.5157 15.43C23.5691 15.4833 23.5957 15.5483 23.5957 15.625V16.795C23.5957 16.825 23.6107 16.84 23.6407 16.84H25.1007C25.1307 16.84 25.1457 16.825 25.1457 16.795V15.625C25.1457 15.5483 25.1724 15.4833 25.2257 15.43C25.2791 15.3767 25.3441 15.35 25.4207 15.35C25.4974 15.35 25.5624 15.3767 25.6157 15.43C25.6691 15.4833 25.6957 15.5483 25.6957 15.625V18.725C25.6957 18.8017 25.6691 18.8667 25.6157 18.92C25.5624 18.9733 25.4974 19 25.4207 19C25.3441 19 25.2791 18.9733 25.2257 18.92C25.1724 18.8667 25.1457 18.8017 25.1457 18.725V17.315C25.1457 17.285 25.1307 17.27 25.1007 17.27H23.6407C23.6107 17.27 23.5957 17.285 23.5957 17.315V18.725C23.5957 18.8017 23.5691 18.8667 23.5157 18.92ZM28.7024 16.11C28.5191 15.87 28.2574 15.75 27.9174 15.75C27.5774 15.75 27.3141 15.87 27.1274 16.11C26.9441 16.3467 26.8524 16.7017 26.8524 17.175C26.8524 17.6483 26.9441 18.005 27.1274 18.245C27.3141 18.4817 27.5774 18.6 27.9174 18.6C28.2574 18.6 28.5191 18.4817 28.7024 18.245C28.8891 18.005 28.9824 17.6483 28.9824 17.175C28.9824 16.7017 28.8891 16.3467 28.7024 16.11ZM29.1024 18.555C28.8124 18.885 28.4174 19.05 27.9174 19.05C27.4174 19.05 27.0207 18.885 26.7274 18.555C26.4374 18.225 26.2924 17.765 26.2924 17.175C26.2924 16.585 26.4374 16.125 26.7274 15.795C27.0207 15.465 27.4174 15.3 27.9174 15.3C28.4174 15.3 28.8124 15.465 29.1024 15.795C29.3957 16.125 29.5424 16.585 29.5424 17.175C29.5424 17.765 29.3957 18.225 29.1024 18.555ZM30.5456 19C30.4689 19 30.4022 18.9717 30.3456 18.915C30.2889 18.8583 30.2606 18.7917 30.2606 18.715V15.635C30.2606 15.5583 30.2889 15.4917 30.3456 15.435C30.4022 15.3783 30.4689 15.35 30.5456 15.35H30.5756C30.6522 15.35 30.7189 15.3783 30.7756 15.435C30.8322 15.4917 30.8606 15.5583 30.8606 15.635V18.715C30.8606 18.7917 30.8322 18.8583 30.7756 18.915C30.7189 18.9717 30.6522 19 30.5756 19H30.5456ZM33.2555 19.05C32.7488 19.05 32.3422 18.8867 32.0355 18.56C31.7322 18.2333 31.5805 17.7717 31.5805 17.175C31.5805 16.585 31.7272 16.125 32.0205 15.795C32.3172 15.465 32.7288 15.3 33.2555 15.3C33.4822 15.3 33.6888 15.3167 33.8755 15.35C33.9422 15.3633 33.9972 15.3983 34.0405 15.455C34.0838 15.5083 34.1055 15.57 34.1055 15.64C34.1055 15.7 34.0805 15.7483 34.0305 15.785C33.9838 15.8183 33.9322 15.8267 33.8755 15.81C33.7188 15.77 33.5288 15.75 33.3055 15.75C32.9455 15.75 32.6605 15.875 32.4505 16.125C32.2438 16.3717 32.1405 16.7217 32.1405 17.175C32.1405 17.6283 32.2472 17.98 32.4605 18.23C32.6738 18.4767 32.9555 18.6 33.3055 18.6C33.5255 18.6 33.7238 18.5783 33.9005 18.535C33.9572 18.5183 34.0088 18.5283 34.0555 18.565C34.1055 18.6017 34.1305 18.65 34.1305 18.71C34.1305 18.78 34.1088 18.8433 34.0655 18.9C34.0222 18.9533 33.9655 18.9867 33.8955 19C33.6988 19.0333 33.4855 19.05 33.2555 19.05ZM35.2106 19C35.1339 19 35.0673 18.9717 35.0106 18.915C34.9539 18.8583 34.9256 18.7917 34.9256 18.715V15.635C34.9256 15.5583 34.9539 15.4917 35.0106 15.435C35.0673 15.3783 35.1339 15.35 35.2106 15.35H36.9006C36.9639 15.35 37.0173 15.3717 37.0606 15.415C37.1039 15.4583 37.1256 15.5117 37.1256 15.575C37.1256 15.6383 37.1039 15.6917 37.0606 15.735C37.0173 15.7783 36.9639 15.8 36.9006 15.8H35.5206C35.4906 15.8 35.4756 15.8133 35.4756 15.84V16.795C35.4756 16.825 35.4906 16.84 35.5206 16.84H36.8106C36.8706 16.84 36.9206 16.8617 36.9606 16.905C37.0039 16.945 37.0256 16.995 37.0256 17.055C37.0256 17.115 37.0039 17.1667 36.9606 17.21C36.9206 17.25 36.8706 17.27 36.8106 17.27H35.5206C35.4906 17.27 35.4756 17.285 35.4756 17.315V18.505C35.4756 18.535 35.4906 18.55 35.5206 18.55H36.9006C36.9639 18.55 37.0173 18.5717 37.0606 18.615C37.1039 18.6583 37.1256 18.7117 37.1256 18.775C37.1256 18.8383 37.1039 18.8917 37.0606 18.935C37.0173 18.9783 36.9639 19 36.9006 19H35.2106Z" fill="#DA291C"/>
<path d="M28 8H14.1728C14.1728 16.2305 14.1728 34.1728 14.1728 40.0988C14.1728 46.0247 19.4403 47.8354 22.0741 48H41.8272V8H34.9136" stroke="#141416" stroke-width="1.5" stroke-linecap="round"/>
</svg>
