<svg width="60" height="60" viewBox="0 0 60 60" fill="none" xmlns="http://www.w3.org/2000/svg">
<g clip-path="url(#clip0_3011_68767)">
<path d="M49.3825 0C44.8047 0 41.0938 3.71098 41.0938 8.28879V24.7495H56.4995V7.11691C56.4995 3.18633 53.3131 0 49.3825 0Z" fill="#75787C"/>
<path d="M42.2676 7.11691C42.2676 3.18633 45.4539 0 49.3845 0H12.2828C7.43781 0 3.49609 3.94172 3.49609 8.78672V58.2105C3.49609 59.7961 5.43227 60.5657 6.52352 59.4263L8.77211 57.0779L11.1476 59.4534C11.834 60.1398 12.9469 60.1398 13.6333 59.4537L15.8843 57.2033L18.1595 59.4588C18.845 60.1383 19.9496 60.1382 20.6348 59.4588L22.9445 57.1688L25.2554 59.4591C25.9401 60.1377 27.0439 60.1382 27.7291 59.46L29.9555 57.257L32.1761 59.4587C32.8614 60.1381 33.9661 60.1382 34.6514 59.4588L36.9612 57.1688L39.272 59.4591C40.3797 60.5565 42.2672 59.7691 42.2672 58.2105C42.2676 55.776 42.2676 8.64316 42.2676 7.11691Z" fill="#C1C8D1"/>
<path d="M49.3852 0C45.4547 0 42.2684 3.18633 42.2684 7.1168V58.2105C42.2684 59.7691 40.3805 60.5566 39.273 59.4586L36.9621 57.1688L34.6523 59.4586C33.9668 60.1383 32.8629 60.1383 32.1773 59.4586L29.9566 57.2566L27.7301 59.4598C27.0445 60.1383 25.9406 60.1383 25.2563 59.4586L22.9453 57.1688V0H49.3852Z" fill="#A8B0BC"/>
<path d="M26.0743 16.0012C24.3926 14.6906 22.1982 14.4872 21.7081 13.6024C21.5352 13.2901 21.7195 12.7758 22.0949 12.5234C22.629 12.1642 23.7717 12.3057 24.1732 12.6761C24.8869 13.3344 25.999 13.2893 26.6571 12.5757C27.3153 11.8621 27.2703 10.75 26.5568 10.0918C26.0107 9.58816 25.318 9.22875 24.5692 9.01898V8.87402C24.5692 7.90324 23.7821 7.11621 22.8113 7.11621C21.8406 7.11621 21.0535 7.90324 21.0535 8.87402V9.13664C18.4985 10.0941 17.401 13.0819 18.6328 15.3059C19.9333 17.6537 22.6574 17.7954 23.9134 18.7743C25.0043 19.6245 24.3574 20.7555 23.5475 21.1366C22.8217 21.4781 21.3622 21.2671 20.4859 20.6938C19.6735 20.1625 18.5839 20.3902 18.0526 21.2025C17.5212 22.015 17.749 23.1043 18.5613 23.6358C19.2443 24.0826 20.1176 24.443 21.0537 24.6436V24.8672C21.0537 25.838 21.8407 26.625 22.8115 26.625C23.7822 26.625 24.5693 25.838 24.5693 24.8672V24.5085C28.1333 23.2737 29.4108 18.6012 26.0743 16.0012Z" fill="white"/>
<path d="M24.5684 24.509V24.8676C24.5684 25.7922 23.8535 26.5516 22.9453 26.6195V21.2863C24.2518 21.1657 25.1099 19.7079 23.9133 18.7738C23.6473 18.5664 23.3156 18.3965 22.9453 18.2359V14.4414C23.8477 14.8199 25.0547 15.2078 26.0742 16.0012C29.4105 18.6016 28.1332 23.2738 24.5684 24.509Z" fill="#EDEFF3"/>
<path d="M24.1723 12.6746C23.932 12.4531 23.427 12.3137 22.9453 12.3148V7.12109C23.8535 7.18906 24.5684 7.94844 24.5684 8.87305V9.01836C25.3172 9.22812 26.0098 9.58672 26.5559 10.0906C27.2695 10.7492 27.3152 11.8613 26.6566 12.575C25.998 13.2887 24.8859 13.3332 24.1723 12.6746Z" fill="#EDEFF3"/>
<path d="M12.3945 33.5254H21.1836C22.1544 33.5254 22.9414 32.7384 22.9414 31.7676C22.9414 30.7968 22.1544 30.0098 21.1836 30.0098H12.3945C11.4237 30.0098 10.6367 30.7968 10.6367 31.7676C10.6367 32.7384 11.4237 33.5254 12.3945 33.5254Z" fill="white"/>
<path d="M21.1816 37.0527H12.3867C11.4159 37.0527 10.6289 37.8398 10.6289 38.8105C10.6289 39.7813 11.4159 40.5684 12.3867 40.5684H21.1816C22.1524 40.5684 22.9395 39.7813 22.9395 38.8105C22.9395 37.8398 22.1524 37.0527 21.1816 37.0527Z" fill="white"/>
<path d="M21.1836 44.0723H12.3828C11.412 44.0723 10.625 44.8593 10.625 45.8301C10.625 46.8009 11.412 47.5879 12.3828 47.5879H21.1836C22.1544 47.5879 22.9414 46.8009 22.9414 45.8301C22.9414 44.8593 22.1544 44.0723 21.1836 44.0723Z" fill="white"/>
<path d="M38.6183 30.0158L27.5461 49.1932C25.9944 51.8809 27.9341 55.2405 31.0375 55.2405H53.1816C56.2851 55.2405 58.2248 51.8809 56.673 49.1932L45.6009 30.0158C44.0493 27.3281 40.17 27.3281 38.6183 30.0158L27.5461 49.1932C25.9944 51.8809 27.9341 55.2405 31.0375 55.2405H53.1816C56.2851 55.2405 58.2248 51.8809 56.673 49.1932L45.6009 30.0158C44.0493 27.3281 40.17 27.3281 38.6183 30.0158Z" fill="#FF8881"/>
<path d="M56.6732 49.1931L45.6011 30.0157C44.4378 28.0009 41.9666 27.4966 40.1484 28.5025C40.7556 28.8386 41.2901 29.3429 41.6786 30.0157L52.7507 49.1931C54.3025 51.8808 52.3628 55.2404 49.2593 55.2404H53.1818C56.2853 55.2404 58.2249 51.8808 56.6732 49.1931Z" fill="#F76854"/>
<path d="M42.3154 51.3486C43.6266 51.3486 44.6894 50.2857 44.6894 48.9746C44.6894 47.6635 43.6266 46.6006 42.3154 46.6006C41.0043 46.6006 39.9414 47.6635 39.9414 48.9746C39.9414 50.2857 41.0043 51.3486 42.3154 51.3486Z" fill="#EDF5FA"/>
<path d="M42.7675 43.3003H41.8655C41.1199 43.3003 40.5156 42.696 40.5156 41.9505V36.9553C40.5156 36.2098 41.1199 35.6055 41.8655 35.6055H42.7675C43.5131 35.6055 44.1174 36.2098 44.1174 36.9553V41.9505C44.1174 42.696 43.5131 43.3003 42.7675 43.3003Z" fill="#EDF5FA"/>
</g>
<defs>
<clipPath id="clip0_3011_68767">
<rect width="60" height="60" fill="white"/>
</clipPath>
</defs>
</svg>
