<svg width="56" height="56" viewBox="0 0 56 56" fill="none" xmlns="http://www.w3.org/2000/svg">
<g clip-path="url(#clip0_1046_96832)">
<path d="M49.0875 37.0063V36.9062V35.5938C49.0875 34.1633 48.9429 32.7328 48.6592 31.3434M49.0875 37.0063L48.7572 31.3234M49.0875 37.0063H49.1875M49.0875 37.0063H49.1875M48.6592 31.3434L48.7572 31.3234M48.6592 31.3434C48.6592 31.3435 48.6592 31.3435 48.6592 31.3435L48.7572 31.3234M48.6592 31.3434C48.382 29.9896 47.9688 28.6582 47.4304 27.3856M48.7572 31.3234C48.4787 29.9631 48.0634 28.6253 47.5225 27.3466M47.4304 27.3856L47.5225 27.3466M47.4304 27.3856C46.9013 26.1362 46.2472 24.9306 45.4858 23.8035L45.4858 23.8034C44.7319 22.6866 43.8651 21.6368 42.9114 20.6822C41.9569 19.7286 40.9071 18.8618 39.7902 18.1079L39.7902 18.1079C38.6631 17.3465 37.4575 16.6924 36.2081 16.1633C34.9355 15.625 33.604 15.2116 32.2502 14.9345C31.8599 14.8548 31.4658 14.7873 31.0694 14.7296L30.9073 14.706L31.0024 14.5726C31.4101 14.0006 31.65 13.3006 31.65 12.5312C31.65 10.5187 30.0125 8.88125 28 8.88125C25.9875 8.88125 24.35 10.5187 24.35 12.5312C24.35 13.301 24.5901 14.0013 24.9982 14.5734L25.0933 14.7068L24.9312 14.7304C24.2277 14.833 23.5307 14.9689 22.8438 15.1417L22.8437 15.1417C21.2156 15.5503 19.6359 16.1568 18.1496 16.9434C16.6893 17.7169 15.3177 18.6631 14.0739 19.7576C12.8356 20.8484 11.7243 22.0838 10.7735 23.4284L10.7734 23.4286C10.6436 23.6111 10.5933 23.8336 10.6311 24.0541C10.6688 24.2745 10.79 24.4668 10.9727 24.5958L10.973 24.596C11.1153 24.6973 11.2824 24.75 11.4559 24.75C11.7282 24.75 11.9836 24.6176 12.1402 24.3958L12.1403 24.3957C15.7805 19.2524 21.7097 16.1813 28 16.1813C33.1837 16.1813 38.0588 18.2009 41.7263 21.8674L41.6556 21.9381M47.4304 27.3856C47.4304 27.3855 47.4304 27.3855 47.4304 27.3855L47.5225 27.3466M47.5225 27.3466L41.6556 21.9381M41.6556 21.9381L41.7263 21.8674C45.3928 25.5349 47.4116 30.41 47.4125 35.5938V36.9062V37.0063H47.3125H8.6875H8.5875V36.9062V35.5938C8.5875 34.3057 8.7147 33.0175 8.96443 31.7661L8.96449 31.7658C9.00884 31.5465 8.9647 31.3242 8.84058 31.1371C8.7155 30.9508 8.52737 30.8247 8.30803 30.7812L8.30644 30.7809C8.25347 30.7695 8.19783 30.7644 8.14187 30.7644C7.74527 30.7644 7.4 31.0475 7.32213 31.4377L7.32213 31.4377C7.05061 32.7972 6.9125 34.1959 6.9125 35.5938V36.9062V37.0063H6.8125C5.31692 37.0063 4.1 38.2232 4.1 39.7188C4.1 41.2143 5.31692 42.4313 6.8125 42.4313H7.21919H7.27581L7.30494 42.4798L8.47887 44.4364C9.47152 46.0907 11.2872 47.1188 13.2166 47.1188H42.7834C44.7128 47.1188 46.5285 46.0907 47.5211 44.4364L48.6951 42.4798L48.7242 42.4313H48.7808H49.1875C50.6831 42.4313 51.9 41.2143 51.9 39.7188C51.9 38.2232 50.6831 37.0063 49.1875 37.0063M41.6556 21.9381L49.1875 37.0063M9.40581 42.4313H9.22919L9.32006 42.5827L9.91519 43.5746L10.0009 43.5231L9.91519 43.5746C10.6071 44.7277 11.8717 45.4437 13.2166 45.4437H42.7834C44.1282 45.4437 45.393 44.7277 46.0848 43.5746L46.6799 42.5827L46.7708 42.4313H46.5942H9.40581ZM28 10.5562C26.9109 10.5562 26.025 11.4421 26.025 12.5312C26.025 13.6204 26.9109 14.5062 28 14.5062C29.0891 14.5062 29.975 13.6204 29.975 12.5312C29.975 11.4421 29.0891 10.5562 28 10.5562ZM6.8125 40.7563H49.1875C49.7597 40.7563 50.225 40.2909 50.225 39.7188C50.225 39.1466 49.7597 38.6812 49.1875 38.6812H6.8125C6.24033 38.6812 5.775 39.1466 5.775 39.7188C5.775 40.2909 6.24033 40.7563 6.8125 40.7563Z" fill="black" stroke="white" stroke-width="0.2"/>
<path d="M16.1808 33.8496C16.0734 33.8496 15.9801 33.8099 15.9008 33.7306C15.8261 33.6513 15.7888 33.5579 15.7888 33.4506V29.1386C15.7888 29.0313 15.8261 28.9379 15.9008 28.8586C15.9801 28.7793 16.0734 28.7396 16.1808 28.7396H16.3698C16.4771 28.7396 16.5704 28.7793 16.6498 28.8586C16.7291 28.9379 16.7688 29.0313 16.7688 29.1386V30.9516C16.7688 30.9563 16.7711 30.9586 16.7758 30.9586C16.7804 30.9586 16.7828 30.9563 16.7828 30.9516L18.1898 29.0616C18.3438 28.8469 18.5538 28.7396 18.8198 28.7396H19.1698C19.2491 28.7396 19.3074 28.7769 19.3448 28.8516C19.3821 28.9263 19.3751 28.9939 19.3238 29.0546L17.7138 31.1406C17.6904 31.1733 17.6904 31.2059 17.7138 31.2386L19.4008 33.5276C19.4521 33.5929 19.4591 33.6629 19.4218 33.7376C19.3844 33.8123 19.3238 33.8496 19.2398 33.8496H18.8898C18.6238 33.8496 18.4161 33.7423 18.2668 33.5276L16.7828 31.4276C16.7828 31.4229 16.7804 31.4206 16.7758 31.4206C16.7711 31.4206 16.7688 31.4229 16.7688 31.4276V33.4506C16.7688 33.5579 16.7291 33.6513 16.6498 33.7306C16.5704 33.8099 16.4771 33.8496 16.3698 33.8496H16.1808ZM20.6669 33.8496C20.5596 33.8496 20.4663 33.8099 20.3869 33.7306C20.3076 33.6513 20.2679 33.5579 20.2679 33.4506V33.0586C20.2679 32.9513 20.3076 32.8579 20.3869 32.7786C20.4663 32.6993 20.5596 32.6596 20.6669 32.6596H20.9889C21.0963 32.6596 21.1896 32.6993 21.2689 32.7786C21.3483 32.8579 21.3879 32.9513 21.3879 33.0586V33.4506C21.3879 33.5579 21.3483 33.6513 21.2689 33.7306C21.1896 33.8099 21.0963 33.8496 20.9889 33.8496H20.6669ZM22.9552 33.8496C22.8478 33.8496 22.7545 33.8099 22.6752 33.7306C22.6005 33.6513 22.5632 33.5579 22.5632 33.4506V29.1386C22.5632 29.0313 22.6005 28.9379 22.6752 28.8586C22.7545 28.7793 22.8478 28.7396 22.9552 28.7396H25.2652C25.3725 28.7396 25.4658 28.7793 25.5452 28.8586C25.6245 28.9379 25.6642 29.0313 25.6642 29.1386C25.6642 29.2459 25.6245 29.3393 25.5452 29.4186C25.4658 29.4933 25.3725 29.5306 25.2652 29.5306H23.5992C23.5618 29.5306 23.5432 29.5516 23.5432 29.5936V30.8186C23.5432 30.8559 23.5618 30.8746 23.5992 30.8746H25.1462C25.2488 30.8746 25.3375 30.9119 25.4122 30.9866C25.4868 31.0566 25.5242 31.1453 25.5242 31.2526C25.5242 31.3599 25.4868 31.4509 25.4122 31.5256C25.3375 31.5956 25.2488 31.6306 25.1462 31.6306H23.5992C23.5618 31.6306 23.5432 31.6493 23.5432 31.6866V33.4506C23.5432 33.5579 23.5035 33.6513 23.4242 33.7306C23.3448 33.8099 23.2515 33.8496 23.1442 33.8496H22.9552ZM29.9424 31.2946C29.9424 30.0813 29.499 29.4746 28.6124 29.4746C27.7257 29.4746 27.2824 30.0813 27.2824 31.2946C27.2824 32.5079 27.7257 33.1146 28.6124 33.1146C29.499 33.1146 29.9424 32.5079 29.9424 31.2946ZM30.3134 33.2266C29.898 33.6886 29.331 33.9196 28.6124 33.9196C27.8937 33.9196 27.3244 33.6886 26.9044 33.2266C26.489 32.7646 26.2814 32.1206 26.2814 31.2946C26.2814 30.4686 26.489 29.8246 26.9044 29.3626C27.3244 28.9006 27.8937 28.6696 28.6124 28.6696C29.331 28.6696 29.898 28.9006 30.3134 29.3626C30.7334 29.8246 30.9434 30.4686 30.9434 31.2946C30.9434 32.1206 30.7334 32.7646 30.3134 33.2266ZM35.1514 31.2946C35.1514 30.0813 34.708 29.4746 33.8214 29.4746C32.9347 29.4746 32.4914 30.0813 32.4914 31.2946C32.4914 32.5079 32.9347 33.1146 33.8214 33.1146C34.708 33.1146 35.1514 32.5079 35.1514 31.2946ZM35.5224 33.2266C35.107 33.6886 34.54 33.9196 33.8214 33.9196C33.1027 33.9196 32.5334 33.6886 32.1134 33.2266C31.698 32.7646 31.4904 32.1206 31.4904 31.2946C31.4904 30.4686 31.698 29.8246 32.1134 29.3626C32.5334 28.9006 33.1027 28.6696 33.8214 28.6696C34.54 28.6696 35.107 28.9006 35.5224 29.3626C35.9424 29.8246 36.1524 30.4686 36.1524 31.2946C36.1524 32.1206 35.9424 32.7646 35.5224 33.2266ZM37.919 29.5516V33.0376C37.919 33.0703 37.9377 33.0913 37.975 33.1006C38.1243 33.1239 38.2643 33.1356 38.395 33.1356C38.941 33.1356 39.3423 32.9886 39.599 32.6946C39.8557 32.3959 39.984 31.9059 39.984 31.2246C39.984 30.6133 39.8533 30.1653 39.592 29.8806C39.3307 29.5959 38.9317 29.4536 38.395 29.4536C38.2643 29.4536 38.1243 29.4653 37.975 29.4886C37.9377 29.4979 37.919 29.5189 37.919 29.5516ZM37.345 33.8706C37.2283 33.8566 37.1327 33.8076 37.058 33.7236C36.9833 33.6349 36.946 33.5323 36.946 33.4156V29.1736C36.946 29.0569 36.9833 28.9566 37.058 28.8726C37.1327 28.7839 37.2283 28.7326 37.345 28.7186C37.6437 28.6859 37.9773 28.6696 38.346 28.6696C39.1767 28.6696 39.8113 28.8866 40.25 29.3206C40.6933 29.7546 40.915 30.3893 40.915 31.2246C40.915 32.1206 40.6933 32.7949 40.25 33.2476C39.8113 33.6956 39.1767 33.9196 38.346 33.9196C37.9773 33.9196 37.6437 33.9033 37.345 33.8706Z" fill="#DA291C"/>
</g>
<defs>
<clipPath id="clip0_1046_96832">
<rect width="48" height="48" fill="white" transform="translate(4 4)"/>
</clipPath>
</defs>
</svg>
