<svg width="28" height="28" viewBox="0 0 28 28" fill="none" xmlns="http://www.w3.org/2000/svg">
<path d="M19.0679 16.96C18.9726 16.9605 18.8801 16.9261 18.8072 16.8631L15.7724 14.3365C15.7247 14.2958 15.6863 14.2448 15.6599 14.1871C15.6335 14.1295 15.6199 14.0665 15.6198 14.0028V7.01613C15.6198 6.90269 15.6637 6.79388 15.7417 6.71366C15.8198 6.63345 15.9256 6.58838 16.0359 6.58838C16.1463 6.58838 16.2521 6.63345 16.3302 6.71366C16.4082 6.79388 16.452 6.90269 16.452 7.01613V13.8003L19.3314 16.1986C19.3999 16.2549 19.4494 16.3321 19.4727 16.419C19.496 16.5059 19.4919 16.5982 19.4612 16.6827C19.4304 16.7671 19.3745 16.8394 19.3014 16.8892C19.2282 16.939 19.1417 16.9638 19.054 16.96H19.0679Z" fill="white"/>
<path d="M11.8585 18.6739H7.21764C7.10729 18.6739 7.00145 18.6288 6.92342 18.5486C6.84539 18.4684 6.80155 18.3596 6.80155 18.2461C6.80155 18.1327 6.84539 18.0239 6.92342 17.9437C7.00145 17.8635 7.10729 17.8184 7.21764 17.8184H11.8585C11.9689 17.8184 12.0747 17.8635 12.1528 17.9437C12.2308 18.0239 12.2746 18.1327 12.2746 18.2461C12.2746 18.3596 12.2308 18.4684 12.1528 18.5486C12.0747 18.6288 11.9689 18.6739 11.8585 18.6739Z" fill="white"/>
<path d="M9.97487 14.0834H2.1661C2.05574 14.0834 1.94991 14.0383 1.87187 13.9581C1.79384 13.8779 1.75 13.7691 1.75 13.6556C1.75 13.5422 1.79384 13.4334 1.87187 13.3532C1.94991 13.2729 2.05574 13.2279 2.1661 13.2279H9.97487C10.0852 13.2279 10.1911 13.2729 10.2691 13.3532C10.3471 13.4334 10.391 13.5422 10.391 13.6556C10.391 13.7691 10.3471 13.8779 10.2691 13.9581C10.1911 14.0383 10.0852 14.0834 9.97487 14.0834Z" fill="white"/>
<path d="M7.65131 8.94415H3.01043C2.90008 8.94415 2.79424 8.89908 2.71621 8.81886C2.63817 8.73864 2.59433 8.62984 2.59433 8.5164C2.59433 8.40295 2.63817 8.29415 2.71621 8.21393C2.79424 8.13371 2.90008 8.08864 3.01043 8.08864H7.65131C7.76167 8.08864 7.8675 8.13371 7.94554 8.21393C8.02357 8.29415 8.06741 8.40295 8.06741 8.5164C8.06741 8.62984 8.02357 8.73864 7.94554 8.81886C7.8675 8.89908 7.76167 8.94415 7.65131 8.94415Z" fill="white"/>
<path d="M16.0359 22.1317C15.9256 22.1317 15.8198 22.0866 15.7417 22.0064C15.6637 21.9262 15.6198 21.8174 15.6198 21.7039V21.6184C15.6198 21.5049 15.6637 21.3961 15.7417 21.3159C15.8198 21.2357 15.9256 21.1906 16.0359 21.1906C16.1463 21.1906 16.2521 21.2357 16.3302 21.3159C16.4082 21.3961 16.452 21.5049 16.452 21.6184V21.7039C16.452 21.8174 16.4082 21.9262 16.3302 22.0064C16.2521 22.0866 16.1463 22.1317 16.0359 22.1317Z" fill="white"/>
<path d="M23.7866 14.4316H23.7034C23.5931 14.4316 23.4872 14.3865 23.4092 14.3063C23.3312 14.2261 23.2873 14.1173 23.2873 14.0038C23.2873 13.8904 23.3312 13.7816 23.4092 13.7014C23.4872 13.6212 23.5931 13.5761 23.7034 13.5761H23.7866C23.897 13.5761 24.0028 13.6212 24.0809 13.7014C24.1589 13.7816 24.2027 13.8904 24.2027 14.0038C24.2027 14.1173 24.1589 14.2261 24.0809 14.3063C24.0028 14.3865 23.897 14.4316 23.7866 14.4316Z" fill="white"/>
<path d="M16.036 24.4999C14.6636 24.5049 13.3046 24.2231 12.0414 23.6716C10.7782 23.1201 9.63721 22.3104 8.68771 21.2918C8.62439 21.2081 8.59356 21.1032 8.60118 20.9975C8.60881 20.8918 8.65435 20.7927 8.72897 20.7196C8.80359 20.6464 8.90199 20.6044 9.00507 20.6015C9.10815 20.5987 9.20858 20.6353 9.28689 20.7043C10.1591 21.6393 11.2072 22.3822 12.3674 22.8876C13.5277 23.393 14.7759 23.6505 16.036 23.6444C17.7076 23.6439 19.3488 23.1842 20.7895 22.3127C22.2303 21.4412 23.4183 20.1897 24.2305 18.6878C25.0428 17.1858 25.4498 15.488 25.4095 13.77C25.3691 12.052 24.8828 10.3764 24.001 8.91648C23.1191 7.45659 21.8737 6.26552 20.3937 5.46658C18.9137 4.66763 17.2529 4.28985 15.5832 4.37233C13.9135 4.45481 12.2956 4.99456 10.8969 5.9357C9.49824 6.87684 8.36968 8.18518 7.62804 9.72527C7.57875 9.82699 7.49217 9.90442 7.38734 9.94052C7.28252 9.97662 7.16804 9.96843 7.06909 9.91776C6.97013 9.86708 6.89482 9.77808 6.8597 9.67031C6.82459 9.56255 6.83255 9.44486 6.88184 9.34314C7.68932 7.66562 8.91831 6.24047 10.4415 5.21526C11.9648 4.19006 13.7269 3.60205 15.5455 3.51213C17.364 3.42221 19.1729 3.83364 20.7848 4.70382C22.3968 5.57401 23.7531 6.87132 24.7135 8.46142C25.6739 10.0515 26.2033 11.8766 26.2471 13.7478C26.2908 15.6189 25.8472 17.468 24.9622 19.1037C24.0772 20.7394 22.7831 22.1022 21.2136 23.0509C19.6442 23.9997 17.8567 24.5 16.036 24.4999Z" fill="white"/>
<path d="M4.87089 18.6739H4.11359C4.00324 18.6739 3.8974 18.6288 3.81937 18.5486C3.74133 18.4684 3.69749 18.3596 3.69749 18.2461C3.69749 18.1327 3.74133 18.0239 3.81937 17.9437C3.8974 17.8635 4.00324 17.8184 4.11359 17.8184H4.87089C4.98125 17.8184 5.08708 17.8635 5.16512 17.9437C5.24315 18.0239 5.28699 18.1327 5.28699 18.2461C5.28699 18.3596 5.24315 18.4684 5.16512 18.5486C5.08708 18.6288 4.98125 18.6739 4.87089 18.6739Z" fill="white"/>
<path d="M19.0679 16.96C18.9726 16.9605 18.8801 16.9261 18.8072 16.8631L15.7724 14.3365C15.7247 14.2958 15.6863 14.2448 15.6599 14.1871C15.6335 14.1295 15.6199 14.0665 15.6198 14.0028V7.01613C15.6198 6.90269 15.6637 6.79388 15.7417 6.71366C15.8198 6.63345 15.9256 6.58838 16.0359 6.58838C16.1463 6.58838 16.2521 6.63345 16.3302 6.71366C16.4082 6.79388 16.452 6.90269 16.452 7.01613V13.8003L19.3314 16.1986C19.3999 16.2549 19.4494 16.3321 19.4727 16.419C19.496 16.5059 19.4919 16.5982 19.4612 16.6827C19.4304 16.7671 19.3745 16.8394 19.3014 16.8892C19.2282 16.939 19.1417 16.9638 19.054 16.96H19.0679Z" stroke="white" stroke-width="0.8"/>
<path d="M11.8585 18.6739H7.21764C7.10729 18.6739 7.00145 18.6288 6.92342 18.5486C6.84539 18.4684 6.80155 18.3596 6.80155 18.2461C6.80155 18.1327 6.84539 18.0239 6.92342 17.9437C7.00145 17.8635 7.10729 17.8184 7.21764 17.8184H11.8585C11.9689 17.8184 12.0747 17.8635 12.1528 17.9437C12.2308 18.0239 12.2746 18.1327 12.2746 18.2461C12.2746 18.3596 12.2308 18.4684 12.1528 18.5486C12.0747 18.6288 11.9689 18.6739 11.8585 18.6739Z" stroke="white" stroke-width="0.8"/>
<path d="M9.97487 14.0834H2.1661C2.05574 14.0834 1.94991 14.0383 1.87187 13.9581C1.79384 13.8779 1.75 13.7691 1.75 13.6556C1.75 13.5422 1.79384 13.4334 1.87187 13.3532C1.94991 13.2729 2.05574 13.2279 2.1661 13.2279H9.97487C10.0852 13.2279 10.1911 13.2729 10.2691 13.3532C10.3471 13.4334 10.391 13.5422 10.391 13.6556C10.391 13.7691 10.3471 13.8779 10.2691 13.9581C10.1911 14.0383 10.0852 14.0834 9.97487 14.0834Z" stroke="white" stroke-width="0.8"/>
<path d="M7.65131 8.94415H3.01043C2.90008 8.94415 2.79424 8.89908 2.71621 8.81886C2.63817 8.73864 2.59433 8.62984 2.59433 8.5164C2.59433 8.40295 2.63817 8.29415 2.71621 8.21393C2.79424 8.13371 2.90008 8.08864 3.01043 8.08864H7.65131C7.76167 8.08864 7.8675 8.13371 7.94554 8.21393C8.02357 8.29415 8.06741 8.40295 8.06741 8.5164C8.06741 8.62984 8.02357 8.73864 7.94554 8.81886C7.8675 8.89908 7.76167 8.94415 7.65131 8.94415Z" stroke="white" stroke-width="0.8"/>
<path d="M16.0359 22.1317C15.9256 22.1317 15.8198 22.0866 15.7417 22.0064C15.6637 21.9262 15.6198 21.8174 15.6198 21.7039V21.6184C15.6198 21.5049 15.6637 21.3961 15.7417 21.3159C15.8198 21.2357 15.9256 21.1906 16.0359 21.1906C16.1463 21.1906 16.2521 21.2357 16.3302 21.3159C16.4082 21.3961 16.452 21.5049 16.452 21.6184V21.7039C16.452 21.8174 16.4082 21.9262 16.3302 22.0064C16.2521 22.0866 16.1463 22.1317 16.0359 22.1317Z" stroke="white" stroke-width="0.8"/>
<path d="M23.7866 14.4316H23.7034C23.5931 14.4316 23.4872 14.3865 23.4092 14.3063C23.3312 14.2261 23.2873 14.1173 23.2873 14.0038C23.2873 13.8904 23.3312 13.7816 23.4092 13.7014C23.4872 13.6212 23.5931 13.5761 23.7034 13.5761H23.7866C23.897 13.5761 24.0028 13.6212 24.0809 13.7014C24.1589 13.7816 24.2027 13.8904 24.2027 14.0038C24.2027 14.1173 24.1589 14.2261 24.0809 14.3063C24.0028 14.3865 23.897 14.4316 23.7866 14.4316Z" stroke="white" stroke-width="0.8"/>
<path d="M16.036 24.4999C14.6636 24.5049 13.3046 24.2231 12.0414 23.6716C10.7782 23.1201 9.63721 22.3104 8.68771 21.2918C8.62439 21.2081 8.59356 21.1032 8.60118 20.9975C8.60881 20.8918 8.65435 20.7927 8.72897 20.7196C8.80359 20.6464 8.90199 20.6044 9.00507 20.6015C9.10815 20.5987 9.20858 20.6353 9.28689 20.7043C10.1591 21.6393 11.2072 22.3822 12.3674 22.8876C13.5277 23.393 14.7759 23.6505 16.036 23.6444C17.7076 23.6439 19.3488 23.1842 20.7895 22.3127C22.2303 21.4412 23.4183 20.1897 24.2305 18.6878C25.0428 17.1858 25.4498 15.488 25.4095 13.77C25.3691 12.052 24.8828 10.3764 24.001 8.91648C23.1191 7.45659 21.8737 6.26552 20.3937 5.46658C18.9137 4.66763 17.2529 4.28985 15.5832 4.37233C13.9135 4.45481 12.2956 4.99456 10.8969 5.9357C9.49824 6.87684 8.36968 8.18518 7.62804 9.72527C7.57875 9.82699 7.49217 9.90442 7.38734 9.94052C7.28252 9.97662 7.16804 9.96843 7.06909 9.91776C6.97013 9.86708 6.89482 9.77808 6.8597 9.67031C6.82459 9.56255 6.83255 9.44486 6.88184 9.34314C7.68932 7.66562 8.91831 6.24047 10.4415 5.21526C11.9648 4.19006 13.7269 3.60205 15.5455 3.51213C17.364 3.42221 19.1729 3.83364 20.7848 4.70382C22.3968 5.57401 23.7531 6.87132 24.7135 8.46142C25.6739 10.0515 26.2033 11.8766 26.2471 13.7478C26.2908 15.6189 25.8472 17.468 24.9622 19.1037C24.0772 20.7394 22.7831 22.1022 21.2136 23.0509C19.6442 23.9997 17.8567 24.5 16.036 24.4999Z" stroke="white" stroke-width="0.8"/>
<path d="M4.87089 18.6739H4.11359C4.00324 18.6739 3.8974 18.6288 3.81937 18.5486C3.74133 18.4684 3.69749 18.3596 3.69749 18.2461C3.69749 18.1327 3.74133 18.0239 3.81937 17.9437C3.8974 17.8635 4.00324 17.8184 4.11359 17.8184H4.87089C4.98125 17.8184 5.08708 17.8635 5.16512 17.9437C5.24315 18.0239 5.28699 18.1327 5.28699 18.2461C5.28699 18.3596 5.24315 18.4684 5.16512 18.5486C5.08708 18.6288 4.98125 18.6739 4.87089 18.6739Z" stroke="white" stroke-width="0.8"/>
</svg>
