<svg width="49" height="48" viewBox="0 0 49 48" fill="none" xmlns="http://www.w3.org/2000/svg">
<g clip-path="url(#clip0_1778_98422)">
<path d="M46.4268 18.242L46.4151 17.6655L45.8405 17.6158C44.3822 17.4898 43.19 16.3946 42.9412 14.9523L42.8205 14.2525L42.1364 14.4434C41.7785 14.5433 41.41 14.5939 41.0411 14.5939C38.7993 14.5939 36.9754 12.77 36.9754 10.5282C36.9754 10.2589 37.0022 9.98839 37.0552 9.72421L37.1786 9.10869L36.5659 8.97192C35.1041 8.64564 34.0432 7.32045 34.0432 5.82094C34.0432 5.5463 34.0778 5.27334 34.1459 5.00984L34.3315 4.29189L33.5943 4.21148C33.0677 4.15411 32.5362 4.125 32.0143 4.125C25.2701 4.125 19.5936 8.78047 18.0276 15.0464C17.9008 15.0431 17.7739 15.0414 17.6464 15.0414C9.69748 15.0412 3.23047 21.5082 3.23047 29.4572C3.23047 37.4062 9.69747 43.8733 17.6465 43.8733C24.3908 43.8733 30.0673 39.2178 31.6333 32.9519C31.7599 32.9553 31.8869 32.957 32.0144 32.957C39.9635 32.957 46.4305 26.4899 46.4305 18.5409C46.4305 18.441 46.4288 18.3415 46.4268 18.242ZM17.6465 42.5901C10.405 42.5901 4.51364 36.6987 4.51364 29.4572C4.51364 22.2158 10.405 16.3244 17.6465 16.3244C24.888 16.3244 30.7794 22.2158 30.7794 29.4572C30.7794 36.6987 24.888 42.5901 17.6465 42.5901ZM32.0144 31.6738C31.9736 31.6738 31.9332 31.6726 31.8924 31.6723C32.0042 30.95 32.0626 30.2104 32.0626 29.4572C32.0626 22.0773 26.4882 15.9759 19.3291 15.1399C20.8313 9.54187 25.9489 5.40801 32.0144 5.40801C32.2667 5.40801 32.5215 5.41543 32.777 5.43037C32.7658 5.56005 32.7602 5.69041 32.7602 5.82094C32.7602 7.71482 33.9717 9.40974 35.7133 10.055C35.6994 10.2125 35.6924 10.3704 35.6924 10.5282C35.6924 13.4776 38.0919 15.8771 41.0413 15.8771C41.3079 15.8771 41.5743 15.857 41.8382 15.8172C42.3346 17.3219 43.5939 18.4621 45.1448 18.8046C45.004 25.9252 39.168 31.6738 32.0144 31.6738Z" fill="#23262F"/>
<path d="M27.9688 12C26.9005 12 26.0312 12.8691 26.0312 13.9375C26.0312 15.0059 26.9004 15.875 27.9688 15.875C29.0371 15.875 29.9063 15.0059 29.9063 13.9375C29.9063 12.8691 29.037 12 27.9688 12ZM27.9688 14.5918C27.608 14.5918 27.3144 14.2983 27.3144 13.9375C27.3144 13.5767 27.608 13.2832 27.9688 13.2832C28.3295 13.2832 28.6231 13.5767 28.6231 13.9375C28.6231 14.2983 28.3295 14.5918 27.9688 14.5918Z" fill="#23262F"/>
<path d="M24.3111 34.1992C23.2737 34.1992 22.4297 35.0432 22.4297 36.0806C22.4297 37.1181 23.2737 37.9621 24.3111 37.9621C25.3486 37.9621 26.1925 37.118 26.1925 36.0806C26.1925 35.0432 25.3486 34.1992 24.3111 34.1992ZM24.3111 36.716C23.9608 36.716 23.6757 36.4309 23.6757 36.0806C23.6757 35.7303 23.9608 35.4453 24.3111 35.4453C24.6615 35.4453 24.9465 35.7303 24.9465 36.0806C24.9465 36.4311 24.6615 36.716 24.3111 36.716Z" fill="#23262F"/>
<path d="M36.8311 15.5977C35.5069 15.5977 34.4297 16.675 34.4297 17.9991C34.4297 19.3233 35.507 20.4006 36.8311 20.4006C38.1553 20.4006 39.2326 19.3232 39.2326 17.9991C39.2326 16.675 38.1553 15.5977 36.8311 15.5977ZM36.8311 19.1174C36.2145 19.1174 35.7129 18.6158 35.7129 17.9991C35.7129 17.3825 36.2145 16.8808 36.8311 16.8808C37.4477 16.8808 37.9494 17.3824 37.9494 17.9991C37.9494 18.6158 37.4478 19.1174 36.8311 19.1174Z" fill="#23262F"/>
<path d="M19.5664 25.1992C18.4981 25.1992 17.6289 26.0684 17.6289 27.1367C17.6289 28.205 18.4981 29.0742 19.5664 29.0742C20.6348 29.0742 21.5039 28.2051 21.5039 27.1367C21.5039 26.0684 20.6348 25.1992 19.5664 25.1992ZM19.5664 27.7911C19.2056 27.7911 18.9121 27.4975 18.9121 27.1367C18.9121 26.7759 19.2056 26.4824 19.5664 26.4824C19.9272 26.4824 20.2207 26.776 20.2207 27.1367C20.2207 27.4974 19.9272 27.7911 19.5664 27.7911Z" fill="#23262F"/>
<path d="M8.78907 27.4219C7.72071 27.4219 6.85156 28.291 6.85156 29.3594C6.85156 30.4277 7.72079 31.2969 8.78907 31.2969C9.85734 31.2969 10.7266 30.4276 10.7266 29.3594C10.7265 28.291 9.85742 27.4219 8.78907 27.4219ZM8.78907 30.0137C8.42828 30.0137 8.13474 29.7201 8.13474 29.3594C8.13474 28.9986 8.42836 28.7051 8.78907 28.7051C9.14985 28.7051 9.44339 28.9986 9.44339 29.3594C9.44339 29.7202 9.14985 30.0137 8.78907 30.0137Z" fill="#23262F"/>
<path d="M26.5381 26.6836C25.2139 26.6837 24.1367 27.761 24.1367 29.0851C24.1367 30.4093 25.214 31.4865 26.5381 31.4865C27.8623 31.4865 28.9396 30.4092 28.9396 29.0851C28.9396 27.7609 27.8623 26.6836 26.5381 26.6836ZM26.5381 30.2033C25.9215 30.2033 25.4199 29.7017 25.4199 29.0851C25.4199 28.4685 25.9215 27.9668 26.5381 27.9668C27.1548 27.9669 27.6564 28.4685 27.6564 29.0851C27.6564 29.7017 27.1548 30.2033 26.5381 30.2033Z" fill="#23262F"/>
<path d="M15.2334 33.5977C13.9092 33.5977 12.832 34.675 12.832 35.9991C12.832 37.3233 13.9093 38.4005 15.2334 38.4005C16.5576 38.4005 17.6349 37.3232 17.6349 35.9991C17.635 34.6749 16.5576 33.5977 15.2334 33.5977ZM15.2334 37.1173C14.6168 37.1173 14.1152 36.6157 14.1152 35.9991C14.1152 35.3824 14.6168 34.8807 15.2334 34.8807C15.8501 34.8807 16.3517 35.3824 16.3517 35.9991C16.3518 36.6157 15.85 37.1173 15.2334 37.1173Z" fill="#23262F"/>
<path d="M34.8314 28.7934C36.7324 28.4057 40.7273 26.634 41.4986 22.6485" stroke="#23262F" stroke-width="1.2" stroke-linecap="round" stroke-linejoin="round"/>
<path d="M17.0762 19.3434C15.1364 19.307 10.8513 20.1645 9.22911 23.8857" stroke="#23262F" stroke-width="1.2" stroke-linecap="round" stroke-linejoin="round"/>
</g>
<defs>
<clipPath id="clip0_1778_98422">
<rect width="43.2" height="43.2" fill="white" transform="translate(3.23047 2.39844)"/>
</clipPath>
</defs>
</svg>
