<svg width="20" height="20" viewBox="0 0 20 20" fill="none" xmlns="http://www.w3.org/2000/svg">
<path d="M8.12412 15C7.95847 14.9977 7.79964 14.9336 7.67881 14.8203L3.30381 10.4453C3.20414 10.3239 3.15321 10.1697 3.16092 10.0128C3.16862 9.85587 3.23442 9.70744 3.3455 9.59636C3.45659 9.48527 3.60502 9.41948 3.76193 9.41177C3.91883 9.40407 4.073 9.455 4.19443 9.55466L8.12412 13.4922L16.4288 5.17966C16.5502 5.08 16.7044 5.02907 16.8613 5.03677C17.0182 5.04448 17.1667 5.11027 17.2777 5.22136C17.3888 5.33244 17.4546 5.48087 17.4623 5.63778C17.47 5.79469 17.4191 5.94885 17.3194 6.07029L8.56943 14.8203C8.44861 14.9336 8.28978 14.9977 8.12412 15Z" fill="#777E90"/>
</svg>
