<svg width="60" height="380" viewBox="0 0 60 380" fill="none" xmlns="http://www.w3.org/2000/svg">
<path d="M7.5 4.375V15.625" stroke="#DA291C" stroke-linecap="round" stroke-linejoin="round"/>
<path d="M1.87501 13.0625C1.87421 12.9186 1.92375 12.7789 2.01506 12.6676C2.10636 12.5563 2.23369 12.4805 2.37501 12.4531C2.93713 12.3338 3.44122 12.025 3.80291 11.5784C4.1646 11.1319 4.36196 10.5747 4.36196 10C4.36196 9.42534 4.1646 8.86812 3.80291 8.42157C3.44122 7.97502 2.93713 7.66623 2.37501 7.54687C2.23369 7.51955 2.10636 7.44368 2.01506 7.33241C1.92375 7.22113 1.87421 7.08144 1.87501 6.9375V5C1.87501 4.83424 1.94086 4.67527 2.05807 4.55806C2.17528 4.44085 2.33425 4.375 2.50001 4.375H17.5C17.6658 4.375 17.8247 4.44085 17.942 4.55806C18.0592 4.67527 18.125 4.83424 18.125 5V6.9375C18.1258 7.08144 18.0763 7.22113 17.985 7.33241C17.8937 7.44368 17.7663 7.51955 17.625 7.54687C17.0629 7.66623 16.5588 7.97502 16.1971 8.42157C15.8354 8.86812 15.6381 9.42534 15.6381 10C15.6381 10.5747 15.8354 11.1319 16.1971 11.5784C16.5588 12.025 17.0629 12.3338 17.625 12.4531C17.7663 12.4805 17.8937 12.5563 17.985 12.6676C18.0763 12.7789 18.1258 12.9186 18.125 13.0625V15C18.125 15.1658 18.0592 15.3247 17.942 15.4419C17.8247 15.5592 17.6658 15.625 17.5 15.625H2.50001C2.33425 15.625 2.17528 15.5592 2.05807 15.4419C1.94086 15.3247 1.87501 15.1658 1.87501 15V13.0625Z" stroke="#DA291C" stroke-linecap="round" stroke-linejoin="round"/>
<path d="M10.4466 56.5541L16.7748 50.2259C18.3295 48.6634 18.556 46.1088 17.0873 44.4759C16.7189 44.0645 16.2705 43.7324 15.7695 43.5001C15.2685 43.2677 14.7254 43.14 14.1734 43.1246C13.6213 43.1093 13.0719 43.2066 12.5588 43.4108C12.0456 43.6149 11.5795 43.9215 11.1888 44.3119L10.0013 45.5072L8.97789 44.4759C7.41539 42.9213 4.8607 42.6947 3.22789 44.1634C2.81641 44.5318 2.48436 44.9802 2.25202 45.4812C2.01968 45.9822 1.89193 46.5253 1.87657 47.0774C1.86122 47.6294 1.95858 48.1788 2.16271 48.6919C2.36685 49.2051 2.67346 49.6712 3.06383 50.0619L9.55602 56.5541C9.67451 56.6714 9.83455 56.7373 10.0013 56.7373C10.1681 56.7373 10.3281 56.6714 10.4466 56.5541V56.5541Z" stroke="#DA291C" stroke-linecap="round" stroke-linejoin="round"/>
<path d="M10 84.375C3.75 84.375 1.25 90 1.25 90C1.25 90 3.75 95.625 10 95.625C16.25 95.625 18.75 90 18.75 90C18.75 90 16.25 84.375 10 84.375Z" stroke="#DA291C" stroke-linecap="round" stroke-linejoin="round"/>
<path d="M10 93.125C11.7259 93.125 13.125 91.7259 13.125 90C13.125 88.2741 11.7259 86.875 10 86.875C8.27411 86.875 6.875 88.2741 6.875 90C6.875 91.7259 8.27411 93.125 10 93.125Z" stroke="#DA291C" stroke-linecap="round" stroke-linejoin="round"/>
<path fill-rule="evenodd" clip-rule="evenodd" d="M1.875 124.375C1.875 123.685 2.43464 123.125 3.125 123.125H16.875C17.5654 123.125 18.125 123.685 18.125 124.375V131.875C18.125 132.22 17.8452 132.5 17.5 132.5C17.1548 132.5 16.875 132.22 16.875 131.875V124.375H3.125V135.625H13.125C13.4702 135.625 13.75 135.905 13.75 136.25C13.75 136.595 13.4702 136.875 13.125 136.875H3.125C2.43464 136.875 1.875 136.315 1.875 135.625V124.375Z" fill="#DA291C"/>
<path fill-rule="evenodd" clip-rule="evenodd" d="M6.875 126.25C7.22018 126.25 7.5 126.53 7.5 126.875C7.5 127.538 7.76339 128.174 8.23223 128.643C8.70107 129.112 9.33696 129.375 10 129.375C10.663 129.375 11.2989 129.112 11.7678 128.643C12.2366 128.174 12.5 127.538 12.5 126.875C12.5 126.53 12.7798 126.25 13.125 126.25C13.4702 126.25 13.75 126.53 13.75 126.875C13.75 127.87 13.3549 128.823 12.6517 129.527C11.9484 130.23 10.9946 130.625 10 130.625C9.00544 130.625 8.05161 130.23 7.34835 129.527C6.64509 128.823 6.25 127.87 6.25 126.875C6.25 126.53 6.52982 126.25 6.875 126.25Z" fill="#DA291C"/>
<path fill-rule="evenodd" clip-rule="evenodd" d="M18.125 134.375C18.125 134.03 17.8452 133.75 17.5 133.75C17.1548 133.75 16.875 134.03 16.875 134.375V135.625H15.625C15.2798 135.625 15 135.905 15 136.25C15 136.595 15.2798 136.875 15.625 136.875H16.875V138.125C16.875 138.47 17.1548 138.75 17.5 138.75C17.8452 138.75 18.125 138.47 18.125 138.125V136.875H19.375C19.7202 136.875 20 136.595 20 136.25C20 135.905 19.7202 135.625 19.375 135.625H18.125V134.375Z" fill="#DA291C"/>
<path d="M16.25 163.125H3.75C3.40482 163.125 3.125 163.405 3.125 163.75V176.25C3.125 176.595 3.40482 176.875 3.75 176.875H16.25C16.5952 176.875 16.875 176.595 16.875 176.25V163.75C16.875 163.405 16.5952 163.125 16.25 163.125Z" stroke="#DA291C" stroke-linecap="round" stroke-linejoin="round"/>
<path d="M13.75 161.875V164.375" stroke="#DA291C" stroke-linecap="round" stroke-linejoin="round"/>
<path d="M6.25 161.875V164.375" stroke="#DA291C" stroke-linecap="round" stroke-linejoin="round"/>
<path d="M3.125 166.875H16.875" stroke="#DA291C" stroke-linecap="round" stroke-linejoin="round"/>
<path d="M3.125 205H16.875" stroke="#DA291C" stroke-linecap="round" stroke-linejoin="round"/>
<path d="M3.125 210H16.875" stroke="#DA291C" stroke-linecap="round" stroke-linejoin="round"/>
<path d="M18.125 213.75L15.2055 216.25L13.75 215" stroke="#DA291C" stroke-linecap="round" stroke-linejoin="round"/>
<path d="M3.125 215H11.25" stroke="#DA291C" stroke-linecap="round" stroke-linejoin="round"/>
<path d="M10 252.5C12.7614 252.5 15 250.261 15 247.5C15 244.739 12.7614 242.5 10 242.5C7.23858 242.5 5 244.739 5 247.5C5 250.261 7.23858 252.5 10 252.5Z" stroke="#DA291C" stroke-miterlimit="10"/>
<path d="M2.42188 256.876C3.18979 255.545 4.2944 254.441 5.62465 253.672C6.9549 252.904 8.46392 252.5 10 252.5C11.5361 252.5 13.0451 252.904 14.3753 253.672C15.7056 254.441 16.8102 255.545 17.5781 256.876" stroke="#DA291C" stroke-linecap="round" stroke-linejoin="round"/>
<path d="M10.625 291.25C12.0057 291.25 13.125 290.131 13.125 288.75C13.125 287.369 12.0057 286.25 10.625 286.25C9.24429 286.25 8.125 287.369 8.125 288.75C8.125 290.131 9.24429 291.25 10.625 291.25Z" stroke="#DA291C" stroke-linecap="round" stroke-linejoin="round"/>
<path d="M2.5 288.438H4.375" stroke="#DA291C" stroke-linecap="round" stroke-linejoin="round"/>
<path d="M2.5 285.312H4.375" stroke="#DA291C" stroke-linecap="round" stroke-linejoin="round"/>
<path d="M2.5 291.562H4.375" stroke="#DA291C" stroke-linecap="round" stroke-linejoin="round"/>
<path d="M2.5 294.688H4.375" stroke="#DA291C" stroke-linecap="round" stroke-linejoin="round"/>
<path d="M6.875 293.125C7.31163 292.543 7.8778 292.07 8.52869 291.745C9.17957 291.419 9.89729 291.25 10.625 291.25C11.3527 291.25 12.0704 291.419 12.7213 291.745C13.3722 292.07 13.9384 292.543 14.375 293.125" stroke="#DA291C" stroke-linecap="round" stroke-linejoin="round"/>
<path d="M16.875 296.875V283.125C16.875 282.78 16.5952 282.5 16.25 282.5H5C4.65482 282.5 4.375 282.78 4.375 283.125V296.875C4.375 297.22 4.65482 297.5 5 297.5H16.25C16.5952 297.5 16.875 297.22 16.875 296.875Z" stroke="#DA291C" stroke-linecap="round" stroke-linejoin="round"/>
<path d="M17.5 324.375H2.5C2.15482 324.375 1.875 324.655 1.875 325V335C1.875 335.345 2.15482 335.625 2.5 335.625H17.5C17.8452 335.625 18.125 335.345 18.125 335V325C18.125 324.655 17.8452 324.375 17.5 324.375Z" stroke="#DA291C" stroke-linecap="round" stroke-linejoin="round"/>
<path d="M13.125 333.125H15.625" stroke="#DA291C" stroke-linecap="round" stroke-linejoin="round"/>
<path d="M9.375 333.125H10.625" stroke="#DA291C" stroke-linecap="round" stroke-linejoin="round"/>
<path d="M1.875 327.57H18.125" stroke="#DA291C" stroke-linecap="round" stroke-linejoin="round"/>
<path d="M10 373.75C12.0711 373.75 13.75 372.071 13.75 370C13.75 367.929 12.0711 366.25 10 366.25C7.92893 366.25 6.25 367.929 6.25 370C6.25 372.071 7.92893 373.75 10 373.75Z" stroke="#DA291C" stroke-linecap="round" stroke-linejoin="round"/>
<path d="M14.3516 365.086C14.5495 365.268 14.737 365.456 14.9141 365.648L17.0469 365.953C17.3944 366.557 17.6622 367.203 17.8438 367.875L16.5469 369.602C16.5469 369.602 16.5703 370.133 16.5469 370.398L17.8438 372.125C17.6631 372.798 17.3952 373.444 17.0469 374.047L14.9141 374.352C14.9141 374.352 14.5469 374.734 14.3516 374.914L14.0469 377.047C13.4434 377.394 12.7974 377.662 12.125 377.844L10.3984 376.547C10.1333 376.57 9.86667 376.57 9.60156 376.547L7.875 377.844C7.20236 377.663 6.55625 377.395 5.95313 377.047L5.64844 374.914C5.45573 374.732 5.26823 374.544 5.08594 374.352L2.95312 374.047C2.60561 373.443 2.33776 372.797 2.15625 372.125L3.45313 370.398C3.45313 370.398 3.42969 369.867 3.45313 369.602L2.15625 367.875C2.33692 367.202 2.60481 366.556 2.95312 365.953L5.08594 365.648C5.26823 365.456 5.45573 365.268 5.64844 365.086L5.95313 362.953C6.55665 362.606 7.20265 362.338 7.875 362.156L9.60156 363.453C9.86667 363.43 10.1333 363.43 10.3984 363.453L12.125 362.156C12.7976 362.337 13.4437 362.605 14.0469 362.953L14.3516 365.086Z" stroke="#DA291C" stroke-linecap="round" stroke-linejoin="round"/>
<path d="M47.5 4.375V15.625" stroke="#141416" stroke-linecap="round" stroke-linejoin="round"/>
<path d="M41.875 13.0625C41.8742 12.9186 41.9238 12.7789 42.0151 12.6676C42.1064 12.5563 42.2337 12.4805 42.375 12.4531C42.9371 12.3338 43.4412 12.025 43.8029 11.5784C44.1646 11.1319 44.362 10.5747 44.362 10C44.362 9.42534 44.1646 8.86812 43.8029 8.42157C43.4412 7.97502 42.9371 7.66623 42.375 7.54687C42.2337 7.51955 42.1064 7.44368 42.0151 7.33241C41.9238 7.22113 41.8742 7.08144 41.875 6.9375V5C41.875 4.83424 41.9409 4.67527 42.0581 4.55806C42.1753 4.44085 42.3342 4.375 42.5 4.375H57.5C57.6658 4.375 57.8247 4.44085 57.942 4.55806C58.0592 4.67527 58.125 4.83424 58.125 5V6.9375C58.1258 7.08144 58.0763 7.22113 57.985 7.33241C57.8937 7.44368 57.7663 7.51955 57.625 7.54687C57.0629 7.66623 56.5588 7.97502 56.1971 8.42157C55.8354 8.86812 55.6381 9.42534 55.6381 10C55.6381 10.5747 55.8354 11.1319 56.1971 11.5784C56.5588 12.025 57.0629 12.3338 57.625 12.4531C57.7663 12.4805 57.8937 12.5563 57.985 12.6676C58.0763 12.7789 58.1258 12.9186 58.125 13.0625V15C58.125 15.1658 58.0592 15.3247 57.942 15.4419C57.8247 15.5592 57.6658 15.625 57.5 15.625H42.5C42.3342 15.625 42.1753 15.5592 42.0581 15.4419C41.9409 15.3247 41.875 15.1658 41.875 15V13.0625Z" stroke="#141416" stroke-linecap="round" stroke-linejoin="round"/>
<path d="M50.4466 56.5541L56.7748 50.2259C58.3295 48.6634 58.556 46.1088 57.0873 44.4759C56.7189 44.0645 56.2705 43.7324 55.7695 43.5001C55.2685 43.2677 54.7254 43.14 54.1734 43.1246C53.6213 43.1093 53.0719 43.2066 52.5588 43.4108C52.0456 43.6149 51.5795 43.9215 51.1888 44.3119L50.0013 45.5072L48.9779 44.4759C47.4154 42.9213 44.8607 42.6947 43.2279 44.1634C42.8164 44.5318 42.4844 44.9802 42.252 45.4812C42.0197 45.9822 41.8919 46.5253 41.8766 47.0774C41.8612 47.6294 41.9586 48.1788 42.1627 48.6919C42.3668 49.2051 42.6735 49.6712 43.0638 50.0619L49.556 56.5541C49.6745 56.6714 49.8345 56.7373 50.0013 56.7373C50.1681 56.7373 50.3281 56.6714 50.4466 56.5541V56.5541Z" stroke="#141416" stroke-linecap="round" stroke-linejoin="round"/>
<path d="M50 84.375C43.75 84.375 41.25 90 41.25 90C41.25 90 43.75 95.625 50 95.625C56.25 95.625 58.75 90 58.75 90C58.75 90 56.25 84.375 50 84.375Z" stroke="#141416" stroke-linecap="round" stroke-linejoin="round"/>
<path d="M50 93.125C51.7259 93.125 53.125 91.7259 53.125 90C53.125 88.2741 51.7259 86.875 50 86.875C48.2741 86.875 46.875 88.2741 46.875 90C46.875 91.7259 48.2741 93.125 50 93.125Z" stroke="#141416" stroke-linecap="round" stroke-linejoin="round"/>
<path fill-rule="evenodd" clip-rule="evenodd" d="M41.875 124.375C41.875 123.685 42.4346 123.125 43.125 123.125H56.875C57.5654 123.125 58.125 123.685 58.125 124.375V131.875C58.125 132.22 57.8452 132.5 57.5 132.5C57.1548 132.5 56.875 132.22 56.875 131.875V124.375H43.125V135.625H53.125C53.4702 135.625 53.75 135.905 53.75 136.25C53.75 136.595 53.4702 136.875 53.125 136.875H43.125C42.4346 136.875 41.875 136.315 41.875 135.625V124.375Z" fill="#141416"/>
<path fill-rule="evenodd" clip-rule="evenodd" d="M46.875 126.25C47.2202 126.25 47.5 126.53 47.5 126.875C47.5 127.538 47.7634 128.174 48.2322 128.643C48.7011 129.112 49.337 129.375 50 129.375C50.663 129.375 51.2989 129.112 51.7678 128.643C52.2366 128.174 52.5 127.538 52.5 126.875C52.5 126.53 52.7798 126.25 53.125 126.25C53.4702 126.25 53.75 126.53 53.75 126.875C53.75 127.87 53.3549 128.823 52.6517 129.527C51.9484 130.23 50.9946 130.625 50 130.625C49.0054 130.625 48.0516 130.23 47.3483 129.527C46.6451 128.823 46.25 127.87 46.25 126.875C46.25 126.53 46.5298 126.25 46.875 126.25Z" fill="#141416"/>
<path fill-rule="evenodd" clip-rule="evenodd" d="M58.125 134.375C58.125 134.03 57.8452 133.75 57.5 133.75C57.1548 133.75 56.875 134.03 56.875 134.375V135.625H55.625C55.2798 135.625 55 135.905 55 136.25C55 136.595 55.2798 136.875 55.625 136.875H56.875V138.125C56.875 138.47 57.1548 138.75 57.5 138.75C57.8452 138.75 58.125 138.47 58.125 138.125V136.875H59.375C59.7202 136.875 60 136.595 60 136.25C60 135.905 59.7202 135.625 59.375 135.625H58.125V134.375Z" fill="#141416"/>
<path d="M56.25 163.125H43.75C43.4048 163.125 43.125 163.405 43.125 163.75V176.25C43.125 176.595 43.4048 176.875 43.75 176.875H56.25C56.5952 176.875 56.875 176.595 56.875 176.25V163.75C56.875 163.405 56.5952 163.125 56.25 163.125Z" stroke="#141416" stroke-linecap="round" stroke-linejoin="round"/>
<path d="M53.75 161.875V164.375" stroke="#141416" stroke-linecap="round" stroke-linejoin="round"/>
<path d="M46.25 161.875V164.375" stroke="#141416" stroke-linecap="round" stroke-linejoin="round"/>
<path d="M43.125 166.875H56.875" stroke="#141416" stroke-linecap="round" stroke-linejoin="round"/>
<path d="M43.125 205H56.875" stroke="#141416" stroke-linecap="round" stroke-linejoin="round"/>
<path d="M43.125 210H56.875" stroke="#141416" stroke-linecap="round" stroke-linejoin="round"/>
<path d="M58.125 213.75L55.2055 216.25L53.75 215" stroke="#141416" stroke-linecap="round" stroke-linejoin="round"/>
<path d="M43.125 215H51.25" stroke="#141416" stroke-linecap="round" stroke-linejoin="round"/>
<path d="M50 252.5C52.7614 252.5 55 250.261 55 247.5C55 244.739 52.7614 242.5 50 242.5C47.2386 242.5 45 244.739 45 247.5C45 250.261 47.2386 252.5 50 252.5Z" stroke="#141416" stroke-miterlimit="10"/>
<path d="M42.4219 256.876C43.1898 255.545 44.2944 254.441 45.6247 253.672C46.9549 252.904 48.4639 252.5 50 252.5C51.5361 252.5 53.0451 252.904 54.3753 253.672C55.7056 254.441 56.8102 255.545 57.5781 256.876" stroke="#141416" stroke-linecap="round" stroke-linejoin="round"/>
<path d="M50.625 291.25C52.0057 291.25 53.125 290.131 53.125 288.75C53.125 287.369 52.0057 286.25 50.625 286.25C49.2443 286.25 48.125 287.369 48.125 288.75C48.125 290.131 49.2443 291.25 50.625 291.25Z" stroke="#141416" stroke-linecap="round" stroke-linejoin="round"/>
<path d="M42.5 288.438H44.375" stroke="#141416" stroke-linecap="round" stroke-linejoin="round"/>
<path d="M42.5 285.312H44.375" stroke="#141416" stroke-linecap="round" stroke-linejoin="round"/>
<path d="M42.5 291.562H44.375" stroke="#141416" stroke-linecap="round" stroke-linejoin="round"/>
<path d="M42.5 294.688H44.375" stroke="#141416" stroke-linecap="round" stroke-linejoin="round"/>
<path d="M46.875 293.125C47.3116 292.543 47.8778 292.07 48.5287 291.745C49.1796 291.419 49.8973 291.25 50.625 291.25C51.3527 291.25 52.0704 291.419 52.7213 291.745C53.3722 292.07 53.9384 292.543 54.375 293.125" stroke="#141416" stroke-linecap="round" stroke-linejoin="round"/>
<path d="M56.875 296.875V283.125C56.875 282.78 56.5952 282.5 56.25 282.5H45C44.6548 282.5 44.375 282.78 44.375 283.125V296.875C44.375 297.22 44.6548 297.5 45 297.5H56.25C56.5952 297.5 56.875 297.22 56.875 296.875Z" stroke="#141416" stroke-linecap="round" stroke-linejoin="round"/>
<path d="M57.5 324.375H42.5C42.1548 324.375 41.875 324.655 41.875 325V335C41.875 335.345 42.1548 335.625 42.5 335.625H57.5C57.8452 335.625 58.125 335.345 58.125 335V325C58.125 324.655 57.8452 324.375 57.5 324.375Z" stroke="#141416" stroke-linecap="round" stroke-linejoin="round"/>
<path d="M53.125 333.125H55.625" stroke="#141416" stroke-linecap="round" stroke-linejoin="round"/>
<path d="M49.375 333.125H50.625" stroke="#141416" stroke-linecap="round" stroke-linejoin="round"/>
<path d="M41.875 327.57H58.125" stroke="#141416" stroke-linecap="round" stroke-linejoin="round"/>
<path d="M50 373.75C52.0711 373.75 53.75 372.071 53.75 370C53.75 367.929 52.0711 366.25 50 366.25C47.9289 366.25 46.25 367.929 46.25 370C46.25 372.071 47.9289 373.75 50 373.75Z" stroke="#141416" stroke-linecap="round" stroke-linejoin="round"/>
<path d="M54.3516 365.086C54.5495 365.268 54.737 365.456 54.9141 365.648L57.0469 365.953C57.3944 366.557 57.6622 367.203 57.8438 367.875L56.5469 369.602C56.5469 369.602 56.5703 370.133 56.5469 370.398L57.8438 372.125C57.6631 372.798 57.3952 373.444 57.0469 374.047L54.9141 374.352C54.9141 374.352 54.5469 374.734 54.3516 374.914L54.0469 377.047C53.4434 377.394 52.7974 377.662 52.125 377.844L50.3984 376.547C50.1333 376.57 49.8667 376.57 49.6016 376.547L47.875 377.844C47.2024 377.663 46.5563 377.395 45.9531 377.047L45.6484 374.914C45.4557 374.732 45.2682 374.544 45.0859 374.352L42.9531 374.047C42.6056 373.443 42.3378 372.797 42.1562 372.125L43.4531 370.398C43.4531 370.398 43.4297 369.867 43.4531 369.602L42.1562 367.875C42.3369 367.202 42.6048 366.556 42.9531 365.953L45.0859 365.648C45.2682 365.456 45.4557 365.268 45.6484 365.086L45.9531 362.953C46.5566 362.606 47.2026 362.338 47.875 362.156L49.6016 363.453C49.8667 363.43 50.1333 363.43 50.3984 363.453L52.125 362.156C52.7976 362.337 53.4437 362.605 54.0469 362.953L54.3516 365.086Z" stroke="#141416" stroke-linecap="round" stroke-linejoin="round"/>
</svg>
