<svg width="36" height="36" viewBox="0 0 36 36" fill="none" xmlns="http://www.w3.org/2000/svg">
<path d="M11.248 33.001C12.4907 33.001 13.498 31.9936 13.498 30.751C13.498 29.5083 12.4907 28.501 11.248 28.501C10.0054 28.501 8.99805 29.5083 8.99805 30.751C8.99805 31.9936 10.0054 33.001 11.248 33.001Z" fill="#DA291C"/>
<path d="M26.249 33.001C27.4917 33.001 28.499 31.9936 28.499 30.751C28.499 29.5083 27.4917 28.501 26.249 28.501C25.0064 28.501 23.999 29.5083 23.999 30.751C23.999 31.9936 25.0064 33.001 26.249 33.001Z" fill="#DA291C"/>
<path d="M1.49902 4.5H4.81331L10.0705 21.9066C10.2011 22.5051 10.5589 23.0427 11.0812 23.4253C11.6036 23.808 12.2572 24.0112 12.9276 23.9995C13.598 23.9878 24.5705 23.9995 25.7847 23.9995C26.999 23.9995 27.4558 23.6007 27.6311 23.4253C27.8064 23.25 28.5112 22.5051 28.6419 21.9066C28.7725 21.3081 31.499 9.69987 31.499 9.69987" stroke="#DA291C" stroke-width="2" stroke-linecap="round" stroke-linejoin="round"/>
<path d="M29 4L18 15L13 10" stroke="#DA291C" stroke-width="2" stroke-linecap="round" stroke-linejoin="round"/>
</svg>
