<svg width="56" height="56" viewBox="0 0 56 56" fill="none" xmlns="http://www.w3.org/2000/svg">
<g clip-path="url(#clip0_7167_130498)">
<path d="M26.4997 38.6001C25.7997 38.6001 24.9997 38.5001 24.1997 38.1001C22.6997 37.5001 21.5997 37.8001 20.3997 38.2001C18.7997 38.7001 17.0997 39.2001 14.5997 36.8001C10.4997 32.9001 7.79972 25.2001 10.3997 20.0001C12.3997 16.0001 16.1997 15.6001 17.7997 15.6001H17.8997C19.7997 15.6001 21.5997 16.2001 22.4997 17.1001C23.6997 16.1001 25.4997 15.6001 27.4997 15.6001C29.8997 15.6001 32.0997 16.4001 33.3997 17.7001C37.5997 22.0001 36.2997 28.7001 33.3997 33.2001C31.1997 36.5001 29.1997 38.6001 26.4997 38.6001ZM22.4997 36.6001C23.0997 36.6001 23.7997 36.7001 24.5997 37.0001C27.3997 38.1001 29.3997 37.0001 32.2997 32.5001C34.8997 28.4001 36.1997 22.3001 32.4997 18.5001C31.3997 17.4001 29.4997 16.7001 27.3997 16.7001C25.4997 16.7001 23.6997 17.3001 22.6997 18.3001C22.5997 18.4001 22.3997 18.5001 22.1997 18.5001C21.9997 18.5001 21.7997 18.4001 21.6997 18.2001C21.2997 17.5001 19.6997 16.7001 17.7997 16.7001C16.4997 16.7001 13.1997 17.1001 11.4997 20.5001C9.89972 23.8001 10.2997 31.0001 15.4997 35.9001C17.4997 37.8001 18.5997 37.4001 20.0997 37.0001C20.7997 36.8001 21.5997 36.6001 22.4997 36.6001Z" fill="#363A42"/>
<path d="M22.3994 18.1002C22.0994 18.1002 21.8994 17.9002 21.7994 17.6002C21.6994 17.2002 21.6994 16.8002 21.5994 16.5002C20.9994 13.6002 20.4994 10.7002 22.6994 8.6002C24.1994 7.1002 26.0994 6.7002 27.8994 6.4002C28.1994 6.3002 28.3994 6.3002 28.6994 6.2002C28.8994 6.2002 29.0994 6.2002 29.1994 6.3002C29.2994 6.4002 29.3994 6.6002 29.4994 6.7002C29.6994 9.1002 28.8994 11.5002 27.2994 13.2002C25.9994 14.5002 24.3994 15.3002 22.7994 15.3002C22.8994 15.6002 22.8994 15.9002 22.9994 16.2002C23.0994 16.6002 23.0994 17.0002 23.1994 17.3002C23.2994 17.6002 23.0994 17.9002 22.6994 18.0002C22.4994 18.1002 22.4994 18.1002 22.3994 18.1002ZM28.2994 7.5002C28.1994 7.5002 28.1994 7.5002 28.2994 7.5002C26.4994 7.9002 24.8994 8.2002 23.5994 9.4002C22.2994 10.7002 22.1994 12.3002 22.4994 14.1002C23.8994 14.1002 25.2994 13.5002 26.3994 12.3002C27.5994 11.1002 28.1994 9.4002 28.2994 7.5002Z" fill="#363A42"/>
<path d="M31.4994 30.3C31.2994 30.4 31.0994 30.4 30.8994 30.2C30.6994 30 30.7994 29.7 30.9994 29.6C31.5994 29.1 31.9994 28.1 32.0994 26C32.2994 22.9 31.2994 21.5 30.2994 20.5C30.0994 20.3 30.0994 20 30.2994 19.9C30.4994 19.7 30.7994 19.7 30.8994 19.9C32.5994 21.6 33.0994 24.2 32.9994 26.1C32.8994 28.4 32.4994 29.6 31.4994 30.3C31.5994 30.3 31.5994 30.3 31.4994 30.3Z" fill="#363A42"/>
<mask id="mask0_7167_130498" style="mask-type:luminance" maskUnits="userSpaceOnUse" x="0" y="0" width="56" height="56">
<path d="M56 0H0V56H56V0Z" fill="white"/>
</mask>
<g mask="url(#mask0_7167_130498)">
<path d="M34.2998 46.6001C38.1658 46.6001 41.2998 43.4661 41.2998 39.6001C41.2998 35.7341 38.1658 32.6001 34.2998 32.6001C30.4338 32.6001 27.2998 35.7341 27.2998 39.6001C27.2998 43.4661 30.4338 46.6001 34.2998 46.6001Z" fill="white"/>
<path d="M10.5 37.7001L34.3 32.6001V46.6001C27.1 45.5001 12.4 43.0001 10.5 41.5001C8.69997 40.0001 9.69997 38.3001 10.5 37.7001Z" fill="white"/>
<path d="M45.9 42.5002C50.5 42.3002 52.9 40.0002 52.8 39.5002C52.9 39.1002 49.5 36.9002 45.9 36.6002C46.4 35.6002 46.7 34.5002 46.7 33.4002C46.7 33.3002 46.7 33.2002 46.6 33.1002C46.5 33.0002 46.5 32.9002 46.4 32.9002C43.5 31.7002 40.6 34.0002 39.1 35.5002C38.3 34.2002 37.1 33.2002 35.7 32.7002C34.3 32.1002 32.8 32.0002 31.3 32.4002L10.9 37.0002C8.2 37.6002 8.2 41.6002 10.9 42.2002L31.2 46.7002C32.3 46.9002 33.4 46.9002 34.5 46.7002C35.6 46.5002 36.6 46.0002 37.4 45.3002C38 44.8002 38.5 44.2002 39 43.6002C40.5 45.1002 43.4 47.3002 46.2 46.2002C46.3 46.2002 46.4 46.1002 46.4 46.0002C46.5 45.9002 46.5 45.8002 46.5 45.7002C46.6 44.5002 46.4 43.4002 45.9 42.5002ZM51.3 39.6002C50.4 40.3002 48.4 41.4002 44.9 41.3002C43.3 41.2002 41.6 41.0002 40.1 40.5002C40.1 40.3002 40.1 40.2002 40.2 40.0002H45.1C45.2 40.0002 45.4 39.9002 45.5 39.8002C45.6 39.7002 45.7 39.5002 45.7 39.4002C45.7 39.3002 45.6 39.1002 45.5 39.0002C45.4 38.9002 45.3 38.8002 45.1 38.8002H40.9C44.2 36.6002 49 38.1002 51.3 39.6002ZM45.5 33.8002C45.4 34.8002 45.1 35.7002 44.5 36.6002C42.9 36.7002 41.4 37.2002 40.1 38.1002C40 37.6002 39.8 37.0002 39.6 36.5002C40.7 35.3002 43.1 33.1002 45.5 33.8002ZM36.7 44.3002C36 44.8002 35.2 45.2002 34.4 45.5002C33.5 45.7002 32.7 45.8002 31.8 45.6002L31.9 41.6002C31.9 41.5002 31.8 41.3002 31.7 41.2002C31.6 41.0002 31.4 41.0002 31.3 41.0002C31.2 41.0002 31 41.1002 30.9 41.2002C30.8 41.3002 30.7 41.4002 30.7 41.6002L30.6 45.4002L24.3 44.0002L24.4 40.4002C24.4 40.3002 24.3 40.1002 24.2 40.0002C24.1 39.9002 24 39.8002 23.8 39.8002C23.7 39.8002 23.5 39.9002 23.4 40.0002C23.3 40.1002 23.2 40.2002 23.2 40.4002L23.1 43.8002L16.7 42.4002L16.8 39.1002C16.8 39.0002 16.7 38.8002 16.6 38.7002C16.5 38.6002 16.4 38.5002 16.2 38.5002C16.1 38.5002 15.9 38.5002 15.8 38.7002C15.7 38.8002 15.6 38.9002 15.6 39.1002V42.0002L11.2 41.0002C10.9 40.9002 10.6 40.7002 10.3 40.5002C10.1 40.2002 10 39.9002 10 39.6002C10 39.3002 10.1 38.9002 10.3 38.6002C10.5 38.3002 10.8 38.1002 11.1 38.1002L19.4 36.2002L19.3 38.6002C19.3 38.7002 19.3 38.8002 19.3 38.8002C19.3 38.9002 19.4 38.9002 19.4 39.0002C19.5 39.1002 19.6 39.1002 19.7 39.2002C19.8 39.2002 19.9 39.2002 20 39.2002C20.1 39.2002 20.2 39.1002 20.3 39.0002C20.4 38.9002 20.4 38.8002 20.4 38.7002L20.5 36.0002L26.7 34.6002L26.6 38.8002C26.6 38.9002 26.6 39.0002 26.6 39.0002C26.6 39.1002 26.7 39.1002 26.7 39.2002C26.8 39.3002 26.9 39.3002 27 39.4002C27.1 39.4002 27.2 39.4002 27.3 39.4002C27.4 39.4002 27.5 39.3002 27.6 39.2002C27.7 39.1002 27.7 39.0002 27.7 38.9002L27.8 34.4002C29 34.2002 31.8 33.3002 33.1 33.5002L33 37.6002C33 37.7002 33 37.8002 33 37.8002C33 37.9002 33.1 37.9002 33.1 38.0002C33.2 38.1002 33.2 38.1002 33.3 38.1002C33.4 38.1002 33.4 38.1002 33.5 38.1002C33.6 38.1002 33.6 38.1002 33.7 38.1002C33.8 38.1002 33.8 38.0002 33.9 38.0002C34 37.9002 34 37.9002 34 37.8002C34 37.7002 34 37.7002 34 37.6002L34.1 33.6002C39.3 34.6002 40.7 41.2002 36.7 44.3002ZM39.6 42.4002C39.7 42.2002 39.8 41.9002 39.9 41.6002C41.4 42.1002 43 42.3002 44.6 42.4002C45.1 43.2002 45.4 44.1002 45.5 45.0002C43.1 45.8002 40.7 43.7002 39.6 42.4002Z" fill="#363A42"/>
</g>
</g>
<defs>
<clipPath id="clip0_7167_130498">
<rect width="56" height="56" fill="white"/>
</clipPath>
</defs>
</svg>
