<svg width="48" height="48" viewBox="0 0 48 48" fill="none" xmlns="http://www.w3.org/2000/svg">
<g clip-path="url(#clip0_7167_130831)">
<path d="M15.4712 17.872L21.1712 11.772L42.3712 31.572C42.3712 31.572 31.7712 33.072 22.3712 24.172L15.4712 17.872Z" stroke="#363A42" stroke-width="1.5" stroke-miterlimit="13.3333" stroke-linecap="round" stroke-linejoin="round"/>
<path d="M21.1539 11.7894L12.8539 4.08939C12.0539 3.38939 10.8539 3.28939 10.0539 3.98939C9.15391 4.78939 9.15391 6.18939 10.0539 7.08939C10.4539 7.48939 11.0539 7.68939 11.6539 7.58939C11.9539 7.58939 12.2539 7.68938 12.4539 7.88938L17.5539 12.6894" stroke="#363A42" stroke-width="1.5" stroke-miterlimit="13.3333" stroke-linecap="round" stroke-linejoin="round"/>
<path d="M18.4712 17.7305L23.7712 22.6305C30.1712 28.6305 37.0712 29.5305 40.2712 29.5305" stroke="#363A42" stroke-width="1.5" stroke-miterlimit="13.3333" stroke-linecap="round" stroke-linejoin="round"/>
<path d="M23.9999 43.9002C29.8541 43.9002 34.5999 39.1544 34.5999 33.3002C34.5999 27.446 29.8541 22.7002 23.9999 22.7002C18.1457 22.7002 13.3999 27.446 13.3999 33.3002C13.3999 39.1544 18.1457 43.9002 23.9999 43.9002Z" fill="white" stroke="#363A42" stroke-width="1.5916" stroke-miterlimit="10"/>
<path d="M20.1 43.9002C25.9542 43.9002 30.7 39.1544 30.7 33.3002C30.7 27.446 25.9542 22.7002 20.1 22.7002C14.2458 22.7002 9.5 27.446 9.5 33.3002C9.5 39.1544 14.2458 43.9002 20.1 43.9002Z" fill="white" stroke="#363A42" stroke-width="1.5916" stroke-miterlimit="10"/>
<path d="M16.3998 27.7002C14.9998 27.7002 13.7998 28.9002 13.7998 30.3002C13.7998 31.7002 14.9998 32.9002 16.3998 32.9002C17.7998 32.9002 18.9998 31.7002 18.9998 30.3002C18.9998 28.9002 17.8998 27.7002 16.3998 27.7002ZM16.3998 31.2002C15.8998 31.2002 15.4998 30.8002 15.4998 30.3002C15.4998 29.8002 15.8998 29.4002 16.3998 29.4002C16.8998 29.4002 17.2998 29.8002 17.2998 30.3002C17.2998 30.8002 16.8998 31.2002 16.3998 31.2002Z" fill="#363A42"/>
<path d="M23.2999 32.9004C21.3999 32.9004 19.8999 34.4004 19.8999 36.3004C19.8999 38.2004 21.3999 39.7004 23.2999 39.7004C25.1999 39.7004 26.6999 38.2004 26.6999 36.3004C26.6999 34.4004 25.0999 32.9004 23.2999 32.9004ZM23.2999 38.0004C22.3999 38.0004 21.5999 37.2004 21.5999 36.3004C21.5999 35.4004 22.3999 34.6004 23.2999 34.6004C24.1999 34.6004 24.9999 35.4004 24.9999 36.3004C24.9999 37.2004 24.1999 38.0004 23.2999 38.0004Z" fill="#363A42"/>
<path d="M23.0001 30.0002C23.4972 30.0002 23.9001 29.5973 23.9001 29.1002C23.9001 28.6031 23.4972 28.2002 23.0001 28.2002C22.503 28.2002 22.1001 28.6031 22.1001 29.1002C22.1001 29.5973 22.503 30.0002 23.0001 30.0002Z" fill="#363A42"/>
<path d="M15.1002 38.0002C15.5973 38.0002 16.0002 37.5972 16.0002 37.1002C16.0002 36.6031 15.5973 36.2002 15.1002 36.2002C14.6031 36.2002 14.2002 36.6031 14.2002 37.1002C14.2002 37.5972 14.6031 38.0002 15.1002 38.0002Z" fill="#363A42"/>
</g>
<defs>
<clipPath id="clip0_7167_130831">
<rect width="48" height="48" fill="white"/>
</clipPath>
</defs>
</svg>
