<svg width="24" height="24" viewBox="0 0 24 24" fill="none" xmlns="http://www.w3.org/2000/svg">
<path d="M3.59961 5.99961C3.59961 5.36309 3.85247 4.75264 4.30255 4.30255C4.75264 3.85247 5.36309 3.59961 5.99961 3.59961H17.9996C18.6361 3.59961 19.2466 3.85247 19.6967 4.30255C20.1468 4.75264 20.3996 5.36309 20.3996 5.99961V17.9996C20.3996 18.6361 20.1468 19.2466 19.6967 19.6967C19.2466 20.1468 18.6361 20.3996 17.9996 20.3996H5.99961C5.36309 20.3996 4.75264 20.1468 4.30255 19.6967C3.85247 19.2466 3.59961 18.6361 3.59961 17.9996V5.99961ZM5.99961 4.79961C5.68135 4.79961 5.37613 4.92604 5.15108 5.15108C4.92604 5.37613 4.79961 5.68135 4.79961 5.99961V17.9996C4.79961 18.3179 4.92604 18.6231 5.15108 18.8481C5.37613 19.0732 5.68135 19.1996 5.99961 19.1996H17.9996C18.3179 19.1996 18.6231 19.0732 18.8481 18.8481C19.0732 18.6231 19.1996 18.3179 19.1996 17.9996V5.99961C19.1996 5.68135 19.0732 5.37613 18.8481 5.15108C18.6231 4.92604 18.3179 4.79961 17.9996 4.79961H5.99961ZM11.9996 7.19961C12.1587 7.19961 12.3114 7.26282 12.4239 7.37535C12.5364 7.48787 12.5996 7.64048 12.5996 7.79961V11.3996H16.1996C16.3587 11.3996 16.5114 11.4628 16.6239 11.5753C16.7364 11.6879 16.7996 11.8405 16.7996 11.9996C16.7996 12.1587 16.7364 12.3114 16.6239 12.4239C16.5114 12.5364 16.3587 12.5996 16.1996 12.5996H12.5996V16.1996C12.5996 16.3587 12.5364 16.5114 12.4239 16.6239C12.3114 16.7364 12.1587 16.7996 11.9996 16.7996C11.8405 16.7996 11.6879 16.7364 11.5753 16.6239C11.4628 16.5114 11.3996 16.3587 11.3996 16.1996V12.5996H7.79961C7.64048 12.5996 7.48787 12.5364 7.37535 12.4239C7.26282 12.3114 7.19961 12.1587 7.19961 11.9996C7.19961 11.8405 7.26282 11.6879 7.37535 11.5753C7.48787 11.4628 7.64048 11.3996 7.79961 11.3996H11.3996V7.79961C11.3996 7.64048 11.4628 7.48787 11.5753 7.37535C11.6879 7.26282 11.8405 7.19961 11.9996 7.19961Z" fill="#F4F5F6"/>
</svg>
