<svg width="20" height="20" viewBox="0 0 20 20" fill="none" xmlns="http://www.w3.org/2000/svg">
<path d="M17.6172 10.0003H15.1172C14.7857 10.0003 14.4677 10.132 14.2333 10.3664C13.9989 10.6008 13.8672 10.9187 13.8672 11.2503V14.3753C13.8672 14.7068 13.9989 15.0247 14.2333 15.2591C14.4677 15.4936 14.7857 15.6253 15.1172 15.6253H16.3672C16.6987 15.6253 17.0167 15.4936 17.2511 15.2591C17.4855 15.0247 17.6172 14.7068 17.6172 14.3753V10.0003ZM17.6172 10.0003C17.6172 9.01007 17.4212 8.02966 17.0404 7.11563C16.6596 6.20159 16.1015 5.372 15.3984 4.67474C14.6954 3.97748 13.8612 3.42634 12.944 3.05313C12.0268 2.67991 11.0448 2.49201 10.0547 2.50026C9.06518 2.49305 8.08403 2.68171 7.16776 3.05539C6.2515 3.42907 5.41824 3.98037 4.716 4.67753C4.01376 5.37469 3.45642 6.20392 3.07609 7.11745C2.69576 8.03097 2.49997 9.01073 2.5 10.0003V14.3753C2.5 14.7068 2.6317 15.0247 2.86612 15.2591C3.10054 15.4936 3.41848 15.6253 3.75 15.6253H5C5.33152 15.6253 5.64946 15.4936 5.88388 15.2591C6.1183 15.0247 6.25 14.7068 6.25 14.3753V11.2503C6.25 10.9187 6.1183 10.6008 5.88388 10.3664C5.64946 10.132 5.33152 10.0003 5 10.0003H2.5" stroke="#141416" stroke-linecap="round" stroke-linejoin="round"/>
<path d="M17.6172 14.375V16.25C17.6172 16.913 17.3538 17.5489 16.885 18.0178C16.4161 18.4866 15.7802 18.75 15.1172 18.75H10.625" stroke="#141416" stroke-linecap="round" stroke-linejoin="round"/>
</svg>
