<svg width="5" height="5" viewBox="0 0 5 5" fill="none" xmlns="http://www.w3.org/2000/svg">
<path d="M2.09144 1.20795L0.0660435 4.33034C0.0242844 4.39712 0.00218882 4.47283 0.001955 4.54995C0.00172118 4.62706 0.0233573 4.70289 0.0647107 4.76988C0.106064 4.83688 0.165694 4.89271 0.237666 4.93182C0.309639 4.97092 0.391446 4.99195 0.47495 4.99279H4.52575C4.60925 4.99195 4.69106 4.97092 4.76303 4.93182C4.83501 4.89271 4.89464 4.83688 4.93599 4.76988C4.97734 4.70289 4.99898 4.62706 4.99874 4.54995C4.99851 4.47283 4.97642 4.39712 4.93466 4.33034L2.90926 1.20795C2.86663 1.14306 2.8066 1.0894 2.73498 1.05216C2.66335 1.01492 2.58255 0.995361 2.50035 0.995361C2.41815 0.995361 2.33734 1.01492 2.26572 1.05216C2.1941 1.0894 2.13407 1.14306 2.09144 1.20795Z" fill="#039855"/>
</svg>
