<svg width="40" height="40" viewBox="0 0 40 40" fill="none" xmlns="http://www.w3.org/2000/svg">
<path d="M27.5001 24.9984C26.6664 24.9971 25.841 25.1639 25.0732 25.4887C24.3054 25.8135 23.611 26.2898 23.0314 26.8891L15.8283 22.2641C16.3905 20.806 16.3905 19.1909 15.8283 17.7328L23.0314 13.1078C24.0447 14.1442 25.3867 14.7961 26.8277 14.952C28.2687 15.1079 29.7191 14.7582 30.9307 13.9626C32.1423 13.1671 33.0396 11.9751 33.4693 10.5908C33.8989 9.20656 33.834 7.71599 33.2858 6.37426C32.7376 5.03252 31.74 3.92305 30.4639 3.23572C29.1879 2.54839 27.7126 2.32595 26.2905 2.60646C24.8685 2.88697 23.5882 3.65299 22.6687 4.77343C21.7493 5.89386 21.2478 7.29904 21.2501 8.74845C21.2527 9.52295 21.3956 10.2906 21.672 11.0141L14.4689 15.6391C13.6017 14.7481 12.4884 14.1361 11.2715 13.8812C10.0546 13.6263 8.78934 13.7402 7.63748 14.2082C6.48562 14.6762 5.49953 15.4772 4.80529 16.5086C4.11106 17.5401 3.74023 18.7551 3.74023 19.9985C3.74023 21.2418 4.11106 22.4568 4.80529 23.4883C5.49953 24.5197 6.48562 25.3207 7.63748 25.7887C8.78934 26.2567 10.0546 26.3706 11.2715 26.1157C12.4884 25.8608 13.6017 25.2488 14.4689 24.3578L21.672 28.9828C21.3956 29.7063 21.2527 30.4739 21.2501 31.2484C21.2501 32.4846 21.6167 33.693 22.3035 34.7208C22.9902 35.7486 23.9663 36.5496 25.1084 37.0227C26.2504 37.4957 27.5071 37.6195 28.7195 37.3784C29.9318 37.1372 31.0455 36.5419 31.9196 35.6679C32.7936 34.7938 33.3889 33.6801 33.63 32.4678C33.8712 31.2554 33.7474 29.9987 33.2744 28.8567C32.8013 27.7146 32.0003 26.7385 30.9725 26.0518C29.9446 25.365 28.7363 24.9984 27.5001 24.9984Z" fill="black"/>
<path d="M27.5001 24.9984C26.6664 24.9971 25.841 25.1639 25.0732 25.4887C24.3054 25.8135 23.611 26.2898 23.0314 26.8891L15.8283 22.2641C16.3905 20.806 16.3905 19.1909 15.8283 17.7328L23.0314 13.1078C24.0447 14.1442 25.3867 14.7961 26.8277 14.952C28.2687 15.1079 29.7191 14.7582 30.9307 13.9626C32.1423 13.1671 33.0396 11.9751 33.4693 10.5908C33.8989 9.20656 33.834 7.71599 33.2858 6.37426C32.7376 5.03252 31.74 3.92305 30.4639 3.23572C29.1879 2.54839 27.7126 2.32595 26.2905 2.60646C24.8685 2.88697 23.5882 3.65299 22.6687 4.77343C21.7493 5.89386 21.2478 7.29904 21.2501 8.74845C21.2527 9.52295 21.3956 10.2906 21.672 11.0141L14.4689 15.6391C13.6017 14.7481 12.4884 14.1361 11.2715 13.8812C10.0546 13.6263 8.78934 13.7402 7.63748 14.2082C6.48562 14.6762 5.49953 15.4772 4.80529 16.5086C4.11106 17.5401 3.74023 18.7551 3.74023 19.9985C3.74023 21.2418 4.11106 22.4568 4.80529 23.4883C5.49953 24.5197 6.48562 25.3207 7.63748 25.7887C8.78934 26.2567 10.0546 26.3706 11.2715 26.1157C12.4884 25.8608 13.6017 25.2488 14.4689 24.3578L21.672 28.9828C21.3956 29.7063 21.2527 30.4739 21.2501 31.2484C21.2501 32.4846 21.6167 33.693 22.3035 34.7208C22.9902 35.7486 23.9663 36.5496 25.1084 37.0227C26.2504 37.4957 27.5071 37.6195 28.7195 37.3784C29.9318 37.1372 31.0455 36.5419 31.9196 35.6679C32.7936 34.7938 33.3889 33.6801 33.63 32.4678C33.8712 31.2554 33.7474 29.9987 33.2744 28.8567C32.8013 27.7146 32.0003 26.7385 30.9725 26.0518C29.9446 25.365 28.7363 24.9984 27.5001 24.9984Z" fill="url(#paint0_linear_3172_632110)"/>
<defs>
<linearGradient id="paint0_linear_3172_632110" x1="18.7452" y1="37.4985" x2="18.7452" y2="2.48828" gradientUnits="userSpaceOnUse">
<stop stop-color="#FD3A84"/>
<stop offset="1" stop-color="#FFA68D"/>
</linearGradient>
</defs>
</svg>
