<?xml version="1.0" encoding="utf-8"?>
<!-- Generator: Adobe Illustrator 27.4.0, SVG Export Plug-In . SVG Version: 6.00 Build 0)  -->
<svg version="1.1" id="Layer_1" xmlns="http://www.w3.org/2000/svg" xmlns:xlink="http://www.w3.org/1999/xlink" x="0px" y="0px"
	 viewBox="0 0 92 92" style="enable-background:new 0 0 92 92;" xml:space="preserve">
<style type="text/css">
	.st0{fill:#FFFFFF;}
	.st1{fill:#E11F26;}
	.st2{fill:none;}
</style>
<g id="Layer_2_00000088811074458377897980000008458410911162039705_">
	<g id="artwork">
		<g>
			<path class="st0" d="M89.9,2.1H2.1v87.8h87.8V2.1z"/>
			<path class="st1" d="M91.9,91.9H0.1V0.1h91.8V91.9z M4.1,87.9h83.8V4.1H4.1V87.9z"/>
		</g>
		<path class="st1" d="M40.5,65.2c-1.5,0-2.7-1.2-2.7-2.7c0-0.3,0-0.6,0.1-0.9l11-32.9c0.5-1.4,2-2.2,3.5-1.7c1.4,0.5,2.2,2,1.7,3.5
			l-11,32.9C42.7,64.4,41.7,65.2,40.5,65.2z"/>
		<path class="st1" d="M24.1,65.2c-1.5,0-2.7-1.2-2.7-2.7c0-0.3,0-0.6,0.1-0.9l11-32.9c0.5-1.4,2-2.2,3.5-1.7c1.4,0.5,2.2,2,1.7,3.5
			l-11,32.9C26.3,64.4,25.2,65.2,24.1,65.2z"/>
		<path class="st1" d="M57,65.2c-1.5,0-2.7-1.2-2.7-2.7c0-0.3,0-0.6,0.1-0.9l11-32.9c0.5-1.4,2-2.2,3.5-1.7c1.4,0.5,2.2,2,1.7,3.5
			l-11,32.9C59.2,64.4,58.2,65.2,57,65.2z"/>
		<rect x="-27.1" y="-27.1" class="st2" width="146.3" height="146.3"/>
	</g>
</g>
</svg>
