<svg width="24" height="24" viewBox="0 0 24 24" fill="none" xmlns="http://www.w3.org/2000/svg">
<path d="M11.6672 23C10.1431 23 9.06536 22.6171 8.20532 22.2452C7.95493 22.1358 3.51323 20.1447 3.51323 20.1447C2.63142 19.7509 2 18.7553 2 17.7926V6.39334C2 5.56191 2.41369 4.89458 3.16486 4.53357C3.2084 4.51169 8.98915 1.72203 9.41373 1.51417C10.0887 1.17504 10.8725 1 11.6564 1C12.4402 1 13.2567 1.17504 13.9316 1.51417C14.3562 1.72203 20.1478 4.52263 20.1805 4.53357C20.9317 4.89458 21.3454 5.56191 21.3454 6.39334V17.7926C21.3454 18.7553 20.7031 19.7509 19.8321 20.1447C19.8321 20.1447 15.4122 22.1358 15.14 22.2452C14.28 22.6171 13.2022 23 11.6781 23" fill="#009EC5"/>
<path d="M11.6685 21.4024C10.6778 21.4024 9.86132 21.2273 8.84887 20.7788C8.51139 20.6366 4.21121 18.7002 4.17855 18.6784C3.86284 18.5361 3.60156 18.1314 3.60156 17.7922V6.95086C3.60156 6.73206 3.71043 6.58984 3.88461 6.58984C3.93904 6.58984 4.01525 6.60078 4.08057 6.6336L9.77422 9.18258C10.2532 9.40138 10.852 9.62018 11.6794 9.62018C12.5067 9.62018 13.1055 9.40138 13.5845 9.18258L19.2673 6.6336C19.3326 6.60078 19.3979 6.58984 19.4632 6.58984C19.6374 6.58984 19.7463 6.72112 19.7463 6.95086V17.8032C19.7463 18.1423 19.485 18.5471 19.1802 18.6893C19.1366 18.7112 14.8365 20.6366 14.5099 20.7897C13.4974 21.2273 12.6809 21.4133 11.6903 21.4133" fill="white"/>
<path d="M11.625 19.3457C9.54565 19.3457 7.58607 18.5362 6.11639 17.0812C5.77891 16.742 5.77891 16.195 6.11639 15.8559C6.45388 15.5168 6.9982 15.5168 7.33568 15.8559C8.47877 16.9937 10.0138 17.6172 11.6359 17.6172C13.258 17.6172 14.793 16.9937 15.936 15.8559C16.2735 15.5168 16.8179 15.5277 17.1553 15.8559C17.4928 16.195 17.4819 16.742 17.1553 17.0812C15.6748 18.5362 13.7261 19.3457 11.6467 19.3457" fill="#009EC5"/>
</svg>
