<svg width="16" height="16" viewBox="0 0 16 16" fill="none" xmlns="http://www.w3.org/2000/svg">
<path fill-rule="evenodd" clip-rule="evenodd" d="M3.69824 7.06954C3.69824 6.87688 3.85442 6.7207 4.04708 6.7207H11.954C12.1466 6.7207 12.3028 6.87688 12.3028 7.06954V12.6509C12.3028 12.8435 12.1466 12.9997 11.954 12.9997H4.04708C3.85442 12.9997 3.69824 12.8435 3.69824 12.6509V7.06954ZM4.39591 7.41837V12.302H11.6051V7.41837H4.39591Z" fill="white" stroke="white" stroke-width="0.2" stroke-linecap="round" stroke-linejoin="round"/>
<path fill-rule="evenodd" clip-rule="evenodd" d="M8.00012 6.72089C8.19278 6.72089 8.34895 6.87706 8.34895 7.06972V12.6511C8.34895 12.8437 8.19278 12.9999 8.00012 12.9999C7.80747 12.9999 7.65129 12.8437 7.65129 12.6511V7.06972C7.65129 6.87706 7.80747 6.72089 8.00012 6.72089Z" fill="white" stroke="white" stroke-width="0.2" stroke-linecap="round" stroke-linejoin="round"/>
<path fill-rule="evenodd" clip-rule="evenodd" d="M3.69824 12.6511C3.69824 12.4584 3.85442 12.3022 4.04708 12.3022H11.954C12.1466 12.3022 12.3028 12.4584 12.3028 12.6511C12.3028 12.8437 12.1466 12.9999 11.954 12.9999H4.04708C3.85442 12.9999 3.69824 12.8437 3.69824 12.6511Z" fill="white" stroke="white" stroke-width="0.2" stroke-linecap="round" stroke-linejoin="round"/>
<path fill-rule="evenodd" clip-rule="evenodd" d="M3 5.20937C3 5.01671 3.15618 4.86053 3.34883 4.86053H12.6511C12.8437 4.86053 12.9999 5.01671 12.9999 5.20937V7.06981C12.9999 7.26247 12.8437 7.41864 12.6511 7.41864H3.34883C3.15618 7.41864 3 7.26247 3 7.06981V5.20937ZM3.69767 5.5582V6.72098H12.3022V5.5582H3.69767Z" fill="white" stroke="white" stroke-width="0.2" stroke-linejoin="round"/>
<path fill-rule="evenodd" clip-rule="evenodd" d="M5.89311 3.10217C6.02933 2.96594 6.2502 2.96594 6.38643 3.10217L8.00021 4.71595L9.61399 3.10217C9.75022 2.96594 9.97109 2.96594 10.1073 3.10217C10.2435 3.2384 10.2435 3.45927 10.1073 3.5955L8.24688 5.45594C8.11065 5.59217 7.88978 5.59217 7.75355 5.45594L5.89311 3.5955C5.75688 3.45927 5.75688 3.2384 5.89311 3.10217Z" fill="white" stroke="white" stroke-width="0.2" stroke-linecap="round" stroke-linejoin="round"/>
</svg>
