<svg width="20" height="20" viewBox="0 0 20 20" fill="none" xmlns="http://www.w3.org/2000/svg">
<path d="M15.3047 15.3027C13.897 16.7082 11.9892 17.4976 10 17.4976C8.01083 17.4976 6.10296 16.7082 4.69531 15.3027C4.57843 15.1856 4.51279 15.0268 4.51279 14.8613C4.51279 14.6958 4.57843 14.5371 4.69531 14.4199C4.7528 14.3611 4.82146 14.3144 4.89726 14.2825C4.97306 14.2505 5.05447 14.2341 5.13672 14.2341C5.21896 14.2341 5.30038 14.2505 5.37618 14.2825C5.45198 14.3144 5.52064 14.3611 5.57813 14.4199C6.45248 15.2933 7.56613 15.8879 8.77833 16.1285C9.99052 16.3691 11.2468 16.2449 12.3885 15.7716C13.5301 15.2984 14.5058 14.4973 15.1923 13.4696C15.8787 12.442 16.2451 11.2339 16.2451 9.99805C16.2451 8.76222 15.8787 7.55412 15.1923 6.52646C14.5058 5.49881 13.5301 4.69772 12.3885 4.22447C11.2468 3.75122 9.99052 3.62704 8.77833 3.86764C7.56613 4.10823 6.45248 4.7028 5.57813 5.57618L5.24219 5.91212L6.67969 7.34962C6.76578 7.43745 6.82405 7.54874 6.84719 7.66953C6.87033 7.79033 6.85731 7.91527 6.80977 8.02871C6.76223 8.14214 6.68227 8.23902 6.57992 8.30723C6.47757 8.37543 6.35737 8.41191 6.23438 8.41212H2.48438C2.31861 8.41212 2.15964 8.34627 2.04243 8.22906C1.92522 8.11185 1.85938 7.95288 1.85938 7.78712V4.03712C1.86165 3.91331 1.89975 3.79281 1.96908 3.69021C2.0384 3.58761 2.13598 3.50729 2.25 3.45899C2.36451 3.41264 2.49019 3.40125 2.61116 3.42628C2.73213 3.45131 2.84298 3.51163 2.92969 3.59962L4.35938 5.0293L4.69531 4.69337C6.1022 3.28648 8.01036 2.49609 10 2.49609C11.9896 2.49609 13.8978 3.28648 15.3047 4.69337C16.7116 6.10026 17.502 8.00841 17.502 9.99805C17.502 11.9877 16.7116 13.8959 15.3047 15.3027Z" fill="#141416"/>
</svg>
