<svg width="65" height="64" viewBox="0 0 65 64" fill="none" xmlns="http://www.w3.org/2000/svg">
<g clip-path="url(#clip0_6440_169439)">
<path d="M22.5868 3.0485C22.1629 3.0485 21.7549 3.11663 21.3732 3.2425C20.7716 3.44075 20.1027 3.29625 19.6511 2.85212C18.6324 1.8505 17.2356 1.2325 15.6942 1.2325C14.9998 1.2325 14.3351 1.35825 13.7208 1.58788C13.0767 1.82875 12.3621 1.6425 11.8788 1.15338C11.1753 0.441375 10.1986 0 9.11845 0C7.52107 0 6.1497 0.965125 5.55432 2.34387C5.31007 2.9095 4.75945 3.26863 4.14657 3.33063C2.67282 3.4795 1.35395 4.46962 0.855072 5.95925C0.144322 8.08162 1.4282 10.3359 3.57807 10.959C5.5532 11.5315 7.60395 11.3395 8.2332 9.37237C8.30557 9.146 9.72132 9.28775 9.7512 9.06013C9.98895 9.10563 10.2341 9.13037 10.4849 9.13037C10.8248 9.13037 11.1544 9.08638 11.4687 9.00438C11.8404 11.7618 12.8352 12.5218 15.6943 12.5218C17.6173 12.5218 19.3148 11.5592 20.3339 10.0906C20.9693 10.5445 21.7467 10.8125 22.5872 10.8125C24.7031 10.8125 26.4236 9.11975 26.4682 7.0145C26.5138 4.8575 24.7442 3.04838 22.5868 3.0485Z" fill="#E7E9EB"/>
<path d="M26.4675 7.01496C26.4237 9.11996 24.7025 10.8125 22.5875 10.8125C22.0125 10.8125 21.4675 10.6875 20.9775 10.4625C22.2937 9.86246 23.2162 8.54871 23.2487 7.01496C23.285 5.36371 22.255 3.91746 20.8037 3.32871C20.9937 3.33246 21.1875 3.30371 21.3737 3.24246C21.755 3.11621 22.1625 3.04871 22.5862 3.04871C24.7437 3.04871 26.5137 4.85746 26.4675 7.01496Z" fill="#CED4DC"/>
<path d="M19.2966 54.6934C19.23 55.1532 19.2785 55.6154 19.4295 56.042C19.5615 56.4149 12.9612 57.9348 12.9612 57.9348C12.9612 57.9348 7.20774 56.4149 7.33987 56.042C7.49099 55.6153 7.53949 55.153 7.47287 54.6934L0.915868 9.1289C0.826993 8.50828 1.30862 7.9519 1.93574 7.9519H8.82499C9.10949 7.9519 9.34012 8.18253 9.34012 8.46703V14.6922C9.34012 15.7919 10.1854 16.7382 11.284 16.7898C12.4569 16.8449 13.4247 15.9105 13.4247 14.7498V8.46703C13.4247 8.18253 13.6554 7.9519 13.9399 7.9519H24.8339C25.461 7.9519 25.9426 8.50815 25.8537 9.1289L19.2966 54.6934Z" fill="#CED4DC"/>
<path d="M19.2971 54.6938C19.2296 55.1525 19.2784 55.615 19.4296 56.0425C19.4884 56.2063 18.2371 56.5938 16.8209 56.975C16.8146 56.9775 16.8071 56.98 16.7996 56.9813C16.7896 56.9825 16.7809 56.985 16.7709 56.9875C16.2121 56.365 15.9559 55.5238 16.0759 54.6938L22.6346 9.12876C22.7234 8.50876 22.2421 7.95251 21.6146 7.95251H24.8334C25.4609 7.95251 25.9421 8.50876 25.8534 9.12876L19.2971 54.6938Z" fill="#A8B0BC"/>
<path d="M23.0753 64H3.69396C2.33409 64 1.63746 62.3697 2.57621 61.3859L6.71746 57.054C6.99821 56.7604 7.20809 56.4152 7.33946 56.0419C11.2696 57.3025 15.4997 57.3025 19.4298 56.0419C19.5612 56.4152 19.7711 56.7604 20.0518 57.054L24.1931 61.3859C25.1318 62.3697 24.4352 64 23.0753 64Z" fill="#E7E9EB"/>
<path d="M23.0764 64H19.8564C21.2164 64 21.9127 62.37 20.9739 61.385L16.8327 57.0537C16.7352 56.9525 16.6477 56.8437 16.5664 56.73C17.5327 56.5737 18.4902 56.3437 19.4302 56.0425C19.5614 56.415 19.7714 56.76 20.0527 57.0537L24.1939 61.3862C25.1327 62.37 24.4364 64 23.0764 64Z" fill="#CED4DC"/>
<path d="M11.4428 16.7915H11.3232C10.2283 16.7915 9.34082 15.904 9.34082 14.8091V7.87085H13.4251V14.8091C13.4251 15.904 12.5376 16.7915 11.4428 16.7915Z" fill="#E7E9EB"/>
<path d="M46.9015 4.85699e-07C37.4382 0.00225049 29.6423 7.65437 29.4726 17.116C29.417 20.2179 30.1726 23.1383 31.5398 25.6809C31.6392 25.8658 31.6628 26.082 31.6003 26.2824L29.565 32.8115C29.4277 33.2519 29.8941 33.6369 30.3005 33.4186L35.0408 30.8726C35.3153 30.7251 35.6513 30.7572 35.8928 30.9541C38.8931 33.4012 42.7232 34.8695 46.8963 34.8716C56.4826 34.8766 64.3333 27.0371 64.3416 17.4509C64.3498 7.81312 56.5381 -0.00224951 46.9015 4.85699e-07Z" fill="#E7E9EB"/>
<path d="M64.3414 17.4513C64.3339 27.0375 56.4827 34.8763 46.8964 34.8713C46.3564 34.8713 45.8214 34.8463 45.2939 34.7975C54.1314 33.98 61.1152 26.4925 61.1227 17.4513C61.1302 8.35875 54.1789 0.888751 45.3002 0.0750006C45.3077 0.0737506 45.3152 0.0737506 45.3227 0.0712506H45.3252C45.8439 0.0250006 46.3702 5.99545e-07 46.9014 5.99545e-07C56.5389 -0.0024994 64.3502 7.81375 64.3414 17.4513Z" fill="#CED4DC"/>
<path d="M59.1699 16.4507H56.1217V13.4025C56.1217 12.8847 55.7019 12.465 55.1842 12.465C54.6664 12.465 54.2467 12.8847 54.2467 13.4025V16.4507H51.1025C50.5848 16.4507 50.165 16.8705 50.165 17.3882C50.165 17.906 50.5848 18.3257 51.1025 18.3257H54.2467V21.4698C54.2467 21.9876 54.6664 22.4073 55.1842 22.4073C55.7019 22.4073 56.1217 21.9876 56.1217 21.4698V18.3257H59.1699C59.6877 18.3257 60.1074 17.906 60.1074 17.3882C60.1074 16.8705 59.6878 16.4507 59.1699 16.4507Z" fill="#ED1C24"/>
<path d="M38.2804 10.3967H35.6719C35.1541 10.3967 34.7344 10.8165 34.7344 11.3342C34.7344 11.852 35.1541 12.2717 35.6719 12.2717H37.3429V23.5381C37.3429 24.0559 37.7626 24.4756 38.2804 24.4756C38.7981 24.4756 39.2179 24.0559 39.2179 23.5381V11.3342C39.2179 10.8165 38.7981 10.3967 38.2804 10.3967Z" fill="#ED1C24"/>
<path d="M47.4178 16.3332C48.0222 15.7024 48.3948 14.8477 48.3948 13.9071C48.3948 11.9715 46.8201 10.3967 44.8845 10.3967C42.9488 10.3967 41.3741 11.9715 41.3741 13.9071C41.3741 14.8477 41.7467 15.7024 42.3511 16.3332C41.1843 17.1399 40.418 18.4864 40.418 20.009C40.418 22.4719 42.4216 24.4756 44.8845 24.4756C47.3473 24.4756 49.3511 22.4719 49.3511 20.009C49.3511 18.4864 48.5847 17.14 47.4178 16.3332ZM43.2491 13.9071C43.2491 13.0054 43.9827 12.2717 44.8845 12.2717C45.7862 12.2717 46.5198 13.0054 46.5198 13.9071C46.5198 14.8089 45.7862 15.5425 44.8845 15.5425C43.9827 15.5425 43.2491 14.8089 43.2491 13.9071ZM44.8845 22.6007C43.4555 22.6007 42.293 21.4381 42.293 20.0091C42.293 18.5801 43.4555 17.4176 44.8845 17.4176C46.3135 17.4176 47.4761 18.5801 47.4761 20.0091C47.4761 21.4381 46.3135 22.6007 44.8845 22.6007Z" fill="#ED1C24"/>
<path d="M19.3206 18.4987C18.6746 18.5175 18.1885 17.7922 18.4556 17.2025C18.6841 16.5991 19.5402 16.4289 19.9844 16.8987C20.5714 17.4727 20.1429 18.5116 19.3206 18.4987Z" fill="white"/>
<path d="M16.3751 22.045C15.7279 22.0643 15.2429 21.3392 15.5089 20.7488C15.812 19.9859 16.937 19.9859 17.2402 20.7488C17.5069 21.3384 17.0213 22.0635 16.3751 22.045Z" fill="white"/>
<path d="M17.8774 13.3562C17.0527 13.3617 16.6262 12.3339 17.2149 11.7549C17.5641 11.3927 18.1914 11.3931 18.5411 11.7549C19.1272 12.3367 18.7041 13.3604 17.8774 13.3562Z" fill="white"/>
<path d="M17.729 27.1037C17.083 27.1227 16.5965 26.3975 16.864 25.8075C17.1663 25.0445 18.2927 25.0448 18.5952 25.8075C18.8598 26.3985 18.3768 27.1228 17.729 27.1037Z" fill="white"/>
<path d="M8.65768 27.005C8.01118 27.0233 7.52705 26.3 7.79143 25.7088C8.10168 24.9433 9.21393 24.9453 9.52393 25.7088C9.7883 26.3001 9.30418 27.023 8.65768 27.005Z" fill="white"/>
<path d="M13.5493 28.065C12.8135 28.0769 12.3519 27.2128 12.7693 26.6075C13.1665 25.99 14.1459 26.0843 14.4143 26.7688C14.6816 27.3581 14.1956 28.0841 13.5493 28.065Z" fill="white"/>
<path d="M7.06569 21.335C6.41969 21.3536 5.93369 20.6289 6.20069 20.0387C6.50207 19.2777 7.62906 19.2759 7.93194 20.0387C8.19582 20.6296 7.71331 21.3552 7.06569 21.335Z" fill="white"/>
<path d="M11.6766 23.3525C11.0306 23.371 10.5457 22.6461 10.8116 22.0562C11.1143 21.2932 12.2408 21.2952 12.5428 22.0562C12.8102 22.6464 12.3225 23.3715 11.6766 23.3525Z" fill="white"/>
<path d="M5.15403 12.9488C4.50916 12.9675 4.02316 12.2419 4.28903 11.6525C4.59803 10.8881 5.71091 10.8865 6.02016 11.6525C6.28828 12.2429 5.79991 12.967 5.15403 12.9488Z" fill="white"/>
</g>
<defs>
<clipPath id="clip0_6440_169439">
<rect width="64" height="64" fill="white" transform="translate(0.5)"/>
</clipPath>
</defs>
</svg>
