<svg width="12" height="12" viewBox="0 0 12 12" fill="none" xmlns="http://www.w3.org/2000/svg">
<path fill-rule="evenodd" clip-rule="evenodd" d="M2.375 9.625V4.625H9.625V7.125H10.625V4.5C10.625 4.01675 10.2332 3.625 9.75 3.625H2.25C1.76675 3.625 1.375 4.01675 1.375 4.5V9.75C1.375 10.2332 1.76675 10.625 2.25 10.625H6V9.625H2.375Z" fill="#DA291C"/>
<path d="M4.3125 4.125V2.4375C4.3125 1.98995 4.49029 1.56072 4.80676 1.24426C5.12323 0.92779 5.55245 0.75 6 0.75C6.44755 0.75 6.87677 0.92779 7.19324 1.24426C7.50971 1.56072 7.6875 1.98995 7.6875 2.4375V4.125" stroke="#DA291C" stroke-linecap="round" stroke-linejoin="round"/>
<path d="M6.0625 7.125C6.0625 7.15952 6.03452 7.1875 6 7.1875C5.96548 7.1875 5.9375 7.15952 5.9375 7.125C5.9375 7.09048 5.96548 7.0625 6 7.0625C6.03452 7.0625 6.0625 7.09048 6.0625 7.125Z" fill="#DA291C" stroke="#DA291C"/>
<path d="M11.25 7.5L8.5 10.125L7.125 8.8125" stroke="#DA291C" stroke-linecap="round" stroke-linejoin="round"/>
</svg>
