<svg width="32" height="32" viewBox="0 0 32 32" fill="none" xmlns="http://www.w3.org/2000/svg">
<g clip-path="url(#clip0_1194_435859)">
<path d="M16.0053 4.00482C19.4499 4.00482 22.8946 4.01083 26.339 4.00001C27.1049 3.9976 27.8536 4.51534 27.9934 5.40919C28.0042 5.47774 27.9982 5.549 27.9982 5.61905C27.9982 12.5375 27.997 19.4556 28 26.3741C28.0003 27.2321 27.3235 27.9988 26.3573 27.9988C19.4533 28.0006 12.5489 27.9997 5.64476 27.9997C4.80163 27.9997 4.12479 27.3984 4.01744 26.5623C4.00511 26.4676 4 26.3738 4 26.279C4.0003 19.4108 4.0003 12.5426 4.0003 5.67437C4.0003 4.8172 4.55657 4.15425 5.40181 4.01083C5.48961 3.9958 5.58162 4.00482 5.67182 4.00482C9.1165 4.00482 12.5609 4.00482 16.0056 4.00482H16.0053ZM7.8906 12.9271H7.8915C7.8915 13.658 7.89481 14.3886 7.88819 15.1195C7.88699 15.2476 7.92368 15.2747 8.04606 15.2732C8.60173 15.2663 9.1574 15.2651 9.71307 15.2738C9.84868 15.2759 9.87634 15.2374 9.87574 15.1075C9.87063 13.7561 9.87273 12.4046 9.87273 11.0531C9.87273 10.993 9.87183 10.9329 9.87694 10.873C9.89769 10.6319 10.0733 10.4287 10.3072 10.3718C10.6978 10.2771 11.031 10.5498 11.0313 10.9693C11.0325 12.3508 11.0334 13.7323 11.0289 15.1138C11.0286 15.2353 11.0544 15.275 11.1825 15.2732C11.7382 15.266 12.2939 15.2657 12.8495 15.2732C12.9827 15.275 13.0248 15.2452 13.0242 15.1039C13.0185 13.7473 13.0206 12.3911 13.0212 11.0345C13.0212 10.9696 13.0212 10.904 13.0309 10.84C13.0775 10.5216 13.3803 10.3063 13.6975 10.3637C14 10.4184 14.1816 10.6439 14.1819 10.9735C14.1828 12.355 14.184 13.7365 14.1792 15.118C14.1789 15.2446 14.2138 15.2747 14.3367 15.2732C14.8924 15.2666 15.4481 15.2654 16.0038 15.2738C16.1382 15.2759 16.1673 15.2398 16.1667 15.109C16.1616 13.7224 16.1718 12.336 16.1607 10.9494C16.1526 9.9374 15.6934 9.1632 14.8091 8.68395C13.9119 8.19749 13.0098 8.25973 12.1483 8.80963C12.0657 8.86255 12.0163 8.87126 11.9276 8.81444C11.0626 8.25852 10.1554 8.19809 9.25272 8.68456C8.36208 9.16441 7.90473 9.94101 7.8918 10.9599C7.88338 11.6157 7.8903 12.2714 7.8903 12.9271H7.8906ZM16.164 21.3212C16.164 20.6604 16.1715 19.9995 16.1622 19.339C16.1478 18.3128 15.6835 17.5353 14.7827 17.06C13.8977 16.5934 13.0077 16.6553 12.1598 17.1929C12.0672 17.2515 12.0094 17.2554 11.9132 17.1944C11.0773 16.6649 10.1978 16.5955 9.31616 17.0437C8.43003 17.4944 7.92879 18.2449 7.90624 19.2416C7.87346 20.6826 7.89721 22.1249 7.8927 23.5665C7.8924 23.6778 7.95224 23.6696 8.02531 23.6696C8.59601 23.6687 9.16702 23.6651 9.73742 23.6723C9.86371 23.6738 9.88206 23.6275 9.88115 23.5172C9.87634 22.9616 9.87875 22.406 9.87905 21.8504C9.87905 21.0142 9.87785 20.1784 9.87965 19.3423C9.88025 19.0161 10.1028 18.7725 10.4152 18.7458C10.7748 18.7151 11.0442 18.9863 11.0445 19.385C11.0454 20.7566 11.0463 22.1282 11.0424 23.5001C11.0421 23.6185 11.062 23.6627 11.1943 23.6609C11.7547 23.6525 12.3158 23.6534 12.8763 23.6603C13.0044 23.6618 13.0312 23.6218 13.0309 23.5001C13.026 22.4439 13.0279 21.3876 13.0282 20.3311C13.0282 19.9809 13.0233 19.63 13.0348 19.28C13.0441 18.9905 13.2747 18.7686 13.5661 18.7449C13.8445 18.7223 14.1109 18.9078 14.172 19.1787C14.1936 19.2752 14.1954 19.3775 14.1954 19.4773C14.1969 20.8239 14.1978 22.1706 14.1939 23.5172C14.1936 23.6272 14.2186 23.6612 14.3337 23.66C14.8945 23.6537 15.4553 23.654 16.0158 23.66C16.13 23.6612 16.1676 23.6363 16.1667 23.5139C16.1604 22.783 16.1637 22.0521 16.1637 21.3212H16.164ZM24.0625 11.8129C24.0619 9.90823 22.5185 8.36586 20.6145 8.36616C18.7109 8.36646 17.1644 9.90823 17.1599 11.8099C17.1551 13.7191 18.7012 15.269 20.6118 15.2702C22.5245 15.2714 24.0634 13.7299 24.0625 11.8132V11.8129ZM20.6085 16.7629C18.7012 16.7632 17.1623 18.2999 17.1596 20.2067C17.1569 22.1101 18.7 23.6564 20.6028 23.6573C22.5245 23.6582 24.0622 22.127 24.0625 20.2124C24.0625 18.2936 22.5296 16.7626 20.6085 16.7629Z" fill="#B40166"/>
<path d="M10.3063 10.3723C10.6969 10.2779 11.0301 10.5503 11.0304 10.9698C11.0316 12.3513 11.0325 13.7328 11.028 15.1143C11.0274 15.2358 11.0535 15.2755 11.1816 15.2737C11.7373 15.2665 12.293 15.2662 12.8486 15.2737C12.9818 15.2755 13.0239 15.2457 13.0233 15.1044C13.0185 13.9667 13.0193 12.8291 13.02 11.6915C13.0201 11.4726 13.0202 11.2538 13.0203 11.035C13.0203 10.9701 13.0206 10.9045 13.03 10.8405C13.0766 10.5221 13.3793 10.3071 13.6966 10.3642M10.3063 10.3723L9.25181 8.68506C10.1545 8.19859 11.0619 8.25933 11.9267 8.81494C12.0154 8.87177 12.0647 8.86305 12.1474 8.81013M10.3063 10.3723C10.0724 10.4292 9.89678 10.6321 9.87604 10.8735M10.3063 10.3723L9.87604 10.8735M13.6966 10.3642C13.9994 10.4187 14.181 10.6444 14.181 10.974L14.1811 11.1714C14.182 12.4871 14.1829 13.8028 14.1783 15.1185M13.6966 10.3642L13.7852 9.87215L13.785 9.87212M13.6966 10.3642L13.785 9.87212M14.1783 15.1185C14.178 15.2451 14.2129 15.2752 14.3358 15.2737C14.8915 15.2668 15.4472 15.2656 16.0029 15.2743C16.1373 15.2764 16.1664 15.2403 16.1658 15.1095C16.1637 14.5269 16.1642 13.9443 16.1647 13.3617C16.1654 12.5577 16.1661 11.7538 16.1598 10.9499C16.1517 9.9379 15.6925 9.16401 14.8082 8.68446C13.911 8.19799 13.0092 8.26023 12.1474 8.81013M14.1783 15.1185L14.3339 15.1189L14.3358 15.2726L14.3339 15.1191L14.1783 15.1185ZM12.1474 8.81013L12.4169 9.23128C12.3604 9.26744 12.2347 9.34453 12.0644 9.35306C11.8817 9.36222 11.7415 9.2901 11.657 9.23596L11.6565 9.2356C10.935 8.77205 10.2216 8.73039 9.48901 9.12521L9.48896 9.12524C8.76329 9.51621 8.40182 10.1234 8.39085 10.9669L15.6598 10.9538C15.6531 10.121 15.2917 9.51543 14.5699 9.12399C13.8439 8.73041 13.1362 8.77229 12.4164 9.23163L12.1474 8.81013ZM13.785 9.87212C13.1938 9.76574 12.6233 10.1661 12.5352 10.7681L12.5352 10.7685M13.785 9.87212L12.5352 10.7685M12.5352 10.7685C12.5203 10.8706 12.5203 10.9685 12.5203 11.0297L12.5203 11.0348C12.5203 11.0348 12.5203 11.0348 12.5203 11.0348C12.5203 11.0349 12.5203 11.0349 12.5203 11.035C12.5202 11.2536 12.5201 11.4722 12.52 11.6909C12.5193 12.7166 12.5187 13.7433 12.5221 14.7701M12.5352 10.7685L12.5221 14.7701M12.5221 14.7701C12.191 14.7675 11.8599 14.7675 11.529 14.7701C11.5323 13.5027 11.5315 12.2356 11.5304 10.9694L12.5221 14.7701ZM10.1883 9.88648L10.1889 9.88634C10.529 9.80412 10.8728 9.87873 11.1324 10.0923C11.3902 10.3044 11.5301 10.6242 11.5304 10.9693L10.1883 9.88648ZM10.1883 9.88648C9.74677 9.99373 9.41711 10.3741 9.37787 10.8307L9.37785 10.831M10.1883 9.88648L9.37785 10.831M9.37785 10.831C9.37137 10.9068 9.37162 10.9832 9.37178 11.0337C9.3718 11.0409 9.37183 11.0476 9.37183 11.0536C9.37183 11.3584 9.37172 11.6633 9.37161 11.9683C9.37128 12.9016 9.37095 13.8359 9.3737 14.7701M9.37785 10.831L9.3737 14.7701M9.3737 14.7701C9.0453 14.7673 8.71729 14.7676 8.38975 14.7701C8.39198 14.3373 8.39149 13.9044 8.39101 13.4733C8.3908 13.291 8.39059 13.1091 8.39059 12.9276V12.4276H8.38843C8.3883 12.3883 8.38817 12.349 8.38804 12.3097C8.38657 11.8599 8.3851 11.4147 8.39085 10.9669L9.3737 14.7701ZM9.87604 10.8735C9.87159 10.9256 9.87169 10.9778 9.8718 11.0301M9.87604 10.8735L9.8718 11.0301M9.8718 11.0301C9.87181 11.038 9.87183 11.0458 9.87183 11.0536M9.8718 11.0301L9.87183 11.0536M9.87183 11.0536C9.87183 11.3588 9.87172 11.6639 9.87161 11.9691M9.87183 11.0536L9.87161 11.9691M9.87161 11.9691C9.87124 13.0154 9.87088 14.0617 9.87483 15.108M9.87161 11.9691L9.87483 15.108M9.87483 15.108C9.87543 15.2376 9.84777 15.2764 9.71216 15.2743L9.87483 15.108ZM16.0166 14.7743C16.0166 14.7743 16.0158 14.7743 16.0143 14.7744L16.0166 14.7743ZM12.5232 15.1119C12.5232 15.1119 12.5232 15.1111 12.5233 15.1097L12.5232 15.1119ZM9.72501 14.7743C9.72505 14.7743 9.72427 14.7744 9.72259 14.7744L9.72501 14.7743ZM8.03893 14.7737C8.03415 14.7738 8.03199 14.7737 8.03203 14.7737C8.03207 14.7736 8.03453 14.7737 8.03893 14.7741L8.04325 15.1214L8.04325 15.1215L8.03893 14.7737ZM8.38732 15.1287C8.3873 15.1287 8.38726 15.128 8.38726 15.1263L8.38732 15.1287Z" fill="#FEFDFD" stroke="white"/>
<path d="M15.662 20.821H15.6633C15.6634 20.7814 15.6636 20.7418 15.6637 20.7023C15.6653 20.2477 15.6669 19.798 15.6605 19.3458L15.6605 19.3458C15.6486 18.4972 15.2817 17.8892 14.5477 17.502L15.662 20.821ZM15.662 20.821V21.321M15.662 20.821V21.321M15.662 21.321C15.662 21.5026 15.6618 21.6846 15.6616 21.8669C15.6612 22.2958 15.6607 22.7264 15.6627 23.1569C15.3395 23.155 15.0163 23.1549 14.6931 23.1568C14.6959 21.9298 14.695 20.703 14.6937 19.4769C14.6937 19.3792 14.6933 19.2258 14.6581 19.0691L14.658 19.0686C14.539 18.5405 14.0357 18.2048 13.524 18.2463L13.5237 18.2463C13.0041 18.2887 12.5516 18.6957 12.5333 19.2637L12.5333 19.2639C12.5245 19.5384 12.5253 19.8158 12.526 20.0831C12.5262 20.1667 12.5265 20.2493 12.5264 20.3305V20.3306C12.5263 20.4626 12.5262 20.5947 12.5261 20.7267C12.5256 21.5358 12.525 22.346 12.5277 23.1566M15.662 21.321L12.5277 23.1566M12.5277 23.1566C12.1993 23.1541 11.8706 23.1539 11.5416 23.1566C11.5447 21.8989 11.5439 20.6414 11.5428 19.3845M12.5277 23.1566L11.5428 19.3845M16.014 23.6598L16.0152 23.5149L15.665 23.5178C15.665 23.5177 15.665 23.5175 15.665 23.5174L14.6922 23.5184C14.6921 23.5245 14.6924 23.5239 14.692 23.5184L14.3305 23.5174L14.332 23.6598M16.014 23.6598C15.4532 23.6541 14.8925 23.6538 14.332 23.6598M16.014 23.6598L16.0155 23.5149L16.1616 21.8691C16.161 22.4173 16.1605 22.9655 16.165 23.5137C16.1659 23.636 16.1283 23.6607 16.014 23.6598ZM14.332 23.6598L14.3305 23.5174L14.1922 23.517C14.1919 23.627 14.2171 23.661 14.332 23.6598ZM14.3267 23.1598C14.324 23.1599 14.3243 23.1597 14.327 23.1598M14.3267 23.1598L14.327 23.1598M14.3267 23.1598C14.3268 23.1598 14.3269 23.1598 14.327 23.1598M14.3267 23.1598L14.327 23.1598M11.5428 19.3845C11.5427 19.0725 11.4357 18.7728 11.2188 18.553C10.9983 18.3297 10.6934 18.2199 10.3709 18.2474L10.3707 18.2474C9.79114 18.297 9.37949 18.7646 9.37789 19.3407L9.37789 19.341C9.3766 19.9389 9.37685 20.5369 9.37709 21.1343C9.37719 21.373 9.37729 21.6117 9.37729 21.8501C9.37729 21.9958 9.3771 22.142 9.37691 22.2886C9.37654 22.581 9.37616 22.8749 9.37727 23.1689C9.04769 23.167 8.71848 23.1678 8.39148 23.1686C8.39145 22.8209 8.39026 22.4747 8.38908 22.1295C8.38579 21.1671 8.38253 20.2122 8.40435 19.2527L8.40435 19.2526C8.4225 18.4505 8.80943 17.8613 9.54103 17.4892L11.5428 19.3845ZM11.6442 17.6168L11.6439 17.6166C10.9465 17.1748 10.2545 17.1264 9.54107 17.4892L11.6442 17.6168ZM11.6442 17.6168C11.7286 17.6701 11.8662 17.7414 12.0451 17.7382C12.2202 17.7351 12.3521 17.6615 12.4254 17.6151L12.4257 17.6149M11.6442 17.6168L12.4257 17.6149M12.4257 17.6149C13.1325 17.1668 13.8317 17.1245 14.5476 17.502L12.4257 17.6149ZM12.883 23.1601C12.883 23.1601 12.8822 23.1601 12.8808 23.1601C12.8823 23.1601 12.8831 23.1601 12.883 23.1601ZM14.1937 19.477C14.1937 19.3775 14.1919 19.275 14.1702 19.1785C14.1092 18.9076 13.8428 18.7221 13.5643 18.7446L14.1937 19.477Z" fill="#FEFDFD" stroke="white"/>
<path d="M23.5628 11.8124V11.8123V11.8121V11.8124ZM23.5628 11.8124C23.5633 13.4538 22.2477 14.7703 20.6124 14.7692M23.5628 11.8124L20.6124 14.7692M22.5185 11.3276H22.5843L22.5809 11.8309C22.5736 12.9199 21.6824 13.7928 20.5936 13.7852L22.5185 11.3276ZM22.5185 11.3276C22.3017 10.4883 21.542 9.86168 20.6361 9.85111L22.5185 11.3276ZM20.6124 14.7692C18.9779 14.7682 17.6561 13.4428 17.6602 11.8102M20.6124 14.7692L17.6602 11.8102M17.6602 11.8102C17.6643 10.1846 18.9867 8.86579 20.6148 8.86523L20.6121 15.2692C18.7015 15.268 17.1554 13.7184 17.1602 11.809L17.6602 11.8102ZM20.6149 8.86523C22.2429 8.86502 23.5622 10.1835 23.5628 11.812L20.6149 8.86523ZM20.6359 9.85111C19.5492 9.83827 18.6555 10.7174 18.6441 11.804L20.6359 9.85111ZM18.6441 11.8041C18.6328 12.8792 19.5182 13.7778 20.5935 13.7852L18.6441 11.8041Z" fill="#FEFDFD" stroke="white"/>
<path d="M20.6006 18.2429L20.6008 18.2429C21.6794 18.2348 22.5714 19.1102 22.5803 20.1892V20.1892C22.5891 21.2593 21.7309 22.1648 20.6578 22.1746L20.6577 22.1746C19.5536 22.1845 18.6462 21.3204 18.6438 20.2133L20.6006 18.2429ZM20.6006 18.2429C19.5238 18.2514 18.6414 19.1359 18.6438 20.2133L20.6006 18.2429ZM20.6036 23.1581H20.6036C18.977 23.1573 17.6578 21.8351 17.6602 20.2081C17.6625 18.5773 18.9776 17.2639 20.6091 17.2637C22.2546 17.2634 23.5631 18.571 23.5631 20.2131C23.5631 21.85 22.2511 23.1591 20.6036 23.1581Z" fill="#FEFDFD" stroke="white"/>
<path d="M22.0814 11.8282C22.0763 12.6391 21.4121 13.2915 20.5975 13.2858C19.798 13.2801 19.1359 12.6075 19.1446 11.8099C19.1533 10.9981 19.8218 10.342 20.6306 10.3517C21.4356 10.3613 22.0862 11.0236 22.0811 11.8282H22.0814Z" fill="#B40166"/>
<path d="M20.6053 18.7422C21.4087 18.7359 22.0744 19.3905 22.0811 20.1926C22.0877 20.9963 21.4418 21.6667 20.654 21.6739C19.8175 21.6818 19.1466 21.0317 19.1445 20.2115C19.1427 19.4112 19.8015 18.7485 20.6053 18.7422Z" fill="#B40166"/>
</g>
<defs>
<clipPath id="clip0_1194_435859">
<rect width="24" height="24" fill="white" transform="translate(4 4)"/>
</clipPath>
</defs>
</svg>
