<svg width="24" height="24" viewBox="0 0 24 24" fill="none" xmlns="http://www.w3.org/2000/svg">
<rect width="24" height="24" rx="12" fill="#3ACE01"/>
<path fill-rule="evenodd" clip-rule="evenodd" d="M12.0002 5.39355C15.93 5.39355 19.1157 7.94679 19.1157 11.0964C19.1157 12.1965 18.7267 13.2237 18.0534 14.0948C18.02 14.1444 17.9765 14.1992 17.9216 14.2597L17.9175 14.2642C17.6875 14.5397 17.4284 14.7982 17.1437 15.0369C15.176 16.8573 11.9372 19.0246 11.5097 18.6902C11.1381 18.3996 12.1218 16.978 10.9869 16.7414C10.9078 16.7323 10.8288 16.7225 10.7505 16.7114L10.749 16.7113V16.7112C7.41592 16.2373 4.88477 13.9038 4.88477 11.0964C4.88466 7.94679 8.07041 5.39355 12.0002 5.39355Z" fill="white"/>
<path fill-rule="evenodd" clip-rule="evenodd" d="M7.87207 12.9147H9.30714C9.51128 12.9147 9.67824 12.7476 9.67824 12.5432V12.5123C9.67824 12.3079 9.51128 12.1408 9.30714 12.1408H8.27412V9.78841C8.27412 9.5841 8.10716 9.41699 7.90303 9.41699H7.87207C7.66794 9.41699 7.50098 9.5841 7.50098 9.78841V12.5432C7.50098 12.7476 7.66794 12.9147 7.87207 12.9147ZM16.7645 11.188V11.157C16.7645 10.9527 16.5975 10.7856 16.3934 10.7856H15.3604V10.1974H16.3934C16.5975 10.1974 16.7645 10.0303 16.7645 9.82603V9.79504C16.7645 9.59073 16.5975 9.42362 16.3934 9.42362H14.9583C14.7542 9.42362 14.5872 9.59073 14.5872 9.79504V12.5498C14.5872 12.7541 14.7542 12.9213 14.9583 12.9213H16.3934C16.5975 12.9213 16.7645 12.7541 16.7645 12.5498V12.5188C16.7645 12.3145 16.5975 12.1474 16.3934 12.1474H15.3604V11.5593H16.3934C16.5975 11.5594 16.7645 11.3922 16.7645 11.188ZM14.0047 12.804L14.0048 12.8038C14.0735 12.7345 14.1121 12.6409 14.1121 12.5433V9.78852C14.1121 9.5842 13.9452 9.4171 13.741 9.4171H13.71C13.5059 9.4171 13.3389 9.5842 13.3389 9.78852V11.4056L11.9976 9.60491C11.9335 9.49294 11.8129 9.4171 11.6754 9.4171H11.6444C11.4403 9.4171 11.2733 9.5842 11.2733 9.78852V12.5433C11.2733 12.7476 11.4403 12.9148 11.6444 12.9148H11.6754C11.8795 12.9148 12.0465 12.7476 12.0465 12.5433V10.8959L13.3975 12.7428C13.4058 12.7558 13.4149 12.7682 13.4247 12.78L13.4247 12.7801C13.4618 12.8308 13.5126 12.8655 13.5692 12.8868C13.6127 12.9047 13.6602 12.9147 13.71 12.9147H13.7409C13.8014 12.9147 13.861 12.8998 13.9143 12.8713C13.9514 12.8537 13.9827 12.8308 14.0047 12.804ZM10.3488 12.9147H10.3798C10.5839 12.9147 10.7509 12.7476 10.7509 12.5432V9.78846C10.7509 9.58415 10.5839 9.41704 10.3798 9.41704H10.3488C10.1447 9.41704 9.97771 9.58415 9.97771 9.78846V12.5432C9.97771 12.7476 10.1447 12.9147 10.3488 12.9147Z" fill="#3ACE01"/>
</svg>
