<svg width="56" height="56" viewBox="0 0 56 56" fill="none" xmlns="http://www.w3.org/2000/svg">
<path d="M38.2877 22.7193C38.4272 22.7985 38.5924 22.8193 38.7472 22.7772C38.902 22.7351 39.0339 22.6334 39.1141 22.4944C39.1938 22.3556 39.2156 22.191 39.1746 22.0362C39.1337 21.8815 39.0333 21.7491 38.8953 21.668L37.68 20.9631V19.5593C37.68 19.3982 37.616 19.2436 37.502 19.1296C37.388 19.0157 37.2335 18.9517 37.0723 18.9517C36.9111 18.9517 36.7566 19.0157 36.6426 19.1296C36.5286 19.2436 36.4646 19.3982 36.4646 19.5593V20.9631L33.4688 22.695V19.2373L34.6841 18.5324C34.7568 18.4944 34.8209 18.4421 34.8728 18.3786C34.9247 18.3152 34.9632 18.2419 34.9861 18.1632C35.0089 18.0845 35.0156 18.002 35.0057 17.9206C34.9958 17.8393 34.9696 17.7608 34.9286 17.6898C34.8876 17.6188 34.8326 17.5569 34.767 17.5077C34.7015 17.4586 34.6266 17.4232 34.547 17.4037C34.4674 17.3842 34.3847 17.381 34.3038 17.3943C34.223 17.4076 34.1456 17.4371 34.0765 17.4811L32.8611 18.186L31.6457 17.4811C31.5766 17.4371 31.4992 17.4076 31.4184 17.3943C31.3375 17.381 31.2548 17.3842 31.1752 17.4037C31.0956 17.4232 31.0207 17.4586 30.9552 17.5077C30.8896 17.5569 30.8346 17.6188 30.7936 17.6898C30.7526 17.7608 30.7264 17.8393 30.7165 17.9206C30.7066 18.002 30.7133 18.0845 30.7361 18.1632C30.759 18.2419 30.7975 18.3152 30.8494 18.3786C30.9013 18.4421 30.9654 18.4944 31.0381 18.5324L32.2534 19.2373V22.695L29.2576 20.9631V19.5593C29.2576 19.3982 29.1936 19.2436 29.0796 19.1296C28.9656 19.0157 28.8111 18.9517 28.6499 18.9517C28.4887 18.9517 28.3342 19.0157 28.2202 19.1296C28.1062 19.2436 28.0422 19.3982 28.0422 19.5593V20.9631L26.8269 21.668C26.6889 21.7491 26.5885 21.8815 26.5476 22.0362C26.5066 22.191 26.5284 22.3556 26.6081 22.4944C26.6883 22.6334 26.8201 22.7351 26.975 22.7772C27.1298 22.8193 27.295 22.7985 27.4345 22.7193L28.6499 22.0144L31.6457 23.7462L28.6499 25.4781L27.4345 24.7732C27.2957 24.7006 27.1341 24.6844 26.9836 24.728C26.833 24.7717 26.7052 24.8719 26.6268 25.0076C26.5483 25.1432 26.5254 25.304 26.5626 25.4562C26.5999 25.6085 26.6946 25.7404 26.8269 25.8245L28.0422 26.5294V27.9331C28.0422 28.0943 28.1062 28.2489 28.2202 28.3628C28.3342 28.4768 28.4887 28.5408 28.6499 28.5408C28.8111 28.5408 28.9656 28.4768 29.0796 28.3628C29.1936 28.2489 29.2576 28.0943 29.2576 27.9331V26.5294L32.2534 24.7975V28.2552L31.0381 28.9601C30.9654 28.9981 30.9013 29.0504 30.8494 29.1138C30.7975 29.1773 30.759 29.2505 30.7361 29.3292C30.7133 29.408 30.7066 29.4905 30.7165 29.5718C30.7264 29.6532 30.7526 29.7317 30.7936 29.8027C30.8346 29.8736 30.8896 29.9355 30.9552 29.9847C31.0207 30.0339 31.0956 30.0693 31.1752 30.0888C31.2548 30.1083 31.3375 30.1115 31.4184 30.0982C31.4992 30.0849 31.5766 30.0554 31.6457 30.0114L32.8611 29.3065L34.0765 30.0114C34.1456 30.0554 34.223 30.0849 34.3038 30.0982C34.3847 30.1115 34.4674 30.1083 34.547 30.0888C34.6266 30.0693 34.7015 30.0339 34.767 29.9847C34.8326 29.9355 34.8876 29.8736 34.9286 29.8027C34.9696 29.7317 34.9958 29.6532 35.0057 29.5718C35.0156 29.4905 35.0089 29.408 34.9861 29.3292C34.9632 29.2505 34.9247 29.1773 34.8728 29.1138C34.8209 29.0504 34.7568 28.9981 34.6841 28.9601L33.4688 28.2552V24.7975L36.4646 26.5294V27.9331C36.4646 28.0943 36.5286 28.2489 36.6426 28.3628C36.7566 28.4768 36.9111 28.5408 37.0723 28.5408C37.2335 28.5408 37.388 28.4768 37.502 28.3628C37.616 28.2489 37.68 28.0943 37.68 27.9331V26.5294L38.8953 25.8245C39.0276 25.7404 39.1223 25.6085 39.1596 25.4562C39.1968 25.304 39.1739 25.1432 39.0954 25.0076C39.017 24.8719 38.8892 24.7717 38.7386 24.728C38.5881 24.6844 38.4265 24.7006 38.2877 24.7732L37.0723 25.4781L34.0765 23.7462L37.0723 22.0144L38.2877 22.7193Z" fill="#DA291C"/>
<path d="M44.3889 14.329V12.1679C44.3893 12.07 44.3638 11.9737 44.315 11.8889C44.2662 11.804 44.1959 11.7335 44.1111 11.6846L42.1667 10.5735C42.0822 10.5247 41.9864 10.499 41.8889 10.499C41.7914 10.499 41.6956 10.5247 41.6111 10.5735L39.9444 11.529L38.2778 10.5735C38.1933 10.5247 38.0975 10.499 38 10.499C37.9025 10.499 37.8067 10.5247 37.7222 10.5735L36.0556 11.529L34.3889 10.5735C34.3044 10.5247 34.2086 10.499 34.1111 10.499C34.0136 10.499 33.9178 10.5247 33.8333 10.5735L32.1667 11.529L30.5 10.5735C30.4155 10.5247 30.3197 10.499 30.2222 10.499C30.1247 10.499 30.0289 10.5247 29.9444 10.5735L28.2778 11.529L26.6111 10.5735C26.5267 10.5247 26.4309 10.499 26.3333 10.499C26.2358 10.499 26.14 10.5247 26.0556 10.5735L24.3889 11.529L22.7222 10.5735C22.6378 10.5247 22.542 10.499 22.4444 10.499C22.3469 10.499 22.2511 10.5247 22.1667 10.5735L20.2222 11.6846C20.1374 11.7335 20.0671 11.804 20.0183 11.8889C19.9695 11.9737 19.9441 12.07 19.9444 12.1679V14.329C19.2053 17.673 18.8327 21.0876 18.8333 24.5123V25.1901L18.7722 25.2235C18.5621 25.3686 18.3826 25.5537 18.244 25.7683C18.1054 25.9828 18.0104 26.2226 17.9645 26.4738C17.9186 26.725 17.9226 26.9829 17.9764 27.2326C18.0301 27.4823 18.1325 27.7189 18.2778 27.929C18.4316 28.1546 18.6325 28.3441 18.8667 28.4846C18.9111 29.4957 18.9889 30.4957 19.0944 31.4846L17.6667 30.6623C17.271 30.4344 16.8252 30.3076 16.3688 30.2931C15.9124 30.2785 15.4594 30.3768 15.05 30.579L13.6944 29.0235C13.6362 28.9569 13.5629 28.9051 13.4807 28.8725C13.3984 28.84 13.3096 28.8275 13.2216 28.8362C13.1335 28.8449 13.0488 28.8745 12.9745 28.9225C12.9003 28.9706 12.8385 29.0356 12.7944 29.1123L11.1278 32.0012C11.0837 32.0776 11.0585 32.1634 11.0542 32.2515C11.0499 32.3396 11.0666 32.4275 11.103 32.5078C11.1393 32.5882 11.1943 32.6587 11.2634 32.7136C11.3324 32.7685 11.4135 32.8061 11.5 32.8235L13.5222 33.2346C13.5312 33.4225 13.561 33.6088 13.6111 33.7901C13.8065 34.4943 14.2716 35.0931 14.9056 35.4568L15.1389 35.5901C15.0754 35.7544 15.0253 35.9234 14.9889 36.0957C14.4434 36.1954 13.9403 36.4561 13.5443 36.8442C13.1482 37.2323 12.8774 37.7301 12.7667 38.2735H11.0556C10.9082 38.2735 10.7669 38.332 10.6627 38.4362C10.5585 38.5404 10.5 38.6817 10.5 38.829C10.5012 39.771 10.8444 40.6805 11.4656 41.3886C12.0868 42.0967 12.944 42.5552 13.8778 42.679C13.9996 43.4642 14.398 44.1801 15.001 44.6976C15.604 45.215 16.3721 45.5 17.1667 45.5012H29.9444C30.7391 45.5 31.5071 45.215 32.1101 44.6976C32.7132 44.1801 33.1115 43.4642 33.2333 42.679C34.0131 42.5759 34.7433 42.2388 35.3275 41.7121C35.9117 41.1854 36.3224 40.494 36.5056 39.729L37.7222 40.429C37.8067 40.4778 37.9025 40.5034 38 40.5034C38.0975 40.5034 38.1933 40.4778 38.2778 40.429L39.9444 39.4735L41.6111 40.429C41.6956 40.4778 41.7914 40.5034 41.8889 40.5034C41.9864 40.5034 42.0822 40.4778 42.1667 40.429L44.1111 39.3179C44.1959 39.269 44.2662 39.1985 44.315 39.1136C44.3638 39.0287 44.3893 38.9325 44.3889 38.8346V36.6735C45.128 33.3294 45.5006 29.9148 45.5 26.4901V24.5123C45.5006 21.0876 45.128 17.673 44.3889 14.329ZM13.8889 31.6679C13.8028 31.8159 13.7321 31.9722 13.6778 32.1346L12.4778 31.8846L13.3722 30.3346L14.1889 31.2512C14.0747 31.3794 13.9742 31.519 13.8889 31.6679ZM21.0556 12.4901L22.4444 11.6957L24.1111 12.6512C24.1956 12.7 24.2914 12.7257 24.3889 12.7257C24.4864 12.7257 24.5822 12.7 24.6667 12.6512L26.3333 11.6957L28 12.6512C28.0845 12.7 28.1803 12.7257 28.2778 12.7257C28.3753 12.7257 28.4711 12.7 28.5556 12.6512L30.2222 11.6957L31.8889 12.6512C31.9733 12.7 32.0691 12.7257 32.1667 12.7257C32.2642 12.7257 32.36 12.7 32.4444 12.6512L34.1111 11.6957L35.7778 12.6512C35.8622 12.7 35.958 12.7257 36.0556 12.7257C36.1531 12.7257 36.2489 12.7 36.3333 12.6512L38 11.6957L39.6667 12.6512C39.7511 12.7 39.8469 12.7257 39.9444 12.7257C40.042 12.7257 40.1378 12.7 40.2222 12.6512L41.8889 11.6957L43.2778 12.4901V13.8346H21.0556V12.4901ZM19.3889 26.1346C19.4786 26.0718 19.5798 26.0273 19.6867 26.0036C19.7937 25.9799 19.9042 25.9776 20.012 25.9967C20.1199 26.0158 20.2229 26.0559 20.3152 26.1149C20.4075 26.1738 20.4873 26.2503 20.55 26.3401C20.635 26.4599 20.7639 26.5412 20.9086 26.5661C21.0533 26.5911 21.202 26.5578 21.3222 26.4735C21.4429 26.3893 21.5253 26.2608 21.5513 26.1161C21.5773 25.9713 21.5449 25.8221 21.4611 25.7012C21.3661 25.5662 21.3133 25.406 21.3094 25.241C21.3055 25.0759 21.3508 24.9134 21.4394 24.7741C21.5281 24.6348 21.6561 24.525 21.8073 24.4586C21.9584 24.3922 22.1259 24.3721 22.2885 24.401C22.451 24.43 22.6013 24.5065 22.7203 24.621C22.8393 24.7355 22.9216 24.8827 22.9567 25.044C22.9919 25.2053 22.9783 25.3735 22.9178 25.5271C22.8573 25.6807 22.7524 25.8128 22.6167 25.9068C22.4969 25.9918 22.4156 26.1207 22.3906 26.2654C22.3657 26.4101 22.399 26.5588 22.4833 26.679L24.7056 29.8679L23.3444 30.8235L21.1222 27.6346C21.0373 27.5148 20.9083 27.4335 20.7636 27.4085C20.6189 27.3836 20.4702 27.4169 20.35 27.5012C20.2603 27.5643 20.159 27.6092 20.0519 27.6331C19.9449 27.6571 19.8341 27.6597 19.7261 27.6409C19.618 27.6221 19.5147 27.5821 19.422 27.5234C19.3294 27.4646 19.2492 27.3882 19.1861 27.2985C19.123 27.2087 19.0782 27.1074 19.0542 27.0004C19.0303 26.8933 19.0276 26.7826 19.0465 26.6745C19.0653 26.5664 19.1052 26.4631 19.164 26.3705C19.2227 26.2778 19.2992 26.1977 19.3889 26.1346ZM23.3444 32.4679C23.3151 32.4085 23.308 32.3407 23.3243 32.2765C23.3406 32.2123 23.3792 32.1561 23.4333 32.1179L25.9056 30.3901C25.9589 30.3519 26.0242 30.3342 26.0896 30.3403C26.1549 30.3465 26.2158 30.376 26.2611 30.4235C27.3281 31.5712 28.6648 32.4344 30.15 32.9346C31.2363 33.2746 32.1508 34.0185 32.7048 35.0129C33.2589 36.0073 33.4103 37.1763 33.1278 38.279H24.5333C24.419 37.8613 24.3702 37.4284 24.3889 36.9957C24.4287 35.425 24.0774 33.8691 23.3667 32.4679H23.3444ZM22.35 32.9623C22.4333 33.1401 22.5167 33.3179 22.5889 33.5179L20.3 32.1679C20.1611 31.0568 20.0722 29.9068 20.0167 28.7568C20.1808 28.7466 20.343 28.7168 20.5 28.6679L22.5 31.5235C22.3476 31.728 22.255 31.9708 22.2324 32.2248C22.2099 32.4789 22.2583 32.7342 22.3722 32.9623H22.35ZM14.85 32.2235C14.9593 32.0337 15.105 31.8673 15.2787 31.7339C15.4524 31.6004 15.6507 31.5025 15.8622 31.4458C16.0738 31.389 16.2944 31.3745 16.5116 31.4031C16.7287 31.4317 16.9381 31.5028 17.1278 31.6123L23.1111 35.0679C23.2426 35.6848 23.2986 36.3153 23.2778 36.9457C23.2591 37.393 23.2964 37.8409 23.3889 38.279H22.6611C22.5504 37.7357 22.2796 37.2379 21.8835 36.8498C21.4875 36.4617 20.9844 36.201 20.4389 36.1012C20.3201 35.4666 19.9839 34.8931 19.4881 34.4794C18.9923 34.0658 18.3679 33.8377 17.7222 33.8346C17.3554 33.835 16.9923 33.9089 16.6545 34.0521C16.3167 34.1952 16.011 34.4046 15.7556 34.6679L15.4611 34.5012C15.2713 34.3919 15.105 34.2462 14.9715 34.0725C14.8381 33.8988 14.7402 33.7006 14.6834 33.489C14.6267 33.2775 14.6122 33.0568 14.6408 32.8397C14.6693 32.6225 14.7404 32.4131 14.85 32.2235ZM15.5 37.1679C15.6473 37.1679 15.7887 37.1094 15.8928 37.0052C15.997 36.901 16.0556 36.7597 16.0556 36.6123C16.0556 36.1703 16.2312 35.7464 16.5437 35.4338C16.8563 35.1213 17.2802 34.9457 17.7222 34.9457C18.1642 34.9457 18.5882 35.1213 18.9007 35.4338C19.2133 35.7464 19.3889 36.1703 19.3889 36.6123C19.3889 36.7597 19.4474 36.901 19.5516 37.0052C19.6558 37.1094 19.7971 37.1679 19.9444 37.1679C20.2883 37.1689 20.6234 37.2762 20.9039 37.4751C21.1844 37.674 21.3965 37.9548 21.5111 38.279H13.9333C14.048 37.9548 14.26 37.674 14.5405 37.4751C14.821 37.2762 15.1561 37.1689 15.5 37.1679ZM29.9444 44.3901H17.1667C16.6752 44.3885 16.1982 44.2241 15.8102 43.9225C15.4222 43.621 15.1451 43.1993 15.0222 42.7235H32.0889C31.966 43.1993 31.6889 43.621 31.3009 43.9225C30.9129 44.2241 30.4359 44.3885 29.9444 44.3901ZM32.7222 41.6123H14.3889C13.7485 41.6125 13.1278 41.3914 12.6317 40.9864C12.1357 40.5815 11.7947 40.0175 11.6667 39.3901H35.4444C35.3164 40.0175 34.9755 40.5815 34.4794 40.9864C33.9833 41.3914 33.3626 41.6125 32.7222 41.6123ZM43.2778 38.5123L41.8889 39.3068L40.2222 38.3512C40.1378 38.3025 40.042 38.2768 39.9444 38.2768C39.8469 38.2768 39.7511 38.3025 39.6667 38.3512L38 39.3068L36.3333 38.3568C36.2492 38.3069 36.1534 38.28 36.0556 38.279H34.2667C34.3396 37.9131 34.3768 37.541 34.3778 37.1679H43.2778V38.5123ZM44.3889 26.4901C44.3882 29.7053 44.0511 32.9117 43.3833 36.0568H34.2611C34.0684 35.0863 33.6173 34.1858 32.9553 33.4505C32.2933 32.7151 31.445 32.1722 30.5 31.879C29.1887 31.435 28.0088 30.6712 27.0667 29.6568C26.8906 29.4713 26.6663 29.3387 26.4189 29.2739C26.1716 29.2091 25.911 29.2147 25.6667 29.2901L23.6667 26.429C23.8505 26.1962 23.9787 25.9243 24.0413 25.6343C24.1039 25.3443 24.0993 25.0438 24.0279 24.7559C23.9564 24.4679 23.8201 24.2001 23.6292 23.973C23.4383 23.7459 23.198 23.5654 22.9266 23.4455C22.6552 23.3256 22.36 23.2693 22.0636 23.2811C21.7671 23.2928 21.4773 23.3723 21.2163 23.5133C20.9552 23.6544 20.73 23.8533 20.5577 24.0948C20.3854 24.3363 20.2706 24.6141 20.2222 24.9068C20.1228 24.892 20.0227 24.8828 19.9222 24.879V24.5123C19.9303 21.2963 20.2747 18.09 20.95 14.9457H43.3833C44.0511 18.0908 44.3882 21.2971 44.3889 24.5123V26.4901Z" fill="#23262F"/>
</svg>
