<svg width="53" height="52" viewBox="0 0 53 52" fill="none" xmlns="http://www.w3.org/2000/svg">
<g clip-path="url(#clip0_1778_111791)">
<path d="M18.03 41.0963C17.6488 41.0963 17.3398 41.4053 17.3398 41.7864C17.3398 42.1676 17.6488 42.4766 18.03 42.4766H23.4924C23.8735 42.4766 24.1825 42.1676 24.1825 41.7864C24.1825 41.4053 23.8735 41.0963 23.4924 41.0963H18.03Z" fill="#23262F"/>
<path d="M18.03 37.4401C17.6488 37.4401 17.3398 37.7491 17.3398 38.1302C17.3398 38.5113 17.6488 38.8203 18.03 38.8203H23.4924C23.8735 38.8203 24.1825 38.5113 24.1825 38.1302C24.1825 37.7491 23.8735 37.4401 23.4924 37.4401H18.03Z" fill="#23262F"/>
<path d="M23.0025 19.0419L21.4907 17.0959C21.1808 16.6973 21.0108 16.1992 21.0108 15.6946V8.09508C21.2393 7.92232 21.3883 7.64902 21.3883 7.34098V5.57684C21.3883 5.2688 21.2393 4.99549 21.0108 4.82273V3.92055C21.0108 3.19296 20.4185 2.60156 19.6918 2.60156H16.2951C15.5676 2.60156 14.9762 3.19296 14.9762 3.92055V4.82273C14.7476 4.99549 14.5986 5.2688 14.5986 5.57684V7.34098C14.5986 7.64902 14.7476 7.92232 14.9762 8.09508V15.6946C14.9762 16.1992 14.8052 16.6973 14.4954 17.0959L12.9844 19.0419C11.9442 20.381 11.3711 22.0528 11.3711 23.7493V31.4549C11.3711 31.4832 11.3729 31.5106 11.3766 31.538V34.5636C11.3729 34.591 11.3711 34.6184 11.3711 34.6468V47.419C11.3711 48.5122 12.2605 49.4016 13.3537 49.4016H22.6333C23.7265 49.4016 24.6159 48.5122 24.6159 47.419V23.7493C24.6159 22.0528 24.0427 20.381 23.0025 19.0419ZM16.3482 3.97357H19.6388V4.6317H16.3482V3.97357ZM15.9707 6.0037H20.0163V6.91411H15.9707V6.0037ZM23.2448 28.2895C23.2448 28.2895 23.2448 28.2931 23.2448 28.2949V36.8908H23.2365V38.2619H23.2448V47.418C23.2448 47.7544 22.9705 48.0286 22.6342 48.0286H13.3537C13.0164 48.0286 12.7422 47.7544 12.7422 47.418V34.6459C12.7422 34.6221 12.7413 34.5983 12.7385 34.5755V31.5243C12.7413 31.5015 12.7422 31.4777 12.7422 31.4539V23.7484C12.7422 22.3554 13.2129 20.9824 14.0676 19.8828L15.5785 17.9368C16.0749 17.2988 16.3482 16.5017 16.3482 15.6937V8.28612H19.6388V15.6946C19.6388 16.5026 19.9121 17.2997 20.4075 17.9377L21.9194 19.8828C22.7731 20.9834 23.2439 22.3563 23.2439 23.7493V26.5966C23.2439 26.5966 23.2439 26.6003 23.2439 26.6021V28.2895H23.2448Z" fill="#23262F"/>
<path d="M23.2423 29.0117C23.2057 31.6698 23.2057 34.2292 23.2423 36.8928V29.0117Z" fill="#23262F"/>
<path d="M41.6223 29.8238C41.6205 29.6913 41.6168 29.5588 41.6114 29.4262C41.6105 29.4034 41.6095 29.3796 41.6086 29.3568C41.6013 29.2023 41.5913 29.0478 41.5785 28.8933C41.5785 28.8915 41.5785 28.8897 41.5785 28.8878V28.8851C41.3271 25.8312 40.147 22.877 40.0776 22.706C39.9725 22.4474 39.7211 22.2773 39.4423 22.2773H29.6783C29.3986 22.2773 29.1472 22.4464 29.043 22.706C28.9735 22.877 27.7935 25.8312 27.5421 28.8851V28.8878C27.5421 28.8878 27.5421 28.8915 27.5421 28.8933C27.5293 29.0478 27.5193 29.2032 27.512 29.3577C27.511 29.3805 27.5101 29.4025 27.5092 29.4253C27.5037 29.5588 27.4992 29.6922 27.4973 29.8257C27.4973 29.8494 27.4973 29.8732 27.4964 29.8979C27.4955 30.0377 27.4964 30.1776 27.501 30.3174C27.501 30.3357 27.5028 30.354 27.5028 30.3723C27.5074 30.5003 27.5138 30.6282 27.5229 30.7553C27.5247 30.7754 27.5257 30.7964 27.5275 30.8165C27.5375 30.9408 27.5494 31.0642 27.5641 31.1858C27.5659 31.2023 27.5677 31.2187 27.5705 31.2352C27.586 31.3595 27.6043 31.4829 27.6253 31.6054C27.6271 31.6163 27.629 31.6264 27.6308 31.6373C27.6527 31.7626 27.6783 31.8869 27.7066 32.0094C27.7076 32.0139 27.7085 32.0194 27.7103 32.024C27.7396 32.1492 27.7715 32.2726 27.8081 32.3942C28.7852 35.6912 31.6545 37.0925 33.2779 37.6336C33.4332 37.6857 33.5914 37.7277 33.7513 37.7597C33.7925 37.768 33.8345 37.7753 33.8757 37.7826V45.8273C33.7532 45.8273 33.6334 45.8602 33.5274 45.9223L30.1417 47.9168C29.8328 48.0987 29.6829 48.4671 29.777 48.8135C29.8711 49.1599 30.1874 49.4012 30.5457 49.4012H38.5758C38.9341 49.4012 39.2503 49.1599 39.3445 48.8135C39.4386 48.4671 39.2887 48.0987 38.9798 47.9168L35.5941 45.9223C35.489 45.8602 35.3683 45.8273 35.2458 45.8273V37.7826C35.4488 37.7479 35.6489 37.6985 35.8445 37.6336C36.5913 37.3841 37.6023 36.9526 38.5712 36.2378C39.7074 35.3996 40.786 34.1739 41.3134 32.3942C41.349 32.2726 41.3819 32.1492 41.4112 32.024C41.4121 32.0194 41.413 32.0139 41.4148 32.0085C41.4432 31.886 41.4679 31.7626 41.4907 31.6373C41.4925 31.6264 41.4944 31.6154 41.4962 31.6044C41.5172 31.4829 41.5355 31.3595 41.551 31.2352C41.5529 31.2187 41.5556 31.2013 41.5574 31.184C41.5721 31.0624 41.5839 30.9399 41.594 30.8156C41.5958 30.7946 41.5977 30.7745 41.5986 30.7534C41.6077 30.6273 41.6141 30.4993 41.6187 30.3723C41.6187 30.3531 41.6205 30.3348 41.6205 30.3156C41.6251 30.1767 41.626 30.0377 41.6251 29.8979C41.6251 29.8732 41.6251 29.8485 41.6242 29.8238H41.6223ZM36.467 48.0292H32.6499L33.8738 47.308H35.2431L36.467 48.0292ZM40.0657 31.747C40.0447 31.8339 40.0218 31.9198 39.9971 32.0039C39.1964 34.7049 36.7787 35.8749 35.4085 36.332C35.3546 36.3502 35.2998 36.3649 35.244 36.3795H33.872C33.8172 36.3649 33.7623 36.3502 33.7075 36.332C32.3373 35.8749 29.9196 34.7049 29.1189 32.0039C29.0942 31.9198 29.0713 31.8339 29.0503 31.747C28.9041 31.1392 28.8428 30.4299 28.8693 29.6291H31.2057C31.5841 29.6291 31.8912 29.322 31.8912 28.9436C31.8912 28.5652 31.5841 28.2581 31.2057 28.2581H28.9863C29.2487 26.3084 29.8593 24.4583 30.1509 23.6484H38.9652C39.2567 24.4583 39.8673 26.3084 40.1297 28.2581H34.4003C34.0219 28.2581 33.7148 28.5652 33.7148 28.9436C33.7148 29.322 34.0219 29.6291 34.4003 29.6291H40.2467C40.2732 30.4299 40.2119 31.1383 40.0657 31.747Z" fill="#23262F"/>
</g>
<defs>
<clipPath id="clip0_1778_111791">
<rect width="30.2546" height="46.8" fill="white" transform="translate(11.3711 2.60156)"/>
</clipPath>
</defs>
</svg>
