<svg width="56" height="56" viewBox="0 0 56 56" fill="none" xmlns="http://www.w3.org/2000/svg">
<path d="M17.1109 36.4129V39.8989C17.1109 39.9316 17.1296 39.9526 17.1669 39.9619C17.3162 39.9853 17.4562 39.9969 17.5869 39.9969C18.1329 39.9969 18.5342 39.8499 18.7909 39.5559C19.0476 39.2573 19.1759 38.7673 19.1759 38.0859C19.1759 37.4746 19.0452 37.0266 18.7839 36.7419C18.5226 36.4573 18.1236 36.3149 17.5869 36.3149C17.4562 36.3149 17.3162 36.3266 17.1669 36.3499C17.1296 36.3593 17.1109 36.3803 17.1109 36.4129ZM16.5369 40.7319C16.4202 40.7179 16.3246 40.6689 16.2499 40.5849C16.1752 40.4963 16.1379 40.3936 16.1379 40.2769V36.0349C16.1379 35.9183 16.1752 35.8179 16.2499 35.7339C16.3246 35.6453 16.4202 35.5939 16.5369 35.5799C16.8356 35.5473 17.1692 35.5309 17.5379 35.5309C18.3686 35.5309 19.0032 35.7479 19.4419 36.1819C19.8852 36.6159 20.1069 37.2506 20.1069 38.0859C20.1069 38.9819 19.8852 39.6563 19.4419 40.1089C19.0032 40.5569 18.3686 40.7809 17.5379 40.7809C17.1692 40.7809 16.8356 40.7646 16.5369 40.7319ZM21.2947 40.7109C21.1874 40.7109 21.0941 40.6713 21.0147 40.5919C20.9354 40.5126 20.8957 40.4193 20.8957 40.3119V35.9999C20.8957 35.8926 20.9354 35.7993 21.0147 35.7199C21.0941 35.6406 21.1874 35.6009 21.2947 35.6009H23.6747C23.7821 35.6009 23.8754 35.6406 23.9547 35.7199C24.0341 35.7993 24.0737 35.8926 24.0737 35.9999C24.0737 36.1073 24.0341 36.2006 23.9547 36.2799C23.8754 36.3546 23.7821 36.3919 23.6747 36.3919H21.9387C21.8967 36.3919 21.8757 36.4129 21.8757 36.4549V37.5819C21.8757 37.6239 21.8967 37.6449 21.9387 37.6449H23.5557C23.6631 37.6449 23.7517 37.6823 23.8217 37.7569C23.8964 37.8316 23.9337 37.9203 23.9337 38.0229C23.9337 38.1256 23.8964 38.2143 23.8217 38.2889C23.7517 38.3589 23.6631 38.3939 23.5557 38.3939H21.9387C21.8967 38.3939 21.8757 38.4149 21.8757 38.4569V39.8569C21.8757 39.8989 21.8967 39.9199 21.9387 39.9199H23.6747C23.7821 39.9199 23.8754 39.9596 23.9547 40.0389C24.0341 40.1136 24.0737 40.2046 24.0737 40.3119C24.0737 40.4193 24.0341 40.5126 23.9547 40.5919C23.8754 40.6713 23.7821 40.7109 23.6747 40.7109H21.2947ZM25.4987 40.7109C25.3913 40.7109 25.298 40.6713 25.2187 40.5919C25.144 40.5126 25.1067 40.4193 25.1067 40.3119V35.9999C25.1067 35.8926 25.144 35.7993 25.2187 35.7199C25.298 35.6406 25.3913 35.6009 25.4987 35.6009H25.7227C25.83 35.6009 25.9233 35.6406 26.0027 35.7199C26.082 35.7993 26.1217 35.8926 26.1217 35.9999V39.8359C26.1217 39.8779 26.1403 39.8989 26.1777 39.8989H27.9767C28.084 39.8989 28.175 39.9386 28.2497 40.0179C28.329 40.0926 28.3687 40.1836 28.3687 40.2909V40.3119C28.3687 40.4193 28.329 40.5126 28.2497 40.5919C28.175 40.6713 28.084 40.7109 27.9767 40.7109H25.4987ZM29.8361 40.7109C29.7288 40.7109 29.6354 40.6713 29.5561 40.5919C29.4768 40.5126 29.4371 40.4193 29.4371 40.3119V35.9999C29.4371 35.8926 29.4768 35.7993 29.5561 35.7199C29.6354 35.6406 29.7288 35.6009 29.8361 35.6009H30.1161C30.2234 35.6009 30.3168 35.6406 30.3961 35.7199C30.4754 35.7993 30.5151 35.8926 30.5151 35.9999V40.3119C30.5151 40.4193 30.4754 40.5126 30.3961 40.5919C30.3168 40.6713 30.2234 40.7109 30.1161 40.7109H29.8361ZM33.844 40.7809C33.1067 40.7809 32.521 40.5546 32.087 40.1019C31.6577 39.6446 31.443 38.9959 31.443 38.1559C31.443 37.3253 31.6507 36.6813 32.066 36.2239C32.486 35.7619 33.0717 35.5309 33.823 35.5309C34.1684 35.5309 34.4577 35.5519 34.691 35.5939C34.803 35.6126 34.8964 35.6686 34.971 35.7619C35.0457 35.8553 35.083 35.9603 35.083 36.0769V36.1329C35.083 36.2309 35.041 36.3079 34.957 36.3639C34.8777 36.4199 34.7914 36.4363 34.698 36.4129C34.4694 36.3523 34.2127 36.3219 33.928 36.3219C33.466 36.3219 33.102 36.4806 32.836 36.7979C32.5747 37.1153 32.444 37.5679 32.444 38.1559C32.444 38.7393 32.5794 39.1919 32.85 39.5139C33.1254 39.8313 33.4917 39.9899 33.949 39.9899C34.257 39.9899 34.5207 39.9619 34.74 39.9059C34.8334 39.8826 34.9197 39.8989 34.999 39.9549C35.083 40.0109 35.125 40.0879 35.125 40.1859V40.2349C35.125 40.3516 35.0877 40.4566 35.013 40.5499C34.943 40.6386 34.8497 40.6923 34.733 40.7109C34.467 40.7576 34.1707 40.7809 33.844 40.7809ZM37.9515 36.4689L37.3355 38.6669C37.3309 38.6809 37.3332 38.6949 37.3425 38.7089C37.3519 38.7229 37.3635 38.7299 37.3775 38.7299H38.5395C38.5535 38.7299 38.5652 38.7229 38.5745 38.7089C38.5839 38.6949 38.5862 38.6809 38.5815 38.6669L37.9655 36.4689C37.9655 36.4643 37.9632 36.4619 37.9585 36.4619C37.9539 36.4619 37.9515 36.4643 37.9515 36.4689ZM36.1385 40.7109C36.0405 40.7109 35.9635 40.6713 35.9075 40.5919C35.8515 40.5126 35.8399 40.4263 35.8725 40.3329L37.3215 35.9789C37.3635 35.8669 37.4312 35.7759 37.5245 35.7059C37.6225 35.6359 37.7299 35.6009 37.8465 35.6009H38.0985C38.2199 35.6009 38.3272 35.6359 38.4205 35.7059C38.5185 35.7759 38.5862 35.8669 38.6235 35.9789L40.0725 40.3329C40.1052 40.4263 40.0935 40.5126 40.0375 40.5919C39.9815 40.6713 39.9045 40.7109 39.8065 40.7109H39.5545C39.4425 40.7109 39.3375 40.6759 39.2395 40.6059C39.1462 40.5313 39.0832 40.4379 39.0505 40.3259L38.8265 39.5349C38.8219 39.4976 38.7962 39.4789 38.7495 39.4789H37.1675C37.1255 39.4789 37.0999 39.4976 37.0905 39.5349L36.8665 40.3259C36.8385 40.4379 36.7755 40.5313 36.6775 40.6059C36.5842 40.6759 36.4792 40.7109 36.3625 40.7109H36.1385Z" fill="#DA291C"/>
<path d="M13.007 23.4618L42.0871 12.4681C42.4861 12.3351 42.7077 11.8918 42.5304 11.4485C41.4665 8.70011 38.4078 7.28157 35.6594 8.34548L30.8274 10.163L30.5171 9.36506C29.8079 7.45889 27.68 6.52797 25.7739 7.23724L21.8285 8.74444C19.9224 9.45372 18.9471 11.5815 19.7007 13.4877L20.011 14.2856L15.1791 16.1031C12.2977 17.2114 11.0565 20.4474 12.0761 23.0185C12.1647 23.4618 12.608 23.6392 13.007 23.4618ZM21.0749 12.9557C20.676 11.8475 21.2079 10.6506 22.3162 10.2073L26.2615 8.70011C27.3697 8.30115 28.611 8.8331 29.0099 9.94134L29.3202 10.7393L21.3853 13.7537L21.0749 12.9557ZM15.6667 17.6103L36.1913 9.85268C37.8758 9.23207 39.782 9.85268 40.7129 11.3599L13.2286 21.733C12.9626 19.9598 13.9822 18.231 15.6667 17.6103Z" fill="#141416"/>
<path d="M46.5174 25.9896C46.4731 25.9896 43.1927 25.9896 43.2814 25.9896C42.7494 23.0195 39.602 21.3793 36.8979 22.6206C34.5928 18.7639 28.9629 18.9855 26.8795 22.8865C24.1754 21.2463 20.5403 22.7979 20.0084 25.9896C10.7435 25.9896 19.2105 25.9896 9.85694 25.9896C8.52705 25.9896 7.46314 27.0535 7.46314 28.3834V29.536C7.46314 30.8658 8.52705 31.9298 9.85694 31.9298H11.8961V42.3472C11.8961 45.7606 14.6445 48.509 18.0579 48.509H38.4051C41.8185 48.509 44.5669 45.7606 44.5669 42.3472V31.9298H46.6061C47.936 31.9298 48.9999 30.8658 48.9999 29.536V28.3391C48.9112 27.0535 47.803 25.9896 46.5174 25.9896ZM26.6135 24.6154C27.0125 25.0587 27.7217 24.837 27.899 24.3051C29.0516 20.5371 34.3268 20.3154 35.834 23.9504C36.0113 24.3937 36.5876 24.5711 36.9866 24.3051C38.7154 23.1082 41.1092 23.9504 41.6412 25.9896H21.5599C22.1805 23.6845 25.0176 22.9752 26.6135 24.6154ZM9.81261 30.3782C9.36931 30.3782 8.97035 29.9793 8.97035 29.536V28.3391C8.97035 27.8958 9.36931 27.4968 9.81261 27.4968H11.8518V30.3339L9.81261 30.3782ZM42.9267 42.3472C42.9267 44.874 40.8876 46.9575 38.3165 46.9575H18.0136C15.4868 46.9575 13.4033 44.9183 13.4033 42.3472V27.4968H42.9267V42.3472ZM47.3154 29.536C47.3154 29.9793 46.9164 30.3782 46.4731 30.3782H44.4783V27.4968H46.5174C46.9607 27.4968 47.3597 27.8958 47.3597 28.3391L47.3154 29.536Z" fill="#141416"/>
<path d="M40.2242 15.217C38.85 15.217 37.6974 16.3696 37.6974 17.7438C37.6974 19.118 38.85 20.2706 40.2242 20.2706C41.5984 20.2706 42.751 19.118 42.751 17.7438C42.751 16.3696 41.6427 15.217 40.2242 15.217ZM40.2242 18.7191C39.6922 18.7191 39.249 18.2758 39.249 17.7438C39.249 17.2119 39.6922 16.7686 40.2242 16.7686C40.7562 16.7686 41.1994 17.2119 41.1994 17.7438C41.1994 18.2758 40.8005 18.7191 40.2242 18.7191Z" fill="#DA291C"/>
<path d="M46.3859 23.596C47.6272 23.596 48.6024 22.6208 48.6024 21.3796C48.6024 20.1383 47.6272 19.1631 46.3859 19.1631C45.1447 19.1631 44.1695 20.1383 44.1695 21.3796C44.1695 22.5765 45.1447 23.596 46.3859 23.596ZM46.3859 20.7146C46.7406 20.7146 47.0509 21.0249 47.0509 21.3796C47.0509 21.7342 46.7406 22.0445 46.3859 22.0445C46.0313 22.0445 45.721 21.7342 45.721 21.3796C45.721 21.0249 45.987 20.7146 46.3859 20.7146Z" fill="#DA291C"/>
</svg>
