<svg width="100" height="100" viewBox="0 0 100 100" fill="none" xmlns="http://www.w3.org/2000/svg">
<path d="M77.8724 97.9167H22.1224C20.0493 97.9271 18.0468 97.1644 16.5059 95.7776C14.965 94.3907 13.9963 92.4794 13.7891 90.4167L10.4141 56.25H89.5807L86.1641 90.4167C85.9575 92.4722 84.9947 94.3777 83.4626 95.7635C81.9305 97.1494 79.9383 97.9167 77.8724 97.9167Z" fill="url(#paint0_linear_6137_553500)"/>
<path d="M49.9974 91.6667C49.4449 91.6667 48.915 91.4472 48.5243 91.0565C48.1336 90.6658 47.9141 90.1359 47.9141 89.5833V64.5833C47.9141 64.0308 48.1336 63.5009 48.5243 63.1102C48.915 62.7195 49.4449 62.5 49.9974 62.5C50.5499 62.5 51.0798 62.7195 51.4705 63.1102C51.8612 63.5009 52.0807 64.0308 52.0807 64.5833V89.5833C52.0807 90.1359 51.8612 90.6658 51.4705 91.0565C51.0798 91.4472 50.5499 91.6667 49.9974 91.6667Z" fill="#C0C5CB"/>
<path d="M37.4974 91.6667C36.9449 91.6667 36.415 91.4472 36.0243 91.0565C35.6336 90.6658 35.4141 90.1359 35.4141 89.5833V64.5833C35.4141 64.0308 35.6336 63.5009 36.0243 63.1102C36.415 62.7195 36.9449 62.5 37.4974 62.5C38.0499 62.5 38.5798 62.7195 38.9705 63.1102C39.3612 63.5009 39.5807 64.0308 39.5807 64.5833V89.5833C39.5807 90.1359 39.3612 90.6658 38.9705 91.0565C38.5798 91.4472 38.0499 91.6667 37.4974 91.6667Z" fill="#C0C5CB"/>
<path d="M24.9974 91.6667C24.4449 91.6667 23.915 91.4472 23.5243 91.0565C23.1336 90.6658 22.9141 90.1359 22.9141 89.5833V64.5833C22.9141 64.0308 23.1336 63.5009 23.5243 63.1102C23.915 62.7195 24.4449 62.5 24.9974 62.5C25.5499 62.5 26.0798 62.7195 26.4705 63.1102C26.8612 63.5009 27.0807 64.0308 27.0807 64.5833V89.5833C27.0807 90.1359 26.8612 90.6658 26.4705 91.0565C26.0798 91.4472 25.5499 91.6667 24.9974 91.6667Z" fill="#C0C5CB"/>
<path d="M62.4974 91.6667C61.9449 91.6667 61.415 91.4472 61.0243 91.0565C60.6336 90.6658 60.4141 90.1359 60.4141 89.5833V64.5833C60.4141 64.0308 60.6336 63.5009 61.0243 63.1102C61.415 62.7195 61.9449 62.5 62.4974 62.5C63.0499 62.5 63.5798 62.7195 63.9705 63.1102C64.3612 63.5009 64.5807 64.0308 64.5807 64.5833V89.5833C64.5807 90.1359 64.3612 90.6658 63.9705 91.0565C63.5798 91.4472 63.0499 91.6667 62.4974 91.6667Z" fill="#C0C5CB"/>
<path d="M74.9974 91.6667C74.4449 91.6667 73.915 91.4472 73.5243 91.0565C73.1336 90.6658 72.9141 90.1359 72.9141 89.5833V64.5833C72.9141 64.0308 73.1336 63.5009 73.5243 63.1102C73.915 62.7195 74.4449 62.5 74.9974 62.5C75.5499 62.5 76.0798 62.7195 76.4705 63.1102C76.8612 63.5009 77.0807 64.0308 77.0807 64.5833V89.5833C77.0807 90.1359 76.8612 90.6658 76.4705 91.0565C76.0798 91.4472 75.5499 91.6667 74.9974 91.6667Z" fill="#C0C5CB"/>
<path d="M91.6667 47.918H8.33333C7.18274 47.918 6.25 48.8507 6.25 50.0013V54.168C6.25 55.3186 7.18274 56.2513 8.33333 56.2513H91.6667C92.8173 56.2513 93.75 55.3186 93.75 54.168V50.0013C93.75 48.8507 92.8173 47.918 91.6667 47.918Z" fill="#E5EBEE"/>
<path d="M10.4158 81.2507C10.002 81.2531 9.59682 81.1322 9.25198 80.9035C8.90715 80.6747 8.63825 80.3485 8.47957 79.9663C8.32089 79.5841 8.27962 79.1633 8.36101 78.7576C8.44241 78.3519 8.64278 77.9796 8.9366 77.6882L36.0199 50.6049C36.4122 50.2126 36.9443 49.9922 37.4991 49.9922C38.0539 49.9922 38.586 50.2126 38.9783 50.6049C39.3706 50.9972 39.591 51.5292 39.591 52.084C39.591 52.6388 39.3706 53.1709 38.9783 53.5632L11.8949 80.6465C11.7003 80.8396 11.4694 80.9924 11.2156 81.0961C10.9617 81.1997 10.6899 81.2523 10.4158 81.2507Z" fill="#A0A9B0"/>
<path d="M89.5814 81.2507C89.9952 81.2531 90.4004 81.1322 90.7452 80.9035C91.0901 80.6747 91.359 80.3485 91.5176 79.9663C91.6763 79.5841 91.7176 79.1633 91.6362 78.7576C91.5548 78.3519 91.3544 77.9796 91.0606 77.6882L63.9773 50.6049C63.585 50.2126 63.0529 49.9922 62.4981 49.9922C61.9433 49.9922 61.4112 50.2126 61.0189 50.6049C60.6266 50.9972 60.4062 51.5292 60.4062 52.084C60.4062 52.6388 60.6266 53.1709 61.0189 53.5632L88.1023 80.6465C88.2969 80.8396 88.5278 80.9924 88.7816 81.0961C89.0355 81.1997 89.3073 81.2523 89.5814 81.2507Z" fill="#A0A9B0"/>
<path d="M68.7191 21.2202C68.7203 18.7028 68.2156 16.2108 67.235 13.8922C66.2544 11.5737 64.8179 9.47579 63.0108 7.72319C61.2037 5.97059 59.0628 4.599 56.7153 3.68988C54.3678 2.78076 51.8615 2.35265 49.3453 2.43097C44.4849 2.6338 39.8875 4.69335 36.5006 8.18518C33.1136 11.677 31.1952 16.335 31.1406 21.1993C31.1416 25.6134 32.6966 29.8862 35.5329 33.2684C38.3692 36.6506 42.3058 38.9263 46.6522 39.6963L48.9904 44.3936C49.0759 44.5701 49.2093 44.7189 49.3755 44.8231C49.5416 44.9272 49.7338 44.9824 49.9299 44.9824C50.1259 44.9824 50.3181 44.9272 50.4842 44.8231C50.6504 44.7189 50.7838 44.5701 50.8693 44.3936L53.2075 39.6963C57.5504 38.9269 61.4842 36.6543 64.3201 33.2764C67.156 29.8985 68.7132 25.6307 68.7191 21.2202Z" fill="url(#paint1_linear_6137_553500)"/>
<path d="M52.8742 21.2222L57.6759 16.4206C58.0647 16.0294 58.283 15.5003 58.283 14.9487C58.283 14.3972 58.0647 13.8681 57.6759 13.4769C57.4818 13.2812 57.2509 13.1259 56.9965 13.0199C56.7421 12.9139 56.4692 12.8594 56.1936 12.8594C55.918 12.8594 55.6452 12.9139 55.3908 13.0199C55.1363 13.1259 54.9054 13.2812 54.7114 13.4769L49.9306 18.2577L45.1497 13.4769C44.9557 13.2812 44.7248 13.1259 44.4704 13.0199C44.2159 12.9139 43.9431 12.8594 43.6675 12.8594C43.3919 12.8594 43.119 12.9139 42.8646 13.0199C42.6102 13.1259 42.3793 13.2812 42.1852 13.4769C41.7964 13.8681 41.5781 14.3972 41.5781 14.9487C41.5781 15.5003 41.7964 16.0294 42.1852 16.4206L46.9869 21.2222L42.1852 26.0031C41.7964 26.3942 41.5781 26.9233 41.5781 27.4749C41.5781 28.0264 41.7964 28.5556 42.1852 28.9467C42.3793 29.1424 42.6102 29.2977 42.8646 29.4037C43.119 29.5097 43.3919 29.5642 43.6675 29.5642C43.9431 29.5642 44.2159 29.5097 44.4704 29.4037C44.7248 29.2977 44.9557 29.1424 45.1497 28.9467L49.9306 24.1659L54.7114 28.9467C54.9054 29.1424 55.1363 29.2977 55.3908 29.4037C55.6452 29.5097 55.918 29.5642 56.1936 29.5642C56.4692 29.5642 56.7421 29.5097 56.9965 29.4037C57.2509 29.2977 57.4818 29.1424 57.6759 28.9467C58.0647 28.5556 58.283 28.0264 58.283 27.4749C58.283 26.9233 58.0647 26.3942 57.6759 26.0031L52.8742 21.2222Z" fill="#A1A9B3"/>
<defs>
<linearGradient id="paint0_linear_6137_553500" x1="49.9974" y1="97.9167" x2="49.9974" y2="56.25" gradientUnits="userSpaceOnUse">
<stop stop-color="#E3E8EB"/>
<stop offset="1" stop-color="#C3CBD2"/>
</linearGradient>
<linearGradient id="paint1_linear_6137_553500" x1="49.9299" y1="44.9781" x2="49.9299" y2="2.43097" gradientUnits="userSpaceOnUse">
<stop stop-color="#E6EAF0"/>
<stop offset="1" stop-color="#C6CED6"/>
</linearGradient>
</defs>
</svg>
