<svg width="64" height="64" viewBox="0 0 64 64" fill="none" xmlns="http://www.w3.org/2000/svg">
<path d="M18.6875 63.0625C16.0986 63.0625 14 60.9639 14 58.375V5.625C14 3.03612 16.0986 0.9375 18.6875 0.9375H45.3125C47.9014 0.9375 50 3.03612 50 5.625V58.375C50 60.9639 47.9014 63.0625 45.3125 63.0625H18.6875Z" fill="#F5FCFF"/>
<path d="M49.6362 60.187C48.9287 61.8758 47.2588 63.062 45.3125 63.062H18.6875C16.0988 63.062 14 60.9633 14 58.3745V5.62453C14 3.67828 15.1862 2.00828 16.875 1.30078V58.3745C16.875 59.3745 17.6875 60.187 18.6875 60.187H49.6362Z" fill="#E0F5FC"/>
<path d="M36.6886 5.61449C37.2005 5.61449 37.6155 5.19952 37.6155 4.68762C37.6155 4.17572 37.2005 3.76074 36.6886 3.76074C36.1767 3.76074 35.7617 4.17572 35.7617 4.68762C35.7617 5.19952 36.1767 5.61449 36.6886 5.61449Z" fill="#89959D"/>
<path d="M45.3125 64H18.6875C15.5859 64 13.0625 61.4766 13.0625 58.375V5.625C13.0625 2.52338 15.5859 0 18.6875 0H45.3125C48.4141 0 50.9375 2.52338 50.9375 5.625V58.375C50.9375 61.4766 48.4141 64 45.3125 64ZM18.6875 1.875C16.6198 1.875 14.9375 3.55725 14.9375 5.625V58.375C14.9375 60.4427 16.6198 62.125 18.6875 62.125H45.3125C47.3802 62.125 49.0625 60.4427 49.0625 58.375V5.625C49.0625 3.55725 47.3802 1.875 45.3125 1.875H18.6875Z" fill="#505050"/>
<path d="M33.5625 5.625H27.3125C26.7946 5.625 26.375 5.20537 26.375 4.6875C26.375 4.16962 26.7946 3.75 27.3125 3.75H33.5625C34.0804 3.75 34.5 4.16962 34.5 4.6875C34.5 5.20537 34.0804 5.625 33.5625 5.625Z" fill="#89959D"/>
<path d="M39.125 50.4375H24.875C23.9085 50.4375 23.125 51.221 23.125 52.1875V55.0625C23.125 56.029 23.9085 56.8125 24.875 56.8125H39.125C40.0915 56.8125 40.875 56.029 40.875 55.0625V52.1875C40.875 51.221 40.0915 50.4375 39.125 50.4375Z" fill="#FFD9D3"/>
<g clip-path="url(#clip0_3011_34728)">
<path d="M31.9995 41.5996C39.6579 41.5996 45.8662 35.3913 45.8662 27.7329C45.8662 20.0745 39.6579 13.8662 31.9995 13.8662C24.3411 13.8662 18.1328 20.0745 18.1328 27.7329C18.1328 35.3913 24.3411 41.5996 31.9995 41.5996Z" fill="#FA6450"/>
<path d="M45.868 27.7327C45.868 35.3594 39.628 41.5994 32.0013 41.5994C27.5813 41.5994 23.6813 39.6061 21.168 36.3994C23.508 38.3061 26.5413 39.4328 29.8346 39.4328C37.4613 39.4328 43.7013 33.1928 43.7013 25.5661C43.7013 22.2728 42.5746 19.2394 40.668 16.8994C43.8747 19.4127 45.868 23.3127 45.868 27.7327Z" fill="#DC4632"/>
<path d="M38.3245 34.0599C37.8046 34.5799 36.9378 34.5799 36.4179 34.0599L31.9979 29.6399L27.5779 34.0599C27.0579 34.5799 26.1912 34.5799 25.6712 34.0599C25.1513 33.5399 25.1513 32.6732 25.6712 32.1532L30.0912 27.7332L25.6712 23.3133C25.1513 22.7933 25.1513 21.9266 25.6712 21.4066C26.1912 20.8866 27.0579 20.8866 27.5779 21.4066L31.9979 25.8266L36.4179 21.4066C36.9378 20.8866 37.8046 20.8866 38.3245 21.4066C38.8445 21.9266 38.8445 22.7933 38.3245 23.3133L33.9046 27.7332L38.3245 32.1532C38.8445 32.6732 38.8445 33.5399 38.3245 34.0599Z" fill="white"/>
</g>
<defs>
<clipPath id="clip0_3011_34728">
<rect width="27.7333" height="27.7333" fill="white" transform="translate(18.1328 13.8662)"/>
</clipPath>
</defs>
</svg>
