<svg width="20" height="20" viewBox="0 0 20 20" fill="none" xmlns="http://www.w3.org/2000/svg">
<path fill-rule="evenodd" clip-rule="evenodd" d="M1.875 4.375C1.875 3.68464 2.43464 3.125 3.125 3.125H16.875C17.5654 3.125 18.125 3.68464 18.125 4.375V11.875C18.125 12.2202 17.8452 12.5 17.5 12.5C17.1548 12.5 16.875 12.2202 16.875 11.875V4.375H3.125V15.625H13.125C13.4702 15.625 13.75 15.9048 13.75 16.25C13.75 16.5952 13.4702 16.875 13.125 16.875H3.125C2.43464 16.875 1.875 16.3154 1.875 15.625V4.375Z" fill="white"/>
<path fill-rule="evenodd" clip-rule="evenodd" d="M6.875 6.25C7.22018 6.25 7.5 6.52982 7.5 6.875C7.5 7.53804 7.76339 8.17393 8.23223 8.64277C8.70107 9.11161 9.33696 9.375 10 9.375C10.663 9.375 11.2989 9.11161 11.7678 8.64277C12.2366 8.17393 12.5 7.53804 12.5 6.875C12.5 6.52982 12.7798 6.25 13.125 6.25C13.4702 6.25 13.75 6.52982 13.75 6.875C13.75 7.86956 13.3549 8.82339 12.6517 9.52665C11.9484 10.2299 10.9946 10.625 10 10.625C9.00544 10.625 8.05161 10.2299 7.34835 9.52665C6.64509 8.82339 6.25 7.86956 6.25 6.875C6.25 6.52982 6.52982 6.25 6.875 6.25Z" fill="white"/>
<path fill-rule="evenodd" clip-rule="evenodd" d="M18.125 14.375C18.125 14.0298 17.8452 13.75 17.5 13.75C17.1548 13.75 16.875 14.0298 16.875 14.375V15.625H15.625C15.2798 15.625 15 15.9048 15 16.25C15 16.5952 15.2798 16.875 15.625 16.875H16.875V18.125C16.875 18.4702 17.1548 18.75 17.5 18.75C17.8452 18.75 18.125 18.4702 18.125 18.125V16.875H19.375C19.7202 16.875 20 16.5952 20 16.25C20 15.9048 19.7202 15.625 19.375 15.625H18.125V14.375Z" fill="white"/>
</svg>
