<svg width="40" height="40" viewBox="0 0 40 40" fill="none" xmlns="http://www.w3.org/2000/svg">
<path d="M20 3.75C16.7861 3.75 13.6443 4.70305 10.972 6.48862C8.29969 8.27419 6.21689 10.8121 4.98696 13.7814C3.75704 16.7507 3.43524 20.018 4.06225 23.1702C4.68926 26.3224 6.23692 29.2179 8.50952 31.4905C10.7821 33.7631 13.6776 35.3107 16.8298 35.9378C19.982 36.5648 23.2493 36.243 26.2186 35.013C29.1879 33.7831 31.7258 31.7003 33.5114 29.028C35.297 26.3557 36.25 23.2139 36.25 20C36.2417 15.6928 34.527 11.5643 31.4814 8.51864C28.4357 5.47296 24.3072 3.75826 20 3.75ZM27.7344 17.1562L18.5781 25.9062C18.3414 26.1289 18.0281 26.252 17.7031 26.25C17.5443 26.2523 17.3866 26.2231 17.2391 26.1641C17.0916 26.1051 16.9572 26.0174 16.8438 25.9062L12.2656 21.5312C12.1387 21.4205 12.0354 21.2851 11.962 21.1334C11.8887 20.9817 11.8468 20.8167 11.8388 20.6484C11.8308 20.4801 11.857 20.3119 11.9157 20.1539C11.9744 19.996 12.0644 19.8515 12.1804 19.7292C12.2963 19.6069 12.4358 19.5094 12.5904 19.4424C12.7451 19.3754 12.9116 19.3403 13.0801 19.3394C13.2487 19.3384 13.4156 19.3715 13.571 19.4367C13.7264 19.5019 13.867 19.5978 13.9844 19.7188L17.7031 23.2656L26.0156 15.3438C26.2587 15.1317 26.5743 15.0218 26.8965 15.0371C27.2187 15.0523 27.5225 15.1915 27.7444 15.4255C27.9664 15.6596 28.0893 15.9704 28.0874 16.2929C28.0855 16.6155 27.959 16.9248 27.7344 17.1562Z" fill="#16B364"/>
</svg>
