<svg width="56" height="56" viewBox="0 0 56 56" fill="none" xmlns="http://www.w3.org/2000/svg">
<path fill-rule="evenodd" clip-rule="evenodd" d="M45.5047 16.9484H44.3586C44.0349 16.9484 43.7723 16.6618 43.7723 16.3084V13.9195C43.7723 13.5662 44.0349 13.2795 44.3586 13.2795H45.5047C46.431 13.2795 47.1853 14.1029 47.1853 15.114C47.1863 16.1262 46.432 16.9484 45.5047 16.9484ZM44.9449 15.6684H45.5047C45.7847 15.6684 46.0127 15.4195 46.0127 15.114C46.0127 14.8084 45.7847 14.5595 45.5047 14.5595H44.9449V15.6684Z" fill="#DA291C"/>
<path fill-rule="evenodd" clip-rule="evenodd" d="M37.6338 36.5038H31.8806C30.7568 36.5038 29.8428 35.506 29.8428 34.2793V25.2482C29.8428 24.8949 30.1054 24.6082 30.4291 24.6082C30.7528 24.6082 31.0154 24.8949 31.0154 25.2482V34.2805C31.0154 34.8005 31.4032 35.2249 31.8806 35.2249H37.6338C37.8618 35.2249 38.0847 35.1238 38.2455 34.9482L40.6539 32.3182C40.6569 32.3149 40.66 32.3116 40.663 32.3082L41.1761 31.7482C41.3908 31.5138 41.4774 31.1693 41.4031 30.8482L38.2018 17.0827C38.1224 16.7405 38.3117 16.3916 38.6262 16.3049C38.9397 16.2182 39.2594 16.4249 39.3388 16.7682L42.54 30.5327C42.7161 31.2882 42.5115 32.1005 42.0057 32.6527L41.4835 33.2227C41.4804 33.226 41.4774 33.2293 41.4743 33.2327L39.0751 35.8516C38.6954 36.266 38.1702 36.5038 37.6338 36.5038Z" fill="#141416" stroke="black" stroke-width="0.2"/>
<path fill-rule="evenodd" clip-rule="evenodd" d="M39.4176 39.8996H16.863C15.7393 39.8996 14.8252 38.9018 14.8252 37.6752V35.0329C14.8252 34.0663 14.9718 33.1185 15.2619 32.2141C15.5418 31.3396 15.949 30.5241 16.4711 29.7907C17.4208 28.4574 18.7278 27.4518 20.1855 26.9218V25.2485C20.1855 24.8952 20.4481 24.6085 20.7718 24.6085C21.0955 24.6085 21.3581 24.8952 21.3581 25.2485V27.3974C21.3581 27.6874 21.1799 27.9407 20.9234 28.0152C18.0234 28.8652 15.9978 31.7507 15.9978 35.0329V37.6752C15.9978 38.1952 16.3856 38.6196 16.863 38.6196H39.1754L44.7881 32.4929L41.2041 17.0807C41.1247 16.7385 41.314 16.3896 41.6285 16.3029C41.942 16.2163 42.2617 16.4229 42.3411 16.7663L46.0065 32.5307C46.0574 32.7496 45.9994 32.9807 45.8528 33.1407L39.8329 39.7118C39.722 39.8318 39.5724 39.8996 39.4176 39.8996Z" fill="#141416" stroke="black" stroke-width="0.2"/>
<path fill-rule="evenodd" clip-rule="evenodd" d="M44.3587 17.5638H38.5404C37.3036 17.5638 36.2959 16.4649 36.2959 15.1149C36.2959 13.7649 37.3026 12.666 38.5404 12.666H44.3597C44.6834 12.666 44.946 12.9527 44.946 13.306V16.9249C44.945 17.2771 44.6824 17.5638 44.3587 17.5638ZM38.5404 13.9449C37.95 13.9449 37.4695 14.4693 37.4695 15.1138C37.4695 15.7582 37.95 16.2827 38.5404 16.2827H43.7734V13.9449H38.5404Z" fill="#141416" stroke="black" stroke-width="0.2"/>
<path fill-rule="evenodd" clip-rule="evenodd" d="M31.9207 25.8856H24.4076C24.0839 25.8856 23.8213 25.5989 23.8213 25.2456V22.5912C23.8213 22.2378 24.0839 21.9512 24.4076 21.9512H29.4879C31.1522 21.9512 32.506 23.4289 32.506 25.2456C32.507 25.6001 32.2444 25.8856 31.9207 25.8856ZM24.9939 24.6067H31.2387C30.9934 23.8089 30.3012 23.2323 29.4879 23.2323H24.9939V24.6067Z" fill="#141416" stroke="black" stroke-width="0.2"/>
<path fill-rule="evenodd" clip-rule="evenodd" d="M49.7083 39.8984H39.4174C39.0937 39.8984 38.8311 39.6117 38.8311 39.2584C38.8311 38.9051 39.0937 38.6184 39.4174 38.6184H49.0925C48.8675 36.1995 47.3773 34.1051 45.2438 33.2917C44.9385 33.1751 44.7766 32.8106 44.8835 32.4762C44.9904 32.1428 45.3242 31.9662 45.6306 32.0828C48.4207 33.1473 50.2946 36.0306 50.2946 39.2584C50.2946 39.6117 50.032 39.8984 49.7083 39.8984Z" fill="#141416" stroke="black" stroke-width="0.2"/>
<path fill-rule="evenodd" clip-rule="evenodd" d="M41.0697 33.4109C40.746 33.4109 40.4834 33.1242 40.4834 32.7709C40.4834 32.4175 40.746 32.1309 41.0697 32.1309C41.3934 32.1309 41.656 32.4175 41.656 32.7709C41.656 33.1242 41.3934 33.4109 41.0697 33.4109Z" fill="#141416"/>
<path fill-rule="evenodd" clip-rule="evenodd" d="M45.0839 43.7203C42.8303 43.7203 40.9971 41.7191 40.9971 39.2591C40.9971 38.9058 41.2597 38.6191 41.5834 38.6191C41.9071 38.6191 42.1697 38.9058 42.1697 39.2591C42.1697 41.0136 43.4767 42.4403 45.0839 42.4403C46.6912 42.4403 47.9982 41.0125 47.9982 39.2591C47.9982 38.9058 48.2608 38.6191 48.5845 38.6191C48.9082 38.6191 49.1708 38.9058 49.1708 39.2591C49.1708 41.7191 47.3376 43.7203 45.0839 43.7203Z" fill="#141416" stroke="black" stroke-width="0.2"/>
<path fill-rule="evenodd" clip-rule="evenodd" d="M22.4375 43.7203C20.1838 43.7203 18.3506 41.7191 18.3506 39.2591C18.3506 38.9058 18.6132 38.6191 18.9369 38.6191C19.2606 38.6191 19.5232 38.9058 19.5232 39.2591C19.5232 41.0136 20.8302 42.4403 22.4375 42.4403C24.0447 42.4403 25.3517 41.0125 25.3517 39.2591C25.3517 38.9058 25.6143 38.6191 25.938 38.6191C26.2617 38.6191 26.5243 38.9058 26.5243 39.2591C26.5243 41.7191 24.6911 43.7203 22.4375 43.7203Z" fill="#141416" stroke="black" stroke-width="0.2"/>
<path d="M13.3467 13.7129H5.51855C5.11406 13.7129 4.78613 14.0408 4.78613 14.4453C4.78613 14.8498 5.11406 15.1777 5.51855 15.1777H13.3467C13.7512 15.1777 14.0791 14.8498 14.0791 14.4453C14.0791 14.0408 13.7512 13.7129 13.3467 13.7129Z" fill="#141416"/>
<path d="M12.5642 16.0723H7.86719C7.4627 16.0723 7.13477 16.4002 7.13477 16.8047C7.13477 17.2092 7.4627 17.5371 7.86719 17.5371H12.5642C12.9687 17.5371 13.2966 17.2092 13.2966 16.8047C13.2966 16.4002 12.9687 16.0723 12.5642 16.0723Z" fill="#141416"/>
<path d="M12.674 18.4297H11.1084C10.7039 18.4297 10.376 18.7576 10.376 19.1621C10.376 19.5666 10.7039 19.8945 11.1084 19.8945H12.674C13.0785 19.8945 13.4064 19.5666 13.4064 19.1621C13.4064 18.7576 13.0785 18.4297 12.674 18.4297Z" fill="#141416"/>
<path d="M18.4528 15.7732C17.982 15.7732 17.5978 15.9255 17.3 16.2301C17.0093 16.5278 16.8639 16.919 16.8639 17.4037C16.8639 17.9437 17.0127 18.373 17.3104 18.6914C17.6081 19.0099 17.9889 19.1692 18.4528 19.1692C18.9582 19.1692 19.3529 19.0203 19.6367 18.7226C19.9206 18.418 20.0625 17.9783 20.0625 17.4037C20.0625 16.9052 19.9137 16.5105 19.616 16.2197C19.3252 15.922 18.9375 15.7732 18.4528 15.7732ZM18.4528 20.1039C16.6181 20.1039 15.7007 18.9615 15.7007 16.6767C15.7007 15.2158 15.9776 14.1254 16.5315 13.4053C17.0854 12.6783 17.8816 12.3148 18.9202 12.3148C19.2456 12.3148 19.571 12.346 19.8964 12.4083C20.0418 12.436 20.156 12.5087 20.2391 12.6264C20.3291 12.7372 20.3741 12.8687 20.3741 13.0211C20.3741 13.1388 20.3256 13.2322 20.2287 13.3015C20.1318 13.3707 20.021 13.3915 19.8964 13.3638C19.571 13.2876 19.2456 13.2495 18.9202 13.2495C18.3801 13.2495 17.9301 13.4469 17.5701 13.8415C17.217 14.2292 17.0058 14.7866 16.9366 15.5135C16.9366 15.5274 16.94 15.5343 16.9469 15.5343H16.9677C17.3831 15.1189 17.9647 14.9112 18.7125 14.9112C19.481 14.9112 20.0868 15.1362 20.5299 15.5862C20.9799 16.0363 21.2049 16.6421 21.2049 17.4037C21.2049 18.2483 20.9557 18.9095 20.4572 19.3873C19.9587 19.865 19.2906 20.1039 18.4528 20.1039ZM26.1887 13.9142C25.9187 13.4572 25.5032 13.2288 24.9424 13.2288C24.3816 13.2288 23.9628 13.4572 23.6858 13.9142C23.4158 14.3642 23.2808 15.1293 23.2808 16.2094C23.2808 17.2894 23.4158 18.0579 23.6858 18.5149C23.9628 18.9649 24.3816 19.1899 24.9424 19.1899C25.5032 19.1899 25.9187 18.9649 26.1887 18.5149C26.4656 18.0579 26.6041 17.2894 26.6041 16.2094C26.6041 15.1293 26.4656 14.3642 26.1887 13.9142ZM27.0403 19.1796C26.5764 19.7958 25.8771 20.1039 24.9424 20.1039C24.0078 20.1039 23.305 19.7958 22.8342 19.1796C22.3703 18.5634 22.1384 17.5733 22.1384 16.2094C22.1384 14.8454 22.3703 13.8553 22.8342 13.2391C23.305 12.6229 24.0078 12.3148 24.9424 12.3148C25.8771 12.3148 26.5764 12.6229 27.0403 13.2391C27.5111 13.8553 27.7465 14.8454 27.7465 16.2094C27.7465 17.5733 27.5111 18.5634 27.0403 19.1796ZM29.355 14.7035C29.2304 14.7035 29.1265 14.6516 29.0434 14.5477C28.9603 14.4438 28.9361 14.3296 28.9707 14.205L29.4069 12.5745C29.4554 12.4083 29.5489 12.2733 29.6873 12.1695C29.8327 12.0587 29.9885 12.0033 30.1547 12.0033H30.4247C30.5701 12.0033 30.6809 12.0621 30.757 12.1798C30.8332 12.2906 30.8436 12.4118 30.7882 12.5433L30.0716 14.2258C30.0093 14.3711 29.9123 14.4888 29.7808 14.5789C29.6562 14.6619 29.5142 14.7035 29.355 14.7035Z" fill="#DA291C"/>
<path fill-rule="evenodd" clip-rule="evenodd" d="M32.296 16.7509C32.1464 16.7509 31.9957 16.6887 31.8817 16.5631C31.6527 16.3131 31.6527 15.9076 31.8817 15.6576L33.6111 13.7698C33.7211 13.6498 33.8707 13.582 34.0254 13.582H37.0639C37.3875 13.582 37.6502 13.8687 37.6502 14.222C37.6502 14.5754 37.3875 14.862 37.0639 14.862H34.2687L32.7103 16.5631C32.5963 16.6887 32.4456 16.7509 32.296 16.7509Z" fill="#141416" stroke="black" stroke-width="0.2"/>
</svg>
