<svg width="40" height="40" viewBox="0 0 40 40" fill="none" xmlns="http://www.w3.org/2000/svg">
<path fill-rule="evenodd" clip-rule="evenodd" d="M6.25 6.25H33.75C34.413 6.25 35.0489 6.51339 35.5178 6.98223C35.9866 7.45107 36.25 8.08696 36.25 8.75V25.4268C35.4681 25.1504 34.6266 25 33.75 25C29.6079 25 26.25 28.3579 26.25 32.5C26.25 32.9259 26.2855 33.3435 26.3537 33.75H6.25C5.58696 33.75 4.95107 33.4866 4.48223 33.0178C4.01339 32.5489 3.75 31.913 3.75 31.25V8.75C3.75 8.08696 4.01339 7.45107 4.48223 6.98223C4.95107 6.51339 5.58696 6.25 6.25 6.25ZM14.6967 19.0533C16.1032 20.4598 18.0109 21.25 20 21.25C21.9891 21.25 23.8968 20.4598 25.3033 19.0533C26.7098 17.6468 27.5 15.7391 27.5 13.75C27.5 13.4185 27.3683 13.1005 27.1339 12.8661C26.8995 12.6317 26.5815 12.5 26.25 12.5C25.9185 12.5 25.6005 12.6317 25.3661 12.8661C25.1317 13.1005 25 13.4185 25 13.75C25 15.0761 24.4732 16.3479 23.5355 17.2855C22.5979 18.2232 21.3261 18.75 20 18.75C18.6739 18.75 17.4021 18.2232 16.4645 17.2855C15.5268 16.3479 15 15.0761 15 13.75C15 13.4185 14.8683 13.1005 14.6339 12.8661C14.3995 12.6317 14.0815 12.5 13.75 12.5C13.4185 12.5 13.1005 12.6317 12.8661 12.8661C12.6317 13.1005 12.5 13.4185 12.5 13.75C12.5 15.7391 13.2902 17.6468 14.6967 19.0533Z" fill="#DA291C"/>
<path fill-rule="evenodd" clip-rule="evenodd" d="M38.4495 29.187C38.8985 29.7114 38.8374 30.5005 38.3131 30.9495L33.3083 35.2352C32.8398 35.6364 32.1487 35.6359 31.6808 35.234L29.1856 33.0912C28.6619 32.6414 28.6019 31.8522 29.0517 31.3285C29.5015 30.8048 30.2907 30.7448 30.8144 31.1946L32.4964 32.6391L36.687 29.0506C37.2114 28.6015 38.0004 28.6626 38.4495 29.187Z" fill="#DA291C"/>
</svg>
