<svg width="24" height="24" viewBox="0 0 24 24" fill="none" xmlns="http://www.w3.org/2000/svg">
<path d="M16.5001 14.9983C15.9999 14.9975 15.5046 15.0975 15.0439 15.2924C14.5833 15.4873 14.1666 15.7731 13.8188 16.1327L9.49696 13.3577C9.83433 12.4828 9.83433 11.5138 9.49696 10.6389L13.8188 7.86392C14.4268 8.48571 15.232 8.87687 16.0966 8.97043C16.9612 9.06399 17.8315 8.85414 18.5584 8.37679C19.2854 7.89945 19.8238 7.18429 20.0816 6.35372C20.3393 5.52315 20.3004 4.62881 19.9715 3.82377C19.6425 3.01873 19.044 2.35305 18.2784 1.94065C17.5127 1.52825 16.6275 1.39479 15.7743 1.56309C14.9211 1.7314 14.1529 2.19102 13.6012 2.86328C13.0496 3.53554 12.7487 4.37864 12.7501 5.24829C12.7516 5.71299 12.8374 6.17357 13.0032 6.60767L8.68133 9.38266C8.16101 8.8481 7.49306 8.48087 6.76292 8.32794C6.03277 8.175 5.2736 8.24332 4.58249 8.52414C3.89137 8.80496 3.29972 9.28553 2.88318 9.90439C2.46664 10.5233 2.24414 11.2523 2.24414 11.9983C2.24414 12.7443 2.46664 13.4733 2.88318 14.0922C3.29972 14.7111 3.89137 15.1916 4.58249 15.4724C5.2736 15.7533 6.03277 15.8216 6.76292 15.6686C7.49306 15.5157 8.16101 15.1485 8.68133 14.6139L13.0032 17.3889C12.8374 17.823 12.7516 18.2836 12.7501 18.7483C12.7501 19.49 12.97 20.215 13.3821 20.8317C13.7941 21.4484 14.3798 21.929 15.065 22.2128C15.7502 22.4967 16.5042 22.5709 17.2317 22.4262C17.9591 22.2815 18.6273 21.9244 19.1517 21.3999C19.6762 20.8755 20.0333 20.2073 20.178 19.4799C20.3227 18.7525 20.2485 17.9984 19.9646 17.3132C19.6808 16.628 19.2002 16.0423 18.5835 15.6303C17.9668 15.2182 17.2418 14.9983 16.5001 14.9983Z" fill="#141416"/>
</svg>
