<svg width="48" height="48" viewBox="0 0 48 48" fill="none" xmlns="http://www.w3.org/2000/svg">
<g clip-path="url(#clip0_1277_39424)">
<path d="M24.0083 4.00803C29.7494 4.00803 35.4905 4.01805 41.2312 4.00001C42.5076 3.99601 43.7555 4.85889 43.9885 6.34865C44.0065 6.4629 43.9965 6.58166 43.9965 6.69842C43.9965 18.2291 43.9945 29.7594 43.9995 41.2901C44 42.7202 42.8719 43.998 41.2618 43.998C29.7549 44.001 18.2476 43.9995 6.74078 43.9995C5.33557 43.9995 4.20749 42.9973 4.02858 41.6038C4.00803 41.4459 3.99951 41.2896 3.99951 41.1317C4.00001 29.6847 4.00001 18.2377 4.00001 6.79062C4.00001 5.36199 4.92713 4.25708 6.33586 4.01805C6.48219 3.993 6.63554 4.00803 6.78589 4.00803C12.527 4.00803 18.2677 4.00803 24.0088 4.00803H24.0083ZM10.4838 18.8786H10.4853C10.4853 20.0967 10.4909 21.3144 10.4798 22.5326C10.4778 22.746 10.539 22.7911 10.7429 22.7886C11.6691 22.7771 12.5952 22.7751 13.5213 22.7896C13.7473 22.7931 13.7934 22.729 13.7924 22.5125C13.7839 20.2601 13.7874 18.0077 13.7874 15.7552C13.7874 15.655 13.7859 15.5548 13.7944 15.4551C13.829 15.0532 14.1217 14.7145 14.5116 14.6197C15.1625 14.4619 15.7178 14.9164 15.7183 15.6154C15.7203 17.918 15.7218 20.2205 15.7143 22.523C15.7138 22.7255 15.7569 22.7916 15.9704 22.7886C16.8965 22.7766 17.8226 22.7761 18.7488 22.7886C18.9708 22.7916 19.0409 22.742 19.0399 22.5065C19.0304 20.2456 19.0339 17.9851 19.0349 15.7242C19.0349 15.6159 19.0349 15.5067 19.0509 15.4C19.1286 14.8693 19.6333 14.5105 20.162 14.6062C20.6661 14.6974 20.9688 15.0732 20.9693 15.6224C20.9708 17.925 20.9728 20.2275 20.9648 22.53C20.9643 22.741 21.0225 22.7911 21.2274 22.7886C22.1535 22.7776 23.0797 22.7756 24.0058 22.7896C24.2298 22.7931 24.2784 22.733 24.2774 22.515C24.2689 20.204 24.2859 17.8934 24.2674 15.5824C24.2538 13.8957 23.4886 12.6053 22.0147 11.8066C20.5193 10.9958 19.0159 11.0995 17.5801 12.016C17.4423 12.1042 17.3601 12.1188 17.2122 12.0241C15.7704 11.0975 14.2585 10.9968 12.754 11.8076C11.2696 12.6073 10.5074 13.9017 10.4858 15.5999C10.4718 16.6928 10.4833 17.7857 10.4833 18.8786H10.4838ZM24.2729 32.8687C24.2729 31.7673 24.2854 30.6658 24.2699 29.5649C24.2458 27.8547 23.4721 26.5589 21.9706 25.7666C20.4957 24.9889 19.0124 25.0922 17.5991 25.9881C17.4448 26.0858 17.3485 26.0923 17.1882 25.9906C15.795 25.1082 14.3291 24.9924 12.8598 25.7396C11.3829 26.4907 10.5475 27.7414 10.5099 29.4026C10.4553 31.8043 10.4949 34.2081 10.4874 36.6109C10.4869 36.7963 10.5866 36.7827 10.7084 36.7827C11.6595 36.7812 12.6112 36.7752 13.5619 36.7872C13.7724 36.7897 13.8029 36.7126 13.8014 36.5287C13.7934 35.6026 13.7974 34.6766 13.7979 33.7506C13.7979 32.357 13.7959 30.964 13.7989 29.5705C13.7999 29.0268 14.1708 28.6209 14.6915 28.5763C15.2908 28.5252 15.7399 28.9772 15.7404 29.6416C15.7419 31.9276 15.7434 34.2136 15.7369 36.5001C15.7364 36.6975 15.7694 36.7712 15.9899 36.7682C16.9241 36.7542 17.8592 36.7557 18.7934 36.7672C19.0068 36.7697 19.0514 36.7031 19.0509 36.5001C19.0429 34.7398 19.0459 32.9794 19.0464 31.2186C19.0464 30.6348 19.0384 30.05 19.0575 29.4667C19.073 28.9842 19.4574 28.6144 19.943 28.5748C20.407 28.5372 20.8511 28.8464 20.9528 29.2979C20.9889 29.4587 20.9919 29.6291 20.9919 29.7954C20.9944 32.0399 20.9959 34.2843 20.9894 36.5287C20.9889 36.7121 21.0305 36.7687 21.2224 36.7667C22.157 36.7562 23.0917 36.7567 24.0258 36.7667C24.2163 36.7687 24.2789 36.7271 24.2774 36.5232C24.2669 35.305 24.2724 34.0868 24.2724 32.8687H24.2729ZM37.437 17.0215C37.436 13.8471 34.8636 11.2764 31.6904 11.2769C28.5176 11.2774 25.9402 13.8471 25.9327 17.0165C25.9247 20.1984 28.5016 22.7816 31.6858 22.7836C34.8736 22.7856 37.4385 20.2165 37.437 17.022V17.0215ZM31.6803 25.2715C28.5016 25.272 25.9367 27.8332 25.9322 31.0111C25.9277 34.1835 28.4996 36.7607 31.6708 36.7622C34.8736 36.7637 37.4365 34.2116 37.437 31.0206C37.437 27.8226 34.8822 25.271 31.6803 25.2715Z" fill="#B40166"/>
<path d="M10.4839 18.8786C10.4839 17.7857 10.4724 16.6928 10.4865 15.5999C10.5085 13.9012 11.2702 12.6073 12.7546 11.8076C14.2591 10.9968 15.7715 11.098 17.2128 12.0241C17.3607 12.1188 17.4429 12.1042 17.5807 12.016C19.017 11.0995 20.5199 10.9958 22.0153 11.8066C23.4892 12.6058 24.2544 13.8957 24.268 15.5823C24.286 17.8929 24.2695 20.204 24.278 22.515C24.279 22.733 24.2304 22.7931 24.0064 22.7896C23.0803 22.7751 22.1541 22.7771 21.228 22.7886C21.0231 22.7911 20.9649 22.741 20.9654 22.53C20.9734 20.2275 20.9714 17.925 20.9699 15.6224C20.9699 15.0732 20.6672 14.6969 20.1626 14.6062C19.6339 14.511 19.1292 14.8693 19.0515 15.3999C19.036 15.5067 19.0355 15.6159 19.0355 15.7242C19.0345 17.9851 19.031 20.2455 19.0405 22.5065C19.0415 22.742 18.9714 22.7916 18.7494 22.7886C17.8232 22.7761 16.8971 22.7766 15.971 22.7886C15.7575 22.7916 15.7139 22.7255 15.7149 22.523C15.7224 20.2205 15.7209 17.918 15.7189 15.6154C15.7184 14.9164 15.1631 14.4624 14.5122 14.6197C14.1223 14.7144 13.8296 15.0527 13.795 15.4551C13.7865 15.5548 13.788 15.655 13.788 15.7552C13.788 18.0076 13.7845 20.2601 13.793 22.5125C13.794 22.7285 13.7479 22.7931 13.5219 22.7896C12.5958 22.7751 11.6697 22.7771 10.7435 22.7886C10.5396 22.7911 10.4784 22.746 10.4804 22.5325C10.4915 21.3149 10.486 20.0967 10.486 18.8786H10.4844H10.4839Z" fill="#FEFDFD"/>
<path d="M24.273 32.8686C24.273 34.0868 24.268 35.305 24.2781 36.5231C24.2796 36.7271 24.2169 36.7682 24.0265 36.7667C23.0918 36.7572 22.1572 36.7567 21.2231 36.7667C21.0316 36.7687 20.9895 36.7121 20.99 36.5287C20.9965 34.2842 20.995 32.0398 20.9925 29.7954C20.9925 29.6296 20.9895 29.4587 20.9534 29.2978C20.8517 28.8463 20.4077 28.5372 19.9436 28.5748C19.458 28.6143 19.0736 28.9842 19.0581 29.4667C19.0396 30.05 19.0476 30.6343 19.0471 31.2185C19.0461 32.9789 19.0436 34.7392 19.0516 36.5001C19.0526 36.7025 19.0075 36.7697 18.794 36.7672C17.8594 36.7556 16.9247 36.7541 15.9906 36.7682C15.7701 36.7717 15.737 36.698 15.7375 36.5001C15.7445 34.2141 15.743 31.9281 15.741 29.6416C15.741 28.9776 15.2915 28.5251 14.6921 28.5763C14.1714 28.6209 13.8011 29.0267 13.7996 29.5704C13.7966 30.964 13.7986 32.357 13.7986 33.7506C13.7986 34.6766 13.7941 35.6026 13.8021 36.5287C13.8036 36.7121 13.773 36.7897 13.5625 36.7872C12.6114 36.7752 11.6602 36.7812 10.709 36.7827C10.5867 36.7827 10.4875 36.7962 10.488 36.6108C10.495 34.2081 10.4559 31.8043 10.5106 29.4026C10.5481 27.7414 11.3836 26.4907 12.8604 25.7396C14.3298 24.9924 15.7956 25.1082 17.1888 25.9906C17.3497 26.0923 17.4454 26.0858 17.5998 25.9881C19.013 25.0921 20.4964 24.9889 21.9713 25.7666C23.4722 26.5583 24.2465 27.8547 24.2705 29.5649C24.2861 30.6658 24.2735 31.7677 24.2735 32.8686H24.273Z" fill="#FEFDFD"/>
<path d="M37.437 17.022C37.438 20.2165 34.8736 22.7856 31.6858 22.7836C28.5015 22.7816 25.9246 20.1989 25.9326 17.0165C25.9407 13.847 28.518 11.2779 31.6903 11.2769C34.8641 11.2764 37.436 13.847 37.437 17.0215V17.022ZM34.1334 17.0475C34.1419 15.7066 33.0569 14.6022 31.7159 14.5867C30.3678 14.5706 29.2532 15.664 29.2392 17.017C29.2252 18.3464 30.3287 19.4678 31.6607 19.4769C33.0183 19.4864 34.1249 18.399 34.1339 17.0475H34.1334Z" fill="#FEFDFD"/>
<path d="M31.6803 25.2715C34.8821 25.271 37.437 27.8226 37.437 31.0206C37.437 34.2121 34.8741 36.7642 31.6708 36.7622C28.499 36.7607 25.9276 34.183 25.9321 31.0111C25.9366 27.8331 28.5015 25.272 31.6803 25.2715ZM31.6728 28.5703C30.3332 28.5808 29.2352 29.6852 29.2382 31.0191C29.2412 32.3856 30.3598 33.469 31.754 33.4565C33.067 33.4444 34.1434 32.327 34.1324 30.9875C34.1214 29.6506 33.0118 28.5602 31.6728 28.5703Z" fill="#FEFDFD"/>
<path d="M34.1336 17.0475C34.1251 18.399 33.0181 19.4864 31.6605 19.4769C30.3279 19.4673 29.2244 18.3464 29.2389 17.017C29.2534 15.664 30.3675 14.5706 31.7156 14.5867C33.0571 14.6027 34.1416 15.7066 34.1331 17.0475H34.1336Z" fill="#B40166"/>
<path d="M31.6729 28.5702C33.0119 28.5597 34.1215 29.6506 34.1325 30.9875C34.1435 32.327 33.067 33.4444 31.754 33.4564C30.3599 33.4695 29.2418 32.3861 29.2383 31.0191C29.2353 29.6852 30.3333 28.5808 31.6729 28.5702Z" fill="#B40166"/>
</g>
<defs>
<clipPath id="clip0_1277_39424">
<rect width="40" height="40" fill="white" transform="translate(4 4)"/>
</clipPath>
</defs>
</svg>
