<svg width="40" height="40" viewBox="0 0 40 40" fill="none" xmlns="http://www.w3.org/2000/svg">
<g clip-path="url(#clip0_3177_19375)">
<path d="M20.4953 9.87695C13.5952 9.87695 8 14.316 8 19.7941C8 23.3359 10.3376 26.4385 13.8581 28.2L12.5907 32.7571C12.5907 32.7571 12.5672 32.9696 12.7033 33.0499C12.8395 33.1302 13.0038 33.0688 13.0038 33.0688C13.398 33.0121 17.5569 30.0701 18.2845 29.56C19.0026 29.6639 19.749 29.7159 20.5047 29.7159C27.4048 29.7159 33 25.2768 33 19.7988C33 14.3208 27.3954 9.87695 20.4953 9.87695Z" fill="#3B1D1E"/>
<path d="M13.5857 23.2505C13.1868 23.2505 12.8629 22.9388 12.8629 22.5563V18.2447H11.7363C11.3467 18.2447 11.0322 17.9283 11.0322 17.5363C11.0322 17.1444 11.3514 16.828 11.7363 16.828H15.4305C15.8201 16.828 16.1346 17.1444 16.1346 17.5363C16.1346 17.9283 15.8154 18.2447 15.4305 18.2447H14.3039V22.5563C14.3039 22.9341 13.9753 23.2505 13.581 23.2505H13.5857ZM19.9085 23.241C19.6081 23.241 19.3781 23.1182 19.3077 22.9199L18.9509 21.9754H16.7542L16.3974 22.9199C16.327 23.1182 16.097 23.241 15.7966 23.241C15.637 23.241 15.4821 23.208 15.3366 23.1466C15.1394 23.0521 14.947 22.8018 15.1676 22.1171L16.8903 17.5505C17.0123 17.201 17.3831 16.8421 17.8525 16.8327C18.3219 16.8232 18.6975 17.201 18.8148 17.5505L20.5375 22.1171C20.7581 22.8018 20.5656 23.0616 20.3685 23.1466C20.2277 23.2127 20.0681 23.241 19.9085 23.241ZM18.5707 20.6909L17.8525 18.6319L17.1344 20.6909H18.5707ZM21.6969 23.1466C21.3214 23.1466 21.0069 22.8491 21.0069 22.4854V17.5505C21.0069 17.1491 21.3355 16.8232 21.7438 16.8232C22.1522 16.8232 22.4808 17.1538 22.4808 17.5505V21.8101H24.011C24.3865 21.8101 24.701 22.1076 24.701 22.4713C24.701 22.8349 24.3912 23.1324 24.011 23.1324L21.6969 23.1466ZM24.978 22.5138V17.5552C24.978 17.1538 25.3065 16.828 25.7008 16.828C26.0951 16.828 26.4237 17.1585 26.4237 17.5552V19.1136L28.4421 17.083C28.6643 16.8594 29.0843 16.879 29.3386 17.1349C29.5776 17.3753 29.6397 17.7816 29.3903 18.0369L27.738 19.6898L29.5123 22.051C29.7507 22.358 29.6929 22.8362 29.3715 23.0616C29.0547 23.2977 28.5892 23.219 28.3623 22.9199L26.6725 20.6673L26.4237 20.9176V22.4996C26.4237 23.4419 24.978 23.4782 24.978 22.5138Z" fill="#FFE812"/>
</g>
<rect x="0.5" y="0.5" width="39" height="39" rx="19.5" stroke="#E6E8EC"/>
<defs>
<clipPath id="clip0_3177_19375">
<rect width="25" height="25" fill="white" transform="translate(8 8.99805)"/>
</clipPath>
</defs>
</svg>
