<svg width="20" height="20" viewBox="0 0 20 20" fill="none" xmlns="http://www.w3.org/2000/svg">
<path d="M3.54709 13.8279C2.61653 12.2579 2.29103 10.4023 2.6317 8.60931C2.97237 6.81633 3.95578 5.20936 5.39731 4.09007C6.83883 2.97078 8.63934 2.41615 10.4608 2.5303C12.2823 2.64446 13.9995 3.41954 15.29 4.71004C16.5805 6.00055 17.3556 7.71773 17.4697 9.53921C17.5839 11.3607 17.0292 13.1612 15.91 14.6027C14.7907 16.0442 13.1837 17.0277 11.3907 17.3683C9.59775 17.709 7.74208 17.3835 6.17209 16.4529V16.4529L3.57834 17.1873C3.47207 17.2184 3.3594 17.2203 3.25213 17.1929C3.14487 17.1654 3.04696 17.1097 2.96866 17.0314C2.89037 16.9531 2.83459 16.8552 2.80715 16.7479C2.77971 16.6406 2.78163 16.528 2.81271 16.4217L3.54709 13.8279Z" stroke="#141416" stroke-linecap="round" stroke-linejoin="round"/>
<path d="M10.4102 11.4551H9.50195C9.50521 11.1426 9.53288 10.887 9.58496 10.6885C9.6403 10.4867 9.72982 10.3027 9.85352 10.1367C9.97721 9.9707 10.1416 9.7819 10.3467 9.57031C10.4964 9.41732 10.6331 9.27409 10.7568 9.14062C10.8838 9.00391 10.9863 8.85742 11.0645 8.70117C11.1426 8.54167 11.1816 8.35124 11.1816 8.12988C11.1816 7.90527 11.141 7.71159 11.0596 7.54883C10.9814 7.38607 10.8643 7.26074 10.708 7.17285C10.555 7.08496 10.3646 7.04102 10.1367 7.04102C9.94792 7.04102 9.76888 7.0752 9.59961 7.14355C9.43034 7.21191 9.29362 7.31771 9.18945 7.46094C9.08529 7.60091 9.03158 7.78483 9.02832 8.0127H8.125C8.13151 7.64486 8.22266 7.3291 8.39844 7.06543C8.57747 6.80176 8.81836 6.59993 9.12109 6.45996C9.42383 6.31999 9.76237 6.25 10.1367 6.25C10.5501 6.25 10.9017 6.32487 11.1914 6.47461C11.4844 6.62435 11.7074 6.83919 11.8604 7.11914C12.0133 7.39583 12.0898 7.72461 12.0898 8.10547C12.0898 8.39844 12.0296 8.66862 11.9092 8.91602C11.792 9.16016 11.6406 9.38965 11.4551 9.60449C11.2695 9.81934 11.0726 10.0244 10.8643 10.2197C10.6852 10.3857 10.5648 10.5729 10.5029 10.7812C10.4411 10.9896 10.4102 11.2142 10.4102 11.4551ZM9.46289 13.0029C9.46289 12.8564 9.50846 12.7327 9.59961 12.6318C9.69076 12.5309 9.82259 12.4805 9.99512 12.4805C10.1709 12.4805 10.3044 12.5309 10.3955 12.6318C10.4867 12.7327 10.5322 12.8564 10.5322 13.0029C10.5322 13.1429 10.4867 13.2633 10.3955 13.3643C10.3044 13.4652 10.1709 13.5156 9.99512 13.5156C9.82259 13.5156 9.69076 13.4652 9.59961 13.3643C9.50846 13.2633 9.46289 13.1429 9.46289 13.0029Z" fill="#141416"/>
</svg>
