<svg width="6" height="5" viewBox="0 0 6 5" fill="none" xmlns="http://www.w3.org/2000/svg">
<path d="M3.7152 3.80792L5.7406 0.685532C5.78236 0.618752 5.80445 0.543038 5.80469 0.465923C5.80492 0.388809 5.78328 0.312982 5.74193 0.245986C5.70058 0.178991 5.64095 0.123162 5.56897 0.0840537C5.497 0.0449459 5.41519 0.0239219 5.33169 0.0230743L1.28089 0.023074C1.19739 0.0239216 1.11558 0.0449455 1.04361 0.0840533C0.971635 0.123161 0.912006 0.17899 0.870653 0.245986C0.829299 0.312981 0.807663 0.388808 0.807896 0.465923C0.808131 0.543037 0.830226 0.618751 0.871985 0.685532L2.89738 3.80792C2.94001 3.87281 3.00004 3.92647 3.07166 3.96371C3.14329 4.00094 3.22409 4.02051 3.30629 4.02051C3.38849 4.02051 3.4693 4.00094 3.54092 3.96371C3.61255 3.92647 3.67257 3.87281 3.7152 3.80792Z" fill="#777E91"/>
</svg>
