<?xml version="1.0" encoding="utf-8"?>
<!-- Generator: Adobe Illustrator 27.4.0, SVG Export Plug-In . SVG Version: 6.00 Build 0)  -->
<svg version="1.1" id="Layer_1" xmlns="http://www.w3.org/2000/svg" xmlns:xlink="http://www.w3.org/1999/xlink" x="0px" y="0px"
	 viewBox="0 0 24 24" style="enable-background:new 0 0 24 24;" xml:space="preserve">
<style type="text/css">
	.st0{clip-path:url(#SVGID_00000003071852663083602470000014159998607804285367_);}
	.st1{fill:#6BB893;}
	.st2{fill:#8FDCB6;}
	.st3{fill:#FFD1D4;}
	.st4{fill:#F1AAAE;}
	.st5{fill:#F49FA4;}
	.st6{fill:#C85960;}
	.st7{fill:#F9E95B;}
	.st8{fill:#E3D01D;}
</style>
<g>
	<defs>
		<rect id="SVGID_1_" x="1.6" y="1.6" width="20.7" height="20.7"/>
	</defs>
	<clipPath id="SVGID_00000032630235478582705760000004772037785897025699_">
		<use xlink:href="#SVGID_1_"  style="overflow:visible;"/>
	</clipPath>
	<g style="clip-path:url(#SVGID_00000032630235478582705760000004772037785897025699_);">
		<path class="st1" d="M8.3,6.1l8.9-4l1.9,4l-5.8,1.5L8.3,6.1z"/>
		<path class="st2" d="M5.5,6.1l8.9-4l1.9,4l-6.2,1.8L5.5,6.1z"/>
		<path class="st3" d="M19.4,21.9H3.5c-1,0-1.9-0.9-1.9-1.9V8c0-1,0.9-1.9,1.9-1.9h15.9c1,0,1.9,0.9,1.9,1.9v12
			C21.3,21.1,20.5,21.9,19.4,21.9z"/>
		<path class="st4" d="M5.5,21.9h-2c-1,0-1.9-0.9-1.9-1.9V8c0-1,0.9-1.9,1.9-1.9h2C4.5,6.1,3.6,7,3.6,8v12
			C3.6,21.1,4.5,21.9,5.5,21.9z"/>
		<path class="st5" d="M15.4,17h5.8c0.6,0,1.1-0.5,1.1-1.1v-3.8c0-0.6-0.5-1.1-1.1-1.1h-5.8c-0.6,0-1.1,0.5-1.1,1.1v3.8
			C14.3,16.5,14.8,17,15.4,17z"/>
		<path class="st6" d="M16.5,17h-1.1c-0.6,0-1.1-0.5-1.1-1.1v-3.8c0-0.6,0.5-1.1,1.1-1.1h1.1c-0.6,0-1.1,0.5-1.1,1.1v3.8
			C15.4,16.5,15.9,17,16.5,17z"/>
		<path class="st7" d="M17.7,15.5c0.8,0,1.5-0.7,1.5-1.5c0-0.8-0.7-1.5-1.5-1.5c-0.8,0-1.5,0.7-1.5,1.5
			C16.2,14.8,16.9,15.5,17.7,15.5z"/>
		<path class="st8" d="M18.2,15.4c-0.1,0-0.3,0.1-0.5,0.1c-0.8,0-1.5-0.7-1.5-1.5c0-0.8,0.7-1.5,1.5-1.5c0.2,0,0.3,0,0.5,0.1
			c-0.6,0.2-1,0.8-1,1.4C17.1,14.7,17.6,15.2,18.2,15.4z"/>
	</g>
</g>
</svg>
