<svg width="56" height="56" viewBox="0 0 56 56" fill="none" xmlns="http://www.w3.org/2000/svg">
<path d="M17.6098 37.664H12.5439C12.3253 37.664 12.1157 37.5771 11.9611 37.4226C11.8066 37.268 11.7197 37.0584 11.7197 36.8398C11.7197 36.6212 11.8066 36.4116 11.9611 36.257C12.1157 36.1025 12.3253 36.0156 12.5439 36.0156H17.6098C17.8284 36.0156 18.0381 36.1025 18.1926 36.257C18.3472 36.4116 18.434 36.6212 18.434 36.8398C18.434 37.0584 18.3472 37.268 18.1926 37.4226C18.0381 37.5771 17.8284 37.664 17.6098 37.664Z" fill="#141416"/>
<path d="M38.1645 37.664H27.0986C26.88 37.664 26.6704 37.5771 26.5158 37.4226C26.3612 37.268 26.2744 37.0584 26.2744 36.8398C26.2744 36.6212 26.3612 36.4116 26.5158 36.257C26.6704 36.1025 26.88 36.0156 27.0986 36.0156H38.1645C38.3831 36.0156 38.5927 36.1025 38.7473 36.257C38.9019 36.4116 38.9887 36.6212 38.9887 36.8398C38.9887 37.0584 38.9019 37.268 38.7473 37.4226C38.5927 37.5771 38.3831 37.664 38.1645 37.664Z" fill="#141416"/>
<path d="M51.6102 37.6645H47.6432C47.4246 37.6645 47.2149 37.5777 47.0604 37.4231C46.9058 37.2686 46.819 37.0589 46.819 36.8403C46.819 36.6218 46.9058 36.4121 47.0604 36.2576C47.2149 36.103 47.4246 36.0162 47.6432 36.0162H50.8025V29.6315C50.8033 29.2188 50.7037 28.812 50.5123 28.4464C50.3208 28.0807 50.0433 27.7671 49.7036 27.5326L47.1761 25.8239C47.0878 25.7611 47.0114 25.6829 46.9508 25.5931L40.9508 16.3239C40.7013 15.9328 40.3567 15.6113 39.9494 15.3894C39.542 15.1675 39.0851 15.0523 38.6212 15.0546H15.6377C15.4191 15.0546 15.2094 14.9678 15.0549 14.8132C14.9003 14.6587 14.8135 14.449 14.8135 14.2305C14.8135 14.0119 14.9003 13.8022 15.0549 13.6477C15.2094 13.4931 15.4191 13.4063 15.6377 13.4063H38.6212C39.3604 13.4038 40.0882 13.5878 40.7375 13.9412C41.3867 14.2947 41.9363 14.8061 42.3355 15.4283L48.242 24.5546L50.6047 26.17C51.1714 26.5527 51.6359 27.0682 51.9576 27.6715C52.2794 28.2749 52.4488 28.9478 52.4508 29.6315V36.8403C52.4509 36.95 52.429 37.0585 52.3866 37.1596C52.3441 37.2607 52.2819 37.3523 52.2036 37.429C52.1254 37.5058 52.0326 37.5661 51.9306 37.6066C51.8287 37.647 51.7198 37.6667 51.6102 37.6645Z" fill="#141416"/>
<path d="M22.3517 42.594C21.2498 42.594 20.1726 42.2673 19.2564 41.6551C18.3402 41.0429 17.6261 40.1727 17.2044 39.1547C16.7827 38.1366 16.6724 37.0164 16.8873 35.9357C17.1023 34.8549 17.6329 33.8622 18.4121 33.083C19.1913 32.3038 20.184 31.7732 21.2648 31.5582C22.3455 31.3433 23.4658 31.4536 24.4838 31.8753C25.5018 32.297 26.372 33.0111 26.9842 33.9273C27.5964 34.8435 27.9231 35.9207 27.9231 37.0226C27.9231 38.5002 27.3361 39.9174 26.2913 40.9622C25.2465 42.007 23.8293 42.594 22.3517 42.594ZM22.3517 33.0995C21.5758 33.0995 20.8173 33.3296 20.1722 33.7607C19.527 34.1918 19.0242 34.8045 18.7273 35.5213C18.4303 36.2382 18.3526 37.027 18.504 37.788C18.6554 38.549 19.029 39.248 19.5777 39.7966C20.1263 40.3453 20.8253 40.7189 21.5864 40.8703C22.3474 41.0217 23.1362 40.944 23.853 40.6471C24.5698 40.3501 25.1825 39.8473 25.6136 39.2021C26.0447 38.557 26.2748 37.7985 26.2748 37.0226C26.2733 35.9826 25.8595 34.9856 25.1241 34.2502C24.3887 33.5148 23.3917 33.101 22.3517 33.0995Z" fill="#141416"/>
<path d="M42.8956 42.594C41.7937 42.594 40.7165 42.2673 39.8003 41.6551C38.8841 41.0429 38.17 40.1727 37.7483 39.1547C37.3266 38.1366 37.2163 37.0164 37.4313 35.9357C37.6462 34.8549 38.1769 33.8622 38.9561 33.083C39.7352 32.3038 40.728 31.7732 41.8087 31.5582C42.8895 31.3433 44.0097 31.4536 45.0277 31.8753C46.0458 32.297 46.9159 33.0111 47.5281 33.9273C48.1403 34.8435 48.4671 35.9207 48.4671 37.0226C48.4656 38.4998 47.8782 39.9161 46.8336 40.9606C45.7891 42.0051 44.3728 42.5926 42.8956 42.594ZM42.8956 33.0995C42.1197 33.0995 41.3613 33.3296 40.7161 33.7607C40.071 34.1918 39.5681 34.8045 39.2712 35.5213C38.9743 36.2382 38.8966 37.027 39.048 37.788C39.1993 38.549 39.573 39.248 40.1216 39.7966C40.6703 40.3453 41.3693 40.7189 42.1303 40.8703C42.8913 41.0217 43.6801 40.944 44.3969 40.6471C45.1138 40.3501 45.7265 39.8473 46.1576 39.2021C46.5886 38.557 46.8187 37.7985 46.8187 37.0226C46.8158 35.983 46.4016 34.9869 45.6665 34.2518C44.9314 33.5167 43.9352 33.1024 42.8956 33.0995Z" fill="#141416"/>
<path d="M47.6425 25.9667H34.2744C34.0558 25.9667 33.8462 25.8799 33.6916 25.7253C33.537 25.5707 33.4502 25.3611 33.4502 25.1425V14.2304C33.4502 14.0119 33.537 13.8022 33.6916 13.6477C33.8462 13.4931 34.0558 13.4063 34.2744 13.4063H38.4832C39.2647 13.4045 40.0341 13.5993 40.7207 13.9728C41.4072 14.3463 41.9887 14.8865 42.4117 15.5436L48.3348 24.6975C48.4166 24.8215 48.4631 24.9655 48.4693 25.1139C48.4755 25.2623 48.4411 25.4097 48.37 25.5401C48.2989 25.6705 48.1936 25.7791 48.0654 25.8543C47.9373 25.9294 47.7911 25.9683 47.6425 25.9667ZM35.0985 24.3183H46.126L41.0271 16.4392C40.7533 16.0135 40.3768 15.6636 39.9322 15.4216C39.4876 15.1797 38.9893 15.0534 38.4832 15.0546H35.0985V24.3183Z" fill="#141416"/>
<path d="M18.6319 21.0722H10.0166C9.79797 21.0722 9.58834 20.9853 9.43378 20.8308C9.27922 20.6762 9.19238 20.4666 9.19238 20.248C9.19238 20.0294 9.27922 19.8198 9.43378 19.6652C9.58834 19.5107 9.79797 19.4238 10.0166 19.4238H18.6319C18.8505 19.4238 19.0602 19.5107 19.2147 19.6652C19.3693 19.8198 19.4561 20.0294 19.4561 20.248C19.4561 20.4666 19.3693 20.6762 19.2147 20.8308C19.0602 20.9853 18.8505 21.0722 18.6319 21.0722Z" fill="#DA291C"/>
<path d="M14.7528 27.0487H4.51656C4.29797 27.0487 4.08834 26.9619 3.93378 26.8073C3.77922 26.6528 3.69238 26.4432 3.69238 26.2246C3.69238 26.006 3.77922 25.7963 3.93378 25.6418C4.08834 25.4872 4.29797 25.4004 4.51656 25.4004H14.7528C14.9714 25.4004 15.181 25.4872 15.3356 25.6418C15.4902 25.7963 15.577 26.006 15.577 26.2246C15.577 26.4432 15.4902 26.6528 15.3356 26.8073C15.181 26.9619 14.9714 27.0487 14.7528 27.0487Z" fill="#DA291C"/>
<path d="M13.8075 32.0487H7.65914C7.44055 32.0487 7.23092 31.9619 7.07636 31.8073C6.92179 31.6528 6.83496 31.4432 6.83496 31.2246C6.83496 31.006 6.92179 30.7964 7.07636 30.6418C7.23092 30.4872 7.44055 30.4004 7.65914 30.4004H13.8075C14.0261 30.4004 14.2357 30.4872 14.3903 30.6418C14.5448 30.7964 14.6317 31.006 14.6317 31.2246C14.6317 31.4432 14.5448 31.6528 14.3903 31.8073C14.2357 31.9619 14.0261 32.0487 13.8075 32.0487Z" fill="#DA291C"/>
</svg>
