<svg width="36" height="36" viewBox="0 0 36 36" fill="none" xmlns="http://www.w3.org/2000/svg">
<path d="M6.67601 20.8623L17.4415 30.9753C17.7061 31.224 17.8385 31.3483 18 31.3483C18.1615 31.3483 18.2939 31.224 18.5585 30.9753L29.324 20.8623C29.612 20.5918 29.756 20.4565 29.8751 20.3337C32.3304 17.8017 32.6384 13.8816 30.6085 10.9973C30.51 10.8574 30.3889 10.7013 30.1467 10.3891L30.1467 10.3891L29.6827 9.79102C26.7304 5.98587 20.8044 6.62402 18.73 10.9705C18.437 11.5844 17.563 11.5844 17.27 10.9705C15.1956 6.62402 9.26958 5.98587 6.31732 9.79102L5.85328 10.3891C5.61106 10.7013 5.48996 10.8574 5.39149 10.9973C3.36161 13.8816 3.66957 17.8017 6.12492 20.3337C6.24402 20.4565 6.38802 20.5918 6.67601 20.8623Z" fill="#DA291C" stroke="#DA291C" stroke-width="2"/>
</svg>
