<?xml version="1.0" encoding="utf-8"?>
<!-- Generator: Adobe Illustrator 27.4.0, SVG Export Plug-In . SVG Version: 6.00 Build 0)  -->
<svg version="1.1" id="Layer_1" xmlns="http://www.w3.org/2000/svg" xmlns:xlink="http://www.w3.org/1999/xlink" x="0px" y="0px"
	 viewBox="0 0 38.8 38.8" style="enable-background:new 0 0 38.8 38.8;" xml:space="preserve">
<style type="text/css">
	.st0{clip-path:url(#SVGID_00000081635805791448330770000002953430107860804507_);}
	.st1{fill:#6BB893;}
	.st2{fill:#8FDCB6;}
	.st3{fill:#FFD1D4;}
	.st4{fill:#F1AAAE;}
	.st5{fill:#F49FA4;}
	.st6{fill:#C85960;}
	.st7{fill:#F9E95B;}
	.st8{fill:#E3D01D;}
</style>
<g>
	<g>
		<defs>
			<rect id="SVGID_1_" x="5.1" y="5.1" width="28.6" height="28.6"/>
		</defs>
		<clipPath id="SVGID_00000075130591507251118770000010760170573887617153_">
			<use xlink:href="#SVGID_1_"  style="overflow:visible;"/>
		</clipPath>
		<g style="clip-path:url(#SVGID_00000075130591507251118770000010760170573887617153_);">
			<path class="st1" d="M14.4,11.3l12.3-5.5l2.6,5.5l-8,2.1L14.4,11.3z"/>
			<path class="st2" d="M10.5,11.3l12.3-5.5l2.6,5.5l-8.6,2.5L10.5,11.3z"/>
			<path class="st3" d="M29.7,33.2h-22c-1.4,0-2.6-1.2-2.6-2.6V14c0-1.4,1.2-2.6,2.6-2.6h22c1.4,0,2.6,1.2,2.6,2.6v16.6
				C32.3,32.1,31.2,33.2,29.7,33.2z"/>
			<path class="st4" d="M10.5,33.2H7.7c-1.4,0-2.6-1.2-2.6-2.6V14c0-1.4,1.2-2.6,2.6-2.6h2.8c-1.4,0-2.6,1.2-2.6,2.6v16.6
				C7.9,32.1,9.1,33.2,10.5,33.2z"/>
			<path class="st5" d="M24.2,26.4h8c0.8,0,1.5-0.7,1.5-1.5v-5.3c0-0.8-0.7-1.5-1.5-1.5h-8c-0.8,0-1.5,0.7-1.5,1.5v5.3
				C22.7,25.7,23.4,26.4,24.2,26.4z"/>
			<path class="st6" d="M25.7,26.4h-1.5c-0.8,0-1.5-0.7-1.5-1.5v-5.3c0-0.8,0.7-1.5,1.5-1.5h1.5c-0.8,0-1.5,0.7-1.5,1.5v5.3
				C24.2,25.7,24.9,26.4,25.7,26.4z"/>
			<path class="st7" d="M27.4,24.3c1.1,0,2.1-1,2.1-2.1s-1-2.1-2.1-2.1c-1.1,0-2.1,1-2.1,2.1S26.3,24.3,27.4,24.3z"/>
			<path class="st8" d="M28.1,24.2c-0.1,0-0.4,0.1-0.7,0.1c-1.1,0-2.1-1-2.1-2.1s1-2.1,2.1-2.1c0.3,0,0.4,0,0.7,0.1
				c-0.8,0.3-1.4,1.1-1.4,1.9C26.5,23.2,27.2,23.9,28.1,24.2z"/>
		</g>
	</g>
</g>
</svg>
