<svg width="20" height="20" viewBox="0 0 20 20" fill="none" xmlns="http://www.w3.org/2000/svg">
<g clip-path="url(#clip0_2734_105838)">
<path d="M4.26115 18.1812C8.24624 20.9698 13.628 20.5022 17.0607 17.0725C17.4732 16.6603 17.8519 16.2072 18.1897 15.7276C19.7215 13.5415 20.31 10.8903 19.8469 8.26074C19.3837 5.6312 17.9219 3.3415 15.734 1.81101C11.7489 -0.977606 6.36707 -0.510024 2.93439 2.91971C2.52189 3.33186 2.14317 3.78498 1.80545 4.26461C-1.35705 8.77894 -0.257052 15.0214 4.26115 18.1836V18.1812Z" fill="url(#paint0_linear_2734_105838)"/>
<path d="M5.40874 16.5442C8.59665 18.7751 12.9019 18.401 15.6479 15.6572C15.9778 15.3275 16.2808 14.965 16.551 14.5813C17.7763 12.8324 18.2472 10.7114 17.8767 8.60781C17.5062 6.50418 16.3368 4.67242 14.5865 3.44803C11.3986 1.21713 7.09339 1.5912 4.34739 4.33499C4.01741 4.6647 3.71444 5.0272 3.44428 5.41091C0.914415 9.02237 1.79437 14.0163 5.40874 16.5461V16.5442Z" fill="white"/>
<path d="M10.1273 9.47877H12.1225V12.35C12.1225 13.8642 11.4135 14.6238 10.0007 14.6238C8.58786 14.6238 7.87891 13.8642 7.87891 12.35V7.64561C7.87891 6.13148 8.58786 5.37695 10.0007 5.37695C11.4135 5.37695 12.1225 6.13148 12.1225 7.64561V8.52674H10.7805V7.55446C10.7805 6.96197 10.5324 6.6632 10.0412 6.6632C9.55001 6.6632 9.30187 6.96197 9.30187 7.55446V12.4361C9.30187 13.0235 9.55001 13.3173 10.0412 13.3173C10.5324 13.3173 10.7805 13.0235 10.7805 12.4361V10.7701H10.1324V9.47877H10.1273Z" fill="url(#paint1_linear_2734_105838)"/>
</g>
<defs>
<linearGradient id="paint0_linear_2734_105838" x1="2.93298" y1="2.92878" x2="17.0699" y2="17.0687" gradientUnits="userSpaceOnUse">
<stop stop-color="#F2AE00"/>
<stop offset="0.291667" stop-color="#FDD571"/>
<stop offset="0.5" stop-color="#FDE3A0"/>
<stop offset="0.739583" stop-color="#FDD571"/>
<stop offset="1" stop-color="#F1AD00"/>
</linearGradient>
<linearGradient id="paint1_linear_2734_105838" x1="8.50119" y1="6.73285" x2="13.4572" y2="9.00763" gradientUnits="userSpaceOnUse">
<stop stop-color="#EFAB00"/>
<stop offset="0.3" stop-color="#F4D176"/>
<stop offset="0.5" stop-color="#FFDE89"/>
<stop offset="0.79" stop-color="#F4D176"/>
<stop offset="1" stop-color="#EAA800"/>
</linearGradient>
<clipPath id="clip0_2734_105838">
<rect width="20" height="20" fill="white"/>
</clipPath>
</defs>
</svg>
