<svg width="20" height="20" viewBox="0 0 20 20" fill="none" xmlns="http://www.w3.org/2000/svg">
<path d="M12.0069 7.00791L5.13193 13.8829C5.01247 13.9984 4.8528 14.063 4.68662 14.063C4.52045 14.063 4.36077 13.9984 4.24131 13.8829L0.803809 10.4454C0.704145 10.324 0.653212 10.1698 0.660919 10.0129C0.668625 9.856 0.734419 9.70756 0.845503 9.59648C0.956588 9.4854 1.10502 9.4196 1.26193 9.4119C1.41883 9.40419 1.573 9.45512 1.69443 9.55479L4.68662 12.5548L11.1163 6.11729C11.2377 6.01762 11.3919 5.96669 11.5488 5.9744C11.7057 5.9821 11.8542 6.0479 11.9652 6.15898C12.0763 6.27006 12.1421 6.4185 12.1498 6.5754C12.1575 6.73231 12.1066 6.88648 12.0069 7.00791ZM19.1944 6.11729C19.0759 5.99992 18.9159 5.93408 18.7491 5.93408C18.5823 5.93408 18.4223 5.99992 18.3038 6.11729L11.8741 12.5548L10.4913 11.172C10.3724 11.0642 10.2167 11.0064 10.0563 11.0103C9.89588 11.0143 9.74316 11.0797 9.62971 11.1932C9.51627 11.3066 9.45079 11.4594 9.44684 11.6197C9.44289 11.7801 9.50077 11.9359 9.6085 12.0548L11.4288 13.8829C11.5483 13.9984 11.7079 14.063 11.8741 14.063C12.0403 14.063 12.2 13.9984 12.3194 13.8829L19.1944 7.00791C19.3118 6.88941 19.3776 6.72938 19.3776 6.5626C19.3776 6.39582 19.3118 6.23578 19.1944 6.11729Z" fill="#8F96A8"/>
</svg>
