<svg width="16" height="16" viewBox="0 0 16 16" fill="none" xmlns="http://www.w3.org/2000/svg">
<path d="M14.1131 10.4423C14.3134 10.4314 14.4726 10.2657 14.4726 10.0625C14.4726 8.9665 13.5929 8.10799 12.4698 8.10799H12.0987L11.6451 5.95481C12.0828 5.76464 12.3898 5.32787 12.3898 4.82049C12.3898 4.13895 11.836 3.58447 11.1553 3.58447H9.40045C9.19036 3.58447 9.02004 3.755 9.02004 3.96533V4.43963H8.08496C7.87488 4.43963 7.70455 4.61015 7.70455 4.82049C7.70455 5.03082 7.87488 5.20135 8.08496 5.20135H9.02004V5.67564C9.02004 5.88598 9.19036 6.0565 9.40045 6.0565H9.56934C9.2544 6.42896 9.06389 6.91009 9.06389 7.43519V9.60251C9.06389 9.61363 9.05488 9.62264 9.04378 9.62264H7.50714C7.49828 9.62264 7.49036 9.61673 7.48785 9.60822L7.0736 8.20661C7.40746 8.11731 7.65415 7.81199 7.65415 7.44994C7.65415 6.59029 6.95563 5.89093 6.09705 5.89093H2.66964C2.02472 5.89091 1.5 6.41626 1.5 7.062C1.5 7.65233 1.93857 8.14176 2.50659 8.22149C1.90402 8.76114 1.52404 9.5451 1.52404 10.4164V11.6021C1.52404 11.8124 1.69437 11.9829 1.90445 11.9829H2.23359C2.41076 12.8675 3.19249 13.5361 4.1274 13.5361C5.0623 13.5361 5.84403 12.8675 6.02121 11.9829H10.6745C10.8517 12.8675 11.6334 13.5361 12.5684 13.5361C13.6334 13.5361 14.5 12.6685 14.5 11.6021C14.5 11.1673 14.3559 10.7656 14.1131 10.4423ZM13.6495 9.6816H12.7932C12.7194 9.67299 12.6445 9.66807 12.5684 9.66807C12.432 9.66807 12.299 9.68249 12.1706 9.7095V8.86971H12.4699C13.027 8.86971 13.4876 9.20504 13.6495 9.6816ZM9.78082 4.34617H11.1553C11.4165 4.34617 11.6291 4.55894 11.6291 4.82046C11.6291 5.08199 11.4165 5.29476 11.1553 5.29476H9.78082V4.34617ZM7.50717 10.3843H9.04381C9.47441 10.3843 9.8247 10.0336 9.8247 9.60248V7.43516C9.8247 6.78054 10.2839 6.23124 10.8968 6.09329L11.4098 8.52851V10.0556C11.0376 10.3359 10.7695 10.7475 10.6746 11.2212H6.89264C6.71498 9.85471 5.58657 8.83236 4.17815 8.83236C3.55012 8.83236 2.98629 9.03752 2.54145 9.39019C2.9089 8.70231 3.63335 8.23312 4.46545 8.23312H6.28814L6.75842 9.82435C6.85582 10.1541 7.16373 10.3843 7.50717 10.3843ZM2.31575 11.2212C2.38222 10.816 2.55531 10.4505 2.82001 10.1673C3.1655 9.79763 3.64782 9.59405 4.1781 9.59405C5.15925 9.59405 5.95187 10.2836 6.12203 11.2212H2.31575V11.2212ZM2.66964 7.4714C2.4442 7.4714 2.26078 7.28775 2.26078 7.062C2.26078 6.83625 2.4442 6.6526 2.66964 6.6526H6.09705C6.53615 6.6526 6.89337 7.01025 6.89337 7.44989C6.89012 7.46556 6.86504 7.47592 6.81835 7.47135C6.50188 7.47135 6.59234 7.47135 6.52643 7.47135C6.07191 7.4714 2.67185 7.4714 2.66964 7.4714ZM4.1274 12.7743C3.61494 12.7743 3.17862 12.4429 3.02034 11.9829H5.23445C5.07617 12.4429 4.63986 12.7743 4.1274 12.7743ZM12.5684 12.7743C11.9228 12.7743 11.3975 12.2484 11.3975 11.602C11.3975 10.9557 11.9228 10.4298 12.5684 10.4298C13.214 10.4298 13.7392 10.9557 13.7392 11.602C13.7392 12.2484 13.214 12.7743 12.5684 12.7743Z" fill="#2970FF"/>
<path d="M12.4494 11.6021C12.4494 11.5383 12.5013 11.4855 12.5665 11.4855C12.6317 11.4855 12.6836 11.5383 12.6836 11.6021C12.6836 11.666 12.6317 11.7188 12.5665 11.7188C12.5013 11.7188 12.4494 11.666 12.4494 11.6021Z" fill="#2970FF" stroke="#2970FF"/>
<mask id="path-3-inside-1_1808_272144" fill="white">
<path d="M1.89603 4.78662H5.30771C5.5178 4.78662 5.68812 4.6161 5.68812 4.40576C5.68812 4.19543 5.5178 4.0249 5.30771 4.0249H1.89603C1.68595 4.0249 1.51562 4.19543 1.51562 4.40576C1.51562 4.6161 1.68595 4.78662 1.89603 4.78662Z"/>
</mask>
<path d="M1.89603 4.78662H5.30771C5.5178 4.78662 5.68812 4.6161 5.68812 4.40576C5.68812 4.19543 5.5178 4.0249 5.30771 4.0249H1.89603C1.68595 4.0249 1.51562 4.19543 1.51562 4.40576C1.51562 4.6161 1.68595 4.78662 1.89603 4.78662Z" fill="#2970FF"/>
<path d="M1.89603 5.78662H5.30771V3.78662H1.89603V5.78662ZM5.30771 5.78662C6.07121 5.78662 6.68812 5.16725 6.68812 4.40576H4.68812C4.68812 4.06494 4.96438 3.78662 5.30771 3.78662V5.78662ZM6.68812 4.40576C6.68812 3.64427 6.07121 3.0249 5.30771 3.0249V5.0249C4.96438 5.0249 4.68812 4.74658 4.68812 4.40576H6.68812ZM5.30771 3.0249H1.89603V5.0249H5.30771V3.0249ZM1.89603 3.0249C1.13253 3.0249 0.515625 3.64427 0.515625 4.40576H2.51562C2.51562 4.74658 2.23936 5.0249 1.89603 5.0249V3.0249ZM0.515625 4.40576C0.515625 5.16725 1.13253 5.78662 1.89603 5.78662V3.78662C2.23936 3.78662 2.51562 4.06494 2.51562 4.40576H0.515625Z" fill="#2970FF" mask="url(#path-3-inside-1_1808_272144)"/>
<path d="M3.16165 3.22607H6.60274C6.81282 3.22607 6.98314 3.05555 6.98314 2.84521C6.98314 2.63488 6.81282 2.46436 6.60274 2.46436H3.16165C2.95157 2.46436 2.78125 2.63488 2.78125 2.84521C2.78125 3.05555 2.95157 3.22607 3.16165 3.22607Z" fill="#2970FF"/>
</svg>
