<svg width="40" height="40" viewBox="0 0 40 40" fill="none" xmlns="http://www.w3.org/2000/svg">
<path d="M12.5958 26.4338H15.3235V19.8093L11.4268 16.8867V25.2648C11.4268 25.9116 11.9509 26.4338 12.5958 26.4338Z" fill="#4285F4"/>
<path d="M24.6758 26.4338H27.4035C28.0504 26.4338 28.5725 25.9097 28.5725 25.2648V16.8867L24.6758 19.8093" fill="#34A853"/>
<path d="M24.6758 14.7436V19.8094L28.5725 16.8869V15.3281C28.5725 13.8824 26.9223 13.0583 25.7669 13.9253" fill="#FBBC04"/>
<path d="M15.3232 19.809V14.7432L19.9994 18.2502L24.6755 14.7432V19.809L19.9994 23.316" fill="#EA4335"/>
<path d="M11.4268 15.3281V16.8869L15.3235 19.8094V14.7436L14.2324 13.9253C13.0751 13.0583 11.4268 13.8824 11.4268 15.3281Z" fill="#C5221F"/>
<rect x="0.5" y="0.5" width="39" height="39" rx="19.5" stroke="#E6E8EC"/>
</svg>
