<svg width="64" height="64" viewBox="0 0 64 64" fill="none" xmlns="http://www.w3.org/2000/svg">
<path d="M33.165 16C32.141 18.353 30.23 20.266 27.733 21.27C27.209 21.481 26.802 21.918 26.619 22.47L24 30.322L21.382 22.471C21.198 21.92 20.786 21.481 20.25 21.264C17.765 20.258 15.861 18.34 14.838 15.999H4V47.999H44V16H33.165Z" fill="#DADFE4"/>
<path d="M58 56H6C4.895 56 4 55.105 4 54V52H60V54C60 55.105 59.105 56 58 56Z" fill="#758190"/>
<path d="M54 32H44V48H4V52H60V42L54 32Z" fill="#A8B0BC"/>
<path d="M4 16H8V48H4V16Z" fill="#505050"/>
<path d="M4 48H8V52H4V48Z" fill="#758190"/>
<path d="M60 42H48V32H54L60 42Z" fill="#F0F0F0"/>
<path d="M55 50H60V46H55C54.448 46 54 46.448 54 47V49C54 49.552 54.448 50 55 50Z" fill="#DADFE4"/>
<path d="M51 60C48.239 60 46 57.761 46 55C46 52.239 48.239 50 51 50C53.761 50 56 52.239 56 55C56 57.761 53.761 60 51 60Z" fill="#505050"/>
<path d="M13 60C10.239 60 8 57.761 8 55C8 52.239 10.239 50 13 50C15.761 50 18 52.239 18 55C18 57.761 15.761 60 13 60Z" fill="#505050"/>
<path d="M51 57C49.895 57 49 56.105 49 55C49 53.895 49.895 53 51 53C52.105 53 53 53.895 53 55C53 56.105 52.105 57 51 57Z" fill="#F0F0F0"/>
<path d="M13 57C11.895 57 11 56.105 11 55C11 53.895 11.895 53 13 53C14.105 53 15 53.895 15 55C15 56.105 14.105 57 13 57Z" fill="#F0F0F0"/>
<path d="M44 32H54C55.105 32 56 31.105 56 30C56 28.895 55.105 28 54 28H44V32Z" fill="#505050"/>
<path d="M48 32H50V42H48V32Z" fill="#D2D2D2"/>
<path d="M32 36L30 38H31V40H33V38H34L32 36Z" fill="#C1C8D1"/>
<path d="M38 36L36 38H37V40H39V38H40L38 36Z" fill="#C1C8D1"/>
<path d="M30 42H40V44H30V42Z" fill="#C1C8D1"/>
<path d="M8 34H20V44H8V34Z" fill="#E7EBF0"/>
<path d="M10 36H18V38H10V36Z" fill="#D2D2D2"/>
<path d="M10 40H18V42H10V40Z" fill="#D2D2D2"/>
<path d="M23.7685 4.00328C19.7115 4.11828 16.2825 7.41328 16.0175 11.4633C15.7835 15.0483 17.9135 18.1613 20.9995 19.4093C22.0785 19.8463 22.9115 20.7343 23.2795 21.8383L24.0005 24.0003L24.7205 21.8393C25.0865 20.7403 25.9105 19.8483 26.9865 19.4163C29.9245 18.2333 32.0005 15.3623 32.0005 12.0003C32.0005 7.50528 28.2925 3.87528 23.7685 4.00328Z" fill="#FA6450"/>
<path d="M22.9995 19.4103C19.9135 18.1623 17.7835 15.0483 18.0175 11.4643C18.2645 7.68228 21.2715 4.56028 24.9725 4.07028C24.5785 4.02228 24.1785 3.99328 23.7685 4.00428C19.7115 4.11928 16.2825 7.41428 16.0175 11.4643C15.7835 15.0493 17.9135 18.1623 20.9995 19.4103C22.0785 19.8473 22.9115 20.7353 23.2795 21.8393L23.9995 24.0003L24.7195 21.8393C24.7915 21.6243 24.8935 21.4253 24.9985 21.2283C24.5635 20.4143 23.8685 19.7613 22.9995 19.4103Z" fill="#DC4632"/>
<path d="M27.5368 14.1209L25.4148 11.9999L27.5368 9.87887L26.1218 8.46387L24.0008 10.5859L21.8798 8.46387L20.4648 9.87887L22.5868 11.9999L20.4648 14.1209L21.8798 15.5359L24.0008 13.4139L26.1218 15.5359L27.5368 14.1209Z" fill="#F0F0F0"/>
</svg>
