<svg width="56" height="56" viewBox="0 0 56 56" fill="none" xmlns="http://www.w3.org/2000/svg">
<g clip-path="url(#clip0_869_14067)">
<path d="M13.1473 26.3698L13.3904 27.8196C13.3966 27.8564 13.4211 27.8759 13.4641 27.8782C13.629 27.8742 13.7828 27.8602 13.9255 27.8363C14.3075 27.7722 14.5744 27.6565 14.7261 27.4891C14.8817 27.3163 14.9352 27.085 14.8866 26.795C14.8433 26.5373 14.7082 26.366 14.481 26.281C14.2576 26.1907 13.9089 26.1853 13.4349 26.2648L13.1933 26.3053C13.1564 26.3115 13.1411 26.333 13.1473 26.3698ZM12.8093 24.3539L13.0072 25.5345C13.0142 25.5759 13.0361 25.5935 13.0729 25.5873L13.2731 25.5538C13.7011 25.482 13.9998 25.3728 14.1692 25.2261C14.3425 25.074 14.4098 24.8829 14.3712 24.6528C14.3342 24.4318 14.2285 24.2816 14.0543 24.202C13.8801 24.1223 13.6158 24.1122 13.2614 24.1717C13.1003 24.1987 12.9638 24.231 12.8518 24.2687C12.8165 24.2841 12.8023 24.3125 12.8093 24.3539ZM12.9586 28.7153C12.8466 28.7246 12.7468 28.694 12.6593 28.6235C12.571 28.5484 12.5172 28.4533 12.4979 28.3383L11.7964 24.1547C11.7771 24.0396 11.7973 23.9345 11.8571 23.8393C11.9161 23.7395 12.0023 23.6754 12.1158 23.6469C12.4502 23.5529 12.7762 23.4794 13.0938 23.4261C14.3825 23.21 15.0974 23.5231 15.2386 24.3654C15.2857 24.6461 15.2323 24.9059 15.0783 25.1446C14.9243 25.3834 14.6982 25.5585 14.3998 25.67C14.3952 25.6708 14.3933 25.6735 14.3941 25.6781C14.3956 25.6873 14.3987 25.6915 14.4033 25.6907C14.79 25.6827 15.108 25.7737 15.3576 25.9637C15.6109 26.1483 15.765 26.4041 15.8198 26.7308C15.9047 27.2371 15.8027 27.6446 15.5137 27.9533C15.2248 28.262 14.7305 28.475 14.031 28.5923C13.6812 28.6509 13.3237 28.6919 12.9586 28.7153ZM17.2375 27.9836C17.1316 28.0014 17.033 27.9777 16.9416 27.9126C16.8503 27.8475 16.7957 27.762 16.778 27.6561L16.0649 23.4035C16.0472 23.2976 16.0709 23.199 16.136 23.1077C16.2011 23.0163 16.2866 22.9617 16.3925 22.944L18.7397 22.5504C18.8455 22.5327 18.9441 22.5564 19.0355 22.6215C19.1269 22.6866 19.1814 22.7721 19.1992 22.8779C19.2169 22.9838 19.1932 23.0824 19.1281 23.1738C19.0622 23.2605 18.9763 23.3128 18.8705 23.3305L17.1584 23.6176C17.117 23.6246 17.0997 23.6487 17.1067 23.6902L17.293 24.8016C17.3 24.8431 17.3242 24.8603 17.3656 24.8534L18.9603 24.586C19.0662 24.5682 19.1598 24.5904 19.2412 24.6524C19.3272 24.7137 19.3787 24.795 19.3956 24.8962C19.4126 24.9975 19.3905 25.0911 19.3292 25.1771C19.2717 25.2577 19.19 25.3069 19.0842 25.3246L17.4894 25.592C17.448 25.599 17.4308 25.6232 17.4377 25.6646L17.6692 27.0453C17.6762 27.0867 17.7004 27.104 17.7418 27.097L19.4539 26.81C19.5598 26.7922 19.6584 26.8159 19.7497 26.881C19.8403 26.9415 19.8945 27.0247 19.9122 27.1306C19.93 27.2364 19.9063 27.335 19.8412 27.4264C19.776 27.5178 19.6906 27.5723 19.5847 27.5901L17.2375 27.9836ZM21.3835 27.2885C21.2777 27.3062 21.1791 27.2825 21.0877 27.2174C21.0009 27.1515 20.9487 27.0656 20.9309 26.9598L20.2179 22.7071C20.2001 22.6013 20.2215 22.5031 20.282 22.4125C20.3472 22.3211 20.4327 22.2666 20.5385 22.2488L20.6904 22.2233C20.9527 22.1794 21.1653 22.262 21.3282 22.4713L23.5496 25.2644C23.5504 25.269 23.5531 25.2709 23.5577 25.2701C23.5623 25.2694 23.5642 25.2667 23.5634 25.2621L23.0553 22.2314C23.0375 22.1255 23.0612 22.0269 23.1263 21.9356C23.1915 21.8442 23.2769 21.7896 23.3828 21.7719L23.5347 21.7464C23.6405 21.7287 23.7368 21.7528 23.8236 21.8186C23.915 21.8838 23.9695 21.9693 23.9873 22.0751L24.7003 26.3277C24.7181 26.4336 24.6944 26.5322 24.6293 26.6236C24.5687 26.7142 24.4856 26.7683 24.3797 26.7861L24.2278 26.8115C23.9655 26.8555 23.7529 26.7729 23.59 26.5636L21.3686 23.7705C21.3678 23.7659 21.3651 23.764 21.3605 23.7647C21.3559 23.7655 21.354 23.7682 21.3548 23.7728L21.8629 26.8035C21.8807 26.9094 21.857 27.008 21.7919 27.0993C21.7268 27.1907 21.6413 27.2452 21.5354 27.263L21.3835 27.2885ZM26.2513 26.4723C26.1454 26.49 26.0468 26.4663 25.9555 26.4012C25.8641 26.3361 25.8095 26.2506 25.7918 26.1447L25.0787 21.8921C25.061 21.7862 25.0847 21.6876 25.1498 21.5963C25.2149 21.5049 25.3004 21.4504 25.4063 21.4326L27.7535 21.039C27.8594 21.0213 27.958 21.045 28.0493 21.1101C28.1407 21.1752 28.1952 21.2607 28.213 21.3666C28.2307 21.4724 28.2071 21.571 28.1419 21.6624C28.076 21.7492 27.9902 21.8014 27.8843 21.8192L26.1722 22.1062C26.1308 22.1132 26.1135 22.1374 26.1205 22.1788L26.3069 23.2903C26.3138 23.3317 26.338 23.3489 26.3794 23.342L27.9741 23.0746C28.08 23.0568 28.1736 23.079 28.255 23.1411C28.341 23.2023 28.3925 23.2836 28.4095 23.3849C28.4264 23.4861 28.4043 23.5797 28.343 23.6657C28.2855 23.7463 28.2039 23.7955 28.098 23.8133L26.5033 24.0807C26.4618 24.0876 26.4446 24.1118 26.4516 24.1532L26.6831 25.5339C26.69 25.5754 26.7142 25.5926 26.7556 25.5857L28.4677 25.2986C28.5736 25.2808 28.6722 25.3045 28.7635 25.3696C28.8541 25.4302 28.9083 25.5133 28.926 25.6192C28.9438 25.7251 28.9201 25.8237 28.855 25.915C28.7899 26.0064 28.7044 26.0609 28.5985 26.0787L26.2513 26.4723ZM30.3973 25.7771C30.2915 25.7948 30.1929 25.7711 30.1015 25.706C30.0148 25.6401 29.9625 25.5542 29.9448 25.4484L29.2317 21.1958C29.214 21.0899 29.2353 20.9917 29.2959 20.9011C29.361 20.8097 29.4465 20.7552 29.5523 20.7374L31.8305 20.3554C31.9364 20.3377 32.035 20.3614 32.1263 20.4265C32.2177 20.4916 32.2723 20.5771 32.29 20.683C32.3078 20.7888 32.2841 20.8874 32.219 20.9788C32.1531 21.0655 32.0672 21.1178 31.9613 21.1355L30.3183 21.411C30.2814 21.4172 30.2665 21.441 30.2735 21.4824L30.476 22.6906C30.4822 22.7274 30.5037 22.7427 30.5405 22.7365L32.0662 22.4807C32.1675 22.4637 32.2611 22.4859 32.3471 22.5472C32.4323 22.6039 32.4838 22.6852 32.5015 22.791C32.5193 22.8969 32.4975 22.9928 32.4362 23.0788C32.3741 23.1602 32.2925 23.2093 32.1912 23.2263L30.6655 23.4821C30.6287 23.4883 30.6134 23.5098 30.6196 23.5466L30.9113 25.2863C30.929 25.3922 30.9053 25.4908 30.8402 25.5822C30.7751 25.6735 30.6896 25.7281 30.5837 25.7458L30.3973 25.7771ZM34.5874 25.0745C34.4816 25.0923 34.383 25.0686 34.2916 25.0035C34.2002 24.9383 34.1457 24.8528 34.1279 24.747L33.4149 20.4944C33.3971 20.3885 33.4208 20.2899 33.4859 20.1985C33.5511 20.1072 33.6365 20.0526 33.7424 20.0349L34.0185 19.9886C34.1244 19.9708 34.223 19.9945 34.3144 20.0596C34.4057 20.1247 34.4603 20.2102 34.478 20.3161L35.1911 24.5687C35.2088 24.6746 35.1851 24.7732 35.12 24.8645C35.0549 24.9559 34.9694 25.0105 34.8636 25.0282L34.5874 25.0745ZM35.9931 20.4808C35.8872 20.4986 35.789 20.4772 35.6984 20.4167C35.607 20.3515 35.5525 20.2661 35.5347 20.1602L35.5313 20.1395C35.5135 20.0336 35.5372 19.935 35.6023 19.8437C35.6674 19.7523 35.7529 19.6978 35.8588 19.68L38.7997 19.1869C38.9056 19.1691 39.0042 19.1928 39.0956 19.2579C39.1869 19.3231 39.2415 19.4086 39.2592 19.5144L39.2627 19.5351C39.2804 19.641 39.2568 19.7396 39.1916 19.8309C39.1257 19.9177 39.0399 19.97 38.934 19.9877L38.0089 20.1428C37.9721 20.149 37.9572 20.1728 37.9641 20.2142L38.5985 23.9974C38.6162 24.1033 38.5925 24.2019 38.5274 24.2932C38.4623 24.3846 38.3768 24.4391 38.2709 24.4569L38.0776 24.4893C37.9718 24.507 37.8732 24.4834 37.7818 24.4182C37.6904 24.3531 37.6359 24.2676 37.6181 24.1618L36.9838 20.3786C36.9769 20.3372 36.955 20.3195 36.9182 20.3257L35.9931 20.4808ZM41.8222 21.6753C41.239 21.5838 40.8012 21.4278 40.5087 21.2071C40.2207 20.9857 40.0455 20.6885 39.983 20.3157C39.9128 19.8969 39.9976 19.542 40.2375 19.251C40.4773 18.96 40.8504 18.7721 41.3566 18.6872C41.7847 18.6154 42.1656 18.6012 42.4993 18.6446C42.6152 18.6583 42.7138 18.7104 42.7952 18.8009C42.8805 18.8859 42.9331 18.9883 42.9532 19.108L42.9636 19.1701C42.9783 19.2575 42.9507 19.3331 42.881 19.3969C42.8105 19.456 42.7311 19.4764 42.6428 19.4581C42.2753 19.3825 41.912 19.3748 41.553 19.435C41.3229 19.4736 41.1569 19.5558 41.0549 19.6818C40.953 19.8077 40.9179 19.965 40.9495 20.1537C41.0051 20.4851 41.2612 20.6858 41.7177 20.756C42.3722 20.8497 42.8404 21.003 43.1221 21.216C43.4085 21.4283 43.5853 21.7346 43.6524 22.135C43.8144 23.1015 43.2995 23.6847 42.1074 23.8846C41.7346 23.9471 41.3867 23.9463 41.0637 23.8822C40.9463 23.8593 40.8469 23.8026 40.7654 23.7121C40.6886 23.6209 40.6398 23.5132 40.619 23.3889L40.6051 23.3061C40.5904 23.2186 40.6168 23.1503 40.6843 23.1011C40.751 23.0474 40.8265 23.0323 40.911 23.056C41.2402 23.157 41.5728 23.1793 41.9088 23.123C42.4933 23.0249 42.7485 22.755 42.6744 22.3132C42.6443 22.1337 42.5644 21.9957 42.4346 21.8991C42.3041 21.798 42.1 21.7234 41.8222 21.6753Z" fill="#DA291C"/>
<path d="M13.2999 19C14.3996 15.7643 16.6049 12.8851 19.7612 10.9843C26.4781 6.93944 35.097 8.77416 39.6231 15M15.2551 32.5C19.7472 38.861 28.4606 40.7653 35.2376 36.6841C38.6091 34.6538 40.8949 31.5055 41.9102 28" stroke="#141416" stroke-width="1.5" stroke-miterlimit="10" stroke-linecap="round"/>
<path d="M22.184 41.3826L18.8757 47.1659L14.909 41.8076L8.33398 41.0159L12.3007 34.0742" stroke="#141416" stroke-width="1.5" stroke-linecap="round" stroke-linejoin="round"/>
<path d="M32.8164 41.3826L36.1247 47.1659L40.0914 41.8076L46.6664 41.0159L42.6997 34.0742" stroke="#141416" stroke-width="1.5" stroke-linecap="round" stroke-linejoin="round"/>
</g>
<defs>
<clipPath id="clip0_869_14067">
<rect width="46" height="40" fill="white" transform="translate(5 8)"/>
</clipPath>
</defs>
</svg>
