<svg width="56" height="56" viewBox="0 0 56 56" fill="none" xmlns="http://www.w3.org/2000/svg">
<g clip-path="url(#clip0_1377_33730)">
<path d="M45.5 12.6533V11.4229C45.5 10.9136 45.0864 10.5 44.5771 10.5H28.9912C28.4819 10.5 28.0684 10.9136 28.0684 11.4229V12.6533C28.0684 13.0149 28.2775 13.3273 28.5811 13.4784V16.8731H15.5559C15.0466 16.8731 14.633 17.2874 14.633 17.796V19.0265C14.633 19.4523 14.9235 19.8112 15.3166 19.9165V25.8289C15.3166 26.1119 15.5463 26.3416 15.8293 26.3416C16.1123 26.3416 16.342 26.1119 16.342 25.8289V19.9486H28.9229V28.4778H26.4544C26.4359 25.8398 24.7188 23.7009 22.6092 23.7009C20.4996 23.7009 18.7817 25.8398 18.7633 28.4778H16.342V27.9993C16.342 27.7163 16.1123 27.4866 15.8293 27.4866C15.5463 27.4866 15.3166 27.7163 15.3166 27.9993V28.4778H11.4229C10.9136 28.4778 10.5 28.8914 10.5 29.4007V30.6312C10.5 31.057 10.7905 31.4159 11.1836 31.5212V42.4553C10.7905 42.5612 10.5 42.9194 10.5 43.3453V44.5758C10.5 45.0844 10.9136 45.4986 11.4229 45.4986H44.5771C45.0864 45.4986 45.5 45.0844 45.5 44.5758V43.3453C45.5 42.9837 45.2908 42.6713 44.9873 42.5195V13.4784C45.2908 13.3273 45.5 13.0143 45.5 12.6533ZM15.6584 18.9239V17.8985H29.6064V18.9239H15.6584ZM22.6092 24.727C24.1534 24.727 25.4119 26.4059 25.429 28.4785H19.7894C19.8064 26.4059 21.0649 24.727 22.6099 24.727H22.6092ZM33.0586 44.4746H11.5254V43.4492H29.3556C29.6386 43.4492 29.8683 43.2195 29.8683 42.9365C29.8683 42.6535 29.6386 42.4238 29.3556 42.4238H12.209V31.5547H32.375V42.4238H31.5663C31.2833 42.4238 31.0536 42.6535 31.0536 42.9365C31.0536 43.2195 31.2833 43.4492 31.5663 43.4492H33.0586V44.4746ZM33.0586 30.5293H11.5254V29.5039H33.0586V30.5293ZM44.4746 44.4746H34.084V43.4492H44.4746V44.4746ZM44.4746 12.5508H43.3351C43.0521 12.5508 42.8224 12.7805 42.8224 13.0635C42.8224 13.3465 43.0521 13.5762 43.3351 13.5762H43.9619V42.4238H33.4004V35.2222C33.4004 35.2188 33.3997 35.2153 33.3997 35.2119V33.0073C33.3997 33.0039 33.4004 33.0005 33.4004 32.9971V31.5212C33.7935 31.4152 34.084 31.057 34.084 30.6312V29.4007C34.084 28.8914 33.6704 28.4778 33.1611 28.4778H32.2813V28.4744H31.2553V28.4778H29.9482V19.9165C30.3413 19.8105 30.6318 19.4523 30.6318 19.0265V17.796C30.6318 17.2874 30.2183 16.8731 29.709 16.8731H29.6064V13.5762H41.1024C41.3855 13.5762 41.6151 13.3465 41.6151 13.0635C41.6151 12.7805 41.3855 12.5508 41.1024 12.5508H29.0938V11.5254H44.4746V12.5508Z" fill="#23262F"/>
<path d="M21.8419 40.7695C23.776 40.7695 25.3439 39.2016 25.3439 37.2674C25.3439 35.3333 23.776 33.7654 21.8419 33.7654C19.9078 33.7654 18.3398 35.3333 18.3398 37.2674C18.3398 39.2016 19.9078 40.7695 21.8419 40.7695Z" stroke="#DA291C" stroke-width="1.25" stroke-miterlimit="10"/>
<path d="M41.375 24.515V38.7406" stroke="#DA291C" stroke-width="1.25" stroke-miterlimit="10" stroke-linecap="round"/>
</g>
<defs>
<clipPath id="clip0_1377_33730">
<rect width="35" height="35" fill="white" transform="translate(10.5 10.5)"/>
</clipPath>
</defs>
</svg>
