<svg width="25" height="24" viewBox="0 0 25 24" fill="none" xmlns="http://www.w3.org/2000/svg">
<path fill-rule="evenodd" clip-rule="evenodd" d="M12.5 3.91279C12.475 3.91279 12.4509 3.92215 12.4325 3.93901L12.4309 3.94047L4.93744 10.7501C4.92622 10.7613 4.91716 10.7746 4.91075 10.7891C4.90427 10.8038 4.90062 10.8196 4.89998 10.8357V19.5001C4.89998 19.5266 4.91051 19.552 4.92927 19.5708C4.94802 19.5895 4.97345 19.6001 4.99998 19.6001H9.49998C9.5265 19.6001 9.55193 19.5895 9.57069 19.5708C9.58944 19.552 9.59998 19.5266 9.59998 19.5001V15.0001C9.59998 14.6288 9.74748 14.2727 10.01 14.0101C10.2726 13.7476 10.6287 13.6001 11 13.6001H14C14.3713 13.6001 14.7274 13.7476 14.9899 14.0101C15.2525 14.2727 15.4 14.6288 15.4 15.0001V19.5001C15.4 19.5266 15.4105 19.552 15.4293 19.5708C15.448 19.5895 15.4735 19.6001 15.5 19.6001H20C20.0265 19.6001 20.0519 19.5895 20.0707 19.5708C20.0894 19.552 20.1 19.5266 20.1 19.5001V10.8357C20.0993 10.8196 20.0957 10.8038 20.0892 10.7891C20.0828 10.7746 20.0737 10.7613 20.0625 10.7501L12.5691 3.94047L12.5675 3.93901C12.549 3.92215 12.525 3.91279 12.5 3.91279ZM11.5559 2.97903C11.8138 2.74344 12.1506 2.61279 12.5 2.61279C12.8494 2.61279 13.1862 2.74347 13.4442 2.97912C13.4444 2.97936 13.4447 2.9796 13.445 2.97985L20.9526 9.8024C21.0911 9.93322 21.202 10.0905 21.2788 10.2649C21.3556 10.4392 21.3968 10.6272 21.3999 10.8177L21.4001 10.8282L21.4 19.5001C21.4 19.8714 21.2525 20.2275 20.9899 20.49C20.7274 20.7526 20.3713 20.9001 20 20.9001H15.5C15.1287 20.9001 14.7726 20.7526 14.51 20.49C14.2475 20.2275 14.1 19.8714 14.1 19.5001V15.0001C14.1 14.9735 14.0894 14.9481 14.0707 14.9293C14.0519 14.9106 14.0265 14.9001 14 14.9001H11C10.9735 14.9001 10.948 14.9106 10.9293 14.9293C10.9105 14.9481 10.9 14.9735 10.9 15.0001V19.5001C10.9 19.8714 10.7525 20.2275 10.4899 20.49C10.2274 20.7526 9.87128 20.9001 9.49998 20.9001H4.99998C4.62867 20.9001 4.27258 20.7526 4.01003 20.49C3.74748 20.2275 3.59998 19.8714 3.59998 19.5001V10.8177C3.60306 10.6272 3.64431 10.4392 3.72114 10.2649C3.79797 10.0905 3.90891 9.93331 4.04742 9.80249L4.0565 9.79392L11.555 2.97985C11.5553 2.97958 11.5556 2.9793 11.5559 2.97903Z" fill="#141416"/>
</svg>
