<svg width="24" height="24" viewBox="0 0 24 24" fill="none" xmlns="http://www.w3.org/2000/svg">
<g clip-path="url(#clip0_2846_645323)">
<rect width="24" height="24" rx="12" fill="white"/>
<path d="M0 0H100V100H0V0Z" fill="#0C0C0C"/>
<path d="M13.6283 6.01201C13.1051 6.07243 12.3646 6.53398 11.9969 7.02766C11.7847 7.3105 11.66 7.58049 11.552 7.98675L11.498 8.18988L11.5006 8.40587C11.5032 8.52414 11.5096 8.63471 11.516 8.65271C11.5328 8.69513 11.5649 8.70156 11.7912 8.70285C11.9789 8.70413 11.9904 8.70285 12.1512 8.65528C12.5806 8.53057 12.8955 8.34287 13.1192 8.07674C13.1732 8.01118 13.2542 7.92375 13.2967 7.88004C13.4381 7.74119 13.6193 7.43264 13.7196 7.16523C13.8199 6.89653 13.8649 6.64711 13.8778 6.29228L13.8855 6.06472L13.852 6.03129C13.8148 5.99401 13.7942 5.99272 13.6283 6.01201Z" fill="white"/>
<path d="M13.5092 8.66931C13.2547 8.68217 12.5694 8.87244 12.077 9.06529C11.7787 9.18228 11.7787 9.18228 11.7196 9.19256C11.6167 9.20928 11.3648 9.136 10.9315 8.96115C10.7014 8.86987 10.4648 8.80045 10.1151 8.72074C9.96856 8.68859 9.72558 8.68474 9.62015 8.71431C9.57773 8.72588 9.44402 8.75288 9.32317 8.77345C9.06347 8.81973 8.91691 8.86473 8.72149 8.96115C8.13139 9.24913 7.72898 9.66311 7.41014 10.3111C7.26872 10.5965 7.16459 10.8755 7.08745 11.1724C6.97303 11.6134 6.97045 12.4594 7.08231 12.9723C7.09516 13.0353 7.10673 13.1099 7.10673 13.1395C7.10673 13.2012 7.1183 13.2475 7.2263 13.673C7.32658 14.0664 7.31629 14.0343 7.50785 14.5151C7.77655 15.1901 7.8614 15.3392 8.41037 16.0964C8.63536 16.4063 8.74978 16.5477 8.91562 16.7161C9.08919 16.8935 9.22932 16.9964 9.42731 17.0941C9.65101 17.2034 9.74872 17.2278 9.95442 17.2265C10.218 17.2265 10.4301 17.1725 10.8338 17.0028C11.0884 16.8961 11.1051 16.891 11.5679 16.7958C11.7067 16.7663 11.8353 16.7688 12.0307 16.801C12.0976 16.8113 12.1979 16.8267 12.2519 16.8344C12.3611 16.8498 12.4717 16.8858 12.7571 17.0002C13.1017 17.1391 13.3446 17.2008 13.5992 17.2162C13.9695 17.2394 14.3269 17.0748 14.7087 16.7084C15.0983 16.3317 15.4621 15.8162 15.8298 15.1206C15.9288 14.9329 16.0869 14.5485 16.1139 14.4328C16.1255 14.3865 16.1448 14.3287 16.1589 14.3055C16.1718 14.2824 16.1833 14.2503 16.1833 14.2361C16.1833 14.1898 16.0895 14.1166 15.9236 14.033C15.6112 13.8723 15.304 13.5972 15.097 13.2873C14.9491 13.0649 14.8 12.7319 14.7627 12.5352C14.6997 12.2112 14.6817 11.8564 14.7177 11.6096C14.7267 11.5453 14.7588 11.4103 14.7897 11.3074C14.9221 10.8613 15.0134 10.6826 15.2204 10.4615C15.2834 10.3959 15.3348 10.3355 15.3348 10.3304C15.3348 10.3085 15.6498 10.0449 15.7269 10.0025C15.7694 9.97809 15.8234 9.94081 15.8465 9.91767C15.9172 9.84824 15.9069 9.82124 15.7295 9.61297C15.4917 9.33399 15.1921 9.10514 14.8398 8.93415C14.62 8.82744 14.4683 8.77473 14.2562 8.73102C14.0389 8.68474 13.7149 8.65774 13.5092 8.66931Z" fill="white"/>
</g>
<defs>
<clipPath id="clip0_2846_645323">
<rect width="24" height="24" rx="12" fill="white"/>
</clipPath>
</defs>
</svg>
