<svg width="65" height="64" viewBox="0 0 65 64" fill="none" xmlns="http://www.w3.org/2000/svg">
<g clip-path="url(#clip0_5582_168832)">
<rect x="0.5" width="64" height="64" rx="32" fill="#E6E8EC"/>
<path d="M55.2546 54.361C51.9854 48.7062 46.7526 44.462 40.5594 42.4421C43.5279 40.6696 45.8348 37.9674 47.1257 34.7508C48.4165 31.5341 48.6198 27.9809 47.7045 24.6369C46.7891 21.2929 44.8056 18.3432 42.0588 16.2409C39.312 14.1386 35.9538 13 32.5 13C29.0462 13 25.688 14.1386 22.9412 16.2409C20.1943 18.3432 18.2109 21.2929 17.2955 24.6369C16.3802 27.9809 16.5835 31.5341 17.8743 34.7508C19.1652 37.9674 21.472 40.6696 24.4406 42.4421C18.2474 44.462 13.0146 48.7062 9.74539 54.361C9.58489 54.6261 9.5 54.9304 9.5 55.2406C9.5 55.5509 9.58489 55.8552 9.74539 56.1203C9.89514 56.3899 10.1146 56.6139 10.3805 56.7687C10.6465 56.9235 10.9491 57.0034 11.2565 56.9999L32 69L53.7435 56.9999C54.0509 57.0034 54.3535 56.9235 54.6195 56.7687C54.8854 56.6139 55.1049 56.3899 55.2546 56.1203C55.4151 55.8552 55.5 55.5509 55.5 55.2406C55.5 54.9304 55.4151 54.6261 55.2546 54.361Z" fill="#BABECC"/>
</g>
<defs>
<clipPath id="clip0_5582_168832">
<rect x="0.5" width="64" height="64" rx="32" fill="white"/>
</clipPath>
</defs>
</svg>
