<svg width="25" height="24" viewBox="0 0 25 24" fill="none" xmlns="http://www.w3.org/2000/svg">
<path d="M11.5 6.00001C12.88 6.00001 14.13 6.56001 15.04 7.46001L12.5 10H18.5V4.00001L16.45 6.05001C15.8007 5.39895 15.0292 4.88267 14.1797 4.53085C13.3301 4.17904 12.4195 3.99863 11.5 4.00001C7.97 4.00001 5.07 6.61001 4.58 10H6.6C6.83053 8.87064 7.44418 7.85561 8.3371 7.1267C9.23001 6.39779 10.3473 5.99977 11.5 6.00001ZM17.14 15.14C17.8216 14.2163 18.2616 13.137 18.42 12H16.4C16.1695 13.1294 15.5558 14.1444 14.6629 14.8733C13.77 15.6022 12.6527 16.0002 11.5 16C10.12 16 8.87 15.44 7.96 14.54L10.5 12H4.5V18L6.55 15.95C7.19927 16.6011 7.97085 17.1173 8.82035 17.4692C9.66985 17.821 10.5805 18.0014 11.5 18C13.05 18 14.48 17.49 15.64 16.64L20.5 21.49L21.99 20L17.14 15.14Z" fill="white"/>
</svg>
