<svg width="16" height="16" viewBox="0 0 16 16" fill="none" xmlns="http://www.w3.org/2000/svg">
<path d="M0.922075 1.71895L5.5002 14.9455C5.69551 15.5158 6.50801 15.5002 6.6877 14.9221L8.53145 8.9377C8.55927 8.83987 8.61208 8.75097 8.68468 8.67974C8.75728 8.60851 8.84717 8.5574 8.94551 8.53145L14.9221 6.6877C15.5002 6.50801 15.5158 5.69551 14.9455 5.5002L1.71895 0.922075C1.60782 0.883018 1.48792 0.876161 1.37306 0.902294C1.2582 0.928427 1.15307 0.986485 1.06978 1.06978C0.986485 1.15307 0.928427 1.2582 0.902294 1.37306C0.876161 1.48792 0.883018 1.60782 0.922075 1.71895V1.71895Z" stroke="#777E90" stroke-linecap="round" stroke-linejoin="round"/>
</svg>
