<svg width="20" height="20" viewBox="0 0 20 20" fill="none" xmlns="http://www.w3.org/2000/svg">
<path d="M10 11.668H10.8333C11.75 11.668 12.5 10.918 12.5 10.0013V1.66797H5C3.75 1.66797 2.65834 2.35963 2.09167 3.37629" stroke="white" stroke-linecap="round" stroke-linejoin="round"/>
<path d="M1.66666 14.168C1.66666 15.5513 2.78332 16.668 4.16666 16.668H4.99999C4.99999 15.7513 5.74999 15.0013 6.66666 15.0013C7.58332 15.0013 8.33332 15.7513 8.33332 16.668H11.6667C11.6667 15.7513 12.4167 15.0013 13.3333 15.0013C14.25 15.0013 15 15.7513 15 16.668H15.8333C17.2167 16.668 18.3333 15.5513 18.3333 14.168V11.668H15.8333C15.375 11.668 15 11.293 15 10.8346V8.33464C15 7.8763 15.375 7.5013 15.8333 7.5013H16.9083L15.4833 5.00964C15.1833 4.49298 14.6333 4.16797 14.0333 4.16797H12.5V10.0013C12.5 10.918 11.75 11.668 10.8333 11.668H9.99999" stroke="white" stroke-linecap="round" stroke-linejoin="round"/>
<path d="M6.66667 18.3333C7.58714 18.3333 8.33333 17.5871 8.33333 16.6667C8.33333 15.7462 7.58714 15 6.66667 15C5.74619 15 5 15.7462 5 16.6667C5 17.5871 5.74619 18.3333 6.66667 18.3333Z" stroke="white" stroke-linecap="round" stroke-linejoin="round"/>
<path d="M13.3333 18.3333C14.2538 18.3333 15 17.5871 15 16.6667C15 15.7462 14.2538 15 13.3333 15C12.4128 15 11.6667 15.7462 11.6667 16.6667C11.6667 17.5871 12.4128 18.3333 13.3333 18.3333Z" stroke="white" stroke-linecap="round" stroke-linejoin="round"/>
<path d="M18.3333 10V11.6667H15.8333C15.375 11.6667 15 11.2917 15 10.8333V8.33333C15 7.875 15.375 7.5 15.8333 7.5H16.9083L18.3333 10Z" stroke="white" stroke-linecap="round" stroke-linejoin="round"/>
<path d="M1.66666 6.66797H6.66666" stroke="white" stroke-linecap="round" stroke-linejoin="round"/>
<path d="M1.66666 9.16797H4.99999" stroke="white" stroke-linecap="round" stroke-linejoin="round"/>
<path d="M1.66666 11.668H3.33332" stroke="white" stroke-linecap="round" stroke-linejoin="round"/>
</svg>
