<svg width="40" height="40" viewBox="0 0 40 40" fill="none" xmlns="http://www.w3.org/2000/svg">
<g clip-path="url(#clip0_3177_19395)">
<path d="M12.1858 7.12448C13.0419 6.98948 13.9125 6.98867 14.7775 7.00808L14.7031 7.07679C13.5714 7.81807 12.6328 8.83581 11.9546 10.0039C10.5949 12.3425 10.0994 15.108 10.2118 17.7886C10.3233 19.9712 10.8471 22.1659 11.9578 24.0632C12.1438 24.4027 12.4534 24.7026 12.4582 25.1149C12.493 25.9992 12.0557 26.8327 11.4639 27.4648C11.5027 27.5052 11.5407 27.5457 11.5795 27.5861C12.1333 28.1908 12.7242 28.759 13.2868 29.3556C14.0863 30.2594 14.9973 31.0597 15.7807 31.9796C14.4775 31.999 13.1591 32.0596 11.8713 31.8163C10.2506 31.5019 8.81165 30.3782 8.12453 28.8763C7.70821 28.0081 7.58372 27.0372 7.55139 26.0857C7.55058 21.693 7.55058 17.3011 7.55139 12.9092C7.56917 11.4412 7.958 9.90529 8.9911 8.81641C9.80918 7.89406 10.9676 7.29424 12.1858 7.12448Z" fill="#0068FF"/>
<path d="M24.054 15.1904C24.4008 15.1904 24.7476 15.1904 25.0952 15.1904C25.0895 17.2219 25.0895 19.2541 25.0952 21.2856C24.7556 21.2379 24.1906 21.4553 24.0629 21.0035C24.0418 19.0666 24.0613 17.1281 24.054 15.1904Z" fill="#0068FF"/>
<path d="M13.4448 15.2628C15.0583 15.2612 16.6702 15.2507 18.2829 15.262C18.2716 15.5781 18.2538 15.9225 18.042 16.1779C16.9394 17.5505 15.8602 18.9409 14.7584 20.3136C15.9297 20.3208 17.1011 20.316 18.2724 20.316C18.2506 20.59 18.3468 20.9093 18.1689 21.147C18.0574 21.3006 17.8553 21.2868 17.6879 21.2885C16.2224 21.2804 14.7568 21.2957 13.292 21.2804C13.296 20.9708 13.2993 20.628 13.5159 20.3815C14.6056 19.0145 15.7082 17.6572 16.7931 16.287C15.6783 16.2887 14.5628 16.2798 13.448 16.2919C13.4407 15.9491 13.4432 15.6056 13.4448 15.2628Z" fill="#0068FF"/>
<path d="M27.6769 16.6075C28.8377 16.348 30.0972 17.1103 30.4149 18.2533C30.8134 19.4424 30.0859 20.8563 28.8838 21.2184C27.8628 21.5782 26.6406 21.1085 26.1111 20.1675C25.6956 19.4723 25.6705 18.5621 26.048 17.8467C26.3681 17.2154 26.9865 16.7538 27.6769 16.6075ZM27.6575 17.6373C26.9494 17.8871 26.5678 18.7488 26.8443 19.4449C27.073 20.1029 27.8434 20.5054 28.5128 20.3034C29.2767 20.1207 29.7383 19.2258 29.4675 18.4926C29.2411 17.7667 28.364 17.3479 27.6575 17.6373Z" fill="#0068FF"/>
<path d="M19.0776 17.4544C19.6362 16.7624 20.6144 16.4213 21.4761 16.6678C21.7606 16.7398 22.0185 16.882 22.2675 17.0332C22.2651 16.9572 22.2594 16.806 22.257 16.7301C22.5828 16.7284 22.9077 16.7292 23.2335 16.7276C23.2319 18.2474 23.2303 19.7671 23.2343 21.2877C22.995 21.2812 22.7517 21.3095 22.5165 21.261C22.3516 21.1939 22.3006 21.0136 22.2352 20.8665C21.3362 21.5649 19.924 21.4065 19.1771 20.5561C18.3808 19.7324 18.3396 18.329 19.0776 17.4544ZM20.3937 17.6581C19.6451 17.9216 19.2822 18.886 19.6613 19.5812C19.9846 20.2586 20.8949 20.5432 21.5456 20.1697C22.1495 19.8528 22.4284 19.0663 22.1689 18.4373C21.9175 17.7535 21.0695 17.3703 20.3937 17.6581Z" fill="#0068FF"/>
<path d="M14.703 7.07649C14.8841 7.02476 15.0732 7.00859 15.2608 7.00293C18.4935 7.01506 21.7262 7.00131 24.9589 7.00697C25.823 7.01748 26.692 6.95928 27.5497 7.09104C28.7372 7.18158 29.8803 7.68439 30.7638 8.47902C31.8729 9.5388 32.4646 11.065 32.4832 12.5872C32.484 16.8724 32.4816 21.1608 32.4857 25.4444C32.4743 25.4695 32.4525 25.5212 32.4412 25.5471C31.2893 26.8356 29.7404 27.7079 28.1212 28.2721C25.9394 29.0158 23.6024 29.2551 21.309 29.0805C19.0157 28.8832 16.7045 28.2842 14.7596 27.0167C13.7653 27.4589 12.6683 27.6755 11.5794 27.5858C11.5406 27.5454 11.5026 27.505 11.4638 27.4645C12.0556 26.8324 12.4929 25.9989 12.4581 25.1146C12.4533 24.7023 12.1437 24.4024 11.9578 24.0629C10.8471 22.1656 10.3232 19.9709 10.2117 17.7883C10.0993 15.1077 10.5948 12.3423 11.9545 10.0036C12.6328 8.83552 13.5713 7.81777 14.703 7.07649ZM24.0543 15.1902C24.0616 17.1278 24.0422 19.0663 24.0632 21.0032C24.1909 21.4551 24.756 21.2376 25.0955 21.2853C25.0898 19.2539 25.0898 17.2216 25.0955 15.1902C24.7479 15.1902 24.4011 15.1902 24.0543 15.1902ZM13.4452 15.2621C13.4436 15.6049 13.4411 15.9484 13.4484 16.2912C14.5632 16.279 15.6787 16.2879 16.7935 16.2863C15.7086 17.6565 14.606 19.0138 13.5163 20.3807C13.2997 20.6273 13.2964 20.97 13.2924 21.2797C14.7572 21.295 16.2228 21.2797 17.6883 21.2877C17.8557 21.2861 18.0578 21.2999 18.1693 21.1463C18.3472 20.9086 18.251 20.5893 18.2728 20.3153C17.1015 20.3153 15.9301 20.3201 14.7588 20.3128C15.8606 18.9402 16.9398 17.5498 18.0424 16.1772C18.2542 15.9217 18.272 15.5774 18.2833 15.2613C16.6706 15.25 15.0587 15.2605 13.4452 15.2621ZM27.6766 16.6072C26.9863 16.7536 26.3679 17.2151 26.0477 17.8465C25.6702 18.5619 25.6953 19.4721 26.1108 20.1673C26.6403 21.1083 27.8626 21.5779 28.8835 21.2182C30.0856 20.8561 30.8131 19.4422 30.4146 18.2531C30.0969 17.1101 28.8375 16.3478 27.6766 16.6072ZM19.0771 17.4536C18.3391 18.3283 18.3803 19.7316 19.1766 20.5553C19.9235 21.4058 21.3357 21.5642 22.2346 20.8658C22.3001 21.0129 22.351 21.1932 22.516 21.2603C22.7512 21.3088 22.9945 21.2805 23.2338 21.2869C23.2298 19.7664 23.2314 18.2466 23.233 16.7269C22.9072 16.7285 22.5822 16.7277 22.2565 16.7293C22.2589 16.8053 22.2646 16.9565 22.267 17.0324C22.018 16.8813 21.7601 16.739 21.4756 16.6671C20.6138 16.4205 19.6357 16.7616 19.0771 17.4536Z" fill="white"/>
<path d="M20.393 17.6571C21.0688 17.3694 21.9168 17.7525 22.1682 18.4364C22.4277 19.0653 22.1488 19.8519 21.545 20.1688C20.8942 20.5422 19.984 20.2577 19.6606 19.5803C19.2815 18.8851 19.6445 17.9207 20.393 17.6571Z" fill="white"/>
<path d="M27.6576 17.6374C28.3641 17.348 29.2412 17.7667 29.4675 18.4926C29.7384 19.2258 29.2768 20.1207 28.5129 20.3034C27.8435 20.5055 27.0731 20.1029 26.8444 19.4449C26.5679 18.7489 26.9495 17.8872 27.6576 17.6374Z" fill="white"/>
<path d="M32.4409 25.5471L32.5047 25.4775C32.5379 26.741 32.4012 28.0595 31.7812 29.1839C31.0601 30.5032 29.7522 31.483 28.281 31.7966C27.4556 31.9672 26.6092 32.0052 25.7685 31.9947C23.1825 31.9955 20.5965 31.9947 18.0105 31.9955C17.2668 31.9833 16.5215 32.0181 15.7802 31.9793C14.9969 31.0594 14.0859 30.2591 13.2864 29.3553C12.7238 28.7587 12.1328 28.1904 11.5791 27.5858C12.668 27.6755 13.7649 27.4589 14.7593 27.0167C16.7042 28.2842 19.0153 28.8832 21.3087 29.0805C23.6021 29.2551 25.9391 29.0158 28.1209 28.2721C29.7401 27.7078 31.2889 26.8356 32.4409 25.5471Z" fill="#005BE0"/>
</g>
<rect x="0.5" y="0.5" width="39" height="39" rx="19.5" stroke="#E6E8EC"/>
<defs>
<clipPath id="clip0_3177_19395">
<rect width="25.004" height="25.004" fill="white" transform="translate(7.49805 6.99805)"/>
</clipPath>
</defs>
</svg>
