<svg width="57" height="57" viewBox="0 0 57 57" fill="none" xmlns="http://www.w3.org/2000/svg">
<mask id="mask0_7167_130529" style="mask-type:luminance" maskUnits="userSpaceOnUse" x="0" y="0" width="57" height="57">
<path d="M56.5 0.5H0.5V56.5H56.5V0.5Z" fill="white"/>
</mask>
<g mask="url(#mask0_7167_130529)">
<path d="M32.0002 44.6C32.0002 44.3 31.7002 44 31.4002 44H22.8002C22.5002 44 22.2002 44.3 22.2002 44.6C22.2002 44.9 22.5002 45.2 22.8002 45.2H31.4002C31.8002 45.2 32.0002 44.9 32.0002 44.6Z" fill="#363A42"/>
<path d="M26.8002 42.3997H31.4002C31.7002 42.3997 32.0002 42.0997 32.0002 41.7997C32.0002 41.4997 31.7002 41.1997 31.4002 41.1997H26.8002C26.5002 41.1997 26.2002 41.4997 26.2002 41.7997C26.2002 42.0997 26.4002 42.3997 26.8002 42.3997Z" fill="#363A42"/>
<path d="M30.4 23.7999L29.6 22.9999C30.3 22.6999 30.8 21.9999 30.8 21.1999V18.5999C30.8 17.4999 29.9 16.6999 28.9 16.6999H28.4C27.8 15.0999 26.5 13.6999 24.9 12.8999C24.6 12.6999 24.5 12.2999 24.6 11.9999C24.8 11.3999 24.9 10.7999 24.8 10.1999C24.6 8.79991 23.4 7.69991 22 7.49991C21.1 7.39991 20.1 7.69991 19.4 8.29991C18.7 8.89991 18.3 9.79991 18.3 10.6999C18.3 11.0999 18.4 11.5999 18.6 11.9999C18.7 12.2999 18.6 12.6999 18.3 12.8999C16.7 13.6999 15.5 15.0999 14.8 16.6999H14.3C13.2 16.6999 12.4 17.5999 12.4 18.5999V21.1999C12.4 21.9999 12.9 22.6999 13.6 22.9999L12.8 23.7999C11.7 24.8999 11 26.3999 11 27.9999V44.9999C11 47.4999 13.1 49.5999 15.6 49.5999H27.5C30 49.5999 32.1 47.4999 32.1 44.9999V27.9999C32.1 26.3999 31.5 24.8999 30.4 23.7999ZM18.9 13.7999C19.8 13.2999 20.2 12.2999 19.8 11.2999C19.7 11.0999 19.6 10.7999 19.6 10.4999C19.6 9.89991 19.8 9.39991 20.3 8.99991C20.7 8.59991 21.3 8.39991 21.9 8.49991C22.8 8.59991 23.5 9.29991 23.6 10.1999C23.7 10.5999 23.6 10.9999 23.5 11.2999C23.1 12.2999 23.5 13.2999 24.3 13.7999C25.5 14.3999 26.4 15.3999 27 16.4999H16.2C16.8 15.3999 17.7 14.3999 18.9 13.7999ZM13.6 18.4999C13.6 18.0999 13.9 17.7999 14.3 17.7999H15.3H27.9H28.9C29.3 17.7999 29.6 18.0999 29.6 18.4999V21.0999C29.6 21.4999 29.3 21.7999 28.9 21.7999H14.3C13.9 21.7999 13.6 21.4999 13.6 21.0999V18.4999ZM30.9 44.9999C30.9 46.7999 29.4 48.2999 27.6 48.2999H15.6C13.8 48.2999 12.3 46.7999 12.3 44.9999V42.9999H15C15.3 42.9999 15.6 42.6999 15.6 42.3999C15.6 42.0999 15.3 41.7999 15 41.7999H12.3V39.6999H13.7C14 39.6999 14.3 39.3999 14.3 39.0999C14.3 38.7999 14 38.4999 13.7 38.4999H12.3V36.3999H15C15.3 36.3999 15.6 36.0999 15.6 35.7999C15.6 35.4999 15.3 35.1999 15 35.1999H12.3V32.9999H13.7C14 32.9999 14.3 32.6999 14.3 32.3999C14.3 32.0999 14 31.7999 13.7 31.7999H12.3V29.6999H15C15.3 29.6999 15.6 29.3999 15.6 29.0999C15.6 28.7999 15.3 28.4999 15 28.4999H12.3V27.9999C12.3 26.7999 12.8 25.5999 13.7 24.6999L15.3 23.0999H28L29.6 24.6999C30.5 25.5999 31 26.7999 31 27.9999L30.9 44.9999Z" fill="#363A42" stroke="#363A42" stroke-width="0.1407"/>
<path d="M35.1998 8.9999C33.3998 10.8999 32.3998 13.2999 32.2998 15.7999C32.2998 18.4999 33.9998 20.7999 36.4998 21.6999C36.5998 21.6999 36.5998 21.7999 36.5998 21.8999C36.5998 24.1999 36.3998 26.4999 36.1998 28.7999L34.2998 45.0999C34.0998 46.6999 34.7998 48.2999 36.1998 49.1999C37.4998 50.0999 39.2998 50.1999 40.6998 49.4999C42.0998 48.6999 42.9998 47.2999 42.9998 45.5999C42.9998 45.3999 42.9998 45.2999 42.9998 45.0999L41.0998 28.7999C40.7998 26.4999 40.6998 24.1999 40.6998 21.8999C40.6998 21.7999 40.6998 21.7999 40.7998 21.6999C43.2998 20.7999 44.9998 18.3999 44.9998 15.7999C44.9998 12.4999 42.2998 7.3999 38.6998 7.3999C37.1998 7.3999 35.9998 7.9999 35.1998 8.9999ZM43.6998 15.7999C43.6998 17.9999 42.2998 19.9999 40.1998 20.6999C39.6998 20.8999 39.3998 21.3999 39.3998 21.8999C39.3998 24.1999 39.5998 26.5999 39.7998 28.8999L41.6998 45.1999C41.6998 45.2999 41.6998 45.4999 41.6998 45.5999C41.6998 46.4999 41.3998 47.2999 40.6998 47.8999C40.0998 48.4999 39.1998 48.8999 38.3998 48.8999C37.4998 48.8999 36.5998 48.4999 35.9998 47.7999C35.3998 47.0999 35.0998 46.1999 35.1998 45.1999L37.0998 28.8999C37.3998 26.5999 37.4998 24.1999 37.4998 21.8999C37.4998 21.3999 37.1998 20.8999 36.6998 20.6999C34.5998 19.9999 33.2998 17.9999 33.1998 15.7999C33.1998 12.9999 35.5998 8.4999 38.3998 8.4999C41.2998 8.4999 43.6998 12.9999 43.6998 15.7999ZM38.2998 10.2999C37.7998 10.5999 37.2998 10.8999 36.8998 11.2999C35.6998 12.4999 35.0998 14.0999 35.0998 15.7999C35.0998 16.0999 35.2998 16.2999 35.5998 16.2999C35.8998 16.2999 36.0998 16.0999 36.0998 15.7999C35.9998 13.8999 36.9998 12.1999 38.5998 11.2999C38.7998 11.1999 38.8998 10.9999 38.8998 10.8999C38.8998 10.6999 38.7998 10.4999 38.6998 10.3999C38.6998 10.1999 38.4998 10.1999 38.2998 10.2999ZM37.3998 44.3999C36.8998 44.8999 36.7998 45.6999 37.0998 46.3999C37.4998 46.9999 38.1998 47.3999 38.8998 47.1999C39.5998 46.9999 40.0998 46.3999 40.0998 45.5999C40.0998 44.8999 39.6998 44.2999 39.0998 44.0999C38.4998 43.7999 37.7998 43.9999 37.3998 44.3999ZM39.0998 45.5999C39.0998 45.8999 38.8998 46.0999 38.6998 46.0999C38.3998 46.1999 38.1998 45.9999 38.0998 45.7999C37.9998 45.5999 38.0998 45.2999 38.2998 45.0999C38.4998 44.9999 38.7998 44.9999 38.9998 45.1999C38.9998 45.2999 39.0998 45.3999 39.0998 45.5999Z" fill="#363A42" stroke="#363A42" stroke-width="0.1671"/>
</g>
</svg>
