<svg width="56" height="56" viewBox="0 0 56 56" fill="none" xmlns="http://www.w3.org/2000/svg">
<path d="M17.4946 23.1783L17.4092 23.2303C17.4234 23.2536 18.0754 24.3127 19.0378 25.6122C19.9988 26.9101 21.2751 28.4556 22.538 29.4459L22.5652 29.4672H22.5997H25.3348H25.4793L25.4284 29.332C24.5561 27.0139 23.4144 25.0583 22.0249 23.5104C20.8152 22.1159 19.2965 21.0405 17.6966 20.3278L17.6963 20.3277C15.7819 19.4816 14.0741 19.3309 13.1836 19.3203L13.0867 19.3192L13.0825 19.416C13.049 20.1959 13.0509 21.5758 13.3358 23.1029C13.886 26.0525 15.191 28.1932 17.2261 29.4522L17.2503 29.4672H17.2788H20.2809H20.5189L20.3524 29.2972C18.1739 27.0732 16.3413 24.0955 16.247 23.9413C16.0507 23.6203 16.1518 23.2011 16.4727 23.0048L16.4727 23.0048C16.7936 22.8085 17.2129 22.9096 17.4093 23.2305L17.4946 23.1783ZM17.4946 23.1783C17.2694 22.8103 16.7886 22.6944 16.4205 22.9195M17.4946 23.1783C17.5209 23.2215 20.0959 27.4039 22.5997 29.3672H25.228C25.2324 29.3789 25.2368 29.3907 25.2413 29.4024L25.3348 29.3672V29.2672H25.297C24.433 27.002 23.31 25.0915 21.9499 23.5766C20.7505 22.1937 19.2438 21.1265 17.6559 20.4191L16.4205 22.9195M16.4205 22.9195C16.0525 23.1446 15.9366 23.6254 16.1616 23.9934C16.2549 24.146 18.0397 27.0463 20.1837 29.2672H20.2809V29.3672L20.2095 29.4372C20.1867 29.4139 20.164 29.3906 20.1413 29.3672H17.2788M16.4205 22.9195L17.2788 29.3672M17.2788 29.3672C15.2735 28.1267 13.9806 26.0143 13.4341 23.0846L17.2788 29.3672ZM27.4877 29.4672L27.5594 29.3227C27.8673 28.7025 28.3295 27.8497 28.9658 26.8676L28.9983 26.8174L29.0578 26.8223C29.2318 26.8364 29.4442 26.8472 29.6918 26.8472C30.8354 26.8472 32.7136 26.6199 34.86 25.4615C35.1911 25.2828 35.3147 24.8696 35.136 24.5384L35.224 24.4909L35.136 24.5384C34.9574 24.2073 34.5441 24.0838 34.213 24.2624C32.5812 25.1432 31.13 25.4086 30.1423 25.4675L29.9265 25.4803L30.0564 25.3075C31.5854 23.2747 33.9431 20.721 37.2707 18.6147C37.5885 18.4135 37.6831 17.9926 37.4819 17.6747C37.2807 17.3569 36.8599 17.2622 36.5419 17.4635C34.9314 18.483 33.5377 19.6021 32.3445 20.7221L32.1612 20.8943L32.1763 20.6432C32.2233 19.863 32.4149 18.9213 32.9715 18.1272C33.1874 17.8191 33.1127 17.3943 32.8047 17.1783L27.4877 29.4672ZM27.4877 29.4672H27.649M27.4877 29.4672H27.649M27.649 29.4672H35.17H35.2026L35.229 29.4479C38.9934 26.6981 41.1175 22.9466 41.5404 18.2996C41.7728 15.7452 41.4058 13.6132 41.1793 12.6101L41.1596 12.5231L41.071 12.5327C33.8242 13.3147 29.381 16.1162 26.9075 18.3698C24.8329 20.2598 23.7692 22.0804 23.3642 22.8797L23.3343 22.9386L23.3767 22.9892C24.7223 24.5947 25.6895 26.3642 26.4338 28.1682L26.5156 28.3664L26.6149 28.1764C26.9681 27.5005 27.5971 26.4351 28.209 25.5457L28.2091 25.5454C28.8689 24.5798 29.7412 23.4347 30.8433 22.2379L30.875 22.2035M27.649 29.4672L30.875 22.2035M30.875 22.2035L30.8689 22.1572M30.875 22.2035L30.8689 22.1572M30.8689 22.1572C30.7516 21.2588 30.6346 19.0877 31.8557 17.3452C32.0717 17.0372 32.4964 16.9624 32.8046 17.1783L30.8689 22.1572ZM47.7003 29.6668L47.7003 29.6668C47.827 29.7934 47.9 29.9695 47.9 30.1486V44.211C47.8995 44.6139 47.5355 44.8934 47.2191 44.8923H47.2188H40.3438C39.9684 44.8923 39.6625 44.587 39.6625 44.2111C39.6625 43.8358 39.9685 43.5298 40.3438 43.5298H46.4375H46.5375V43.4298V30.9298V30.8298H46.4375H9.5625H9.4625V30.9298V43.4298V43.5298H9.5625H33.3125C33.6877 43.5298 33.9938 43.8358 33.9938 44.2111C33.9938 44.5863 33.6877 44.8923 33.3125 44.8923H8.78137C8.37838 44.8919 8.09885 44.5278 8.1 44.2115V44.2111V30.1486C8.10044 29.7457 8.46444 29.4662 8.78089 29.4673H8.78125H14.8012H15.0389L14.8726 29.2974C13.4305 27.8237 12.4447 25.7945 11.9883 23.3087C11.5224 20.7713 11.7667 18.6671 11.7769 18.5829L11.7769 18.5829C11.8145 18.2701 12.0616 18.024 12.3745 17.9875C12.4747 17.9759 15.0514 17.6947 18.1639 19.0451C19.6644 19.6961 21.0367 20.6176 22.2561 21.7901L22.3492 21.8796L22.4125 21.7671C22.9832 20.7539 24.0744 19.1243 25.9179 17.4286C27.6425 15.8421 29.6771 14.5198 31.9657 13.4987C34.809 12.2303 38.0541 11.4263 41.6117 11.1105L41.6118 11.1105C41.9305 11.082 42.2274 11.2807 42.3225 11.5871L42.3226 11.5872C42.3587 11.7033 43.2441 14.6104 42.8972 18.4231C42.6926 20.6711 42.0998 22.768 41.136 24.6562C40.2536 26.3849 39.0574 27.9373 37.5687 29.2932L37.3777 29.4672H37.636H47.2188C47.3977 29.4672 47.5738 29.5402 47.7003 29.6668Z" fill="black" stroke="white" stroke-width="0.2"/>
<path d="M36.8281 44.9922C37.2596 44.9922 37.6094 44.6424 37.6094 44.2109C37.6094 43.7795 37.2596 43.4297 36.8281 43.4297C36.3967 43.4297 36.0469 43.7795 36.0469 44.2109C36.0469 44.6424 36.3967 44.9922 36.8281 44.9922Z" fill="black"/>
<path d="M21.2936 39.5312C21.2138 39.5312 21.1444 39.5018 21.0854 39.4428C21.0299 39.3838 21.0021 39.3144 21.0021 39.2346V36.0289C21.0021 35.9491 21.0299 35.8797 21.0854 35.8207C21.1444 35.7617 21.2138 35.7322 21.2936 35.7322H23.0109C23.0907 35.7322 23.1601 35.7617 23.2191 35.8207C23.2781 35.8797 23.3075 35.9491 23.3075 36.0289C23.3075 36.1087 23.2781 36.1781 23.2191 36.237C23.1601 36.2926 23.0907 36.3203 23.0109 36.3203H21.7723C21.7446 36.3203 21.7307 36.3359 21.7307 36.3671V37.2779C21.7307 37.3056 21.7446 37.3195 21.7723 37.3195H22.9224C22.9988 37.3195 23.0647 37.3473 23.1202 37.4028C23.1757 37.4548 23.2035 37.5207 23.2035 37.6005C23.2035 37.6803 23.1757 37.748 23.1202 37.8035C23.0647 37.8555 22.9988 37.8815 22.9224 37.8815H21.7723C21.7446 37.8815 21.7307 37.8954 21.7307 37.9232V39.2346C21.7307 39.3144 21.7012 39.3838 21.6422 39.4428C21.5832 39.5018 21.5139 39.5312 21.4341 39.5312H21.2936ZM24.7696 36.3255V37.4548C24.7696 37.4826 24.7852 37.4964 24.8164 37.4964H25.0766C25.6942 37.4964 26.0029 37.2761 26.0029 36.8355C26.0029 36.4435 25.7167 36.2475 25.1443 36.2475C25.0402 36.2475 24.9309 36.2561 24.8164 36.2735C24.7852 36.2804 24.7696 36.2978 24.7696 36.3255ZM24.348 39.5312C24.2682 39.5312 24.1989 39.5018 24.1399 39.4428C24.0809 39.3838 24.0514 39.3144 24.0514 39.2346V36.0549C24.0514 35.9716 24.0792 35.897 24.1347 35.8311C24.1902 35.7652 24.2596 35.7288 24.3428 35.7218C24.6377 35.6941 24.9222 35.6802 25.1963 35.6802C25.7063 35.6802 26.0879 35.7756 26.3412 35.9664C26.5945 36.1538 26.7211 36.4192 26.7211 36.7627C26.7211 37.009 26.6535 37.2258 26.5182 37.4132C26.3863 37.6005 26.2076 37.7324 25.9821 37.8087C25.9787 37.8087 25.9769 37.8104 25.9769 37.8139C25.9769 37.8208 25.9787 37.8243 25.9821 37.8243C26.1487 37.9284 26.2909 38.1331 26.4089 38.4384L26.7211 39.2554C26.7454 39.3214 26.7367 39.3838 26.6951 39.4428C26.6569 39.5018 26.6032 39.5312 26.5338 39.5312H26.3724C26.2822 39.5312 26.2007 39.507 26.1278 39.4584C26.055 39.4064 26.0029 39.3387 25.9717 39.2554L25.6803 38.454C25.6178 38.2875 25.5467 38.1782 25.4669 38.1261C25.3871 38.0741 25.2501 38.0481 25.0558 38.0481H24.8164C24.7852 38.0481 24.7696 38.0637 24.7696 38.0949V39.2346C24.7696 39.3144 24.7401 39.3838 24.6811 39.4428C24.6256 39.5018 24.5579 39.5312 24.4781 39.5312H24.348ZM27.6464 39.5312C27.5666 39.5312 27.4972 39.5018 27.4382 39.4428C27.3792 39.3838 27.3497 39.3144 27.3497 39.2346V36.0289C27.3497 35.9491 27.3792 35.8797 27.4382 35.8207C27.4972 35.7617 27.5666 35.7322 27.6464 35.7322H29.4157C29.4955 35.7322 29.5649 35.7617 29.6239 35.8207C29.6829 35.8797 29.7124 35.9491 29.7124 36.0289C29.7124 36.1087 29.6829 36.1781 29.6239 36.237C29.5649 36.2926 29.4955 36.3203 29.4157 36.3203H28.1251C28.0939 36.3203 28.0783 36.3359 28.0783 36.3671V37.205C28.0783 37.2362 28.0939 37.2518 28.1251 37.2518H29.3273C29.4071 37.2518 29.473 37.2796 29.525 37.3351C29.5805 37.3906 29.6083 37.4565 29.6083 37.5329C29.6083 37.6092 29.5805 37.6751 29.525 37.7306C29.473 37.7827 29.4071 37.8087 29.3273 37.8087H28.1251C28.0939 37.8087 28.0783 37.8243 28.0783 37.8555V38.8963C28.0783 38.9276 28.0939 38.9432 28.1251 38.9432H29.4157C29.4955 38.9432 29.5649 38.9727 29.6239 39.0317C29.6829 39.0872 29.7124 39.1548 29.7124 39.2346C29.7124 39.3144 29.6829 39.3838 29.6239 39.4428C29.5649 39.5018 29.4955 39.5312 29.4157 39.5312H27.6464ZM31.4807 37.9284C31.0644 37.7896 30.7626 37.6213 30.5752 37.4236C30.3913 37.2258 30.2994 36.9864 30.2994 36.7054C30.2994 36.3897 30.4052 36.1399 30.6168 35.956C30.8285 35.7721 31.1251 35.6802 31.5067 35.6802C31.8294 35.6802 32.1104 35.7166 32.3498 35.7895C32.4331 35.8138 32.499 35.8641 32.5476 35.9404C32.5996 36.0133 32.6256 36.0948 32.6256 36.185V36.2318C32.6256 36.2978 32.5961 36.3498 32.5372 36.388C32.4782 36.4227 32.4175 36.4279 32.355 36.4036C32.0948 36.303 31.8294 36.2527 31.5588 36.2527C31.3853 36.2527 31.2535 36.2926 31.1633 36.3724C31.0731 36.4521 31.028 36.5632 31.028 36.7054C31.028 36.9552 31.191 37.1339 31.5172 37.2414C31.9855 37.3906 32.3099 37.5606 32.4903 37.7514C32.6742 37.9423 32.7661 38.1886 32.7661 38.4904C32.7661 39.219 32.3169 39.5833 31.4183 39.5833C31.1373 39.5833 30.8823 39.5399 30.6533 39.4532C30.57 39.422 30.5041 39.3682 30.4555 39.2919C30.4104 39.2155 30.3879 39.1305 30.3879 39.0369V38.9744C30.3879 38.9085 30.4156 38.8617 30.4711 38.8339C30.5266 38.8027 30.5839 38.8009 30.6429 38.8287C30.8718 38.9432 31.113 39.0004 31.3662 39.0004C31.8068 39.0004 32.0272 38.8339 32.0272 38.5008C32.0272 38.3655 31.9855 38.2545 31.9023 38.1678C31.819 38.0776 31.6785 37.9978 31.4807 37.9284ZM33.7499 39.5312C33.6701 39.5312 33.6007 39.5018 33.5417 39.4428C33.4862 39.3838 33.4585 39.3144 33.4585 39.2346V36.0289C33.4585 35.9491 33.4862 35.8797 33.5417 35.8207C33.6007 35.7617 33.6701 35.7322 33.7499 35.7322H33.8904C33.9702 35.7322 34.0396 35.7617 34.0986 35.8207C34.1575 35.8797 34.187 35.9491 34.187 36.0289V37.2102C34.187 37.238 34.2009 37.2518 34.2287 37.2518H35.5297C35.5574 37.2518 35.5713 37.238 35.5713 37.2102V36.0289C35.5713 35.9491 35.6008 35.8797 35.6598 35.8207C35.7188 35.7617 35.7882 35.7322 35.868 35.7322H36.0085C36.0883 35.7322 36.1559 35.7617 36.2114 35.8207C36.2704 35.8797 36.2999 35.9491 36.2999 36.0289V39.2346C36.2999 39.3144 36.2704 39.3838 36.2114 39.4428C36.1559 39.5018 36.0883 39.5312 36.0085 39.5312H35.868C35.7882 39.5312 35.7188 39.5018 35.6598 39.4428C35.6008 39.3838 35.5713 39.3144 35.5713 39.2346V37.8555C35.5713 37.8243 35.5574 37.8087 35.5297 37.8087H34.2287C34.2009 37.8087 34.187 37.8243 34.187 37.8555V39.2346C34.187 39.3144 34.1575 39.3838 34.0986 39.4428C34.0396 39.5018 33.9702 39.5312 33.8904 39.5312H33.7499Z" fill="#DA291C"/>
</svg>
