<svg width="24" height="24" viewBox="0 0 24 24" fill="none" xmlns="http://www.w3.org/2000/svg">
<g clip-path="url(#clip0_1345_171417)">
<path d="M23.2225 13.5987C23.2436 13.3488 23.1903 13.122 23.0836 12.9375C23.0836 12.9349 23.0836 12.9311 23.0836 12.9285L23.9953 1.94828C24.0524 1.25633 23.5525 0.743777 22.8777 0.804002L21.017 0.970583C20.7404 0.99493 20.4638 1.11538 20.233 1.31143L18.4902 2.79016C18.6949 2.39933 18.7135 1.95982 18.5349 1.61897C18.3463 1.26018 17.9667 1.06284 17.5363 1.10129L16.1148 1.22814C15.7997 1.25633 15.4933 1.40754 15.2527 1.63947C15.048 1.44726 14.7627 1.34859 14.4464 1.37678L13.0186 1.50492C12.9367 1.51261 12.8549 1.53055 12.7743 1.55362C12.6936 1.54337 12.6105 1.5408 12.5237 1.54849L11.2113 1.6651C10.9235 1.69073 10.6494 1.8163 10.4261 2.00723C10.2313 1.85474 9.97457 1.7753 9.68679 1.80221L8.3682 1.92009C8.01219 1.95213 7.68099 2.13665 7.43663 2.40574C6.95657 2.17894 6.32395 2.10333 5.50526 2.17637L3.81081 2.32758C3.13601 2.3878 2.54184 2.99774 2.48478 3.6897L2.07171 8.66918C2.01465 9.36113 2.51455 9.87369 3.18935 9.81347L3.73763 9.76477C3.29479 10.4093 3.03429 11.1692 2.96235 12.0367C2.89288 12.8721 3.00328 13.5731 3.2861 14.1369L2.67208 14.192C1.99728 14.2522 1.40311 14.8621 1.34605 15.5541L0.805218 22.052C0.748158 22.744 1.24806 23.2565 1.92286 23.1963L3.60986 23.0451C4.28466 22.9849 4.87883 22.3749 4.93589 21.683L5.03389 20.4951L5.69008 20.4362L5.59209 21.624C5.53503 22.316 6.03492 22.8286 6.70973 22.7683L8.42278 22.6158C8.77258 22.5851 9.1013 22.4057 9.34443 22.143C9.55158 22.3711 9.86045 22.4877 10.2003 22.457L12.1429 22.284C12.2409 22.275 12.3376 22.2519 12.4319 22.2212C12.5237 22.2366 12.6192 22.2417 12.7197 22.2327L16.4832 21.897C16.6829 21.879 16.8752 21.8124 17.0501 21.7099C17.2101 21.7829 17.3937 21.8163 17.5934 21.7983L21.3569 21.4626C22.0317 21.4024 22.6258 20.7924 22.6829 20.1005L22.802 18.6692C22.8256 18.3873 22.7561 18.1361 22.6209 17.94C22.6916 17.7876 22.7375 17.6235 22.7524 17.4557L22.869 16.0462C22.8789 15.9283 22.8727 15.8155 22.8516 15.7104C22.993 15.5028 23.0848 15.2619 23.1059 15.0095L23.2225 13.6V13.5987Z" fill="#DA291C"/>
<path d="M3.36229 3.92659L5.05921 3.77538C5.72037 3.71644 6.2029 3.77282 6.50681 3.94581C6.81072 4.11879 6.94468 4.41736 6.90995 4.84278C6.88638 5.12212 6.79707 5.36815 6.64078 5.5783C6.48448 5.78845 6.28973 5.93196 6.05653 6.01013L6.05405 6.04473C6.34927 6.09982 6.55643 6.21643 6.67551 6.39583C6.79459 6.57522 6.84173 6.81612 6.81692 7.12109C6.77971 7.57342 6.58372 7.94503 6.23019 8.23462C5.87666 8.52422 5.41398 8.69464 4.84213 8.7459L2.94922 8.91504L3.36353 3.92659H3.36229ZM4.51714 5.7231L4.91284 5.68722C5.10139 5.67056 5.25024 5.61802 5.36064 5.52832C5.47104 5.43863 5.53182 5.3169 5.54422 5.15928C5.56779 4.87994 5.37304 4.75821 4.95998 4.79537L4.59032 4.82869L4.5159 5.7231H4.51714ZM4.43527 6.70849L4.34844 7.75538L4.81112 7.71438C5.22171 7.67722 5.44127 7.48245 5.47104 7.1275C5.48468 6.96092 5.44003 6.83919 5.33831 6.75974C5.23535 6.68029 5.0803 6.65082 4.8719 6.66876L4.43651 6.7072L4.43527 6.70849Z" fill="black"/>
<path d="M12.0905 3.14752L11.8412 6.14982C11.7866 6.80205 11.5645 7.32358 11.175 7.7144C10.7843 8.10522 10.2509 8.33075 9.57115 8.39097C8.90752 8.44992 8.41258 8.32178 8.0851 8.00528C7.75763 7.68877 7.62118 7.20441 7.67576 6.55218L7.92757 3.51913L9.24864 3.40124L9.00551 6.32793C8.97574 6.68032 9.01916 6.93019 9.13452 7.07883C9.24988 7.22619 9.43347 7.28898 9.68403 7.26719C9.95197 7.24285 10.1542 7.14674 10.2881 6.9776C10.4221 6.80846 10.504 6.54449 10.5337 6.1857L10.7756 3.26541L12.0905 3.14752Z" fill="black"/>
<path d="M14.6947 4.75054L15.687 2.82718L17.1111 2.70032L15.2579 5.88329L15.0966 7.83101L13.7718 7.9489L13.9306 6.04219L12.5859 3.10396L14.0162 2.97582L14.6947 4.75054Z" fill="black"/>
<path d="M6.00717 11.6841L8.10724 11.497L7.88396 14.1854C7.29723 14.4366 6.66212 14.5929 5.97864 14.6531C5.22941 14.7197 4.66749 14.5493 4.29536 14.1393C3.92322 13.7305 3.77189 13.1129 3.84011 12.2864C3.9071 11.4817 4.18248 10.8346 4.66873 10.3463C5.15374 9.85814 5.80001 9.5788 6.60754 9.50576C6.91393 9.47885 7.20047 9.48269 7.46717 9.51729C7.73386 9.55189 7.96459 9.60571 8.15933 9.67875L7.65572 10.7731C7.31956 10.627 6.94246 10.5732 6.52319 10.6103C6.13989 10.6449 5.83226 10.7987 5.60154 11.0742C5.37082 11.3484 5.23561 11.7238 5.19592 12.1992C5.15746 12.6657 5.22197 13.0129 5.39191 13.2397C5.56185 13.4678 5.82482 13.5652 6.18207 13.5332C6.37682 13.5152 6.55792 13.4806 6.72538 13.4268L6.78989 12.6452L5.92158 12.7233L6.00841 11.6828L6.00717 11.6841Z" fill="black"/>
<path d="M11.7432 14.0701L8.85547 14.3276L9.26978 9.33916L12.1575 9.0816L12.0682 10.1631L10.4941 10.3041L10.4284 11.0883L11.8859 10.9576L11.7966 12.0391L10.339 12.1698L10.2609 13.1116L11.835 12.9706L11.7432 14.0688V14.0701Z" fill="black"/>
<path d="M14.7432 13.8036L13.4283 13.9214L13.7508 10.035L12.5625 10.1413L12.6543 9.03934L16.3409 8.71002L16.2491 9.81202L15.0645 9.91837L14.742 13.8048L14.7432 13.8036Z" fill="black"/>
<path d="M3.36917 22.1698L1.67969 22.321L2.22052 15.8102L5.97286 15.4758L5.85626 16.8879L3.7934 17.0724L3.69045 18.3153L5.59328 18.1449L5.47668 19.557L3.57384 19.7274L3.37041 22.1723L3.36917 22.1698Z" fill="black"/>
<path d="M8.38542 19.3699L8.18819 21.7392L6.47266 21.893L7.01349 15.3822L9.09371 15.1964C10.8192 15.0426 11.6292 15.6064 11.5225 16.8891C11.4605 17.6439 11.0524 18.2589 10.3007 18.7356L11.9157 21.4073L9.96947 21.5816L8.81957 19.3327L8.38542 19.3712V19.3699ZM8.49582 18.0475L8.81709 18.0193C9.41623 17.9655 9.73874 17.6669 9.7834 17.1236C9.82061 16.6751 9.54523 16.4778 8.95726 16.5303L8.61862 16.5611L8.49458 18.0488L8.49582 18.0475Z" fill="black"/>
<path d="M16.2619 21.019L12.4922 21.3561L13.033 14.8453L16.8027 14.5083L16.6861 15.9204L14.632 16.1036L14.5464 17.1275L16.4492 16.957L16.3326 18.3691L14.4298 18.5396L14.328 19.7684L16.3822 19.5852L16.2631 21.019H16.2619Z" fill="black"/>
<path d="M21.1447 20.5834L17.375 20.9204L17.9158 14.4096L21.6855 14.0726L21.5689 15.4847L19.5148 15.668L19.4292 16.6918L21.332 16.5214L21.2154 17.9335L19.3126 18.1039L19.2109 19.3327L21.265 19.1495L21.1459 20.5834H21.1447Z" fill="black"/>
<path d="M21.548 13.4012L19.2805 13.6037L19.8089 7.23898L19.918 6.19081L20.0495 5.04396C19.6402 5.46426 19.3586 5.73976 19.2011 5.8743L17.8837 6.99936L16.9062 5.69747L20.5966 2.56831L22.4597 2.40173L21.5467 13.3999L21.548 13.4012Z" fill="black"/>
<path d="M3.70604 3.57936L5.40048 3.42815C6.0604 3.36921 6.54169 3.42559 6.8456 3.59858C7.14827 3.77157 7.28347 4.07013 7.2475 4.49427C7.22393 4.77361 7.13462 5.01836 6.97832 5.22851C6.82203 5.43866 6.62852 5.58217 6.39532 5.65905L6.39284 5.69365C6.68682 5.74875 6.89397 5.86536 7.01306 6.04347C7.13214 6.22159 7.17928 6.46377 7.15447 6.76746C7.11725 7.21979 6.92126 7.59011 6.56898 7.87971C6.21669 8.1693 5.75401 8.33973 5.1834 8.39098L3.29297 8.56012L3.70604 3.58064V3.57936ZM4.85965 5.3733L5.25535 5.33743C5.4439 5.32077 5.59275 5.26823 5.70191 5.17981C5.81107 5.0914 5.87309 4.96838 5.88549 4.81205C5.90906 4.53271 5.71431 4.41098 5.30249 4.44814L4.93407 4.48146L4.85965 5.3733ZM4.77778 6.35741L4.69095 7.40303L5.15239 7.36202C5.56174 7.32486 5.7813 7.13009 5.81107 6.77643C5.82471 6.61113 5.78006 6.48811 5.67834 6.40995C5.57662 6.33178 5.42033 6.30103 5.21317 6.32025L4.77778 6.35869V6.35741Z" fill="white"/>
<path d="M12.4185 2.80157L12.1692 5.79875C12.1146 6.45098 11.8938 6.97122 11.5043 7.36077C11.1148 7.75031 10.5814 7.97583 9.90416 8.03606C9.24176 8.095 8.74807 7.96686 8.42059 7.65164C8.09435 7.33642 7.9579 6.85205 8.01124 6.20111L8.26305 3.17318L9.58164 3.05529L9.33852 5.97814C9.30875 6.33053 9.35216 6.5804 9.46752 6.72776C9.58288 6.87512 9.76523 6.93791 10.0158 6.91612C10.2837 6.89178 10.4847 6.79567 10.6187 6.62781C10.7526 6.45867 10.8345 6.19598 10.8643 5.83719L11.1061 2.92203L12.4185 2.80542V2.80157Z" fill="white"/>
<path d="M15.0203 4.40203L16.0102 2.48123L17.4318 2.35437L15.5823 5.53222L15.421 7.47737L14.0987 7.59526L14.2562 5.69111L12.9141 2.75801L14.3418 2.62987L15.0191 4.40203H15.0203Z" fill="white"/>
<path d="M6.34844 11.3241L8.44479 11.137L8.22151 13.8202C7.63602 14.0714 7.00215 14.2264 6.31991 14.2879C5.57192 14.3546 5.01124 14.1841 4.63911 13.7754C4.26697 13.3666 4.11564 12.7503 4.18386 11.9263C4.25085 11.1229 4.52623 10.4771 5.01 9.99015C5.49501 9.50322 6.14004 9.22388 6.94633 9.15084C7.25148 9.12393 7.53802 9.12777 7.80472 9.16237C8.07141 9.19697 8.30089 9.25079 8.49564 9.32383L7.99326 10.4169C7.65834 10.2708 7.28125 10.217 6.86322 10.2541C6.47992 10.2887 6.17353 10.4425 5.94281 10.7167C5.71209 10.9909 5.57688 11.3651 5.53843 11.8392C5.49997 12.3043 5.56448 12.6516 5.73442 12.8784C5.90312 13.1052 6.16609 13.2039 6.52334 13.1718C6.71809 13.1539 6.89919 13.1193 7.06665 13.0655L7.13116 12.2851L6.26409 12.362L6.35092 11.3228L6.34844 11.3241Z" fill="white"/>
<path d="M12.0742 13.7062L9.19141 13.9637L9.60447 8.98424L12.4873 8.72668L12.398 9.8069L10.8263 9.94657L10.7618 10.7295L12.2168 10.6001L12.1275 11.6803L10.6725 11.8097L10.5943 12.7503L12.166 12.6106L12.0754 13.7075L12.0742 13.7062Z" fill="white"/>
<path d="M15.0703 13.4384L13.7579 13.555L14.0804 9.67622L12.8945 9.78257L12.9863 8.68186L16.6667 8.35382L16.5749 9.45454L15.3928 9.55961L15.0703 13.4384Z" fill="white"/>
<path d="M3.71435 21.7918L2.02734 21.943L2.56694 15.4425L6.31307 15.108L6.19647 16.5176L4.13734 16.7008L4.03438 17.9412L5.9335 17.772L5.8169 19.1816L3.91778 19.3507L3.71559 21.7918H3.71435Z" fill="white"/>
<path d="M8.72154 18.997L8.52555 21.3625L6.8125 21.515L7.35209 15.0158L9.42859 14.83C11.1516 14.6762 11.9591 15.24 11.8537 16.5201C11.7916 17.2736 11.3848 17.8874 10.6331 18.3627L12.2456 21.0293L10.3031 21.2023L9.1557 18.9573L8.72154 18.9958V18.997ZM8.8307 17.6772L9.15197 17.649C9.74987 17.5952 10.0724 17.2979 10.117 16.7546C10.1543 16.3074 9.87887 16.1101 9.29215 16.1613L8.9535 16.1921L8.8307 17.6772Z" fill="white"/>
<path d="M16.5877 20.6423L12.8242 20.9781L13.3638 14.4776L17.1273 14.1418L17.0107 15.5514L14.9603 15.7346L14.8759 16.7572L16.775 16.588L16.6584 17.9976L14.7593 18.1667L14.6576 19.3943L16.708 19.211L16.589 20.6423H16.5877Z" fill="white"/>
<path d="M21.4627 20.2067L17.6992 20.5424L18.2388 14.0419L22.0023 13.7062L21.8857 15.1157L19.8353 15.2989L19.7509 16.3215L21.65 16.1524L21.5334 17.5619L19.6343 17.731L19.5326 18.9586L21.583 18.7754L21.464 20.2067H21.4627Z" fill="white"/>
<path d="M21.8635 13.0373L19.5997 13.2398L20.1269 6.88663L20.2361 5.84102L20.3675 4.69673C19.9594 5.11575 19.6779 5.39253 19.5203 5.52579L18.2055 6.64957L17.2305 5.35024L20.9146 2.22621L22.7752 2.05963L21.8635 13.0399V13.0373Z" fill="white"/>
</g>
<defs>
<clipPath id="clip0_1345_171417">
<rect width="23.2" height="22.4" fill="white" transform="translate(0.800781 0.799988)"/>
</clipPath>
</defs>
</svg>
