<svg width="48" height="48" viewBox="0 0 48 48" fill="none" xmlns="http://www.w3.org/2000/svg">
<path fill-rule="evenodd" clip-rule="evenodd" d="M43.9981 17.0754C43.9791 17.2233 43.9602 17.3713 43.9412 17.5192C43.8049 18.5755 43.3524 19.4838 42.6082 20.2479C41.8527 21.027 40.9343 21.514 39.855 21.6919C38.1243 21.9784 36.1229 21.2761 35.108 19.7067C34.9508 19.4632 34.8485 19.1861 34.7217 18.9239C34.6895 18.8564 34.7008 18.8003 34.7539 18.7385C34.9413 18.5231 35.1193 18.3021 35.3011 18.083C35.32 18.0605 35.3295 18.0324 35.3579 17.9818C35.4261 18.1672 35.4677 18.3114 35.5283 18.4463C36.1039 19.7273 37.0905 20.5026 38.4841 20.7367C40.5026 21.0776 42.4321 19.7329 42.8922 17.8264C42.9642 17.5286 42.9964 17.2177 43.0096 16.9125C43.0248 16.5154 43.0153 16.1146 42.9907 15.7157C42.9453 14.9572 42.665 14.2811 42.1992 13.6837C41.5175 12.811 40.6238 12.2791 39.5142 12.1517C38.4122 12.0263 37.4332 12.3559 36.5811 13.0488C35.6931 13.7717 34.9243 14.6108 34.1858 15.4797C33.8431 15.8843 33.5136 16.3 33.1785 16.7102C33.1576 16.7345 33.1349 16.757 33.0989 16.7963C33.0951 16.7458 33.0932 16.7177 33.0932 16.6896C33.0932 16.2869 33.0914 15.8824 33.0951 15.4797C33.0951 15.4236 33.1122 15.358 33.1463 15.3149C33.7352 14.5602 34.3468 13.8242 35.0322 13.1537C35.5397 12.6574 36.0907 12.2117 36.6928 11.8334C37.2457 11.485 37.8574 11.2884 38.5049 11.2041C41.0763 10.8707 43.3164 12.6686 43.8447 14.8748C43.9072 15.1314 43.928 15.3973 43.9678 15.6595C43.9772 15.7176 43.9886 15.7757 43.9999 15.8337V17.0698L43.9981 17.0754Z" fill="#00B041"/>
<path fill-rule="evenodd" clip-rule="evenodd" d="M30.9839 37.7364C31.0578 37.7944 31.1108 37.8337 31.1638 37.8768C31.9383 38.4986 32.8188 38.8938 33.8091 39.0192C34.468 39.1035 35.1251 39.0904 35.7537 38.832C36.4524 38.5435 36.8027 37.9967 36.8671 37.27C36.9012 36.8861 36.888 36.4984 36.8936 36.1126C36.8936 36.0808 36.8861 36.0489 36.8823 36.004C36.8558 36.0171 36.8387 36.0208 36.8293 36.0321C36.3881 36.5284 35.8124 36.7868 35.1762 36.9104C34.1405 37.1146 33.1369 37.0041 32.1977 36.5115C31.1941 35.9853 30.6147 35.1275 30.3364 34.0563C30.2265 33.6349 30.1792 33.206 30.1792 32.7715C30.1792 30.865 30.1792 28.9603 30.1792 27.0538C30.1792 26.9427 30.2366 26.8871 30.3515 26.8871C31.0161 26.8871 31.6789 26.8909 32.3435 26.8834C32.4779 26.8834 32.5082 26.9227 32.5082 27.05C32.5044 28.9865 32.495 30.923 32.512 32.8577C32.5196 33.7472 33.0536 34.6481 34.1878 34.8428C34.8429 34.9552 35.4678 34.8522 36.0075 34.4346C36.4146 34.1181 36.6191 33.6854 36.6853 33.1873C36.7119 32.9925 36.7138 32.794 36.7138 32.5973C36.7138 30.7507 36.7138 28.906 36.7138 27.0594C36.7138 26.9433 36.7731 26.8852 36.8917 26.8852C37.5393 26.8852 38.185 26.8852 38.8326 26.8852C38.9311 26.8852 38.967 26.9115 38.967 27.0163C38.9633 30.4342 38.9746 33.8503 38.9576 37.2681C38.9538 38.2027 38.6736 39.0679 38.0279 39.7852C37.4882 40.3845 36.799 40.7385 36.0245 40.9407C35.5663 41.0606 35.0986 41.113 34.6252 41.1355C33.3111 41.1955 32.1371 40.834 31.107 40.0193C31.0142 39.9463 30.9726 39.8676 30.9745 39.7478C30.9802 39.1166 30.9764 38.4855 30.9783 37.8543C30.9783 37.8244 30.9821 37.7944 30.9858 37.7345L30.9839 37.7364Z" fill="#00B041"/>
<path fill-rule="evenodd" clip-rule="evenodd" d="M11.3594 37.0528H11.2041C10.566 37.0528 9.92785 37.049 9.28974 37.0565C9.1534 37.0565 9.125 37.0153 9.125 36.8899C9.12879 34.1986 9.12689 31.5074 9.12689 28.8143C9.12689 27.5183 9.12689 26.2223 9.12689 24.9244C9.12689 24.7559 9.12689 24.754 9.29731 24.754C10.8822 24.754 12.4671 24.7278 14.0501 24.7652C15.1937 24.7914 16.2428 25.136 17.0721 25.9694C17.5928 26.492 17.8996 27.1306 18.0378 27.8441C18.2139 28.7506 18.195 29.6551 17.8863 30.5335C17.4205 31.8538 16.4548 32.6329 15.1085 32.9813C14.6541 33.0993 14.1902 33.1461 13.7187 33.1461C12.9897 33.1461 12.2607 33.1461 11.5317 33.1461C11.3613 33.1461 11.3613 33.1461 11.3613 33.3165C11.3613 34.5058 11.3613 35.695 11.3613 36.8842V37.0509L11.3594 37.0528ZM12.6318 31.0916C12.9405 31.0916 13.2472 31.101 13.5558 31.0879C13.819 31.0766 14.086 31.0635 14.3417 31.0111C15.0442 30.865 15.5554 30.4773 15.7902 29.79C15.9796 29.2394 15.9815 28.6775 15.8167 28.1213C15.6577 27.5819 15.3036 27.2111 14.7734 27.0014C14.442 26.8703 14.0955 26.8197 13.7452 26.8141C12.9916 26.8047 12.2361 26.8122 11.4805 26.8103C11.384 26.8103 11.3556 26.8459 11.3556 26.9396C11.3575 28.2786 11.3594 29.6158 11.3556 30.9549C11.3556 31.0635 11.3915 31.0935 11.4976 31.0935C11.8744 31.0879 12.2531 31.0935 12.6299 31.0935L12.6318 31.0916Z" fill="#00B041"/>
<path fill-rule="evenodd" clip-rule="evenodd" d="M26.5343 36.0077C26.0231 36.5358 25.4077 36.828 24.709 36.9647C24.1902 37.0677 23.6675 37.0602 23.1449 37.0059C22.5087 36.9404 21.9047 36.7737 21.3423 36.4684C20.3009 35.901 19.6646 35.0207 19.3446 33.9008C19.2045 33.4082 19.1401 32.9026 19.1382 32.3913C19.1382 31.8987 19.125 31.4024 19.1666 30.9118C19.3295 29.0071 20.4183 27.4227 22.5409 26.9245C23.6505 26.6642 24.7639 26.6867 25.8451 27.0575C27.3031 27.5594 28.1931 28.5857 28.5699 30.0578C28.6797 30.4904 28.7308 30.9324 28.7308 31.38C28.7308 33.1704 28.7308 34.9589 28.7308 36.7493C28.7308 36.8705 28.6696 36.931 28.5472 36.931C27.9261 36.931 27.3069 36.9291 26.6858 36.9329C26.5722 36.9329 26.5249 36.9085 26.5306 36.7831C26.54 36.5227 26.5343 36.2624 26.5343 36.0021V36.0077ZM26.5571 31.9418C26.5306 31.5785 26.5381 31.2114 26.4737 30.8556C26.3147 29.9903 25.8224 29.3723 24.9798 29.0595C24.4515 28.8629 23.9061 28.8479 23.3551 28.9453C22.3307 29.1251 21.5411 29.9173 21.3877 30.9324C21.3025 31.4998 21.3044 32.071 21.365 32.6385C21.4654 33.5843 21.952 34.2828 22.8287 34.6892C23.374 34.9439 23.9516 34.9664 24.5442 34.8878C25.4778 34.7623 26.1765 34.1705 26.4302 33.2734C26.5533 32.837 26.54 32.3913 26.5609 31.9437L26.5571 31.9418Z" fill="#00B041"/>
<path fill-rule="evenodd" clip-rule="evenodd" d="M14.1921 15.8057H10.1078C10.104 15.7495 10.1002 15.7045 10.1002 15.6596C10.1002 15.4442 10.1002 15.2307 10.1002 15.0153C10.1002 14.898 10.1621 14.8393 10.2858 14.8393H13.5938C14.071 14.8393 14.5481 14.843 15.0253 14.8374C15.1389 14.8374 15.1749 14.8693 15.173 14.9816C15.1692 16.6597 15.173 18.3377 15.1673 20.0176C15.1673 20.0869 15.1351 20.1712 15.0897 20.2236C14.5955 20.7967 13.9687 21.1919 13.2814 21.4953C12.6319 21.7818 11.9502 21.9448 11.242 22.0216C10.0396 22.1508 8.86756 22.0422 7.75984 21.5365C5.82277 20.6469 4.60713 19.1599 4.16594 17.0923C3.90652 15.875 3.93114 14.652 4.38369 13.4721C4.97826 11.9196 6.05567 10.7846 7.52505 10.0037C8.30329 9.58977 9.13644 9.34256 10.0169 9.24518C10.6626 9.17401 11.3064 9.20023 11.9502 9.24892C12.5827 9.29761 13.2018 9.41373 13.7983 9.63285C13.9195 9.6778 13.9744 9.73211 13.9668 9.8707C13.9536 10.1647 13.963 10.4606 13.963 10.7734C13.8418 10.7135 13.7415 10.6592 13.6373 10.6105C13.0958 10.352 12.5221 10.2116 11.9275 10.1647C11.4958 10.131 11.064 10.1085 10.6304 10.1142C9.33904 10.131 8.18399 10.5487 7.16149 11.3221C6.19201 12.0544 5.51602 12.9946 5.17708 14.1613C5.00477 14.7513 4.97447 15.3562 4.99909 15.9686C5.03128 16.7477 5.19791 17.4893 5.552 18.1841C6.32834 19.703 7.56102 20.645 9.24626 21.0009C9.92793 21.1451 10.6153 21.1301 11.3026 21.0514C12.1131 20.9597 12.8837 20.7462 13.5768 20.3098C13.7661 20.1899 13.9422 20.0476 14.1107 19.9015C14.1618 19.8584 14.1997 19.7704 14.1997 19.703C14.2054 18.4501 14.2035 17.1953 14.2035 15.9424C14.2035 15.9012 14.1959 15.8581 14.1903 15.8075L14.1921 15.8057Z" fill="#00B041"/>
<path fill-rule="evenodd" clip-rule="evenodd" d="M28.9897 20.4951C28.9897 20.806 28.9935 21.1019 28.986 21.3978C28.986 21.4315 28.9273 21.484 28.8875 21.4952C28.5845 21.5776 28.2816 21.69 27.9729 21.7218C26.7005 21.8567 25.5492 21.5233 24.5362 20.7536C23.4701 19.9427 22.8131 18.877 22.6408 17.5567C22.5669 16.9948 22.5915 16.418 22.601 15.8487C22.6237 14.7063 23.046 13.7099 23.7996 12.8522C24.5513 11.9982 25.4886 11.4419 26.619 11.249C28.149 10.9868 29.518 11.3633 30.6939 12.369C31.6028 13.1462 32.1481 14.1369 32.3432 15.3093C32.3791 15.5322 32.3981 15.7607 32.3981 15.9873C32.4019 17.8507 32.4 19.7142 32.4 21.5758V21.7481H31.4248V21.5645C31.4248 19.7011 31.4381 17.8376 31.421 15.976C31.404 14.0171 29.9744 12.5207 28.2191 12.1948C26.0964 11.8034 24.0552 13.238 23.633 15.2906C23.5913 15.4947 23.5648 15.7063 23.5629 15.9142C23.5553 16.463 23.5118 17.0136 23.6235 17.5567C23.9151 18.9875 24.7596 19.9782 26.1154 20.5307C27.0167 20.8978 27.9313 20.8697 28.8439 20.5438C28.8875 20.5289 28.931 20.5139 28.9897 20.4951Z" fill="#00B041"/>
<path fill-rule="evenodd" clip-rule="evenodd" d="M13.4426 16.5548V16.6915C13.4426 17.5848 13.4426 18.4763 13.4445 19.3696C13.4445 19.467 13.4142 19.5288 13.3384 19.5869C12.9162 19.9146 12.4257 20.0907 11.9107 20.2049C11.3294 20.3341 10.7348 20.3978 10.1422 20.3585C8.39822 20.2442 7.10684 19.409 6.27369 17.8957C5.90824 17.2327 5.76054 16.5136 5.74729 15.7588C5.73403 15.0284 5.82871 14.3224 6.1525 13.6594C6.74707 12.4439 7.70898 11.6311 8.97764 11.1611C9.74073 10.8783 10.5341 10.8146 11.3427 10.8652C12.03 10.9082 12.7022 11.0112 13.3441 11.2603C13.5259 11.3296 13.702 11.4139 13.8762 11.4982C13.9141 11.5169 13.9557 11.5712 13.9557 11.6087C13.9614 11.9514 13.9595 12.2941 13.9595 12.6649C13.9065 12.6294 13.8686 12.6069 13.8326 12.5807C13.2968 12.1799 12.6852 11.9645 12.0243 11.8933C11.5812 11.8465 11.1325 11.8016 10.6894 11.8203C9.12723 11.8858 7.90591 12.5544 7.1182 13.916C6.84553 14.3879 6.73003 14.9086 6.71867 15.4554C6.70541 16.0885 6.76979 16.7065 7.04625 17.2852C7.59537 18.4351 8.49858 19.1505 9.77671 19.349C10.678 19.4895 11.5623 19.364 12.4201 19.0569C12.5072 19.025 12.5394 18.9763 12.5394 18.8864C12.5356 18.4838 12.5337 18.0793 12.5394 17.6766C12.5413 17.5511 12.5053 17.5062 12.3708 17.5062C11.6627 17.5118 10.9564 17.5062 10.2482 17.5118C10.1308 17.5118 10.091 17.4837 10.0948 17.362C10.1043 17.096 10.0986 16.832 10.0986 16.5548H13.4407H13.4426Z" fill="#00B041"/>
<path fill-rule="evenodd" clip-rule="evenodd" d="M36.7306 16.3469C36.7874 16.5997 36.8234 16.8132 36.8821 17.0211C37.0469 17.5923 37.3328 18.0924 37.7645 18.5137C38.6734 19.3996 39.9458 19.1524 40.654 18.437C41.046 18.0418 41.2618 17.5642 41.2713 17.008C41.2789 16.5885 41.2997 16.1652 41.2618 15.7495C41.1785 14.8524 40.4931 14.1033 39.6031 13.9029C38.8192 13.7268 38.1375 13.9422 37.5486 14.4647C36.7666 15.1614 36.0868 15.9555 35.4108 16.7496C34.6421 17.6523 33.8979 18.5737 33.1443 19.4876C33.1367 19.497 33.131 19.5101 33.0989 19.5157C33.097 19.482 33.0913 19.4483 33.0913 19.4127C33.0913 18.9969 33.0875 18.5793 33.0951 18.1635C33.0951 18.0924 33.1235 18.01 33.1651 17.9538C33.8619 17.0361 34.6175 16.169 35.4033 15.3262C35.8312 14.8655 36.261 14.4048 36.7155 13.9665C37.2286 13.4721 37.8232 13.0919 38.5333 12.9402C39.3797 12.7604 40.1617 12.9515 40.8642 13.4403C41.5875 13.9422 42.0439 14.6258 42.2086 15.4891C42.237 15.639 42.2484 15.7963 42.2484 15.9499C42.2446 16.4124 42.2654 16.8788 42.2162 17.3376C42.0817 18.5493 41.1596 19.585 39.9515 19.9259C38.6298 20.2985 37.2835 19.7723 36.5053 18.583C36.2686 18.2197 36.0963 17.8283 35.9959 17.4088C35.9827 17.3489 36.0016 17.2627 36.0395 17.214C36.244 16.9537 36.4599 16.7009 36.67 16.4443C36.689 16.4218 36.7003 16.3937 36.7287 16.3488L36.7306 16.3469Z" fill="#00B041"/>
<path fill-rule="evenodd" clip-rule="evenodd" d="M28.9899 18.6092C28.9899 18.9407 28.9937 19.2497 28.9861 19.5569C28.9861 19.6037 28.9312 19.6599 28.8876 19.6898C28.6282 19.864 28.3328 19.952 28.028 19.9989C26.6987 20.2011 25.4395 19.6131 24.756 18.4706C24.4682 17.9893 24.3167 17.4668 24.3205 16.905C24.3205 16.6297 24.3224 16.3562 24.3205 16.0809C24.311 15.0396 24.7408 14.2025 25.5513 13.5582C27.3615 12.1199 30.1601 13.0526 30.6089 15.4067C30.6486 15.6202 30.6657 15.8412 30.6676 16.0584C30.6713 17.8994 30.6695 19.7404 30.6695 21.5814C30.6695 21.6963 30.6101 21.7543 30.4915 21.7556C30.2737 21.7556 30.0578 21.7499 29.8401 21.7574C29.7284 21.7612 29.7019 21.72 29.7019 21.617C29.7056 21.1225 29.7019 20.63 29.7019 20.1356C29.7019 18.7928 29.7019 17.4481 29.7019 16.1053C29.7019 15.6277 29.5977 15.1763 29.3156 14.7812C28.8706 14.1613 28.2628 13.856 27.4902 13.841C26.5851 13.8242 25.627 14.4216 25.3638 15.4629C25.3221 15.6314 25.3032 15.8094 25.2975 15.9835C25.2862 16.2869 25.2937 16.5922 25.2937 16.8975C25.2937 17.9968 26.0682 18.9014 27.1702 19.0568C27.7724 19.143 28.3423 19.0156 28.8611 18.6935C28.8971 18.671 28.9331 18.6467 28.9918 18.6092H28.9899Z" fill="#00B041"/>
<path fill-rule="evenodd" clip-rule="evenodd" d="M23.6864 11.8184C23.4403 12.0825 23.2244 12.3166 23.0123 12.5432C22.7605 12.4496 22.5181 12.326 22.2606 12.2679C20.7174 11.9214 19.3427 12.2117 18.2312 13.386C17.7351 13.9104 17.4605 14.5528 17.3545 15.2588C17.3033 15.5922 17.2844 15.933 17.2844 16.2701C17.2768 18.0381 17.2806 19.806 17.2806 21.574C17.2806 21.6951 17.2194 21.7556 17.097 21.7556C16.8754 21.7556 16.6539 21.7519 16.4323 21.7556C16.3395 21.7575 16.3055 21.7238 16.313 21.6376C16.3149 21.617 16.313 21.5946 16.313 21.574C16.313 19.733 16.313 17.892 16.313 16.051C16.313 14.9891 16.5762 14.0059 17.1992 13.1332C17.9358 12.1012 18.9526 11.4944 20.1985 11.2622C21.168 11.0806 22.1224 11.1405 23.0445 11.5001C23.2604 11.5843 23.4611 11.7061 23.6845 11.8184H23.6864Z" fill="#00B041"/>
<path fill-rule="evenodd" clip-rule="evenodd" d="M22.5863 13.1612C22.4386 13.4515 22.3004 13.7249 22.164 13.9928C21.9709 13.9478 21.7797 13.8841 21.5846 13.8617C20.6568 13.753 19.7593 14.0415 19.2764 14.9254C19.1003 15.2475 19.017 15.5978 19.017 15.963C19.017 17.8302 19.017 19.6974 19.017 21.5646V21.7425H18.0513C18.0494 21.6975 18.0437 21.6526 18.0437 21.6076C18.0437 19.7105 18.0267 17.8133 18.0494 15.9161C18.0665 14.3861 19.1325 13.1931 20.5848 12.9346C21.1662 12.8316 21.7399 12.8653 22.3042 13.0414C22.4007 13.0713 22.4916 13.1219 22.5863 13.1631V13.1612Z" fill="#00B041"/>
<path fill-rule="evenodd" clip-rule="evenodd" d="M34.1196 6.86481H35.0778C35.0796 6.91725 35.0853 6.96219 35.0853 7.00714C35.0853 8.64773 35.0853 10.2864 35.0853 11.927C35.0853 12.0113 35.0588 12.0656 34.9982 12.1274C34.7369 12.3896 34.4832 12.6612 34.2276 12.929C34.1954 12.9627 34.1651 12.9964 34.1196 13.0489V6.86481Z" fill="#00B041"/>
<path fill-rule="evenodd" clip-rule="evenodd" d="M35.8461 11.6086V11.4457C35.8461 9.97367 35.8461 8.50164 35.8461 7.02773C35.8461 6.91411 35.9061 6.8573 36.026 6.8573C36.2248 6.8573 36.4256 6.8573 36.6244 6.8573C36.7481 6.8573 36.8106 6.92098 36.8118 7.04833C36.8118 7.33112 36.8118 7.61579 36.8118 7.89859C36.8118 8.87245 36.8118 9.84819 36.8118 10.8221C36.8118 10.9232 36.7815 10.9812 36.6906 11.0374C36.4407 11.1929 36.2021 11.3652 35.9597 11.53C35.9294 11.5506 35.8992 11.5712 35.8442 11.6086H35.8461Z" fill="#00B041"/>
</svg>
