<svg width="24" height="24" viewBox="0 0 24 24" fill="none" xmlns="http://www.w3.org/2000/svg">
<g clip-path="url(#clip0_5207_127404)">
<path d="M23.978 0.0112305H0V23.9892H23.978V0.0112305Z" fill="#F5F5F5"/>
<path d="M24 0.0112305H0V1.85529H24V0.0112305Z" fill="#FF4B55"/>
<path d="M24 7.38916H0V9.23322H24V7.38916Z" fill="#FF4B55"/>
<path d="M24 3.7002H0V5.54426H24V3.7002Z" fill="#FF4B55"/>
<path d="M24 11.0776H0V12.9217H24V11.0776Z" fill="#FF4B55"/>
<path d="M24 18.4556H0V20.2996H24V18.4556Z" fill="#FF4B55"/>
<path d="M24 22.1445H0V23.9886H24V22.1445Z" fill="#FF4B55"/>
<path d="M24 14.7666H0V16.6107H24V14.7666Z" fill="#FF4B55"/>
<path d="M12.9112 0.0112305H0V12.9225H12.9112V0.0112305Z" fill="#41479B"/>
<path d="M1.64983 0.975746L1.7493 1.27406L2.06374 1.2765C2.10443 1.27682 2.12135 1.32876 2.08858 1.35295L1.83565 1.53975L1.93047 1.83956C1.94276 1.87837 1.8986 1.91048 1.86541 1.88681L1.60957 1.70395L1.35372 1.88681C1.32063 1.91053 1.27643 1.87837 1.28866 1.83956L1.38349 1.53975L1.13055 1.35295C1.09783 1.32876 1.11466 1.27682 1.1554 1.2765L1.46983 1.27406L1.5693 0.975746C1.58233 0.937121 1.63699 0.937121 1.64983 0.975746Z" fill="#F5F5F5"/>
<path d="M1.64983 3.46406L1.7493 3.76237L2.06374 3.76481C2.10443 3.76514 2.12135 3.81708 2.08858 3.84127L1.83565 4.02806L1.93047 4.32788C1.94276 4.36669 1.8986 4.3988 1.86541 4.37513L1.60957 4.19227L1.35372 4.37513C1.32063 4.39884 1.27643 4.36669 1.28866 4.32788L1.38349 4.02806L1.13055 3.84127C1.09783 3.81708 1.11466 3.76514 1.1554 3.76481L1.46983 3.76237L1.5693 3.46406C1.58233 3.42539 1.63699 3.42539 1.64983 3.46406Z" fill="#F5F5F5"/>
<path d="M1.64983 6.22428L1.7493 6.52259L2.06374 6.52503C2.10443 6.52536 2.12135 6.5773 2.08858 6.60153L1.83565 6.78833L1.93047 7.08814C1.94276 7.12695 1.8986 7.15906 1.86541 7.13539L1.60957 6.95253L1.35372 7.13539C1.32063 7.15911 1.27643 7.12695 1.28866 7.08814L1.38349 6.78833L1.13055 6.60153C1.09783 6.57734 1.11466 6.52536 1.1554 6.52503L1.46983 6.52259L1.5693 6.22428C1.58233 6.18566 1.63699 6.18566 1.64983 6.22428Z" fill="#F5F5F5"/>
<path d="M1.64983 8.75993L1.7493 9.05824L2.06374 9.06068C2.10443 9.061 2.12135 9.11294 2.08858 9.13713L1.83565 9.32393L1.93047 9.62374C1.94276 9.66255 1.8986 9.69466 1.86541 9.67099L1.60957 9.48813L1.35372 9.67099C1.32063 9.69471 1.27643 9.66255 1.28866 9.62374L1.38349 9.32393L1.13055 9.13713C1.09783 9.11294 1.11466 9.061 1.1554 9.06068L1.46983 9.05824L1.5693 8.75993C1.58233 8.7213 1.63699 8.7213 1.64983 8.75993Z" fill="#F5F5F5"/>
<path d="M1.64983 11.0675L1.7493 11.3659L2.06374 11.3683C2.10443 11.3686 2.12135 11.4206 2.08858 11.4447L1.83565 11.6315L1.93047 11.9314C1.94276 11.9702 1.8986 12.0023 1.86541 11.9786L1.60957 11.7957L1.35372 11.9786C1.32063 12.0023 1.27643 11.9702 1.28866 11.9314L1.38349 11.6315L1.13055 11.4447C1.09783 11.4206 1.11466 11.3686 1.1554 11.3683L1.46983 11.3659L1.5693 11.0675C1.58233 11.0289 1.63699 11.0289 1.64983 11.0675Z" fill="#F5F5F5"/>
<path d="M2.86077 2.15397L2.96024 2.45228L3.27468 2.45472C3.31537 2.45505 3.33229 2.50698 3.29952 2.53117L3.04658 2.71797L3.14141 3.01778C3.15369 3.05659 3.10954 3.0887 3.07635 3.06503L2.82051 2.88217L2.56466 3.06503C2.53157 3.08875 2.48737 3.05659 2.4996 3.01778L2.59443 2.71797L2.34149 2.53117C2.30877 2.50698 2.3256 2.45505 2.36633 2.45472L2.68077 2.45228L2.78024 2.15397C2.79327 2.11534 2.84793 2.11534 2.86077 2.15397Z" fill="#F5F5F5"/>
<path d="M2.86077 4.91422L2.96024 5.21254L3.27468 5.21497C3.31537 5.2153 3.33229 5.26724 3.29952 5.29143L3.04658 5.47822L3.14141 5.77804C3.15369 5.81685 3.10954 5.84896 3.07635 5.82528L2.82051 5.64243L2.56466 5.82528C2.53157 5.849 2.48737 5.81685 2.4996 5.77804L2.59443 5.47822L2.34149 5.29143C2.30877 5.26724 2.3256 5.2153 2.36633 5.21497L2.68077 5.21254L2.78024 4.91422C2.79327 4.8756 2.84793 4.8756 2.86077 4.91422Z" fill="#F5F5F5"/>
<path d="M2.86077 7.53626L2.96024 7.83457L3.27468 7.83701C3.31537 7.83734 3.33229 7.88927 3.29952 7.91346L3.04658 8.10026L3.14141 8.40007C3.15369 8.43888 3.10954 8.47099 3.07635 8.44732L2.82051 8.26446L2.56466 8.44732C2.53157 8.47104 2.48737 8.43888 2.4996 8.40007L2.59443 8.10026L2.34149 7.91346C2.30877 7.88927 2.3256 7.83734 2.36633 7.83701L2.68077 7.83457L2.78024 7.53626C2.79327 7.49768 2.84793 7.49768 2.86077 7.53626Z" fill="#F5F5F5"/>
<path d="M2.86077 9.89082L2.96024 10.1891L3.27468 10.1916C3.31537 10.1919 3.33229 10.2438 3.29952 10.268L3.04658 10.4548L3.14141 10.7546C3.15369 10.7934 3.10954 10.8256 3.07635 10.8019L2.82051 10.619L2.56466 10.8019C2.53157 10.8256 2.48737 10.7934 2.4996 10.7546L2.59443 10.4548L2.34149 10.268C2.30877 10.2438 2.3256 10.1919 2.36633 10.1916L2.68077 10.1891L2.78024 9.89082C2.79327 9.85215 2.84793 9.85215 2.86077 9.89082Z" fill="#F5F5F5"/>
<path d="M4.07171 0.975746L4.17118 1.27406L4.48561 1.2765C4.5263 1.27682 4.54322 1.32876 4.51046 1.35295L4.25752 1.53975L4.35235 1.83956C4.36463 1.87837 4.32047 1.91048 4.28729 1.88681L4.03144 1.70395L3.7756 1.88681C3.74251 1.91053 3.6983 1.87837 3.71054 1.83956L3.80537 1.53975L3.55243 1.35295C3.51971 1.32876 3.53654 1.27682 3.57727 1.2765L3.89171 1.27406L3.99118 0.975746C4.00421 0.937121 4.05882 0.937121 4.07171 0.975746Z" fill="#F5F5F5"/>
<path d="M4.07171 3.46406L4.17118 3.76237L4.48561 3.76481C4.5263 3.76514 4.54322 3.81708 4.51046 3.84127L4.25752 4.02806L4.35235 4.32788C4.36463 4.36669 4.32047 4.3988 4.28729 4.37513L4.03144 4.19227L3.7756 4.37513C3.74251 4.39884 3.6983 4.36669 3.71054 4.32788L3.80537 4.02806L3.55243 3.84127C3.51971 3.81708 3.53654 3.76514 3.57727 3.76481L3.89171 3.76237L3.99118 3.46406C4.00421 3.42539 4.05882 3.42539 4.07171 3.46406Z" fill="#F5F5F5"/>
<path d="M4.07171 6.22428L4.17118 6.52259L4.48561 6.52503C4.5263 6.52536 4.54322 6.5773 4.51046 6.60153L4.25752 6.78833L4.35235 7.08814C4.36463 7.12695 4.32047 7.15906 4.28729 7.13539L4.03144 6.95253L3.7756 7.13539C3.74251 7.15911 3.6983 7.12695 3.71054 7.08814L3.80537 6.78833L3.55243 6.60153C3.51971 6.57734 3.53654 6.52536 3.57727 6.52503L3.89171 6.52259L3.99118 6.22428C4.00421 6.18566 4.05882 6.18566 4.07171 6.22428Z" fill="#F5F5F5"/>
<path d="M4.07162 8.75993L4.17108 9.05824L4.48552 9.06068C4.52621 9.06101 4.54313 9.11295 4.51037 9.13713L4.25743 9.32393L4.35226 9.62374C4.36454 9.66256 4.32038 9.69467 4.28719 9.67099L4.03144 9.48809L3.7756 9.67095C3.74251 9.69467 3.6983 9.66251 3.71054 9.6237L3.80537 9.32388L3.55243 9.13709C3.51971 9.1129 3.53654 9.06096 3.57727 9.06063L3.89171 9.0582L3.99118 8.75988C4.00412 8.72131 4.05872 8.72131 4.07162 8.75993Z" fill="#F5F5F5"/>
<path d="M4.07171 11.0675L4.17118 11.3659L4.48561 11.3683C4.5263 11.3686 4.54322 11.4206 4.51046 11.4447L4.25752 11.6315L4.35235 11.9314C4.36463 11.9702 4.32047 12.0023 4.28729 11.9786L4.03144 11.7957L3.7756 11.9786C3.74251 12.0023 3.6983 11.9702 3.71054 11.9314L3.80537 11.6315L3.55243 11.4447C3.51971 11.4206 3.53654 11.3686 3.57727 11.3683L3.89171 11.3659L3.99118 11.0675C4.00421 11.0289 4.05882 11.0289 4.07171 11.0675Z" fill="#F5F5F5"/>
<path d="M5.28265 2.15397L5.38212 2.45228L5.69655 2.45472C5.73724 2.45505 5.75416 2.50698 5.7214 2.53117L5.46846 2.71797L5.56329 3.01778C5.57557 3.05659 5.53141 3.0887 5.49822 3.06503L5.24238 2.88217L4.98654 3.06503C4.95344 3.08875 4.90924 3.05659 4.92147 3.01778L5.0163 2.71797L4.76336 2.53117C4.73065 2.50698 4.74747 2.45505 4.78821 2.45472L5.10279 2.45228L5.20226 2.15397C5.21515 2.11534 5.26976 2.11534 5.28265 2.15397Z" fill="#F5F5F5"/>
<path d="M5.28265 4.91422L5.38212 5.21254L5.69655 5.21497C5.73724 5.2153 5.75416 5.26724 5.7214 5.29143L5.46846 5.47822L5.56329 5.77804C5.57557 5.81685 5.53141 5.84896 5.49822 5.82528L5.24238 5.64243L4.98654 5.82528C4.95344 5.849 4.90924 5.81685 4.92147 5.77804L5.0163 5.47822L4.76336 5.29143C4.73065 5.26724 4.74747 5.2153 4.78821 5.21497L5.10265 5.21254L5.20211 4.91422C5.21515 4.8756 5.26976 4.8756 5.28265 4.91422Z" fill="#F5F5F5"/>
<path d="M5.28265 7.53626L5.38212 7.83457L5.69655 7.83701C5.73724 7.83734 5.75416 7.88927 5.7214 7.91346L5.46846 8.10026L5.56329 8.40007C5.57557 8.43888 5.53141 8.47099 5.49822 8.44732L5.24238 8.26446L4.98654 8.44732C4.95344 8.47104 4.90924 8.43888 4.92147 8.40007L5.0163 8.10026L4.76336 7.91346C4.73065 7.88927 4.74747 7.83734 4.78821 7.83701L5.10265 7.83457L5.20211 7.53626C5.21515 7.49768 5.26976 7.49768 5.28265 7.53626Z" fill="#F5F5F5"/>
<path d="M5.28265 9.89082L5.38212 10.1891L5.69655 10.1916C5.73724 10.1919 5.75416 10.2438 5.7214 10.268L5.46846 10.4548L5.56329 10.7546C5.57557 10.7934 5.53141 10.8256 5.49822 10.8019L5.24238 10.619L4.98654 10.8019C4.95344 10.8256 4.90924 10.7934 4.92147 10.7546L5.0163 10.4548L4.76336 10.268C4.73065 10.2438 4.74747 10.1919 4.78821 10.1916L5.10265 10.1891L5.20211 9.89082C5.21515 9.85215 5.26976 9.85215 5.28265 9.89082Z" fill="#F5F5F5"/>
<path d="M6.49358 0.975746L6.59305 1.27406L6.90749 1.2765C6.94818 1.27682 6.9651 1.32876 6.93233 1.35295L6.6794 1.53975L6.77422 1.83956C6.78651 1.87837 6.74235 1.91048 6.70916 1.88681L6.45332 1.70395L6.19747 1.88681C6.16438 1.91053 6.12018 1.87837 6.13241 1.83956L6.22724 1.53975L5.9743 1.35295C5.94158 1.32876 5.95841 1.27682 5.99915 1.2765L6.31358 1.27406L6.41305 0.975746C6.42608 0.937121 6.48069 0.937121 6.49358 0.975746Z" fill="#F5F5F5"/>
<path d="M6.49358 3.46406L6.59305 3.76237L6.90749 3.76481C6.94818 3.76514 6.9651 3.81708 6.93233 3.84127L6.6794 4.02806L6.77422 4.32788C6.78651 4.36669 6.74235 4.3988 6.70916 4.37513L6.45332 4.19227L6.19747 4.37513C6.16438 4.39884 6.12018 4.36669 6.13241 4.32788L6.22724 4.02806L5.9743 3.84127C5.94158 3.81708 5.95841 3.76514 5.99915 3.76481L6.31358 3.76237L6.41305 3.46406C6.42608 3.42539 6.48069 3.42539 6.49358 3.46406Z" fill="#F5F5F5"/>
<path d="M6.49358 6.22428L6.59305 6.52259L6.90749 6.52503C6.94818 6.52536 6.9651 6.5773 6.93233 6.60153L6.6794 6.78833L6.77422 7.08814C6.78651 7.12695 6.74235 7.15906 6.70916 7.13539L6.45332 6.95253L6.19747 7.13539C6.16438 7.15911 6.12018 7.12695 6.13241 7.08814L6.22724 6.78833L5.9743 6.60153C5.94158 6.57734 5.95841 6.52536 5.99915 6.52503L6.31358 6.52259L6.41305 6.22428C6.42608 6.18566 6.48069 6.18566 6.49358 6.22428Z" fill="#F5F5F5"/>
<path d="M6.49358 8.75993L6.59305 9.05824L6.90749 9.06068C6.94818 9.061 6.9651 9.11294 6.93233 9.13713L6.6794 9.32393L6.77422 9.62374C6.78651 9.66255 6.74235 9.69466 6.70916 9.67099L6.45332 9.48813L6.19747 9.67099C6.16438 9.69471 6.12018 9.66255 6.13241 9.62374L6.22724 9.32393L5.9743 9.13713C5.94158 9.11294 5.95841 9.061 5.99915 9.06068L6.31358 9.05824L6.41305 8.75993C6.42608 8.7213 6.48069 8.7213 6.49358 8.75993Z" fill="#F5F5F5"/>
<path d="M6.49358 11.0675L6.59305 11.3659L6.90749 11.3683C6.94818 11.3686 6.9651 11.4206 6.93233 11.4447L6.6794 11.6315L6.77422 11.9314C6.78651 11.9702 6.74235 12.0023 6.70916 11.9786L6.45332 11.7957L6.19747 11.9786C6.16438 12.0023 6.12018 11.9702 6.13241 11.9314L6.22724 11.6315L5.9743 11.4447C5.94158 11.4206 5.95841 11.3686 5.99915 11.3683L6.31358 11.3659L6.41305 11.0675C6.42608 11.0289 6.48069 11.0289 6.49358 11.0675Z" fill="#F5F5F5"/>
<path d="M7.70452 2.15397L7.80399 2.45228L8.11843 2.45472C8.15912 2.45505 8.17604 2.50698 8.14327 2.53117L7.89034 2.71797L7.98516 3.01778C7.99745 3.05659 7.95329 3.0887 7.9201 3.06503L7.66426 2.88217L7.40841 3.06503C7.37532 3.08875 7.33112 3.05659 7.34335 3.01778L7.43818 2.71797L7.18524 2.53117C7.15252 2.50698 7.16935 2.45505 7.21004 2.45472L7.52448 2.45228L7.62395 2.15397C7.63702 2.11534 7.69163 2.11534 7.70452 2.15397Z" fill="#F5F5F5"/>
<path d="M7.70452 4.91422L7.80399 5.21254L8.11843 5.21497C8.15912 5.2153 8.17604 5.26724 8.14327 5.29143L7.89034 5.47822L7.98516 5.77804C7.99745 5.81685 7.95329 5.84896 7.9201 5.82528L7.66426 5.64243L7.40841 5.82528C7.37532 5.849 7.33112 5.81685 7.34335 5.77804L7.43818 5.47822L7.18524 5.29143C7.15252 5.26724 7.16935 5.2153 7.21004 5.21497L7.52448 5.21254L7.62395 4.91422C7.63702 4.8756 7.69163 4.8756 7.70452 4.91422Z" fill="#F5F5F5"/>
<path d="M7.70452 7.53626L7.80399 7.83457L8.11843 7.83701C8.15912 7.83734 8.17604 7.88927 8.14327 7.91346L7.89034 8.10026L7.98516 8.40007C7.99745 8.43888 7.95329 8.47099 7.9201 8.44732L7.66426 8.26446L7.40841 8.44732C7.37532 8.47104 7.33112 8.43888 7.34335 8.40007L7.43818 8.10026L7.18524 7.91346C7.15252 7.88927 7.16935 7.83734 7.21004 7.83701L7.52448 7.83457L7.62395 7.53626C7.63702 7.49768 7.69163 7.49768 7.70452 7.53626Z" fill="#F5F5F5"/>
<path d="M7.70452 9.89082L7.80399 10.1891L8.11843 10.1916C8.15912 10.1919 8.17604 10.2438 8.14327 10.268L7.89034 10.4548L7.98516 10.7546C7.99745 10.7934 7.95329 10.8256 7.9201 10.8019L7.66426 10.619L7.40841 10.8019C7.37532 10.8256 7.33112 10.7934 7.34335 10.7546L7.43818 10.4548L7.18524 10.268C7.15252 10.2438 7.16935 10.1919 7.21004 10.1916L7.52448 10.1891L7.62395 9.89082C7.63702 9.85215 7.69163 9.85215 7.70452 9.89082Z" fill="#F5F5F5"/>
<path d="M8.91546 0.975746L9.01493 1.27406L9.32937 1.2765C9.37005 1.27682 9.38698 1.32876 9.35421 1.35295L9.10127 1.53975L9.1961 1.83956C9.20838 1.87837 9.16422 1.91048 9.13104 1.88681L8.87519 1.70395L8.61935 1.88681C8.58626 1.91053 8.54205 1.87837 8.55429 1.83956L8.64912 1.53975L8.39618 1.35295C8.36346 1.32876 8.38029 1.27682 8.42102 1.2765L8.73546 1.27406L8.83493 0.975746C8.84796 0.937121 8.90257 0.937121 8.91546 0.975746Z" fill="#F5F5F5"/>
<path d="M8.91546 3.46406L9.01493 3.76237L9.32937 3.76481C9.37005 3.76514 9.38698 3.81708 9.35421 3.84127L9.10127 4.02806L9.1961 4.32788C9.20838 4.36669 9.16422 4.3988 9.13104 4.37513L8.87519 4.19227L8.61935 4.37513C8.58626 4.39884 8.54205 4.36669 8.55429 4.32788L8.64912 4.02806L8.39618 3.84127C8.36346 3.81708 8.38029 3.76514 8.42102 3.76481L8.73546 3.76237L8.83493 3.46406C8.84796 3.42539 8.90257 3.42539 8.91546 3.46406Z" fill="#F5F5F5"/>
<path d="M8.91546 6.22428L9.01493 6.52259L9.32937 6.52503C9.37005 6.52536 9.38698 6.5773 9.35421 6.60153L9.10127 6.78833L9.1961 7.08814C9.20838 7.12695 9.16422 7.15906 9.13104 7.13539L8.87519 6.95253L8.61935 7.13539C8.58626 7.15911 8.54205 7.12695 8.55429 7.08814L8.64912 6.78833L8.39618 6.60153C8.36346 6.57734 8.38029 6.52536 8.42102 6.52503L8.73546 6.52259L8.83493 6.22428C8.84796 6.18566 8.90257 6.18566 8.91546 6.22428Z" fill="#F5F5F5"/>
<path d="M8.91546 8.75993L9.01493 9.05824L9.32937 9.06068C9.37005 9.061 9.38698 9.11294 9.35421 9.13713L9.10127 9.32393L9.1961 9.62374C9.20838 9.66255 9.16422 9.69466 9.13104 9.67099L8.87519 9.48813L8.61935 9.67099C8.58626 9.69471 8.54205 9.66255 8.55429 9.62374L8.64912 9.32393L8.39618 9.13713C8.36346 9.11294 8.38029 9.061 8.42102 9.06068L8.73546 9.05824L8.83493 8.75993C8.84796 8.7213 8.90257 8.7213 8.91546 8.75993Z" fill="#F5F5F5"/>
<path d="M8.91546 11.0675L9.01493 11.3659L9.32937 11.3683C9.37005 11.3686 9.38698 11.4206 9.35421 11.4447L9.10127 11.6315L9.1961 11.9314C9.20838 11.9702 9.16422 12.0023 9.13104 11.9786L8.87519 11.7957L8.61935 11.9786C8.58626 12.0023 8.54205 11.9702 8.55429 11.9314L8.64912 11.6315L8.39618 11.4447C8.36346 11.4206 8.38029 11.3686 8.42102 11.3683L8.73546 11.3659L8.83493 11.0675C8.84796 11.0289 8.90257 11.0289 8.91546 11.0675Z" fill="#F5F5F5"/>
<path d="M10.1303 2.15397L10.2298 2.45228L10.5442 2.45472C10.5849 2.45505 10.6018 2.50698 10.5691 2.53117L10.3161 2.71797L10.4109 3.01778C10.4232 3.05659 10.3791 3.0887 10.3459 3.06503L10.09 2.88217L9.83419 3.06503C9.8011 3.08875 9.7569 3.05659 9.76913 3.01778L9.86396 2.71797L9.61102 2.53117C9.5783 2.50698 9.59513 2.45505 9.63586 2.45472L9.9503 2.45228L10.0498 2.15397C10.0628 2.11534 10.1174 2.11534 10.1303 2.15397Z" fill="#F5F5F5"/>
<path d="M10.1303 4.91422L10.2298 5.21254L10.5442 5.21497C10.5849 5.2153 10.6018 5.26724 10.5691 5.29143L10.3161 5.47822L10.4109 5.77804C10.4232 5.81685 10.3791 5.84896 10.3459 5.82528L10.09 5.64243L9.83419 5.82528C9.8011 5.849 9.7569 5.81685 9.76913 5.77804L9.86396 5.47822L9.61102 5.29143C9.5783 5.26724 9.59513 5.2153 9.63586 5.21497L9.9503 5.21254L10.0498 4.91422C10.0628 4.8756 10.1174 4.8756 10.1303 4.91422Z" fill="#F5F5F5"/>
<path d="M10.1303 7.53626L10.2298 7.83457L10.5442 7.83701C10.5849 7.83734 10.6018 7.88927 10.5691 7.91346L10.3161 8.10026L10.4109 8.40007C10.4232 8.43888 10.3791 8.47099 10.3459 8.44732L10.09 8.26446L9.83419 8.44732C9.8011 8.47104 9.7569 8.43888 9.76913 8.40007L9.86396 8.10026L9.61102 7.91346C9.5783 7.88927 9.59513 7.83734 9.63586 7.83701L9.9503 7.83457L10.0498 7.53626C10.0628 7.49768 10.1174 7.49768 10.1303 7.53626Z" fill="#F5F5F5"/>
<path d="M10.1303 9.89082L10.2298 10.1891L10.5442 10.1916C10.5849 10.1919 10.6018 10.2438 10.5691 10.268L10.3161 10.4548L10.4109 10.7546C10.4232 10.7934 10.3791 10.8256 10.3459 10.8019L10.09 10.619L9.83419 10.8019C9.8011 10.8256 9.7569 10.7934 9.76913 10.7546L9.86396 10.4548L9.61102 10.268C9.5783 10.2438 9.59513 10.1919 9.63586 10.1916L9.9503 10.1891L10.0498 9.89082C10.0628 9.85215 10.1174 9.85215 10.1303 9.89082Z" fill="#F5F5F5"/>
<path d="M11.3412 0.975746L11.4407 1.27406L11.7551 1.2765C11.7958 1.27682 11.8128 1.32876 11.78 1.35295L11.5271 1.53975L11.6219 1.83956C11.6342 1.87837 11.59 1.91048 11.5568 1.88681L11.301 1.70395L11.0451 1.88681C11.012 1.91053 10.9678 1.87837 10.9801 1.83956L11.0749 1.53975L10.822 1.35295C10.7892 1.32876 10.8061 1.27682 10.8468 1.2765L11.1612 1.27406L11.2607 0.975746C11.2737 0.937121 11.3283 0.937121 11.3412 0.975746Z" fill="#F5F5F5"/>
<path d="M11.3412 3.46406L11.4407 3.76237L11.7551 3.76481C11.7958 3.76514 11.8128 3.81708 11.78 3.84127L11.5271 4.02806L11.6219 4.32788C11.6342 4.36669 11.59 4.3988 11.5568 4.37513L11.301 4.19227L11.0451 4.37513C11.012 4.39884 10.9678 4.36669 10.9801 4.32788L11.0749 4.02806L10.822 3.84127C10.7892 3.81708 10.8061 3.76514 10.8468 3.76481L11.1612 3.76237L11.2607 3.46406C11.2737 3.42539 11.3283 3.42539 11.3412 3.46406Z" fill="#F5F5F5"/>
<path d="M11.3412 6.22428L11.4407 6.52259L11.7551 6.52503C11.7958 6.52536 11.8128 6.5773 11.78 6.60153L11.5271 6.78833L11.6219 7.08814C11.6342 7.12695 11.59 7.15906 11.5568 7.13539L11.301 6.95253L11.0451 7.13539C11.012 7.15911 10.9678 7.12695 10.9801 7.08814L11.0749 6.78833L10.822 6.60153C10.7892 6.57734 10.8061 6.52536 10.8468 6.52503L11.1612 6.52259L11.2607 6.22428C11.2737 6.18566 11.3283 6.18566 11.3412 6.22428Z" fill="#F5F5F5"/>
<path d="M11.3412 8.75993L11.4407 9.05824L11.7551 9.06068C11.7958 9.061 11.8128 9.11294 11.78 9.13713L11.5271 9.32393L11.6219 9.62374C11.6342 9.66255 11.59 9.69466 11.5568 9.67099L11.301 9.48813L11.0451 9.67099C11.012 9.69471 10.9678 9.66255 10.9801 9.62374L11.0749 9.32393L10.822 9.13713C10.7892 9.11294 10.8061 9.061 10.8468 9.06068L11.1612 9.05824L11.2607 8.75993C11.2737 8.7213 11.3283 8.7213 11.3412 8.75993Z" fill="#F5F5F5"/>
<path d="M11.3412 11.0675L11.4407 11.3659L11.7551 11.3683C11.7958 11.3686 11.8128 11.4206 11.78 11.4447L11.5271 11.6315L11.6219 11.9314C11.6342 11.9702 11.59 12.0023 11.5568 11.9786L11.301 11.7957L11.0451 11.9786C11.012 12.0023 10.9678 11.9702 10.9801 11.9314L11.0749 11.6315L10.822 11.4447C10.7892 11.4206 10.8061 11.3686 10.8468 11.3683L11.1612 11.3659L11.2607 11.0675C11.2737 11.0289 11.3283 11.0289 11.3412 11.0675Z" fill="#F5F5F5"/>
</g>
<defs>
<clipPath id="clip0_5207_127404">
<rect width="24" height="24" rx="4" fill="white"/>
</clipPath>
</defs>
</svg>
