<svg width="24" height="24" viewBox="0 0 24 24" fill="none" xmlns="http://www.w3.org/2000/svg">
<path d="M7.52813 10.8469C7.42619 10.7405 7.35698 10.6071 7.32872 10.4625C7.30047 10.3179 7.31436 10.1682 7.36875 10.0312C7.42468 9.89299 7.52055 9.77455 7.64413 9.69106C7.7677 9.60756 7.91336 9.5628 8.0625 9.5625H11.25V3.75C11.25 3.55109 11.329 3.36032 11.4697 3.21967C11.6103 3.07902 11.8011 3 12 3C12.1989 3 12.3897 3.07902 12.5303 3.21967C12.671 3.36032 12.75 3.55109 12.75 3.75V9.5625H15.9375C16.0866 9.5628 16.2323 9.60756 16.3559 9.69106C16.4794 9.77455 16.5753 9.89299 16.6312 10.0312C16.6856 10.1682 16.6995 10.3179 16.6713 10.4625C16.643 10.6071 16.5738 10.7405 16.4719 10.8469L12.5344 14.7844C12.391 14.923 12.1994 15.0005 12 15.0005C11.8006 15.0005 11.609 14.923 11.4656 14.7844L7.52813 10.8469ZM20.25 13.5C20.0511 13.5 19.8603 13.579 19.7197 13.7197C19.579 13.8603 19.5 14.0511 19.5 14.25V19.5H4.5V14.25C4.5 14.0511 4.42098 13.8603 4.28033 13.7197C4.13968 13.579 3.94891 13.5 3.75 13.5C3.55109 13.5 3.36032 13.579 3.21967 13.7197C3.07902 13.8603 3 14.0511 3 14.25V19.5C3 19.8978 3.15804 20.2794 3.43934 20.5607C3.72064 20.842 4.10218 21 4.5 21H19.5C19.8978 21 20.2794 20.842 20.5607 20.5607C20.842 20.2794 21 19.8978 21 19.5V14.25C21 14.0511 20.921 13.8603 20.7803 13.7197C20.6397 13.579 20.4489 13.5 20.25 13.5Z" fill="white"/>
</svg>
