<svg width="25" height="26" viewBox="0 0 25 26" fill="none" xmlns="http://www.w3.org/2000/svg">
<g clip-path="url(#clip0_2474_723133)">
<path d="M12.4953 1.87695C5.59519 1.87695 0 6.31604 0 11.7941C0 15.3359 2.33759 18.4385 5.85805 20.2L4.59069 24.7571C4.59069 24.7571 4.56722 24.9696 4.70334 25.0499C4.83947 25.1302 5.00376 25.0688 5.00376 25.0688C5.39805 25.0121 9.55689 22.0701 10.2845 21.56C11.0026 21.6639 11.749 21.7159 12.5047 21.7159C19.4048 21.7159 25 17.2768 25 11.7988C25 6.32076 19.3954 1.87695 12.4953 1.87695Z" fill="#3B1D1E"/>
<path d="M5.58574 15.2505C5.18675 15.2505 4.86287 14.9388 4.86287 14.5563V10.2447H3.73632C3.34672 10.2447 3.03223 9.92829 3.03223 9.53633C3.03223 9.14437 3.35142 8.82797 3.73632 8.82797H7.43046C7.82006 8.82797 8.13455 9.14437 8.13455 9.53633C8.13455 9.92829 7.81537 10.2447 7.43046 10.2447H6.30391V14.5563C6.30391 14.9341 5.97534 15.2505 5.58104 15.2505H5.58574ZM11.9085 15.241C11.6081 15.241 11.3781 15.1182 11.3077 14.9199L10.9509 13.9754H8.75416L8.39742 14.9199C8.32701 15.1182 8.097 15.241 7.79659 15.241C7.637 15.241 7.48209 15.208 7.33658 15.1466C7.13944 15.0521 6.94698 14.8018 7.1676 14.1171L8.89028 9.5505C9.01232 9.20104 9.38315 8.84213 9.85254 8.83269C10.3219 8.82324 10.6975 9.20104 10.8148 9.5505L12.5375 14.1171C12.7581 14.8018 12.5656 15.0616 12.3685 15.1466C12.2277 15.2127 12.0681 15.241 11.9085 15.241ZM10.5707 12.6909L9.85254 10.6319L9.13437 12.6909H10.5707ZM13.6969 15.1466C13.3214 15.1466 13.0069 14.8491 13.0069 14.4854V9.5505C13.0069 9.14909 13.3355 8.82324 13.7438 8.82324C14.1522 8.82324 14.4808 9.15381 14.4808 9.5505V13.8101H16.011C16.3865 13.8101 16.701 14.1076 16.701 14.4713C16.701 14.8349 16.3912 15.1324 16.011 15.1324L13.6969 15.1466ZM16.978 14.5138V9.55522C16.978 9.15381 17.3065 8.82797 17.7008 8.82797C18.0951 8.82797 18.4237 9.15854 18.4237 9.55522V11.1136L20.4421 9.08298C20.6643 8.85945 21.0843 8.87904 21.3386 9.13492C21.5776 9.37529 21.6397 9.78157 21.3903 10.0369L19.738 11.6898L21.5123 14.051C21.7507 14.358 21.6929 14.8362 21.3715 15.0616C21.0547 15.2977 20.5892 15.219 20.3623 14.9199L18.6725 12.6673L18.4237 12.9176V14.4996C18.4237 15.4419 16.978 15.4782 16.978 14.5138Z" fill="#FFE812"/>
</g>
<defs>
<clipPath id="clip0_2474_723133">
<rect width="25" height="25" fill="white" transform="translate(0 0.998047)"/>
</clipPath>
</defs>
</svg>
