<svg width="49" height="48" viewBox="0 0 49 48" fill="none" xmlns="http://www.w3.org/2000/svg">
<g clip-path="url(#clip0_1778_126593)">
<path d="M44.559 15.5029C42.9838 13.9257 40.8885 13.0561 38.6593 13.0547C38.6573 13.0547 38.6556 13.0547 38.6535 13.0547C36.4264 13.0547 34.3321 13.9212 32.7563 15.4954L19.3866 28.8479C19.1291 29.105 19.1287 29.5222 19.3859 29.7797C19.643 30.0375 20.0605 30.0375 20.318 29.7803L24.8427 25.2608L34.7753 35.2066L26.8631 43.1085C25.5358 44.434 23.7722 45.1636 21.897 45.1636C21.8952 45.1636 21.8935 45.1636 21.8922 45.1636C20.0149 45.1626 18.2505 44.4303 16.9239 43.1019C15.5973 41.7736 14.8674 40.0083 14.8685 38.131C14.8698 36.2537 15.6021 34.4894 16.9301 33.1628L18.4527 31.6429C18.7102 31.3857 18.7109 30.9686 18.4538 30.7111C18.1966 30.4536 17.7791 30.4533 17.5217 30.7104L15.999 32.2303C14.4218 33.8058 13.5522 35.9008 13.5508 38.1303C13.5494 40.3595 14.416 42.4558 15.9915 44.0334C17.5666 45.6106 19.6619 46.4802 21.8911 46.4816H21.8966C24.1241 46.4816 26.2184 45.6151 27.7942 44.0409L44.5515 27.306C46.1287 25.7305 46.9983 23.6356 46.9997 21.406C47.0011 19.1768 46.1345 17.0805 44.559 15.5029ZM43.62 26.3735L35.7078 34.2755L25.7751 24.3297L33.6873 16.4278C35.0146 15.1023 36.7783 14.3727 38.6539 14.3727H38.6583C40.5356 14.3737 42.3003 15.106 43.6269 16.4344C44.9531 17.7627 45.683 19.528 45.682 21.4053C45.6806 23.2826 44.9483 25.047 43.62 26.3735Z" fill="#23262F"/>
<path d="M16.7897 14.0569C13.4117 10.6789 7.91545 10.6789 4.5375 14.0569C2.90122 15.6932 2 17.8688 2 20.1832C2 22.4971 2.90122 24.6728 4.5375 26.3094C6.22665 27.9982 8.4452 28.8428 10.6637 28.8428C12.8823 28.8428 15.1009 27.9982 16.7897 26.3094C20.1676 22.9315 20.1676 17.4352 16.7897 14.0569ZM5.95714 25.8215L12.8672 18.9115C13.1243 18.654 13.1243 18.2369 12.8672 17.9797C12.6097 17.7226 12.1926 17.7226 11.9354 17.9797L5.02502 24.8901C3.92055 23.5714 3.31802 21.9238 3.31802 20.1832C3.31802 18.2211 4.08191 16.3764 5.46928 14.989C6.90162 13.5567 8.78234 12.8409 10.6637 12.8409C12.3381 12.8409 14.0122 13.4101 15.37 14.5451L13.799 16.1158C13.5418 16.3733 13.5418 16.7904 13.799 17.0479C13.9277 17.1763 14.0963 17.2409 14.2649 17.2409C14.4334 17.2409 14.6023 17.1763 14.7308 17.0479L16.3018 15.4769C18.7119 18.3598 18.5646 22.6705 15.8579 25.3776C13.1508 28.0844 8.84036 28.2313 5.95714 25.8215Z" fill="#23262F"/>
<path d="M18.825 10.1318C20.7216 11.0283 23.2395 11.5453 25.915 11.5879C25.9184 11.5882 25.9219 11.5882 25.9256 11.5882C26.0417 11.5899 26.1574 11.591 26.2731 11.591C28.8154 11.591 31.2094 11.1567 33.0475 10.3588C35.1387 9.45103 36.3033 8.15498 36.3263 6.71028C36.3451 5.532 35.6101 4.4313 34.2004 3.52768C33.8942 3.3313 33.4866 3.42056 33.2899 3.72681C33.0935 4.03305 33.1828 4.44092 33.489 4.6373C34.0631 5.005 35.0233 5.76099 35.0086 6.68934C34.9945 7.57339 34.0885 8.47015 32.5226 9.14993C30.9227 9.84447 28.8374 10.2352 26.5948 10.2695L26.7136 2.84206C28.4992 2.92618 30.1801 3.2338 31.6087 3.7426C31.9516 3.86482 32.3286 3.68595 32.4505 3.34297C32.5727 3.00034 32.3935 2.62337 32.0509 2.50114C30.314 1.88282 28.2479 1.53744 26.076 1.50276C23.4015 1.46088 20.8675 1.89655 18.9431 2.73186C16.852 3.63995 15.6874 4.93565 15.6644 6.38035C15.6414 7.82539 16.7637 9.15749 18.825 10.1318ZM19.4681 3.9407C21.068 3.24615 23.1526 2.85545 25.3959 2.82146L25.2771 10.2482C23.0366 10.1428 20.965 9.68552 19.3881 8.94016C17.8449 8.21095 16.968 7.28535 16.9821 6.40163C16.9962 5.51758 17.9022 4.62082 19.4681 3.9407Z" fill="#23262F"/>
<line x1="24.7806" y1="28.125" x2="31.9982" y2="35.3426" stroke="#23262F" stroke-width="1.36364" stroke-linecap="round"/>
<path d="M42.2287 17.8984C43.5923 18.5803 44.956 22.6712 41.5469 26.0803" stroke="#23262F" stroke-width="1.36364" stroke-linecap="round"/>
</g>
<defs>
<clipPath id="clip0_1778_126593">
<rect width="45" height="45" fill="white" transform="translate(2 1.5)"/>
</clipPath>
</defs>
</svg>
