<svg width="21" height="20" viewBox="0 0 21 20" fill="none" xmlns="http://www.w3.org/2000/svg">
<path d="M11.5703 10.4453L8.28906 13.7266C8.16909 13.8412 8.00971 13.9055 7.84375 13.9062C7.76328 13.9065 7.68358 13.8905 7.60938 13.8594C7.49416 13.8128 7.39546 13.7329 7.32588 13.6299C7.2563 13.5269 7.219 13.4055 7.21875 13.2812V10.625H2.375C2.20924 10.625 2.05027 10.5592 1.93306 10.4419C1.81585 10.3247 1.75 10.1658 1.75 10C1.75 9.83424 1.81585 9.67527 1.93306 9.55806C2.05027 9.44085 2.20924 9.375 2.375 9.375H7.21875V6.71875C7.219 6.59447 7.2563 6.47308 7.32588 6.37011C7.39546 6.26713 7.49416 6.18723 7.60938 6.14062C7.72348 6.0953 7.84821 6.08372 7.96871 6.10727C8.08921 6.13082 8.20041 6.18849 8.28906 6.27344L11.5703 9.55469C11.6877 9.67318 11.7535 9.83322 11.7535 10C11.7535 10.1668 11.6877 10.3268 11.5703 10.4453ZM15.5 2.5H11.125C10.9592 2.5 10.8003 2.56585 10.6831 2.68306C10.5658 2.80027 10.5 2.95924 10.5 3.125C10.5 3.29076 10.5658 3.44973 10.6831 3.56694C10.8003 3.68415 10.9592 3.75 11.125 3.75H15.5V16.25H11.125C10.9592 16.25 10.8003 16.3158 10.6831 16.4331C10.5658 16.5503 10.5 16.7092 10.5 16.875C10.5 17.0408 10.5658 17.1997 10.6831 17.3169C10.8003 17.4342 10.9592 17.5 11.125 17.5H15.5C15.8315 17.5 16.1495 17.3683 16.3839 17.1339C16.6183 16.8995 16.75 16.5815 16.75 16.25V3.75C16.75 3.41848 16.6183 3.10054 16.3839 2.86612C16.1495 2.6317 15.8315 2.5 15.5 2.5Z" fill="white"/>
</svg>
