<svg width="20" height="20" viewBox="0 0 20 20" fill="none" xmlns="http://www.w3.org/2000/svg">
<path d="M18.6877 7.61044C18.6095 7.36433 18.4587 7.1476 18.2552 6.98867C18.0516 6.82974 17.8048 6.73602 17.5471 6.71981L12.9377 6.42294C12.9309 6.42211 12.9244 6.41952 12.9189 6.4154C12.9135 6.41129 12.9092 6.4058 12.9065 6.3995L11.1877 2.06356C11.0949 1.824 10.9319 1.61809 10.7199 1.4729C10.508 1.3277 10.2571 1.25 10.0002 1.25C9.74331 1.25 9.49242 1.3277 9.28048 1.4729C9.06855 1.61809 8.90549 1.824 8.81271 2.06356L7.09396 6.3995C7.09127 6.4058 7.08696 6.41129 7.08148 6.4154C7.07599 6.41952 7.06952 6.42211 7.06271 6.42294L2.45334 6.71981C2.1956 6.73602 1.94879 6.82974 1.74524 6.98867C1.5417 7.1476 1.39093 7.36433 1.31271 7.61044C1.23141 7.85975 1.22666 8.1277 1.29907 8.37974C1.37148 8.63178 1.51773 8.85635 1.71896 9.0245L5.25021 11.962C5.25824 11.97 5.26394 11.9801 5.2667 11.9911C5.26945 12.0021 5.26915 12.0136 5.26584 12.0245L4.21115 16.1729C4.13926 16.4536 4.15292 16.7494 4.25037 17.0222C4.34782 17.2951 4.5246 17.5326 4.75802 17.7042C4.98539 17.8674 5.25628 17.959 5.53602 17.9674C5.81577 17.9757 6.09164 17.9004 6.32834 17.7511L9.9924 15.4307H10.008L13.9533 17.9229C14.1557 18.0545 14.3917 18.125 14.633 18.1261C14.8993 18.1225 15.1581 18.038 15.3752 17.8839C15.5873 17.7301 15.7479 17.5156 15.8358 17.2688C15.9236 17.022 15.9347 16.7543 15.8674 16.5011L14.7346 12.0245C14.7313 12.0136 14.731 12.0021 14.7337 11.9911C14.7365 11.9801 14.7422 11.97 14.7502 11.962L18.2815 9.0245C18.4827 8.85635 18.6289 8.63178 18.7014 8.37974C18.7738 8.1277 18.769 7.85975 18.6877 7.61044ZM17.4846 8.06356L13.9455 11.0011C13.7576 11.1605 13.6184 11.3696 13.5438 11.6045C13.4692 11.8394 13.4622 12.0905 13.5237 12.3292L14.6565 16.8057C14.6643 16.837 14.6643 16.8448 14.6565 16.8526C14.6513 16.8627 14.6431 16.8709 14.633 16.8761H14.6174L10.6799 14.3761C10.4769 14.2469 10.2409 14.1791 10.0002 14.1807V2.50106C10.008 2.50106 10.0158 2.50106 10.0237 2.5245L11.7502 6.86044C11.8382 7.08616 11.9884 7.2823 12.1834 7.42611C12.3784 7.56993 12.6101 7.65551 12.8518 7.67294L17.469 7.96981C17.4768 7.96981 17.4846 7.96981 17.4924 8.00106C17.5002 8.03231 17.4924 8.05575 17.4846 8.06356Z" fill="#FBB912"/>
</svg>
