<svg width="32" height="32" viewBox="0 0 32 32" fill="none" xmlns="http://www.w3.org/2000/svg">
<path d="M2.66797 8.83089C2.66797 5.42612 5.42808 2.66602 8.83284 2.66602H23.1698C26.5745 2.66602 29.3346 5.42612 29.3346 8.83089V23.1678C29.3346 26.5726 26.5745 29.3327 23.1698 29.3327H8.83284C5.42808 29.3327 2.66797 26.5726 2.66797 23.1678V8.83089Z" fill="white"/>
<path d="M19.4326 11.6778C19.3121 11.5547 19.159 11.4928 18.9729 11.4928C18.6993 11.4928 18.4997 11.6242 18.3741 11.8866C18.1059 11.5714 17.7392 11.4141 17.2745 11.4141C16.7165 11.4141 16.2471 11.6294 15.8669 12.0599C15.4869 12.4904 15.2969 13.0156 15.2969 13.6351C15.2969 14.2546 15.4869 14.7796 15.8669 15.2103C16.2471 15.6409 16.7165 15.856 17.2745 15.856C17.7392 15.856 18.1059 15.6986 18.3741 15.3833C18.4997 15.646 18.6993 15.7771 18.9729 15.7771C19.159 15.7771 19.3121 15.7156 19.4326 15.5921C19.5529 15.469 19.6129 15.318 19.6129 15.1393V12.1307C19.6129 11.9523 19.5529 11.8013 19.4326 11.6778ZM18.0992 14.3811C17.9431 14.5821 17.7282 14.6825 17.4549 14.6825C17.1812 14.6825 16.9666 14.5821 16.8107 14.3811C16.655 14.1798 16.5769 13.9312 16.5769 13.635C16.5769 13.3389 16.655 13.0903 16.8107 12.8891C16.9666 12.688 17.1812 12.5876 17.4549 12.5876C17.7282 12.5876 17.9431 12.688 18.0992 12.8891C18.2551 13.0903 18.3331 13.3389 18.3331 13.635C18.3331 13.9311 18.2551 14.1798 18.0992 14.3811Z" fill="#0068FF"/>
<path d="M21.0606 15.5919C20.9402 15.7154 20.7869 15.7769 20.6012 15.7769C20.415 15.7769 20.2618 15.7154 20.1415 15.5919C20.021 15.4687 19.9609 15.3175 19.9609 15.139V9.75504C19.9609 9.5766 20.021 9.42545 20.1415 9.30213C20.2618 9.17871 20.415 9.11719 20.6012 9.11719C20.7869 9.11719 20.9402 9.17871 21.0606 9.30213C21.181 9.42545 21.2411 9.5766 21.2411 9.75504V15.1391C21.2411 15.3175 21.181 15.4687 21.0606 15.5919Z" fill="#0068FF"/>
<path d="M25.3036 12.0599C24.8934 11.6294 24.3709 11.4141 23.7362 11.4141C23.1016 11.4141 22.5835 11.6267 22.1815 12.052C21.7791 12.4773 21.5781 13.0049 21.5781 13.635C21.5781 14.265 21.7791 14.7926 22.1815 15.2179C22.5835 15.6432 23.1016 15.856 23.7362 15.856C24.3709 15.856 24.8934 15.6408 25.3036 15.2103C25.6975 14.7901 25.8945 14.2651 25.8945 13.6351C25.8945 13.0049 25.6976 12.48 25.3036 12.0599ZM24.3805 14.3811C24.2245 14.5821 24.0097 14.6825 23.7362 14.6825C23.4625 14.6825 23.2479 14.5821 23.0922 14.3811C22.9361 14.1798 22.8582 13.9312 22.8582 13.635C22.8582 13.3389 22.9361 13.0903 23.0922 12.8891C23.2479 12.688 23.4625 12.5876 23.7362 12.5876C24.0097 12.5876 24.2245 12.688 24.3805 12.8891C24.5365 13.0903 24.6142 13.3389 24.6142 13.635C24.6142 13.9311 24.5365 14.1798 24.3805 14.3811Z" fill="#0068FF"/>
<path d="M14.5886 11.5625C15.0407 10.979 15.267 10.5859 15.267 10.3836C15.267 9.91564 14.9725 9.68164 14.3834 9.68164H11.276C11.0319 9.68164 10.8431 9.73937 10.7091 9.85466C10.5753 9.97021 10.5083 10.12 10.5083 10.3045C10.5083 10.4893 10.5753 10.6392 10.7091 10.7546C10.8431 10.87 11.0319 10.9276 11.276 10.9276H13.4101L10.6779 14.4578C10.4994 14.6888 10.4102 14.8935 10.4102 15.0724C10.4102 15.5856 10.7495 15.8422 11.4279 15.8422H14.6332C15.1453 15.8422 15.4011 15.6273 15.4011 15.1974C15.4011 14.7677 15.1453 14.5528 14.6332 14.5528H12.2762L14.5886 11.5625Z" fill="#0068FF"/>
<path d="M13.2468 19.168H12.4492V20.8257H13.2468C13.4864 20.8257 13.6807 20.7474 13.8292 20.5911C13.9778 20.4347 14.052 20.2367 14.052 19.9968C14.052 19.7571 13.9777 19.5589 13.8292 19.4026C13.6807 19.2462 13.4863 19.168 13.2468 19.168Z" fill="#32B34A"/>
<path d="M17.2261 20.7266C16.973 20.7266 16.7745 20.8194 16.6303 21.0054C16.4862 21.1915 16.4141 21.4213 16.4141 21.6953C16.4141 21.9693 16.4862 22.1992 16.6303 22.3854C16.7745 22.5712 16.973 22.6641 17.2261 22.6641C17.479 22.6641 17.6778 22.5712 17.822 22.3854C17.9664 22.1992 18.0384 21.9693 18.0384 21.6953C18.0384 21.4213 17.9664 21.1915 17.822 21.0054C17.6778 20.8193 17.479 20.7266 17.2261 20.7266Z" fill="#32B34A"/>
<path d="M22.8582 16.7988H11.2961C10.9103 16.7988 10.5977 17.1116 10.5977 17.4973V24.2724C10.5977 24.6581 10.9104 24.9709 11.2961 24.9709H20.4236C20.3273 24.8796 20.279 24.7728 20.279 24.6504C20.279 24.5505 20.3014 24.4456 20.3463 24.336L20.7768 23.3786L19.5864 20.4062C19.5514 20.3214 19.5341 20.2291 19.5341 20.1292C19.5341 19.9994 19.5889 19.8895 19.6987 19.7997C19.8086 19.7099 19.9233 19.665 20.0432 19.665C20.3077 19.665 20.4875 19.7922 20.5823 20.0468L21.3234 22.0758L22.1171 20.0468C22.2169 19.7922 22.3965 19.665 22.6562 19.665C22.7759 19.665 22.8907 19.7099 23.0006 19.7997C23.1102 19.8895 23.1653 19.9994 23.1653 20.1292C23.1653 20.2291 23.1477 20.3214 23.1128 20.4062L21.3497 24.6878C21.3015 24.8074 21.2433 24.9016 21.1757 24.9709H22.8583C23.2441 24.9709 23.5568 24.6581 23.5568 24.2724V17.4973C23.5566 17.1116 23.244 16.7988 22.8582 16.7988ZM14.6918 21.3572C14.3268 21.6909 13.8682 21.8577 13.3157 21.8577H12.4478V23.1399C12.4478 23.3329 12.3931 23.4827 12.2836 23.5895C12.1741 23.6964 12.0333 23.7498 11.8615 23.7498C11.6894 23.7498 11.5486 23.6964 11.4392 23.5895C11.3297 23.4827 11.275 23.3329 11.275 23.1399V18.7457C11.275 18.3391 11.4783 18.1358 11.8849 18.1358H13.269C13.8475 18.1358 14.3257 18.3092 14.7038 18.6557C15.0815 19.0025 15.2705 19.4521 15.2705 20.0045C15.2703 20.5624 15.0774 21.0131 14.6918 21.3572ZM19.2205 23.0869C19.2205 23.2521 19.1649 23.3918 19.0537 23.5057C18.9422 23.6199 18.8005 23.6768 18.6285 23.6768C18.3754 23.6768 18.1907 23.5557 18.0746 23.3125C17.8264 23.6042 17.4873 23.7497 17.0574 23.7497C16.5413 23.7497 16.1072 23.5508 15.7556 23.1525C15.404 22.7543 15.2283 22.2685 15.2283 21.6954C15.2283 21.1226 15.4041 20.6367 15.7556 20.2386C16.1073 19.8405 16.5414 19.6413 17.0574 19.6413C17.4873 19.6413 17.8264 19.7868 18.0746 20.0783C18.1907 19.8357 18.3754 19.7142 18.6285 19.7142C18.8005 19.7142 18.9421 19.7714 19.0537 19.8852C19.1649 19.9996 19.2205 20.1391 19.2205 20.3042V23.0869Z" fill="#32B34A"/>
<path fill-rule="evenodd" clip-rule="evenodd" d="M8.83284 2.66602C5.42808 2.66602 2.66797 5.42612 2.66797 8.83089V23.1678C2.66797 26.2943 4.99542 28.8773 8.01225 29.2785L5.24733 10.2595C5.01951 8.69241 6.10523 7.23731 7.67237 7.00948L27.2049 4.16992C26.1236 3.23296 24.7129 2.66602 23.1698 2.66602H8.83284Z" fill="#0068FF"/>
</svg>
