<svg width="16" height="16" viewBox="0 0 16 16" fill="none" xmlns="http://www.w3.org/2000/svg">
<path fill-rule="evenodd" clip-rule="evenodd" d="M3.69824 7.06954C3.69824 6.87688 3.85442 6.7207 4.04708 6.7207H11.954C12.1466 6.7207 12.3028 6.87688 12.3028 7.06954V12.6509C12.3028 12.8435 12.1466 12.9997 11.954 12.9997H4.04708C3.85442 12.9997 3.69824 12.8435 3.69824 12.6509V7.06954ZM4.39591 7.41837V12.302H11.6051V7.41837H4.39591Z" fill="#76A148" stroke="#76A148" stroke-width="0.2" stroke-linecap="round" stroke-linejoin="round"/>
<path fill-rule="evenodd" clip-rule="evenodd" d="M8.0002 6.7207C8.19286 6.7207 8.34903 6.87688 8.34903 7.06954V12.6509C8.34903 12.8435 8.19286 12.9997 8.0002 12.9997C7.80755 12.9997 7.65137 12.8435 7.65137 12.6509V7.06954C7.65137 6.87688 7.80755 6.7207 8.0002 6.7207Z" fill="#76A148" stroke="#76A148" stroke-width="0.2" stroke-linecap="round" stroke-linejoin="round"/>
<path fill-rule="evenodd" clip-rule="evenodd" d="M3.69824 12.6511C3.69824 12.4584 3.85442 12.3022 4.04708 12.3022H11.954C12.1466 12.3022 12.3028 12.4584 12.3028 12.6511C12.3028 12.8437 12.1466 12.9999 11.954 12.9999H4.04708C3.85442 12.9999 3.69824 12.8437 3.69824 12.6511Z" fill="#76A148" stroke="#76A148" stroke-width="0.2" stroke-linecap="round" stroke-linejoin="round"/>
<path fill-rule="evenodd" clip-rule="evenodd" d="M3 5.20918C3 5.01653 3.15618 4.86035 3.34883 4.86035H12.6511C12.8437 4.86035 12.9999 5.01653 12.9999 5.20918V7.06963C12.9999 7.26228 12.8437 7.41846 12.6511 7.41846H3.34883C3.15618 7.41846 3 7.26228 3 7.06963V5.20918ZM3.69767 5.55802V6.7208H12.3022V5.55802H3.69767Z" fill="#76A148" stroke="#76A148" stroke-width="0.2" stroke-linejoin="round"/>
<path fill-rule="evenodd" clip-rule="evenodd" d="M5.89319 3.10217C6.02941 2.96594 6.25028 2.96594 6.38651 3.10217L8.00029 4.71595L9.61407 3.10217C9.7503 2.96594 9.97117 2.96594 10.1074 3.10217C10.2436 3.2384 10.2436 3.45927 10.1074 3.5955L8.24696 5.45594C8.11073 5.59217 7.88986 5.59217 7.75363 5.45594L5.89319 3.5955C5.75696 3.45927 5.75696 3.2384 5.89319 3.10217Z" fill="#76A148" stroke="#76A148" stroke-width="0.2" stroke-linecap="round" stroke-linejoin="round"/>
</svg>
