<svg width="48" height="24" viewBox="0 0 48 24" fill="none" xmlns="http://www.w3.org/2000/svg">
<path d="M35.6128 7.05276V2.01136H36.6346V6.3474C36.3423 6.48377 35.9611 6.75731 35.6128 7.05276ZM33.8391 8.56656C34.1538 8.17938 34.4789 7.80438 34.8609 7.47403V2H33.8391V8.56575V8.56656ZM22.0286 12.5722C22.0286 13.9148 22.5563 15.1899 23.522 16.168C24.4765 17.1356 25.7449 17.6818 27.0694 17.6818C27.6307 17.6818 28.2145 17.5682 28.6189 17.3515V16.3157C28.136 16.5203 27.5635 16.6461 27.0694 16.6461C24.8913 16.6461 23.0504 14.7914 23.0504 12.5722V11.6388C23.0504 9.43101 24.8913 7.56493 27.0694 7.56493C28.1472 7.56493 29.1578 7.9862 29.9209 8.74838C30.6729 9.51055 31.0885 10.5349 31.0885 11.6388V17.681H32.1102V11.4448C32.043 10.125 31.4928 8.8961 30.5495 7.97403C29.595 7.05195 28.3715 6.54058 27.0806 6.54058C25.7898 6.54058 24.4982 7.07549 23.5332 8.05438C22.5787 9.02192 22.0398 10.3076 22.0398 11.6502L22.0286 12.5722ZM37.2856 10.0917C37.746 9.625 38.341 9.36364 38.936 9.36364C40.1932 9.36364 41.1813 10.3653 41.1813 11.6396V12.5731C41.1813 13.8474 40.1932 14.849 38.936 14.849C38.3298 14.849 37.7348 14.5073 37.2744 13.8929C36.87 13.358 36.6009 12.6185 36.5561 11.9586L35.7369 12.9943C35.9051 13.7679 36.2982 14.5308 36.8708 15.0544C37.4545 15.5893 38.1953 15.8961 38.9368 15.8961C40.7441 15.8961 42.2039 14.405 42.2039 12.5844V11.651C42.2039 10.7865 41.8555 9.95536 41.2269 9.32955C40.5983 8.69237 39.7784 8.33929 38.9255 8.33929C38.3866 8.33929 37.5338 8.53247 36.512 9.46591C36.243 9.73864 35.5912 10.3994 35.1988 10.8539C34.5366 11.582 33.5933 12.6745 32.7741 13.7784V15.3945C33.6725 14.2224 34.1882 13.5625 35.053 12.5609C35.8162 11.6615 36.7595 10.5698 37.2872 10.0917H37.2856ZM13.205 8.1461V6.91721C12.2841 6.4164 11.2743 6.18912 9.93783 6.18912C8.60136 6.18912 7.27689 6.7013 6.30076 7.6112C5.31261 8.53328 4.7737 9.73945 4.7737 11.0252V11.3555C4.7737 14.03 6.88451 16.1916 9.4886 16.1916C11.5994 16.1916 12.4634 15.4976 12.6885 15.2695V12.1631H9.23076V13.1989H11.7227V14.7581H11.7115C11.3856 14.8831 10.7234 15.1567 9.47739 15.1567C8.48925 15.1567 7.55796 14.7695 6.86129 14.0528C6.16543 13.336 5.78346 12.3799 5.78346 11.3555V11.0365C5.78346 8.97646 7.68047 7.22403 9.92582 7.22403C11.4865 7.23539 12.4178 7.49675 13.2042 8.1461H13.205ZM20.6369 9.36364C21.0188 9.36364 21.3551 9.43182 21.6138 9.55682C21.7371 9.23782 21.8716 8.9651 22.063 8.6461C21.794 8.45292 21.1197 8.31575 20.6369 8.31575C18.7735 8.31575 17.3697 9.73782 17.3697 11.6274V17.6696H18.3915V11.6274C18.3915 10.2963 19.3124 9.36282 20.6369 9.36282V9.36364ZM3 11.0357V11.3661C3 13.164 3.67344 14.8369 4.8858 16.0771C6.09816 17.3174 7.73733 18 9.47739 18C10.8803 18 12.1159 17.681 13.1705 17.0438C14.0354 16.5203 14.4165 15.9968 14.4501 15.9513V10.3864H9.22996V11.4221H13.4284V15.6437C12.9343 16.1445 11.7668 16.9748 9.4878 16.9748C7.99437 16.9748 6.61386 16.3945 5.60329 15.3474C4.59272 14.3117 4.03139 12.8896 4.03139 11.3758V11.0455C4.03139 9.61201 4.6712 8.17776 5.78266 7.11932C6.91654 6.03815 8.39876 5.44643 9.95865 5.44643C11.4072 5.44643 12.417 5.6737 13.2258 6.17451V5.00244C12.3842 4.63799 11.3624 4.4789 9.95865 4.4789C6.17744 4.48052 3 7.48458 3 11.0357ZM30.3253 17.6818V11.6396C30.3253 9.7849 28.888 8.32792 27.0582 8.32792C26.2054 8.32792 25.3854 8.68101 24.7568 9.31818C24.1282 9.95536 23.7799 10.7865 23.7799 11.6396V12.5731C23.7799 14.3709 25.2733 15.8847 27.047 15.8847C27.5299 15.8847 28.1921 15.7711 28.5965 15.418V14.3369C28.1921 14.6672 27.6195 14.849 27.047 14.849C25.7898 14.849 24.8016 13.8474 24.8016 12.5731V11.6396C24.8016 10.3653 25.7898 9.36364 27.047 9.36364C28.3042 9.36364 29.2923 10.3653 29.2923 11.6396V17.6818H30.3253ZM20.6369 7.56493C21.3215 7.56493 21.9277 7.71266 22.4666 8.03166C22.7132 7.7013 22.9719 7.4513 23.1737 7.25812C22.6011 6.81412 21.6242 6.5414 20.6369 6.5414C19.2227 6.5414 17.9311 7.05357 17.011 8.00974C16.1013 8.94318 15.5968 10.2403 15.5968 11.6623V17.7045H16.6186V11.6623C16.6186 9.25 18.269 7.56575 20.6377 7.56575L20.6369 7.56493ZM42.4833 8.04302C41.5288 7.07549 40.2604 6.52922 38.936 6.52922C37.959 6.52922 36.9941 6.89367 36.4552 7.2573C35.3437 8.00812 34.4341 8.82792 32.7845 10.9781V12.526C34.1762 10.6826 35.5015 9.23701 36.5008 8.42938C37.1631 7.89448 38.0952 7.56493 38.9368 7.56493C41.1148 7.56493 42.9558 9.43101 42.9558 11.6388V12.5722C42.9558 13.6648 42.529 14.6891 41.7659 15.4627C41.0027 16.2248 40.0034 16.6461 38.948 16.6461C37.1631 16.6461 35.58 15.3945 35.1644 13.7102L34.4461 14.5982C34.9738 16.3734 36.8708 17.6932 38.9592 17.6932C40.2949 17.6932 41.5416 17.1583 42.5066 16.1794C43.4611 15.2005 44 13.9261 44 12.5836V11.6502C43.9776 10.2963 43.4499 9.00974 42.4841 8.04302H42.4833Z" fill="#00B45E"/>
</svg>
