<svg width="64" height="64" viewBox="0 0 64 64" fill="none" xmlns="http://www.w3.org/2000/svg">
<path d="M51.5358 15.4071C53.3334 18.0975 53.3334 21.8427 53.3334 29.3332C53.3334 36.8236 53.3334 40.5689 51.5358 43.2592C50.7575 44.4239 49.7575 45.424 48.5928 46.2022C46.2426 47.7726 43.0873 47.9711 37.3334 47.9962V47.9998L34.3852 53.8962C33.4025 55.8617 30.5977 55.8617 29.6149 53.8962L26.6667 47.9998V47.9962C20.9129 47.9711 17.7576 47.7726 15.4073 46.2022C14.2426 45.424 13.2426 44.4239 12.4644 43.2592C10.6667 40.5689 10.6667 36.8236 10.6667 29.3332C10.6667 21.8427 10.6667 18.0975 12.4644 15.4071C13.2426 14.2424 14.2426 13.2424 15.4073 12.4642C18.0977 10.6665 21.8429 10.6665 29.3334 10.6665H34.6667C42.1572 10.6665 45.9024 10.6665 48.5928 12.4642C49.7575 13.2424 50.7575 14.2424 51.5358 15.4071Z" stroke="white" stroke-width="2" stroke-linecap="round" stroke-linejoin="round"/>
<path d="M29.1135 20.7847C28.9456 19.0788 30.2858 17.6001 32 17.6001C33.7143 17.6001 35.0545 19.0788 34.8866 20.7847L33.7568 32.2659C33.6678 33.1694 32.908 33.8582 32 33.8582C31.0921 33.8582 30.3323 33.1694 30.2433 32.2659L29.1135 20.7847Z" fill="white"/>
<ellipse cx="31.9998" cy="39.4324" rx="1.92" ry="2.16774" fill="white"/>
</svg>
