<svg width="56" height="56" viewBox="0 0 56 56" fill="none" xmlns="http://www.w3.org/2000/svg">
<g clip-path="url(#clip0_869_13890)">
<path d="M41.3327 42.166H45.4994" stroke="#DA291C" stroke-width="1.3" stroke-miterlimit="10" stroke-linecap="round"/>
<path d="M41.3327 37.166H45.4994" stroke="#DA291C" stroke-width="1.3" stroke-miterlimit="10" stroke-linecap="round"/>
<path d="M17.1667 21.334V15.5007C17.1667 11.8173 20.15 8.83398 23.8334 8.83398C27.5167 8.83398 30.5 11.8173 30.5 15.5007V21.334" stroke="#141416" stroke-width="1.5" stroke-miterlimit="10" stroke-linecap="round"/>
<path d="M44.6673 27.166H26.334C25.8738 27.166 25.5007 27.5391 25.5007 27.9993V46.3327C25.5007 46.7929 25.8738 47.166 26.334 47.166H44.6673C45.1276 47.166 45.5007 46.7929 45.5007 46.3327V27.9993C45.5007 27.5391 45.1276 27.166 44.6673 27.166Z" stroke="#141416" stroke-width="1.5" stroke-linecap="round" stroke-linejoin="round"/>
<path d="M22.1673 47.1667H13.0007C11.6173 47.1667 10.5007 46.05 10.5007 44.6667V19.6667C10.5007 18.75 11.2507 18 12.1673 18H35.5007C36.4173 18 37.1673 18.75 37.1673 19.6667V27.1667" stroke="#141416" stroke-width="1.5" stroke-miterlimit="10" stroke-linecap="round"/>
<path d="M28.8327 42.166H37.166" stroke="#DA291C" stroke-width="1.3" stroke-miterlimit="10" stroke-linecap="round"/>
<path d="M28.8327 37.166H37.166" stroke="#DA291C" stroke-width="1.3" stroke-miterlimit="10" stroke-linecap="round"/>
<path d="M10.8327 42.166H19.166" stroke="#141416" stroke-width="1.3" stroke-miterlimit="10" stroke-linecap="round"/>
</g>
<defs>
<clipPath id="clip0_869_13890">
<rect width="36.6667" height="40" fill="white" transform="translate(9.66669 8)"/>
</clipPath>
</defs>
</svg>
