<svg width="32" height="32" viewBox="0 0 32 32" fill="none" xmlns="http://www.w3.org/2000/svg">
<g clip-path="url(#clip0_3151_672496)">
<path d="M6.81784 29.0883C13.194 33.5501 21.8049 32.802 27.2971 27.3144C27.9571 26.655 28.5631 25.93 29.1034 25.1626C31.5543 21.6649 32.4961 17.4229 31.755 13.2156C31.014 9.00835 28.675 5.34483 25.1743 2.89605C18.7982 -1.56573 10.1873 -0.817601 4.69503 4.66997C4.03503 5.32941 3.42907 6.0544 2.88872 6.82181C-2.17128 14.0447 -0.411284 24.0327 6.81784 29.0922V29.0883Z" fill="url(#paint0_linear_3151_672496)"/>
<path d="M8.65321 26.4683C13.7539 30.0377 20.6422 29.4392 25.0358 25.0492C25.5638 24.5216 26.0485 23.9416 26.4808 23.3277C28.4414 20.5295 29.1947 17.136 28.6019 13.7702C28.0091 10.4043 26.138 7.47352 23.3376 5.5145C18.237 1.94507 11.3486 2.54358 6.95505 6.93363C6.42708 7.46118 5.94233 8.04117 5.51007 8.6551C1.46228 14.4334 2.87021 22.4238 8.65321 26.4714V26.4683Z" fill="white"/>
<path d="M15.9815 8.60156C18.2487 8.60156 19.3864 9.81902 19.3864 12.2622V14.1837C19.3864 16.6186 18.2487 17.836 15.9815 17.836H14.9007V23.4016H12.6172V8.60156H15.9815ZM14.9007 10.7135V15.7241H15.9815C16.721 15.7241 17.0948 15.2603 17.0948 14.3244V12.1049C17.0948 11.1773 16.721 10.7135 15.9815 10.7135H14.9007Z" fill="url(#paint1_linear_3151_672496)"/>
</g>
<defs>
<linearGradient id="paint0_linear_3151_672496" x1="4.69276" y1="4.68449" x2="27.3119" y2="27.3084" gradientUnits="userSpaceOnUse">
<stop stop-color="#607A80"/>
<stop offset="0.3" stop-color="#B1BDB9"/>
<stop offset="0.5" stop-color="#D5E7DD"/>
<stop offset="0.7" stop-color="#B1BDB8"/>
<stop offset="1" stop-color="#61867F"/>
</linearGradient>
<linearGradient id="paint1_linear_3151_672496" x1="11.2871" y1="8.60156" x2="21.6049" y2="12.315" gradientUnits="userSpaceOnUse">
<stop stop-color="#607A80"/>
<stop offset="0.3" stop-color="#B1BDB9"/>
<stop offset="0.5" stop-color="#D5E7DD"/>
<stop offset="0.7" stop-color="#B1BDB8"/>
<stop offset="1" stop-color="#61867F"/>
</linearGradient>
<clipPath id="clip0_3151_672496">
<rect width="32" height="32" fill="white"/>
</clipPath>
</defs>
</svg>
