<svg width="57" height="56" viewBox="0 0 57 56" fill="none" xmlns="http://www.w3.org/2000/svg">
<g clip-path="url(#clip0_1778_126675)">
<g clip-path="url(#clip1_1778_126675)">
<path d="M6.83972 28.0848H7.6539L9.12461 48.7029C9.15307 49.1023 9.48584 49.4115 9.88621 49.4104H28.927C29.3274 49.4114 29.6602 49.1022 29.6886 48.7029L31.1593 28.0848H31.9735C32.3941 28.0848 32.7351 27.7438 32.7351 27.3232V24.2767C32.7343 22.5942 31.3696 21.2308 29.6871 21.2316C29.5833 21.2317 29.4795 21.237 29.3763 21.2477C28.5476 19.3178 26.3114 18.4253 24.3815 19.254C23.9198 19.4522 23.5021 19.74 23.1523 20.1006C22.782 19.9343 22.3907 19.819 21.9893 19.7579C21.6586 18.3888 20.4342 17.4237 19.0258 17.4219C18.6742 17.4214 18.3252 17.4822 17.9945 17.6017C16.4192 15.64 13.552 15.3268 11.5904 16.9021C10.7021 17.6154 10.1133 18.6357 9.9402 19.7617C7.71823 20.1128 6.08086 22.0269 6.07812 24.2766V27.3231C6.07812 27.7438 6.41912 28.0848 6.83972 28.0848ZM28.218 47.8872H10.5953L10.4864 46.3639H28.3268L28.218 47.8872ZM28.4358 44.8406H10.3775L9.18099 28.0848H12.21C12.4192 29.1153 13.4244 29.7812 14.4548 29.5718C15.2042 29.4197 15.7897 28.8341 15.9419 28.0848H29.6322L28.4358 44.8406ZM31.212 26.5615H15.9794V25.0382H31.212V26.5615ZM10.6479 21.23C11.0685 21.23 11.4095 20.889 11.4095 20.4684C11.4032 18.7917 12.7574 17.4275 14.4341 17.4213C15.5321 17.4172 16.5467 18.0064 17.0875 18.9619C17.2984 19.3259 17.7644 19.45 18.1283 19.2392C18.1457 19.2292 18.1625 19.2185 18.179 19.2071C18.428 19.0355 18.7235 18.9442 19.0259 18.9451C19.8672 18.9451 20.5492 19.6271 20.5492 20.4684C20.5492 20.889 20.8902 21.23 21.3108 21.23C21.8853 21.2292 22.4476 21.3953 22.9293 21.7083C23.2791 21.9356 23.7467 21.8392 23.9781 21.492C24.6767 20.4412 26.095 20.1557 27.1459 20.8544C27.6492 21.189 27.9994 21.7094 28.1198 22.3016C28.203 22.7139 28.6047 22.9807 29.017 22.8975C29.0586 22.8891 29.0993 22.8773 29.1389 22.8622C29.8371 22.5723 30.6414 22.8533 31.0072 23.5149H15.2177C14.7971 23.5149 14.4561 23.8559 14.4561 24.2765V27.7038C14.4561 27.9141 14.2855 28.0847 14.0752 28.0847C13.8649 28.0847 13.6944 27.9141 13.6944 27.7038V24.2765C13.6944 23.8559 13.3534 23.5149 12.9328 23.5149H7.69808C8.04685 22.1708 9.25928 21.2317 10.6479 21.23ZM7.60141 25.0382H12.1712V26.5615H7.60141V25.0382Z" fill="#23262F"/>
<path d="M31.2109 41.0311C31.216 45.656 34.964 49.404 39.5889 49.409H49.4901C49.9107 49.4092 50.2519 49.0684 50.2521 48.6478C50.2522 48.4163 50.1469 48.1972 49.9661 48.0526L49.727 47.8614C47.6467 46.2057 46.4374 43.6899 46.4436 41.0312C46.4411 38.929 44.7376 37.2255 42.6355 37.223V34.9381C42.6355 34.5175 42.2945 34.1765 41.8739 34.1765H41.1123V7.51926C41.1123 6.25735 40.0893 5.23438 38.8274 5.23438C37.5655 5.23438 36.5425 6.25735 36.5425 7.51926V34.1763H35.7809C35.3603 34.1763 35.0193 34.5173 35.0193 34.9379V37.2228C32.917 37.2254 31.2134 38.9289 31.2109 41.0311ZM38.0656 7.51926C38.0656 7.09866 38.4066 6.75766 38.8272 6.75766C39.2478 6.75766 39.5888 7.09866 39.5888 7.51926V34.1763H38.0655V7.51926H38.0656ZM36.5423 35.6996H41.1121V37.2229H36.5423V35.6996ZM35.019 38.7462H42.6354C43.8973 38.7462 44.9203 39.7692 44.9203 41.0311C44.9138 43.5616 45.8472 46.0043 47.5395 47.8857H39.5889C35.8049 47.8815 32.7384 44.815 32.7342 41.0311C32.7341 39.7692 33.7571 38.7462 35.019 38.7462Z" fill="#23262F"/>
<line x1="43.8422" y1="44.4234" x2="36.7172" y2="44.4234" stroke="#23262F" stroke-width="1.425" stroke-linecap="round"/>
<line x1="39.5648" y1="41.5719" x2="35.2898" y2="41.5719" stroke="#23262F" stroke-width="1.425" stroke-linecap="round"/>
<path d="M19.1916 41.4339C21.7115 41.4339 23.7543 39.3912 23.7543 36.8713C23.7543 34.3514 21.7115 32.3086 19.1916 32.3086C16.6717 32.3086 14.6289 34.3514 14.6289 36.8713C14.6289 39.3912 16.6717 41.4339 19.1916 41.4339Z" stroke="#23262F" stroke-width="1.425" stroke-miterlimit="10"/>
</g>
</g>
<defs>
<clipPath id="clip0_1778_126675">
<rect width="45.6" height="45.6" fill="white" transform="translate(5.36719 5.19922)"/>
</clipPath>
<clipPath id="clip1_1778_126675">
<rect width="44.175" height="44.175" fill="white" transform="translate(6.07812 5.23438)"/>
</clipPath>
</defs>
</svg>
