<svg width="56" height="56" viewBox="0 0 56 56" fill="none" xmlns="http://www.w3.org/2000/svg">
<g clip-path="url(#clip0_1377_27785)">
<path d="M41.3359 42.166H45.5026" stroke="#DA291C" stroke-width="1.3" stroke-miterlimit="10" stroke-linecap="round"/>
<path d="M41.3359 37.166H45.5026" stroke="#DA291C" stroke-width="1.3" stroke-miterlimit="10" stroke-linecap="round"/>
<path d="M17.168 21.334V15.5007C17.168 11.8173 20.1513 8.83398 23.8346 8.83398C27.518 8.83398 30.5013 11.8173 30.5013 15.5007V21.334" stroke="#141416" stroke-width="1.5" stroke-miterlimit="10" stroke-linecap="round"/>
<path d="M44.6667 27.166H26.3333C25.8731 27.166 25.5 27.5391 25.5 27.9993V46.3327C25.5 46.7929 25.8731 47.166 26.3333 47.166H44.6667C45.1269 47.166 45.5 46.7929 45.5 46.3327V27.9993C45.5 27.5391 45.1269 27.166 44.6667 27.166Z" stroke="#141416" stroke-width="1.5" stroke-linecap="round" stroke-linejoin="round"/>
<path d="M22.1667 47.1667H13C11.6167 47.1667 10.5 46.05 10.5 44.6667V19.6667C10.5 18.75 11.25 18 12.1667 18H35.5C36.4167 18 37.1667 18.75 37.1667 19.6667V27.1667" stroke="#141416" stroke-width="1.5" stroke-miterlimit="10" stroke-linecap="round"/>
<path d="M28.8359 42.166H37.1693" stroke="#DA291C" stroke-width="1.3" stroke-miterlimit="10" stroke-linecap="round"/>
<path d="M28.8359 37.166H37.1693" stroke="#DA291C" stroke-width="1.3" stroke-miterlimit="10" stroke-linecap="round"/>
<path d="M10.8359 42.166H19.1693" stroke="#141416" stroke-width="1.3" stroke-miterlimit="10" stroke-linecap="round"/>
</g>
<defs>
<clipPath id="clip0_1377_27785">
<rect width="36.6667" height="40" fill="white" transform="translate(9.66797 8)"/>
</clipPath>
</defs>
</svg>
