<svg width="36" height="22" viewBox="0 0 36 22" fill="none" xmlns="http://www.w3.org/2000/svg">
<path d="M0 19.3329V2.55111C0.0549576 2.54298 0.0568205 2.49965 0.0633409 2.45992C0.202132 1.59957 0.666943 0.9586 1.41027 0.470196C1.8993 0.148806 2.44235 0.0197079 2.99752 0.0169996C7.1715 0.000749493 11.3455 0.00706896 15.5195 0.00706896C17.007 0.00706896 18.4937 0.0106801 19.9813 0.0124856C19.9757 0.089222 20.0409 0.122625 20.0856 0.165958C21.1801 1.23666 22.2755 2.30735 23.3747 3.37444C23.4659 3.46291 23.4632 3.51076 23.3719 3.59472C23.0375 3.90257 22.7077 4.21583 22.3817 4.53271C22.1917 4.71778 22.1982 4.96514 22.3845 5.15202C22.5298 5.29827 22.7124 5.38584 22.9071 5.44542C23.4156 5.6007 23.927 5.74605 24.4356 5.89862C24.4915 5.91577 24.5679 5.91216 24.5949 5.99612C24.5055 6.01237 24.4235 6.02772 24.3425 6.04306C23.7547 6.15501 23.193 6.32202 22.7338 6.72195C22.6649 6.78154 22.636 6.84202 22.6369 6.9305C22.6444 7.80619 22.6993 8.68009 22.7645 9.55398C22.7804 9.55398 22.7878 9.55669 22.7906 9.55398C22.813 9.53502 22.8353 9.51516 22.8558 9.4944C23.3626 8.96537 23.9447 8.53564 24.6173 8.22057C25.4472 7.83147 26.3405 7.66175 27.2357 7.49383C27.3344 7.47487 27.3745 7.52092 27.4173 7.59223C27.5608 7.83237 27.7508 8.0337 28.0013 8.16911C28.1299 8.23863 28.1522 8.32078 28.1243 8.45259C28.0162 8.96266 27.911 9.47363 27.7582 9.97377C27.4704 10.9163 26.9804 11.7432 26.2567 12.4366C26.1738 12.516 26.0741 12.5819 26.008 12.6957C26.9376 12.7778 27.8542 12.8067 28.7717 12.8284C28.8481 12.8302 28.9002 12.8049 28.9393 12.7516C29.1936 12.4077 29.4191 12.0493 29.5225 11.6322C29.5811 11.3984 29.637 11.1636 29.6948 10.9298C29.7768 11.0743 29.8271 11.2205 29.8764 11.3677C30.0366 11.8416 30.1363 12.3345 30.3412 12.7959C30.5303 13.2229 30.9718 13.3592 31.2886 12.9882C31.5587 12.6713 31.8782 12.3941 32.1707 12.0944C32.2461 12.0168 32.2964 12.0186 32.3672 12.0944C32.4725 12.2054 32.587 12.3084 32.696 12.4167C33.4086 13.1209 34.1482 13.7998 34.8468 14.5175C35.2148 14.8948 35.6144 15.2415 36 15.6026V19.4403C35.9367 19.462 35.9618 19.518 35.9534 19.5595C35.7178 20.7178 35.0359 21.5014 33.8744 21.8769C33.4636 22.0096 33.0369 22.0006 32.6113 22.0006C25.953 21.9988 19.2948 21.9997 12.6365 21.9997C9.42755 21.9997 6.21859 21.9997 3.00869 21.9997C1.57607 21.9997 0.36421 21.0365 0.0847651 19.6787C0.061478 19.564 0.0745187 19.4403 0.00279445 19.3365L0 19.3329ZM6.97868 10.2509C6.97868 10.4613 6.98799 10.6481 6.97682 10.8332C6.94142 11.4372 6.5651 11.8552 5.99224 11.9265C5.57959 11.9779 5.17905 11.9238 4.79621 11.7631C4.55403 11.662 4.55496 11.6602 4.48696 11.894C4.47578 11.9328 4.4674 11.9752 4.44597 12.0086C4.35283 12.1603 4.43759 12.2244 4.57266 12.2786C5.19489 12.5232 5.83016 12.5639 6.47381 12.3851C7.02432 12.2316 7.39505 11.8859 7.55713 11.3451C7.64283 11.0589 7.67543 10.7655 7.67636 10.4667C7.68195 9.49078 7.65773 8.51397 7.6922 7.53807C7.70896 7.07043 7.71362 7.07404 7.23577 7.08036C7.12306 7.08216 7.07742 7.10834 7.07928 7.22571C7.08114 7.35841 7.083 7.49564 7.02898 7.64099C6.96471 7.53085 6.8995 7.44869 6.82126 7.37557C6.17015 6.7707 4.9555 6.94584 4.44318 7.70418C4.06872 8.25758 3.9793 8.85613 4.10412 9.48717C4.21403 10.0442 4.51304 10.4965 5.06914 10.7168C5.8078 11.0093 6.38439 10.8567 6.97682 10.2509H6.97868ZM17.1216 16.834C17.1263 16.9243 17.1272 16.9739 17.1309 17.0236C17.144 17.1789 17.0732 17.3946 17.1747 17.4741C17.2725 17.5508 17.4849 17.4867 17.646 17.4939C17.7522 17.4994 17.7941 17.4741 17.783 17.3603C17.7643 17.1698 17.7587 16.9775 17.7587 16.7862C17.7569 15.3444 17.7587 13.9027 17.7541 12.4609C17.7541 12.2948 17.8323 12.0763 17.7187 11.9761C17.6088 11.8795 17.3862 11.9617 17.2138 11.9463C17.0722 11.9337 17.048 11.9924 17.049 12.1161C17.0545 12.7616 17.0517 13.407 17.0499 14.0525C17.0499 14.0941 17.0769 14.1455 17.0182 14.1834C16.9167 14.0534 16.8068 13.9334 16.6596 13.8494C16.001 13.472 15.1618 13.6102 14.6103 14.1771C14.0272 14.7766 13.9164 16.0991 14.4231 16.8512C14.9103 17.5743 15.8799 17.7882 16.6326 17.3296C16.8273 17.2105 16.9688 17.048 17.1207 16.8349L17.1216 16.834ZM10.0526 17.0173C10.0824 17.1518 10.087 17.2655 10.0787 17.3802C10.074 17.4461 10.0852 17.4939 10.1709 17.493C10.3385 17.4912 10.5062 17.493 10.6748 17.493C10.7316 17.493 10.7512 17.4831 10.7419 17.4118C10.7177 17.2159 10.7046 17.0182 10.7028 16.8214C10.6962 16.2346 10.7046 15.6478 10.6934 15.0609C10.6851 14.5933 10.5574 14.1672 10.1364 13.881C9.92496 13.7375 9.68091 13.6995 9.42476 13.6716C9.02515 13.6282 8.6451 13.6725 8.27344 13.8088C7.91016 13.9415 7.91668 13.9442 8.04243 14.299C8.08062 14.4064 8.11882 14.42 8.21662 14.3658C8.4942 14.2141 8.79694 14.1536 9.11364 14.15C9.64365 14.1446 9.938 14.4073 9.99017 14.9183C10.0041 15.0537 9.97247 15.0962 9.82064 15.0989C9.23567 15.107 8.67398 15.1946 8.15607 15.5024C7.57203 15.85 7.5236 16.7997 7.90364 17.1888C8.29859 17.5932 8.77738 17.623 9.29249 17.5057C9.59615 17.4362 9.82529 17.2457 10.0526 17.0164V17.0173ZM10.7614 9.23349H10.7624C10.7624 9.41946 10.7624 9.60544 10.7624 9.79141C10.7624 9.9828 10.7624 10.1751 10.7624 10.3665C10.7633 10.5227 10.7055 10.7276 10.7857 10.8233C10.8788 10.9334 11.0996 10.8404 11.2626 10.863C11.434 10.8874 11.4675 10.8179 11.4666 10.6626C11.46 9.69752 11.4666 8.73245 11.4619 7.76737C11.4619 7.63918 11.4964 7.59314 11.6333 7.60126C11.8364 7.6121 12.0413 7.59585 12.2444 7.60578C12.3804 7.613 12.4176 7.56967 12.4158 7.43876C12.4102 7.08036 12.4158 7.08036 12.0506 7.08126C12.0329 7.08126 12.0143 7.08126 11.9966 7.08126C11.4368 7.08126 11.42 7.07946 11.4908 6.53688C11.5504 6.08369 11.7581 5.75508 12.3608 5.80383C12.4661 5.81195 12.5974 5.90855 12.6626 5.84445C12.7297 5.77855 12.7185 5.63862 12.7418 5.53028C12.7464 5.50771 12.7464 5.48334 12.7548 5.46167C12.7911 5.3723 12.7446 5.33438 12.6635 5.31181C11.9183 5.10598 11.0856 5.35153 10.8462 6.2182C10.808 6.35813 10.7922 6.50348 10.7689 6.64702C10.7465 6.78425 10.8229 6.96029 10.7344 7.05147C10.6441 7.14446 10.4615 7.07314 10.3199 7.08126C10.2482 7.08577 10.2174 7.10022 10.2091 7.17786C10.1662 7.59675 10.1671 7.60036 10.5928 7.60487C10.5984 7.60487 10.6049 7.60487 10.6105 7.60487C10.7288 7.58772 10.7624 7.63737 10.7614 7.75112C10.7558 8.24495 10.7586 8.73967 10.7586 9.23349H10.7614ZM13.2839 8.78842C13.2839 9.11432 13.2774 9.43933 13.2858 9.76433C13.2932 10.0559 13.3202 10.3484 13.5093 10.594C13.7748 10.937 14.1586 10.9515 14.5507 10.9289C14.9401 10.9063 14.9513 10.8874 14.9401 10.5145C14.9363 10.3782 14.9168 10.3286 14.7491 10.3538C14.2228 10.4333 14.017 10.2609 13.9797 9.74446C13.9779 9.71558 13.976 9.68669 13.976 9.6578C13.976 9.01863 13.9779 8.37946 13.9723 7.74029C13.9713 7.62835 14.0132 7.60036 14.1185 7.60487C14.2806 7.61119 14.4427 7.60668 14.6038 7.60578C15.0165 7.60578 15.0034 7.60578 14.9866 7.20314C14.9811 7.07223 14.928 7.08036 14.8413 7.08126C14.6019 7.08126 14.3616 7.07494 14.1222 7.08397C14.0011 7.08848 13.9695 7.04876 13.9723 6.93591C13.9797 6.66869 13.9695 6.40147 13.976 6.13424C13.9788 6.01688 13.9425 5.99341 13.8307 6.02952C13.7003 6.07195 13.5671 6.10987 13.432 6.13334C13.3146 6.15411 13.2755 6.20376 13.2802 6.31931C13.2895 6.53418 13.2792 6.74904 13.2839 6.9639C13.2858 7.05598 13.2532 7.08848 13.16 7.08307C13.0408 7.07675 12.9197 7.08487 12.8005 7.08036C12.7129 7.07675 12.6766 7.09841 12.6728 7.19501C12.657 7.60307 12.6533 7.60217 13.0734 7.60397C13.0976 7.60397 13.1218 7.60668 13.1451 7.60397C13.2587 7.58772 13.2867 7.63828 13.2848 7.7421C13.2783 8.09057 13.283 8.43904 13.283 8.78842H13.2839ZM5.99503 17.5635C6.25212 17.5716 6.4822 17.5427 6.71134 17.4903C7.13517 17.3928 7.12865 17.3964 7.03923 16.9947C7.00849 16.8575 6.96378 16.8412 6.83896 16.89C6.49151 17.0263 6.1301 17.0633 5.76496 16.9775C5.19209 16.8439 4.84279 16.4052 4.78131 15.7507C4.72915 15.2009 4.94339 14.5283 5.60381 14.2855C6.01552 14.1338 6.43562 14.1654 6.8492 14.3089C6.89019 14.3234 6.9526 14.3965 6.98427 14.3171C7.04016 14.1771 7.07835 14.03 7.11747 13.8837C7.13424 13.8232 7.07369 13.8061 7.03084 13.7916C6.35552 13.5668 5.68392 13.5632 5.04864 13.8964C4.22801 14.327 3.9644 15.1512 4.0799 16.0125C4.10691 16.212 4.13765 16.4223 4.24012 16.5939C4.63227 17.252 5.22376 17.5878 5.99596 17.5625L5.99503 17.5635ZM12.4511 14.429C12.4456 14.3378 12.4437 14.2457 12.4325 14.1546C12.4167 14.0119 12.4931 13.8259 12.3897 13.7384C12.29 13.6535 12.1018 13.7266 11.9547 13.7104C11.8215 13.6959 11.7963 13.7492 11.8028 13.8675C11.8578 14.9002 11.8271 15.9348 11.8354 16.9685C11.8364 17.1364 11.7758 17.3594 11.8624 17.456C11.963 17.568 12.2006 17.4777 12.3766 17.4966C12.507 17.5102 12.535 17.4596 12.534 17.3405C12.5285 16.7482 12.5322 16.1551 12.5322 15.5629C12.5322 15.3462 12.5629 15.135 12.6356 14.93C12.7828 14.5157 13.1796 14.2475 13.5987 14.3044C13.7385 14.3234 13.7692 14.2918 13.759 14.1726C13.7552 14.1266 13.7617 14.0796 13.758 14.0336C13.7468 13.9081 13.8195 13.7284 13.7263 13.6707C13.5987 13.5921 13.4134 13.64 13.2569 13.6824C13.2112 13.695 13.1665 13.7149 13.1237 13.7339C12.8088 13.8765 12.6104 14.123 12.4521 14.4299L12.4511 14.429ZM9.5058 8.978H9.50673C9.50673 8.3921 9.50393 7.80529 9.50859 7.21939C9.50859 7.11466 9.48344 7.07314 9.36887 7.08126C9.23753 7.09119 9.10433 7.093 8.97392 7.08126C8.82861 7.06772 8.79507 7.12098 8.79507 7.2555C8.80066 8.28286 8.79507 9.31023 8.79973 10.3385C8.79973 10.5091 8.71869 10.7438 8.83606 10.8341C8.94691 10.9199 9.17884 10.854 9.35769 10.8657C9.47506 10.8729 9.50859 10.8341 9.50766 10.7204C9.50207 10.1399 9.50486 9.55939 9.50486 8.97891L9.5058 8.978ZM9.17512 5.59709C8.90871 5.59258 8.72242 5.76952 8.71962 6.02952C8.71683 6.27417 8.89008 6.4448 9.14531 6.44931C9.40706 6.45383 9.59056 6.29494 9.59894 6.0566C9.60826 5.78848 9.435 5.6007 9.17605 5.59619L9.17512 5.59709Z" fill="#232323"/>
<path d="M19.9797 0.0126389C19.9965 0.00812503 20.0142 0 20.0309 0C21.1291 0.00270834 22.2264 0.00541669 23.3247 0.00812503C23.3302 0.0243751 23.3312 0.0451391 23.3424 0.0559724C23.8845 0.582294 24.4275 1.10681 24.9697 1.63313C25.0302 1.69181 25.0572 1.68549 25.1206 1.62049C25.3711 1.3641 25.6468 1.14473 26.0474 1.16549C26.3659 1.18264 26.6175 1.33882 26.841 1.53473C27.412 2.03397 27.8489 2.63341 28.2 3.29335C28.5158 3.88647 28.6881 4.52654 28.8381 5.17294C28.8707 5.31377 28.9266 5.39863 29.0831 5.44738C29.6913 5.63696 30.0844 6.04141 30.267 6.63454C30.2977 6.73384 30.3592 6.76995 30.4561 6.79252C30.9051 6.89454 31.354 6.99565 31.7881 7.15003C32.7708 7.5003 33.6343 8.02843 34.3208 8.80212C34.8201 9.36364 34.7773 9.89177 34.2081 10.3874C34.1001 10.4822 34.114 10.5255 34.2044 10.6131C34.7223 11.1177 35.2318 11.6305 35.7507 12.1334C35.8075 12.1884 35.8624 12.2661 35.9789 12.2859C35.9789 12.211 35.9789 12.1478 35.9789 12.0855C35.9789 9.0576 35.977 6.02967 35.9779 3.00175C35.9779 2.9214 35.99 2.84105 35.9956 2.7607V15.5992C35.61 15.238 35.2095 14.8914 34.8425 14.514C34.1429 13.7963 33.4042 13.1174 32.6917 12.4132C32.5827 12.3058 32.4681 12.202 32.3628 12.0909C32.2911 12.016 32.2418 12.0142 32.1663 12.0909C31.8747 12.3907 31.5552 12.6678 31.2842 12.9847C30.9675 13.3557 30.526 13.2194 30.3369 12.7924C30.1319 12.3311 30.0323 11.8391 29.8721 11.3642C29.8227 11.218 29.7724 11.0708 29.6904 10.9264C29.6336 11.1602 29.5768 11.3949 29.5181 11.6287C29.4138 12.0458 29.1883 12.4042 28.935 12.7482C28.8949 12.8023 28.8437 12.8267 28.7673 12.8249C27.8498 12.8032 26.9332 12.7744 26.0036 12.6922C26.0697 12.5784 26.1694 12.5125 26.2523 12.4331C26.9761 11.7398 27.466 10.9128 27.7539 9.97031C27.9066 9.47017 28.0119 8.9601 28.1199 8.44913C28.1479 8.31732 28.1246 8.23517 27.997 8.16565C27.7464 8.03024 27.5564 7.82892 27.4129 7.58878C27.3701 7.51746 27.331 7.47142 27.2313 7.49037C26.3361 7.65829 25.4438 7.82801 24.6129 8.21711C23.9404 8.53218 23.3582 8.96191 22.8515 9.49094C22.831 9.5117 22.8086 9.53156 22.7863 9.55052C22.7835 9.55323 22.7751 9.55052 22.7602 9.55052C22.695 8.67753 22.64 7.80364 22.6326 6.92704C22.6326 6.83766 22.6614 6.77808 22.7294 6.7185C23.1887 6.31856 23.7503 6.15065 24.3381 6.03961C24.4201 6.02426 24.5021 6.00891 24.5905 5.99266C24.5635 5.9087 24.4871 5.91231 24.4313 5.89516C23.9217 5.74259 23.4104 5.59724 22.9027 5.44196C22.708 5.38238 22.5254 5.29481 22.3801 5.14856C22.1938 4.96078 22.1873 4.71432 22.3773 4.52925C22.7024 4.21238 23.0331 3.89911 23.3675 3.59126C23.4588 3.5073 23.4616 3.45946 23.3703 3.37098C22.2711 2.3039 21.1767 1.2332 20.0812 0.162501C20.0365 0.119167 19.9713 0.0857642 19.9769 0.00902781L19.9797 0.0126389Z" fill="#ECBD6C"/>
<path d="M35.9991 2.75941C35.9926 2.83976 35.9814 2.92011 35.9814 3.00046C35.9814 6.02838 35.9814 9.05631 35.9823 12.0842C35.9823 12.1465 35.9823 12.2097 35.9823 12.2847C35.8659 12.2648 35.8109 12.1872 35.7541 12.1321C35.2353 11.6292 34.7248 11.1165 34.2079 10.6118C34.1175 10.5242 34.1026 10.48 34.2116 10.3861C34.7807 9.88958 34.8236 9.36235 34.3243 8.80082C33.6378 8.02804 32.7752 7.49992 31.7916 7.14874C31.3575 6.99436 30.9085 6.89325 30.4596 6.79123C30.3627 6.76957 30.3012 6.73255 30.2705 6.63325C30.0879 6.04012 29.6948 5.63567 29.0866 5.44609C28.9301 5.39734 28.8742 5.31248 28.8416 5.17164C28.6916 4.52525 28.5184 3.88608 28.2035 3.29205C27.8523 2.63212 27.4155 2.03268 26.8445 1.53344C26.62 1.33753 26.3694 1.18135 26.0509 1.1642C25.6503 1.14344 25.3755 1.36281 25.124 1.6192C25.0607 1.6833 25.0337 1.69052 24.9731 1.63184C24.431 1.10552 23.8879 0.581003 23.3458 0.0546818C23.3346 0.0438484 23.3337 0.0230844 23.3281 0.00683438C26.5771 0.00683438 29.8252 0.00412604 33.0742 0.00773716C34.5003 0.00954272 35.7597 1.09649 35.9572 2.47865C35.9637 2.5265 35.9414 2.58518 36.001 2.61858V2.75851L35.9991 2.75941Z" fill="#232323"/>
<path d="M6.98013 10.2497C6.38771 10.8555 5.81019 11.008 5.07245 10.7155C4.51636 10.4953 4.21735 10.043 4.10744 9.48595C3.98262 8.85491 4.07297 8.25636 4.4465 7.70296C4.95881 6.94462 6.17254 6.76858 6.82458 7.37435C6.90282 7.44747 6.96803 7.52872 7.0323 7.63976C7.08632 7.49442 7.08446 7.35719 7.0826 7.22448C7.08073 7.10803 7.12638 7.08094 7.23909 7.07914C7.71601 7.07372 7.71135 7.07011 7.69551 7.53685C7.66105 8.51275 7.68527 9.48956 7.67968 10.4655C7.67782 10.7634 7.64615 11.0568 7.56045 11.3439C7.39837 11.8846 7.02764 12.2304 6.47713 12.3839C5.83441 12.5626 5.19821 12.522 4.57597 12.2773C4.44091 12.2241 4.35614 12.16 4.44929 12.0074C4.46978 11.9731 4.47817 11.9316 4.49028 11.8928C4.55828 11.6598 4.55734 11.6617 4.79953 11.7619C5.18237 11.9217 5.58291 11.9767 5.99556 11.9253C6.56842 11.8539 6.94381 11.436 6.98013 10.832C6.99131 10.6469 6.982 10.461 6.982 10.2497H6.98013ZM6.96803 8.90366H6.98013C6.98013 8.79352 6.98293 8.68338 6.98013 8.57324C6.96802 8.09115 6.64573 7.67768 6.20607 7.57928C5.70121 7.46643 5.21218 7.67317 4.97837 8.11553C4.70731 8.63192 4.698 9.16546 4.92901 9.6954C5.11996 10.1314 5.59129 10.3833 6.04679 10.3174C6.54699 10.2452 6.90282 9.89942 6.9643 9.40741C6.98479 9.2413 6.96709 9.07157 6.96709 8.90366H6.96803Z" fill="#ECBD6C"/>
<path d="M17.1218 16.833C16.97 17.0461 16.8284 17.2086 16.6337 17.3278C15.8811 17.7864 14.9114 17.5724 14.4242 16.8493C13.9175 16.0973 14.0284 14.7747 14.6115 14.1753C15.1629 13.6083 16.0022 13.4702 16.6607 13.8475C16.8079 13.9315 16.9178 14.0516 17.0193 14.1816C17.078 14.1437 17.051 14.0931 17.051 14.0507C17.0529 13.4052 17.0557 12.7597 17.0501 12.1142C17.0492 11.9905 17.0734 11.9327 17.215 11.9445C17.3873 11.9589 17.609 11.8768 17.7198 11.9743C17.8335 12.0736 17.7552 12.293 17.7552 12.4591C17.7589 13.9008 17.7571 15.3425 17.7599 16.7843C17.7599 16.9757 17.7655 17.168 17.7841 17.3585C17.7953 17.4731 17.7534 17.4975 17.6472 17.4921C17.486 17.4848 17.2736 17.5489 17.1758 17.4722C17.0743 17.3928 17.1451 17.177 17.1321 17.0217C17.1274 16.9721 17.1274 16.9224 17.1227 16.8321L17.1218 16.833ZM17.038 15.6016C17.038 15.4391 17.052 15.2757 17.0352 15.115C16.9895 14.6555 16.6672 14.3016 16.2239 14.2068C15.7618 14.1075 15.3073 14.2827 15.0698 14.6871C14.7316 15.2613 14.7214 15.8635 15.0167 16.4539C15.2188 16.8583 15.5867 17.0371 16.0459 17.0064C16.494 16.9757 16.8005 16.7392 16.9709 16.3401C17.0724 16.1027 17.052 15.8499 17.038 15.6016Z" fill="#ECBD6C"/>
<path d="M10.0539 17.0167C9.82759 17.246 9.59752 17.4365 9.29385 17.506C8.77967 17.6234 8.30089 17.5936 7.90501 17.1891C7.52403 16.7991 7.57247 15.8503 8.15744 15.5027C8.67535 15.1949 9.23703 15.1073 9.822 15.0992C9.97383 15.0974 10.0055 15.054 9.99153 14.9186C9.93937 14.4086 9.64409 14.1449 9.11501 14.1504C8.79923 14.154 8.49557 14.2145 8.21799 14.3661C8.12018 14.4194 8.08199 14.4058 8.0438 14.2993C7.91712 13.9436 7.9106 13.9418 8.27481 13.8091C8.64647 13.6728 9.02652 13.6295 9.42612 13.6719C9.68228 13.699 9.92633 13.7378 10.1378 13.8813C10.5588 14.1675 10.6864 14.5936 10.6948 15.0613C10.706 15.6481 10.6976 16.2349 10.7041 16.8217C10.706 17.0185 10.719 17.2162 10.7432 17.4121C10.7526 17.4834 10.733 17.4934 10.6762 17.4934C10.5085 17.4934 10.3408 17.4907 10.1722 17.4934C10.0865 17.4943 10.0754 17.4464 10.08 17.3805C10.0884 17.2659 10.0837 17.153 10.0539 17.0176V17.0167ZM10.0111 16.011C10.0111 15.5497 10.0102 15.5461 9.6059 15.5777C9.28919 15.602 8.97342 15.6418 8.6977 15.816C8.42384 15.9884 8.30741 16.2872 8.38845 16.6059C8.45272 16.8569 8.6623 17.0311 8.93896 17.0573C9.10849 17.0736 9.27522 17.0528 9.43078 16.9842C9.88162 16.7847 10.0577 16.4353 10.0102 16.0119L10.0111 16.011Z" fill="#ECBD6C"/>
<path d="M10.7629 9.23237C10.7629 8.73855 10.7592 8.24383 10.7657 7.75C10.7666 7.63625 10.7331 7.5866 10.6148 7.60375C10.6092 7.60375 10.6027 7.60375 10.5971 7.60375C10.1714 7.59924 10.1705 7.59563 10.2133 7.17674C10.2217 7.0991 10.2525 7.08466 10.3242 7.08014C10.4658 7.07202 10.6483 7.14334 10.7387 7.05035C10.8262 6.95917 10.7499 6.78313 10.7732 6.6459C10.7964 6.50236 10.8113 6.35701 10.8505 6.21708C11.0889 5.35041 11.9226 5.10486 12.6678 5.31069C12.7488 5.33326 12.7945 5.37118 12.7591 5.46055C12.7507 5.48132 12.7507 5.50659 12.746 5.52916C12.7237 5.63659 12.7339 5.77743 12.6669 5.84333C12.6017 5.90743 12.4703 5.81173 12.3651 5.80271C11.7624 5.75396 11.5547 6.08257 11.4951 6.53576C11.4243 7.07834 11.441 7.08104 12.0009 7.08014C12.0185 7.08014 12.0372 7.08014 12.0549 7.08014C12.4209 7.07924 12.4144 7.08014 12.42 7.43764C12.4219 7.56855 12.3846 7.61098 12.2486 7.60466C12.0456 7.59473 11.8406 7.61098 11.6376 7.60014C11.5006 7.59292 11.4652 7.63806 11.4662 7.76625C11.4699 8.73133 11.4643 9.6964 11.4708 10.6615C11.4718 10.8158 11.4382 10.8854 11.2668 10.8619C11.1038 10.8393 10.8821 10.9323 10.7899 10.8222C10.7098 10.7274 10.7676 10.5224 10.7666 10.3654C10.7657 10.174 10.7666 9.98168 10.7666 9.79029C10.7666 9.60432 10.7666 9.41834 10.7666 9.23237H10.7657H10.7629Z" fill="#ECBD6C"/>
<path d="M13.2831 8.78673C13.2831 8.43826 13.2794 8.08888 13.285 7.74041C13.2868 7.63569 13.2589 7.58603 13.1452 7.60228C13.1219 7.60589 13.0977 7.60228 13.0735 7.60228C12.6534 7.60048 12.6571 7.60138 12.673 7.19332C12.6767 7.09673 12.7121 7.07506 12.8006 7.07867C12.9207 7.08318 13.0409 7.07596 13.1601 7.08138C13.2542 7.08589 13.2868 7.05339 13.284 6.96221C13.2784 6.74735 13.2896 6.53158 13.2803 6.31763C13.2747 6.20207 13.3148 6.15242 13.4321 6.13165C13.5672 6.10818 13.7004 6.07117 13.8308 6.02783C13.9426 5.99082 13.9789 6.01429 13.9761 6.13256C13.9696 6.39978 13.9798 6.667 13.9724 6.93423C13.9687 7.04798 14.0003 7.0868 14.1224 7.08228C14.3618 7.07325 14.6021 7.08048 14.8415 7.07957C14.9281 7.07957 14.9803 7.07145 14.9868 7.20145C15.0045 7.60409 15.0166 7.60319 14.6039 7.60409C14.4419 7.60409 14.2798 7.6086 14.1186 7.60319C14.0134 7.59958 13.9715 7.62756 13.9724 7.7386C13.978 8.37777 13.9752 9.01694 13.9761 9.65611C13.9761 9.685 13.9771 9.71389 13.9798 9.74278C14.0171 10.2592 14.222 10.4316 14.7493 10.3522C14.9179 10.3269 14.9365 10.3774 14.9402 10.5128C14.9514 10.8857 14.9402 10.9047 14.5508 10.9272C14.1587 10.9498 13.7749 10.9353 13.5094 10.5923C13.3204 10.3467 13.2933 10.0551 13.2859 9.76264C13.2775 9.43764 13.284 9.11173 13.284 8.78673H13.2831Z" fill="#ECBD6C"/>
<path d="M5.99655 17.5623C5.22435 17.5876 4.63285 17.2518 4.2407 16.5936C4.13823 16.4221 4.1075 16.2118 4.08048 16.0122C3.96498 15.151 4.22859 14.3267 5.04923 13.8961C5.6845 13.563 6.3561 13.5666 7.03142 13.7914C7.07427 13.8058 7.13389 13.823 7.11805 13.8835C7.07893 14.0297 7.04074 14.1769 6.98485 14.3168C6.95318 14.3963 6.89077 14.3231 6.84978 14.3087C6.43621 14.1652 6.01611 14.1336 5.60439 14.2852C4.94304 14.5281 4.72973 15.2006 4.78189 15.7504C4.84337 16.405 5.19267 16.8428 5.76554 16.9773C6.13068 17.0631 6.49303 17.0261 6.83954 16.8897C6.96529 16.8401 7.00907 16.8572 7.03981 16.9945C7.12923 17.3953 7.13575 17.3917 6.71193 17.4901C6.48278 17.5425 6.2527 17.5713 5.99561 17.5632L5.99655 17.5623Z" fill="#ECBD6C"/>
<path d="M12.451 14.4267C12.6093 14.1197 12.8077 13.8742 13.1226 13.7306C13.1654 13.7108 13.2101 13.6909 13.2558 13.6792C13.4132 13.6367 13.5976 13.588 13.7252 13.6674C13.8184 13.7252 13.7467 13.9049 13.7569 14.0304C13.7606 14.0764 13.7541 14.1233 13.7578 14.1694C13.7681 14.2895 13.7373 14.3201 13.5976 14.3012C13.1785 14.2443 12.7816 14.5124 12.6345 14.9268C12.5618 15.1317 12.5311 15.3439 12.5311 15.5597C12.5311 16.1519 12.5273 16.745 12.5329 17.3372C12.5339 17.4564 12.5069 17.5079 12.3755 17.4934C12.1995 17.4745 11.9619 17.5647 11.8613 17.4528C11.7738 17.3562 11.8353 17.1323 11.8343 16.9653C11.8269 15.9316 11.8567 14.8979 11.8017 13.8642C11.7952 13.746 11.8203 13.6927 11.9535 13.7072C12.1017 13.7234 12.2889 13.6503 12.3886 13.7351C12.4919 13.8227 12.4146 14.0087 12.4314 14.1513C12.4416 14.2425 12.4435 14.3346 12.45 14.4258L12.451 14.4267Z" fill="#ECBD6C"/>
<path d="M9.50583 8.97586C9.50583 9.55635 9.50304 10.1368 9.50863 10.7173C9.50956 10.8311 9.47696 10.8699 9.35866 10.8627C9.18074 10.8509 8.94881 10.9168 8.83703 10.8311C8.71966 10.7408 8.8007 10.5061 8.8007 10.3354C8.79697 9.30808 8.8007 8.28072 8.79604 7.25245C8.79604 7.11794 8.82864 7.06467 8.97489 7.07822C9.10529 7.09085 9.2385 7.08815 9.36984 7.07822C9.48441 7.07009 9.51049 7.11162 9.50956 7.21634C9.5049 7.80225 9.5077 8.38905 9.5077 8.97496H9.50676L9.50583 8.97586Z" fill="#ECBD6C"/>
<path d="M9.17521 5.5957C9.43509 5.60022 9.60742 5.788 9.5981 6.05612C9.58972 6.29446 9.40622 6.45244 9.14447 6.44883C8.88924 6.44432 8.71599 6.27369 8.71878 6.02904C8.72251 5.76813 8.90787 5.59209 9.17428 5.59661L9.17521 5.5957Z" fill="#ECBD6C"/>
<path d="M6.96864 8.90397C6.96864 9.07189 6.98541 9.24252 6.96585 9.40773C6.9053 9.89974 6.54948 10.2455 6.04834 10.3177C5.59284 10.3836 5.12151 10.1327 4.93056 9.69571C4.69862 9.16578 4.70793 8.63133 4.97993 8.11585C5.2128 7.67258 5.70276 7.46584 6.20762 7.57959C6.64635 7.678 6.96864 8.09057 6.98168 8.57356C6.98448 8.6837 6.98168 8.79383 6.98168 8.90397H6.96958H6.96864Z" fill="#232323"/>
<path d="M17.0376 15.6017C17.0506 15.8509 17.072 16.1037 16.9705 16.3402C16.8001 16.7392 16.4936 16.9757 16.0456 17.0064C15.5863 17.038 15.2184 16.8593 15.0163 16.4539C14.721 15.8635 14.7312 15.2614 15.0694 14.6872C15.3078 14.2827 15.7614 14.1076 16.2235 14.2069C16.6669 14.3017 16.9891 14.6556 17.0348 15.1151C17.0506 15.2758 17.0376 15.4392 17.0376 15.6017Z" fill="#232323"/>
<path d="M10.0103 16.01C10.0569 16.4325 9.88175 16.7828 9.43091 16.9823C9.27535 17.051 9.10862 17.0717 8.93909 17.0555C8.66244 17.0293 8.45285 16.856 8.38858 16.6041C8.30754 16.2854 8.42398 15.9866 8.69783 15.8141C8.97448 15.6399 9.28933 15.6002 9.60603 15.5758C10.0094 15.5442 10.0103 15.5478 10.0112 16.0091L10.0103 16.01Z" fill="#232323"/>
</svg>
