<svg width="25" height="24" viewBox="0 0 25 24" fill="none" xmlns="http://www.w3.org/2000/svg">
<path d="M22.268 4.84636V9.34636C22.268 9.54528 22.1889 9.73604 22.0483 9.87669C21.9076 10.0173 21.7169 10.0964 21.518 10.0964H17.018C16.8704 10.0961 16.7261 10.0523 16.6033 9.9705C16.4805 9.88865 16.3845 9.77239 16.3275 9.63627C16.2704 9.50015 16.2548 9.35022 16.2826 9.20527C16.3104 9.06031 16.3803 8.92677 16.4836 8.82136L18.2086 7.09636L17.8055 6.69324C16.3963 5.2895 14.4883 4.50134 12.4992 4.50134C10.5102 4.50134 8.60216 5.2895 7.19297 6.69324C7.12399 6.76382 7.0416 6.81991 6.95063 6.8582C6.85967 6.89649 6.76197 6.91622 6.66328 6.91622C6.56459 6.91622 6.46689 6.89649 6.37593 6.8582C6.28497 6.81991 6.20257 6.76382 6.13359 6.69324C5.99333 6.55264 5.91457 6.36215 5.91457 6.16355C5.91457 5.96495 5.99333 5.77446 6.13359 5.63386C7.82399 3.9496 10.113 3.00391 12.4992 3.00391C14.8855 3.00391 17.1744 3.9496 18.8648 5.63386L19.268 6.03699L20.9836 4.32136C21.0876 4.21578 21.2207 4.1434 21.3658 4.11336C21.511 4.08333 21.6618 4.09699 21.7992 4.15261C21.936 4.21058 22.0531 4.30695 22.1363 4.43008C22.2195 4.5532 22.2652 4.69779 22.268 4.84636ZM17.8055 17.3057C16.3963 18.7095 14.4883 19.4976 12.4992 19.4976C10.5102 19.4976 8.60216 18.7095 7.19297 17.3057L6.78984 16.9026L8.51484 15.1776C8.61816 15.0722 8.68808 14.9387 8.71585 14.7937C8.74361 14.6488 8.72799 14.4988 8.67094 14.3627C8.61389 14.2266 8.51795 14.1103 8.39512 14.0285C8.2723 13.9466 8.12806 13.9029 7.98047 13.9026H3.48047C3.28156 13.9026 3.09079 13.9816 2.95014 14.1223C2.80949 14.2629 2.73047 14.4537 2.73047 14.6526V19.1526C2.73319 19.3012 2.77892 19.4458 2.86211 19.5689C2.9453 19.692 3.0624 19.7884 3.19922 19.8464C3.28848 19.883 3.38397 19.9021 3.48047 19.9026C3.58017 19.9035 3.67901 19.884 3.77091 19.8453C3.86281 19.8066 3.94582 19.7496 4.01484 19.6776L5.73047 17.962L6.13359 18.3651C7.82277 20.0517 10.1122 20.9989 12.4992 20.9989C14.8862 20.9989 17.1757 20.0517 18.8648 18.3651C19.0051 18.2245 19.0839 18.034 19.0839 17.8354C19.0839 17.6368 19.0051 17.4463 18.8648 17.3057C18.7959 17.2352 18.7135 17.1791 18.6225 17.1408C18.5315 17.1025 18.4338 17.0828 18.3352 17.0828C18.2365 17.0828 18.1388 17.1025 18.0478 17.1408C17.9568 17.1791 17.8744 17.2352 17.8055 17.3057Z" fill="#141416"/>
</svg>
