<svg width="44" height="20" viewBox="0 0 44 20" fill="none" xmlns="http://www.w3.org/2000/svg">
<path d="M17.9251 0.784115C18.1092 0.694181 18.3391 0.759878 18.5407 0.754137C18.525 1.81804 18.5614 2.88449 18.5231 3.94648C18.3391 4.16015 18.1506 4.3751 17.9264 4.54667C17.9144 3.2927 17.9163 2.03745 17.9251 0.784115Z" fill="#02B04E"/>
<path d="M18.9727 0.751333C19.1699 0.743679 19.3678 0.742403 19.5656 0.74623C19.5631 1.59582 19.5707 2.44605 19.5612 3.29564C19.3659 3.42129 19.1774 3.55779 18.9777 3.67642C18.9676 2.70182 18.9783 1.72658 18.9727 0.751333Z" fill="#02B04E"/>
<path d="M25.0306 1.88522C25.8309 1.86545 26.6318 1.88139 27.432 1.87629C27.9188 1.88458 28.4151 1.84121 28.8912 1.9675C29.4741 2.11165 30.0232 2.44715 30.3674 2.95422C30.6877 3.43323 30.8209 4.02323 30.8008 4.59791C30.8253 5.31866 30.596 6.07321 30.0759 6.58092C29.5715 7.11032 28.8309 7.33356 28.1224 7.36163C27.5872 7.3763 27.0526 7.36354 26.5174 7.36801C26.5112 8.21505 26.5225 9.06336 26.5118 9.91104C26.0281 9.91231 25.5451 9.9206 25.062 9.90593C25.0212 9.64761 25.0268 9.3861 25.0287 9.1265C25.0306 6.71232 25.0275 4.29877 25.0306 1.88522ZM26.5155 3.24507C26.5168 4.15717 26.5149 5.06991 26.5168 5.982C27.0514 5.97754 27.5865 5.99221 28.1217 5.97435C28.6356 5.95202 29.1607 5.6312 29.2976 5.10435C29.4094 4.64894 29.4063 4.11061 29.1186 3.71898C28.8573 3.37583 28.4113 3.24954 28.0011 3.23933C27.5055 3.24125 27.0105 3.23551 26.5155 3.24507Z" fill="#02B04E"/>
<path d="M0.0739988 5.2199C0.445865 3.57174 1.98547 2.33946 3.62118 2.1985C4.39632 2.17298 5.19533 2.16724 5.9265 2.46766C5.93529 2.70493 5.93529 2.94284 5.93027 3.18075C5.2349 2.77509 4.40825 2.73045 3.6262 2.78339C2.83159 2.8899 2.06336 3.25857 1.5131 3.85622C0.931428 4.42963 0.612326 5.24669 0.585315 6.06375C0.581546 6.96117 0.883688 7.88092 1.52189 8.51875C2.20407 9.23185 3.22858 9.56033 4.19343 9.43978C4.86555 9.38875 5.54835 9.16424 6.0471 8.68842C6.0402 7.87072 6.05778 7.05302 6.03768 6.23596C5.22674 6.23341 4.41579 6.23724 3.60485 6.23405C3.59856 6.03504 3.59794 5.83604 3.60171 5.63768C4.62371 5.63321 5.64572 5.63704 6.66772 5.63512C6.6784 6.67351 6.66772 7.7119 6.67337 8.75029C6.70164 8.93398 6.53015 9.04305 6.42274 9.15977C5.72989 9.78166 4.79394 10.0878 3.87558 10.0719C3.08222 10.1114 2.28196 9.88243 1.62805 9.42511C0.717856 8.80323 0.106663 7.75017 0.00992718 6.64162C0.0149524 6.16835 -0.0428377 5.6836 0.0739988 5.2199Z" fill="#02B04E"/>
<path d="M1.24498 4.92952C1.80277 3.6781 3.25569 2.98797 4.5679 3.21312C5.04216 3.24182 5.51013 3.36748 5.92974 3.59582C5.93476 3.8433 5.93602 4.09078 5.92974 4.33825C5.31792 3.84968 4.50697 3.77058 3.75633 3.82289C3.15456 3.90134 2.57415 4.18773 2.1715 4.65334C1.37312 5.52207 1.46797 7.03946 2.32477 7.8342C2.54588 8.04596 2.81536 8.20606 3.10368 8.30364C3.5057 8.45226 3.94478 8.40889 4.3625 8.37763C4.59366 8.31512 4.8713 8.3113 5.05535 8.1461C5.12759 7.87694 5.08425 7.58162 5.05661 7.30544C4.5723 7.30225 4.08737 7.30927 3.60306 7.30097C3.59992 7.09432 3.59929 6.88766 3.60118 6.681C4.28461 6.67718 4.96804 6.67271 5.65147 6.68355C5.64896 7.24357 5.65963 7.80486 5.6477 8.36488C5.64456 8.57472 5.43538 8.67231 5.27772 8.75459C4.762 8.98995 4.18662 9.06075 3.62567 9.03842C2.34676 8.9976 1.20854 7.91776 1.04459 6.63572C0.999367 6.06295 0.989317 5.45828 1.24498 4.92952Z" fill="#02B04E"/>
<path d="M33.1108 3.42387C33.7496 3.18085 34.4582 3.08901 35.1309 3.22869C35.8721 3.33648 36.5945 3.7313 37.0091 4.37678C37.3728 4.93042 37.5254 5.60397 37.5236 6.26412C37.5273 7.44794 37.5217 8.63239 37.5267 9.8162C37.0556 9.81939 36.5845 9.81811 36.1134 9.81684C36.1134 9.62804 36.1152 9.4386 36.1115 9.24981C35.8878 9.41564 35.6705 9.5987 35.4092 9.70139C35.0926 9.84108 34.7446 9.87743 34.4054 9.91251C33.8451 9.87233 33.271 9.79388 32.7766 9.50303C31.9003 9.02976 31.4273 8.00476 31.4123 7.02442C31.4154 6.39424 31.3551 5.74621 31.5586 5.13835C31.7898 4.36722 32.3652 3.71153 33.1108 3.42387ZM34.0511 4.63893C33.4764 4.74992 33.0034 5.22829 32.8802 5.80744C32.8005 6.22585 32.798 6.65894 32.8545 7.08055C32.9393 7.72539 33.4368 8.2886 34.0643 8.42956C34.5178 8.51566 35.0166 8.4876 35.4199 8.24012C35.8125 8.0003 36.0468 7.54552 36.0719 7.08756C36.0914 6.7476 36.092 6.40572 36.075 6.06576C36.048 5.57527 35.8018 5.07712 35.3715 4.82964C34.9777 4.59747 34.4927 4.51328 34.0511 4.63893Z" fill="#02B04E"/>
<path d="M38.397 3.2437C38.8983 3.24051 39.4002 3.23413 39.9015 3.24689C39.899 4.52765 39.9015 5.80778 39.8996 7.0879C39.9159 7.56181 40.1301 8.07399 40.5717 8.28894C40.8336 8.44967 41.1502 8.41268 41.443 8.41076C41.8739 8.41586 42.2577 8.09759 42.4279 7.71042C42.5441 7.45529 42.5391 7.16891 42.5372 6.89464C42.5341 5.6783 42.5372 4.46196 42.5353 3.24625C43.024 3.23541 43.5127 3.24051 44.0014 3.24306C44.0002 5.52458 44.0021 7.80674 44.0008 10.0883C43.9757 10.8007 43.6666 11.524 43.0956 11.959C42.5158 12.394 41.7765 12.5701 41.0636 12.5439C40.2752 12.5777 39.4869 12.2709 38.8977 11.7434C38.8971 11.2599 38.8901 10.7765 38.9015 10.2936C39.2193 10.5156 39.5283 10.7599 39.8908 10.906C40.436 11.1445 41.0472 11.2147 41.6327 11.1171C42.0108 11.0348 42.3802 10.8026 42.5322 10.4282C42.6886 10.064 42.6666 9.65772 42.6578 9.27056C42.3268 9.52378 41.9612 9.74702 41.5466 9.81782C40.8374 9.93199 40.0654 9.83504 39.4655 9.41152C38.7739 8.94718 38.4398 8.0944 38.3945 7.27925C38.3958 5.93407 38.3926 4.58888 38.397 3.2437Z" fill="#02B04E"/>
<path d="M8.05512 4.31245C8.60099 3.70907 9.41256 3.35571 10.2216 3.40354C10.7486 3.36783 11.2744 3.48965 11.7292 3.76201C11.6488 3.96292 11.4773 4.10133 11.3435 4.26462C10.4088 3.78242 9.15565 3.96994 8.46907 4.79657C8.07648 5.26728 7.90374 5.90129 7.92823 6.51105C7.92949 7.6432 7.932 8.77535 7.92698 9.9075C7.73602 9.91388 7.54506 9.91388 7.3541 9.91515C7.33589 8.67457 7.35285 7.43336 7.34531 6.19341C7.31955 5.50201 7.61541 4.82846 8.05512 4.31245Z" fill="#02B04E"/>
<path d="M11.064 6.31687C11.0332 4.76057 12.4453 3.31779 13.9887 3.40326C15.5635 3.30249 17.0038 4.79628 16.9303 6.38384C16.9253 7.56 16.9347 8.7368 16.9253 9.91359C16.7149 9.91806 16.5019 9.92316 16.2978 9.86512C16.3003 8.64112 16.3009 7.41649 16.2978 6.19249C16.3059 5.65799 16.0522 5.15411 15.713 4.75993C15.1652 4.16164 14.2971 3.86441 13.5094 4.0615C12.7248 4.24073 12.0571 4.85433 11.7977 5.62738C11.6275 6.07258 11.6865 6.55797 11.6808 7.02422C11.7223 8.13724 12.6463 9.12077 13.7311 9.24834C14.1288 9.30574 14.5276 9.21326 14.902 9.08123C14.9077 9.29107 14.9077 9.50092 14.9045 9.71077C13.9039 10.1349 12.6972 9.7956 11.9447 9.03339C11.5558 8.6609 11.292 8.16977 11.1457 7.65185C11.0238 7.21749 11.0753 6.76208 11.064 6.31687Z" fill="#02B04E"/>
<path d="M19.2103 3.97114C19.5923 3.68093 20.0426 3.46598 20.52 3.41495C20.9836 3.39518 21.466 3.37031 21.9045 3.55336C23.0107 3.96413 23.8813 5.09946 23.8323 6.32091C23.8241 6.70297 23.8537 7.08822 23.8021 7.469C23.6338 8.38556 23.005 9.19178 22.1815 9.5968C21.1287 10.1332 19.7637 9.93103 18.9107 9.10376C18.6218 8.82248 18.3598 8.4704 18.2838 8.06665C18.4032 7.87913 18.5608 7.72031 18.694 7.54363C18.863 8.0405 19.1375 8.51759 19.574 8.81801C20.1413 9.23962 20.9038 9.38377 21.576 9.16244C22.4786 8.89328 23.1652 8.0271 23.2349 7.07482C23.2569 6.50907 23.2758 5.91142 23.0163 5.39223C22.7092 4.71804 22.0779 4.20204 21.3599 4.05215C20.6972 3.89396 19.9849 4.1172 19.4629 4.54455C18.6463 5.21555 17.9898 6.06004 17.3422 6.89368C17.2951 6.62069 17.2926 6.34132 17.3127 6.06641C17.3158 5.94586 17.4019 5.85784 17.4685 5.76791C17.9886 5.1135 18.5307 4.46163 19.2103 3.97114Z" fill="#02B04E"/>
<path d="M9.28421 4.67152C9.83133 4.35452 10.521 4.35388 11.0977 4.58796C11.0185 4.77804 10.9256 4.9611 10.842 5.14926C10.435 5.02871 9.9601 4.99299 9.58384 5.22452C9.22642 5.4299 8.97328 5.83173 8.97893 6.25398C8.97705 7.14758 8.97956 8.04182 8.9783 8.93542C8.97642 9.25943 8.99589 9.58536 8.94501 9.90683C8.74965 9.91385 8.5543 9.91385 8.35957 9.91385C8.34889 8.69495 8.34889 7.47542 8.35957 6.25653C8.34764 5.60722 8.73395 4.98788 9.28421 4.67152Z" fill="#02B04E"/>
<path d="M13.3514 4.53858C14.1008 4.2541 15.0236 4.50158 15.5123 5.15153C15.7623 5.48193 15.9206 5.89652 15.9068 6.31685C15.8998 7.5166 15.9124 8.71573 15.8998 9.91485C15.6938 9.91676 15.4859 9.91931 15.2836 9.87721C15.2836 8.69085 15.2836 7.50449 15.2836 6.31812C15.2918 5.8136 14.9576 5.33714 14.5009 5.15153C14.2648 5.038 13.9953 5.05012 13.7421 5.07372C13.1718 5.18406 12.7151 5.72622 12.7057 6.31685C12.7126 6.69635 12.6548 7.09691 12.8213 7.45282C13.0298 7.92609 13.5405 8.25266 14.0537 8.2112C14.3659 8.23289 14.6448 8.07279 14.9067 7.9229C14.908 8.14742 14.908 8.37193 14.9067 8.59709C14.1429 9.08503 13.0713 8.83309 12.5216 8.13083C12.293 7.83361 12.1083 7.47387 12.1215 7.08671C12.1278 6.68424 12.0951 6.27858 12.1479 5.87866C12.3024 5.26825 12.7735 4.75926 13.3514 4.53858Z" fill="#02B04E"/>
<path d="M20.1545 4.61575C20.7136 4.30959 21.4316 4.37976 21.9498 4.74204C22.2834 4.97932 22.5648 5.30652 22.7074 5.69751C22.8738 6.09743 22.7991 6.53881 22.816 6.95914C22.8386 7.98541 21.897 8.88029 20.8976 8.84967C19.9793 8.84712 19.1947 8.04983 19.0427 7.15878C19.1583 6.92597 19.3543 6.74611 19.5276 6.55731C19.608 7.05226 19.7858 7.55424 20.1677 7.89292C20.5025 8.25585 21.0748 8.30879 21.4956 8.07534C21.8418 7.90951 22.0874 7.56954 22.1784 7.19641C22.2161 6.92597 22.1948 6.65171 22.1998 6.37935C22.2218 5.89397 21.9335 5.41432 21.5076 5.19745C21.0578 4.94998 20.4749 5.03162 20.0886 5.36457C19.6853 5.72239 19.3273 6.12932 18.9799 6.542C18.407 7.18812 17.875 7.86996 17.3429 8.55053C17.2858 8.27754 17.3002 7.99625 17.3096 7.72007C17.3103 7.58358 17.4032 7.4777 17.4786 7.37564C17.8938 6.84433 18.3316 6.33152 18.7833 5.8321C19.1897 5.37477 19.598 4.88874 20.1545 4.61575Z" fill="#02B04E"/>
<path d="M19.0978 12.7857C19.4031 12.6262 19.7561 12.6536 20.0884 12.6562C20.7888 12.6606 21.4415 13.176 21.6563 13.8476C21.7687 14.1532 21.7493 14.4836 21.7512 14.8044C21.7512 15.9448 21.7493 17.0853 21.7518 18.2257C21.4465 18.2276 21.1418 18.234 20.8366 18.2283C20.547 18.2474 20.3202 17.9578 20.3215 17.6797C20.3152 16.7848 20.3196 15.8893 20.3215 14.9945C20.3165 14.7731 20.3472 14.5333 20.2298 14.3343C20.0878 14.046 19.7781 13.8432 19.4571 13.8617C19.133 13.8445 18.8453 14.0651 18.6883 14.3381C18.6003 14.4995 18.6022 14.6883 18.5978 14.8675C18.6003 15.985 18.5972 17.1025 18.5997 18.2206C18.226 18.2238 17.8484 18.2531 17.4766 18.2091C17.3026 18.1205 17.1462 17.9431 17.155 17.7339C17.1524 16.7778 17.1556 15.8217 17.1556 14.8663C17.2121 14.34 16.7875 13.81 16.2542 13.8285C15.9822 13.8591 15.7165 14.0077 15.5745 14.2501C15.4313 14.4682 15.4326 14.7419 15.425 14.9945C15.4263 15.7178 15.4269 16.4404 15.425 17.1637C15.4194 17.5184 15.4671 17.8736 15.4282 18.2276C15.0971 18.2251 14.7661 18.2378 14.4351 18.2251C14.2523 18.2295 14.1166 18.0714 14.0393 17.9208C13.9884 17.7154 14.0085 17.5005 14.0048 17.2913C14.0092 15.7465 14.0004 14.2023 14.0085 12.6574C14.3766 12.6689 14.7504 12.6236 15.1153 12.6817C15.3785 12.7831 15.4275 13.0873 15.4734 13.3335C15.7253 12.9394 16.1568 12.6555 16.6286 12.6581C16.9866 12.6619 17.3679 12.6071 17.7027 12.7659C18.0074 12.9107 18.214 13.1894 18.4289 13.4401C18.6066 13.1817 18.8045 12.9151 19.0985 12.7857H19.0978Z" fill="#0595DA"/>
<path d="M36.5059 12.6554C36.798 12.6644 37.0926 12.6325 37.3834 12.6739C37.6598 12.7498 37.7609 13.0707 37.7509 13.3328C37.7509 14.8228 37.749 16.3134 37.7509 17.8034C37.7496 17.9443 37.7421 18.0853 37.7276 18.2262C37.4776 18.2282 37.2276 18.2345 36.9776 18.2275C36.7333 18.2486 36.6089 17.9934 36.4682 17.8359C36.1497 18.0381 35.7986 18.225 35.4142 18.2262C34.9876 18.2275 34.5498 18.2632 34.1384 18.1274C33.5002 17.9584 32.9417 17.4902 32.6905 16.867C32.389 16.1342 32.372 15.3037 32.5221 14.5326C32.6635 13.831 33.1151 13.1823 33.7697 12.8908C34.2973 12.6274 34.8997 12.6382 35.4732 12.6637C35.8438 12.6829 36.1792 12.8634 36.4883 13.0573C36.4952 12.9227 36.5002 12.7894 36.5053 12.6554H36.5059ZM34.6736 13.7742C34.4135 13.8412 34.161 13.9815 34.0121 14.2149C33.7653 14.5932 33.7376 15.0645 33.7464 15.5053C33.7389 15.8765 33.7866 16.2611 33.9675 16.5902C34.1541 16.957 34.5775 17.1375 34.9688 17.1445C35.3419 17.1617 35.7628 17.1343 36.0442 16.8517C36.4368 16.5041 36.4808 15.9352 36.5002 15.4421C36.4764 14.9612 36.4443 14.4139 36.0794 14.0593C35.7119 13.6945 35.1478 13.7002 34.6736 13.7742Z" fill="#0595DA"/>
<path d="M23.9359 12.7034C24.711 12.6141 25.5621 12.5778 26.2575 13C26.8335 13.3342 27.1922 13.9625 27.3084 14.6131C27.4428 15.3593 27.4152 16.156 27.1288 16.864C26.8687 17.5076 26.2833 17.9866 25.6199 18.1441C25.2512 18.2576 24.8624 18.2245 24.4824 18.2296C23.8416 18.2417 23.184 18.0063 22.7235 17.5465C22.3328 17.1357 22.1192 16.5751 22.0621 16.0125C21.9559 15.2286 22.0357 14.3835 22.4465 13.6959C22.7669 13.1601 23.3379 12.8195 23.9359 12.7034ZM24.2587 13.7724C23.9968 13.8426 23.7449 13.9893 23.5954 14.2246C23.4189 14.5098 23.3561 14.851 23.3328 15.182C23.3152 15.6674 23.3278 16.186 23.5734 16.6178C23.7305 16.9144 24.0533 17.0789 24.3705 17.1287C24.8015 17.1733 25.2908 17.1721 25.6344 16.8627C26.01 16.5285 26.0659 15.9825 26.0816 15.5067C26.0804 15.0002 26.0427 14.4224 25.6633 14.048C25.2889 13.6921 24.733 13.7016 24.2587 13.7724Z" fill="#0595DA"/>
<path d="M28.9674 12.8658C29.5334 12.6215 30.1597 12.649 30.7608 12.6605C31.2056 12.6745 31.6365 12.8142 32.0379 13.0023C32.0925 13.3366 32.1227 13.674 32.1754 14.0088C31.8783 14.0656 31.6057 13.9055 31.3211 13.8526C30.7489 13.7205 30.1113 13.6453 29.5636 13.9055C29.1264 14.1275 28.9656 14.6543 28.9681 15.1193C28.9543 15.6901 28.9254 16.3637 29.3682 16.7923C29.6942 17.1387 30.1967 17.168 30.639 17.1438C31.112 17.1476 31.5655 17.0034 32.0291 16.9346C32.0793 17.2624 32.1283 17.5909 32.1541 17.9213C32.0931 18.0839 31.8821 18.0629 31.7439 18.1101C31.1176 18.26 30.4706 18.237 29.8324 18.2204C29.2036 18.1566 28.5365 17.9315 28.1402 17.4021C27.8073 16.9741 27.713 16.4198 27.6621 15.8917C27.6376 15.2009 27.6376 14.4783 27.9266 13.8379C28.1282 13.3889 28.5127 13.0361 28.9674 12.8658Z" fill="#0595DA"/>
<path d="M6.61333 13.9038C6.73456 13.8707 6.85517 13.8356 6.9764 13.8037C6.98771 14.3573 6.97075 14.911 6.98582 15.4646C7.19751 15.2573 7.46071 15.059 7.76976 15.0673C8.0072 15.0685 8.26349 15.0379 8.4802 15.1585C8.86777 15.3364 9.13348 15.7287 9.20572 16.149C9.30245 16.6784 9.19944 17.2678 8.85646 17.69C8.39037 18.2328 7.47264 18.2507 6.99085 17.7193C6.96384 17.8227 6.93808 17.9273 6.91296 18.0325C6.81183 18.0312 6.71006 18.0293 6.60956 18.0274C6.6127 16.6529 6.60516 15.2784 6.61333 13.9038ZM6.97829 15.7772C6.99085 16.3123 6.9607 16.8493 6.99211 17.3839C7.2641 17.7646 7.77667 17.8476 8.20256 17.7417C8.58887 17.6141 8.80495 17.2104 8.85458 16.8219C8.89227 16.459 8.88285 16.0565 8.6655 15.7485C8.48899 15.4735 8.15042 15.3351 7.83446 15.3581C7.50217 15.3594 7.20254 15.5392 6.97829 15.7772Z" fill="#1A1A1A"/>
<path d="M11.5429 15.2507C11.595 15.0549 11.8099 15.0995 11.9619 15.0983C11.8771 15.405 11.7433 15.694 11.6302 15.9906C11.3714 16.6418 11.1227 17.2975 10.8626 17.9487C10.7288 18.2817 10.6183 18.6382 10.3796 18.9125C10.1685 19.1255 9.87326 19.241 9.57866 19.2626C9.57552 19.1536 9.57301 19.0445 9.57112 18.9367C9.82489 18.8646 10.0994 18.767 10.2357 18.5183C10.3607 18.2746 10.5372 17.9908 10.4254 17.7102C10.0793 16.8536 9.70617 16.0072 9.37891 15.1429C9.50328 15.1372 9.62828 15.134 9.75266 15.1333C10.0824 15.8962 10.3563 16.6839 10.7012 17.4397C10.987 16.712 11.2583 15.9785 11.5429 15.2507Z" fill="#1A1A1A"/>
</svg>
