<svg width="40" height="40" viewBox="0 0 40 40" fill="none" xmlns="http://www.w3.org/2000/svg">
<path d="M24.0515 6.86773C22.9794 6.99155 21.462 7.93725 20.7086 8.94881C20.274 9.52835 20.0184 10.0815 19.7972 10.914L19.6865 11.3302L19.6918 11.7728C19.6971 12.0151 19.7102 12.2417 19.7234 12.2785C19.7576 12.3655 19.8235 12.3786 20.2871 12.3813C20.6717 12.3839 20.6955 12.3813 21.0247 12.2838C21.9046 12.0283 22.55 11.6437 23.0083 11.0984C23.119 10.964 23.2849 10.7849 23.3719 10.6953C23.6616 10.4108 24.0331 9.77861 24.2385 9.23068C24.444 8.68011 24.5362 8.16907 24.5626 7.44201L24.5784 6.97574L24.5099 6.90725C24.4335 6.83085 24.3913 6.82822 24.0515 6.86773Z" fill="black"/>
<path d="M23.8061 12.3129C23.2845 12.3392 21.8805 12.7291 20.8715 13.1242C20.2604 13.3639 20.2604 13.3639 20.1392 13.385C19.9285 13.4193 19.4122 13.2691 18.5244 12.9108C18.0529 12.7238 17.5682 12.5816 16.8516 12.4182C16.5513 12.3524 16.0535 12.3445 15.8374 12.4051C15.7505 12.4288 15.4766 12.4841 15.2289 12.5262C14.6968 12.6211 14.3965 12.7133 13.9961 12.9108C12.787 13.5009 11.9624 14.3492 11.3091 15.6768C11.0194 16.2616 10.806 16.8333 10.6479 17.4418C10.4135 18.3453 10.4082 20.0787 10.6374 21.1298C10.6637 21.2589 10.6874 21.4116 10.6874 21.4722C10.6874 21.5987 10.7112 21.6935 10.9324 22.5655C11.1379 23.3715 11.1168 23.3057 11.5093 24.2909C12.0599 25.6739 12.2338 25.9795 13.3586 27.5311C13.8196 28.1659 14.054 28.4557 14.3939 28.8008C14.7495 29.1643 15.0366 29.375 15.4423 29.5753C15.9007 29.7992 16.1009 29.8492 16.5224 29.8466C17.0624 29.8466 17.497 29.7359 18.3242 29.3882C18.8458 29.1696 18.88 29.159 19.8284 28.9641C20.1129 28.9035 20.3763 28.9088 20.7767 28.9746C20.9137 28.9957 21.1192 29.0273 21.2298 29.0431C21.4537 29.0747 21.6803 29.1485 22.2651 29.383C22.9711 29.6675 23.4689 29.7939 23.9905 29.8255C24.7492 29.8729 25.4815 29.5357 26.2639 28.785C27.0621 28.0131 27.8076 26.9568 28.561 25.5316C28.7638 25.147 29.0878 24.3594 29.1432 24.1223C29.1669 24.0275 29.2064 23.9089 29.2354 23.8615C29.2617 23.8141 29.2854 23.7482 29.2854 23.7193C29.2854 23.6244 29.0931 23.4743 28.7533 23.303C28.1132 22.9738 27.4836 22.41 27.0595 21.7752C26.7565 21.3194 26.4509 20.6372 26.3745 20.2341C26.2455 19.5703 26.2086 18.8432 26.2823 18.3374C26.3008 18.2057 26.3666 17.9291 26.4299 17.7184C26.7012 16.8043 26.8882 16.4381 27.3123 15.985C27.4414 15.8507 27.5468 15.7269 27.5468 15.7163C27.5468 15.6716 28.1922 15.1315 28.3502 15.0446C28.4372 14.9945 28.5478 14.9182 28.5952 14.8707C28.7401 14.7285 28.719 14.6732 28.3555 14.2464C27.8682 13.6748 27.2544 13.2059 26.5326 12.8555C26.0821 12.6369 25.7713 12.5289 25.3366 12.4393C24.8914 12.3445 24.2276 12.2892 23.8061 12.3129Z" fill="black"/>
<rect x="0.5" y="0.5" width="39" height="39" rx="19.5" stroke="#E6E8EC"/>
</svg>
