<svg width="18" height="18" viewBox="0 0 18 18" fill="none" xmlns="http://www.w3.org/2000/svg">
<path d="M9 0.875C7.39303 0.875 5.82214 1.35152 4.486 2.24431C3.14985 3.1371 2.10844 4.40605 1.49348 5.8907C0.87852 7.37535 0.717618 9.00901 1.03112 10.5851C1.34463 12.1612 2.11846 13.6089 3.25476 14.7452C4.39106 15.8815 5.8388 16.6554 7.4149 16.9689C8.99099 17.2824 10.6247 17.1215 12.1093 16.5065C13.594 15.8916 14.8629 14.8502 15.7557 13.514C16.6485 12.1779 17.125 10.607 17.125 9C17.1209 6.84638 16.2635 4.78216 14.7407 3.25932C13.2178 1.73648 11.1536 0.87913 9 0.875ZM11.9453 11.0547C12.0627 11.1732 12.1285 11.3332 12.1285 11.5C12.1285 11.6668 12.0627 11.8268 11.9453 11.9453C11.8259 12.0608 11.6662 12.1254 11.5 12.1254C11.3338 12.1254 11.1742 12.0608 11.0547 11.9453L9 9.88281L6.94532 11.9453C6.82585 12.0608 6.66618 12.1254 6.5 12.1254C6.33383 12.1254 6.17415 12.0608 6.05469 11.9453C5.93733 11.8268 5.87149 11.6668 5.87149 11.5C5.87149 11.3332 5.93733 11.1732 6.05469 11.0547L8.11719 9L6.05469 6.94531C5.95503 6.82388 5.90409 6.66971 5.9118 6.51281C5.91951 6.3559 5.9853 6.20747 6.09639 6.09638C6.20747 5.9853 6.3559 5.9195 6.51281 5.9118C6.66972 5.90409 6.82388 5.95502 6.94532 6.05469L9 8.11719L11.0547 6.05469C11.1761 5.95502 11.3303 5.90409 11.4872 5.9118C11.6441 5.9195 11.7925 5.9853 11.9036 6.09638C12.0147 6.20747 12.0805 6.3559 12.0882 6.51281C12.0959 6.66971 12.045 6.82388 11.9453 6.94531L9.88282 9L11.9453 11.0547Z" fill="#141416"/>
</svg>
