<svg width="26" height="27" viewBox="0 0 26 27" fill="none" xmlns="http://www.w3.org/2000/svg">
<g filter="url(#filter0_d_2677_621908)">
<path d="M13 1.875C11.393 1.875 9.82214 2.35152 8.486 3.24431C7.14985 4.1371 6.10844 5.40605 5.49348 6.8907C4.87852 8.37535 4.71762 10.009 5.03112 11.5851C5.34463 13.1612 6.11846 14.6089 7.25476 15.7452C8.39106 16.8815 9.8388 17.6554 11.4149 17.9689C12.991 18.2824 14.6247 18.1215 16.1093 17.5065C17.594 16.8916 18.8629 15.8502 19.7557 14.514C20.6485 13.1779 21.125 11.607 21.125 10C21.1209 7.84638 20.2635 5.78216 18.7407 4.25932C17.2178 2.73648 15.1536 1.87913 13 1.875ZM15.9453 12.0547C16.0627 12.1732 16.1285 12.3332 16.1285 12.5C16.1285 12.6668 16.0627 12.8268 15.9453 12.9453C15.8259 13.0608 15.6662 13.1254 15.5 13.1254C15.3338 13.1254 15.1742 13.0608 15.0547 12.9453L13 10.8828L10.9453 12.9453C10.8259 13.0608 10.6662 13.1254 10.5 13.1254C10.3338 13.1254 10.1742 13.0608 10.0547 12.9453C9.93733 12.8268 9.87149 12.6668 9.87149 12.5C9.87149 12.3332 9.93733 12.1732 10.0547 12.0547L12.1172 10L10.0547 7.94531C9.95503 7.82388 9.90409 7.66971 9.9118 7.51281C9.91951 7.3559 9.9853 7.20747 10.0964 7.09638C10.2075 6.9853 10.3559 6.9195 10.5128 6.9118C10.6697 6.90409 10.8239 6.95502 10.9453 7.05469L13 9.11719L15.0547 7.05469C15.1761 6.95502 15.3303 6.90409 15.4872 6.9118C15.6441 6.9195 15.7925 6.9853 15.9036 7.09638C16.0147 7.20747 16.0805 7.3559 16.0882 7.51281C16.0959 7.66971 16.045 7.82388 15.9453 7.94531L13.8828 10L15.9453 12.0547Z" fill="white"/>
</g>
<defs>
<filter id="filter0_d_2677_621908" x="0.875" y="1.875" width="24.25" height="24.25" filterUnits="userSpaceOnUse" color-interpolation-filters="sRGB">
<feFlood flood-opacity="0" result="BackgroundImageFix"/>
<feColorMatrix in="SourceAlpha" type="matrix" values="0 0 0 0 0 0 0 0 0 0 0 0 0 0 0 0 0 0 127 0" result="hardAlpha"/>
<feOffset dy="4"/>
<feGaussianBlur stdDeviation="2"/>
<feComposite in2="hardAlpha" operator="out"/>
<feColorMatrix type="matrix" values="0 0 0 0 0 0 0 0 0 0 0 0 0 0 0 0 0 0 0.25 0"/>
<feBlend mode="normal" in2="BackgroundImageFix" result="effect1_dropShadow_2677_621908"/>
<feBlend mode="normal" in="SourceGraphic" in2="effect1_dropShadow_2677_621908" result="shape"/>
</filter>
</defs>
</svg>
