<svg width="49" height="48" viewBox="0 0 49 48" fill="none" xmlns="http://www.w3.org/2000/svg">
<path d="M31.9318 8.32944H12.2097C12.0475 8.32944 11.892 8.39386 11.7774 8.50851C11.6627 8.62317 11.5983 8.77868 11.5983 8.94083C11.5983 9.24199 11.6133 9.5393 11.6364 9.83452H7.4349C7.22737 9.83198 7.02055 9.80976 6.81722 9.76814C6.68984 9.28975 6.67417 8.78849 6.77141 8.30308C6.86866 7.81768 7.07621 7.36113 7.37804 6.96874C7.67987 6.57634 8.06788 6.2586 8.51209 6.04008C8.9563 5.82156 9.44481 5.7081 9.93986 5.70849H26.1854C26.3476 5.70849 26.5031 5.64407 26.6178 5.52942C26.7324 5.41476 26.7968 5.25925 26.7968 5.0971C26.7968 4.93494 26.7324 4.77944 26.6178 4.66478C26.5031 4.55012 26.3476 4.4857 26.1854 4.4857H9.93986C9.35482 4.48543 8.77546 4.60046 8.2349 4.82422C7.69434 5.04797 7.20318 5.37608 6.78949 5.78976C6.3758 6.20345 6.0477 6.69461 5.82394 7.23517C5.60018 7.77573 5.48516 8.35509 5.48543 8.94014C5.48543 9.02154 5.49172 9.10259 5.49626 9.18469C5.09651 8.88295 4.77183 8.49296 4.54755 8.04513C4.32328 7.5973 4.20545 7.10372 4.20325 6.60287C4.20307 6.17843 4.28653 5.75812 4.44887 5.36595C4.61121 4.97379 4.84925 4.61746 5.14937 4.31734C5.44949 4.01722 5.80582 3.77918 6.19799 3.61684C6.59015 3.4545 7.01046 3.37104 7.4349 3.37122H23.6805C23.8426 3.37122 23.9981 3.30681 24.1128 3.19215C24.2274 3.07749 24.2919 2.92198 24.2919 2.75983C24.2919 2.59768 24.2274 2.44217 24.1128 2.32751C23.9981 2.21285 23.8426 2.14844 23.6805 2.14844H7.4349C6.84986 2.14816 6.2705 2.26319 5.72994 2.48695C5.18938 2.71071 4.69821 3.03881 4.28453 3.4525C3.87084 3.86618 3.54274 4.35735 3.31898 4.89791C3.09522 5.43847 2.98019 6.01783 2.98047 6.60287C2.98471 7.51085 3.26455 8.39615 3.78298 9.14159C4.3014 9.88704 5.03396 10.4575 5.88371 10.7775C6.23859 11.556 6.80938 12.2164 7.52833 12.6803C8.24729 13.1442 9.08424 13.3921 9.93986 13.3946H12.507C13.088 14.7518 13.9267 15.9835 14.9767 17.0213C13.087 18.8552 13.1645 21.9603 13.1684 22.1036C13.1736 22.2621 13.2403 22.4123 13.3542 22.5226C13.4681 22.6329 13.6205 22.6946 13.7791 22.6947H13.7997C13.9617 22.6893 14.115 22.6198 14.2258 22.5014C14.3366 22.383 14.3958 22.2255 14.3905 22.0634C14.3905 22.0341 14.3206 19.2811 15.8948 17.8361C16.6117 18.4081 17.3951 18.8914 18.2279 19.2755C17.0837 21.1638 17.2591 23.5377 17.2682 23.6481C17.2812 23.8006 17.351 23.9426 17.4637 24.0461C17.5764 24.1496 17.7238 24.2071 17.8768 24.2071C17.8936 24.2071 17.9117 24.2071 17.9278 24.205C18.089 24.1915 18.2383 24.1147 18.343 23.9914C18.4478 23.8682 18.4994 23.7084 18.4868 23.5472C18.485 23.5231 18.3194 21.2871 19.378 19.7314C20.3234 20.0475 21.3064 20.2372 22.3015 20.2956C21.9323 21.6192 21.8948 23.0134 22.1925 24.3549C22.2311 24.5124 22.3307 24.6482 22.4694 24.7323C22.608 24.8164 22.7744 24.8419 22.932 24.8033C23.0895 24.7647 23.2252 24.6651 23.3093 24.5265C23.3934 24.3878 23.419 24.2214 23.3804 24.0639C23.3751 24.0419 22.8913 21.9935 23.5924 20.3169H26.1847C27.8297 20.3191 29.4065 20.9738 30.5692 22.1374C31.7318 23.3011 32.3853 24.8785 32.386 26.5234C32.3855 28.5835 31.5669 30.559 30.11 32.0155C28.6532 33.472 26.6775 34.2902 24.6175 34.2902H24.5539C24.5473 34.2902 24.541 34.2902 24.534 34.2923C22.1002 33.9524 19.7406 33.207 17.5533 32.0871C17.4725 32.0455 17.3835 32.0225 17.2927 32.0196C17.2019 32.0167 17.1117 32.0341 17.0284 32.0705C16.9452 32.1068 16.8711 32.1613 16.8115 32.2298C16.752 32.2984 16.7084 32.3794 16.684 32.4669C15.884 35.3411 16.9286 36.8972 18.121 37.7287C17.3402 40.4401 18.3191 42.5363 19.704 43.4478C19.7718 43.4924 19.8478 43.5231 19.9275 43.538C20.0073 43.5529 20.0892 43.5518 20.1685 43.5348C20.2479 43.5178 20.323 43.4851 20.3896 43.4388C20.4562 43.3924 20.5129 43.3332 20.5564 43.2648C21.4236 41.8987 22.5723 40.5048 25.5475 37.8422H27.3167C31.8423 37.8421 36.1826 36.0443 39.3826 32.8441C42.5827 29.644 44.3805 25.3037 44.3805 20.7781C44.3768 17.4776 43.064 14.3134 40.7303 11.9797C38.3965 9.64588 35.2323 8.33314 31.9318 8.32944ZM39.0355 31.439C36.5599 31.3877 34.4819 30.5202 33.2538 29.0284C33.4895 28.212 33.6089 27.3665 33.6084 26.5168C33.6072 25.3877 33.3465 24.2741 32.8465 23.2617C34.7463 22.7513 39.4782 21.045 42.2095 16.2706C42.8357 17.6905 43.1587 19.2255 43.1577 20.7774C43.1675 24.7221 41.6964 28.5269 39.0355 31.439ZM9.93986 12.1718C9.47903 12.1696 9.02398 12.069 8.60513 11.8768C8.18628 11.6846 7.81328 11.4052 7.51106 11.0573H11.7985C11.8696 11.4331 11.9596 11.8051 12.0682 12.1718H9.93986ZM12.8396 9.55153H27.2091C27.8855 10.3201 28.2149 11.8982 28.0734 13.7569C27.8956 16.0885 27.0253 18.2829 25.9821 19.092H22.9727C20.3872 19.0885 17.9002 18.1001 16.0177 16.3279C14.1352 14.5556 12.999 12.1321 12.8396 9.55153ZM27.5319 19.2213C28.5625 17.8417 29.1533 15.6976 29.2941 13.8505C29.4265 12.1106 29.1984 10.6192 28.6617 9.55327H31.9318C33.8597 9.5542 35.7549 10.0514 37.4349 10.9971C39.1149 11.9428 40.5231 13.3051 41.524 14.9527C38.9506 20.1782 33.6235 21.8119 32.1855 22.1651C31.0689 20.6237 29.403 19.5699 27.5319 19.2213ZM19.9174 42.0158C19.268 41.2716 18.6664 39.8032 19.4248 37.6672C19.4733 37.5308 19.4718 37.3817 19.4206 37.2463C19.3694 37.111 19.2719 36.9981 19.1453 36.9279C17.9061 36.2407 17.4289 35.1224 17.6979 33.5216C19.382 34.3088 21.1526 34.896 22.9734 35.2712C22.8461 35.517 22.7788 35.7893 22.777 36.066C22.7772 36.4177 22.8817 36.7615 23.0772 37.0538C23.2728 37.3461 23.5507 37.5738 23.8758 37.7081C21.7852 39.6359 20.7053 40.8807 19.9174 42.0158ZM35.7577 34.183C33.2305 35.7758 30.304 36.6205 27.3167 36.6194H24.5539C24.4096 36.6158 24.2724 36.5559 24.1716 36.4526C24.0708 36.3492 24.0144 36.2106 24.0144 36.0662C24.0144 35.9219 24.0708 35.7832 24.1716 35.6799C24.2724 35.5765 24.4096 35.5166 24.5539 35.513H24.6175C26.3317 35.5126 28.0102 35.0225 29.4553 34.1002C30.9003 33.178 32.0518 31.8621 32.7741 30.3074C34.1734 31.6133 35.9685 32.4147 37.8749 32.5846C37.2147 33.1751 36.5065 33.7097 35.7577 34.183Z" fill="#23262F"/>
<path d="M33.7284 12.8764C34.4612 13.098 35.164 13.4088 35.821 13.8018C35.9637 13.8819 36.1321 13.9033 36.2903 13.8613C36.4485 13.8194 36.5841 13.7174 36.6683 13.577C36.7526 13.4367 36.7787 13.269 36.7413 13.1097C36.7039 12.9503 36.6058 12.8118 36.4679 12.7236C35.7221 12.2769 34.9242 11.9235 34.0921 11.6714C34.013 11.6475 33.93 11.6394 33.8478 11.6476C33.7656 11.6558 33.6859 11.6801 33.6131 11.7192C33.5403 11.7582 33.4759 11.8112 33.4235 11.8751C33.3712 11.939 33.332 12.0126 33.3081 12.0917C33.2842 12.1708 33.2762 12.2538 33.2844 12.3359C33.2926 12.4181 33.3169 12.4979 33.3559 12.5707C33.3949 12.6435 33.4479 12.7079 33.5118 12.7602C33.5757 12.8126 33.6493 12.8518 33.7284 12.8757V12.8764Z" fill="#23262F"/>
<path d="M21.0586 14.7383C21.3962 14.7383 21.7262 14.6382 22.007 14.4506C22.2877 14.263 22.5065 13.9964 22.6357 13.6845C22.7649 13.3726 22.7987 13.0294 22.7328 12.6982C22.667 12.3671 22.5044 12.0629 22.2656 11.8242C22.0269 11.5855 21.7227 11.4229 21.3916 11.357C21.0605 11.2912 20.7173 11.325 20.4053 11.4542C20.0934 11.5834 19.8268 11.8022 19.6392 12.0829C19.4517 12.3636 19.3516 12.6936 19.3516 13.0313C19.352 13.4838 19.532 13.9178 19.8521 14.2378C20.1721 14.5578 20.606 14.7378 21.0586 14.7383ZM21.0586 12.582C21.1474 12.582 21.2343 12.6084 21.3082 12.6577C21.382 12.7071 21.4396 12.7773 21.4736 12.8593C21.5076 12.9414 21.5165 13.0317 21.4992 13.1189C21.4818 13.206 21.4391 13.2861 21.3762 13.3489C21.3134 13.4117 21.2334 13.4545 21.1462 13.4718C21.0591 13.4892 20.9688 13.4803 20.8867 13.4463C20.8046 13.4123 20.7344 13.3547 20.6851 13.2808C20.6357 13.2069 20.6094 13.1201 20.6094 13.0313C20.6096 12.9122 20.657 12.798 20.7412 12.7138C20.8254 12.6296 20.9395 12.5822 21.0586 12.582Z" fill="#23262F"/>
</svg>
