<svg width="25" height="25" viewBox="0 0 25 25" fill="none" xmlns="http://www.w3.org/2000/svg">
<path d="M11.5 6.77833C12.88 6.77833 14.13 7.33833 15.04 8.23833L12.5 10.7783H18.5V4.77833L16.45 6.82833C15.8007 6.17727 15.0292 5.66099 14.1797 5.30917C13.3301 4.95736 12.4195 4.77695 11.5 4.77833C7.97 4.77833 5.07 7.38833 4.58 10.7783H6.6C6.83053 9.64896 7.44418 8.63393 8.3371 7.90502C9.23001 7.17611 10.3473 6.77809 11.5 6.77833ZM17.14 15.9183C17.8216 14.9946 18.2616 13.9153 18.42 12.7783H16.4C16.1695 13.9077 15.5558 14.9227 14.6629 15.6516C13.77 16.3805 12.6527 16.7786 11.5 16.7783C10.12 16.7783 8.87 16.2183 7.96 15.3183L10.5 12.7783H4.5V18.7783L6.55 16.7283C7.19927 17.3794 7.97085 17.8957 8.82035 18.2475C9.66985 18.5993 10.5805 18.7797 11.5 18.7783C13.05 18.7783 14.48 18.2683 15.64 17.4183L20.5 22.2683L21.99 20.7783L17.14 15.9183Z" fill="#DA291C"/>
</svg>
