<svg width="334" height="180" viewBox="0 0 334 180" fill="none" xmlns="http://www.w3.org/2000/svg">
<g clip-path="url(#clip0_2533_579871)">
<path d="M167 180C259.232 180 334 173.508 334 165.5C334 157.492 259.232 151 167 151C74.7684 151 0 157.492 0 165.5C0 173.508 74.7684 180 167 180Z" fill="#F4F5F6"/>
<path d="M70.6646 10C43.1227 10 43.0801 49.1332 70.6646 49.1332C98.2492 49.1332 98.2492 10 70.6646 10Z" fill="#F4F5F6"/>
<path d="M87.414 33.2332C85.945 39.9634 80.36 45.8072 70.666 45.8072C47.7794 45.8072 47.8078 13.3262 70.666 13.3262C70.8151 13.3262 70.9641 13.3262 71.1131 13.3333C49.6033 13.7304 49.7097 44.4881 71.5318 44.4881C80.431 44.4881 85.7392 39.3393 87.414 33.2332Z" fill="#D4D7DE"/>
<path d="M70.8276 17.6094C71.2179 17.6094 71.5444 17.9072 71.5444 18.2618V19.354C73.6876 19.5171 75.2417 20.1696 76.8456 21.2617C77.1152 21.4532 77.2643 21.6163 77.2643 21.8858C77.2643 22.2688 76.9094 22.5666 76.4907 22.5666C76.3133 22.5666 76.1643 22.5383 75.9514 22.3751C74.4895 21.3114 73.0631 20.7653 71.4805 20.6022V28.2331C76.0082 29.1054 77.9172 30.6585 77.9172 33.3251C77.9172 36.2115 75.263 38.254 71.5444 38.3674V40.495C71.5444 40.8496 71.2179 41.1475 70.8276 41.1475C70.4373 41.1475 70.1109 40.8496 70.1109 40.495V38.3461C67.5206 38.1547 65.4058 37.2824 63.4046 35.7009C63.1988 35.5377 63.0781 35.3746 63.0781 35.1264C63.0781 34.7718 63.433 34.4456 63.8233 34.4456C64.0929 34.4456 64.2704 34.552 64.3626 34.6371C66.0303 36.0555 67.8471 36.8994 70.1747 37.1192V29.3536C65.7039 28.4529 63.8588 26.9565 63.8588 24.2332C63.8588 21.5099 66.4774 19.3824 70.118 19.3043V18.2689C70.118 17.9143 70.4444 17.6165 70.8347 17.6165L70.8276 17.6094ZM70.1747 27.9636V20.5242C67.2864 20.5809 65.3774 22.1553 65.3774 24.1198C65.3774 25.9707 66.3284 27.1196 70.1747 27.9636ZM71.4876 29.6231V37.1405C74.4682 37.0838 76.4056 35.5023 76.4056 33.4385C76.4056 31.5592 75.3624 30.4174 71.4876 29.6231Z" fill="#D4D7DE"/>
<path d="M279.014 44.2119C254.218 48.6585 260.768 85.3663 285.607 80.9126C310.402 76.4659 303.852 39.7581 279.014 44.2119Z" fill="#D4D7DE"/>
<path d="M281.34 43.7927C257.708 48.0336 264.259 84.7414 287.933 80.4934C311.565 76.2524 305.014 39.5446 281.34 43.7927Z" fill="#F4F5F6"/>
<path d="M299.628 63.0109C299.501 69.5496 295.69 75.8898 287.372 77.3791C267.729 80.9038 262.293 50.4298 281.901 46.9193C282.029 46.898 282.156 46.8767 282.284 46.8555C263.89 50.5362 269.162 79.3648 287.89 76.0103C295.533 74.6416 299.217 68.9964 299.621 63.0109H299.628Z" fill="#D4D7DE"/>
<path d="M286.059 50.8926C286.393 50.9351 286.648 51.2472 286.606 51.5876L286.485 52.6159C288.323 52.9918 289.593 53.7648 290.864 54.9633C291.077 55.169 291.183 55.3392 291.155 55.6016C291.112 55.9633 290.771 56.2115 290.409 56.169C290.253 56.1477 290.126 56.1122 289.969 55.9349C288.827 54.7789 287.649 54.1194 286.301 53.8074L285.449 61.0269C289.274 62.3106 290.75 63.9772 290.452 66.5019C290.133 69.2323 287.606 70.8989 284.37 70.6223L284.136 72.6364C284.093 72.9697 283.781 73.225 283.448 73.1825C283.114 73.1399 282.859 72.8279 282.901 72.4875L283.143 70.4521C280.921 70.0053 279.183 68.9699 277.636 67.2678C277.472 67.0905 277.387 66.9274 277.416 66.6934C277.458 66.3601 277.799 66.0835 278.139 66.126C278.374 66.1544 278.516 66.275 278.579 66.3601C279.864 67.8706 281.347 68.8564 283.334 69.2961L284.2 61.9489C280.432 60.644 278.998 59.0341 279.303 56.4597C279.608 53.857 282.114 52.1408 285.272 52.4315L285.385 51.4528C285.428 51.1195 285.74 50.8642 286.073 50.9068L286.059 50.8926ZM284.342 60.6227L285.172 53.5875C282.667 53.3464 280.836 54.6442 280.616 56.5023C280.41 58.254 281.106 59.4383 284.342 60.6227ZM285.293 62.3318L284.455 69.445C287.039 69.6933 288.891 68.3954 289.125 66.4381C289.338 64.658 288.557 63.4665 285.293 62.3248V62.3318Z" fill="#D4D7DE"/>
<path d="M321.317 114.373C321.253 115.217 321.019 115.962 320.614 116.543C320.593 116.394 320.565 116.246 320.522 116.097C320.487 115.941 320.444 115.785 320.387 115.629C320.103 114.749 319.571 113.77 318.691 112.707C318.613 112.607 318.528 112.515 318.443 112.416C318.422 112.387 318.4 112.366 318.372 112.345C318.329 112.295 318.287 112.253 318.251 112.21C311.389 103.523 304.86 117.6 304.718 117.919C304.718 117.919 304.342 103.877 311.829 103.494C317.698 103.189 321.651 110.033 321.303 114.373H321.317Z" fill="#F4F5F6"/>
<path d="M320.623 116.543C320.453 116.792 320.247 117.011 320.006 117.189C316.429 119.926 305.443 118.04 304.762 117.926H304.727C315.052 118.912 317.884 115.16 318.38 112.338C318.402 112.366 318.43 112.388 318.451 112.409C318.537 112.508 318.622 112.6 318.7 112.7C319.58 113.77 320.112 114.742 320.396 115.621C320.446 115.777 320.488 115.941 320.531 116.09C320.566 116.238 320.602 116.394 320.623 116.536V116.543Z" fill="#F4F5F6"/>
<path opacity="0.2" d="M320.623 116.543C320.453 116.792 320.247 117.011 320.006 117.189C316.429 119.926 305.443 118.04 304.762 117.926H304.727C315.052 118.912 317.884 115.16 318.38 112.338C318.402 112.366 318.43 112.388 318.451 112.409C318.537 112.508 318.622 112.6 318.7 112.7C319.58 113.77 320.112 114.742 320.396 115.621C320.446 115.777 320.488 115.941 320.531 116.09C320.566 116.238 320.602 116.394 320.623 116.536V116.543Z" fill="#141416"/>
<path d="M287.877 115.969C288.026 116.799 288.324 117.522 288.778 118.069C288.785 117.92 288.8 117.771 288.821 117.615C288.842 117.459 288.87 117.295 288.906 117.132C289.105 116.232 289.538 115.203 290.318 114.062C290.389 113.955 290.46 113.856 290.538 113.75C290.559 113.721 290.574 113.7 290.602 113.672C290.638 113.622 290.68 113.572 290.709 113.523C296.712 104.218 304.554 117.615 304.724 117.92C304.724 117.92 303.759 103.906 296.265 104.232C290.396 104.487 287.111 111.679 287.87 115.962L287.877 115.969Z" fill="#F4F5F6"/>
<path d="M288.777 118.061C288.969 118.288 289.196 118.487 289.452 118.65C293.27 121.033 304.028 118.111 304.695 117.933H304.723C294.54 119.898 291.361 116.43 290.601 113.664C290.58 113.692 290.559 113.714 290.537 113.742C290.459 113.848 290.388 113.955 290.317 114.054C289.544 115.203 289.111 116.224 288.905 117.125C288.87 117.288 288.841 117.451 288.82 117.607C288.799 117.763 288.784 117.912 288.777 118.061Z" fill="#F4F5F6"/>
<path opacity="0.2" d="M288.777 118.061C288.969 118.288 289.196 118.487 289.452 118.65C293.27 121.033 304.028 118.111 304.695 117.933H304.723C294.54 119.898 291.361 116.43 290.601 113.664C290.58 113.692 290.559 113.714 290.537 113.742C290.459 113.848 290.388 113.955 290.317 114.054C289.544 115.203 289.111 116.224 288.905 117.125C288.87 117.288 288.841 117.451 288.82 117.607C288.799 117.763 288.784 117.912 288.777 118.061Z" fill="#141416"/>
<path d="M324.815 164.591H284.883L288.183 119.578L320.827 120.975L324.815 164.591Z" fill="#D4D7DE"/>
<path d="M334.035 164.592H321.637L319.898 120.977L331.821 122.012L334.035 164.592Z" fill="#B1B5C3"/>
<path d="M284.336 119.579V128.373L319.897 127.281V117.225L284.336 119.579Z" fill="#D4D7DE"/>
<path d="M333.276 128.373L319.898 127.281V117.225L334.035 119.579L333.276 128.373Z" fill="#B1B5C3"/>
<path d="M307.783 164.591H299.423L298.586 118.635L308.45 117.982L307.783 164.591Z" fill="#F4F5F6"/>
<path d="M326.752 164.592H329.597L329.342 118.799L325.375 118.133L326.752 164.592Z" fill="#F4F5F6"/>
<path d="M290.118 134.622C289.962 135.402 289.664 136.069 289.217 136.565C289.217 136.423 289.203 136.281 289.181 136.139C289.167 135.991 289.146 135.842 289.11 135.686C288.947 134.835 288.564 133.863 287.861 132.771C287.797 132.672 287.734 132.572 287.663 132.473C287.648 132.445 287.627 132.423 287.606 132.395C287.57 132.345 287.535 132.303 287.506 132.253C282.099 123.381 274.42 135.756 274.25 136.047C274.25 136.047 275.492 122.927 282.51 123.409C288.01 123.785 290.92 130.615 290.111 134.622H290.118Z" fill="#D4D7DE"/>
<path d="M289.217 136.565C289.033 136.777 288.813 136.955 288.572 137.096C284.931 139.238 274.911 136.245 274.286 136.061H274.258C283.767 138.146 286.833 134.969 287.614 132.395C287.635 132.423 287.649 132.444 287.67 132.473C287.741 132.572 287.805 132.671 287.869 132.77C288.565 133.863 288.955 134.834 289.118 135.685C289.147 135.841 289.168 135.99 289.189 136.139C289.203 136.281 289.217 136.43 289.225 136.565H289.217Z" fill="#B1B5C3"/>
<path d="M258.773 132.323C258.815 133.118 259.014 133.827 259.376 134.38C259.397 134.245 259.433 134.104 259.468 133.962C259.504 133.82 259.553 133.671 259.603 133.522C259.887 132.699 260.412 131.799 261.263 130.82C261.342 130.735 261.42 130.643 261.505 130.55C261.526 130.529 261.547 130.508 261.569 130.487C261.604 130.444 261.654 130.402 261.682 130.359C268.325 122.373 274.123 135.735 274.243 136.04C274.243 136.04 274.932 122.877 267.913 122.331C262.413 121.905 258.545 128.231 258.758 132.316L258.773 132.323Z" fill="#D4D7DE"/>
<path d="M259.375 134.381C259.531 134.615 259.716 134.827 259.936 135.005C263.228 137.657 273.575 136.153 274.221 136.061H274.25C264.534 136.742 261.965 133.154 261.568 130.494C261.547 130.515 261.525 130.537 261.504 130.558C261.419 130.65 261.341 130.735 261.263 130.827C260.411 131.806 259.893 132.714 259.602 133.529C259.552 133.678 259.503 133.827 259.467 133.969C259.432 134.111 259.396 134.253 259.375 134.388V134.381Z" fill="#B1B5C3"/>
<path d="M256.094 164.492H293.096L291.74 138.316L259.791 137.174L256.094 164.492Z" fill="#F4F5F6"/>
<path opacity="0.6" d="M256.094 164.492H293.096L291.74 138.316L259.791 137.174L256.094 164.492Z" fill="white"/>
<path d="M248.527 164.492H259.037L260.648 137.174L249.805 139.195L248.527 164.492Z" fill="#F4F5F6"/>
<path d="M293.598 137.274V146.409L260.648 145.281V134.82L293.598 137.274Z" fill="#F4F5F6"/>
<path opacity="0.4" d="M293.598 137.274V146.409L260.648 145.281V134.82L293.598 137.274Z" fill="white"/>
<path d="M248.257 146.409L260.648 145.281V134.82L247.555 137.274L248.257 146.409Z" fill="#F4F5F6"/>
<path opacity="0.1" d="M248.257 146.409L260.648 145.281V134.82L247.555 137.274L248.257 146.409Z" fill="#141416"/>
<path d="M282.982 136.48L282.663 164.493H273.927L273.785 135.799L282.982 136.48Z" fill="#D4D7DE"/>
<path d="M255.43 135.799L252.145 136.416V164.493H254.891L255.43 135.799Z" fill="#D4D7DE"/>
<path d="M62.5204 134.622C62.3643 135.402 62.0662 136.069 61.6191 136.565C61.6191 136.423 61.6049 136.281 61.5836 136.139C61.5694 135.991 61.5481 135.842 61.5127 135.686C61.3494 134.835 60.9662 133.863 60.2637 132.771C60.1998 132.672 60.1359 132.572 60.065 132.473C60.0508 132.445 60.0295 132.423 60.0082 132.395C59.9727 132.345 59.9372 132.303 59.9088 132.253C54.5012 123.381 46.8227 135.756 46.6523 136.047C46.6523 136.047 47.8943 122.927 54.9128 123.409C60.4127 123.785 63.3223 130.615 62.5133 134.622H62.5204Z" fill="#D4D7DE"/>
<path d="M61.6276 136.565C61.4431 136.777 61.2231 136.955 60.9818 137.096C57.3413 139.238 47.3209 136.245 46.6964 136.061H46.668C56.1774 138.146 59.2432 134.969 60.0238 132.395C60.0451 132.423 60.0593 132.444 60.0806 132.473C60.1515 132.572 60.2154 132.671 60.2793 132.77C60.9748 133.863 61.3651 134.834 61.5283 135.685C61.5567 135.841 61.578 135.99 61.5993 136.139C61.6134 136.281 61.6276 136.43 61.6347 136.565H61.6276Z" fill="#B1B5C3"/>
<path d="M31.1827 132.323C31.2253 133.118 31.424 133.827 31.7859 134.38C31.8072 134.245 31.8427 134.104 31.8782 133.962C31.9137 133.82 31.9634 133.671 32.013 133.522C32.2969 132.699 32.822 131.799 33.6736 130.82C33.7517 130.735 33.8298 130.643 33.9149 130.55C33.9362 130.529 33.9575 130.508 33.9788 130.487C34.0143 130.444 34.064 130.402 34.0923 130.359C40.7348 122.373 46.5327 135.735 46.6534 136.04C46.6534 136.04 47.3417 122.877 40.3232 122.331C34.8233 121.905 30.9556 128.231 31.1685 132.316L31.1827 132.323Z" fill="#D4D7DE"/>
<path d="M31.7852 134.381C31.9413 134.615 32.1258 134.827 32.3458 135.005C35.6386 137.657 45.9855 136.153 46.6313 136.061H46.6597C36.9444 136.742 34.3754 133.154 33.978 130.494C33.9567 130.515 33.9354 130.537 33.9141 130.558C33.829 130.65 33.7509 130.735 33.6729 130.827C32.8213 131.806 32.3032 132.714 32.0122 133.529C31.9626 133.678 31.9129 133.827 31.8774 133.969C31.8419 134.111 31.8064 134.253 31.7852 134.388V134.381Z" fill="#B1B5C3"/>
<path d="M28.5039 164.492H65.5057L64.1502 138.316L32.2012 137.174L28.5039 164.492Z" fill="#F4F5F6"/>
<path opacity="0.6" d="M28.5039 164.492H65.5057L64.1502 138.316L32.2012 137.174L28.5039 164.492Z" fill="white"/>
<path d="M20.9375 164.492H31.4476L33.0585 137.174L22.2149 139.195L20.9375 164.492Z" fill="#F4F5F6"/>
<path d="M66.0082 137.274V146.409L33.0586 145.281V134.82L66.0082 137.274Z" fill="#F4F5F6"/>
<path opacity="0.4" d="M66.0082 137.274V146.409L33.0586 145.281V134.82L66.0082 137.274Z" fill="white"/>
<path d="M20.6674 146.409L33.0581 145.281V134.82L19.9648 137.274L20.6674 146.409Z" fill="#F4F5F6"/>
<path opacity="0.1" d="M20.6674 146.409L33.0581 145.281V134.82L19.9648 137.274L20.6674 146.409Z" fill="#141416"/>
<path d="M55.3918 136.48L55.0654 164.493H46.3294L46.1875 135.799L55.3918 136.48Z" fill="#D4D7DE"/>
<path d="M27.8333 135.799L24.5547 136.416V164.493H27.3011L27.8333 135.799Z" fill="#D4D7DE"/>
<path d="M26.4776 99.5006C26.6763 96.6 27.0311 93.6994 27.7053 90.8697C28.3156 88.3166 29.1814 85.6997 30.7924 83.5934C32.2684 81.6644 34.3832 80.1254 36.8387 79.8276C39.2089 79.5368 41.4302 80.5935 43.2043 82.0828C45.3972 83.9338 47.0791 86.3734 48.6616 88.7492C50.4287 91.4016 51.9261 94.1603 53.3738 96.99C53.4235 97.0822 53.2815 97.1602 53.2319 97.068C52.0396 94.671 50.5706 92.3448 49.0165 90.1747C47.5475 88.118 45.9791 86.0685 44.1624 84.3026C42.5373 82.714 40.4721 81.2318 38.1161 81.1609C35.7742 81.0828 33.6097 82.4019 32.1975 84.2104C30.622 86.2316 29.8201 88.7492 29.2169 91.203C28.5569 93.8979 28.2305 96.6567 28.0034 99.4225C27.5421 105.11 27.4144 110.826 27.2866 116.528C27.2157 119.755 27.1731 122.982 27.1376 126.209C27.1234 127.847 27.1092 129.478 27.095 131.116C27.0808 132.691 27.166 134.286 26.9034 135.847C26.8537 136.166 26.3286 136.13 26.2789 135.832C26.0163 134.357 26.0802 132.847 26.0589 131.35C26.0376 129.797 26.0163 128.251 26.0021 126.698C25.9737 123.684 25.9596 120.67 25.9667 117.663C25.9808 111.621 26.0589 105.55 26.4705 99.5147L26.4776 99.5006Z" fill="#50515C"/>
<path d="M34.605 95.2177C34.9102 93.6079 35.4495 91.5158 36.365 90.2676C38.0114 88.0265 39.7927 89.0052 38.1462 91.4803C36.3508 94.1894 36.0953 96.3241 35.8328 97.5935C35.8328 97.5935 38.6004 101.544 41.9429 103.494C41.801 101.976 41.3681 99.636 41.6662 97.3808C42.3049 92.5015 45.2642 92.771 44.5332 96.6503C43.9442 99.7637 43.7029 103.061 43.8661 104.494C44.8667 105.253 46.5841 105.905 47.4357 106.239C47.2441 105.671 47.0383 104.99 46.8183 104.168C45.6332 99.792 48.5499 98.4233 48.6492 100.884C48.7202 102.905 49.5079 106.047 49.7847 107.097C51.3885 107.636 52.7156 108.004 53.5317 108.288C56.9097 109.472 59.0103 112.033 59.0103 112.033C60.5432 110.671 61.778 109.019 62.7431 107.203C61.7212 106.324 60.1103 105.019 57.8678 103.437C53.6666 100.473 55.1285 96.7354 58.4639 99.0616C60.8696 100.742 62.7289 103.849 63.5734 105.444C64.7302 102.678 65.3405 99.6431 65.4753 96.707C62.1754 93.615 54.0214 89.3031 56.4768 89.3031C58.691 89.3031 63.6373 92.5441 65.4611 93.7994C65.4115 92.9271 65.3192 92.076 65.1844 91.2604C62.076 89.2251 51.9847 86.0621 53.5885 85.1472C55.3555 84.1473 62.4025 87.4095 64.5315 88.4379C64.0631 86.9273 63.4315 85.6082 62.6651 84.5728C58.3716 78.8283 50.6292 76.8497 47.2512 77.9418C44.8596 78.7148 45.5622 84.7784 45.0442 84.5728C35.4424 80.7148 31.078 83.4381 34.6121 95.2106L34.605 95.2177ZM58.1374 94.5511C58.8187 93.7284 61.9696 96.1468 61.0612 97.473C60.1529 98.7921 57.2645 95.6078 58.1374 94.5511ZM41.6733 89.3811C42.5036 89.9059 41.2759 92.9696 39.9985 92.0406C38.9127 91.2534 40.8359 88.8492 41.6733 89.3811Z" fill="#DA291C"/>
<path opacity="0.1" d="M34.605 95.2177C34.9102 93.6079 35.4495 91.5158 36.365 90.2676C38.0114 88.0265 39.7927 89.0052 38.1462 91.4803C36.3508 94.1894 36.0953 96.3241 35.8328 97.5935C35.8328 97.5935 38.6004 101.544 41.9429 103.494C41.801 101.976 41.3681 99.636 41.6662 97.3808C42.3049 92.5015 45.2642 92.771 44.5332 96.6503C43.9442 99.7637 43.7029 103.061 43.8661 104.494C44.8667 105.253 46.5841 105.905 47.4357 106.239C47.2441 105.671 47.0383 104.99 46.8183 104.168C45.6332 99.792 48.5499 98.4233 48.6492 100.884C48.7202 102.905 49.5079 106.047 49.7847 107.097C51.3885 107.636 52.7156 108.004 53.5317 108.288C56.9097 109.472 59.0103 112.033 59.0103 112.033C60.5432 110.671 61.778 109.019 62.7431 107.203C61.7212 106.324 60.1103 105.019 57.8678 103.437C53.6666 100.473 55.1285 96.7354 58.4639 99.0616C60.8696 100.742 62.7289 103.849 63.5734 105.444C64.7302 102.678 65.3405 99.6431 65.4753 96.707C62.1754 93.615 54.0214 89.3031 56.4768 89.3031C58.691 89.3031 63.6373 92.5441 65.4611 93.7994C65.4115 92.9271 65.3192 92.076 65.1844 91.2604C62.076 89.2251 51.9847 86.0621 53.5885 85.1472C55.3555 84.1473 62.4025 87.4095 64.5315 88.4379C64.0631 86.9273 63.4315 85.6082 62.6651 84.5728C58.3716 78.8283 50.6292 76.8497 47.2512 77.9418C44.8596 78.7148 45.5622 84.7784 45.0442 84.5728C35.4424 80.7148 31.078 83.4381 34.6121 95.2106L34.605 95.2177ZM58.1374 94.5511C58.8187 93.7284 61.9696 96.1468 61.0612 97.473C60.1529 98.7921 57.2645 95.6078 58.1374 94.5511ZM41.6733 89.3811C42.5036 89.9059 41.2759 92.9696 39.9985 92.0406C38.9127 91.2534 40.8359 88.8492 41.6733 89.3811Z" fill="black"/>
<path d="M42.9288 90.3248C43.3617 89.4667 43.8159 88.6157 44.3055 87.793C44.7739 87.0129 45.2778 86.176 45.8952 85.4952C45.7604 85.325 45.6255 85.1548 45.4836 84.9917C45.4268 84.9279 45.5262 84.8286 45.5829 84.8995C45.7462 85.0839 45.8952 85.2683 46.0513 85.4598C46.0797 85.4739 46.1081 85.5023 46.1152 85.5378C46.7113 86.247 47.2648 86.9774 47.8042 87.7292C48.748 87.9277 49.6777 88.2327 50.5931 88.5377C51.537 88.8497 52.4667 89.183 53.3821 89.566C53.4744 89.6085 53.4318 89.7646 53.3324 89.722C52.4241 89.3178 51.5086 88.9348 50.5648 88.6157C49.6777 88.3178 48.7693 88.0838 47.868 87.8285C48.159 88.2398 48.45 88.6582 48.7267 89.0837C50.4157 89.5731 52.0692 90.339 53.6589 91.0907C55.3266 91.8779 56.9304 92.7999 58.5272 93.7218C58.6194 93.7715 58.5272 93.9133 58.442 93.8566C56.8808 92.9205 55.2485 92.1262 53.6021 91.3531C52.0551 90.6298 50.4583 90.0411 48.9042 89.3532C52.8215 95.4665 55.1776 102.523 58.3214 109.055C58.3639 109.147 58.222 109.225 58.1794 109.133C57.2214 106.842 56.1143 104.608 55.0711 102.353C54.1344 100.332 53.2189 98.2961 52.275 96.2749C51.9983 95.6863 51.7144 95.0906 51.4305 94.502C51.6009 97.7642 51.5299 101.09 52.0692 104.317C52.0905 104.431 51.9202 104.452 51.906 104.338C51.6789 100.849 51.0615 97.4167 51.0899 93.9062C51.0899 93.885 51.1041 93.8779 51.1112 93.8637C50.4441 92.5304 49.7345 91.2113 48.9751 89.9348C47.6764 92.9914 46.3139 96.0905 45.7036 99.3741C45.6823 99.4734 45.5191 99.4308 45.5475 99.3245C46.4274 96.0338 47.2506 92.7432 48.8332 89.7007C47.9958 88.3178 47.0803 86.9845 46.0726 85.7222C45.6397 86.5377 45.0791 87.3037 44.5823 88.0767C44.0997 88.8355 43.6243 89.6014 43.1772 90.3816C42.2191 92.0482 41.3817 93.7502 40.7218 95.5587C40.6863 95.6579 40.523 95.6083 40.5656 95.509C41.3108 93.7715 42.0701 92.0198 42.9288 90.3319V90.3248Z" fill="#263238"/>
<path d="M12.0293 97.7561C14.5486 95.2313 17.4724 91.9265 21.3543 91.9336C25.1084 91.9336 27.869 94.9619 29.4586 98.0752C31.1192 101.33 31.7153 105.025 32.1837 108.607C32.7444 112.904 33.0566 117.23 33.1772 121.557C33.2482 123.961 33.234 126.372 33.1772 128.776C33.1205 131.202 33.0566 133.662 32.6237 136.06C32.5527 136.45 31.9282 136.464 31.907 136.045C31.7934 134.024 31.8715 131.989 31.8857 129.96C31.8999 127.968 31.8644 125.968 31.7934 123.975C31.6444 119.94 31.3534 115.911 30.8779 111.904C30.4663 108.401 30.1328 104.798 29.0896 101.415C28.1457 98.366 26.3716 94.8767 23.2775 93.5364C19.055 91.7067 14.9247 95.047 12.1642 97.8695C12.0932 97.9405 11.9655 97.8412 12.0364 97.7632L12.0293 97.7561Z" fill="#50515C"/>
<path d="M-0.80981 103.395C-0.788521 103.912 -0.760134 104.423 -0.724651 104.92C0.425001 104.111 1.86562 103.381 3.39849 103.21C6.96808 102.835 6.74099 105.544 4.35653 105.657C2.07851 105.763 0.55274 106.154 -0.540139 106.636C0.0417839 111.345 1.34047 115.139 1.53207 115.189C1.72368 115.231 6.0952 114.919 10.9635 113.997C10.0764 112.104 8.05387 109.593 9.08288 109.395C10.1403 109.182 11.2402 111.43 11.8151 113.827C14.1641 113.352 16.5911 112.735 18.6775 111.941C17.1092 110.579 14.6821 108.891 15.6047 108.168C16.5343 107.444 18.4575 109.827 19.6143 111.558C20.7639 111.068 21.7787 110.522 22.5806 109.905C20.4659 106.799 15.3066 106.168 15.9808 103.92C16.6692 101.629 21.4807 104.792 23.6451 108.948C26.1928 106.31 26.938 102.579 26.6683 99.3878C24.4542 99.1325 20.1891 99.6006 20.4942 98.0049C20.7852 96.4943 23.8864 96.7142 26.4057 97.6432C26.0935 96.1965 25.5683 94.9625 24.9225 94.1398C22.5877 91.1399 15.4627 94.9554 15.4627 94.9554C15.4627 94.9554 16.2221 87.7925 13.5041 86.5585C11.9357 85.8494 9.17513 85.8564 6.40035 87.4876C7.95451 87.6152 9.83512 88.1117 10.5945 89.1897C11.5596 90.5655 10.0338 91.3172 9.06868 90.679C8.38741 90.2251 7.11002 88.8138 4.81071 88.6223C3.91654 89.3599 3.04365 90.3031 2.23464 91.4662C1.97206 91.8349 1.72368 92.225 1.4824 92.6505C3.72493 91.7215 6.69132 91.2463 9.82802 92.7994C12.9151 94.3313 11.1906 97.5368 8.53644 96.2958C5.90359 95.0618 3.34881 93.8278 0.524354 94.5299C-0.511752 96.9128 -0.85239 99.7353 -0.8311 102.515C0.226296 101.749 1.78755 100.835 3.74622 100.317C6.81906 99.5084 7.74871 101.345 4.37072 101.686C2.22754 101.905 0.425001 102.686 -0.80981 103.381V103.395ZM2.93011 98.4659C2.71721 97.473 4.89587 97.1822 5.2578 97.9907C5.56295 98.6786 3.13591 99.4588 2.93011 98.4659ZM21.5729 103.976C21.7787 103.43 23.2335 104.047 23.1058 104.728C22.9213 105.629 21.3742 104.522 21.5729 103.976ZM11.2828 107.466C12.3473 107.04 14.0079 109.678 12.8441 110.288C11.6873 110.891 10.4099 107.82 11.2828 107.466Z" fill="#DA291C"/>
<path d="M1.94225 114.651C3.54608 111.977 5.12863 109.289 6.81053 106.658C7.59115 105.431 8.41436 104.233 9.26596 103.062C9.13822 103.034 9.01048 102.999 8.88274 102.97C8.66984 102.928 8.45694 102.885 8.24404 102.85C7.75438 102.765 7.25761 102.694 6.76085 102.644C6.29247 102.594 5.8241 102.573 5.35572 102.566C4.86605 102.566 4.33381 102.545 3.85124 102.644C3.78737 102.658 3.78027 102.559 3.83704 102.566C4.33381 102.587 4.85186 102.523 5.34862 102.516C5.83829 102.516 6.32086 102.516 6.81053 102.552C7.26471 102.58 7.71889 102.623 8.17308 102.694C8.42146 102.729 8.66984 102.779 8.91822 102.821C9.06725 102.85 9.22338 102.871 9.36531 102.913C10.2311 101.722 11.1324 100.552 12.062 99.4101C9.25176 98.1194 6.36344 97.0627 3.2977 96.6159C3.24802 96.6088 3.26931 96.5308 3.31899 96.5379C6.37763 97.0272 9.44337 97.8144 12.2111 99.2328C12.722 98.6087 13.2401 97.9775 13.7581 97.3605C14.34 96.6655 14.9574 95.9847 15.4826 95.2471C15.5181 95.1975 15.589 95.2471 15.5465 95.2968C14.8226 96.0698 14.1626 96.9279 13.5168 97.786C13.5168 97.786 13.5239 97.786 13.531 97.786C14.6878 98.5591 15.7523 99.481 16.7884 100.403C17.8529 101.346 18.8961 102.325 19.9038 103.325C19.9393 103.36 19.8825 103.417 19.847 103.382C18.8464 102.389 17.8103 101.445 16.7316 100.545C15.6529 99.6441 14.5104 98.8215 13.4246 97.935C13.4246 97.935 13.4246 97.9208 13.4175 97.9208C13.1691 98.247 12.9207 98.5803 12.6723 98.8995C12.5446 99.0626 12.424 99.2257 12.2962 99.3888C12.2962 99.403 12.282 99.4101 12.2678 99.4243C11.8491 99.9633 11.4375 100.509 11.0259 101.055C11.5298 101.729 11.9059 102.531 12.2607 103.289C12.6227 104.041 12.9349 104.821 13.2188 105.608C13.8149 107.232 14.2123 108.927 14.5529 110.622C14.56 110.672 14.482 110.693 14.4749 110.644C14.1555 108.956 13.6233 107.332 13.0201 105.729C12.7078 104.913 12.353 104.112 11.9911 103.318C11.6575 102.594 11.253 101.899 10.9408 101.169C10.5788 101.644 10.224 102.126 9.86917 102.609C9.76982 102.75 9.67046 102.892 9.57111 103.034C9.5853 103.062 9.57111 103.105 9.53563 103.105H9.52143C8.42146 104.637 7.37116 106.211 6.35634 107.8C6.42731 107.899 6.4557 108.027 6.49827 108.147C6.56214 108.339 6.62601 108.537 6.68279 108.729C6.79633 109.119 6.88859 109.516 6.95956 109.92C7.03052 110.296 7.0802 110.679 7.11568 111.062C7.15826 111.481 7.11568 111.949 7.20794 112.36C7.22213 112.424 7.11568 112.431 7.12987 112.36C7.19374 111.977 7.09439 111.53 7.03762 111.154C6.98084 110.743 6.90278 110.332 6.81053 109.927C6.72537 109.559 6.62601 109.197 6.51247 108.835C6.4557 108.651 6.39892 108.474 6.33505 108.296C6.29957 108.204 6.25699 108.105 6.22151 107.998C5.74603 108.743 5.27056 109.495 4.80928 110.247C3.88672 111.743 2.97126 113.246 2.05579 114.743C2.00612 114.821 1.89257 114.75 1.93515 114.679L1.94225 114.651Z" fill="#263238"/>
<path d="M26.6402 135.194C26.6828 133.676 26.9241 132.152 27.0873 130.641C27.2505 129.123 27.4209 127.613 27.5841 126.095C27.8963 123.173 28.0666 120.187 28.755 117.329C29.344 114.869 30.4298 112.507 32.3246 110.769C33.2827 109.89 34.4962 109.174 35.8233 109.103C37.1787 109.032 38.4277 109.5 39.5419 110.245C40.8051 111.096 41.7844 112.308 42.6644 113.535C43.5728 114.798 44.3818 116.11 45.0985 117.493C45.1269 117.542 45.0418 117.578 45.0134 117.528C43.6863 115.223 41.8483 113.237 39.7406 111.627C38.7683 110.883 37.6542 110.33 36.4194 110.245C35.1917 110.159 34.0988 110.748 33.1975 111.528C31.4304 113.067 30.4014 115.322 29.7911 117.549C29.0673 120.18 28.8331 122.953 28.4712 125.648C28.2583 127.251 28.0525 128.861 27.8396 130.464C27.6267 132.059 27.4989 133.698 27.1583 135.272C27.0873 135.612 26.6189 135.541 26.6331 135.201L26.6402 135.194Z" fill="#50515C"/>
<path d="M34.105 123.422C34.545 124.032 35.0985 124.585 35.7585 125.103C35.5101 123.621 35.2049 120.997 35.9572 119.592C37.1139 117.415 38.4907 118.5 37.8023 120.394C36.8017 123.089 36.6739 124.911 36.6881 125.748C38.1571 126.713 39.9313 127.5 41.7267 128.124C41.5706 127.393 41.4642 126.493 41.5635 125.528C41.7977 123.202 43.579 123.245 43.1106 125.663C42.9048 126.706 42.8622 127.713 42.8693 128.5C46.9286 129.769 50.7253 130.273 50.7253 130.273C52.2368 128.259 53.3013 126.33 53.9755 124.493C52.0807 124.018 48.2485 123.911 48.3337 122.557C48.4401 120.741 52.1517 122.138 54.3232 123.457C54.8555 121.713 55.0471 120.075 54.9761 118.564C54.1316 118.287 52.5633 117.94 49.753 117.699C45.857 117.365 46.0486 115.153 48.873 115.202C50.9594 115.238 53.5923 116.514 54.8413 117.181C54.0252 111.883 49.9872 108.486 46.744 108.359C41.2938 108.139 43.2525 114.919 43.2525 114.919C43.2525 114.919 39.5623 112.323 36.0707 112.387C32.5934 112.465 30.3792 118.224 34.105 123.408V123.422ZM48.6601 113.621C48.5395 112.862 50.9736 112.678 51.0943 113.656C51.2433 114.756 48.7808 114.401 48.6601 113.621ZM52.5704 121.571C52.5207 121.075 53.571 120.982 53.8052 121.614C53.9613 122.025 52.6129 122.06 52.5704 121.571ZM39.4842 122.032C40.3074 122.145 40.7758 125.081 39.3565 125.025C38.2778 124.982 38.7887 121.933 39.4842 122.032Z" fill="#DA291C"/>
<path opacity="0.1" d="M34.105 123.422C34.545 124.032 35.0985 124.585 35.7585 125.103C35.5101 123.621 35.2049 120.997 35.9572 119.592C37.1139 117.415 38.4907 118.5 37.8023 120.394C36.8017 123.089 36.6739 124.911 36.6881 125.748C38.1571 126.713 39.9313 127.5 41.7267 128.124C41.5706 127.393 41.4642 126.493 41.5635 125.528C41.7977 123.202 43.579 123.245 43.1106 125.663C42.9048 126.706 42.8622 127.713 42.8693 128.5C46.9286 129.769 50.7253 130.273 50.7253 130.273C52.2368 128.259 53.3013 126.33 53.9755 124.493C52.0807 124.018 48.2485 123.911 48.3337 122.557C48.4401 120.741 52.1517 122.138 54.3232 123.457C54.8555 121.713 55.0471 120.075 54.9761 118.564C54.1316 118.287 52.5633 117.94 49.753 117.699C45.857 117.365 46.0486 115.153 48.873 115.202C50.9594 115.238 53.5923 116.514 54.8413 117.181C54.0252 111.883 49.9872 108.486 46.744 108.359C41.2938 108.139 43.2525 114.919 43.2525 114.919C43.2525 114.919 39.5623 112.323 36.0707 112.387C32.5934 112.465 30.3792 118.224 34.105 123.408V123.422ZM48.6601 113.621C48.5395 112.862 50.9736 112.678 51.0943 113.656C51.2433 114.756 48.7808 114.401 48.6601 113.621ZM52.5704 121.571C52.5207 121.075 53.571 120.982 53.8052 121.614C53.9613 122.025 52.6129 122.06 52.5704 121.571ZM39.4842 122.032C40.3074 122.145 40.7758 125.081 39.3565 125.025C38.2778 124.982 38.7887 121.933 39.4842 122.032Z" fill="black"/>
<path d="M40.6178 125.294C40.7527 124.925 40.8733 124.556 40.9868 124.188C40.8804 124.563 40.7881 124.946 40.7172 125.322C40.703 125.4 40.5894 125.365 40.6178 125.294Z" fill="#263238"/>
<path d="M42.0599 120.578C42.3154 119.826 42.5993 119.081 42.8973 118.344C43.0535 117.946 43.2167 117.556 43.387 117.173C43.5289 116.847 43.6567 116.478 43.8696 116.188C43.6993 115.876 43.5431 115.557 43.4296 115.237C43.4154 115.209 43.458 115.181 43.4793 115.209C43.898 115.691 44.2173 116.301 44.5438 116.854C44.6928 117.11 44.8418 117.372 44.9908 117.634C45.296 117.656 45.6082 117.72 45.9063 117.776C46.2327 117.833 46.5592 117.904 46.8856 117.975C47.2121 118.046 47.5314 118.124 47.8579 118.202C48.1772 118.28 48.4966 118.386 48.823 118.436C48.9011 118.45 48.8656 118.563 48.7946 118.535C48.4753 118.407 48.1134 118.344 47.7727 118.273C47.4605 118.202 47.1482 118.152 46.8289 118.103C46.5095 118.06 46.1973 118.017 45.8779 117.989C45.6366 117.968 45.3953 117.954 45.1541 117.932C45.2818 118.159 45.4166 118.386 45.5444 118.62C45.5657 118.656 45.5799 118.691 45.6011 118.734C45.8637 118.712 46.1263 118.783 46.3818 118.826C46.6656 118.876 46.9424 118.932 47.2263 118.989C47.794 119.117 48.3617 119.251 48.9224 119.407C50.1004 119.734 51.2642 120.11 52.4281 120.492C52.492 120.514 52.4494 120.613 52.3855 120.592C51.2288 120.195 50.0507 119.883 48.8656 119.613C48.305 119.485 47.7514 119.358 47.1908 119.244C46.914 119.188 46.6302 119.124 46.3534 119.067C46.1405 119.024 45.9134 118.996 45.7005 118.925C46.2966 120.032 46.8643 121.159 47.3824 122.308C48.5108 124.804 49.4617 127.386 50.4339 129.946C50.4552 130.01 50.3559 130.052 50.3346 129.989C49.4262 127.428 48.2837 124.96 47.0843 122.521C46.8643 122.074 46.6444 121.634 46.4244 121.195C46.4031 121.287 46.3818 121.372 46.3676 121.464C46.3108 121.769 46.2611 122.067 46.2044 122.372C46.105 122.982 45.9986 123.585 45.9063 124.194C45.7218 125.428 45.4237 126.726 45.4663 127.982C45.4663 128.06 45.3528 128.052 45.3599 127.982C45.4592 127.379 45.4592 126.748 45.4947 126.138C45.5373 125.499 45.5799 124.861 45.6579 124.23C45.7289 123.62 45.8069 123.01 45.9063 122.4C45.956 122.095 46.0128 121.79 46.0695 121.492C46.1121 121.273 46.1192 121.024 46.2398 120.833C45.9205 120.195 45.6011 119.549 45.2818 118.911C44.9766 118.315 44.6715 117.712 44.3592 117.124C44.2244 116.876 44.0825 116.62 43.9476 116.365C43.8696 116.677 43.7064 116.982 43.5857 117.28C43.4438 117.62 43.3089 117.968 43.167 118.308C42.8548 119.067 42.5638 119.833 42.2728 120.606C41.8612 121.698 41.407 122.812 41.0664 123.946C41.3999 122.833 41.6838 121.698 42.0528 120.599L42.0599 120.578Z" fill="#263238"/>
<path d="M40.9922 124.188C41.0135 124.103 41.0419 124.011 41.0703 123.926C41.0419 124.011 41.0206 124.103 40.9922 124.188Z" fill="#263238"/>
<path d="M17.5273 132.246L17.9106 140.352L18.897 161.252H40.4707L41.4571 140.352L41.8404 132.246H17.5273Z" fill="#50515C"/>
<path d="M17.5273 132.246L17.9106 140.352H41.4571L41.8404 132.246H17.5273Z" fill="#141416"/>
<path d="M15.9891 135.521H43.375V128.969H15.9891V135.521Z" fill="#50515C"/>
<path d="M38.7271 161.252H34.9375V164.684H38.7271V161.252Z" fill="#50515C"/>
<path d="M38.7271 161.252H34.9375V162.968H38.7271V161.252Z" fill="#141416"/>
<path d="M24.427 161.252H20.6445V164.684H24.427V161.252Z" fill="#50515C"/>
<path d="M24.427 161.252H20.6445V162.968H24.427V161.252Z" fill="#141416"/>
<path d="M150.924 52.2883C150.973 52.2883 155.806 52.1891 160.497 53.5152C164.663 54.6996 168.119 57.8697 168.034 60.437C167.991 61.7631 166.983 62.7064 165.202 63.0964C159.582 64.3233 151.101 53.1323 150.746 52.6571L150.477 52.2954L150.924 52.2812V52.2883ZM160.369 53.962C156.587 52.8912 152.712 52.7564 151.399 52.7493C152.939 54.6996 160.32 63.6851 165.103 62.6425C166.685 62.295 167.537 61.5291 167.572 60.4228C167.594 59.82 167.352 59.1179 166.898 58.4016C165.798 56.6711 163.428 54.8272 160.369 53.962Z" fill="#263238"/>
<path d="M118.862 1.33402C119.416 0.724115 120.359 0.681563 120.97 1.24183L157.283 34.4462C157.617 34.7653 157.801 35.2121 157.759 35.6731L156.581 50.2683L156.566 50.4739L156.531 50.8498L156.517 51.02L156.077 56.5446C156.034 57.2254 155.516 57.7786 154.842 57.8992L149.314 58.8353L148.817 58.9204L134.177 61.4097C133.722 61.4948 133.247 61.3529 132.913 61.0409L96.6142 27.8365C95.9968 27.2763 95.9613 26.333 96.5219 25.7231L118.862 1.33402Z" fill="white"/>
<path d="M103.468 18.2195L99.6213 22.4392L97.6981 24.5526L96.733 25.6093C96.5698 25.7866 96.4137 25.9497 96.3285 26.1625C96.2362 26.3682 96.1937 26.5951 96.2079 26.815C96.222 27.0419 96.2859 27.2617 96.3995 27.4532C96.513 27.6447 96.6833 27.7936 96.8607 27.9567L97.9181 28.9213L100.033 30.8432L104.255 34.687L121.152 50.0623L129.605 57.7499L131.719 59.6718L132.777 60.6363L133.039 60.8774C133.117 60.9484 133.195 61.0122 133.288 61.0618C133.465 61.1611 133.664 61.2179 133.87 61.2249C133.976 61.2249 134.068 61.2249 134.182 61.1966L134.537 61.1327L135.239 61.0122L136.644 60.7711L139.462 60.2888L150.731 58.4024L153.549 57.9272C154.01 57.8492 154.507 57.7712 154.939 57.6861C155.344 57.5797 155.685 57.2677 155.819 56.8705C155.848 56.7712 155.876 56.6719 155.883 56.5656L155.912 56.211L155.968 55.5018L156.089 54.0763L156.323 51.2324L157.274 39.8499L157.508 37.006L157.622 35.5877C157.636 35.148 157.437 34.7295 157.083 34.4388L152.874 30.5737L136.055 15.1133L127.646 7.38309L123.438 3.518L121.337 1.5819C121.16 1.42588 120.996 1.24858 120.805 1.11384C120.613 0.979089 120.386 0.886894 120.145 0.858527C119.669 0.794699 119.173 0.971997 118.853 1.32659L103.461 18.2125L103.468 18.2195ZM120.152 0.858527C120.386 0.886894 120.62 0.979089 120.812 1.11384C121.003 1.25567 121.174 1.42588 121.351 1.5819L123.466 3.50381L127.688 7.34763L136.141 15.0353L153.038 30.4106L157.26 34.2544C157.643 34.5664 157.913 35.0841 157.892 35.6018L157.785 37.0344L157.565 39.8783L156.671 51.2608L156.451 54.1047L156.338 55.5301L156.281 56.2393L156.252 56.601C156.245 56.7358 156.21 56.8634 156.167 56.9911C155.997 57.5017 155.557 57.9059 155.039 58.0478C154.535 58.1541 154.088 58.218 153.612 58.3031L150.795 58.7924L139.533 60.7356L136.715 61.2108L135.31 61.4448L134.608 61.5654L134.253 61.6221C134.132 61.6434 133.983 61.6576 133.848 61.6505C133.579 61.6363 133.309 61.5654 133.068 61.4235C132.947 61.3597 132.841 61.2675 132.741 61.1824L132.479 60.9413L131.428 59.9768L129.328 58.0407L120.918 50.3105L104.099 34.8501L99.8981 30.985L97.7975 29.0489L96.7472 28.0844C96.5769 27.9284 96.3782 27.7582 96.2504 27.5383C96.1227 27.3185 96.0517 27.0703 96.0375 26.822C96.0233 26.5738 96.073 26.3185 96.1795 26.0845C96.2788 25.8504 96.4562 25.659 96.6124 25.4888L97.5775 24.4392L99.5149 22.34L103.383 18.1415L118.86 1.33369C119.18 0.979089 119.676 0.794699 120.152 0.858527Z" fill="#EBEBEB"/>
<path d="M151.502 51.0551C151.417 50.9061 151.311 50.7714 151.176 50.6438C151.176 50.6296 151.155 50.6225 151.14 50.6083C150.339 49.8778 149.082 49.9204 148.351 50.7288C147.621 51.5302 147.67 52.7784 148.479 53.516L148.515 53.5443C148.607 53.6224 148.706 53.7004 148.813 53.7571C148.877 53.7997 148.933 53.828 149.004 53.8564C149.764 54.1968 150.686 54.0337 151.282 53.3812C151.878 52.7217 151.949 51.7785 151.517 51.048L151.502 51.0551Z" fill="white"/>
<path d="M151.269 53.516C150.964 53.8564 150.546 54.0976 150.077 54.1756C149.609 54.2607 149.126 54.1898 148.686 53.9415H148.7L148.516 53.821L148.338 53.6933L148.324 53.6791C147.891 53.2962 147.636 52.7288 147.622 52.1544C147.608 51.5799 147.842 51.0126 148.246 50.6225C148.644 50.2254 149.19 50.0126 149.722 50.0197C150.255 50.0268 150.773 50.2325 151.149 50.5871C151.149 50.5871 151.17 50.6083 151.184 50.6225C151.312 50.7431 151.418 50.8849 151.504 51.0338C151.958 51.7785 151.88 52.8139 151.269 53.4947V53.516ZM151.177 50.6438C151.177 50.6438 151.156 50.6225 151.142 50.6083C150.758 50.2608 150.226 50.0977 149.729 50.1474C149.226 50.197 148.764 50.4523 148.466 50.8211C148.168 51.197 148.026 51.6721 148.062 52.1331C148.09 52.5941 148.303 53.0267 148.637 53.3458L148.622 53.3316L148.778 53.4451L148.92 53.5586H148.935C149.24 53.7642 149.651 53.8777 150.049 53.8493C150.446 53.821 150.844 53.6579 151.156 53.3813C151.461 53.1047 151.695 52.7146 151.752 52.2891C151.823 51.8636 151.731 51.4168 151.518 51.0409C151.425 50.892 151.319 50.7573 151.191 50.6367L151.177 50.6438Z" fill="#EBEBEB"/>
<path d="M119.242 4.41114L99.613 25.8429C99.0737 26.4316 99.1375 27.3677 99.7478 27.9279L133.145 58.4728C133.492 58.792 133.946 58.9267 134.394 58.8629L152.937 56.1325C153.604 56.0332 154.101 55.4942 154.143 54.8205L154.392 50.5866L154.42 50.1328L155.229 36.112C155.258 35.6581 155.073 35.2184 154.732 34.8993L121.336 4.3615C120.718 3.80124 119.782 3.82251 119.249 4.41114H119.242ZM121.151 4.56007L154.548 35.105C154.832 35.3603 154.988 35.7362 154.96 36.1049L154.151 50.1257L154.122 50.5937L153.881 54.8063C153.867 55.0829 153.753 55.3311 153.583 55.5155C153.405 55.707 153.171 55.8347 152.902 55.8772L134.358 58.6076C133.996 58.6643 133.606 58.5367 133.322 58.2814L99.9253 27.7365C99.4214 27.2755 99.3646 26.5025 99.8046 26.0202L119.434 4.58844C119.874 4.10619 120.647 4.09201 121.151 4.56007Z" fill="#263238"/>
<path d="M120.6 24.9282C120.664 26.1764 120.203 27.3253 119.408 28.1834C118.635 29.0273 117.506 29.5805 116.271 29.6302C115.022 29.694 113.873 29.233 113.028 28.4529L113 28.4316C112.169 27.6657 111.595 26.5452 111.566 25.3112C111.517 24.7438 111.964 24.2616 112.553 24.2403C113.106 24.2048 113.603 24.6587 113.624 25.2261C113.638 25.9069 113.937 26.5026 114.419 26.9423C114.873 27.3607 115.505 27.6161 116.186 27.5735C116.853 27.5451 117.471 27.2473 117.889 26.7934C118.329 26.3111 118.578 25.6941 118.535 25.0133C118.521 24.3325 118.209 23.751 117.74 23.3184C117.286 22.8999 116.655 22.6163 115.973 22.6588C115.406 22.6801 114.923 22.2404 114.902 21.673C114.902 21.5666 114.916 21.4674 114.916 21.361C114.937 21.3326 114.951 21.3184 114.937 21.3113C114.958 21.283 114.973 21.2475 114.973 21.2191C115.008 21.1766 115.022 21.1411 115.044 21.1128C115.058 21.0986 115.044 21.0844 115.058 21.0702C115.122 20.978 115.193 20.9 115.271 20.8433L118.862 17.7441C119.11 17.5526 119.408 17.4746 119.692 17.5172C119.727 17.5313 119.742 17.5384 119.77 17.5384C119.798 17.5384 119.813 17.5526 119.834 17.5455C119.99 17.5881 120.125 17.659 120.26 17.7867L124.212 21.4177C124.638 21.8149 124.667 22.4531 124.276 22.8857C123.907 23.29 123.254 23.3254 122.822 22.9354L119.522 19.9071L118.138 21.0844C118.507 21.2759 118.854 21.517 119.145 21.7865C119.99 22.5595 120.551 23.6729 120.593 24.9211L120.6 24.9282Z" fill="#37474F"/>
<path d="M122.873 28.8497C124.023 27.6299 125.35 26.8002 126.726 26.481C128.075 26.1406 129.53 26.3108 130.587 27.2824C131.623 28.2327 131.928 29.6724 131.701 31.0482C131.488 32.4383 130.786 33.8425 129.657 35.0764C128.536 36.2963 127.181 37.126 125.818 37.4522C124.477 37.7785 123.001 37.6083 121.972 36.6579C120.914 35.6864 120.63 34.2396 120.843 32.878C121.042 31.4808 121.766 30.0696 122.873 28.8356V28.8497ZM128.167 33.7148C129.054 32.7503 129.565 31.6581 129.714 30.7362C129.842 29.8142 129.65 29.1405 129.217 28.7717C128.813 28.3746 128.11 28.2257 127.195 28.4171C126.286 28.6512 125.243 29.2469 124.356 30.2114C123.483 31.1617 122.958 32.268 122.816 33.1758C122.688 34.119 122.908 34.7928 123.327 35.1757C123.746 35.5587 124.42 35.7076 125.335 35.4878C126.23 35.2679 127.287 34.658 128.16 33.7077L128.167 33.7148Z" fill="#37474F"/>
<path d="M130.215 42.7722L144.096 40.0206C144.337 39.9426 144.586 40.0206 144.777 40.1979C145.075 40.4674 145.104 40.9212 144.834 41.212C144.713 41.3468 144.543 41.4177 144.394 41.4531L130.513 44.2048C130.257 44.2686 130.009 44.1835 129.825 44.0133C129.527 43.7438 129.512 43.3041 129.782 43.0134C129.903 42.8786 130.073 42.8077 130.222 42.7793L130.215 42.7722ZM134.43 35.0988L134.452 35.0704C135.658 33.7584 137.553 33.496 138.88 34.7158C140.207 35.9356 140.079 37.8221 138.901 39.1057L138.88 39.1341C137.688 40.4319 135.793 40.7227 134.452 39.4887C133.139 38.2831 133.252 36.3824 134.43 35.0988ZM135.693 45.1055L135.722 45.0771C136.928 43.7651 138.823 43.5027 140.15 44.7225C141.463 45.9281 141.349 47.8288 140.171 49.1124L140.15 49.1408C138.958 50.4386 137.049 50.7152 135.722 49.4954C134.409 48.2898 134.523 46.3891 135.701 45.1055H135.693ZM137.666 38.0703L137.688 38.0419C138.376 37.2902 138.518 36.2831 137.915 35.73C137.283 35.1484 136.339 35.425 135.679 36.1484L135.658 36.1768C134.955 36.9427 134.828 37.9356 135.431 38.4887C136.062 39.0703 136.999 38.7937 137.666 38.0703ZM138.93 48.077L138.951 48.0486C139.639 47.2969 139.781 46.2898 139.178 45.7367C138.546 45.1551 137.602 45.4317 136.942 46.1551L136.921 46.1835C136.219 46.9494 136.091 47.9422 136.694 48.4954C137.326 49.077 138.27 48.8004 138.93 48.077Z" fill="#37474F"/>
<path d="M250.704 124.194C250.704 134.102 258.744 142.13 268.658 142.13V165.136H65.3398V142.13C75.2538 142.13 83.2943 134.102 83.2943 124.194C83.2943 114.287 75.2538 106.252 65.3398 106.252V61.8066H268.658V106.252C258.744 106.252 250.704 114.287 250.704 124.194Z" fill="#DA291C"/>
<path opacity="0.3" d="M268.658 142.129V165.135H65.3398V142.129C75.2538 142.129 83.2943 134.101 83.2943 124.193H250.704C250.704 134.101 258.744 142.129 268.658 142.129Z" fill="white"/>
<g opacity="0.2">
<path d="M84.7149 124.903H83.2956C82.9053 124.903 82.5859 124.584 82.5859 124.194C82.5859 123.804 82.9053 123.484 83.2956 123.484H84.7149C85.1052 123.484 85.4246 123.804 85.4246 124.194C85.4246 124.584 85.1052 124.903 84.7149 124.903Z" fill="black"/>
<path d="M242.842 124.903H239.982C239.592 124.903 239.273 124.584 239.273 124.194C239.273 123.804 239.592 123.484 239.982 123.484H242.842C243.233 123.484 243.552 123.804 243.552 124.194C243.552 124.584 243.233 124.903 242.842 124.903ZM233.539 124.903H230.679C230.288 124.903 229.969 124.584 229.969 124.194C229.969 123.804 230.288 123.484 230.679 123.484H233.539C233.929 123.484 234.248 123.804 234.248 124.194C234.248 124.584 233.929 124.903 233.539 124.903ZM224.235 124.903H221.375C220.985 124.903 220.665 124.584 220.665 124.194C220.665 123.804 220.985 123.484 221.375 123.484H224.235C224.625 123.484 224.945 123.804 224.945 124.194C224.945 124.584 224.625 124.903 224.235 124.903ZM214.931 124.903H212.071C211.681 124.903 211.362 124.584 211.362 124.194C211.362 123.804 211.681 123.484 212.071 123.484H214.931C215.322 123.484 215.641 123.804 215.641 124.194C215.641 124.584 215.322 124.903 214.931 124.903ZM205.628 124.903H202.768C202.377 124.903 202.058 124.584 202.058 124.194C202.058 123.804 202.377 123.484 202.768 123.484H205.628C206.018 123.484 206.337 123.804 206.337 124.194C206.337 124.584 206.018 124.903 205.628 124.903ZM196.324 124.903H193.464C193.074 124.903 192.754 124.584 192.754 124.194C192.754 123.804 193.074 123.484 193.464 123.484H196.324C196.714 123.484 197.034 123.804 197.034 124.194C197.034 124.584 196.714 124.903 196.324 124.903ZM187.02 124.903H184.16C183.77 124.903 183.451 124.584 183.451 124.194C183.451 123.804 183.77 123.484 184.16 123.484H187.02C187.411 123.484 187.73 123.804 187.73 124.194C187.73 124.584 187.411 124.903 187.02 124.903ZM177.717 124.903H174.857C174.466 124.903 174.147 124.584 174.147 124.194C174.147 123.804 174.466 123.484 174.857 123.484H177.717C178.107 123.484 178.426 123.804 178.426 124.194C178.426 124.584 178.107 124.903 177.717 124.903ZM168.413 124.903H165.553C165.163 124.903 164.843 124.584 164.843 124.194C164.843 123.804 165.163 123.484 165.553 123.484H168.413C168.803 123.484 169.123 123.804 169.123 124.194C169.123 124.584 168.803 124.903 168.413 124.903ZM159.109 124.903H156.249C155.859 124.903 155.54 124.584 155.54 124.194C155.54 123.804 155.859 123.484 156.249 123.484H159.109C159.5 123.484 159.819 123.804 159.819 124.194C159.819 124.584 159.5 124.903 159.109 124.903ZM149.806 124.903H146.946C146.555 124.903 146.236 124.584 146.236 124.194C146.236 123.804 146.555 123.484 146.946 123.484H149.806C150.196 123.484 150.515 123.804 150.515 124.194C150.515 124.584 150.196 124.903 149.806 124.903ZM140.502 124.903H137.642C137.252 124.903 136.932 124.584 136.932 124.194C136.932 123.804 137.252 123.484 137.642 123.484H140.502C140.892 123.484 141.212 123.804 141.212 124.194C141.212 124.584 140.892 124.903 140.502 124.903ZM131.198 124.903H128.338C127.948 124.903 127.629 124.584 127.629 124.194C127.629 123.804 127.948 123.484 128.338 123.484H131.198C131.589 123.484 131.908 123.804 131.908 124.194C131.908 124.584 131.589 124.903 131.198 124.903ZM121.895 124.903H119.035C118.644 124.903 118.325 124.584 118.325 124.194C118.325 123.804 118.644 123.484 119.035 123.484H121.895C122.285 123.484 122.604 123.804 122.604 124.194C122.604 124.584 122.285 124.903 121.895 124.903ZM112.591 124.903H109.731C109.341 124.903 109.021 124.584 109.021 124.194C109.021 123.804 109.341 123.484 109.731 123.484H112.591C112.981 123.484 113.301 123.804 113.301 124.194C113.301 124.584 112.981 124.903 112.591 124.903ZM103.287 124.903H100.427C100.037 124.903 99.7177 124.584 99.7177 124.194C99.7177 123.804 100.037 123.484 100.427 123.484H103.287C103.678 123.484 103.997 123.804 103.997 124.194C103.997 124.584 103.678 124.903 103.287 124.903ZM93.9837 124.903H91.1237C90.7334 124.903 90.4141 124.584 90.4141 124.194C90.4141 123.804 90.7334 123.484 91.1237 123.484H93.9837C94.374 123.484 94.6933 123.804 94.6933 124.194C94.6933 124.584 94.374 124.903 93.9837 124.903Z" fill="black"/>
<path d="M250.703 124.903H249.284C248.894 124.903 248.574 124.584 248.574 124.194C248.574 123.804 248.894 123.484 249.284 123.484H250.703C251.094 123.484 251.413 123.804 251.413 124.194C251.413 124.584 251.094 124.903 250.703 124.903Z" fill="black"/>
</g>
<path d="M143.914 102.996V102.868C143.914 96.471 148.293 91.1875 154.758 91.1875C161.223 91.1875 165.466 96.471 165.466 102.74V102.868C165.466 109.201 161.159 114.548 154.623 114.548C148.087 114.548 143.914 109.258 143.914 102.996ZM159.654 102.996V102.868C159.654 99.2156 157.561 96.2086 154.623 96.2086C151.685 96.2086 149.726 99.2085 149.726 102.733V102.861C149.726 106.584 151.82 109.52 154.758 109.52C157.696 109.52 159.654 106.52 159.654 102.996ZM151.422 133.477L181.406 92.5491C181.86 91.769 182.711 91.3719 183.627 91.3719C185.06 91.3719 186.238 92.4782 186.238 93.9179C186.238 94.5703 185.976 95.159 185.649 95.6129L155.666 136.54C155.141 137.32 154.296 137.718 153.381 137.718C151.947 137.718 150.833 136.604 150.833 135.172C150.833 134.519 151.096 133.93 151.422 133.477ZM171.541 126.363V126.236C171.541 119.839 175.92 114.555 182.385 114.555C188.85 114.555 193.094 119.839 193.094 126.108V126.236C193.094 132.569 188.715 137.916 182.25 137.916C175.785 137.916 171.541 132.633 171.541 126.363ZM187.282 126.363V126.236C187.282 122.583 185.188 119.576 182.25 119.576C179.312 119.576 177.353 122.576 177.353 126.101V126.229C177.353 129.952 179.447 132.888 182.385 132.888C185.323 132.888 187.282 129.888 187.282 126.363Z" fill="white"/>
</g>
<defs>
<clipPath id="clip0_2533_579871">
<rect width="334" height="180" fill="white"/>
</clipPath>
</defs>
</svg>
