<svg width="60" height="60" viewBox="0 0 60 60" fill="none" xmlns="http://www.w3.org/2000/svg">
<g clip-path="url(#clip0_3011_35079)">
<path d="M49.3825 0C44.8047 0 41.0938 3.71098 41.0938 8.28879V24.7495H56.4995V7.11691C56.4995 3.18633 53.3131 0 49.3825 0Z" fill="#75787C"/>
<path d="M42.2676 7.11691C42.2676 3.18633 45.4539 0 49.3845 0H12.2828C7.43781 0 3.49609 3.94172 3.49609 8.78672V58.2105C3.49609 59.7961 5.43227 60.5657 6.52352 59.4263L8.77211 57.0779L11.1476 59.4534C11.834 60.1398 12.9469 60.1398 13.6333 59.4537L15.8843 57.2033L18.1595 59.4588C18.845 60.1383 19.9496 60.1382 20.6348 59.4588L22.9445 57.1688L25.2554 59.4591C25.9401 60.1377 27.0439 60.1382 27.7291 59.46L29.9555 57.257L32.1761 59.4587C32.8614 60.1381 33.9661 60.1382 34.6514 59.4588L36.9612 57.1688L39.272 59.4591C40.3797 60.5565 42.2672 59.7691 42.2672 58.2105C42.2676 55.776 42.2676 8.64316 42.2676 7.11691Z" fill="#C1C8D1"/>
<path d="M49.3852 0C45.4547 0 42.2684 3.18633 42.2684 7.1168V58.2105C42.2684 59.7691 40.3805 60.5566 39.273 59.4586L36.9621 57.1688L34.6523 59.4586C33.9668 60.1383 32.8629 60.1383 32.1773 59.4586L29.9566 57.2566L27.7301 59.4598C27.0445 60.1383 25.9406 60.1383 25.2563 59.4586L22.9453 57.1688V0H49.3852Z" fill="#A8B0BC"/>
<path d="M26.0743 16.0003C24.3926 14.6896 22.1982 14.4862 21.7081 13.6014C21.5352 13.2891 21.7195 12.7748 22.0949 12.5224C22.629 12.1632 23.7717 12.3048 24.1732 12.6751C24.8869 13.3334 25.999 13.2883 26.6571 12.5748C27.3153 11.8611 27.2703 10.749 26.5568 10.0909C26.0107 9.58719 25.318 9.22777 24.5692 9.01801V8.87305C24.5692 7.90227 23.7821 7.11523 22.8113 7.11523C21.8406 7.11523 21.0535 7.90227 21.0535 8.87305V9.13566C18.4985 10.0931 17.401 13.0809 18.6328 15.3049C19.9333 17.6527 22.6574 17.7944 23.9134 18.7733C25.0043 19.6235 24.3574 20.7546 23.5475 21.1357C22.8217 21.4771 21.3622 21.2661 20.4859 20.6928C19.6735 20.1615 18.5839 20.3892 18.0526 21.2015C17.5212 22.014 17.749 23.1034 18.5613 23.6348C19.2443 24.0816 20.1176 24.442 21.0537 24.6426V24.8662C21.0537 25.837 21.8407 26.624 22.8115 26.624C23.7822 26.624 24.5693 25.837 24.5693 24.8662V24.5075C28.1333 23.2727 29.4108 18.6002 26.0743 16.0003Z" fill="white"/>
<path d="M24.5684 24.509V24.8676C24.5684 25.7922 23.8535 26.5516 22.9453 26.6195V21.2863C24.2518 21.1657 25.1099 19.7079 23.9133 18.7738C23.6473 18.5664 23.3156 18.3965 22.9453 18.2359V14.4414C23.8477 14.8199 25.0547 15.2078 26.0742 16.0012C29.4105 18.6016 28.1332 23.2738 24.5684 24.509Z" fill="#EDEFF3"/>
<path d="M24.1723 12.6746C23.932 12.4531 23.427 12.3137 22.9453 12.3148V7.12109C23.8535 7.18906 24.5684 7.94844 24.5684 8.87305V9.01836C25.3172 9.22812 26.0098 9.58672 26.5559 10.0906C27.2695 10.7492 27.3152 11.8613 26.6566 12.575C25.998 13.2887 24.8859 13.3332 24.1723 12.6746Z" fill="#EDEFF3"/>
<path d="M12.3945 33.5254H21.1836C22.1544 33.5254 22.9414 32.7384 22.9414 31.7676C22.9414 30.7968 22.1544 30.0098 21.1836 30.0098H12.3945C11.4237 30.0098 10.6367 30.7968 10.6367 31.7676C10.6367 32.7384 11.4237 33.5254 12.3945 33.5254Z" fill="white"/>
<path d="M21.1816 37.0527H12.3867C11.4159 37.0527 10.6289 37.8398 10.6289 38.8105C10.6289 39.7813 11.4159 40.5684 12.3867 40.5684H21.1816C22.1524 40.5684 22.9395 39.7813 22.9395 38.8105C22.9395 37.8398 22.1524 37.0527 21.1816 37.0527Z" fill="white"/>
<path d="M21.1836 44.0723H12.3828C11.412 44.0723 10.625 44.8593 10.625 45.8301C10.625 46.8009 11.412 47.5879 12.3828 47.5879H21.1836C22.1544 47.5879 22.9414 46.8009 22.9414 45.8301C22.9414 44.8593 22.1544 44.0723 21.1836 44.0723Z" fill="white"/>
<path d="M40.5625 60C49.2998 60 56.3828 52.917 56.3828 44.1797C56.3828 35.4424 49.2998 28.3594 40.5625 28.3594C31.8252 28.3594 24.7422 35.4424 24.7422 44.1797C24.7422 52.917 31.8252 60 40.5625 60Z" fill="#FF8881"/>
<path d="M56.3828 44.1797C56.3828 52.9031 49.2859 60 40.5625 60V28.3594C49.2859 28.3594 56.3828 35.4562 56.3828 44.1797Z" fill="#F76854"/>
<path d="M40.5625 56.4844C47.3582 56.4844 52.8672 50.9754 52.8672 44.1797C52.8672 37.384 47.3582 31.875 40.5625 31.875C33.7668 31.875 28.2578 37.384 28.2578 44.1797C28.2578 50.9754 33.7668 56.4844 40.5625 56.4844Z" fill="#E9E9F3"/>
<path d="M52.8672 44.1797C52.8672 50.9648 47.3477 56.4844 40.5625 56.4844V31.875C47.3477 31.875 52.8672 37.3945 52.8672 44.1797Z" fill="#DBDBE1"/>
<path d="M41.1518 37.543C40.181 37.543 39.394 38.33 39.394 39.3008V42.8912H35.8359C34.8652 42.8912 34.0781 43.6782 34.0781 44.649C34.0781 45.6198 34.8652 46.4068 35.8359 46.4068H41.1518C42.1226 46.4068 42.9096 45.6198 42.9096 44.649V39.3008C42.9096 38.33 42.1226 37.543 41.1518 37.543Z" fill="#F76854"/>
<path d="M42.9062 39.3008V44.6492C42.9062 45.6195 42.1199 46.407 41.1484 46.407H40.5625V37.6438C40.7465 37.5781 40.9434 37.543 41.1484 37.543C42.1199 37.543 42.9062 38.3305 42.9062 39.3008Z" fill="#FF8881"/>
</g>
<defs>
<clipPath id="clip0_3011_35079">
<rect width="60" height="60" fill="white"/>
</clipPath>
</defs>
</svg>
