<svg width="32" height="32" viewBox="0 0 32 32" fill="none" xmlns="http://www.w3.org/2000/svg">
<path d="M5.29409 19.4968C5.43942 19.4968 5.55084 19.4726 5.62108 19.4217C5.69375 19.3709 5.73977 19.2934 5.76157 19.1892C5.7761 19.1238 5.76641 19.0681 5.73977 19.0221C5.7107 18.9761 5.64773 18.9203 5.54842 18.8549L5.15603 18.5861C5.06641 18.5231 4.99859 18.4601 4.95257 18.3947C4.90654 18.3293 4.8799 18.2615 4.87021 18.1913C4.86295 18.121 4.86779 18.0435 4.88475 17.9612C4.92592 17.7601 5.02523 17.6027 5.18267 17.4864C5.33769 17.3702 5.56053 17.3145 5.85119 17.3145C5.96503 17.3145 6.0716 17.329 6.17576 17.3556C6.27991 17.3823 6.35742 17.4138 6.40828 17.4477C6.43008 17.4622 6.44704 17.4767 6.45673 17.4888C6.46642 17.501 6.46884 17.5179 6.46399 17.5397L6.41313 17.7722C6.40102 17.828 6.36953 17.8449 6.31624 17.8231C6.26053 17.7989 6.17576 17.7771 6.06676 17.7553C5.95534 17.7335 5.85603 17.7214 5.76641 17.7214C5.52662 17.7214 5.39098 17.8013 5.35949 17.9587C5.34738 18.0145 5.35464 18.0605 5.38613 18.0992C5.4152 18.138 5.47817 18.1889 5.57506 18.2567L5.93354 18.4989C6.03769 18.5691 6.1152 18.6418 6.16849 18.712C6.22178 18.7847 6.25084 18.8574 6.26295 18.9325C6.27264 19.0075 6.2678 19.0923 6.24842 19.1892C6.22178 19.3152 6.16849 19.4314 6.08856 19.538C6.00863 19.6446 5.89479 19.7318 5.74946 19.7996C5.60413 19.8674 5.42731 19.9013 5.219 19.9013C5.07852 19.9013 4.95499 19.8844 4.84599 19.8529C4.73699 19.8214 4.66191 19.7923 4.62315 19.7657C4.59651 19.7463 4.57713 19.7318 4.56986 19.7221C4.5626 19.7124 4.56018 19.6954 4.56502 19.6736L4.61589 19.4411C4.628 19.3878 4.65948 19.3709 4.71277 19.3902C4.91866 19.4605 5.11243 19.4968 5.29409 19.4968Z" fill="#009EDB"/>
<path d="M7.23198 19.5182C7.36035 19.5182 7.51295 19.4915 7.68734 19.4406C7.73821 19.4261 7.75759 19.4455 7.7479 19.4964L7.70188 19.7143C7.69703 19.7361 7.68734 19.7531 7.67281 19.7652C7.65828 19.7773 7.6389 19.7894 7.60984 19.8015C7.47904 19.8669 7.32644 19.9009 7.14963 19.9009C6.99703 19.9009 6.86865 19.8718 6.7645 19.8161C6.66035 19.7579 6.58768 19.6683 6.54651 19.5448C6.50533 19.4213 6.50533 19.2638 6.54651 19.0749L6.61433 18.7576C6.65308 18.5711 6.71848 18.4161 6.81052 18.2925C6.90257 18.169 7.01398 18.077 7.14478 18.0188C7.27558 17.9607 7.41606 17.9316 7.56866 17.9316C7.74305 17.9316 7.88354 17.9656 7.98769 18.0309C8.01191 18.0431 8.02645 18.0552 8.03614 18.0673C8.0434 18.0794 8.04582 18.0963 8.04098 18.1181L7.99496 18.3361C7.98285 18.387 7.9562 18.404 7.91261 18.3919C7.84236 18.3676 7.77939 18.3483 7.72125 18.3337C7.66312 18.3192 7.59288 18.3119 7.50568 18.3119C7.27558 18.3119 7.13025 18.4597 7.06485 18.7576L6.99703 19.0749C6.96312 19.2372 6.97039 19.351 7.01883 19.4188C7.06727 19.4867 7.13751 19.5206 7.22956 19.5206" fill="#009EDB"/>
<path d="M9.01247 18.3032C8.83323 18.3032 8.64672 18.3322 8.45053 18.3904C8.39966 18.4049 8.38029 18.3855 8.38998 18.3347L8.43357 18.1264C8.43842 18.1046 8.44811 18.0876 8.46022 18.0755C8.47475 18.0634 8.49655 18.0488 8.52319 18.0392C8.59828 18.0101 8.69032 17.9834 8.7969 17.9616C8.90347 17.9398 9.01974 17.9277 9.14085 17.9277C9.2886 17.9277 9.40728 17.952 9.50175 18.0004C9.59621 18.0488 9.65919 18.1215 9.69552 18.2208C9.72943 18.3201 9.73185 18.4388 9.70279 18.5817L9.45573 19.7444C9.45088 19.7686 9.44604 19.7855 9.43635 19.7952C9.42908 19.8049 9.41455 19.8122 9.39033 19.8194C9.28375 19.8461 9.18202 19.8679 9.08271 19.8824C8.98583 19.897 8.86714 19.9042 8.72908 19.9042C8.54257 19.9042 8.39482 19.8848 8.2834 19.8461C8.1744 19.8073 8.09932 19.7468 8.06056 19.662C8.02181 19.5772 8.01696 19.4682 8.04603 19.3326V19.3156C8.07267 19.2139 8.10416 19.1291 8.14776 19.0565C8.19136 18.9862 8.24949 18.9257 8.32458 18.8772C8.39966 18.8288 8.48928 18.7924 8.59586 18.7682C8.70243 18.744 8.83081 18.7319 8.98098 18.7319H9.22078L9.25226 18.5817C9.27406 18.4751 9.2668 18.4025 9.22804 18.3637C9.18929 18.325 9.11662 18.3056 9.01005 18.3056M9.0488 19.536L9.15538 19.0322H8.91558C8.81143 19.0322 8.73392 19.0419 8.68064 19.0589C8.62735 19.0783 8.58859 19.1049 8.56437 19.1437C8.54015 19.1824 8.52077 19.2357 8.50624 19.3035L8.50139 19.3229C8.48928 19.3883 8.48928 19.4367 8.50139 19.4707C8.51593 19.5046 8.54499 19.5288 8.58859 19.5433C8.63461 19.5578 8.70486 19.5651 8.79932 19.5651C8.89378 19.5651 8.97856 19.5554 9.04638 19.536" fill="#009EDB"/>
<path d="M11.4058 19.802C11.4034 19.819 11.3913 19.8359 11.3743 19.8505C11.3574 19.865 11.3404 19.8723 11.321 19.8723H11.0062C10.9868 19.8723 10.9723 19.865 10.9626 19.8505C10.9529 19.8359 10.9505 19.819 10.9529 19.802L11.1927 18.6757C11.2121 18.5861 11.2169 18.5134 11.2072 18.4601C11.1975 18.4069 11.1709 18.3681 11.1273 18.3439C11.0837 18.3197 11.0183 18.3075 10.9311 18.3075C10.8269 18.3075 10.7131 18.3197 10.5871 18.3439L10.2771 19.802C10.2747 19.8214 10.265 19.8383 10.248 19.8529C10.2311 19.8674 10.2141 19.8747 10.1947 19.8747H9.88229C9.86291 19.8747 9.84838 19.8674 9.83869 19.8529C9.829 19.8383 9.82658 19.8214 9.829 19.8044L10.1923 18.0992C10.1996 18.0653 10.2262 18.0435 10.2747 18.0314C10.3958 17.9999 10.5217 17.9757 10.655 17.9563C10.7882 17.937 10.9117 17.9297 11.0255 17.9297C11.292 17.9297 11.4761 17.9878 11.5778 18.1065C11.6771 18.2252 11.7013 18.4141 11.6456 18.6757L11.4034 19.8044L11.4058 19.802Z" fill="#009EDB"/>
<path d="M13.7455 19.8164C13.7382 19.8503 13.714 19.8721 13.668 19.877C13.5687 19.8915 13.4791 19.9012 13.3943 19.9012C13.2586 19.9012 13.1545 19.8867 13.0843 19.86C13.014 19.8334 12.968 19.7801 12.9486 19.7026C12.9292 19.6251 12.9341 19.5112 12.968 19.3587L13.1957 18.2881L12.9244 18.2396C12.8808 18.2323 12.8614 18.2081 12.8687 18.1718L12.9026 18.0192C12.905 17.9998 12.9147 17.9853 12.9317 17.9708C12.9462 17.9562 12.9656 17.9514 12.9849 17.9514H13.2683L13.3289 17.6704C13.3362 17.6317 13.3652 17.6099 13.4112 17.6026L13.7382 17.5469H13.7528C13.7891 17.5469 13.8012 17.5638 13.7939 17.5977L13.7189 17.949H14.0628C14.0846 17.949 14.0991 17.9562 14.1088 17.9683C14.1185 17.9804 14.1209 17.9974 14.1161 18.0192L14.0725 18.2202C14.0676 18.2396 14.058 18.2541 14.041 18.2687C14.0241 18.2808 14.0071 18.2881 13.9877 18.2881H13.6438L13.4161 19.3587C13.3991 19.4434 13.3943 19.4967 13.404 19.5161C13.4137 19.5379 13.4476 19.5476 13.5081 19.5476H13.7261C13.7746 19.5476 13.7939 19.5645 13.7867 19.5984L13.7407 19.814L13.7455 19.8164Z" fill="#009EDB"/>
<path d="M15.7415 19.0516C15.7076 19.2139 15.6446 19.3592 15.555 19.49C15.4654 19.6208 15.3515 19.7201 15.2135 19.7928C15.0754 19.8655 14.9204 19.9018 14.746 19.9018C14.5716 19.9018 14.4335 19.8655 14.3245 19.7928C14.2155 19.7201 14.1453 19.6184 14.1114 19.49C14.0775 19.3592 14.0775 19.2139 14.1114 19.0516L14.1695 18.7779C14.2034 18.6156 14.2664 18.4703 14.356 18.3395C14.4456 18.2087 14.5595 18.1094 14.7 18.0367C14.838 17.9641 14.993 17.9277 15.1674 17.9277C15.3418 17.9277 15.4823 17.9641 15.5889 18.0367C15.6955 18.1094 15.7657 18.2111 15.802 18.3395C15.8359 18.4703 15.8384 18.6156 15.802 18.7779L15.7439 19.0516H15.7415ZM15.291 19.0516L15.3491 18.7779C15.3782 18.635 15.3709 18.5236 15.3273 18.4412C15.2813 18.3589 15.2013 18.3177 15.0827 18.3177C14.964 18.3177 14.8647 18.3589 14.7847 18.4412C14.7048 18.5236 14.6491 18.6374 14.62 18.7779L14.5619 19.0516C14.5328 19.1945 14.5401 19.3059 14.5861 19.3883C14.6321 19.4707 14.7121 19.5118 14.8283 19.5118C14.9446 19.5118 15.0463 19.4707 15.1263 19.3883C15.2062 19.3059 15.2619 19.1921 15.2934 19.0516" fill="#009EDB"/>
<path d="M18.9059 18.1312C18.8478 18.4122 18.7122 18.6156 18.5039 18.7416C18.2956 18.8675 18.0437 18.9305 17.753 18.9305C17.736 18.9305 17.6973 18.9305 17.6367 18.9257C17.5762 18.9232 17.5374 18.9208 17.518 18.9208C17.4987 18.9208 17.4793 18.9208 17.4551 18.9184L17.2661 19.8073C17.2613 19.8267 17.2516 19.8437 17.2371 19.8558C17.2225 19.8679 17.2056 19.8751 17.1862 19.8751H16.8447C16.8277 19.8751 16.8132 19.8679 16.8011 19.8558C16.789 19.8412 16.7866 19.8267 16.7914 19.8073L17.2904 17.4603C17.2976 17.4288 17.3097 17.4045 17.3315 17.39C17.3533 17.3755 17.3824 17.3658 17.4212 17.3585C17.6149 17.3295 17.8402 17.3125 18.0994 17.3125C18.3924 17.3125 18.6177 17.3731 18.7727 17.4966C18.9277 17.6201 18.9738 17.8212 18.9156 18.0997L18.9084 18.1288L18.9059 18.1312ZM18.4336 18.1312L18.4409 18.1021C18.47 17.9592 18.4506 17.8575 18.3828 17.7969C18.3125 17.7364 18.1914 17.7049 18.0146 17.7049C17.9032 17.7049 17.8014 17.7097 17.707 17.7194L17.5326 18.5308C17.6416 18.5381 17.7409 18.5405 17.8354 18.5405C17.9589 18.5405 18.0582 18.526 18.1381 18.4969C18.2181 18.4679 18.2835 18.4218 18.3295 18.3637C18.3779 18.3032 18.4118 18.2257 18.4312 18.1312" fill="#009EDB"/>
<path d="M19.6507 18.3032C19.4714 18.3032 19.2849 18.3322 19.0887 18.3904C19.0379 18.4049 19.0185 18.3855 19.0282 18.3347L19.0718 18.1264C19.0766 18.1046 19.0863 18.0876 19.0984 18.0755C19.113 18.0634 19.1348 18.0488 19.1614 18.0392C19.2365 18.0101 19.3285 17.9834 19.4351 17.9616C19.5417 17.9398 19.6579 17.9277 19.779 17.9277C19.9244 17.9277 20.0455 17.952 20.1399 18.0004C20.2344 18.0488 20.2974 18.1215 20.3337 18.2208C20.3701 18.3201 20.3725 18.4388 20.341 18.5817L20.0939 19.7444C20.0891 19.7686 20.0842 19.7855 20.0746 19.7952C20.0673 19.8049 20.0528 19.8122 20.0285 19.8194C19.922 19.8461 19.8202 19.8679 19.7233 19.8824C19.6265 19.897 19.5078 19.9042 19.3697 19.9042C19.1832 19.9042 19.0354 19.8848 18.924 19.8461C18.815 19.8073 18.7399 19.7468 18.7012 19.662C18.6624 19.5772 18.6576 19.4682 18.6867 19.3326V19.3156C18.7133 19.2139 18.7448 19.1291 18.7884 19.0565C18.832 18.9862 18.8901 18.9257 18.9652 18.8772C19.0403 18.8288 19.1299 18.7924 19.2365 18.7682C19.3431 18.744 19.4714 18.7319 19.6216 18.7319H19.8614L19.8929 18.5817C19.9147 18.4751 19.9074 18.4025 19.8687 18.3637C19.8299 18.325 19.7572 18.3056 19.6507 18.3056M19.6894 19.536L19.796 19.0322H19.5562C19.4521 19.0322 19.3745 19.0419 19.3213 19.0589C19.268 19.0783 19.2292 19.1049 19.205 19.1437C19.1808 19.1824 19.1614 19.2357 19.1469 19.3035L19.142 19.3229C19.1299 19.3883 19.1299 19.4367 19.142 19.4707C19.1566 19.5046 19.1856 19.5288 19.2292 19.5433C19.2752 19.5578 19.3455 19.5651 19.4399 19.5651C19.5344 19.5651 19.6192 19.5554 19.687 19.536" fill="#009EDB"/>
<path d="M22.4704 18.0102C22.4704 18.0102 22.4655 18.0248 22.4631 18.0296L21.4676 20.0231C21.4022 20.1563 21.3368 20.2604 21.2714 20.3355C21.206 20.4106 21.1261 20.4663 21.0292 20.5026C20.9323 20.539 20.8088 20.5584 20.6586 20.5584C20.6005 20.5584 20.5375 20.5535 20.4697 20.5438C20.4018 20.5341 20.3461 20.5244 20.3074 20.5123C20.2614 20.5002 20.242 20.4808 20.2468 20.4542L20.2928 20.2362C20.2953 20.2193 20.3049 20.2047 20.3219 20.1926C20.3389 20.1805 20.3558 20.1732 20.3752 20.1732H20.3825C20.4115 20.1732 20.4745 20.1781 20.5714 20.1853C20.6683 20.1926 20.7312 20.195 20.7627 20.195C20.8136 20.195 20.8572 20.1878 20.8935 20.1757C20.9299 20.1635 20.9638 20.1417 20.9928 20.1103C21.0219 20.0788 21.051 20.0327 21.08 19.9746L21.1285 19.8729H21.0776C21.0389 19.8729 21.0025 19.8656 20.971 19.8535C20.9396 19.8414 20.9105 19.8148 20.8863 19.7736C20.862 19.7324 20.8475 19.6718 20.8402 19.5895L20.7264 18.0272C20.7264 18.0272 20.7264 18.0127 20.7264 18.003C20.7337 17.9666 20.7603 17.9473 20.8015 17.9473H21.1454C21.16 17.9473 21.1745 17.9545 21.1842 17.9666C21.1939 17.9788 21.1987 17.9933 21.1987 18.0102L21.2496 19.3981C21.2496 19.449 21.2593 19.4732 21.2787 19.4732H21.3101L21.9908 18.0078C22.0077 17.9691 22.0344 17.9497 22.0731 17.9497H22.4219C22.4364 17.9497 22.451 17.9545 22.4607 17.9666C22.4704 17.9788 22.4752 17.9909 22.4704 18.0078" fill="#009EDB"/>
<path fill-rule="evenodd" clip-rule="evenodd" d="M1.62891 11.4316H3.23964L4.58394 15.1375L5.73204 12.0638C5.75384 11.9427 5.73447 11.9064 5.68602 11.8047C5.62547 11.6811 5.55765 11.5552 5.48983 11.4341H6.69122C6.6234 11.6835 6.51682 11.9572 6.4272 12.214L4.87218 16.5327C4.4483 16.4504 3.9784 16.2905 3.61265 15.9562C3.33895 15.7068 3.23964 15.4258 3.104 15.0843L1.81057 11.7974C1.7597 11.6642 1.69673 11.5503 1.62891 11.4316ZM8.04763 13.1683V15.8182C8.04763 15.9247 8.07669 15.9417 8.14694 16.0313L8.4594 16.4261H6.94797C7.03032 16.2978 7.1151 16.1742 7.20472 16.0531C7.26769 15.949 7.29676 15.9102 7.29676 15.794V12.0905L6.87046 11.4316H8.44002L10.9784 14.5611V12.0638C10.9784 11.9427 10.9566 11.9064 10.8888 11.8047C10.8065 11.6811 10.7193 11.5552 10.6297 11.4341H12.1411L11.8286 11.8289C11.7584 11.9137 11.7366 11.9354 11.7366 12.042V16.5472C11.1601 16.4722 10.6224 16.3414 10.1549 15.7576L8.05005 13.1635L8.04763 13.1683Z" fill="#ED1C24"/>
<path fill-rule="evenodd" clip-rule="evenodd" d="M25.3164 12.6298C25.3164 12.5208 25.3334 12.4118 25.3624 12.3077C25.3939 12.206 25.4375 12.1042 25.4981 12.0049C25.6071 11.8184 25.7669 11.6707 25.9728 11.5592C26.1811 11.4502 26.4209 11.3945 26.6946 11.3945C26.806 11.3945 26.9126 11.4066 27.0095 11.4357C27.1064 11.4624 27.2033 11.506 27.3002 11.5617C27.4818 11.6658 27.6247 11.8136 27.7289 12.0073C27.7822 12.1091 27.8258 12.2132 27.8548 12.3222C27.8839 12.4312 27.896 12.5499 27.896 12.6783C27.896 12.8527 27.8573 13.0319 27.7797 13.2184C27.7022 13.4025 27.5932 13.5575 27.4503 13.6835L27.6271 13.8554C27.6998 13.9233 27.7749 13.9862 27.8548 14.0468C27.9348 14.1049 28.0244 14.1558 28.1213 14.1994C28.2182 14.2454 28.3223 14.2721 28.4265 14.2793C28.3344 14.3568 28.2351 14.415 28.131 14.4586C28.0268 14.4997 27.9178 14.5191 27.804 14.5191C27.7071 14.5191 27.6102 14.4997 27.5133 14.4586C27.414 14.4174 27.322 14.3689 27.2348 14.3084C27.1427 14.2454 27.0579 14.18 26.9829 14.1195L26.7842 13.9523C26.7697 13.9523 26.7527 13.9523 26.7309 13.9523C26.7091 13.9523 26.6825 13.9572 26.651 13.962L26.5323 13.9717C26.3046 13.9717 26.0963 13.9112 25.9098 13.7925C25.7233 13.6738 25.5756 13.5115 25.4738 13.308C25.423 13.2063 25.3818 13.0997 25.3576 12.9859C25.3309 12.8696 25.3164 12.7534 25.3164 12.6298ZM26.0237 12.6371C26.0237 12.7146 26.0334 12.797 26.0503 12.8817C26.0649 12.9423 26.0842 13.0174 26.1157 13.107C26.1642 13.2499 26.2368 13.3686 26.3313 13.4606C26.4233 13.5527 26.5396 13.5987 26.6752 13.5987C26.8521 13.5987 26.9829 13.5285 27.0652 13.3904C27.15 13.2499 27.1936 13.0731 27.1936 12.8551C27.1936 12.7994 27.1863 12.7098 27.1766 12.5862C27.1645 12.4942 27.1476 12.4118 27.1258 12.3368C27.104 12.2592 27.0797 12.1914 27.0531 12.1309C26.9998 12.0122 26.932 11.9226 26.8399 11.8644C26.7503 11.8039 26.6437 11.7724 26.5251 11.7724C26.4694 11.7724 26.4161 11.7821 26.3676 11.8039C26.3216 11.8233 26.2756 11.8523 26.2344 11.8911C26.1617 11.9613 26.106 12.0509 26.0745 12.1624C26.0406 12.2714 26.0237 12.3925 26.0237 12.5233V12.6419V12.6371ZM28.8261 12.6637C28.9036 12.6516 28.9739 12.6226 29.0344 12.5838C29.095 12.5426 29.1434 12.4869 29.1773 12.4191C29.1943 12.3852 29.2064 12.3537 29.2161 12.3174C29.2258 12.2835 29.2282 12.2447 29.2282 12.2084C29.2282 12.0945 29.1991 12.0001 29.1362 11.9226C29.0756 11.8475 28.9811 11.8087 28.8552 11.8087H28.8261V12.6613V12.6637ZM28.8261 12.8599V13.5527C28.8261 13.7246 28.8794 13.8433 28.986 13.9039V13.9208H27.9808V13.9039C28.0825 13.8458 28.1334 13.7319 28.1334 13.5575V11.8596C28.1334 11.7579 28.1237 11.6755 28.1067 11.6174C28.0874 11.5592 28.0462 11.506 27.9808 11.4599V11.4527H29.2015C29.3372 11.4527 29.4607 11.4769 29.5673 11.5278C29.6763 11.5786 29.7611 11.6513 29.824 11.753C29.858 11.8015 29.8798 11.8572 29.8967 11.9177C29.9137 11.9758 29.9234 12.0437 29.9234 12.1115C29.9234 12.2035 29.8943 12.3028 29.8337 12.4143C29.7756 12.5233 29.6593 12.6201 29.4874 12.7049L29.9718 13.5212C30.0881 13.698 30.1922 13.824 30.2867 13.899L29.8628 13.9305H29.7562L29.6569 13.933C29.56 13.933 29.4849 13.916 29.4292 13.8845C29.3759 13.853 29.3227 13.79 29.2766 13.698L28.831 12.8599H28.8261Z" fill="#ED1C24"/>
<path d="M12.7576 15.6628V12.2452C12.7576 12.0344 12.7334 11.8746 12.685 11.7656C12.6365 11.6566 12.5517 11.5573 12.4282 11.4677V11.4531H14.6687C15.0974 11.4531 15.4365 11.5282 15.6836 11.6784C15.9331 11.8286 16.1026 12.0054 16.1922 12.2088C16.2819 12.4123 16.3255 12.6109 16.3255 12.8071C16.3255 13.604 15.8604 14.0909 14.9327 14.2701L14.4507 14.3137C14.3102 14.2943 14.2182 14.2846 14.1697 14.2846C14.6687 14.0787 14.9158 13.7033 14.9158 13.1607C14.9158 12.5116 14.6517 12.187 14.1213 12.187V15.4909C14.1213 15.9123 14.2376 16.2127 14.4677 16.3895V16.4186H12.4258V16.404C12.6438 16.2587 12.7552 16.0116 12.7552 15.6628" fill="#005AAA"/>
<path d="M16.3316 15.2879L17.3658 12.3546C17.4312 12.1584 17.4627 12.0083 17.4627 11.9065C17.4627 11.7443 17.3682 11.5965 17.1817 11.4657V11.4512H19.0444L20.5316 15.3944C20.6164 15.6439 20.7011 15.8377 20.7883 15.9685C20.8731 16.1017 20.9966 16.2398 21.1589 16.3851V16.4142H18.8409V16.3851C19.0492 16.2688 19.1534 16.1259 19.1534 15.954C19.1534 15.8498 19.134 15.7408 19.0928 15.6294L18.853 14.9124H17.3343L17.1091 15.5446C17.0582 15.69 17.0243 15.8304 17.0049 15.9685C17.0049 16.0387 17.0291 16.109 17.0752 16.1792C17.1212 16.247 17.1914 16.3173 17.2835 16.3851V16.4142H15.7188V16.3851C15.8786 16.2519 15.9973 16.109 16.0724 15.954C16.1087 15.8765 16.1475 15.7844 16.1862 15.6827C16.225 15.5785 16.271 15.4477 16.3267 15.2855M17.5523 14.2076H18.6011L18.0634 12.7034L17.5523 14.2076Z" fill="#005AAA"/>
<path d="M22.0317 14.1611L20.5857 12.0151C20.4936 11.877 20.404 11.7607 20.312 11.6663C20.2369 11.596 20.1545 11.5306 20.0625 11.4701V11.4555H21.9106L23.0418 13.2504L23.6836 12.3372C23.7466 12.2452 23.795 12.141 23.8338 12.0199C23.858 11.9351 23.8677 11.86 23.8604 11.7995C23.8459 11.6614 23.7587 11.5524 23.5989 11.4677V11.4531H25.3549L23.4608 14.1587V15.4255C23.4608 15.4788 23.4608 15.532 23.4656 15.5805C23.4681 15.6289 23.4729 15.6725 23.4753 15.7089C23.4777 15.7573 23.4947 15.8421 23.5286 15.9583C23.5649 16.1158 23.6594 16.2587 23.812 16.3846V16.4137H21.6975V16.3846C21.9203 16.2732 22.0293 16.0383 22.0293 15.6749V14.1587L22.0317 14.1611Z" fill="#005AAA"/>
</svg>
