<svg width="40" height="40" viewBox="0 0 40 40" fill="none" xmlns="http://www.w3.org/2000/svg">
<path d="M8.51002 8.50951C6.23742 10.7821 4.68976 13.6776 4.06275 16.8298C3.43574 19.982 3.75754 23.2493 4.98746 26.2186C6.21739 29.1879 8.30019 31.7258 10.9725 33.5114C13.6448 35.297 16.7866 36.25 20.0005 36.25C23.2145 36.25 26.3562 35.2969 29.0285 33.5114C31.7008 31.7258 33.7836 29.1879 35.0135 26.2186C36.2435 23.2493 36.5653 19.982 35.9383 16.8298C35.3113 13.6776 33.7636 10.7821 31.491 8.50951C28.4395 5.46968 24.3077 3.7629 20.0005 3.7629C15.6933 3.7629 11.5615 5.46968 8.51002 8.50951V8.50951ZM26.2429 21.2485L13.7581 21.2485C13.4376 21.2327 13.1355 21.0943 12.9142 20.8619C12.693 20.6294 12.5696 20.3209 12.5696 20C12.5696 19.6791 12.693 19.3705 12.9142 19.1381C13.1355 18.9057 13.4376 18.7673 13.7581 18.7515L26.2429 18.7515C26.5634 18.7673 26.8656 18.9057 27.0868 19.1381C27.308 19.3705 27.4314 19.6791 27.4314 20C27.4314 20.3209 27.308 20.6295 27.0868 20.8619C26.8656 21.0943 26.5634 21.2327 26.2429 21.2485V21.2485Z" fill="url(#paint0_linear_2846_645415)"/>
<defs>
<linearGradient id="paint0_linear_2846_645415" x1="31.491" y1="31.4905" x2="8.51002" y2="8.50951" gradientUnits="userSpaceOnUse">
<stop stop-color="#FD3A84"/>
<stop offset="1" stop-color="#FFA68D"/>
</linearGradient>
</defs>
</svg>
