<svg width="20" height="20" viewBox="0 0 20 20" fill="none" xmlns="http://www.w3.org/2000/svg">
<path d="M10.4466 16.5541L16.7748 10.2259C18.3295 8.66344 18.556 6.10875 17.0873 4.47594C16.7189 4.06446 16.2705 3.73241 15.7695 3.50007C15.2685 3.26772 14.7254 3.13997 14.1734 3.12462C13.6213 3.10926 13.0719 3.20663 12.5588 3.41076C12.0456 3.61489 11.5795 3.92151 11.1888 4.31188L10.0013 5.50719L8.97789 4.47594C7.41539 2.92125 4.8607 2.69469 3.22789 4.16344C2.81641 4.53179 2.48436 4.98016 2.25202 5.48117C2.01968 5.98218 1.89193 6.5253 1.87657 7.07735C1.86122 7.6294 1.95858 8.17878 2.16271 8.69193C2.36685 9.20508 2.67346 9.67122 3.06383 10.0619L9.55602 16.5541C9.67451 16.6714 9.83455 16.7373 10.0013 16.7373C10.1681 16.7373 10.3281 16.6714 10.4466 16.5541V16.5541Z" stroke="#DA291C" stroke-linecap="round" stroke-linejoin="round"/>
</svg>
