<svg width="32" height="24" viewBox="0 0 32 24" fill="none" xmlns="http://www.w3.org/2000/svg">
<rect x="0.5" y="1.20508" width="31" height="21.5882" rx="3.5" fill="white"/>
<path fill-rule="evenodd" clip-rule="evenodd" d="M16.1698 16.5448C15.0554 17.4842 13.6099 18.0512 12.0303 18.0512C8.50568 18.0512 5.64844 15.228 5.64844 11.7453C5.64844 8.26269 8.50568 5.43945 12.0303 5.43945C13.6099 5.43945 15.0554 6.00651 16.1698 6.94585C17.2842 6.00651 18.7298 5.43945 20.3094 5.43945C23.834 5.43945 26.6912 8.26269 26.6912 11.7453C26.6912 15.228 23.834 18.0512 20.3094 18.0512C18.7298 18.0512 17.2842 17.4842 16.1698 16.5448Z" fill="#ED0006"/>
<path fill-rule="evenodd" clip-rule="evenodd" d="M16.1719 16.5448C17.5441 15.3882 18.4141 13.6672 18.4141 11.7453C18.4141 9.8235 17.5441 8.10246 16.1719 6.94584C17.2863 6.00651 18.7318 5.43945 20.3114 5.43945C23.836 5.43945 26.6933 8.26269 26.6933 11.7453C26.6933 15.228 23.836 18.0512 20.3114 18.0512C18.7318 18.0512 17.2863 17.4842 16.1719 16.5448Z" fill="#F9A000"/>
<path fill-rule="evenodd" clip-rule="evenodd" d="M16.1719 16.5442C17.5441 15.3876 18.4142 13.6666 18.4142 11.7448C18.4142 9.82293 17.5441 8.1019 16.1719 6.94529C14.7998 8.1019 13.9297 9.82293 13.9297 11.7448C13.9297 13.6666 14.7998 15.3876 16.1719 16.5442Z" fill="#FF5E00"/>
<rect x="0.5" y="1.20508" width="31" height="21.5882" rx="3.5" stroke="#F2F4F7"/>
</svg>
