<svg width="10" height="10" viewBox="0 0 10 10" fill="none" xmlns="http://www.w3.org/2000/svg">
<path d="M9.16666 4.0612C8.99583 4.0612 8.85416 3.91953 8.85416 3.7487V2.91536C8.85416 1.84036 8.15833 1.14453 7.08333 1.14453H2.91666C1.84166 1.14453 1.14583 1.84036 1.14583 2.91536V3.7487C1.14583 3.91953 1.00416 4.0612 0.833328 4.0612C0.662495 4.0612 0.520828 3.91953 0.520828 3.7487V2.91536C0.520828 1.48203 1.48333 0.519531 2.91666 0.519531H7.08333C8.51666 0.519531 9.47916 1.48203 9.47916 2.91536V3.7487C9.47916 3.91953 9.33749 4.0612 9.16666 4.0612Z" fill="#DA291C"/>
<path d="M7.08333 9.47917H2.91666C1.48333 9.47917 0.520828 8.51667 0.520828 7.08333V6.25C0.520828 6.07917 0.662495 5.9375 0.833328 5.9375C1.00416 5.9375 1.14583 6.07917 1.14583 6.25V7.08333C1.14583 8.15833 1.84166 8.85417 2.91666 8.85417H7.08333C8.15833 8.85417 8.85416 8.15833 8.85416 7.08333V6.25C8.85416 6.07917 8.99583 5.9375 9.16666 5.9375C9.33749 5.9375 9.47916 6.07917 9.47916 6.25V7.08333C9.47916 8.51667 8.51666 9.47917 7.08333 9.47917Z" fill="#DA291C"/>
<path d="M6.83334 3.41927L5.26667 2.57344C5.1 2.48594 4.90417 2.48594 4.7375 2.57344L3.16667 3.41927C3.05417 3.48177 2.98334 3.6026 2.98334 3.73594C2.98334 3.87344 3.05417 3.99427 3.16667 4.05677L4.73334 4.9026C4.81667 4.94844 4.90834 4.96927 5 4.96927C5.09167 4.96927 5.18334 4.94844 5.26667 4.9026L6.83334 4.05677C6.94584 3.99427 7.01667 3.87344 7.01667 3.73594C7.01667 3.6026 6.94584 3.48177 6.83334 3.41927Z" fill="#DA291C"/>
<path d="M4.475 5.19617L3.01667 4.467C2.90417 4.41284 2.775 4.417 2.66667 4.48367C2.5625 4.55034 2.5 4.66284 2.5 4.78784V6.167C2.5 6.4045 2.63333 6.62117 2.84583 6.72534L4.30417 7.4545C4.35417 7.4795 4.40833 7.492 4.46667 7.492C4.53333 7.492 4.59583 7.47534 4.65417 7.43784C4.7625 7.37117 4.825 7.25867 4.825 7.13367V5.7545C4.82083 5.517 4.69167 5.3045 4.475 5.19617Z" fill="#DA291C"/>
<path d="M7.32917 4.48367C7.22084 4.417 7.09167 4.41284 6.97917 4.467L5.52084 5.19617C5.30834 5.3045 5.175 5.517 5.175 5.7545V7.13367C5.175 7.25867 5.2375 7.37117 5.34584 7.43784C5.40417 7.47534 5.46667 7.492 5.53334 7.492C5.5875 7.492 5.64167 7.4795 5.69584 7.4545L7.15417 6.72534C7.36667 6.617 7.5 6.4045 7.5 6.167V4.78784C7.5 4.66284 7.4375 4.55034 7.32917 4.48367Z" fill="#DA291C"/>
</svg>
