<svg width="17" height="20" viewBox="0 0 17 20" fill="none" xmlns="http://www.w3.org/2000/svg">
<path d="M15.952 8.7156L2.45196 0.47497C2.22709 0.332467 1.96739 0.25448 1.70121 0.24952C1.43503 0.24456 1.17261 0.312819 0.942585 0.446845C0.709158 0.574914 0.514566 0.763532 0.379283 0.992853C0.244 1.22217 0.173028 1.48372 0.173835 1.74997V18.25C0.173028 18.5162 0.244 18.7778 0.379283 19.0071C0.514566 19.2364 0.709158 19.425 0.942585 19.5531C1.17261 19.6871 1.43503 19.7554 1.70121 19.7504C1.96739 19.7455 2.22709 19.6675 2.45196 19.525L15.952 11.2843C16.1732 11.1509 16.3563 10.9625 16.4833 10.7374C16.6104 10.5124 16.6771 10.2584 16.6771 9.99997C16.6771 9.74155 16.6104 9.48752 16.4833 9.2625C16.3563 9.03747 16.1732 8.84908 15.952 8.7156V8.7156Z" fill="white"/>
</svg>
