<svg width="20" height="20" viewBox="0 0 20 20" fill="none" xmlns="http://www.w3.org/2000/svg">
<path d="M7.22656 9.75113C7.8697 11.0793 8.94366 12.1505 10.2734 12.7902C10.3715 12.8366 10.48 12.8567 10.5882 12.8485C10.6965 12.8403 10.8007 12.804 10.8906 12.7433L12.8437 11.4386C12.93 11.3801 13.0298 11.3444 13.1336 11.3348C13.2374 11.3253 13.342 11.3422 13.4375 11.3839L17.0938 12.9542C17.2187 13.0063 17.3231 13.0979 17.3909 13.2151C17.4586 13.3322 17.486 13.4684 17.4688 13.6027C17.3529 14.5072 16.9114 15.3384 16.2269 15.9409C15.5424 16.5435 14.6619 16.8759 13.75 16.8761C10.9321 16.8761 8.22956 15.7567 6.23699 13.7641C4.24442 11.7716 3.125 9.06905 3.125 6.25112C3.12521 5.33925 3.45767 4.45869 4.06018 3.77421C4.66269 3.08974 5.49395 2.64826 6.39844 2.53237C6.53269 2.51513 6.66888 2.54249 6.78605 2.61025C6.90322 2.67802 6.99487 2.78241 7.04687 2.90737L8.61719 6.57144C8.65802 6.66546 8.67511 6.76808 8.66693 6.87026C8.65876 6.97244 8.62558 7.07104 8.57031 7.15737L7.26562 9.14175C7.20754 9.2315 7.17345 9.33465 7.16661 9.44134C7.15977 9.54803 7.18041 9.65469 7.22656 9.75113V9.75113Z" stroke="#141416" stroke-linecap="round" stroke-linejoin="round"/>
</svg>
