<svg width="57" height="56" viewBox="0 0 57 56" fill="none" xmlns="http://www.w3.org/2000/svg">
<path d="M24.2859 27.5665C23.9668 28.119 23.8821 28.7629 24.0473 29.3791L24.5873 31.3942C24.7524 32.0105 25.1476 32.5257 25.7003 32.8447C26.0684 33.0573 26.4768 33.1658 26.8908 33.1658C27.0983 33.1658 27.3072 33.1385 27.5129 33.0834C28.1292 32.9183 28.6444 32.523 28.9634 31.9705C29.2825 31.4179 29.3672 30.7741 29.202 30.1578L28.6619 28.1427C28.4968 27.5264 28.1016 27.0112 27.549 26.6922C26.9966 26.3731 26.3529 26.2884 25.7364 26.4535C25.12 26.6186 24.6049 27.0139 24.2859 27.5665ZM25.4935 28.2638C25.6264 28.0338 25.8407 27.8693 26.0973 27.8006C26.1831 27.7777 26.2694 27.7666 26.3543 27.7666C26.7932 27.7666 27.196 28.0599 27.3149 28.5037L27.855 30.5188C27.9237 30.7753 27.8883 31.0432 27.7557 31.2732C27.6228 31.5032 27.4085 31.6677 27.1519 31.7364C26.6217 31.8784 26.0762 31.5628 25.9342 31.0334L25.3943 29.0183C25.3255 28.7616 25.3608 28.4937 25.4935 28.2638Z" fill="#23262F"/>
<path d="M44.3527 26.4534C43.7365 26.2885 43.0927 26.373 42.5401 26.6921C41.9876 27.0111 41.5924 27.5262 41.4272 28.1425L40.8871 30.1577C40.722 30.774 40.8067 31.4177 41.1257 31.9703C41.4447 32.5228 41.9599 32.9181 42.5762 33.0832C42.782 33.1383 42.9908 33.1656 43.1983 33.1656C43.6122 33.1656 44.0208 33.0571 44.3888 32.8446C44.9414 32.5255 45.3366 32.0104 45.5018 31.3941L46.0418 29.379C46.2069 28.7627 46.1222 28.119 45.8032 27.5664C45.4841 27.0138 44.969 26.6185 44.3527 26.4534ZM44.6948 29.0181L44.1549 31.0332C44.013 31.5626 43.4666 31.8782 42.9372 31.7361C42.6806 31.6674 42.4663 31.5028 42.3334 31.2729C42.2007 31.0429 42.1653 30.7751 42.2341 30.5186L42.7742 28.5034C42.8931 28.0597 43.2957 27.7664 43.7347 27.7664C43.8196 27.7664 43.906 27.7774 43.9918 27.8005C44.2484 27.8692 44.4627 28.0337 44.5955 28.2636C44.7282 28.4936 44.7635 28.7616 44.6948 29.0181Z" fill="#23262F"/>
<path d="M29.3633 24.4434V26.5296C29.3633 27.8467 30.4348 28.9184 31.7519 28.9184C33.0691 28.9184 34.1407 27.8468 34.1407 26.5296V24.4434C34.1407 23.1262 33.0691 22.0547 31.7519 22.0547C30.4348 22.0547 29.3633 23.1263 29.3633 24.4434ZM32.7461 24.4434V26.5296C32.7461 27.0778 32.3001 27.5239 31.7519 27.5239C31.2038 27.5239 30.7578 27.0779 30.7578 26.5296V24.4434C30.7578 23.8953 31.2038 23.4492 31.7519 23.4492C32.3002 23.4492 32.7461 23.8953 32.7461 24.4434Z" fill="#23262F"/>
<path d="M35.9531 24.4434V26.5296C35.9531 27.8467 37.0247 28.9184 38.3419 28.9184C39.659 28.9184 40.7305 27.8468 40.7305 26.5296V24.4434C40.7305 23.1262 39.659 22.0547 38.3419 22.0547C37.0248 22.0547 35.9531 23.1263 35.9531 24.4434ZM39.3361 24.4434V26.5296C39.3361 27.0778 38.8901 27.5239 38.342 27.5239C37.7937 27.5239 37.3477 27.0779 37.3477 26.5296V24.4434C37.3477 23.8953 37.7938 23.4492 38.342 23.4492C38.8901 23.4492 39.3361 23.8953 39.3361 24.4434Z" fill="#23262F"/>
<path d="M19.2382 42.9491L19.0793 43.1081L18.9204 42.9491C18.4745 42.5033 17.8817 42.2578 17.2512 42.2578C16.6207 42.2578 16.0279 42.5033 15.582 42.9492C15.1362 43.3951 14.8906 43.9879 14.8906 44.6185C14.8906 45.249 15.1362 45.8418 15.582 46.2876L18.2701 48.9757C18.4933 49.1988 18.7863 49.3103 19.0793 49.3102C19.3724 49.3102 19.6655 49.1987 19.8886 48.9756L22.5766 46.2876C23.0225 45.8418 23.268 45.249 23.268 44.6185C23.268 43.988 23.0225 43.3951 22.5765 42.9492C21.6563 42.0288 20.1586 42.0289 19.2382 42.9491ZM21.5905 45.3015L19.0793 47.8127L16.5682 45.3015C16.1914 44.9248 16.1914 44.312 16.5682 43.9352C16.7506 43.7528 16.9931 43.6523 17.2512 43.6523C17.5093 43.6523 17.7519 43.7528 17.9343 43.9352L18.5863 44.5872C18.8587 44.8595 19.3001 44.8595 19.5724 44.5872L20.2243 43.9353C20.601 43.5588 21.2138 43.5586 21.5905 43.9353C21.9671 44.3119 21.9671 44.9248 21.5905 45.3015Z" fill="#23262F"/>
<path d="M40.9922 47.1973C40.9922 47.5823 41.3043 47.8945 41.6895 47.8945H46.1617C46.5469 47.8945 46.859 47.5823 46.859 47.1973C46.859 46.8122 46.5469 46.5 46.1617 46.5H41.6895C41.3044 46.5 40.9922 46.8122 40.9922 47.1973Z" fill="#23262F"/>
<path d="M48.8787 51.7992C49.7648 51.7992 50.5925 51.4487 51.2093 50.8124C51.8261 50.176 52.1503 49.3377 52.1225 48.452L51.2007 19.0389C51.1877 18.6259 51.0923 18.2267 50.917 17.8523L48.2815 12.2234C48.1811 12.009 48.1281 11.7704 48.1281 11.5335V6.42545C48.1281 5.19789 47.1295 4.19922 45.9019 4.19922H24.1895C22.962 4.19922 21.9633 5.19789 21.9633 6.42545V11.5335C21.9633 11.7704 21.9103 12.009 21.8099 12.2234L19.1742 17.8523C18.999 18.2266 18.9036 18.6258 18.8907 19.0388L18.724 24.3585C18.7119 24.7434 19.0141 25.0652 19.399 25.0772C19.4066 25.0775 19.4139 25.0776 19.4212 25.0776C19.7963 25.0776 20.106 24.7796 20.1178 24.4022L20.2845 19.0825C20.2914 18.8601 20.3428 18.6452 20.4372 18.4436L23.0728 12.8147C23.2593 12.4164 23.3578 11.9735 23.3578 11.5335V6.42545C23.3578 5.96683 23.731 5.59375 24.1895 5.59375H45.9019C46.3605 5.59375 46.7336 5.96683 46.7336 6.42545V11.5335C46.7336 11.9735 46.8322 12.4165 47.0186 12.8147L49.6541 18.4436C49.7486 18.6453 49.7999 18.8602 49.807 19.0826L50.7288 48.4958C50.7446 49.001 50.5597 49.479 50.2079 49.8419C49.8562 50.2048 49.3841 50.4047 48.8787 50.4047H33.1603C33.2788 50.0697 33.3118 49.7066 33.2489 49.3472L32.1045 42.8005C32.9078 42.7989 33.697 42.6024 34.4025 42.2257C34.8053 42.0105 35.2863 42.0106 35.6889 42.2257C36.4761 42.6461 37.3673 42.8426 38.2665 42.7934C40.7997 42.6557 42.8326 40.5595 42.8947 38.0212C42.9456 35.9467 41.678 34.0563 39.7403 33.3174C39.61 33.2677 39.5025 33.1686 39.4379 33.0383C38.6035 31.3575 36.9205 30.3135 35.0457 30.3135C33.1709 30.3135 31.4878 31.3575 30.6534 33.0384C30.5888 33.1686 30.4814 33.2677 30.3509 33.3174C29.0337 33.8198 28.0125 34.8589 27.5197 36.1436C26.7933 35.7204 25.9501 35.4766 25.0505 35.4766C24.1309 35.4766 23.2513 35.7258 22.4794 36.2011C21.7451 35.7867 20.9205 35.5696 20.0676 35.5696C19.9673 35.5696 19.8674 35.5736 19.7676 35.5797L20.0227 27.441C20.0347 27.0561 19.7325 26.7343 19.3476 26.7223C19.3402 26.722 19.3327 26.7219 19.3254 26.7219C18.9504 26.7219 18.6407 27.0199 18.6289 27.3973L18.3835 35.2252C17.4173 34.6589 16.3122 34.3547 15.1788 34.3547C14.9867 34.3547 14.7924 34.3635 14.6015 34.3807C14.2179 34.4154 13.9351 34.7543 13.9696 35.1378C14.0042 35.5213 14.3444 35.8039 14.7267 35.7695C14.8762 35.7561 15.0283 35.7492 15.1787 35.7492C16.3708 35.7492 17.5233 36.1803 18.4236 36.9632C18.6027 37.1188 18.8487 37.1728 19.0765 37.1063C19.3995 37.0119 19.7329 36.9641 20.0675 36.9641C20.7972 36.9641 21.4978 37.1858 22.0938 37.6052C22.3425 37.7802 22.6755 37.774 22.9173 37.5899C23.5352 37.1196 24.2728 36.8711 25.0504 36.8711C26.7802 36.8711 28.2221 38.1231 28.5202 39.768H10.3188C10.5477 38.5625 11.2156 37.482 12.2179 36.7321C12.5263 36.5015 12.5892 36.0645 12.3587 35.7562C12.128 35.4478 11.6911 35.3848 11.3827 35.6155C10.0263 36.6302 9.14634 38.1177 8.90397 39.768H8.34262C7.32406 39.768 6.45759 40.4963 6.28216 41.4996L4.9104 49.3472C4.80367 49.9572 4.97102 50.579 5.36948 51.0531C5.76785 51.5273 6.3516 51.7991 6.97087 51.7991H48.8787V51.7992ZM30.8478 34.6205C31.307 34.4454 31.6816 34.1037 31.9026 33.6584C32.4999 32.4554 33.7042 31.708 35.0458 31.708C36.3873 31.708 37.5916 32.4554 38.1889 33.6585C38.4101 34.1038 38.7847 34.4455 39.2436 34.6205C40.6301 35.1492 41.5371 36.5021 41.5007 37.987C41.4562 39.803 40.0025 41.3026 38.1908 41.401C37.5464 41.436 36.9083 41.2959 36.3458 40.9956C35.5318 40.5608 34.5596 40.5608 33.7456 40.9956C33.1832 41.2959 32.5449 41.436 31.9005 41.401C31.8853 41.4002 31.8703 41.4007 31.8553 41.4008C31.65 40.4865 30.8656 39.8237 29.9311 39.7732C29.8001 38.7449 29.3519 37.8144 28.6861 37.0846C28.9523 35.9649 29.7581 35.0361 30.8478 34.6205ZM6.43713 50.156C6.30242 49.9956 6.24804 49.7937 6.28411 49.5873L7.65595 41.7397C7.71443 41.4052 8.00329 41.1625 8.34281 41.1625H29.8167C30.1562 41.1625 30.4451 41.4052 30.5036 41.7397L31.8754 49.5873C31.9115 49.7936 31.8571 49.9956 31.7224 50.156C31.5877 50.3164 31.3981 50.4047 31.1887 50.4047H6.97087C6.76141 50.4047 6.57185 50.3164 6.43713 50.156Z" fill="#23262F"/>
<path d="M44.1199 8.07422H39.8613C39.4762 8.07422 39.1641 8.38641 39.1641 8.77148C39.1641 9.15656 39.4762 9.46875 39.8613 9.46875H44.1199C44.505 9.46875 44.8171 9.15656 44.8171 8.77148C44.8171 8.38641 44.505 8.07422 44.1199 8.07422Z" fill="#23262F"/>
<path d="M36.8199 8.07422H25.9707C25.5855 8.07422 25.2734 8.38641 25.2734 8.77148C25.2734 9.15656 25.5855 9.46875 25.9707 9.46875H36.8199C37.205 9.46875 37.5171 9.15656 37.5171 8.77148C37.5171 8.38641 37.205 8.07422 36.8199 8.07422Z" fill="#23262F"/>
</svg>
