<svg width="48" height="48" viewBox="0 0 48 48" fill="none" xmlns="http://www.w3.org/2000/svg">
<g clip-path="url(#clip0_7167_130781)">
<path d="M38.0107 32.4827C32.6838 29.5999 31.7207 25.6158 31.5541 24.0371C31.215 20.8265 28.5519 19.978 27.191 19.978C25.1183 19.978 23.3143 21.4557 22.9016 23.4915C22.5552 25.1991 22.1421 27.9186 22.1421 31.1757C22.1421 33.5135 22.2461 35.8624 22.4515 38.1571C22.6742 40.6451 24.729 42.5212 27.231 42.5212H35.0144C37.6606 42.5212 39.8132 40.3683 39.8132 37.722V35.4973C39.8132 34.2397 39.1226 33.0844 38.0107 32.4827ZM38.407 37.722C38.407 39.593 36.885 41.115 35.0144 41.115H27.231C25.4622 41.115 24.0098 39.7897 23.8523 38.0319C23.6505 35.7789 23.5483 33.4718 23.5483 31.1757C23.5483 28.0354 23.946 25.4155 24.2797 23.7709C24.5602 22.3881 25.7848 21.3843 27.191 21.3843C27.3002 21.3843 29.8633 21.4161 30.1555 24.1847C30.7264 29.5892 35.3711 32.653 37.3413 33.7194C37.9987 34.0753 38.4073 34.7565 38.4073 35.4973V37.722H38.407Z" fill="#363A42"/>
<path d="M42.3979 28.0573C42.3642 25.885 41.9511 22.5587 40.178 19.0489C39.7832 18.2674 39.0259 17.7727 38.1528 17.7254C37.2812 17.6778 36.4781 18.0872 36.0031 18.8189L34.0212 21.8724C33.2782 23.0164 33.2339 24.4608 33.9055 25.6414C34.6588 26.9653 36.0116 28.8535 38.1795 30.3319C38.638 30.6446 39.8139 31.0797 40.9785 30.4787C41.8783 30.0144 42.414 29.071 42.3979 28.0573ZM40.3116 29.2406C39.8791 29.4735 39.3781 29.4471 38.972 29.1702C37.0263 27.8431 35.8076 26.1406 35.1279 24.946C34.717 24.2242 34.7448 23.3394 35.2004 22.6381L37.1823 19.5847C37.6489 18.8449 38.5893 19.0017 38.9226 19.6828C40.5339 22.9751 40.9602 26.0545 40.992 28.0793C40.9997 28.573 40.7452 29.0069 40.3116 29.2406Z" fill="#363A42"/>
<path d="M40.0437 11.6342C40.6198 11.1416 40.9856 10.4103 40.9856 9.59473C40.9856 8.28113 40.0367 7.18542 38.7883 6.95544V3.20911C38.7883 1.43958 37.3491 0 35.5796 0H29.4957C27.7262 0 26.2866 1.43958 26.2866 3.20911V6.95544C25.0386 7.18542 24.0897 8.28113 24.0897 9.59473C24.0897 10.3579 24.4102 11.0471 24.9229 11.5364C23.7279 12.8405 21.9617 15.0571 20.4767 18.0919C18.3409 22.4553 17.4023 27.1765 17.6865 32.1244C17.7096 32.528 17.7323 32.9209 17.7543 33.3036H7.46265C7.07446 33.3036 6.75952 33.6182 6.75952 34.0067C6.75952 34.3953 7.07446 34.7098 7.46265 34.7098H17.8352C17.8986 35.8099 17.9564 36.8152 18.0099 37.7336H5.97693C3.92212 37.7336 2.25 36.0615 2.25 34.0067C2.25 31.9515 3.92212 30.2798 5.97693 30.2798H15.1545C15.5431 30.2798 15.8577 29.9648 15.8577 29.5767C15.8577 29.1881 15.5431 28.8735 15.1545 28.8735H5.97693C3.14648 28.8735 0.84375 31.1763 0.84375 34.0067C0.84375 35.5847 1.56006 36.9983 2.68433 37.9406C1.6073 38.3705 0.84375 39.4233 0.84375 40.652C0.84375 41.5367 1.23999 42.3314 1.86401 42.8668C1.23999 43.4026 0.84375 44.1969 0.84375 45.082C0.84375 46.6908 2.15295 48 3.76172 48H40.1587C43.5839 48 46.4235 45.3223 46.6238 41.9037L46.6879 40.8127C46.7102 40.4249 46.4147 40.0924 46.0269 40.0697C45.639 40.0466 45.3065 40.3429 45.2838 40.7307L45.2201 41.8217C45.0634 44.4976 42.8401 46.5938 40.1587 46.5938H24.7178C22.0367 46.5938 19.8135 44.4976 19.6567 41.8217C19.6018 40.8864 19.2308 34.4919 19.0902 32.0438C18.8199 27.3402 19.7117 22.8538 21.7397 18.7097C23.2603 15.6024 25.0858 13.4037 26.2086 12.219C26.391 12.2582 38.5679 12.2692 38.6975 12.2498C41.2247 14.9231 46.3802 21.705 45.7863 32.0438C45.6625 34.2001 45.5555 36.0538 45.4633 37.6472C45.4406 38.0347 45.7119 38.4104 46.1656 38.391C46.5352 38.3752 46.8453 38.1024 46.8669 37.7285C46.9592 36.1351 47.0662 34.281 47.1903 32.1244C47.7905 21.6735 42.7994 14.6675 40.0437 11.6342ZM20.6931 46.5938H3.76172C2.92822 46.5938 2.25 45.9155 2.25 45.0817C2.25 44.2482 2.92822 43.5699 3.76172 43.5699C4.15027 43.5699 4.46484 43.2554 4.46484 42.8668C4.46484 42.4783 4.15027 42.1637 3.76172 42.1637C2.92822 42.1637 2.25 41.4855 2.25 40.6516C2.25 39.8181 2.92822 39.1399 3.76172 39.1399H18.0916C18.1523 40.1873 18.2659 42.0773 18.2743 42.1637H7.46265C7.07446 42.1637 6.75952 42.4783 6.75952 42.8668C6.75952 43.2554 7.07446 43.5699 7.46265 43.5699H18.5742C18.9763 44.7762 19.7219 45.8218 20.6931 46.5938ZM29.4957 1.40625H35.5796C36.5735 1.40625 37.3821 2.21484 37.3821 3.20911V6.91003H27.6929V3.20911C27.6929 2.21484 28.5015 1.40625 29.4957 1.40625ZM26.7744 10.8732C26.0695 10.8732 25.496 10.2997 25.496 9.59473C25.496 8.88977 26.0695 8.31628 26.7744 8.31628H38.3009C39.0059 8.31628 39.5793 8.88977 39.5793 9.59473C39.5793 10.2997 39.0059 10.8732 38.3009 10.8732H26.7744Z" fill="#363A42"/>
</g>
<defs>
<clipPath id="clip0_7167_130781">
<rect width="48" height="48" fill="white"/>
</clipPath>
</defs>
</svg>
