<svg width="40" height="40" viewBox="0 0 40 40" fill="none" xmlns="http://www.w3.org/2000/svg">
<path fill-rule="evenodd" clip-rule="evenodd" d="M3.75 8.75C3.75 7.36929 4.86929 6.25 6.25 6.25H33.75C35.1307 6.25 36.25 7.36929 36.25 8.75V23.75C36.25 24.4404 35.6904 25 35 25C34.3096 25 33.75 24.4404 33.75 23.75V8.75H6.25V31.25H26.25C26.9404 31.25 27.5 31.8096 27.5 32.5C27.5 33.1904 26.9404 33.75 26.25 33.75H6.25C4.86929 33.75 3.75 32.6307 3.75 31.25V8.75Z" fill="#777E90"/>
<path fill-rule="evenodd" clip-rule="evenodd" d="M13.75 12.5C14.4404 12.5 15 13.0596 15 13.75C15 15.0761 15.5268 16.3479 16.4645 17.2855C17.4021 18.2232 18.6739 18.75 20 18.75C21.3261 18.75 22.5979 18.2232 23.5355 17.2855C24.4732 16.3479 25 15.0761 25 13.75C25 13.0596 25.5596 12.5 26.25 12.5C26.9404 12.5 27.5 13.0596 27.5 13.75C27.5 15.7391 26.7098 17.6468 25.3033 19.0533C23.8968 20.4598 21.9891 21.25 20 21.25C18.0109 21.25 16.1032 20.4598 14.6967 19.0533C13.2902 17.6468 12.5 15.7391 12.5 13.75C12.5 13.0596 13.0596 12.5 13.75 12.5Z" fill="#777E90"/>
<path fill-rule="evenodd" clip-rule="evenodd" d="M36.25 28.75C36.25 28.0596 35.6904 27.5 35 27.5C34.3096 27.5 33.75 28.0596 33.75 28.75V31.25H31.25C30.5596 31.25 30 31.8096 30 32.5C30 33.1904 30.5596 33.75 31.25 33.75H33.75V36.25C33.75 36.9404 34.3096 37.5 35 37.5C35.6904 37.5 36.25 36.9404 36.25 36.25V33.75H38.75C39.4404 33.75 40 33.1904 40 32.5C40 31.8096 39.4404 31.25 38.75 31.25H36.25V28.75Z" fill="#777E90"/>
</svg>
