<svg width="286" height="52" viewBox="0 0 286 52" fill="none" xmlns="http://www.w3.org/2000/svg">
<g clip-path="url(#clip0_2846_643516)">
<path d="M1.33169 4H0V47.1175H1.33169V4Z" fill="white"/>
<path d="M9.31606 4H3.49609V47.1175H9.31606V4Z" fill="white"/>
<path d="M14.5076 4H11.5977V47.1175H14.5076V4Z" fill="white"/>
<path d="M20.176 4H18.957V47.1175H20.176V4Z" fill="white"/>
<path d="M27.0444 4H23V47.1175H27.0444V4Z" fill="white"/>
<path d="M38.1296 4H30.7031V47.1175H38.1296V4Z" fill="white"/>
<path d="M41.427 4H39.9297V47.1175H41.427V4Z" fill="white"/>
<path d="M46.7225 4H43.8125V47.1175H46.7225V4Z" fill="white"/>
<path d="M50.0739 4H49.1016V47.1175H50.0739V4Z" fill="white"/>
<path d="M54.2731 4H53.3008V47.1175H54.2731V4Z" fill="white"/>
<path d="M57.2163 4H55.7578V47.1175H57.2163V4Z" fill="white"/>
<path d="M62.2067 4H59.5469V47.1175H62.2067V4Z" fill="white"/>
<path d="M70.8551 4H65.0352V47.1175H70.8551V4Z" fill="white"/>
<path d="M77.6014 4H74.6914V47.1175H77.6014V4Z" fill="white"/>
<path d="M80.1643 4H78.9453V47.1175H80.1643V4Z" fill="white"/>
<path d="M87.0366 4H82.9922V47.1175H87.0366V4Z" fill="white"/>
<path d="M140.951 4H136.906V47.1175H140.951V4Z" fill="white"/>
<path d="M90.6917 4H88.5039V47.1175H90.6917V4Z" fill="white"/>
<path d="M93.9074 4H92.4102V47.1175H93.9074V4Z" fill="white"/>
<path d="M99.199 4H96.2891V47.1175H99.199V4Z" fill="white"/>
<path d="M119.773 4H116.863V47.1175H119.773V4Z" fill="white"/>
<path d="M129.703 4H126.793V47.1175H129.703V4Z" fill="white"/>
<path d="M102.554 4H101.582V47.1175H102.554V4Z" fill="white"/>
<path d="M107.383 4H106.41V47.1175H107.383V4Z" fill="white"/>
<path d="M112.211 4H111.238V47.1175H112.211V4Z" fill="white"/>
<path d="M104.992 4H104.02V47.1175H104.992V4Z" fill="white"/>
<path d="M109.82 4H108.848V47.1175H109.82V4Z" fill="white"/>
<path d="M114.648 4H113.676V47.1175H114.648V4Z" fill="white"/>
<path d="M121.746 4H120.773V47.1175H121.746V4Z" fill="white"/>
<path d="M123.164 4H122.191V47.1175H123.164V4Z" fill="white"/>
<path d="M124.582 4H123.609V47.1175H124.582V4Z" fill="white"/>
<path d="M126 4H125.027V47.1175H126V4Z" fill="white"/>
<path d="M135.222 4H134.25V47.1175H135.222V4Z" fill="white"/>
<path d="M146.281 4H144.949V47.1175H146.281V4Z" fill="white"/>
<path d="M154.265 4H148.445V47.1175H154.265V4Z" fill="white"/>
<path d="M159.457 4H156.547V47.1175H159.457V4Z" fill="white"/>
<path d="M165.125 4H163.906V47.1175H165.125V4Z" fill="white"/>
<path d="M171.994 4H167.949V47.1175H171.994V4Z" fill="white"/>
<path d="M183.079 4H175.652V47.1175H183.079V4Z" fill="white"/>
<path d="M186.376 4H184.879V47.1175H186.376V4Z" fill="white"/>
<path d="M191.672 4H188.762V47.1175H191.672V4Z" fill="white"/>
<path d="M195.023 4H194.051V47.1175H195.023V4Z" fill="white"/>
<path d="M199.222 4H198.25V47.1175H199.222V4Z" fill="white"/>
<path d="M202.166 4H200.707V47.1175H202.166V4Z" fill="white"/>
<path d="M207.156 4H204.496V47.1175H207.156V4Z" fill="white"/>
<path d="M215.804 4H209.984V47.1175H215.804V4Z" fill="white"/>
<path d="M222.551 4H219.641V47.1175H222.551V4Z" fill="white"/>
<path d="M225.113 4H223.895V47.1175H225.113V4Z" fill="white"/>
<path d="M231.986 4H227.941V47.1175H231.986V4Z" fill="white"/>
<path d="M285.9 4H281.855V47.1175H285.9V4Z" fill="white"/>
<path d="M235.641 4H233.453V47.1175H235.641V4Z" fill="white"/>
<path d="M238.857 4H237.359V47.1175H238.857V4Z" fill="white"/>
<path d="M244.148 4H241.238V47.1175H244.148V4Z" fill="white"/>
<path d="M264.722 4H261.812V47.1175H264.722V4Z" fill="white"/>
<path d="M274.652 4H271.742V47.1175H274.652V4Z" fill="white"/>
<path d="M247.504 4H246.531V47.1175H247.504V4Z" fill="white"/>
<path d="M252.332 4H251.359V47.1175H252.332V4Z" fill="white"/>
<path d="M257.16 4H256.188V47.1175H257.16V4Z" fill="white"/>
<path d="M249.941 4H248.969V47.1175H249.941V4Z" fill="white"/>
<path d="M254.769 4H253.797V47.1175H254.769V4Z" fill="white"/>
<path d="M259.597 4H258.625V47.1175H259.597V4Z" fill="white"/>
<path d="M266.695 4H265.723V47.1175H266.695V4Z" fill="white"/>
<path d="M268.113 4H267.141V47.1175H268.113V4Z" fill="white"/>
<path d="M269.531 4H268.559V47.1175H269.531V4Z" fill="white"/>
<path d="M270.949 4H269.977V47.1175H270.949V4Z" fill="white"/>
<path d="M280.172 4H279.199V47.1175H280.172V4Z" fill="white"/>
</g>
<defs>
<clipPath id="clip0_2846_643516">
<rect width="285.9" height="51.1175" fill="white"/>
</clipPath>
</defs>
</svg>
