<svg width="49" height="48" viewBox="0 0 49 48" fill="none" xmlns="http://www.w3.org/2000/svg">
<g clip-path="url(#clip0_1778_126567)">
<path d="M27.7858 29.9948C27.6638 29.8984 27.5471 29.7967 27.4349 29.6893L27.7858 29.9948ZM27.7858 29.9948C27.784 29.9989 27.7823 30.003 27.7805 30.0071L27.8266 30.0267L27.8572 29.9872C27.8537 29.9845 27.8502 29.9818 27.8467 29.9791C27.9921 29.6353 28.1282 29.2892 28.2473 28.9388L27.7858 29.9948ZM26.7379 30.89L26.6845 30.8842C26.3071 32.5861 25.8113 35.8535 26.7365 38.5602C26.3067 38.9257 25.8696 39.2819 25.4097 39.6091L25.4097 39.6091C25.346 39.6545 25.3058 39.7117 25.2848 39.7733C22.602 41.8665 19.6415 43.0524 16.9855 43.0525C12.4896 42.9958 8.89114 39.3988 8.93536 35.0126L8.93536 35.012C8.93295 33.5589 9.32847 32.1308 10.0803 30.8761C10.6424 29.982 10.9468 28.9564 10.9607 27.9076V27.9069C10.9607 27.0464 10.7541 26.198 10.3589 25.4286C9.96846 24.6662 9.40007 24.0052 8.69871 23.4981C5.82774 21.4115 4.16068 18.1037 4.21947 14.6108L4.21948 14.6105C4.25491 11.7015 5.52554 8.9377 7.72989 6.97883L7.72993 6.9788C10.0429 4.9194 13.1175 3.87063 16.2423 4.07517C20.1374 4.33879 24.3566 5.86839 27.6017 9.08341C30.846 12.2976 33.1207 17.2002 33.1212 24.2179C33.1147 26.5646 32.666 28.887 31.7993 31.0719C31.3991 31.6082 31.0441 32.1752 30.6955 32.7433L30.5901 32.7145L30.5901 32.7145L30.5885 32.7141C29.1876 32.3816 27.8811 31.7464 26.7645 30.8567L26.7379 30.89ZM16.9845 41.8046C16.9847 41.8046 16.9849 41.8046 16.9852 41.8046C19.6177 41.8043 22.6145 40.4698 25.2676 38.1579L25.2905 38.138L25.2834 38.1086C25.1577 37.5861 25.0674 37.0558 25.0126 36.5216L25.0022 36.4197L24.9283 36.4906C22.4414 38.877 19.4465 40.3565 16.9857 40.3567C14.0152 40.3017 11.6514 37.9113 11.6979 35.0137L11.6979 35.0128C11.6963 34.0392 11.96 33.0827 12.461 32.2403C13.2667 30.9299 13.7013 29.4343 13.7208 27.906L13.7208 27.9055C13.7225 27.2653 13.6451 26.6276 13.4912 26.0058L13.4911 26.0057C13.3463 25.4261 13.4966 24.8132 13.8945 24.3593C14.2852 23.9156 14.8722 23.6839 15.4699 23.7393L15.4702 23.7393C18.9508 24.0377 24.0535 24.8704 28.6098 27.144C29.4224 27.5621 29.8044 28.4924 29.5141 29.3413C29.3537 29.8104 29.165 30.272 28.963 30.7286L28.9435 30.7727L28.9869 30.7938C29.4008 30.9947 29.8278 31.167 30.2661 31.3099L30.309 31.3239L30.3273 31.2827C31.3173 29.0523 31.831 26.6483 31.8391 24.2182V24.2181C31.8391 20.1075 30.8134 15.5804 28.3395 11.9819C25.8644 8.38156 21.9411 5.71344 16.1543 5.32247C13.381 5.13512 10.6505 6.06551 8.59879 7.89728C6.6554 9.62407 5.53252 12.0628 5.50075 14.6297C5.44629 17.7213 6.91882 20.6479 9.45716 22.495L9.45726 22.4951C10.3208 23.1202 11.022 23.9351 11.5039 24.8737C11.9874 25.8163 12.2403 26.856 12.2404 27.9105C12.2226 29.1804 11.8587 30.4237 11.1862 31.511L11.1859 31.5116C10.5493 32.5732 10.2151 33.7821 10.2166 35.0126C10.1711 38.7118 13.1987 41.7481 16.9845 41.8046ZM25.5229 30.2375L25.5295 30.2099L25.529 30.2094C25.6275 29.8428 25.917 29.5517 26.2935 29.4476L26.2936 29.4476C26.6847 29.3392 27.1042 29.4431 27.3948 29.72L27.4 29.7251L27.4003 29.7255C27.5262 29.846 27.6578 29.9593 27.7959 30.0662L27.8472 30.1059L27.8726 30.0463C28.0257 29.6863 28.1694 29.3234 28.2945 28.9555C28.3918 28.691 28.2804 28.3978 28.0312 28.2598L28.0313 28.2597L28.0281 28.2582C24.048 26.4069 19.7504 25.2961 15.354 24.9828C15.1688 24.9657 14.9858 25.0363 14.8634 25.174L14.8632 25.1743C14.7335 25.3225 14.6856 25.5234 14.735 25.7126C14.9128 26.4322 15.0029 27.169 15.0013 27.909C14.9819 29.6585 14.4877 31.3712 13.5683 32.8725L13.568 32.8731C13.1816 33.5229 12.9784 34.2608 12.9783 35.0123C12.9311 37.2229 14.7228 39.0529 16.984 39.1081H16.9852C19.4345 39.1081 22.5299 37.3624 24.9298 34.6645L24.942 34.6509L24.9425 34.6326C24.9828 33.1523 25.1774 31.6791 25.5229 30.2375Z" fill="#23262F" stroke="white" stroke-width="0.1"/>
<path d="M30.3981 23.4675C30.4102 24.0861 30.0979 24.6676 29.5695 25.0097C29.0346 25.3613 28.3533 25.4213 27.7626 25.1685C22.821 23.1996 17.537 22.1804 12.1997 22.1662M30.3981 23.4675L25.5984 11.0348C23.059 8.52065 19.6646 7.00239 16.0562 6.76693L16.0558 6.76691C15.8533 6.752 15.6506 6.74571 15.4477 6.74571H15.4473V6.74571C10.8912 6.7025 7.1344 10.2173 6.98359 14.6605V14.7466C7.0683 17.3897 8.34588 19.8618 10.4751 21.4976L10.4759 21.4983C10.9623 21.8894 11.5704 22.1076 12.2001 22.1162C12.2002 22.1162 12.2003 22.1162 12.2004 22.1162L12.1997 22.1662M30.3981 23.4675C30.305 18.3122 28.6575 14.0023 25.6337 10.9993L30.3981 23.4675ZM12.1997 22.1662C11.5588 22.1575 10.9398 21.9355 10.4446 21.5373L12.1997 22.1662ZM12.2117 20.8675L12.2112 20.8675C11.8742 20.8635 11.5479 20.7452 11.2891 20.5328C9.4556 19.1358 8.34798 17.019 8.26408 14.7484L8.26401 14.7466H8.26405V14.67V14.6681L8.26408 14.6681C8.40675 10.9069 11.5964 7.94522 15.4481 7.99358C15.4482 7.99358 15.4483 7.99358 15.4484 7.99358L15.4477 8.04358C15.6161 8.04358 15.7852 8.0499 15.9591 8.06254L12.2117 20.8675ZM12.2117 20.8675C17.727 20.8841 23.1882 21.9399 28.2937 23.9766C28.469 24.0516 28.6708 24.0335 28.8294 23.929C28.9813 23.8337 29.0721 23.6666 29.0668 23.4884M12.2117 20.8675L15.9626 8.01266C18.9234 8.21089 22.1509 9.38323 24.6629 11.8559C27.1757 14.3294 28.969 18.1003 29.0668 23.4884M29.0668 23.4884C29.0668 23.4883 29.0668 23.4882 29.0668 23.4881L29.0168 23.4896L29.0668 23.4887C29.0668 23.4886 29.0668 23.4885 29.0668 23.4884Z" fill="#23262F" stroke="white" stroke-width="0.1"/>
<path d="M11.1242 14.45C11.1242 12.4309 12.8008 10.7922 14.8717 10.7922C16.941 10.7945 18.6168 12.4317 18.6191 14.4501C18.6191 16.4692 16.9426 18.1078 14.8717 18.1078C12.8008 18.1078 11.1242 16.4692 11.1242 14.45ZM12.4047 14.45C12.4047 15.7824 13.5109 16.86 14.8717 16.86C16.2333 16.86 17.3387 15.7824 17.3387 14.45C17.3387 13.1177 16.2333 12.0401 14.8717 12.0401C13.5101 12.0401 12.4047 13.1177 12.4047 14.45Z" fill="#23262F" stroke="white" stroke-width="0.1"/>
<path d="M33.8631 19.307C33.8631 19.307 29.4264 20.9859 27.0968 26.2391C24.7671 31.4924 24.5454 36.7448 26.3758 39.0194C28.2061 41.2941 30.5358 43.4604 34.1965 43.2977C37.8572 43.1349 41.2962 41.1858 43.0149 37.1785C44.7344 33.1713 41.6838 24.5602 39.1325 22.2319C36.5811 19.9035 36.1377 19.2533 33.8631 19.3078V19.307Z" fill="white"/>
<path d="M42.4679 26.8528C42.4679 26.8528 42.4712 26.8456 42.4736 26.8417C42.3692 26.5399 42.2559 26.2278 42.1159 25.9315C42.0318 25.7822 41.9412 25.6368 41.8627 25.4843L41.8602 25.4883C41.8449 25.4583 41.8287 25.429 41.8133 25.399C41.8012 25.3808 41.789 25.3619 41.7769 25.3437C41.7526 25.3105 41.7389 25.2773 41.7332 25.2457C39.7879 21.5711 36.8814 18.8438 34.2645 18.8438C29.7072 18.8438 24.3594 27.0313 24.3594 33.9145C24.3594 38.8983 27.762 43.8821 34.2038 43.8821C37.5538 43.8821 40.0784 42.5587 41.7219 40.5369C41.8214 40.3299 41.9792 40.1687 42.1232 39.9807C42.2867 39.7681 42.4372 39.5469 42.5909 39.3273C43.5805 37.6887 44.0482 35.7727 44.0482 33.9137C44.0482 31.5995 43.4406 29.1076 42.4679 26.8528ZM34.2645 42.6946C30.132 42.6946 25.6354 39.9657 25.6354 33.9137C25.6354 27.8617 30.3756 20.0297 34.2645 20.0297C36.756 20.0297 39.6123 23.1742 41.3132 27.0906V27.1498C42.2859 29.3455 42.8936 31.718 42.8936 33.9729C42.8936 39.9657 38.397 42.6946 34.2645 42.6946Z" fill="#23262F"/>
<path d="M32.3571 23.8672C31.4623 24.5251 29.5115 26.9461 28.8672 31.3672" stroke="#23262F" stroke-linecap="round" stroke-linejoin="round"/>
</g>
<defs>
<clipPath id="clip0_1778_126567">
<rect width="40" height="40" fill="white" transform="translate(4.16797 4)"/>
</clipPath>
</defs>
</svg>
