<svg width="48" height="48" viewBox="0 0 48 48" fill="none" xmlns="http://www.w3.org/2000/svg">
<path d="M4 13.2473C4 8.14016 8.14016 4 13.2473 4H34.7527C39.8598 4 44 8.14016 44 13.2473V34.7527C44 39.8598 39.8598 44 34.7527 44H13.2473C8.14016 44 4 39.8598 4 34.7527V13.2473Z" fill="white"/>
<path d="M29.1489 17.5181C28.9681 17.3336 28.7386 17.2407 28.4594 17.2407C28.049 17.2407 27.7495 17.4378 27.5611 17.8313C27.1588 17.3586 26.6088 17.1226 25.9117 17.1226C25.0748 17.1226 24.3706 17.4456 23.8003 18.0913C23.2303 18.737 22.9453 19.5248 22.9453 20.4541C22.9453 21.3833 23.2303 22.1708 23.8003 22.8169C24.3706 23.4628 25.0748 23.7854 25.9117 23.7854C26.6088 23.7854 27.1588 23.5494 27.5611 23.0764C27.7495 23.4705 28.049 23.6671 28.4594 23.6671C28.7386 23.6671 28.9681 23.5748 29.1489 23.3896C29.3293 23.205 29.4194 22.9784 29.4194 22.7103V18.1975C29.4194 17.9299 29.3293 17.7034 29.1489 17.5181ZM27.1488 21.5731C26.9147 21.8746 26.5923 22.0252 26.1824 22.0252C25.7717 22.0252 25.4499 21.8746 25.2161 21.5731C24.9825 21.2711 24.8654 20.8983 24.8654 20.4539C24.8654 20.0098 24.9825 19.6369 25.2161 19.3351C25.4499 19.0335 25.7717 18.8828 26.1824 18.8828C26.5923 18.8828 26.9147 19.0335 27.1488 19.3351C27.3827 19.6369 27.4996 20.0098 27.4996 20.4539C27.4996 20.8982 27.3827 21.2711 27.1488 21.5731Z" fill="#0068FF"/>
<path d="M31.591 23.3893C31.4103 23.5746 31.1803 23.6668 30.9018 23.6668C30.6225 23.6668 30.3927 23.5746 30.2123 23.3893C30.0315 23.2045 29.9414 22.9778 29.9414 22.71V14.634C29.9414 14.3664 30.0315 14.1396 30.2123 13.9547C30.3927 13.7695 30.6225 13.6772 30.9018 13.6772C31.1803 13.6772 31.4103 13.7695 31.591 13.9547C31.7715 14.1396 31.8616 14.3664 31.8616 14.634V22.7101C31.8616 22.9778 31.7715 23.2045 31.591 23.3893Z" fill="#0068FF"/>
<path d="M37.9515 18.0913C37.3362 17.4456 36.5525 17.1226 35.6003 17.1226C34.6484 17.1226 33.8714 17.4416 33.2683 18.0795C32.6648 18.7174 32.3633 19.5088 32.3633 20.4539C32.3633 21.3989 32.6648 22.1904 33.2683 22.8284C33.8714 23.4663 34.6484 23.7854 35.6003 23.7854C36.5525 23.7854 37.3362 23.4626 37.9515 22.8169C38.5423 22.1866 38.8378 21.3991 38.8378 20.4541C38.8378 19.5088 38.5425 18.7214 37.9515 18.0913ZM36.5669 21.5731C36.3328 21.8746 36.0107 22.0252 35.6003 22.0252C35.1898 22.0252 34.868 21.8746 34.6343 21.5731C34.4003 21.2711 34.2833 20.8983 34.2833 20.4539C34.2833 20.0098 34.4003 19.6369 34.6343 19.3351C34.868 19.0335 35.1898 18.8828 35.6003 18.8828C36.0107 18.8828 36.3328 19.0335 36.5669 19.3351C36.8008 19.6369 36.9173 20.0098 36.9173 20.4539C36.9173 20.8982 36.8009 21.2711 36.5669 21.5731Z" fill="#0068FF"/>
<path d="M21.881 17.3457C22.5591 16.4705 22.8986 15.8808 22.8986 15.5774C22.8986 14.8754 22.4568 14.5244 21.5731 14.5244H16.9121C16.5459 14.5244 16.2627 14.611 16.0617 14.7839C15.861 14.9573 15.7605 15.182 15.7605 15.4587C15.7605 15.7358 15.861 15.9608 16.0617 16.1339C16.2627 16.3069 16.5459 16.3934 16.9121 16.3934H20.1132L16.015 21.6886C15.7472 22.0351 15.6133 22.3422 15.6133 22.6105C15.6133 23.3803 16.1223 23.7653 17.1399 23.7653H21.9478C22.7159 23.7653 23.0997 23.4429 23.0997 22.7981C23.0997 22.1536 22.7159 21.8312 21.9478 21.8312H18.4123L21.881 17.3457Z" fill="#0068FF"/>
<path d="M19.8643 28.7524H18.668V31.239H19.8643C20.2237 31.239 20.5151 31.1216 20.7379 30.8871C20.9608 30.6525 21.0722 30.3555 21.0722 29.9956C21.0722 29.6362 20.9607 29.3389 20.7379 29.1043C20.5152 28.8698 20.2236 28.7524 19.8643 28.7524Z" fill="#32B34A"/>
<path d="M25.8353 31.0908C25.4556 31.0908 25.1579 31.2301 24.9416 31.5091C24.7254 31.7883 24.6172 32.133 24.6172 32.5439C24.6172 32.9549 24.7254 33.2998 24.9416 33.5791C25.1579 33.8578 25.4556 33.9972 25.8353 33.9972C26.2145 33.9972 26.5127 33.8578 26.7291 33.5791C26.9457 33.2998 27.0537 32.9549 27.0537 32.5439C27.0537 32.133 26.9457 31.7883 26.7291 31.5091C26.5127 31.23 26.2145 31.0908 25.8353 31.0908Z" fill="#32B34A"/>
<path d="M34.2854 25.1987H16.9423C16.3635 25.1987 15.8945 25.6678 15.8945 26.2465V36.4091C15.8945 36.9877 16.3636 37.4568 16.9423 37.4568H30.6335C30.489 37.3199 30.4165 37.1597 30.4165 36.9761C30.4165 36.8262 30.4502 36.669 30.5175 36.5045L31.1633 35.0683L29.3776 30.6097C29.3252 30.4826 29.2991 30.3441 29.2991 30.1942C29.2991 29.9996 29.3814 29.8348 29.5462 29.7C29.7109 29.5653 29.883 29.498 30.0629 29.498C30.4595 29.498 30.7292 29.6888 30.8715 30.0707L31.9831 33.1142L33.1737 30.0707C33.3234 29.6888 33.5927 29.498 33.9823 29.498C34.1619 29.498 34.3341 29.5653 34.4989 29.7C34.6634 29.8348 34.7461 29.9996 34.7461 30.1942C34.7461 30.3441 34.7196 30.4826 34.6673 30.6097L32.0226 37.0322C31.9503 37.2117 31.863 37.3529 31.7616 37.4568H34.2855C34.8642 37.4568 35.3333 36.9877 35.3333 36.4091V26.2465C35.333 25.6678 34.864 25.1987 34.2854 25.1987ZM22.0358 32.0363C21.4883 32.5368 20.8003 32.787 19.9716 32.787H18.6698V34.7104C18.6698 34.9999 18.5876 35.2246 18.4234 35.3847C18.2592 35.5451 18.0479 35.6251 17.7903 35.6251C17.5321 35.6251 17.321 35.5451 17.1569 35.3847C16.9925 35.2246 16.9106 34.9999 16.9106 34.7104V28.1191C16.9106 27.5092 17.2155 27.2042 17.8254 27.2042H19.9015C20.7693 27.2042 21.4865 27.4643 22.0537 27.9841C22.6203 28.5042 22.9038 29.1786 22.9038 30.0073C22.9035 30.844 22.6142 31.5201 22.0358 32.0363ZM28.8288 34.6309C28.8288 34.8786 28.7453 35.0881 28.5786 35.259C28.4113 35.4303 28.1989 35.5157 27.9409 35.5157C27.5611 35.5157 27.2841 35.334 27.1099 34.9693C26.7376 35.4067 26.2291 35.625 25.5841 35.625C24.81 35.625 24.1588 35.3267 23.6315 34.7292C23.1041 34.1319 22.8405 33.4032 22.8405 32.5436C22.8405 31.6843 23.1042 30.9556 23.6315 30.3584C24.159 29.7613 24.8102 29.4625 25.5841 29.4625C26.2291 29.4625 26.7376 29.6808 27.1099 30.118C27.2841 29.754 27.5611 29.5717 27.9409 29.5717C28.1989 29.5717 28.4112 29.6576 28.5786 29.8283C28.7453 29.9999 28.8288 30.2092 28.8288 30.4567V34.6309Z" fill="#32B34A"/>
<path fill-rule="evenodd" clip-rule="evenodd" d="M13.2473 4C8.14016 4 4 8.14016 4 13.2473V34.7527C4 39.4425 7.49118 43.3169 12.0164 43.9188L7.86904 15.3903C7.52731 13.0396 9.1559 10.8569 11.5066 10.5152L40.8054 6.25585C39.1834 4.85042 37.0674 4 34.7527 4H13.2473Z" fill="#0068FF"/>
</svg>
