<svg width="152" height="131" viewBox="0 0 152 131" fill="none" xmlns="http://www.w3.org/2000/svg">
<circle cx="76" cy="58" r="52" fill="#EAECF0"/>
<circle cx="21" cy="25" r="5" fill="#F2F4F7"/>
<circle cx="18" cy="109" r="7" fill="#F2F4F7"/>
<circle cx="145" cy="41" r="7" fill="#F2F4F7"/>
<circle cx="134" cy="14" r="4" fill="#F2F4F7"/>
<g filter="url(#filter0_dd_2584_582961)">
<path d="M76 36.0629L80.536 34.1629L76.0006 36.0951V90.1898L117.796 72.6754V18.5566L118 18.4712L117.796 18.3809V18.29L117.692 18.3346L76.3298 0L34 18.0314L34.2004 18.1175L34 72.0166L76 90.1576L76 36.0629Z" fill="#F9FAFB"/>
<path d="M76 36.063V90.1577L34 72.0166L34.2004 18.1176L76 36.063Z" fill="url(#paint0_linear_2584_582961)"/>
<path d="M76 36.0951V90.1898L117.796 72.6754V18.29L76 36.0951Z" fill="url(#paint1_linear_2584_582961)"/>
<path d="M76 36.0629L118 18.4712L76.3298 0L34 18.0314L76 36.0629Z" fill="#F2F4F7"/>
<path d="M49.832 11.2873L91.6718 29.4986L92.0519 42.7698L103.758 37.9395L103.404 24.5846L60.3266 6.81689L49.832 11.2873Z" fill="#EAECF0"/>
</g>
<g filter="url(#filter1_b_2584_582961)">
<rect x="52" y="68" width="48" height="48" rx="24" fill="#344054" fill-opacity="0.4"/>
<path d="M81.25 97.25H70.5438L67.9281 82.8688C67.8975 82.6965 67.8077 82.5404 67.6741 82.4274C67.5406 82.3144 67.3718 82.2517 67.1969 82.25H65.5" stroke="white" stroke-width="1.5" stroke-linecap="round" stroke-linejoin="round"/>
<path d="M71.5 101C72.5355 101 73.375 100.161 73.375 99.125C73.375 98.0895 72.5355 97.25 71.5 97.25C70.4645 97.25 69.625 98.0895 69.625 99.125C69.625 100.161 70.4645 101 71.5 101Z" stroke="white" stroke-width="1.5" stroke-linecap="round" stroke-linejoin="round"/>
<path d="M81.25 101C82.2855 101 83.125 100.161 83.125 99.125C83.125 98.0895 82.2855 97.25 81.25 97.25C80.2145 97.25 79.375 98.0895 79.375 99.125C79.375 100.161 80.2145 101 81.25 101Z" stroke="white" stroke-width="1.5" stroke-linecap="round" stroke-linejoin="round"/>
<path d="M69.8594 93.5H81.6344C81.985 93.5011 82.3247 93.3785 82.5939 93.1539C82.8631 92.9293 83.0445 92.617 83.1063 92.2719L84.25 86H68.5" stroke="white" stroke-width="1.5" stroke-linecap="round" stroke-linejoin="round"/>
</g>
<defs>
<filter id="filter0_dd_2584_582961" x="14" y="0" width="124" height="130.19" filterUnits="userSpaceOnUse" color-interpolation-filters="sRGB">
<feFlood flood-opacity="0" result="BackgroundImageFix"/>
<feColorMatrix in="SourceAlpha" type="matrix" values="0 0 0 0 0 0 0 0 0 0 0 0 0 0 0 0 0 0 127 0" result="hardAlpha"/>
<feMorphology radius="4" operator="erode" in="SourceAlpha" result="effect1_dropShadow_2584_582961"/>
<feOffset dy="8"/>
<feGaussianBlur stdDeviation="4"/>
<feColorMatrix type="matrix" values="0 0 0 0 0.0627451 0 0 0 0 0.0941176 0 0 0 0 0.156863 0 0 0 0.03 0"/>
<feBlend mode="normal" in2="BackgroundImageFix" result="effect1_dropShadow_2584_582961"/>
<feColorMatrix in="SourceAlpha" type="matrix" values="0 0 0 0 0 0 0 0 0 0 0 0 0 0 0 0 0 0 127 0" result="hardAlpha"/>
<feMorphology radius="4" operator="erode" in="SourceAlpha" result="effect2_dropShadow_2584_582961"/>
<feOffset dy="20"/>
<feGaussianBlur stdDeviation="12"/>
<feColorMatrix type="matrix" values="0 0 0 0 0.0627451 0 0 0 0 0.0941176 0 0 0 0 0.156863 0 0 0 0.08 0"/>
<feBlend mode="normal" in2="effect1_dropShadow_2584_582961" result="effect2_dropShadow_2584_582961"/>
<feBlend mode="normal" in="SourceGraphic" in2="effect2_dropShadow_2584_582961" result="shape"/>
</filter>
<filter id="filter1_b_2584_582961" x="44" y="60" width="64" height="64" filterUnits="userSpaceOnUse" color-interpolation-filters="sRGB">
<feFlood flood-opacity="0" result="BackgroundImageFix"/>
<feGaussianBlur in="BackgroundImageFix" stdDeviation="4"/>
<feComposite in2="SourceAlpha" operator="in" result="effect1_backgroundBlur_2584_582961"/>
<feBlend mode="normal" in="SourceGraphic" in2="effect1_backgroundBlur_2584_582961" result="shape"/>
</filter>
<linearGradient id="paint0_linear_2584_582961" x1="34" y1="72.2885" x2="50.587" y2="27.3666" gradientUnits="userSpaceOnUse">
<stop stop-color="#DEE1E8"/>
<stop offset="1" stop-color="#EFF1F5"/>
</linearGradient>
<linearGradient id="paint1_linear_2584_582961" x1="75.9994" y1="37.1539" x2="123.358" y2="46.5826" gradientUnits="userSpaceOnUse">
<stop stop-color="#E4E7EC"/>
<stop offset="1" stop-color="#F2F4F7"/>
</linearGradient>
</defs>
</svg>
