<svg width="60" height="60" viewBox="0 0 60 60" fill="none" xmlns="http://www.w3.org/2000/svg">
<path d="M30 5.625C25.1791 5.625 20.4664 7.05457 16.458 9.73293C12.4495 12.4113 9.32533 16.2181 7.48045 20.6721C5.63556 25.126 5.15285 30.027 6.09337 34.7553C7.03388 39.4836 9.35538 43.8268 12.7643 47.2357C16.1732 50.6446 20.5164 52.9661 25.2447 53.9066C29.973 54.8472 34.874 54.3644 39.3279 52.5196C43.7819 50.6747 47.5887 47.5505 50.2671 43.542C52.9454 39.5336 54.375 34.8209 54.375 30C54.3626 23.5392 51.7906 17.3465 47.2221 12.778C42.6535 8.20944 36.4609 5.63739 30 5.625ZM38.8359 36.1641C39.188 36.5196 39.3856 36.9997 39.3856 37.5C39.3856 38.0003 39.188 38.4804 38.8359 38.8359C38.4776 39.1825 37.9985 39.3762 37.5 39.3762C37.0015 39.3762 36.5225 39.1825 36.1641 38.8359L30 32.6484L23.8359 38.8359C23.4776 39.1825 22.9985 39.3762 22.5 39.3762C22.0015 39.3762 21.5225 39.1825 21.1641 38.8359C20.812 38.4804 20.6145 38.0003 20.6145 37.5C20.6145 36.9997 20.812 36.5196 21.1641 36.1641L27.3516 30L21.1641 23.8359C20.8651 23.4716 20.7123 23.0091 20.7354 22.5384C20.7585 22.0677 20.9559 21.6224 21.2892 21.2891C21.6224 20.9559 22.0677 20.7585 22.5384 20.7354C23.0091 20.7123 23.4716 20.8651 23.8359 21.1641L30 27.3516L36.1641 21.1641C36.5284 20.8651 36.9909 20.7123 37.4616 20.7354C37.9323 20.7585 38.3776 20.9559 38.7109 21.2891C39.0441 21.6224 39.2415 22.0677 39.2646 22.5384C39.2877 23.0091 39.1349 23.4716 38.8359 23.8359L32.6484 30L38.8359 36.1641Z" fill="#E15449"/>
</svg>
