<svg width="56" height="56" viewBox="0 0 56 56" fill="none" xmlns="http://www.w3.org/2000/svg">
<g clip-path="url(#clip0_869_14001)">
<path d="M28.3164 24.5272C28.1002 24.4368 27.8535 24.4858 27.6879 24.6515C27.5224 24.8173 27.474 25.0641 27.5646 25.2802C27.5661 25.2838 27.5677 25.2873 27.5692 25.2909L29.3963 29.3657C29.476 29.5435 29.6507 29.6489 29.8337 29.6489C29.8993 29.6489 29.9658 29.6354 30.0294 29.6069C30.2708 29.4986 30.3788 29.2151 30.2706 28.9738L29.9506 28.2602L31.2888 26.9221L31.9992 27.2432C32.2403 27.3521 32.524 27.245 32.633 27.004C32.742 26.7629 32.6349 26.4791 32.3938 26.3701L28.3291 24.5327C28.325 24.5308 28.3207 24.5289 28.3164 24.5272ZM30.3556 26.5002L29.5312 27.3245L28.8581 25.8232L30.3556 26.5002Z" fill="#DA291C"/>
<path d="M30.2814 22.101C30.184 22.2866 30.2187 22.5141 30.3668 22.6623L33.3544 25.6498C33.448 25.7433 33.5706 25.7901 33.6932 25.7901C33.8158 25.7901 33.9384 25.7433 34.032 25.6498C34.2191 25.4627 34.2191 25.1594 34.032 24.9723L32.1311 23.0715L35.5646 23.7C35.8112 23.7451 36.0415 23.6393 36.1506 23.4308C36.2623 23.2178 36.2143 22.9599 36.0252 22.7708L33.105 19.9065C32.9162 19.7214 32.6129 19.7242 32.4276 19.9131C32.2423 20.1019 32.2452 20.4053 32.4341 20.5906L34.3923 22.5113L30.7919 21.8523C30.5856 21.815 30.3789 21.9154 30.2814 22.101Z" fill="#DA291C"/>
<path d="M34.0026 19.1099L36.857 21.9643C36.8805 21.9878 36.9058 22.0083 36.9326 22.0259C37.0198 22.1028 37.132 22.1459 37.2488 22.1459H37.2506C37.3776 22.1454 37.4994 22.0945 37.5888 22.0043C37.6136 21.9793 38.1978 21.3908 38.4279 21.1524C39.2714 20.2788 39.144 18.9051 38.125 17.8861V17.8861C37.6396 17.4006 37.0887 17.1015 36.5319 17.0211C35.8989 16.9297 35.2914 17.1375 34.8222 17.6067L33.9996 18.4295C33.9097 18.5194 33.8592 18.6414 33.8594 18.7686C33.8595 18.8959 33.9102 19.0178 34.0003 19.1076C34.0003 19.1076 34.0014 19.1087 34.002 19.1093C34.0023 19.1094 34.0024 19.1097 34.0026 19.1099ZM35.4998 18.2843C35.7573 18.0267 36.0582 17.9209 36.3949 17.9693C36.7404 18.0192 37.1143 18.2303 37.4475 18.5635V18.5636C37.9915 19.1076 38.2926 19.9132 37.7386 20.4868C37.6268 20.6026 37.4235 20.8091 37.246 20.9887C36.9014 20.6463 36.3839 20.1318 36.1284 19.8763C35.9149 19.6628 35.3745 19.1241 35.0166 18.7675L35.4998 18.2843Z" fill="#DA291C"/>
<path d="M23.3891 32.176C23.3372 31.8867 23.1997 31.6202 22.9875 31.408C22.9875 31.408 22.9875 31.408 22.9875 31.408C22.7131 31.1336 22.3481 30.9824 21.9601 30.9824C21.572 30.9824 21.2071 31.1336 20.9326 31.408L20.0632 32.2773C19.8761 32.4644 19.8761 32.7678 20.0632 32.9549L21.4414 34.3332H21.4414L23.0563 35.948C23.1461 36.0378 23.268 36.0883 23.395 36.0883H23.3961C23.5235 36.088 23.6456 36.0369 23.7353 35.9464C23.7353 35.9464 24.5311 35.1435 24.7515 34.9231C25.3825 34.2921 25.3825 33.2653 24.7515 32.6343C24.3805 32.2634 23.8728 32.1108 23.3891 32.176ZM21.6101 32.0856C21.7036 31.992 21.8279 31.9406 21.9601 31.9406C22.0923 31.9406 22.2166 31.992 22.31 32.0854C22.3101 32.0855 22.3101 32.0855 22.3101 32.0855C22.4035 32.1789 22.455 32.3032 22.455 32.4354C22.455 32.5676 22.4035 32.6919 22.31 32.7853C22.2466 32.8487 22.1282 32.9679 21.9987 33.0983L21.7801 33.3168L21.0794 32.6161L21.6101 32.0856ZM24.074 34.2457C23.9489 34.3707 23.6391 34.6828 23.3936 34.9303L22.4585 33.9952C22.5276 33.9254 22.6007 33.8518 22.6709 33.7812L23.1401 33.3119C23.3976 33.0544 23.8165 33.0544 24.0739 33.3119C24.3314 33.5693 24.3314 33.9882 24.074 34.2457Z" fill="#DA291C"/>
<path d="M28.3369 31.1462C28.5875 31.1462 28.7984 30.9513 28.8145 30.6977C28.8314 30.4336 28.631 30.206 28.367 30.1891L26.661 30.0803C26.8118 29.8348 26.897 29.5536 26.9061 29.2609C26.9198 28.8222 26.7613 28.4146 26.46 28.1132C25.8444 27.4976 24.8227 27.5172 24.1828 28.1572L23.3874 28.9525C23.3874 28.9526 23.3873 28.9526 23.3872 28.9527C23.387 28.953 23.3867 28.9532 23.3864 28.9535C23.1993 29.1406 23.1993 29.4439 23.3864 29.631L26.3795 32.6241C26.473 32.7176 26.5957 32.7643 26.7183 32.7643C26.8408 32.7643 26.9635 32.7175 27.057 32.6241C27.2441 32.4369 27.2441 32.1336 27.057 31.9465L26.116 31.0056L28.3059 31.1452C28.3162 31.146 28.3266 31.1462 28.3369 31.1462ZM24.8602 28.8347C25.122 28.5728 25.5443 28.5527 25.7824 28.7908H25.7825C25.8948 28.9031 25.9537 29.0595 25.9484 29.2311C25.9429 29.4095 25.8663 29.5851 25.7384 29.713C25.6333 29.8181 25.4502 30.0027 25.287 30.1676C25.1256 30.0079 24.9463 29.8302 24.8446 29.7285C24.7585 29.6424 24.5731 29.458 24.4046 29.2904L24.8602 28.8347Z" fill="#DA291C"/>
<path d="M48.3848 5.5H36.6329C35.6789 5.5 34.7822 5.87151 34.1076 6.54599L30.0577 10.5959C29.8003 10.8534 29.8003 11.2707 30.0577 11.5282C30.3152 11.7855 30.7325 11.7853 30.99 11.5282L35.0399 7.47824C35.4653 7.05276 36.0311 6.81836 36.6329 6.81836H48.3848C48.8242 6.81836 49.1816 7.17581 49.1816 7.61518V19.3671C49.1816 19.9689 48.9473 20.5346 48.5218 20.9601L22.9038 46.5781L12.8822 36.5567C12.6248 36.2993 12.2074 36.2993 11.95 36.5567C11.6926 36.8142 11.6926 37.2315 11.95 37.4889L21.9716 47.5105L20.5338 48.9482C20.2231 49.2589 19.7175 49.2589 19.4068 48.9482L7.05171 36.5932C6.90124 36.4427 6.81836 36.2426 6.81836 36.0298C6.81836 35.8169 6.90124 35.6168 7.0518 35.4663L8.4896 34.0285L9.77491 35.3138C9.90358 35.4425 10.0723 35.5068 10.241 35.5068C10.4097 35.5068 10.5784 35.4425 10.7071 35.3138C10.9645 35.0563 10.9645 34.639 10.7071 34.3816L9.42186 33.0963L28.8281 13.6901C29.0855 13.4326 29.0855 13.0153 28.8281 12.7578C28.5707 12.5006 28.1533 12.5004 27.8958 12.7578L6.11954 34.534C5.71999 34.9335 5.5 35.4647 5.5 36.0297C5.5 36.5947 5.72008 37.1259 6.11954 37.5254L18.4746 49.8805C18.8741 50.2799 19.4053 50.5 19.9703 50.5C20.5353 50.5 21.0665 50.2799 21.466 49.8805L49.4541 21.8924C50.1286 21.2178 50.5 20.321 50.5 19.3672V7.61518C50.5 6.44887 49.5511 5.5 48.3848 5.5V5.5Z" fill="black"/>
<path d="M46.8593 11.2558C46.8593 10.0894 45.9105 9.14062 44.7442 9.14062C43.5779 9.14062 42.6289 10.0895 42.6289 11.2558C42.6289 12.4221 43.5778 13.371 44.7441 13.371C45.9104 13.371 46.8593 12.4222 46.8593 11.2558ZM43.9473 11.2558C43.9473 10.8164 44.3047 10.459 44.7441 10.459C45.1834 10.459 45.5409 10.8164 45.5409 11.2558C45.5409 11.6952 45.1834 12.0526 44.7441 12.0526C44.3048 12.0527 43.9473 11.6953 43.9473 11.2558Z" fill="black"/>
</g>
<defs>
<clipPath id="clip0_869_14001">
<rect width="45" height="45" fill="white" transform="translate(5.5 5.5)"/>
</clipPath>
</defs>
</svg>
