<?xml version="1.0" encoding="utf-8"?>
<!-- Generator: Adobe Illustrator 27.4.0, SVG Export Plug-In . SVG Version: 6.00 Build 0)  -->
<svg version="1.1" id="Layer_1" xmlns="http://www.w3.org/2000/svg" xmlns:xlink="http://www.w3.org/1999/xlink" x="0px" y="0px"
	 viewBox="0 0 24 24" style="enable-background:new 0 0 24 24;" xml:space="preserve">
<style type="text/css">
	.st0{clip-path:url(#SVGID_00000120522217510812218550000003831817835790601901_);}
	.st1{fill:#80B4FB;}
	.st2{fill:#7398D3;}
	.st3{fill:#407093;}
	.st4{fill:#2B4D66;}
	.st5{fill:#F9F6F9;}
	.st6{fill:#BEB9DD;}
	.st7{fill:#9DC6FB;}
	.st8{fill:#FFE07D;}
	.st9{fill:#FFD064;}
	.st10{fill:#EBB044;}
	.st11{fill:#DDE9F7;}
	.st12{fill:#CBE2FF;}
	.st13{fill:#F8BABA;}
	.st14{fill:#F17676;}
</style>
<g>
	<defs>
		<rect id="SVGID_1_" x="2" y="2" width="20" height="20"/>
	</defs>
	<clipPath id="SVGID_00000030469840386247099010000002727189380425926555_">
		<use xlink:href="#SVGID_1_"  style="overflow:visible;"/>
	</clipPath>
	<g style="clip-path:url(#SVGID_00000030469840386247099010000002727189380425926555_);">
		<path class="st1" d="M15.1,21.1H2.9c-0.5,0-0.9-0.4-0.9-0.9V16l0.5-1L2,13.8v-1.6c0-0.5,0.4-0.9,0.9-0.9h12.2
			c0.5,0,0.9,0.4,0.9,0.9v1.6l-0.5,1.1L16,16v4.2C16,20.7,15.6,21.1,15.1,21.1z"/>
		<path class="st2" d="M15.1,11.3h-0.7v7.3c0,0.5-0.4,0.9-0.9,0.9H2v0.7c0,0.5,0.4,0.9,0.9,0.9h12.2c0.5,0,0.9-0.4,0.9-0.9V16
			l-0.5-1.1l0.5-1.1v-1.6C16,11.7,15.6,11.3,15.1,11.3z"/>
		<path class="st3" d="M2,13.8h14V16H2V13.8z"/>
		<path class="st4" d="M14.4,13.8H16V16h-1.6V13.8z"/>
		<path class="st5" d="M12,19H3.7c-0.1,0-0.2-0.1-0.2-0.2v-1.6c0-0.1,0.1-0.2,0.2-0.2H12c0.1,0,0.2,0.1,0.2,0.2v1.6
			C12.2,18.9,12.1,19,12,19z"/>
		<path class="st6" d="M11.1,18.3H9.9c-0.2,0-0.3-0.1-0.3-0.3c0-0.2,0.1-0.3,0.3-0.3h1.1c0.2,0,0.3,0.1,0.3,0.3S11.2,18.3,11.1,18.3
			z"/>
		<path class="st7" d="M21.3,12.5l-12,2.4c-0.5,0.1-1-0.2-1.1-0.7L6.7,6.4c-0.1-0.5,0.2-1,0.7-1.1l12-2.4c0.5-0.1,1,0.2,1.1,0.7
			l1.6,7.8C22.1,11.9,21.8,12.4,21.3,12.5z"/>
		<path class="st1" d="M19.4,2.9l-0.7,0.1l1.4,7.1c0.1,0.5-0.2,1-0.7,1.1L8.1,13.5l0.1,0.7c0.1,0.5,0.6,0.8,1.1,0.7l12-2.4
			c0.5-0.1,0.8-0.6,0.7-1.1l-1.6-7.8C20.3,3.1,19.9,2.8,19.4,2.9z"/>
		<path class="st8" d="M11.5,8.7l-0.9,0.2l-0.3-0.2L10,9L9.1,9.2C8.8,9.2,8.6,9.1,8.5,8.8L8.4,8.3L8.5,8L8.3,7.8L8.2,7.3
			C8.2,7,8.3,6.8,8.6,6.7l0.9-0.2l0.3,0.1l0.2-0.2L11,6.3c0.3-0.1,0.5,0.1,0.5,0.4l0.1,0.5l-0.1,0.3l0.2,0.3l0.1,0.5
			C11.9,8.4,11.7,8.6,11.5,8.7z"/>
		<path class="st9" d="M11,6.3l-0.4,0.1l0.2,1.1c0.1,0.2-0.1,0.5-0.4,0.5l-2,0.4l0.1,0.4c0.1,0.2,0.3,0.4,0.5,0.4L10,9l0.2-0.3
			l0.3,0.2l0.9-0.2c0.2-0.1,0.4-0.3,0.4-0.5l-0.1-0.5l-0.2-0.3l0.1-0.3l-0.1-0.5C11.5,6.4,11.2,6.2,11,6.3z"/>
		<path class="st10" d="M8.4,8.3L8.3,7.8l0.5-0.1c0.2,0,0.3,0.1,0.3,0.2c0,0.2-0.1,0.3-0.2,0.3L8.4,8.3z"/>
		<path class="st10" d="M10.9,7.5c0-0.2,0.1-0.3,0.2-0.3l0.5-0.1l0.1,0.6l-0.5,0.1C11.1,7.8,10.9,7.7,10.9,7.5z"/>
		<path class="st10" d="M9.5,6.6l0.6-0.1l0.5,2.4L10,9L9.5,6.6z"/>
		<path class="st11" d="M9,11.4c-0.1,0-0.3-0.1-0.3-0.2c0-0.2,0.1-0.3,0.2-0.3l1.7-0.3c0.2,0,0.3,0.1,0.3,0.2c0,0.2-0.1,0.3-0.2,0.3
			L9,11.4C9.1,11.4,9,11.4,9,11.4z"/>
		<path class="st11" d="M12.1,10.8c-0.1,0-0.3-0.1-0.3-0.2c0-0.2,0.1-0.3,0.2-0.3l1.7-0.3c0.2,0,0.3,0.1,0.3,0.2
			c0,0.2-0.1,0.3-0.2,0.3L12.1,10.8C12.2,10.8,12.2,10.8,12.1,10.8z"/>
		<path class="st11" d="M15.3,10.2c-0.1,0-0.3-0.1-0.3-0.2c0-0.2,0.1-0.3,0.2-0.3l1.7-0.3c0.2,0,0.3,0.1,0.3,0.2
			c0,0.2-0.1,0.3-0.2,0.3L15.3,10.2C15.3,10.2,15.3,10.2,15.3,10.2z"/>
		<path class="st11" d="M18.4,9.5c-0.1,0-0.3-0.1-0.3-0.2c0-0.2,0.1-0.3,0.2-0.3l1.7-0.3c0.2,0,0.3,0.1,0.3,0.2
			c0,0.2-0.1,0.3-0.2,0.3L18.4,9.5C18.4,9.5,18.4,9.5,18.4,9.5z"/>
		<path class="st12" d="M19.9,9.2l0.2,0c0.2,0,0.3-0.2,0.2-0.3c0-0.2-0.2-0.3-0.3-0.2l-0.2,0L19.9,9.2z"/>
		<path class="st11" d="M10,13.5c-0.1,0-0.2,0-0.3,0c-0.1,0-0.1,0-0.2,0c-0.2,0-0.3-0.1-0.3-0.2c0-0.2,0.1-0.3,0.2-0.3
			c0.2,0,0.4,0,0.5,0c0.1,0,0.1,0,0.2,0c0.1,0,0.2-0.1,0.2-0.1c0.1-0.1,0.2-0.1,0.4-0.2c0.2,0,0.4,0,0.5,0c0.1,0,0.1,0,0.2,0
			c0.1,0,0.2-0.1,0.2-0.1c0.1-0.1,0.2-0.1,0.4-0.2c0.2,0,0.4,0,0.5,0c0.1,0,0.1,0,0.2,0c0.1,0,0.2-0.1,0.2-0.1
			c0.1-0.1,0.2-0.1,0.4-0.2c0.2,0,0.4,0,0.5,0c0.1,0,0.1,0,0.2,0c0.1,0,0.2-0.1,0.2-0.1c0.1-0.1,0.2-0.1,0.4-0.2c0.2,0,0.4,0,0.5,0
			c0.1,0,0.1,0,0.2,0c0.2,0,0.3,0.1,0.3,0.2c0,0.2-0.1,0.3-0.2,0.3c-0.2,0-0.4,0-0.5,0c-0.1,0-0.1,0-0.2,0c-0.1,0-0.2,0.1-0.2,0.1
			c-0.1,0.1-0.2,0.1-0.4,0.2c-0.2,0-0.4,0-0.5,0c-0.1,0-0.1,0-0.2,0c-0.1,0-0.2,0.1-0.2,0.1c-0.1,0.1-0.2,0.1-0.4,0.2
			c-0.2,0-0.4,0-0.5,0c-0.1,0-0.1,0-0.2,0c-0.1,0-0.2,0.1-0.2,0.1c-0.1,0.1-0.2,0.1-0.4,0.2c-0.2,0-0.4,0-0.5,0c-0.1,0-0.1,0-0.2,0
			c-0.1,0-0.2,0.1-0.2,0.1c-0.1,0.1-0.2,0.1-0.4,0.2C10.1,13.5,10.1,13.5,10,13.5z"/>
		<path class="st12" d="M9.5,13.5c0.1,0,0.2,0,0.2,0c0.1,0,0.1,0,0.3,0c0.1,0,0.1,0,0.2,0c0.2,0,0.4-0.1,0.4-0.2
			c0.1,0,0.1-0.1,0.2-0.1c0.1,0,0.2,0,0.2,0c0.1,0,0.2,0.1,0.5,0c0.2,0,0.4-0.1,0.4-0.2c0.1,0,0.1-0.1,0.2-0.1c0.1,0,0.2,0,0.2,0
			c0.1,0,0.2,0.1,0.5,0c0.2,0,0.4-0.1,0.4-0.2c0.1,0,0.1-0.1,0.2-0.1c0.1,0,0.2,0,0.2,0c0.1,0,0.2,0.1,0.5,0c0.2,0,0.4-0.1,0.4-0.2
			c0.1,0,0.1-0.1,0.2-0.1c0.1,0,0.2,0,0.2,0c0.1,0,0.2,0.1,0.5,0c0.2,0,0.3-0.2,0.2-0.3c0,0,0-0.1,0-0.1l-6.8,1.4
			C9.2,13.4,9.4,13.5,9.5,13.5z"/>
		<path class="st13" d="M18.5,6.8c0.8-0.2,1.4-0.7,1.3-1.3c-0.1-0.5-0.8-0.8-1.7-0.7c-0.8,0.2-1.4,0.7-1.3,1.3
			C16.9,6.6,17.7,6.9,18.5,6.8z"/>
		<path class="st14" d="M19.1,4.9l0.3,1.5c0.3-0.2,0.4-0.5,0.4-0.8C19.7,5.2,19.4,5,19.1,4.9z"/>
	</g>
</g>
</svg>
