<svg width="36" height="18" viewBox="0 0 36 18" fill="none" xmlns="http://www.w3.org/2000/svg">
<path d="M30.8041 0C30.9213 0.0269319 31.0391 0.0522315 31.1558 0.0807956C32.3039 0.363172 33.1348 1.37162 33.1995 2.54955C33.2305 3.11131 33.1141 3.63526 32.8363 4.12411C32.8235 4.14642 32.814 4.17063 32.7931 4.21497C32.8589 4.21497 32.9068 4.21497 32.9544 4.21497C33.6476 4.21497 34.3408 4.21443 35.034 4.2147C35.5909 4.2147 35.9911 4.60072 35.9941 5.15623C35.9995 6.11598 35.9998 7.07546 35.9946 8.03522C35.9922 8.53414 35.6714 8.8954 35.1809 8.96341C35.0852 8.97674 35.0778 9.02381 35.0781 9.09943C35.0797 9.60189 35.0789 10.1043 35.0789 10.6068C35.0789 12.5579 35.0797 14.5089 35.0786 16.46C35.0781 17.2103 34.5878 17.8158 33.8595 17.9636C33.7542 17.985 33.6435 17.9875 33.5355 17.9875C29.6802 17.9886 25.8246 17.9791 21.9693 17.9951C21.0921 17.9986 20.3794 17.3245 20.3848 16.414C20.3954 14.5854 20.3897 12.7565 20.3908 10.9275C20.3911 10.3255 20.3892 9.72349 20.3943 9.12147C20.3954 9.00939 20.3682 8.96722 20.2471 8.95444C19.8252 8.90955 19.4808 8.51836 19.4778 8.07004C19.4712 7.0877 19.4701 6.10537 19.4794 5.12304C19.4843 4.61106 19.8946 4.22177 20.4087 4.2196C21.1109 4.2166 21.8131 4.21851 22.5156 4.21824C22.5637 4.21824 22.6121 4.21824 22.681 4.21824C22.6442 4.14587 22.6192 4.09473 22.5925 4.04386C21.7924 2.51119 22.5389 0.630042 24.1498 0.133299C24.3503 0.0710022 24.562 0.0435262 24.7687 0C24.8776 0 24.9861 0 25.0949 0C25.2274 0.0242115 25.3605 0.0454305 25.4921 0.0731785C26.1162 0.205117 26.5975 0.563393 27.0235 1.02042C27.2507 1.26417 27.5048 1.48234 27.7537 1.71847C27.7633 1.71031 27.7918 1.68909 27.8166 1.66406C28.0544 1.42168 28.2965 1.18364 28.5272 0.934998C28.8953 0.538365 29.3235 0.239938 29.8513 0.100382C30.0124 0.0579443 30.1781 0.0331888 30.3416 0.000272039C30.4955 0.000272039 30.6495 0.000272039 30.8038 0.000272039L30.8041 0ZM30.6906 9.12147H29.8527V7.22563H28.3819C28.3819 7.29527 28.3819 7.35349 28.3819 7.41143C28.3825 9.38943 28.3814 11.3674 28.386 13.3454C28.3866 13.575 28.4029 13.8073 28.4404 14.0337C28.5185 14.507 28.7196 14.9124 29.157 15.1594C29.629 15.426 30.1465 15.4453 30.6789 15.4333V14.17C30.6106 14.17 30.5524 14.1711 30.4942 14.17C30.1313 14.1618 29.9316 13.9874 29.8801 13.6302C29.8665 13.5367 29.857 13.4414 29.857 13.3471C29.8554 12.4101 29.8562 11.4732 29.8565 10.5361C29.8565 10.4917 29.8565 10.4477 29.8565 10.3859C30.0755 10.3859 30.2825 10.387 30.4896 10.3856C30.7102 10.3843 30.689 10.4131 30.6901 10.1794C30.6912 9.96207 30.6906 9.74498 30.6906 9.52762C30.6906 9.39759 30.6906 9.26755 30.6906 9.12147ZM25.4832 9.12854V15.4273H26.9376V9.12854H25.4832ZM27.5002 4.21688C27.4452 4.15676 27.4164 4.12384 27.3857 4.09256C26.7703 3.46034 26.153 2.83029 25.5397 2.1959C25.2035 1.84796 24.7268 1.8145 24.39 2.12435C24.0529 2.43448 24.0336 2.95924 24.3557 3.30473C24.6243 3.59255 24.901 3.87275 25.1795 4.1505C25.2182 4.18913 25.2886 4.21307 25.345 4.21416C25.6799 4.21987 26.015 4.21688 26.3499 4.21688C26.7207 4.21688 27.0916 4.21688 27.4999 4.21688H27.5002ZM27.9741 4.20382C28.0223 4.21116 28.0394 4.21579 28.0565 4.21579C28.7538 4.21579 29.4514 4.21742 30.1487 4.21252C30.199 4.21225 30.2605 4.17852 30.2975 4.14125C30.5747 3.86187 30.8489 3.57949 31.1207 3.29466C31.429 2.97203 31.4113 2.44318 31.0859 2.13415C30.7627 1.82729 30.2716 1.84442 29.9533 2.17196C29.5148 2.623 29.0749 3.07268 28.6358 3.52291C28.4214 3.74271 28.2078 3.96306 27.9738 4.20355L27.9741 4.20382ZM26.2003 8.42559C26.7485 8.46368 27.3171 8.02515 27.146 7.25746C26.9721 6.47834 26.03 6.43209 25.6127 6.73541C25.2924 6.96828 25.1594 7.40871 25.2892 7.81867C25.4102 8.20062 25.7481 8.42559 26.2006 8.42559H26.2003Z" fill="url(#paint0_linear_1984_5371)"/>
<path d="M0.286853 16.0555C0.756969 16.0555 1.20478 16.0544 1.65285 16.0582C1.68196 16.0582 1.73093 16.0922 1.73692 16.1183C1.83241 16.5335 2.11671 16.7253 2.51636 16.7443C2.92309 16.7636 3.33199 16.7614 3.73899 16.7457C4.19605 16.728 4.48035 16.46 4.62345 16.0443C4.67977 15.8806 4.70479 15.7013 4.71513 15.5275C4.7301 15.2761 4.71894 15.0234 4.71894 14.7497C4.65909 14.8019 4.61093 14.8444 4.56224 14.8863C4.17428 15.219 3.73464 15.4146 3.21338 15.3993C2.82896 15.3882 2.44291 15.3985 2.05985 15.3705C1.03474 15.2954 0.124707 14.4562 0.0458105 13.4341C-0.0143142 12.6572 -0.0162186 11.868 0.0458105 11.0913C0.132325 10.0032 1.05732 9.13591 2.14582 9.04994C2.57377 9.01621 3.00661 9.00424 3.43483 9.02818C3.98221 9.05892 4.43899 9.30593 4.81117 9.7499V9.13563H6.1954C6.1954 9.1865 6.1954 9.23493 6.1954 9.28335C6.1954 11.316 6.19812 13.3487 6.19377 15.3814C6.19241 16.0122 6.07379 16.6126 5.66761 17.1243C5.25245 17.6475 4.7018 17.9345 4.04614 17.9725C3.44626 18.0074 2.8412 18.0095 2.24159 17.9739C1.36719 17.9219 0.494433 17.3254 0.3195 16.3142C0.305897 16.2348 0.299096 16.1542 0.286853 16.056V16.0555ZM1.45044 12.2521C1.46595 12.5748 1.4567 12.8939 1.50132 13.2053C1.58756 13.8063 2.01061 14.1515 2.61485 14.1518C2.86378 14.1518 3.11299 14.1558 3.36165 14.1499C3.47373 14.1471 3.58881 14.1368 3.69655 14.108C4.20203 13.9717 4.48552 13.6044 4.62154 13.1313C4.79893 12.5138 4.77852 11.8753 4.67052 11.2513C4.57938 10.7243 4.09702 10.2494 3.45387 10.2842C3.18318 10.2989 2.91085 10.285 2.63906 10.2874C2.55799 10.2883 2.47528 10.291 2.39666 10.3078C1.92872 10.4093 1.57124 10.7888 1.50295 11.2983C1.46051 11.6147 1.46622 11.9379 1.45044 12.2521Z" fill="black"/>
<path d="M13.9503 12.2904C13.9503 12.6745 13.9811 13.0617 13.9443 13.442C13.8469 14.4545 13.1263 15.2431 12.13 15.4488C11.8794 15.5005 11.6196 15.5266 11.3636 15.5293C10.8434 15.5348 10.3197 15.5505 9.80334 15.5005C8.6373 15.3873 7.77733 14.5429 7.70605 13.4569C7.65382 12.6607 7.65545 11.8552 7.71013 11.0592C7.7757 10.1038 8.53991 9.31513 9.5185 9.10458C9.75981 9.05262 10.0107 9.0265 10.2577 9.02378C10.7689 9.01834 11.2831 9.00447 11.7907 9.05126C12.9576 9.15871 13.8292 9.96694 13.9441 11.125C13.9821 11.5099 13.95 11.9017 13.95 12.2902C13.95 12.2902 13.9503 12.2902 13.9506 12.2902L13.9503 12.2904ZM9.16183 12.2809H9.16101C9.16101 12.6152 9.13327 12.9526 9.16727 13.2834C9.22168 13.8092 9.65398 14.297 10.2971 14.2698C10.6407 14.2554 10.9857 14.2673 11.3299 14.2671C11.9477 14.2665 12.4091 13.881 12.479 13.2676C12.5182 12.9232 12.5084 12.5725 12.5084 12.2246C12.5084 11.9039 12.516 11.5801 12.4777 11.2629C12.4061 10.6712 11.9477 10.2877 11.3511 10.286C10.9977 10.285 10.6443 10.2852 10.2909 10.286C9.69561 10.2874 9.23556 10.6696 9.16836 11.2654C9.13054 11.6 9.16156 11.9422 9.16156 12.2809H9.16183Z" fill="black"/>
<path d="M15.3672 7.22266H16.8238V9.1185H17.6561V10.3759H16.841C16.8374 10.436 16.8328 10.4792 16.8328 10.5228C16.8323 11.4869 16.8315 12.4512 16.8339 13.4154C16.8339 13.5141 16.8451 13.6148 16.8665 13.7111C16.9332 14.0103 17.134 14.1602 17.4686 14.1703C17.5304 14.1722 17.5921 14.1703 17.6601 14.1703V15.4317C17.0782 15.4393 16.5107 15.4222 16.0145 15.0791C15.6611 14.8346 15.4951 14.4706 15.4249 14.0625C15.3876 13.8454 15.3702 13.6224 15.37 13.402C15.3659 11.4012 15.3675 9.40033 15.3675 7.39948C15.3675 7.34589 15.3675 7.2923 15.3675 7.22266H15.3672Z" fill="black"/>
<path d="M30.6915 9.12045C30.6915 9.26653 30.6915 9.39657 30.6915 9.5266C30.6915 9.74396 30.692 9.96105 30.6909 10.1784C30.6899 10.4121 30.7111 10.3833 30.4904 10.3846C30.2834 10.386 30.0761 10.3849 29.8574 10.3849C29.8574 10.4466 29.8574 10.491 29.8574 10.5351C29.8574 11.472 29.8563 12.4089 29.8579 13.346C29.8579 13.4404 29.8677 13.5356 29.881 13.6292C29.9327 13.9867 30.1324 14.1608 30.4951 14.169C30.5533 14.1703 30.6115 14.169 30.6798 14.169V15.4323C30.1471 15.444 29.6299 15.4247 29.1579 15.1584C28.7202 14.9113 28.5194 14.506 28.4413 14.0327C28.404 13.8063 28.3874 13.574 28.3869 13.3444C28.3823 11.3664 28.3834 9.38841 28.3828 7.41041C28.3828 7.35247 28.3828 7.29425 28.3828 7.22461H29.8536V9.12045H30.6915Z" fill="white"/>
<path d="M25.4844 9.12891H26.9388V15.4277H25.4844V9.12891Z" fill="white"/>
<path d="M26.2028 8.42459C25.7504 8.42459 25.4125 8.19962 25.2914 7.81767C25.1616 7.40798 25.2949 6.96728 25.6149 6.73441C26.0322 6.43109 26.9744 6.47707 27.1482 7.25646C27.3196 8.02415 26.7507 8.46295 26.2025 8.42459H26.2028Z" fill="white"/>
<defs>
<linearGradient id="paint0_linear_1984_5371" x1="20.0627" y1="3.85025e-07" x2="34.4125" y2="17.9827" gradientUnits="userSpaceOnUse">
<stop stop-color="#FD5959"/>
<stop offset="1" stop-color="#ED1C24"/>
</linearGradient>
</defs>
</svg>
