<svg width="50" height="51" viewBox="0 0 50 51" fill="none" xmlns="http://www.w3.org/2000/svg">
<g clip-path="url(#clip0_7167_130706)">
<path d="M33.2002 23.7001V19.6001C33.2002 17.4001 32.1002 15.3001 30.3002 14.1001L22.9002 8.9001V3.3001C22.9002 2.4001 22.1002 1.6001 21.2002 1.6001H16.7002C15.8002 1.6001 15.0002 2.4001 15.0002 3.3001V9.0001L12.0002 14.8001C11.5002 15.8001 11.2002 16.8001 11.2002 17.9001V19.4001C11.2002 19.8001 11.5002 20.1001 11.9002 20.1001C12.3002 20.1001 12.6002 19.8001 12.6002 19.4001V17.9001C12.6002 17.0001 12.8002 16.2001 13.2002 15.4001L16.1002 9.8001H22.0002L29.5002 15.1001C30.9002 16.1001 31.8002 17.8001 31.8002 19.5001V23.6001C31.8002 24.9001 30.8002 25.9001 29.5002 25.9001H15.0002C13.7002 25.9001 12.7002 24.9001 12.7002 23.6001V22.6001C12.7002 22.2001 12.4002 21.9001 12.0002 21.9001C11.6002 21.9001 11.3002 22.2001 11.3002 22.6001V23.6001C11.3002 24.8001 11.9002 25.9001 12.8002 26.6001C11.9002 27.2001 11.3002 28.3001 11.3002 29.5001V33.6001C11.3002 34.8001 11.9002 35.8001 12.7002 36.4001C11.8002 37.0001 11.3002 38.1001 11.3002 39.2001V44.6001C11.3002 46.5001 12.9002 48.1001 14.8002 48.1001H29.7002C31.6002 48.1001 33.2002 46.5001 33.2002 44.6001V39.2001C33.2002 38.0001 32.6002 37.0001 31.8002 36.4001C32.7002 35.8001 33.2002 34.7001 33.2002 33.6001V29.5001C33.2002 28.3001 32.6002 27.3001 31.7002 26.6001C32.6002 25.9001 33.2002 24.9001 33.2002 23.7001ZM16.4002 6.9001H21.5002V8.5001H16.4002V6.9001ZM16.4002 3.3001C16.4002 3.1001 16.5002 3.0001 16.7002 3.0001H21.2002C21.4002 3.0001 21.5002 3.1001 21.5002 3.3001V5.5001H16.4002V3.3001ZM29.7002 46.9001H14.8002C13.6002 46.9001 12.6002 45.9001 12.6002 44.7001V44.5001H31.8002V44.7001C31.8002 45.9001 30.9002 46.9001 29.7002 46.9001ZM31.8002 39.3001V39.5001H18.5002C18.1002 39.5001 17.8002 39.8001 17.8002 40.2001C17.8002 40.6001 18.1002 40.9001 18.5002 40.9001H31.8002V43.2001H12.6002V40.9001H15.3002C15.7002 40.9001 16.0002 40.6001 16.0002 40.2001C16.0002 39.8001 15.7002 39.5001 15.3002 39.5001H12.6002V39.3001C12.6002 38.1001 13.6002 37.1001 14.8002 37.1001H29.7002C30.9002 37.1001 31.8002 38.1001 31.8002 39.3001ZM29.7002 27.3001C30.9002 27.3001 31.9002 28.3001 31.9002 29.5001V33.6001C31.9002 34.8001 30.9002 35.8001 29.7002 35.8001H14.8002C13.6002 35.8001 12.6002 34.8001 12.6002 33.6001V29.5001C12.6002 28.3001 13.6002 27.3001 14.8002 27.3001H29.7002Z" fill="#363A42"/>
<path d="M29.6999 22.2999C30.0999 22.2999 30.3999 21.9999 30.3999 21.5999V19.4999C30.3999 18.1999 29.7999 16.9999 28.6999 16.2999L23.4999 12.6999C23.2999 12.5999 22.9999 12.4999 22.7999 12.6999C22.5999 12.7999 22.3999 13.0999 22.3999 13.2999V18.9999C22.3999 20.7999 23.8999 22.2999 25.6999 22.2999H29.6999ZM23.7999 18.9999V14.5999L27.8999 17.4999C28.5999 17.9999 28.9999 18.7999 28.9999 19.5999V20.9999H25.7999C24.6999 20.9999 23.7999 20.0999 23.7999 18.9999Z" fill="#363A42"/>
<path d="M20.3001 34.1998C21.1001 34.1998 21.8001 33.8998 22.3001 33.2998C22.8001 33.7998 23.5001 34.1998 24.3001 34.1998C25.8001 34.1998 27.0001 32.9998 27.0001 31.4998C27.0001 29.9998 25.8001 28.7998 24.3001 28.7998C23.5001 28.7998 22.8001 29.0998 22.3001 29.6998C21.8001 29.1998 21.1001 28.7998 20.3001 28.7998C18.8001 28.7998 17.6001 29.9998 17.6001 31.4998C17.6001 32.9998 18.8001 34.1998 20.3001 34.1998ZM24.2001 30.2998C24.9001 30.2998 25.5001 30.8998 25.5001 31.5998C25.5001 32.2998 24.9001 32.8998 24.2001 32.8998C23.5001 32.8998 22.9001 32.2998 22.9001 31.5998C22.9001 30.7998 23.5001 30.2998 24.2001 30.2998ZM20.3001 30.2998C21.0001 30.2998 21.6001 30.8998 21.6001 31.5998C21.6001 32.2998 21.0001 32.8998 20.3001 32.8998C19.6001 32.8998 19.0001 32.2998 19.0001 31.5998C19.0001 30.7998 19.5001 30.2998 20.3001 30.2998Z" fill="#363A42"/>
<path d="M32.6 43.8002C32.8 43.8002 32.9 43.6002 32.9 43.5002C32.9 43.3002 32.7 43.2002 32.6 43.2002C32.5 43.2002 32.3 43.4002 32.3 43.5002C32.2 43.7002 32.4 43.8002 32.6 43.8002Z" fill="#363A42"/>
<path d="M30 31.7002L29 30.4002L30.4 29.1002V26.1002L32.2 25.2002L36.6 25.5002L37.4 26.9002L37.2 29.1002L38.4 29.9002L38.2 31.4002L37.2 31.7002H30Z" fill="white"/>
<path d="M37.4998 31.7002C37.6998 32.1002 39.1998 36.9002 39.3998 37.2002L41.2998 40.4002C43.1998 43.7002 40.7998 47.8002 36.9998 47.8002H30.5998C26.7998 47.8002 24.3998 43.7002 26.2998 40.4002L28.1998 37.2002C29.1998 35.5002 29.7998 33.6002 30.0998 31.7002" fill="white"/>
<path d="M37.5 31.7002C37.6 32.4002 37.7 33.0002 37.9 33.6002C38 33.8002 38 34.1002 38.1 34.3002" fill="white"/>
<path d="M38.7998 36.1002C38.9998 36.5002 39.1998 36.8002 39.3998 37.2002L41.2998 40.4002C43.1998 43.7002 40.7998 47.8002 36.9998 47.8002H30.5998C26.7998 47.8002 24.3998 43.7002 26.2998 40.4002L28.1998 37.2002C29.1998 35.5002 29.7998 33.6002 30.0998 31.7002" stroke="#363A42" stroke-width="1.2" stroke-miterlimit="10.0001" stroke-linecap="round" stroke-linejoin="round"/>
<path d="M37.5 31.7002C37.6 32.4002 37.7 33.0002 37.9 33.6002C38 33.8002 38 34.1002 38.1 34.3002" stroke="#363A42" stroke-width="1.2" stroke-miterlimit="10.0001" stroke-linecap="round" stroke-linejoin="round"/>
<path d="M39.8002 44.4999C39.2002 45.4999 38.2002 46.0999 37.0002 46.0999H30.7002C29.5002 46.0999 28.4002 45.4999 27.9002 44.4999C27.3002 43.4999 27.3002 42.2999 27.9002 41.2999L29.0002 39.4999C29.2002 39.0999 29.6002 38.8999 30.1002 38.8999H37.8002C38.3002 38.8999 38.7002 39.0999 38.9002 39.4999L40.0002 41.2999C40.3002 42.1999 40.3002 43.4999 39.8002 44.4999Z" stroke="#363A42" stroke-width="0.8" stroke-miterlimit="10.0001" stroke-linecap="round" stroke-linejoin="round"/>
<path d="M37.2001 29.1001H30.4001C29.7001 29.1001 29.1001 29.7001 29.1001 30.4001C29.1001 31.1001 29.7001 31.7001 30.4001 31.7001H37.2001C37.9001 31.7001 38.5001 31.1001 38.5001 30.4001C38.5001 29.6001 37.9001 29.1001 37.2001 29.1001Z" stroke="#363A42" stroke-width="1.2" stroke-miterlimit="10.0001" stroke-linecap="round" stroke-linejoin="round"/>
<path d="M35.3001 25.2002H32.1001C31.0001 25.2002 30.1001 26.1002 30.1001 27.2002V29.0002L37.2001 28.9002V27.1002C37.3001 26.1002 36.4001 25.2002 35.3001 25.2002Z" stroke="#363A42" stroke-width="1.2" stroke-miterlimit="10.0001" stroke-linecap="round" stroke-linejoin="round"/>
<path d="M32.3999 25.2998V26.3998" stroke="#363A42" stroke-width="0.8149" stroke-miterlimit="10.0001" stroke-linecap="round" stroke-linejoin="round"/>
<path d="M35.1001 25.2998V26.3998" stroke="#363A42" stroke-width="0.8149" stroke-miterlimit="10.0001" stroke-linecap="round" stroke-linejoin="round"/>
<path d="M33.7998 25.2998V26.3998" stroke="#363A42" stroke-width="0.8149" stroke-miterlimit="10.0001" stroke-linecap="round" stroke-linejoin="round"/>
</g>
<defs>
<clipPath id="clip0_7167_130706">
<rect width="50" height="51" fill="white"/>
</clipPath>
</defs>
</svg>
