<svg width="294" height="134" viewBox="0 0 294 134" fill="none" xmlns="http://www.w3.org/2000/svg">
<path d="M294 21.705V8.57495C294 4.15495 290.42 0.574951 286 0.574951H79.41V13.685C79.41 16.745 76.93 19.225 73.87 19.225C70.81 19.225 68.33 16.745 68.33 13.685V0.574951H8C3.58 0.574951 0 4.15495 0 8.57495V21.375C6.12 21.375 11.08 26.3349 11.08 32.455V100.895C11.08 107.015 6.12 111.975 0 111.975V125.425C0 129.845 3.58 133.425 8 133.425H68.33V120.315C68.33 117.255 70.81 114.775 73.87 114.775C76.93 114.775 79.41 117.255 79.41 120.315V133.425H286C290.42 133.425 294 129.845 294 125.425V112.295C287.88 112.295 282.92 107.335 282.92 101.215V32.775C282.92 26.655 287.88 21.695 294 21.695V21.705ZM75.12 105.465C75.12 106.105 74.5 106.625 73.74 106.625C72.98 106.625 72.36 106.105 72.36 105.465V95.945C72.36 95.305 72.98 94.785 73.74 94.785C74.5 94.785 75.12 95.305 75.12 95.945V105.465ZM75.12 88.4549C75.12 89.0949 74.5 89.615 73.74 89.615C72.98 89.615 72.36 89.0949 72.36 88.4549V78.935C72.36 78.295 72.98 77.7749 73.74 77.7749C74.5 77.7749 75.12 78.295 75.12 78.935V88.4549ZM75.12 71.445C75.12 72.085 74.5 72.6049 73.74 72.6049C72.98 72.6049 72.36 72.085 72.36 71.445V61.9249C72.36 61.285 72.98 60.7649 73.74 60.7649C74.5 60.7649 75.12 61.285 75.12 61.9249V71.445ZM75.12 54.435C75.12 55.075 74.5 55.595 73.74 55.595C72.98 55.595 72.36 55.075 72.36 54.435V44.915C72.36 44.275 72.98 43.755 73.74 43.755C74.5 43.755 75.12 44.275 75.12 44.915V54.435ZM75.12 37.4249C75.12 38.0649 74.5 38.5849 73.74 38.5849C72.98 38.5849 72.36 38.0649 72.36 37.4249V27.905C72.36 27.265 72.98 26.745 73.74 26.745C74.5 26.745 75.12 27.265 75.12 27.905V37.4249Z" fill="#F2F4F7"/>
<path d="M181.875 89.484V85.8022C181.875 83.0068 182.466 80.4386 183.648 78.0977C184.852 75.734 186.591 73.8477 188.864 72.4386C191.159 71.0068 193.955 70.2909 197.25 70.2909C200.591 70.2909 203.398 70.9954 205.67 72.4045C207.966 73.8136 209.693 75.7 210.852 78.0636C212.034 80.4045 212.625 82.984 212.625 85.8022V89.484C212.625 92.2795 212.034 94.859 210.852 97.2227C209.67 99.5636 207.932 101.439 205.636 102.848C203.341 104.279 200.545 104.995 197.25 104.995C193.909 104.995 191.102 104.279 188.83 102.848C186.557 101.439 184.83 99.5636 183.648 97.2227C182.466 94.859 181.875 92.2795 181.875 89.484ZM191.795 85.8022V89.484C191.795 91.0977 192.182 92.6204 192.955 94.0522C193.75 95.484 195.182 96.2 197.25 96.2C199.318 96.2 200.727 95.4954 201.477 94.0863C202.25 92.6772 202.636 91.1431 202.636 89.484V85.8022C202.636 84.1431 202.273 82.5977 201.545 81.1659C200.818 79.734 199.386 79.0181 197.25 79.0181C195.205 79.0181 193.784 79.734 192.989 81.1659C192.193 82.5977 191.795 84.1431 191.795 85.8022ZM146.045 49.5295V45.8477C146.045 43.0295 146.648 40.4499 147.852 38.109C149.057 35.7454 150.795 33.859 153.068 32.45C155.364 31.0409 158.136 30.3363 161.386 30.3363C164.75 30.3363 167.568 31.0409 169.841 32.45C172.114 33.859 173.841 35.7454 175.023 38.109C176.205 40.4499 176.795 43.0295 176.795 45.8477V49.5295C176.795 52.3477 176.193 54.9272 174.989 57.2681C173.807 59.609 172.068 61.484 169.773 62.8931C167.5 64.2795 164.705 64.9727 161.386 64.9727C158.068 64.9727 155.261 64.2681 152.966 62.859C150.693 61.4272 148.966 59.5522 147.784 57.234C146.625 54.8931 146.045 52.3249 146.045 49.5295ZM156.034 45.8477V49.5295C156.034 51.1886 156.42 52.7227 157.193 54.1318C157.989 55.5409 159.386 56.2454 161.386 56.2454C163.477 56.2454 164.898 55.5409 165.648 54.1318C166.42 52.7227 166.807 51.1886 166.807 49.5295V45.8477C166.807 44.1886 166.443 42.6431 165.716 41.2113C164.989 39.7795 163.545 39.0636 161.386 39.0636C159.364 39.0636 157.966 39.7909 157.193 41.2454C156.42 42.6999 156.034 44.234 156.034 45.8477ZM150.545 102.575L198.545 32.7568H207.477L159.477 102.575H150.545Z" fill="white"/>
</svg>
