<?xml version="1.0" encoding="utf-8"?>
<!-- Generator: Adobe Illustrator 27.4.0, SVG Export Plug-In . SVG Version: 6.00 Build 0)  -->
<svg version="1.1" id="Layer_1" xmlns="http://www.w3.org/2000/svg" xmlns:xlink="http://www.w3.org/1999/xlink" x="0px" y="0px"
	 viewBox="0 0 88 88" style="enable-background:new 0 0 88 88;" xml:space="preserve">
<style type="text/css">
	.st0{fill:#E11F26;}
	.st1{fill:#FFFFFF;}
	.st2{fill:none;}
</style>
<g id="Layer_2_00000121998592600492537290000016980743960520536750_">
	<g id="artwork">
		<path class="st0" d="M87.9,0.1H0.1v87.8h87.8V0.1z"/>
		<path class="st1" d="M38.5,63.2c-1.5,0-2.7-1.2-2.7-2.7c0-0.3,0-0.6,0.1-0.9l11-32.9c0.5-1.4,2-2.2,3.5-1.7c1.4,0.5,2.2,2,1.7,3.5
			l-11,32.9C40.7,62.4,39.7,63.2,38.5,63.2z"/>
		<path class="st1" d="M22.1,63.2c-1.5,0-2.7-1.2-2.7-2.7c0-0.3,0-0.6,0.1-0.9l11-32.9c0.5-1.4,2-2.2,3.5-1.7c1.4,0.5,2.2,2,1.7,3.5
			l-11,32.9C24.3,62.4,23.2,63.2,22.1,63.2z"/>
		<path class="st1" d="M55,63.2c-1.5,0-2.7-1.2-2.7-2.7c0-0.3,0-0.6,0.1-0.9l11-32.9c0.5-1.4,2-2.2,3.5-1.7c1.4,0.5,2.2,2,1.7,3.5
			l-11,32.9C57.2,62.4,56.2,63.2,55,63.2z"/>
		<rect x="-29.1" y="-29.1" class="st2" width="146.3" height="146.3"/>
	</g>
</g>
</svg>
