<svg width="24" height="24" viewBox="0 0 24 24" fill="none" xmlns="http://www.w3.org/2000/svg">
<rect width="24" height="23.1111" rx="11.5556" fill="#FFF853"/>
<path d="M9.98384 6.68736L11.7566 6.31055H12.4384L14.3475 7.18977L15.302 9.07383V10.4555L16.5293 10.3299V10.7067V11.3347L15.7111 11.5859L15.4384 11.9627L16.1202 13.2188L17.8929 14.098L17.4838 14.6004L16.2566 14.9772L15.9838 15.4796L15.7111 15.8564H14.2111L13.5293 16.1076L12.0293 16.8613L11.0748 16.6101L9.98384 16.1076L9.16566 15.8564H8.07475L7.66566 15.6052L7.25657 14.9772L6.57475 14.8516L6.0293 14.4748V14.098L6.71112 13.7212L7.93839 12.8419L8.21112 11.9627L7.12021 11.3347L7.25657 10.7067L7.66566 10.3299L8.48384 10.4555L8.89293 8.1946L9.98384 6.68736Z" fill="white"/>
<path d="M12.0082 6.67243C13.6849 6.67295 15.0816 7.95987 15.0836 9.50943C15.0841 9.87236 15.0962 10.2066 15.1185 10.5145C15.1322 10.7044 15.3035 10.8452 15.5001 10.8452C15.529 10.8452 15.5585 10.8421 15.5881 10.8357L16.1134 10.7222C16.1357 10.7174 16.1581 10.7151 16.1803 10.7151C16.3137 10.7151 16.4366 10.7991 16.4665 10.9235C16.5088 11.0994 16.402 11.2771 16.2171 11.3369L15.4198 11.6336C15.2185 11.7085 15.1104 11.9105 15.167 12.1037C15.8067 14.2839 17.5934 14.0572 17.5934 14.3412C17.5934 14.6979 16.2467 14.7483 16.125 14.8605C16.0034 14.9727 16.1198 15.5171 15.8479 15.6225C15.7967 15.6424 15.7239 15.6493 15.6351 15.6493C15.4303 15.6493 15.1407 15.6125 14.8355 15.6125C14.5707 15.6125 14.2942 15.6402 14.0511 15.7437C13.4062 16.0184 12.7845 16.5314 12.0137 16.5314C11.2429 16.5314 10.6212 16.0184 9.97628 15.7437C9.73313 15.6402 9.45669 15.6125 9.19191 15.6125C8.88671 15.6125 8.59707 15.6493 8.39234 15.6493C8.30359 15.6493 8.23071 15.6424 8.17949 15.6225C7.90764 15.5171 8.02403 14.9727 7.90236 14.8605C7.78069 14.7483 6.43398 14.6979 6.43398 14.3412C6.43398 14.0572 8.22068 14.2839 8.86036 12.1037C8.91704 11.9105 8.80893 11.7085 8.60761 11.6336L7.81028 11.3369C7.62539 11.2771 7.5185 11.0994 7.56086 10.9235C7.59082 10.799 7.71366 10.715 7.84706 10.715C7.8692 10.715 7.89166 10.7173 7.91402 10.7222L8.43928 10.8357C8.46889 10.8421 8.49837 10.8451 8.52731 10.8451C8.72381 10.8451 8.8952 10.7044 8.90891 10.5144C8.93113 10.2066 8.94329 9.87234 8.94377 9.5094C8.9458 7.95987 10.3314 6.67297 12.0082 6.67243ZM12.0084 6.05762H12.0079C11.5074 6.05776 11.0198 6.15048 10.5588 6.3332C10.1163 6.50857 9.71806 6.75863 9.37512 7.07644C9.03263 7.39383 8.7631 7.7623 8.57402 8.17162C8.37742 8.59724 8.27744 9.04709 8.27683 9.50866C8.27654 9.73528 8.27144 9.95522 8.26163 10.1658L8.0662 10.1236C7.9945 10.1081 7.92077 10.1002 7.84711 10.1002C7.63443 10.1002 7.42463 10.1664 7.25636 10.2868C7.08081 10.4124 6.9577 10.5912 6.90976 10.7903C6.79567 11.2643 7.07955 11.7428 7.5715 11.911L8.15668 12.1288C7.7692 13.2253 7.05469 13.4354 6.57354 13.5769C6.44588 13.6145 6.3356 13.6469 6.2306 13.695C5.81225 13.8864 5.76709 14.2107 5.76709 14.3412C5.76709 14.5913 5.89545 14.8194 6.12857 14.9837C6.24464 15.0655 6.38842 15.133 6.5681 15.19C6.81301 15.2677 7.09692 15.3171 7.32766 15.3566C7.33881 15.4354 7.35516 15.5201 7.38272 15.6054C7.49713 15.9598 7.73857 16.1185 7.92098 16.1892C8.09405 16.2563 8.27288 16.2641 8.39234 16.2641C8.50917 16.2641 8.63268 16.2557 8.76345 16.2467C8.90373 16.2371 9.04879 16.2272 9.19191 16.2272C9.41369 16.2272 9.57878 16.2516 9.69661 16.3018C9.8584 16.3707 10.03 16.4636 10.2116 16.562C10.7173 16.8358 11.2905 17.1461 12.0137 17.1461C12.7369 17.1461 13.31 16.8358 13.8157 16.562C13.9974 16.4636 14.169 16.3707 14.3308 16.3018C14.4486 16.2516 14.6137 16.2272 14.8355 16.2272C14.9786 16.2272 15.1237 16.2372 15.2639 16.2467C15.3947 16.2557 15.5182 16.2641 15.635 16.2641C15.7545 16.2641 15.9333 16.2563 16.1064 16.1892C16.2888 16.1185 16.5302 15.9598 16.6447 15.6054C16.6722 15.5201 16.6886 15.4354 16.6997 15.3566C16.9305 15.317 17.2144 15.2677 17.4593 15.19C17.639 15.133 17.7827 15.0655 17.8988 14.9837C18.1319 14.8194 18.2603 14.5913 18.2603 14.3412C18.2603 14.2107 18.2151 13.8864 17.7967 13.695C17.6917 13.6469 17.5814 13.6145 17.4538 13.577C16.9726 13.4355 16.2581 13.2253 15.8706 12.1288L16.4558 11.9111C16.9477 11.7428 17.2316 11.2643 17.1176 10.7903C17.0696 10.5912 16.9465 10.4124 16.771 10.2868C16.6027 10.1665 16.3929 10.1002 16.1803 10.1002C16.1067 10.1002 16.0329 10.1081 15.9612 10.1236L15.7657 10.1658C15.7559 9.95522 15.7508 9.73528 15.7505 9.50864C15.7499 9.04669 15.6491 8.5964 15.4509 8.17021C15.2607 7.76109 14.9897 7.39272 14.6455 7.07531C14.3013 6.75791 13.9019 6.50813 13.4585 6.33291C12.9966 6.1504 12.5087 6.05779 12.0084 6.05762Z" fill="#050505"/>
</svg>
