<svg width="51" height="50" viewBox="0 0 51 50" fill="none" xmlns="http://www.w3.org/2000/svg">
<g clip-path="url(#clip0_1778_171039)">
<path d="M45.168 7.46094V6.05469C45.168 5.47266 44.6953 5 44.1133 5H26.3008C25.7188 5 25.2461 5.47266 25.2461 6.05469V7.46094C25.2461 7.87422 25.4852 8.23125 25.832 8.40391V12.2836H10.9461C10.3641 12.2836 9.89141 12.757 9.89141 13.3383V14.7445C9.89141 15.2312 10.2234 15.6414 10.6727 15.7617V22.5188C10.6727 22.8422 10.9352 23.1047 11.2586 23.1047C11.582 23.1047 11.8445 22.8422 11.8445 22.5188V15.7984H26.2227V25.5461H23.4016C23.3805 22.5312 21.418 20.0867 19.007 20.0867C16.5961 20.0867 14.6328 22.5312 14.6117 25.5461H11.8445V24.9992C11.8445 24.6758 11.582 24.4133 11.2586 24.4133C10.9352 24.4133 10.6727 24.6758 10.6727 24.9992V25.5461H6.22266C5.64062 25.5461 5.16797 26.0187 5.16797 26.6008V28.007C5.16797 28.4937 5.5 28.9039 5.94922 29.0242V41.5203C5.5 41.6414 5.16797 42.0508 5.16797 42.5375V43.9438C5.16797 44.525 5.64062 44.9984 6.22266 44.9984H44.1133C44.6953 44.9984 45.168 44.525 45.168 43.9438V42.5375C45.168 42.1242 44.9289 41.7672 44.582 41.5938V8.40391C44.9289 8.23125 45.168 7.87344 45.168 7.46094ZM11.0633 14.6273V13.4555H27.0039V14.6273H11.0633ZM19.007 21.2594C20.7719 21.2594 22.2102 23.1781 22.2297 25.5469H15.7844C15.8039 23.1781 17.2422 21.2594 19.0078 21.2594H19.007ZM30.9492 43.8281H6.33984V42.6562H26.7172C27.0406 42.6562 27.3031 42.3937 27.3031 42.0703C27.3031 41.7469 27.0406 41.4844 26.7172 41.4844H7.12109V29.0625H30.168V41.4844H29.2438C28.9203 41.4844 28.6578 41.7469 28.6578 42.0703C28.6578 42.3937 28.9203 42.6562 29.2438 42.6562H30.9492V43.8281ZM30.9492 27.8906H6.33984V26.7188H30.9492V27.8906ZM43.9961 43.8281H32.1211V42.6562H43.9961V43.8281ZM43.9961 7.34375H42.6937C42.3703 7.34375 42.1078 7.60625 42.1078 7.92969C42.1078 8.25312 42.3703 8.51562 42.6937 8.51562H43.4102V41.4844H31.3398V33.2539C31.3398 33.25 31.3391 33.2461 31.3391 33.2422V30.7227C31.3391 30.7188 31.3398 30.7148 31.3398 30.7109V29.0242C31.7891 28.9031 32.1211 28.4937 32.1211 28.007V26.6008C32.1211 26.0187 31.6484 25.5461 31.0664 25.5461H30.0609V25.5422H28.8883V25.5461H27.3945V15.7617C27.8438 15.6406 28.1758 15.2312 28.1758 14.7445V13.3383C28.1758 12.757 27.7031 12.2836 27.1211 12.2836H27.0039V8.51562H40.1422C40.4656 8.51562 40.7281 8.25312 40.7281 7.92969C40.7281 7.60625 40.4656 7.34375 40.1422 7.34375H26.418V6.17188H43.9961V7.34375Z" fill="#23262F"/>
<path d="M18.1273 39.5945C20.3378 39.5945 22.1297 37.8026 22.1297 35.5922C22.1297 33.3818 20.3378 31.5898 18.1273 31.5898C15.9169 31.5898 14.125 33.3818 14.125 35.5922C14.125 37.8026 15.9169 39.5945 18.1273 39.5945Z" stroke="#23262F" stroke-width="1.25" stroke-miterlimit="10"/>
<path d="M40.4531 21.0156V37.2734" stroke="#23262F" stroke-width="1.25" stroke-miterlimit="10" stroke-linecap="round"/>
</g>
<defs>
<clipPath id="clip0_1778_171039">
<rect width="40" height="40" fill="white" transform="translate(5.16797 5)"/>
</clipPath>
</defs>
</svg>
