<svg width="48" height="48" viewBox="0 0 48 48" fill="none" xmlns="http://www.w3.org/2000/svg">
<g clip-path="url(#clip0_7167_130737)">
<path d="M40.6861 20.6771L38.9971 19.2301C38.1101 18.4701 37.6001 17.3601 37.6001 16.1921V16.0001C38.0421 16.0001 38.4001 15.6421 38.4001 15.2001V12.0001C38.4001 10.6751 37.3251 9.6001 36.0001 9.6001H32.8001C31.4751 9.6001 30.4001 10.6751 30.4001 12.0001V15.2001C30.4001 15.6421 30.7581 16.0001 31.2001 16.0001V16.1921C31.2001 17.3611 30.6901 18.4711 29.8021 19.2321L28.1151 20.6791C26.5191 22.0451 25.5991 24.0421 25.6001 26.1441V42.4001C25.6041 45.4911 28.1091 47.9961 31.2001 48.0001H37.6001C40.6911 47.9961 43.1961 45.4911 43.2001 42.4001V26.1441C43.2011 24.0421 42.2821 22.0441 40.6861 20.6771ZM32.0001 12.0001C32.0001 11.5581 32.3581 11.2001 32.8001 11.2001H36.0001C36.4421 11.2001 36.8001 11.5581 36.8001 12.0001V14.4001H32.0001V12.0001ZM41.6001 42.4001C41.5971 44.6081 39.8081 46.3971 37.6001 46.4001H31.2001C28.9921 46.3971 27.2031 44.6081 27.2001 42.4001V26.1441C27.2001 24.5091 27.9141 22.9551 29.1561 21.8921L30.8441 20.4441C32.0861 19.3811 32.8011 17.8271 32.8001 16.1921V16.0001H36.0001V16.1921C36.0001 17.8271 36.7141 19.3801 37.9551 20.4441L39.6451 21.8921C40.8871 22.9551 41.6011 24.5091 41.6001 26.1441V42.4001Z" fill="#363A42"/>
<path d="M13.6 40.8002C10.509 40.7962 8.004 38.2912 8 35.2002V28.8002C8 25.7072 10.507 23.2002 13.6 23.2002C16.693 23.2002 19.2 25.7072 19.2 28.8002V35.2002C19.196 38.2912 16.691 40.7962 13.6 40.8002ZM13.6 24.8002C11.392 24.8032 9.603 26.5922 9.6 28.8002V35.2002C9.6 37.4092 11.391 39.2002 13.6 39.2002C15.809 39.2002 17.6 37.4092 17.6 35.2002V28.8002C17.597 26.5922 15.808 24.8032 13.6 24.8002Z" fill="#363A42"/>
<path d="M34.4001 38.4002C31.7501 38.3972 29.6031 36.2502 29.6001 33.6002V32.0002C29.6001 29.3492 31.7491 27.2002 34.4001 27.2002C37.0511 27.2002 39.2001 29.3492 39.2001 32.0002V33.6002C39.1971 36.2502 37.0501 38.3972 34.4001 38.4002ZM34.4001 28.8002C32.6331 28.8002 31.2001 30.2332 31.2001 32.0002V33.6002C31.2001 35.3672 32.6331 36.8002 34.4001 36.8002C36.1671 36.8002 37.6001 35.3672 37.6001 33.6002V32.0002C37.6001 30.2332 36.1671 28.8002 34.4001 28.8002Z" fill="#363A42"/>
<path d="M37.6002 4.8C36.2752 4.8 35.2002 3.725 35.2002 2.4C35.2002 1.075 36.2752 0 37.6002 0C38.9252 0 40.0002 1.075 40.0002 2.4C40.0002 3.725 38.9252 4.8 37.6002 4.8ZM37.6002 1.6C37.1582 1.6 36.8002 1.958 36.8002 2.4C36.8002 2.842 37.1582 3.2 37.6002 3.2C38.0422 3.2 38.4002 2.842 38.4002 2.4C38.4002 1.958 38.0422 1.6 37.6002 1.6Z" fill="#363A42"/>
<path d="M41.6004 11.1998C39.8334 11.1998 38.4004 9.7668 38.4004 7.9998C38.4004 6.2328 39.8334 4.7998 41.6004 4.7998C43.3674 4.7998 44.8004 6.2328 44.8004 7.9998C44.8004 9.7668 43.3674 11.1998 41.6004 11.1998ZM41.6004 6.3998C40.7164 6.3998 40.0004 7.1158 40.0004 7.9998C40.0004 8.8838 40.7164 9.5998 41.6004 9.5998C42.4844 9.5998 43.2004 8.8838 43.2004 7.9998C43.2004 7.1158 42.4844 6.3998 41.6004 6.3998Z" fill="#363A42"/>
<path d="M22.4002 0H9.60024C8.27524 0 7.20024 1.075 7.20024 2.4C7.20024 3.725 8.27524 4.8 9.60024 4.8H10.4002V6.4H9.60024C9.15824 6.4 8.80024 6.758 8.80024 7.2V12C8.80024 12.442 9.15824 12.8 9.60024 12.8V13.222C9.60324 14.132 9.08924 14.964 8.27424 15.368L8.06524 15.472C5.07524 16.955 3.18924 20.007 3.20024 23.344V42.4C3.20424 45.491 5.70924 47.996 8.80024 48H18.4002C21.4912 47.996 23.9962 45.491 24.0002 42.4V23.344C24.0112 20.007 22.1252 16.955 19.1352 15.473L18.9262 15.369C18.1112 14.965 17.5972 14.132 17.5992 13.223V12.801C18.0412 12.801 18.3992 12.443 18.3992 12.001V7.201C18.3992 6.759 18.0412 6.401 17.5992 6.401H16.7992V4.801H22.3992C22.8412 4.801 23.1992 5.159 23.1992 5.601V7.201C23.1992 7.643 23.5572 8.001 23.9992 8.001H27.1992C27.6412 8.001 27.9992 7.643 27.9992 7.201V5.601C27.9952 2.51 25.4902 0.005 22.3992 0.001L22.4002 0ZM10.4002 8H16.8002V11.2H10.4002V8ZM18.2112 16.8L18.4192 16.904C20.8652 18.116 22.4092 20.614 22.4002 23.344V42.4C22.3972 44.608 20.6082 46.397 18.4002 46.4H8.80024C6.59224 46.397 4.80324 44.608 4.80024 42.4V23.344C4.79124 20.614 6.33524 18.116 8.78124 16.904L8.98924 16.8C10.3482 16.127 11.2052 14.739 11.2002 13.222V12.8H16.0002V13.222C15.9952 14.739 16.8532 16.126 18.2112 16.8ZM15.2002 6.4H12.0002V4.8H15.2002V6.4ZM26.4002 6.4H24.8002V5.6C24.8002 4.275 23.7252 3.2 22.4002 3.2H9.60024C9.15824 3.2 8.80024 2.842 8.80024 2.4C8.80024 1.958 9.15824 1.6 9.60024 1.6H22.4002C24.6082 1.603 26.3972 3.392 26.4002 5.6V6.4Z" fill="#363A42"/>
</g>
<defs>
<clipPath id="clip0_7167_130737">
<rect width="41.6" height="48" fill="white" transform="translate(3.2002)"/>
</clipPath>
</defs>
</svg>
