<svg width="24" height="24" viewBox="0 0 24 24" fill="none" xmlns="http://www.w3.org/2000/svg">
<path d="M7.5 22C8.32843 22 9 21.3284 9 20.5C9 19.6716 8.32843 19 7.5 19C6.67157 19 6 19.6716 6 20.5C6 21.3284 6.67157 22 7.5 22Z" fill="#DA291C"/>
<path d="M17.5 22C18.3284 22 19 21.3284 19 20.5C19 19.6716 18.3284 19 17.5 19C16.6716 19 16 19.6716 16 20.5C16 21.3284 16.6716 22 17.5 22Z" fill="#DA291C"/>
<path d="M1 3H3.20952L6.71429 14.6044C6.80138 15.0034 7.03991 15.3618 7.38814 15.6169C7.73636 15.872 8.17209 16.0075 8.61905 15.9997C9.066 15.9919 16.381 15.9997 17.1905 15.9997C18 15.9997 18.3045 15.7338 18.4214 15.6169C18.5383 15.5 19.0081 15.0034 19.0952 14.6044C19.1823 14.2054 21 6.46658 21 6.46658H5.11429" stroke="#DA291C" stroke-width="1.5" stroke-linecap="round" stroke-linejoin="round"/>
</svg>
