<svg width="40" height="40" viewBox="0 0 40 40" fill="none" xmlns="http://www.w3.org/2000/svg">
<path d="M34.6406 20.8906L28.0781 27.4531C27.8382 27.6825 27.5194 27.8111 27.1875 27.8125C27.0266 27.8129 26.8672 27.781 26.7188 27.7188C26.4883 27.6255 26.2909 27.4657 26.1518 27.2598C26.0126 27.0538 25.938 26.8111 25.9375 26.5625V21.25H16.25C15.9185 21.25 15.6005 21.1183 15.3661 20.8839C15.1317 20.6495 15 20.3315 15 20C15 19.6685 15.1317 19.3505 15.3661 19.1161C15.6005 18.8817 15.9185 18.75 16.25 18.75H25.9375V13.4375C25.938 13.1889 26.0126 12.9462 26.1518 12.7402C26.2909 12.5343 26.4883 12.3745 26.7188 12.2812C26.947 12.1906 27.1964 12.1674 27.4374 12.2145C27.6784 12.2616 27.9008 12.377 28.0781 12.5469L34.6406 19.1094C34.8754 19.3464 35.007 19.6664 35.007 20C35.007 20.3336 34.8754 20.6536 34.6406 20.8906ZM16.25 32.5H7.5V7.5H16.25C16.5815 7.5 16.8995 7.3683 17.1339 7.13388C17.3683 6.89946 17.5 6.58152 17.5 6.25C17.5 5.91848 17.3683 5.60054 17.1339 5.36612C16.8995 5.1317 16.5815 5 16.25 5H7.5C6.83696 5 6.20107 5.26339 5.73223 5.73223C5.26339 6.20107 5 6.83696 5 7.5V32.5C5 33.163 5.26339 33.7989 5.73223 34.2678C6.20107 34.7366 6.83696 35 7.5 35H16.25C16.5815 35 16.8995 34.8683 17.1339 34.6339C17.3683 34.3995 17.5 34.0815 17.5 33.75C17.5 33.4185 17.3683 33.1005 17.1339 32.8661C16.8995 32.6317 16.5815 32.5 16.25 32.5Z" fill="url(#paint0_linear_2846_644171)"/>
<defs>
<linearGradient id="paint0_linear_2846_644171" x1="20.0035" y1="35" x2="20.0035" y2="5" gradientUnits="userSpaceOnUse">
<stop stop-color="#FD3A84"/>
<stop offset="1" stop-color="#FFA68D"/>
</linearGradient>
</defs>
</svg>
