<svg width="24" height="24" viewBox="0 0 24 24" fill="none" xmlns="http://www.w3.org/2000/svg">
<path d="M10.5 3.75H4.5C4.08579 3.75 3.75 4.08579 3.75 4.5V10.5C3.75 10.9142 4.08579 11.25 4.5 11.25H10.5C10.9142 11.25 11.25 10.9142 11.25 10.5V4.5C11.25 4.08579 10.9142 3.75 10.5 3.75Z" fill="white"/>
<path d="M10.5 12.75H4.5C4.08579 12.75 3.75 13.0858 3.75 13.5V19.5C3.75 19.9142 4.08579 20.25 4.5 20.25H10.5C10.9142 20.25 11.25 19.9142 11.25 19.5V13.5C11.25 13.0858 10.9142 12.75 10.5 12.75Z" fill="white"/>
<path fill-rule="evenodd" clip-rule="evenodd" d="M12.9375 6C12.9375 5.68934 13.1893 5.4375 13.5 5.4375H20.25C20.5607 5.4375 20.8125 5.68934 20.8125 6C20.8125 6.31066 20.5607 6.5625 20.25 6.5625H13.5C13.1893 6.5625 12.9375 6.31066 12.9375 6Z" fill="white"/>
<path fill-rule="evenodd" clip-rule="evenodd" d="M12.9375 9C12.9375 8.68934 13.1893 8.4375 13.5 8.4375H20.25C20.5607 8.4375 20.8125 8.68934 20.8125 9C20.8125 9.31066 20.5607 9.5625 20.25 9.5625H13.5C13.1893 9.5625 12.9375 9.31066 12.9375 9Z" fill="white"/>
<path fill-rule="evenodd" clip-rule="evenodd" d="M12.9375 15C12.9375 14.6893 13.1893 14.4375 13.5 14.4375H20.25C20.5607 14.4375 20.8125 14.6893 20.8125 15C20.8125 15.3107 20.5607 15.5625 20.25 15.5625H13.5C13.1893 15.5625 12.9375 15.3107 12.9375 15Z" fill="white"/>
<path fill-rule="evenodd" clip-rule="evenodd" d="M12.9375 18C12.9375 17.6893 13.1893 17.4375 13.5 17.4375H20.25C20.5607 17.4375 20.8125 17.6893 20.8125 18C20.8125 18.3107 20.5607 18.5625 20.25 18.5625H13.5C13.1893 18.5625 12.9375 18.3107 12.9375 18Z" fill="white"/>
</svg>
