<svg width="5" height="5" viewBox="0 0 5 5" fill="none" xmlns="http://www.w3.org/2000/svg">
<path d="M2.08949 1.20795L0.0640904 4.33034C0.0223313 4.39712 0.000235697 4.47283 1.87526e-06 4.54995C-0.000231947 4.62706 0.0214041 4.70289 0.0627576 4.76988C0.104111 4.83688 0.16374 4.89271 0.235713 4.93182C0.307686 4.97092 0.389493 4.99195 0.472996 4.99279H4.5238C4.6073 4.99195 4.68911 4.97092 4.76108 4.93182C4.83305 4.89271 4.89268 4.83688 4.93404 4.76988C4.97539 4.70289 4.99703 4.62706 4.99679 4.54995C4.99656 4.47283 4.97446 4.39712 4.9327 4.33034L2.9073 1.20795C2.86467 1.14306 2.80465 1.0894 2.73303 1.05216C2.6614 1.01492 2.58059 0.995361 2.4984 0.995361C2.4162 0.995361 2.33539 1.01492 2.26377 1.05216C2.19214 1.0894 2.13212 1.14306 2.08949 1.20795Z" fill="#039855"/>
</svg>
