<svg width="32" height="32" viewBox="0 0 32 32" fill="none" xmlns="http://www.w3.org/2000/svg">
<path d="M5.28628 19.4968C5.43161 19.4968 5.54303 19.4726 5.61327 19.4217C5.68593 19.3709 5.73196 19.2934 5.75375 19.1892C5.76829 19.1238 5.7586 19.0681 5.73195 19.0221C5.70289 18.9761 5.63991 18.9203 5.5406 18.8549L5.14821 18.5861C5.05859 18.5231 4.99077 18.4601 4.94475 18.3947C4.89873 18.3293 4.87209 18.2615 4.8624 18.1913C4.85513 18.121 4.85998 18.0435 4.87693 17.9612C4.91811 17.7601 5.01742 17.6027 5.17486 17.4864C5.32988 17.3702 5.55272 17.3145 5.84337 17.3145C5.95722 17.3145 6.06379 17.329 6.16794 17.3556C6.2721 17.3823 6.34961 17.4138 6.40047 17.4477C6.42227 17.4622 6.43923 17.4767 6.44891 17.4888C6.4586 17.501 6.46102 17.5179 6.45618 17.5397L6.40532 17.7722C6.3932 17.828 6.36172 17.8449 6.30843 17.8231C6.25272 17.7989 6.16794 17.7771 6.05895 17.7553C5.94753 17.7335 5.84822 17.7214 5.7586 17.7214C5.51881 17.7214 5.38316 17.8013 5.35168 17.9587C5.33957 18.0145 5.34683 18.0605 5.37832 18.0992C5.40739 18.138 5.47036 18.1889 5.56725 18.2567L5.92573 18.4989C6.02988 18.5691 6.10739 18.6418 6.16068 18.712C6.21396 18.7847 6.24303 18.8574 6.25514 18.9325C6.26483 19.0075 6.25999 19.0923 6.24061 19.1892C6.21396 19.3152 6.16068 19.4314 6.08075 19.538C6.00081 19.6446 5.88697 19.7318 5.74164 19.7996C5.59631 19.8674 5.4195 19.9013 5.21119 19.9013C5.07071 19.9013 4.94718 19.8844 4.83818 19.8529C4.72918 19.8214 4.65409 19.7923 4.61534 19.7657C4.5887 19.7463 4.56932 19.7318 4.56205 19.7221C4.55479 19.7124 4.55236 19.6954 4.55721 19.6736L4.60807 19.4411C4.62018 19.3878 4.65167 19.3709 4.70496 19.3902C4.91084 19.4605 5.10462 19.4968 5.28628 19.4968Z" fill="#009EDB"/>
<path d="M7.23198 19.5182C7.36035 19.5182 7.51295 19.4915 7.68734 19.4406C7.73821 19.4261 7.75759 19.4455 7.7479 19.4964L7.70188 19.7143C7.69703 19.7361 7.68734 19.7531 7.67281 19.7652C7.65828 19.7773 7.6389 19.7894 7.60984 19.8015C7.47904 19.8669 7.32644 19.9009 7.14963 19.9009C6.99703 19.9009 6.86865 19.8718 6.7645 19.8161C6.66035 19.7579 6.58768 19.6683 6.54651 19.5448C6.50533 19.4213 6.50533 19.2638 6.54651 19.0749L6.61433 18.7576C6.65308 18.5711 6.71848 18.4161 6.81052 18.2925C6.90257 18.169 7.01398 18.077 7.14478 18.0188C7.27558 17.9607 7.41606 17.9316 7.56866 17.9316C7.74305 17.9316 7.88354 17.9656 7.98769 18.0309C8.01191 18.0431 8.02645 18.0552 8.03614 18.0673C8.0434 18.0794 8.04582 18.0963 8.04098 18.1181L7.99496 18.3361C7.98285 18.387 7.9562 18.404 7.91261 18.3919C7.84236 18.3676 7.77939 18.3483 7.72125 18.3337C7.66312 18.3192 7.59288 18.3119 7.50568 18.3119C7.27558 18.3119 7.13025 18.4597 7.06485 18.7576L6.99703 19.0749C6.96312 19.2372 6.97039 19.351 7.01883 19.4188C7.06727 19.4867 7.13751 19.5206 7.22956 19.5206" fill="#009EDB"/>
<path d="M9.00856 18.3032C8.82932 18.3032 8.64282 18.3322 8.44662 18.3904C8.39576 18.4049 8.37638 18.3855 8.38607 18.3347L8.42967 18.1264C8.43451 18.1046 8.4442 18.0876 8.45631 18.0755C8.47084 18.0634 8.49264 18.0488 8.51929 18.0392C8.59437 18.0101 8.68642 17.9834 8.79299 17.9616C8.89957 17.9398 9.01583 17.9277 9.13694 17.9277C9.28469 17.9277 9.40338 17.952 9.49784 18.0004C9.5923 18.0488 9.65528 18.1215 9.69161 18.2208C9.72552 18.3201 9.72795 18.4388 9.69888 18.5817L9.45182 19.7444C9.44698 19.7686 9.44213 19.7855 9.43244 19.7952C9.42518 19.8049 9.41064 19.8122 9.38642 19.8194C9.27985 19.8461 9.17812 19.8679 9.07881 19.8824C8.98192 19.897 8.86323 19.9042 8.72517 19.9042C8.53867 19.9042 8.39091 19.8848 8.27949 19.8461C8.1705 19.8073 8.09541 19.7468 8.05666 19.662C8.0179 19.5772 8.01306 19.4682 8.04212 19.3326V19.3156C8.06877 19.2139 8.10025 19.1291 8.14385 19.0565C8.18745 18.9862 8.24558 18.9257 8.32067 18.8772C8.39576 18.8288 8.48538 18.7924 8.59195 18.7682C8.69853 18.744 8.8269 18.7319 8.97708 18.7319H9.21687L9.24836 18.5817C9.27016 18.4751 9.26289 18.4025 9.22414 18.3637C9.18538 18.325 9.11272 18.3056 9.00614 18.3056M9.0449 19.536L9.15147 19.0322H8.91168C8.80753 19.0322 8.73002 19.0419 8.67673 19.0589C8.62344 19.0783 8.58469 19.1049 8.56046 19.1437C8.53624 19.1824 8.51687 19.2357 8.50233 19.3035L8.49749 19.3229C8.48538 19.3883 8.48538 19.4367 8.49749 19.4707C8.51202 19.5046 8.54109 19.5288 8.58469 19.5433C8.63071 19.5578 8.70095 19.5651 8.79541 19.5651C8.88988 19.5651 8.97465 19.5554 9.04247 19.536" fill="#009EDB"/>
<path d="M11.398 19.802C11.3956 19.819 11.3835 19.8359 11.3665 19.8505C11.3496 19.865 11.3326 19.8723 11.3132 19.8723H10.9984C10.979 19.8723 10.9644 19.865 10.9548 19.8505C10.9451 19.8359 10.9426 19.819 10.9451 19.802L11.1849 18.6757C11.2042 18.5861 11.2091 18.5134 11.1994 18.4601C11.1897 18.4069 11.1631 18.3681 11.1195 18.3439C11.0759 18.3197 11.0105 18.3075 10.9233 18.3075C10.8191 18.3075 10.7053 18.3197 10.5793 18.3439L10.2693 19.802C10.2669 19.8214 10.2572 19.8383 10.2402 19.8529C10.2233 19.8674 10.2063 19.8747 10.1869 19.8747H9.87447C9.8551 19.8747 9.84056 19.8674 9.83087 19.8529C9.82119 19.8383 9.81876 19.8214 9.82119 19.8044L10.1845 18.0992C10.1918 18.0653 10.2184 18.0435 10.2669 18.0314C10.388 17.9999 10.5139 17.9757 10.6471 17.9563C10.7804 17.937 10.9039 17.9297 11.0177 17.9297C11.2842 17.9297 11.4683 17.9878 11.57 18.1065C11.6693 18.2252 11.6935 18.4141 11.6378 18.6757L11.3956 19.8044L11.398 19.802Z" fill="#009EDB"/>
<path d="M13.7455 19.8164C13.7382 19.8503 13.714 19.8721 13.668 19.877C13.5687 19.8915 13.4791 19.9012 13.3943 19.9012C13.2586 19.9012 13.1545 19.8867 13.0843 19.86C13.014 19.8334 12.968 19.7801 12.9486 19.7026C12.9292 19.6251 12.9341 19.5112 12.968 19.3587L13.1957 18.2881L12.9244 18.2396C12.8808 18.2323 12.8614 18.2081 12.8687 18.1718L12.9026 18.0192C12.905 17.9998 12.9147 17.9853 12.9317 17.9708C12.9462 17.9562 12.9656 17.9514 12.9849 17.9514H13.2683L13.3289 17.6704C13.3362 17.6317 13.3652 17.6099 13.4112 17.6026L13.7382 17.5469H13.7528C13.7891 17.5469 13.8012 17.5638 13.7939 17.5977L13.7189 17.949H14.0628C14.0846 17.949 14.0991 17.9562 14.1088 17.9683C14.1185 17.9804 14.1209 17.9974 14.1161 18.0192L14.0725 18.2202C14.0676 18.2396 14.058 18.2541 14.041 18.2687C14.0241 18.2808 14.0071 18.2881 13.9877 18.2881H13.6438L13.4161 19.3587C13.3991 19.4434 13.3943 19.4967 13.404 19.5161C13.4137 19.5379 13.4476 19.5476 13.5081 19.5476H13.7261C13.7746 19.5476 13.7939 19.5645 13.7867 19.5984L13.7407 19.814L13.7455 19.8164Z" fill="#009EDB"/>
<path d="M15.7337 19.0516C15.6998 19.2139 15.6368 19.3592 15.5472 19.49C15.4575 19.6208 15.3437 19.7201 15.2056 19.7928C15.0676 19.8655 14.9126 19.9018 14.7382 19.9018C14.5638 19.9018 14.4257 19.8655 14.3167 19.7928C14.2077 19.7201 14.1375 19.6184 14.1036 19.49C14.0696 19.3592 14.0696 19.2139 14.1036 19.0516L14.1617 18.7779C14.1956 18.6156 14.2586 18.4703 14.3482 18.3395C14.4378 18.2087 14.5517 18.1094 14.6921 18.0367C14.8302 17.9641 14.9852 17.9277 15.1596 17.9277C15.334 17.9277 15.4745 17.9641 15.5811 18.0367C15.6877 18.1094 15.7579 18.2111 15.7942 18.3395C15.8281 18.4703 15.8306 18.6156 15.7942 18.7779L15.7361 19.0516H15.7337ZM15.2831 19.0516L15.3413 18.7779C15.3703 18.635 15.3631 18.5236 15.3195 18.4412C15.2735 18.3589 15.1935 18.3177 15.0748 18.3177C14.9562 18.3177 14.8568 18.3589 14.7769 18.4412C14.697 18.5236 14.6413 18.6374 14.6122 18.7779L14.5541 19.0516C14.525 19.1945 14.5323 19.3059 14.5783 19.3883C14.6243 19.4707 14.7043 19.5118 14.8205 19.5118C14.9368 19.5118 15.0385 19.4707 15.1184 19.3883C15.1984 19.3059 15.2541 19.1921 15.2856 19.0516" fill="#009EDB"/>
<path d="M18.9059 18.1312C18.8478 18.4122 18.7122 18.6156 18.5039 18.7416C18.2956 18.8675 18.0437 18.9305 17.753 18.9305C17.736 18.9305 17.6973 18.9305 17.6367 18.9257C17.5762 18.9232 17.5374 18.9208 17.518 18.9208C17.4987 18.9208 17.4793 18.9208 17.4551 18.9184L17.2661 19.8073C17.2613 19.8267 17.2516 19.8437 17.2371 19.8558C17.2225 19.8679 17.2056 19.8751 17.1862 19.8751H16.8447C16.8277 19.8751 16.8132 19.8679 16.8011 19.8558C16.789 19.8412 16.7866 19.8267 16.7914 19.8073L17.2904 17.4603C17.2976 17.4288 17.3097 17.4045 17.3315 17.39C17.3533 17.3755 17.3824 17.3658 17.4212 17.3585C17.6149 17.3295 17.8402 17.3125 18.0994 17.3125C18.3924 17.3125 18.6177 17.3731 18.7727 17.4966C18.9277 17.6201 18.9738 17.8212 18.9156 18.0997L18.9084 18.1288L18.9059 18.1312ZM18.4336 18.1312L18.4409 18.1021C18.47 17.9592 18.4506 17.8575 18.3828 17.7969C18.3125 17.7364 18.1914 17.7049 18.0146 17.7049C17.9032 17.7049 17.8014 17.7097 17.707 17.7194L17.5326 18.5308C17.6416 18.5381 17.7409 18.5405 17.8354 18.5405C17.9589 18.5405 18.0582 18.526 18.1381 18.4969C18.2181 18.4679 18.2835 18.4218 18.3295 18.3637C18.3779 18.3032 18.4118 18.2257 18.4312 18.1312" fill="#009EDB"/>
<path d="M19.6468 18.3032C19.4675 18.3032 19.281 18.3322 19.0848 18.3904C19.034 18.4049 19.0146 18.3855 19.0243 18.3347L19.0679 18.1264C19.0727 18.1046 19.0824 18.0876 19.0945 18.0755C19.109 18.0634 19.1308 18.0488 19.1575 18.0392C19.2326 18.0101 19.3246 17.9834 19.4312 17.9616C19.5378 17.9398 19.654 17.9277 19.7751 17.9277C19.9205 17.9277 20.0416 17.952 20.136 18.0004C20.2305 18.0488 20.2935 18.1215 20.3298 18.2208C20.3661 18.3201 20.3686 18.4388 20.3371 18.5817L20.09 19.7444C20.0852 19.7686 20.0803 19.7855 20.0706 19.7952C20.0634 19.8049 20.0488 19.8122 20.0246 19.8194C19.918 19.8461 19.8163 19.8679 19.7194 19.8824C19.6225 19.897 19.5039 19.9042 19.3658 19.9042C19.1793 19.9042 19.0315 19.8848 18.9201 19.8461C18.8111 19.8073 18.736 19.7468 18.6973 19.662C18.6585 19.5772 18.6537 19.4682 18.6827 19.3326V19.3156C18.7094 19.2139 18.7409 19.1291 18.7845 19.0565C18.8281 18.9862 18.8862 18.9257 18.9613 18.8772C19.0364 18.8288 19.126 18.7924 19.2326 18.7682C19.3392 18.744 19.4675 18.7319 19.6177 18.7319H19.8575L19.889 18.5817C19.9108 18.4751 19.9035 18.4025 19.8648 18.3637C19.826 18.325 19.7533 18.3056 19.6468 18.3056M19.6855 19.536L19.7921 19.0322H19.5523C19.4482 19.0322 19.3706 19.0419 19.3174 19.0589C19.2641 19.0783 19.2253 19.1049 19.2011 19.1437C19.1769 19.1824 19.1575 19.2357 19.143 19.3035L19.1381 19.3229C19.126 19.3883 19.126 19.4367 19.1381 19.4707C19.1526 19.5046 19.1817 19.5288 19.2253 19.5433C19.2713 19.5578 19.3416 19.5651 19.436 19.5651C19.5305 19.5651 19.6153 19.5554 19.6831 19.536" fill="#009EDB"/>
<path d="M22.4665 18.0102C22.4665 18.0102 22.4616 18.0248 22.4592 18.0296L21.4637 20.0231C21.3983 20.1563 21.3329 20.2604 21.2675 20.3355C21.2021 20.4106 21.1222 20.4663 21.0253 20.5026C20.9284 20.539 20.8049 20.5584 20.6547 20.5584C20.5965 20.5584 20.5336 20.5535 20.4657 20.5438C20.3979 20.5341 20.3422 20.5244 20.3035 20.5123C20.2574 20.5002 20.2381 20.4808 20.2429 20.4542L20.2889 20.2362C20.2914 20.2193 20.301 20.2047 20.318 20.1926C20.335 20.1805 20.3519 20.1732 20.3713 20.1732H20.3786C20.4076 20.1732 20.4706 20.1781 20.5675 20.1853C20.6644 20.1926 20.7273 20.195 20.7588 20.195C20.8097 20.195 20.8533 20.1878 20.8896 20.1757C20.926 20.1635 20.9599 20.1417 20.9889 20.1103C21.018 20.0788 21.0471 20.0327 21.0761 19.9746L21.1246 19.8729H21.0737C21.035 19.8729 20.9986 19.8656 20.9671 19.8535C20.9356 19.8414 20.9066 19.8148 20.8824 19.7736C20.8581 19.7324 20.8436 19.6718 20.8363 19.5895L20.7225 18.0272C20.7225 18.0272 20.7225 18.0127 20.7225 18.003C20.7298 17.9666 20.7564 17.9473 20.7976 17.9473H21.1415C21.1561 17.9473 21.1706 17.9545 21.1803 17.9666C21.19 17.9788 21.1948 17.9933 21.1948 18.0102L21.2457 19.3981C21.2457 19.449 21.2554 19.4732 21.2748 19.4732H21.3062L21.9869 18.0078C22.0038 17.9691 22.0305 17.9497 22.0692 17.9497H22.418C22.4325 17.9497 22.4471 17.9545 22.4568 17.9666C22.4665 17.9788 22.4713 17.9909 22.4665 18.0078" fill="#009EDB"/>
<path fill-rule="evenodd" clip-rule="evenodd" d="M1.625 11.4316H3.23574L4.58003 15.1375L5.72814 12.0638C5.74994 11.9427 5.73056 11.9064 5.68212 11.8047C5.62156 11.6811 5.55374 11.5552 5.48592 11.4341H6.68731C6.61949 11.6835 6.51292 11.9572 6.4233 12.214L4.86827 16.5327C4.44439 16.4504 3.97449 16.2905 3.60875 15.9562C3.33504 15.7068 3.23574 15.4258 3.1001 15.0843L1.80666 11.7974C1.7558 11.6642 1.69282 11.5503 1.625 11.4316ZM8.04372 13.1683V15.8182C8.04372 15.9247 8.07279 15.9417 8.14303 16.0313L8.45549 16.4261H6.94406C7.02642 16.2978 7.11119 16.1742 7.20081 16.0531C7.26379 15.949 7.29285 15.9102 7.29285 15.794V12.0905L6.86655 11.4316H8.43611L10.9745 14.5611V12.0638C10.9745 11.9427 10.9527 11.9064 10.8849 11.8047C10.8026 11.6811 10.7154 11.5552 10.6257 11.4341H12.1372L11.8247 11.8289C11.7545 11.9137 11.7327 11.9354 11.7327 12.042V16.5472C11.1562 16.4722 10.6185 16.3414 10.151 15.7576L8.04614 13.1635L8.04372 13.1683Z" fill="#ED1C24"/>
<path fill-rule="evenodd" clip-rule="evenodd" d="M25.3125 12.6298C25.3125 12.5208 25.3295 12.4118 25.3585 12.3077C25.39 12.206 25.4336 12.1042 25.4942 12.0049C25.6032 11.8184 25.763 11.6707 25.9689 11.5592C26.1772 11.4502 26.417 11.3945 26.6907 11.3945C26.8021 11.3945 26.9087 11.4066 27.0056 11.4357C27.1025 11.4624 27.1994 11.506 27.2962 11.5617C27.4779 11.6658 27.6208 11.8136 27.725 12.0073C27.7783 12.1091 27.8219 12.2132 27.8509 12.3222C27.88 12.4312 27.8921 12.5499 27.8921 12.6783C27.8921 12.8527 27.8533 13.0319 27.7758 13.2184C27.6983 13.4025 27.5893 13.5575 27.4464 13.6835L27.6232 13.8554C27.6959 13.9233 27.771 13.9862 27.8509 14.0468C27.9309 14.1049 28.0205 14.1558 28.1174 14.1994C28.2142 14.2454 28.3184 14.2721 28.4226 14.2793C28.3305 14.3568 28.2312 14.415 28.127 14.4586C28.0229 14.4997 27.9139 14.5191 27.8001 14.5191C27.7032 14.5191 27.6063 14.4997 27.5094 14.4586C27.4101 14.4174 27.318 14.3689 27.2308 14.3084C27.1388 14.2454 27.054 14.18 26.9789 14.1195L26.7803 13.9523C26.7658 13.9523 26.7488 13.9523 26.727 13.9523C26.7052 13.9523 26.6786 13.9572 26.6471 13.962L26.5284 13.9717C26.3007 13.9717 26.0924 13.9112 25.9059 13.7925C25.7194 13.6738 25.5717 13.5115 25.4699 13.308C25.4191 13.2063 25.3779 13.0997 25.3537 12.9859C25.327 12.8696 25.3125 12.7534 25.3125 12.6298ZM26.0198 12.6371C26.0198 12.7146 26.0295 12.797 26.0464 12.8817C26.0609 12.9423 26.0803 13.0174 26.1118 13.107C26.1603 13.2499 26.2329 13.3686 26.3274 13.4606C26.4194 13.5527 26.5357 13.5987 26.6713 13.5987C26.8481 13.5987 26.9789 13.5285 27.0613 13.3904C27.1461 13.2499 27.1897 13.0731 27.1897 12.8551C27.1897 12.7994 27.1824 12.7098 27.1727 12.5862C27.1606 12.4942 27.1437 12.4118 27.1219 12.3368C27.1001 12.2592 27.0758 12.1914 27.0492 12.1309C26.9959 12.0122 26.9281 11.9226 26.836 11.8644C26.7464 11.8039 26.6398 11.7724 26.5212 11.7724C26.4654 11.7724 26.4122 11.7821 26.3637 11.8039C26.3177 11.8233 26.2717 11.8523 26.2305 11.8911C26.1578 11.9613 26.1021 12.0509 26.0706 12.1624C26.0367 12.2714 26.0198 12.3925 26.0198 12.5233V12.6419V12.6371ZM28.8222 12.6637C28.8997 12.6516 28.97 12.6226 29.0305 12.5838C29.0911 12.5426 29.1395 12.4869 29.1734 12.4191C29.1904 12.3852 29.2025 12.3537 29.2122 12.3174C29.2219 12.2835 29.2243 12.2447 29.2243 12.2084C29.2243 12.0945 29.1952 12.0001 29.1322 11.9226C29.0717 11.8475 28.9772 11.8087 28.8513 11.8087H28.8222V12.6613V12.6637ZM28.8222 12.8599V13.5527C28.8222 13.7246 28.8755 13.8433 28.9821 13.9039V13.9208H27.9769V13.9039C28.0786 13.8458 28.1295 13.7319 28.1295 13.5575V11.8596C28.1295 11.7579 28.1198 11.6755 28.1028 11.6174C28.0834 11.5592 28.0423 11.506 27.9769 11.4599V11.4527H29.1976C29.3333 11.4527 29.4568 11.4769 29.5634 11.5278C29.6724 11.5786 29.7572 11.6513 29.8201 11.753C29.854 11.8015 29.8758 11.8572 29.8928 11.9177C29.9098 11.9758 29.9194 12.0437 29.9194 12.1115C29.9194 12.2035 29.8904 12.3028 29.8298 12.4143C29.7717 12.5233 29.6554 12.6201 29.4835 12.7049L29.9679 13.5212C30.0842 13.698 30.1883 13.824 30.2828 13.899L29.8589 13.9305H29.7523L29.653 13.933C29.5561 13.933 29.481 13.916 29.4253 13.8845C29.372 13.853 29.3188 13.79 29.2727 13.698L28.8271 12.8599H28.8222Z" fill="#ED1C24"/>
<path d="M12.7537 15.6628V12.2452C12.7537 12.0344 12.7295 11.8746 12.681 11.7656C12.6326 11.6566 12.5478 11.5573 12.4243 11.4677V11.4531H14.6648C15.0935 11.4531 15.4326 11.5282 15.6797 11.6784C15.9292 11.8286 16.0987 12.0054 16.1883 12.2088C16.278 12.4123 16.3216 12.6109 16.3216 12.8071C16.3216 13.604 15.8565 14.0909 14.9288 14.2701L14.4468 14.3137C14.3063 14.2943 14.2143 14.2846 14.1658 14.2846C14.6648 14.0787 14.9119 13.7033 14.9119 13.1607C14.9119 12.5116 14.6478 12.187 14.1174 12.187V15.4909C14.1174 15.9123 14.2337 16.2127 14.4638 16.3895V16.4186H12.4219V16.404C12.6399 16.2587 12.7513 16.0116 12.7513 15.6628" fill="#005AAA"/>
<path d="M16.3237 15.2879L17.358 12.3546C17.4234 12.1584 17.4549 12.0083 17.4549 11.9065C17.4549 11.7443 17.3604 11.5965 17.1739 11.4657V11.4512H19.0366L20.5238 15.3944C20.6085 15.6439 20.6933 15.8377 20.7805 15.9685C20.8653 16.1017 20.9888 16.2398 21.1511 16.3851V16.4142H18.8331V16.3851C19.0414 16.2688 19.1456 16.1259 19.1456 15.954C19.1456 15.8498 19.1262 15.7408 19.085 15.6294L18.8452 14.9124H17.3265L17.1013 15.5446C17.0504 15.69 17.0165 15.8304 16.9971 15.9685C16.9971 16.0387 17.0213 16.109 17.0673 16.1792C17.1134 16.247 17.1836 16.3173 17.2757 16.3851V16.4142H15.7109V16.3851C15.8708 16.2519 15.9895 16.109 16.0646 15.954C16.1009 15.8765 16.1397 15.7844 16.1784 15.6827C16.2172 15.5785 16.2632 15.4477 16.3189 15.2855M17.5445 14.2076H18.5933L18.0556 12.7034L17.5445 14.2076Z" fill="#005AAA"/>
<path d="M22.0239 14.1611L20.5779 12.0151C20.4858 11.877 20.3962 11.7607 20.3042 11.6663C20.2291 11.596 20.1467 11.5306 20.0547 11.4701V11.4555H21.9028L23.0339 13.2504L23.6758 12.3372C23.7388 12.2452 23.7872 12.141 23.826 12.0199C23.8502 11.9351 23.8599 11.86 23.8526 11.7995C23.8381 11.6614 23.7509 11.5524 23.591 11.4677V11.4531H25.3471L23.453 14.1587V15.4255C23.453 15.4788 23.453 15.532 23.4578 15.5805C23.4602 15.6289 23.4651 15.6725 23.4675 15.7089C23.4699 15.7573 23.4869 15.8421 23.5208 15.9583C23.5571 16.1158 23.6516 16.2587 23.8042 16.3846V16.4137H21.6896V16.3846C21.9125 16.2732 22.0215 16.0383 22.0215 15.6749V14.1587L22.0239 14.1611Z" fill="#005AAA"/>
</svg>
