<svg width="20" height="20" viewBox="0 0 20 20" fill="none" xmlns="http://www.w3.org/2000/svg">
<path fill-rule="evenodd" clip-rule="evenodd" d="M9.27016 1.47646C9.48425 1.32652 9.7393 1.24609 10.0007 1.24609C10.262 1.24609 10.5171 1.32652 10.7312 1.47646C10.9424 1.62437 11.1036 1.83285 11.1937 2.07425L12.9097 6.39532L12.9148 6.40868C12.9164 6.41295 12.9192 6.41666 12.9228 6.41937C12.9265 6.42208 12.9309 6.42366 12.9354 6.42393L12.9393 6.42415L17.5487 6.72104C18.7452 6.79874 19.1541 8.29655 18.2833 9.02046C18.2831 9.0206 18.283 9.02073 18.2828 9.02086L14.7526 11.9653L14.7505 11.967C14.7426 11.9736 14.7366 11.9823 14.7334 11.9921C14.7303 12.0016 14.7298 12.0118 14.7321 12.0216C14.7321 12.0218 14.7322 12.0221 14.7323 12.0224L15.872 16.5032C16.148 17.5925 14.9717 18.5735 13.9485 17.9281L13.9469 17.9271L10.0094 15.4271C10.0069 15.4255 10.0036 15.4244 10.0007 15.4244C9.9977 15.4244 9.99479 15.4252 9.99229 15.4268L9.9913 15.4275L6.32841 17.747C6.32822 17.7472 6.32802 17.7473 6.32783 17.7474C5.20534 18.4611 3.90886 17.3761 4.2153 16.175C4.21525 16.1752 4.21535 16.1748 4.2153 16.175L5.26907 12.0224C5.26913 12.0221 5.26918 12.0219 5.26924 12.0216C5.27153 12.0119 5.27108 12.0016 5.26793 11.9921C5.2647 11.9823 5.25878 11.9736 5.25084 11.967L5.24879 11.9653L1.71855 9.02086C1.71838 9.02072 1.71821 9.02059 1.71804 9.02045C0.847238 8.29653 1.25583 6.79876 2.45236 6.72106L7.06593 6.42391C7.07048 6.42365 7.07485 6.42208 7.07851 6.41937C7.08217 6.41666 7.08496 6.41295 7.08655 6.40868L7.09167 6.39532L8.80762 2.07425C8.89772 1.83285 9.05897 1.62437 9.27016 1.47646ZM10.6798 14.372C10.6797 14.372 10.6799 14.3721 10.6798 14.372L14.6154 16.8708C14.6152 16.8707 14.6155 16.8709 14.6154 16.8708C14.6225 16.8752 14.6272 16.877 14.6284 16.8774C14.6301 16.877 14.6355 16.8756 14.6429 16.8699C14.6524 16.8628 14.6584 16.8538 14.6611 16.8465C14.6624 16.8432 14.6632 16.8396 14.6634 16.8352C14.6637 16.831 14.6636 16.8231 14.6605 16.8108C14.6605 16.8108 14.6605 16.8109 14.6605 16.8108L13.5191 12.3234C13.4599 12.0848 13.4693 11.8343 13.5462 11.6008C13.623 11.3678 13.7639 11.1612 13.9528 11.0046C13.9532 11.0043 13.9536 11.004 13.954 11.0037L17.4842 8.05925C17.4915 8.05318 17.4946 8.04883 17.4959 8.04674C17.4973 8.04444 17.4986 8.04176 17.4996 8.03805C17.5018 8.02962 17.5026 8.01509 17.4974 7.9983C17.4922 7.98155 17.4845 7.97341 17.4822 7.9715C17.4815 7.97086 17.4812 7.97076 17.481 7.97065C17.4809 7.97062 17.4773 7.96906 17.4682 7.96845C17.4681 7.96844 17.4683 7.96845 17.4682 7.96845L12.8628 7.67182C12.8621 7.67177 12.8613 7.67173 12.8606 7.67168C12.6144 7.65693 12.3778 7.571 12.1795 7.4243C11.9828 7.27883 11.8323 7.07983 11.7457 6.85115L10.0292 2.52854C10.0269 2.5229 10.0248 2.51723 10.0227 2.51152C10.0211 2.507 10.0181 2.50309 10.0141 2.50033C10.0102 2.49757 10.0055 2.49609 10.0007 2.49609C9.99586 2.49609 9.99117 2.49757 9.98723 2.50033C9.98329 2.50309 9.98029 2.507 9.97865 2.51152C9.97657 2.51723 9.97441 2.5229 9.97217 2.52854L8.25561 6.85115C8.16909 7.07983 8.01854 7.27883 7.82188 7.4243C7.62358 7.571 7.38696 7.65693 7.14077 7.67168L2.53336 7.96843C2.53329 7.96844 2.53343 7.96843 2.53336 7.96843C2.52426 7.96904 2.5205 7.9706 2.52043 7.97063C2.52015 7.97075 2.51991 7.97082 2.51911 7.9715C2.51685 7.97341 2.50916 7.98155 2.50398 7.9983C2.49878 8.01509 2.49956 8.02963 2.50178 8.03805C2.50275 8.04176 2.504 8.04444 2.50545 8.04674C2.50677 8.04883 2.50986 8.05318 2.51717 8.05925L2.51819 8.06009L6.04738 11.0037C6.04779 11.004 6.0482 11.0044 6.04861 11.0047C6.23745 11.1612 6.37835 11.3679 6.45512 11.6008C6.53207 11.8343 6.54148 12.0848 6.48228 12.3234L6.48147 12.3266L5.42652 16.4839C5.40394 16.5722 5.43509 16.6407 5.49218 16.6841C5.5214 16.7063 5.55091 16.7159 5.57424 16.7175C5.59352 16.7188 5.62023 16.7161 5.65731 16.6925L9.32156 14.372C9.32188 14.3718 9.32221 14.3716 9.32254 14.3714C9.52531 14.2427 9.76051 14.1744 10.0007 14.1744C10.2411 14.1744 10.4769 14.2431 10.6798 14.372Z" fill="#FDD571"/>
</svg>
