<svg width="32" height="22" viewBox="0 0 32 22" fill="none" xmlns="http://www.w3.org/2000/svg">
<path d="M0 3.74336C0 1.81187 1.68552 0.246094 3.76471 0.246094H28.2353C30.3145 0.246094 32 1.81187 32 3.74336V17.7324C32 19.6639 30.3145 21.2297 28.2353 21.2297H3.76471C1.68552 21.2297 0 19.6639 0 17.7324V3.74336Z" fill="white"/>
<path fill-rule="evenodd" clip-rule="evenodd" d="M28.2353 1.12041H3.76471C2.20531 1.12041 0.941176 2.29475 0.941176 3.74336V17.7324C0.941176 19.181 2.20531 20.3554 3.76471 20.3554H28.2353C29.7947 20.3554 31.0588 19.181 31.0588 17.7324V3.74336C31.0588 2.29475 29.7947 1.12041 28.2353 1.12041ZM3.76471 0.246094C1.68552 0.246094 0 1.81187 0 3.74336V17.7324C0 19.6639 1.68552 21.2297 3.76471 21.2297H28.2353C30.3145 21.2297 32 19.6639 32 17.7324V3.74336C32 1.81187 30.3145 0.246094 28.2353 0.246094H3.76471Z" fill="#F2F4F7"/>
<path fill-rule="evenodd" clip-rule="evenodd" d="M10.3034 14.0234H8.36478L6.91108 8.71994C6.84208 8.47598 6.69558 8.2603 6.48008 8.15865C5.94227 7.9032 5.34963 7.6999 4.70312 7.59737V7.39318H7.82602C8.25703 7.39318 8.58028 7.6999 8.63416 8.05612L9.38842 11.8817L11.3261 7.39318H13.2108L10.3034 14.0234ZM14.2887 14.0234H12.4579L13.9654 7.39319H15.7963L14.2887 14.0234ZM18.1649 9.22993C18.2187 8.87283 18.542 8.66864 18.9191 8.66864C19.5117 8.61738 20.1573 8.71991 20.6961 8.97448L21.0193 7.54695C20.4806 7.34277 19.8879 7.24023 19.3501 7.24023C17.5732 7.24023 16.2801 8.15862 16.2801 9.43323C16.2801 10.4029 17.196 10.912 17.8425 11.2187C18.542 11.5246 18.8114 11.7288 18.7575 12.0346C18.7575 12.4933 18.2187 12.6975 17.6809 12.6975C17.0344 12.6975 16.3879 12.5446 15.7962 12.2892L15.473 13.7176C16.1195 13.9721 16.8189 14.0747 17.4654 14.0747C19.4579 14.1251 20.6961 13.2076 20.6961 11.8304C20.6961 10.0962 18.1649 9.99452 18.1649 9.22993ZM27.1038 14.0234L25.6501 7.39319H24.0886C23.7654 7.39319 23.4421 7.59737 23.3344 7.90321L20.6425 14.0234H22.5272L22.9034 13.0547H25.2191L25.4346 14.0234H27.1038ZM24.3576 9.17863L24.8954 11.6775H23.3878L24.3576 9.17863Z" fill="#172B85"/>
</svg>
