<svg width="20" height="20" viewBox="0 0 20 20" fill="none" xmlns="http://www.w3.org/2000/svg">
<g clip-path="url(#clip0_3046_99100)">
<path d="M4.2592 18.1812C8.24428 20.9698 13.6261 20.5022 17.0588 17.0725C17.4713 16.6603 17.85 16.2072 18.1877 15.7276C19.7195 13.5415 20.3081 10.8903 19.8449 8.26074C19.3818 5.6312 17.9199 3.3415 15.732 1.81101C11.7469 -0.977606 6.36512 -0.510024 2.93244 2.91971C2.51994 3.33186 2.14121 3.78498 1.80349 4.26461C-1.35901 8.77894 -0.259006 15.0214 4.2592 18.1836V18.1812Z" fill="url(#paint0_linear_3046_99100)"/>
<path d="M5.40679 16.5442C8.59469 18.7751 12.8999 18.401 15.6459 15.6572C15.9759 15.3275 16.2789 14.965 16.549 14.5813C17.7744 12.8324 18.2452 10.7114 17.8747 8.60781C17.5042 6.50418 16.3348 4.67242 14.5846 3.44803C11.3967 1.21713 7.09144 1.5912 4.34544 4.33499C4.01546 4.6647 3.71249 5.0272 3.44233 5.41091C0.912461 9.02237 1.79242 14.0163 5.40679 16.5461V16.5442Z" fill="white"/>
<path d="M10.0143 5.375C11.4109 5.375 12.1092 6.12897 12.1092 7.64196V8.12267H10.7683V7.55593C10.7683 6.96389 10.5304 6.66534 10.0548 6.66534C9.57912 6.66534 9.3413 6.96389 9.3413 7.55593C9.3413 7.96581 9.48804 8.35544 9.77647 8.7299C9.8878 8.87158 10.0396 9.03351 10.2218 9.21061L10.6013 9.56483C10.6519 9.61037 10.6974 9.65085 10.7328 9.68627C10.9454 9.87855 11.1124 10.0455 11.2389 10.1923C11.421 10.3896 11.5678 10.587 11.6842 10.7793C11.9726 11.2499 12.1193 11.7761 12.1193 12.353C12.1193 13.866 11.4109 14.625 9.99912 14.625C8.58733 14.625 7.87891 13.866 7.87891 12.353V11.4776H9.21985V12.4441C9.21985 13.031 9.4678 13.3245 9.95864 13.3245C10.4495 13.3245 10.6924 13.031 10.6924 12.4441C10.6924 12.0342 10.5507 11.6496 10.2622 11.2802C10.1509 11.1385 9.99912 10.9766 9.81695 10.7944L9.30588 10.3239C9.09335 10.1316 8.92636 9.96458 8.7948 9.81783C8.61769 9.62049 8.47095 9.4282 8.35456 9.23591C8.06613 8.76026 7.91939 8.234 7.91939 7.65208C7.91939 6.13909 8.61769 5.38512 10.0143 5.38512V5.375Z" fill="url(#paint1_linear_3046_99100)"/>
</g>
<defs>
<linearGradient id="paint0_linear_3046_99100" x1="2.93102" y1="2.92878" x2="17.068" y2="17.0687" gradientUnits="userSpaceOnUse">
<stop stop-color="#777E90"/>
<stop offset="0.3" stop-color="#B1B5C3"/>
<stop offset="0.5" stop-color="#D4D7DE"/>
<stop offset="0.7" stop-color="#B1B5C3"/>
<stop offset="1" stop-color="#777E90"/>
</linearGradient>
<linearGradient id="paint1_linear_3046_99100" x1="8.50073" y1="6.73137" x2="13.4549" y2="9.00283" gradientUnits="userSpaceOnUse">
<stop stop-color="#777E90"/>
<stop offset="0.3" stop-color="#B1B5C3"/>
<stop offset="0.5" stop-color="#D4D7DE"/>
<stop offset="0.7" stop-color="#B1B5C3"/>
<stop offset="1" stop-color="#777E90"/>
</linearGradient>
<clipPath id="clip0_3046_99100">
<rect width="20" height="20" fill="white"/>
</clipPath>
</defs>
</svg>
