<svg width="36" height="31" viewBox="0 0 36 31" fill="none" xmlns="http://www.w3.org/2000/svg">
<path d="M33.0939 4.10774C32.2467 3.15691 31.2131 2.39029 30.0574 1.85542C28.9016 1.32055 27.6483 1.02883 26.3751 0.998364C25.1031 0.970482 23.8385 1.19968 22.6572 1.67221C21.4758 2.14475 20.402 2.8509 19.5001 3.74836L18.0001 5.23274L16.8283 4.07649C13.1876 0.420239 7.25013 0.107739 3.60951 3.40461C2.66204 4.25457 1.8979 5.28885 1.36381 6.44421C0.829723 7.59957 0.536907 8.85173 0.503269 10.1241C0.469631 11.3965 0.695879 12.6624 1.16818 13.8444C1.64048 15.0263 2.3489 16.0995 3.25013 16.9984L16.2345 29.9827C16.4655 30.2161 16.7405 30.4014 17.0436 30.5278C17.3466 30.6542 17.6718 30.7193 18.0001 30.7193C18.3285 30.7193 18.6536 30.6542 18.9567 30.5278C19.2597 30.4014 19.5347 30.2161 19.7658 29.9827L32.422 17.3265C36.0783 13.6859 36.3751 7.74836 33.0939 4.10774Z" fill="#DA291C"/>
</svg>
