<svg width="56" height="56" viewBox="0 0 56 56" fill="none" xmlns="http://www.w3.org/2000/svg">
<g clip-path="url(#clip0_1491_43786)">
<mask id="path-1-inside-1_1491_43786" fill="white">
<path d="M42.9987 31.9014V28.3154C42.9987 26.0543 42.2367 23.8523 40.8524 22.1138C39.6582 20.6136 39.0004 18.7124 39.0004 16.7614V14.7945C39.6474 14.4757 40.0961 13.7877 40.0961 12.9922C40.0961 11.8938 39.2413 11 38.1894 11H32.5538C31.5026 11 30.6471 11.8938 30.6471 12.9922C30.6471 13.7877 31.0965 14.4757 31.7435 14.7945V16.7614C31.7435 18.7131 31.0857 20.6136 29.8914 22.1138C28.6635 23.6564 27.925 25.5642 27.7744 27.5544C27.4312 27.4595 27.0778 27.397 26.7174 27.3691L26.3119 27.3379C26.2141 27.33 26.1155 27.3466 26.0247 27.3851L13.3953 32.7713C13.1633 32.8702 13 33.1086 13 33.3862V44.3359C13 44.7025 13.2847 45 13.6356 45H40.5105C41.8827 45 42.9987 43.8339 42.9987 42.4002V39.9784H43V31.9014H42.9987ZM32.5545 12.3281H38.19C38.5402 12.3281 38.8256 12.6256 38.8256 12.9922C38.8256 13.3587 38.5402 13.6562 38.19 13.6562H32.5545C32.2036 13.6562 31.9189 13.3587 31.9189 12.9922C31.9189 12.6256 32.2036 12.3281 32.5545 12.3281ZM30.8683 22.9631C32.2526 21.2252 33.0146 19.0225 33.0146 16.7614V14.9844H37.7292V16.7614C37.7292 19.0225 38.4919 21.2252 39.8756 22.9631C40.9605 24.3264 41.603 26.0198 41.7111 27.7815C41.7073 27.7855 41.7028 27.7888 41.699 27.7935C40.9172 28.6202 39.8743 29.0758 38.7614 29.0758C37.6485 29.0758 36.6056 28.6202 35.8225 27.7921C34.8006 26.7111 33.4366 26.1154 31.9818 26.1147H31.9806C30.9528 26.1147 29.9709 26.4136 29.1218 26.9694C29.3512 25.5038 29.9512 24.1152 30.8683 22.9631ZM25.3192 29.1209C25.3084 29.2352 25.281 29.3487 25.2378 29.4583C25.1209 29.7538 24.9016 29.9836 24.6194 30.1057C24.3372 30.2286 24.0258 30.2293 23.7436 30.1071C23.6343 30.0599 23.5345 29.9962 23.4462 29.9191L25.3192 29.1209ZM22.2024 30.4497C22.4636 30.8415 22.8265 31.1483 23.2587 31.3343C23.5561 31.4631 23.8682 31.5268 24.1802 31.5268C24.4923 31.5268 24.8082 31.4624 25.1069 31.3323C25.7031 31.0739 26.1664 30.5885 26.413 29.9656C26.5751 29.5552 26.6291 29.1183 26.577 28.69L26.624 28.6933C28.7487 28.8573 30.4546 30.5726 30.7501 32.7221H16.8744L22.2024 30.4497ZM14.2711 37.2105C14.7141 37.4509 15.0179 37.935 15.0179 38.4922C15.0179 39.0493 14.7141 39.5334 14.2711 39.7738V37.2105ZM19.8247 43.6719C19.1936 43.6719 18.6807 43.136 18.6807 42.4766C18.6807 41.8171 19.1936 41.2812 19.8247 41.2812C20.4558 41.2812 20.9687 41.8171 20.9687 42.4766C20.9687 43.136 20.4552 43.6719 19.8247 43.6719ZM27.4992 43.6719C27.1483 43.6719 26.8636 43.3744 26.8636 43.0078C26.8636 42.6413 27.1483 42.3438 27.4992 42.3438C27.85 42.3438 28.1347 42.6413 28.1347 43.0078C28.1347 43.3744 27.8494 43.6719 27.4992 43.6719ZM30.7959 43.6719H29.2966C29.3671 43.464 29.4059 43.2409 29.4059 43.0078C29.4059 41.9095 28.5504 41.0156 27.4992 41.0156C26.4479 41.0156 25.5925 41.9095 25.5925 43.0078C25.5925 43.2409 25.6312 43.464 25.7018 43.6719H21.9513C22.135 43.3159 22.2399 42.9089 22.2399 42.4766C22.2399 41.0854 21.1562 39.9531 19.8247 39.9531C18.4932 39.9531 17.4096 41.0854 17.4096 42.4766C17.4096 42.9089 17.5138 43.3159 17.6981 43.6719H14.2711V41.1836C15.4285 40.8855 16.2891 39.7918 16.2891 38.4922C16.2891 37.1926 15.4285 36.0989 14.2711 35.8007V34.0503H30.7959V43.6719ZM41.7276 42.4002C41.7276 43.1014 41.1816 43.6719 40.5105 43.6719H32.067V33.3862C32.067 31.8575 31.5191 30.3993 30.5232 29.2796C30.2029 28.9197 29.8457 28.6056 29.4599 28.3407C30.1787 27.7589 31.0558 27.4429 31.9806 27.4429H31.9818C33.0941 27.4435 34.137 27.8991 34.9194 28.7265C35.9414 29.8082 37.306 30.4039 38.7614 30.4039C39.833 30.4039 40.855 30.0798 41.7276 29.4775V32.7401C41.7276 32.76 41.7282 32.7799 41.7301 32.7992V37.9935C41.7282 38.0127 41.7276 38.0327 41.7276 38.0526V42.4002Z"/>
</mask>
<path d="M42.9987 31.9014V28.3154C42.9987 26.0543 42.2367 23.8523 40.8524 22.1138C39.6582 20.6136 39.0004 18.7124 39.0004 16.7614V14.7945C39.6474 14.4757 40.0961 13.7877 40.0961 12.9922C40.0961 11.8938 39.2413 11 38.1894 11H32.5538C31.5026 11 30.6471 11.8938 30.6471 12.9922C30.6471 13.7877 31.0965 14.4757 31.7435 14.7945V16.7614C31.7435 18.7131 31.0857 20.6136 29.8914 22.1138C28.6635 23.6564 27.925 25.5642 27.7744 27.5544C27.4312 27.4595 27.0778 27.397 26.7174 27.3691L26.3119 27.3379C26.2141 27.33 26.1155 27.3466 26.0247 27.3851L13.3953 32.7713C13.1633 32.8702 13 33.1086 13 33.3862V44.3359C13 44.7025 13.2847 45 13.6356 45H40.5105C41.8827 45 42.9987 43.8339 42.9987 42.4002V39.9784H43V31.9014H42.9987ZM32.5545 12.3281H38.19C38.5402 12.3281 38.8256 12.6256 38.8256 12.9922C38.8256 13.3587 38.5402 13.6562 38.19 13.6562H32.5545C32.2036 13.6562 31.9189 13.3587 31.9189 12.9922C31.9189 12.6256 32.2036 12.3281 32.5545 12.3281ZM30.8683 22.9631C32.2526 21.2252 33.0146 19.0225 33.0146 16.7614V14.9844H37.7292V16.7614C37.7292 19.0225 38.4919 21.2252 39.8756 22.9631C40.9605 24.3264 41.603 26.0198 41.7111 27.7815C41.7073 27.7855 41.7028 27.7888 41.699 27.7935C40.9172 28.6202 39.8743 29.0758 38.7614 29.0758C37.6485 29.0758 36.6056 28.6202 35.8225 27.7921C34.8006 26.7111 33.4366 26.1154 31.9818 26.1147H31.9806C30.9528 26.1147 29.9709 26.4136 29.1218 26.9694C29.3512 25.5038 29.9512 24.1152 30.8683 22.9631ZM25.3192 29.1209C25.3084 29.2352 25.281 29.3487 25.2378 29.4583C25.1209 29.7538 24.9016 29.9836 24.6194 30.1057C24.3372 30.2286 24.0258 30.2293 23.7436 30.1071C23.6343 30.0599 23.5345 29.9962 23.4462 29.9191L25.3192 29.1209ZM22.2024 30.4497C22.4636 30.8415 22.8265 31.1483 23.2587 31.3343C23.5561 31.4631 23.8682 31.5268 24.1802 31.5268C24.4923 31.5268 24.8082 31.4624 25.1069 31.3323C25.7031 31.0739 26.1664 30.5885 26.413 29.9656C26.5751 29.5552 26.6291 29.1183 26.577 28.69L26.624 28.6933C28.7487 28.8573 30.4546 30.5726 30.7501 32.7221H16.8744L22.2024 30.4497ZM14.2711 37.2105C14.7141 37.4509 15.0179 37.935 15.0179 38.4922C15.0179 39.0493 14.7141 39.5334 14.2711 39.7738V37.2105ZM19.8247 43.6719C19.1936 43.6719 18.6807 43.136 18.6807 42.4766C18.6807 41.8171 19.1936 41.2812 19.8247 41.2812C20.4558 41.2812 20.9687 41.8171 20.9687 42.4766C20.9687 43.136 20.4552 43.6719 19.8247 43.6719ZM27.4992 43.6719C27.1483 43.6719 26.8636 43.3744 26.8636 43.0078C26.8636 42.6413 27.1483 42.3438 27.4992 42.3438C27.85 42.3438 28.1347 42.6413 28.1347 43.0078C28.1347 43.3744 27.8494 43.6719 27.4992 43.6719ZM30.7959 43.6719H29.2966C29.3671 43.464 29.4059 43.2409 29.4059 43.0078C29.4059 41.9095 28.5504 41.0156 27.4992 41.0156C26.4479 41.0156 25.5925 41.9095 25.5925 43.0078C25.5925 43.2409 25.6312 43.464 25.7018 43.6719H21.9513C22.135 43.3159 22.2399 42.9089 22.2399 42.4766C22.2399 41.0854 21.1562 39.9531 19.8247 39.9531C18.4932 39.9531 17.4096 41.0854 17.4096 42.4766C17.4096 42.9089 17.5138 43.3159 17.6981 43.6719H14.2711V41.1836C15.4285 40.8855 16.2891 39.7918 16.2891 38.4922C16.2891 37.1926 15.4285 36.0989 14.2711 35.8007V34.0503H30.7959V43.6719ZM41.7276 42.4002C41.7276 43.1014 41.1816 43.6719 40.5105 43.6719H32.067V33.3862C32.067 31.8575 31.5191 30.3993 30.5232 29.2796C30.2029 28.9197 29.8457 28.6056 29.4599 28.3407C30.1787 27.7589 31.0558 27.4429 31.9806 27.4429H31.9818C33.0941 27.4435 34.137 27.8991 34.9194 28.7265C35.9414 29.8082 37.306 30.4039 38.7614 30.4039C39.833 30.4039 40.855 30.0798 41.7276 29.4775V32.7401C41.7276 32.76 41.7282 32.7799 41.7301 32.7992V37.9935C41.7282 38.0127 41.7276 38.0327 41.7276 38.0526V42.4002Z" fill="#23262F" stroke="white" stroke-width="0.26" mask="url(#path-1-inside-1_1491_43786)"/>
<path d="M26.0271 37.105C26.0271 38.137 25.2246 38.9672 24.2504 38.9672C23.2763 38.9672 22.4738 38.137 22.4738 37.105C22.4738 36.073 23.2763 35.2428 24.2504 35.2428C25.2246 35.2428 26.0271 36.073 26.0271 37.105ZM25.016 37.105C25.016 36.6721 24.6784 36.3109 24.2504 36.3109C23.8224 36.3109 23.4849 36.6728 23.4849 37.105C23.4849 37.5372 23.8224 37.899 24.2504 37.899C24.6784 37.899 25.016 37.5379 25.016 37.105Z" fill="#DA291C" stroke="white" stroke-width="0.26"/>
<path d="M39.7046 35.2223H39.7052C39.9784 35.2223 40.2095 35.4554 40.2095 35.755V41.0675C40.2095 41.3672 39.9784 41.6003 39.7052 41.6003H39.7046C39.4314 41.6003 39.2003 41.3672 39.2003 41.0675V35.755C39.2003 35.4554 39.4314 35.2223 39.7046 35.2223Z" fill="#DA291C" stroke="white" stroke-width="0.26"/>
</g>
<defs>
<clipPath id="clip0_1491_43786">
<rect width="30" height="34" fill="white" transform="translate(13 11)"/>
</clipPath>
</defs>
</svg>
