<svg width="40" height="40" viewBox="0 0 40 40" fill="none" xmlns="http://www.w3.org/2000/svg">
<g clip-path="url(#clip0_3177_19371)">
<path fill-rule="evenodd" clip-rule="evenodd" d="M19.8218 7.99805C26.9032 7.99805 32.6438 12.5948 32.6438 18.2653C32.6438 20.2459 31.9429 22.0952 30.7295 23.6636C30.6695 23.7529 30.5911 23.8515 30.4922 23.9605L30.4847 23.9686C30.0702 24.4645 29.6035 24.9301 29.0903 25.3598C25.5445 28.6371 19.7083 32.539 18.938 31.9371C18.2684 31.4138 20.0409 28.8544 17.996 28.4284C17.8533 28.412 17.711 28.3945 17.5699 28.3745L17.5673 28.3743V28.3741C11.5611 27.5208 7 23.3196 7 18.2653C6.99981 12.5948 12.7405 7.99805 19.8218 7.99805Z" fill="#3ACE01"/>
<path fill-rule="evenodd" clip-rule="evenodd" d="M12.3826 21.5394H14.9685C15.3364 21.5394 15.6372 21.2385 15.6372 20.8706V20.8148C15.6372 20.447 15.3364 20.1461 14.9685 20.1461H13.1071V15.9109C13.1071 15.543 12.8062 15.2422 12.4384 15.2422H12.3826C12.0147 15.2422 11.7139 15.543 11.7139 15.9109V20.8705C11.7139 21.2385 12.0147 21.5394 12.3826 21.5394ZM28.4066 18.4306V18.3748C28.4066 18.007 28.1057 17.7061 27.7378 17.7061H25.8764V16.6473H27.7378C28.1057 16.6473 28.4066 16.3464 28.4066 15.9786V15.9228C28.4066 15.555 28.1057 15.2541 27.7378 15.2541H25.1519C24.784 15.2541 24.4832 15.555 24.4832 15.9228V20.8825C24.4832 21.2503 24.784 21.5512 25.1519 21.5512H27.7378C28.1057 21.5512 28.4066 21.2503 28.4066 20.8825V20.8267C28.4066 20.4588 28.1057 20.158 27.7378 20.158H25.8764V19.0991H27.7378C28.1057 19.0993 28.4066 18.7984 28.4066 18.4306ZM23.4335 21.34L23.4337 21.3398C23.5574 21.215 23.6269 21.0464 23.627 20.8707V15.9111C23.627 15.5432 23.3262 15.2424 22.9582 15.2424H22.9024C22.5346 15.2424 22.2338 15.5432 22.2338 15.9111V18.8224L19.8167 15.5805C19.7012 15.3789 19.4838 15.2424 19.2361 15.2424H19.1803C18.8125 15.2424 18.5115 15.5432 18.5115 15.9111V20.8707C18.5115 21.2385 18.8124 21.5395 19.1803 21.5395H19.2361C19.6039 21.5395 19.9048 21.2385 19.9048 20.8707V17.9049L22.3392 21.2299C22.3542 21.2533 22.3706 21.2756 22.3883 21.2969L22.3883 21.2971C22.4552 21.3883 22.5467 21.4509 22.6487 21.4891C22.727 21.5215 22.8127 21.5394 22.9024 21.5394H22.9581C23.0671 21.5395 23.1744 21.5126 23.2706 21.4613C23.3375 21.4295 23.3938 21.3884 23.4335 21.34ZM16.8457 21.5394H16.9015C17.2693 21.5394 17.5702 21.2385 17.5702 20.8706V15.911C17.5702 15.5431 17.2693 15.2423 16.9015 15.2423H16.8457C16.4778 15.2423 16.1769 15.5431 16.1769 15.911V20.8706C16.1769 21.2385 16.4778 21.5394 16.8457 21.5394Z" fill="white"/>
</g>
<rect x="0.5" y="0.5" width="39" height="39" rx="19.5" stroke="#E6E8EC"/>
<defs>
<clipPath id="clip0_3177_19371">
<rect width="40" height="40" rx="20" fill="white"/>
</clipPath>
</defs>
</svg>
