<svg width="25" height="24" viewBox="0 0 25 24" fill="none" xmlns="http://www.w3.org/2000/svg">
<path d="M8.49998 7.00007C8.49998 7.55235 8.05226 8.00007 7.49998 8.00007C6.94769 8.00007 6.49998 7.55235 6.49998 7.00007C6.49998 6.44778 6.94769 6.00007 7.49998 6.00007C8.05226 6.00007 8.49998 6.44778 8.49998 7.00007Z" fill="white"/>
<path d="M8.49998 11.0001C8.49998 11.5524 8.05226 12.0001 7.49998 12.0001C6.94769 12.0001 6.49998 11.5524 6.49998 11.0001C6.49998 10.4478 6.94769 10.0001 7.49998 10.0001C8.05226 10.0001 8.49998 10.4478 8.49998 11.0001Z" fill="white"/>
<path d="M8.49998 15.0001C8.49998 15.5524 8.05226 16.0001 7.49998 16.0001C6.94769 16.0001 6.49998 15.5524 6.49998 15.0001C6.49998 14.4478 6.94769 14.0001 7.49998 14.0001C8.05226 14.0001 8.49998 14.4478 8.49998 15.0001Z" fill="white"/>
<path fill-rule="evenodd" clip-rule="evenodd" d="M2.84998 4.00007C2.84998 2.53651 4.03642 1.35007 5.49998 1.35007H18.5C19.9635 1.35007 21.15 2.53652 21.15 4.00007V14.7895C21.15 15.1485 20.859 15.4395 20.5 15.4395C20.141 15.4395 19.85 15.1485 19.85 14.7895V4.00007C19.85 3.25448 19.2456 2.65007 18.5 2.65007H5.49998C4.75439 2.65007 4.14998 3.25448 4.14998 4.00007V18.0001C4.14998 18.7457 4.75439 19.3501 5.49998 19.3501H12.2742C12.6332 19.3501 12.9242 19.6411 12.9242 20.0001C12.9242 20.3591 12.6332 20.6501 12.2742 20.6501H5.49998C4.03642 20.6501 2.84998 19.4636 2.84998 18.0001V4.00007Z" fill="white"/>
<path fill-rule="evenodd" clip-rule="evenodd" d="M18 16.8501C18.359 16.8501 18.65 17.1411 18.65 17.5001V19.3501H20.5C20.859 19.3501 21.15 19.6411 21.15 20.0001C21.15 20.3591 20.859 20.6501 20.5 20.6501H18.65V22.5001C18.65 22.8591 18.359 23.1501 18 23.1501C17.641 23.1501 17.35 22.8591 17.35 22.5001V20.6501H15.5C15.141 20.6501 14.85 20.3591 14.85 20.0001C14.85 19.6411 15.141 19.3501 15.5 19.3501H17.35V17.5001C17.35 17.1411 17.641 16.8501 18 16.8501Z" fill="white"/>
<path fill-rule="evenodd" clip-rule="evenodd" d="M9.84998 7.00007C9.84998 6.64108 10.141 6.35007 10.5 6.35007H16.5C16.859 6.35007 17.15 6.64108 17.15 7.00007C17.15 7.35905 16.859 7.65007 16.5 7.65007H10.5C10.141 7.65007 9.84998 7.35905 9.84998 7.00007Z" fill="white"/>
<path fill-rule="evenodd" clip-rule="evenodd" d="M9.84998 11.0001C9.84998 10.6411 10.141 10.3501 10.5 10.3501H14.5C14.859 10.3501 15.15 10.6411 15.15 11.0001C15.15 11.3591 14.859 11.6501 14.5 11.6501H10.5C10.141 11.6501 9.84998 11.3591 9.84998 11.0001Z" fill="white"/>
<path fill-rule="evenodd" clip-rule="evenodd" d="M9.84998 15.0001C9.84998 14.6411 10.141 14.3501 10.5 14.3501H14.5C14.859 14.3501 15.15 14.6411 15.15 15.0001C15.15 15.3591 14.859 15.6501 14.5 15.6501H10.5C10.141 15.6501 9.84998 15.3591 9.84998 15.0001Z" fill="white"/>
</svg>
