<svg width="64" height="64" viewBox="0 0 64 64" fill="none" xmlns="http://www.w3.org/2000/svg">
<path d="M53.4891 17.9405C53.4683 17.8109 53.4348 17.6836 53.3891 17.5605C53.3891 17.5605 53.3891 17.5605 53.3891 17.5005C53.3616 17.468 53.3315 17.4379 53.2991 17.4105C53.2614 17.3528 53.2178 17.2992 53.1691 17.2505L53.0091 17.1505L52.8391 17.0705C52.7755 17.0433 52.708 17.0264 52.6391 17.0205H52.5191H52.4591H52.2591C52.1976 17.036 52.1375 17.056 52.0791 17.0805H52.0191L27.7691 31.0805L27.6791 31.1705L27.5191 31.3005C27.48 31.35 27.4464 31.4037 27.4191 31.4605C27.3865 31.5142 27.3597 31.5712 27.3391 31.6305C27.3119 31.6941 27.295 31.7616 27.2891 31.8305C27.2891 31.8305 27.2891 31.9105 27.2891 31.9505V60.0005C27.2891 60.0005 27.2891 60.0005 27.2891 60.0605C27.3098 60.1902 27.3433 60.3174 27.3891 60.4405C27.3891 60.4405 27.3891 60.4405 27.3891 60.5005C27.4368 60.5714 27.4903 60.6383 27.5491 60.7005C27.6298 60.7806 27.7248 60.845 27.8291 60.8905H27.9091C28.0171 60.9347 28.1324 60.9585 28.2491 60.9605C28.3656 60.9572 28.4807 60.9335 28.5891 60.8905H28.6791H28.7491L38.6591 55.1705C38.7137 55.1291 38.764 55.0822 38.8091 55.0305C38.8601 54.996 38.9071 54.9557 38.9491 54.9105C38.985 54.8502 39.0151 54.7865 39.0391 54.7205C39.0716 54.6703 39.0985 54.6167 39.1191 54.5605C39.124 54.4973 39.124 54.4337 39.1191 54.3705C39.1238 54.3073 39.1238 54.2438 39.1191 54.1805C39.1051 54.1154 39.085 54.0518 39.0591 53.9905C39.0436 53.9291 39.0235 53.8689 38.9991 53.8105C38.0148 52.1757 37.483 50.3086 37.4581 48.4006C37.4333 46.4925 37.9163 44.6122 38.8577 42.9523C39.799 41.2925 41.1649 39.9128 42.8152 38.9548C44.4655 37.9968 46.3409 37.4949 48.2491 37.5005C49.5793 37.4957 50.8987 37.7399 52.1391 38.2205C52.1987 38.23 52.2594 38.23 52.3191 38.2205C52.3787 38.2299 52.4394 38.2299 52.4991 38.2205C52.5854 38.2309 52.6727 38.2309 52.7591 38.2205C52.8023 38.2159 52.8459 38.2159 52.8891 38.2205L53.0391 38.1105C53.0969 38.0808 53.1507 38.0439 53.1991 38.0005C53.2257 37.9696 53.2491 37.9361 53.2691 37.9005C53.3306 37.8339 53.3782 37.7557 53.4091 37.6705C53.413 37.6139 53.413 37.5571 53.4091 37.5005C53.4137 37.4373 53.4137 37.3738 53.4091 37.3105V18.0005C53.4091 18.0005 53.4891 18.0005 53.4891 17.9405Z" fill="#C1C8D1"/>
<path d="M28.75 31.1303L4.50001 17.1303H4.44001C4.3787 17.1044 4.31508 17.0843 4.25001 17.0703H4.06001H4.00001H3.88001C3.80807 17.0774 3.73743 17.0942 3.67001 17.1203L3.51001 17.2003L3.35001 17.3003C3.30128 17.349 3.25771 17.4026 3.22001 17.4603L3.13001 17.5503C3.13001 17.5503 3.13001 17.5503 3.13001 17.6103C3.10555 17.6687 3.08549 17.7289 3.07001 17.7903C3.06531 17.8569 3.06531 17.9237 3.07001 17.9903L3.00001 18.0003V46.0003C2.99931 46.1765 3.04518 46.3498 3.13299 46.5026C3.22079 46.6553 3.3474 46.7822 3.50001 46.8703L27.75 60.8703H27.82H27.91C28.0184 60.9133 28.1335 60.937 28.25 60.9403C28.3667 60.9383 28.482 60.9146 28.59 60.8703H28.67C28.7743 60.8248 28.8692 60.7604 28.95 60.6803C29.0087 60.6181 29.0622 60.5513 29.11 60.4803C29.11 60.4803 29.11 60.4803 29.11 60.4203C29.1345 60.3619 29.1545 60.3017 29.17 60.2403C29.1747 60.1737 29.1747 60.1069 29.17 60.0403C29.17 60.0403 29.17 60.0403 29.17 59.9803V32.0003C29.1792 31.8316 29.1455 31.6634 29.072 31.5112C28.9986 31.3591 28.8878 31.228 28.75 31.1303Z" fill="#A8B0BC"/>
<path d="M53.4783 18.0004C53.4833 18.0636 53.4833 18.1271 53.4783 18.1904C53.4628 18.2551 53.4428 18.3186 53.4183 18.3804C53.4183 18.3804 53.4183 18.4604 53.4183 18.5004V18.5604L53.3583 18.6404C53.2869 18.7263 53.2026 18.8005 53.1083 18.8604L40.2983 26.2004L38.2983 27.3604L28.7483 32.8704C28.5963 32.9581 28.4238 33.0044 28.2483 33.0044C28.0727 33.0044 27.9003 32.9581 27.7483 32.8704L3.49828 18.8704C3.44043 18.8291 3.38683 18.7822 3.33828 18.7304L3.20828 18.5904V18.5404C3.20828 18.5404 3.20828 18.4604 3.20828 18.4204C3.12989 18.3518 3.05944 18.2747 2.99828 18.1904C2.98495 18.0641 2.98495 17.9367 2.99828 17.8104C3.01371 17.7457 3.03376 17.6822 3.05828 17.6204C3.05828 17.6204 3.05828 17.5404 3.05828 17.5004V17.4504L3.18828 17.3104C3.23683 17.2585 3.29043 17.2116 3.34828 17.1704L15.2483 10.3004L17.1583 9.20038L27.5983 3.20038C27.7503 3.11261 27.9227 3.06641 28.0983 3.06641C28.2738 3.06641 28.4463 3.11261 28.5983 3.20038L52.9983 17.1304L53.1383 17.2604L53.2783 17.4104V17.4604C53.2783 17.4604 53.2783 17.5404 53.2783 17.5804C53.3028 17.6422 53.3228 17.7057 53.3383 17.7704C53.3934 17.8416 53.4403 17.9187 53.4783 18.0004Z" fill="#D2D7DD"/>
<path d="M40.2984 25.6202V35.1402C40.2984 35.4054 40.1931 35.6597 40.0055 35.8473C39.818 36.0348 39.5637 36.1402 39.2984 36.1402C39.0332 36.1402 38.7789 36.0348 38.5913 35.8473C38.4038 35.6597 38.2984 35.4054 38.2984 35.1402V26.1402L15.3984 10.2602L17.3084 9.16016L39.8484 24.7902C39.986 24.8807 40.0991 25.0039 40.1776 25.1487C40.2561 25.2935 40.2976 25.4555 40.2984 25.6202Z" fill="#505050"/>
<path d="M50.6221 59.5638C56.8305 58.408 60.9265 52.4381 59.7707 46.2297C58.6149 40.0213 52.6451 35.9253 46.4366 37.0811C40.2282 38.2369 36.1323 44.2067 37.2881 50.4152C38.4438 56.6236 44.4137 60.7195 50.6221 59.5638Z" fill="#B9EA6A"/>
<path fill-rule="evenodd" clip-rule="evenodd" d="M48.5207 36.9102C54.8364 36.9102 59.9564 42.0301 59.9564 48.3459C59.9564 54.6617 54.8364 59.7816 48.5207 59.7816C48.1833 59.7816 47.8495 59.7661 47.5195 59.7375C53.3662 59.2302 57.954 54.3242 57.954 48.3459C57.954 42.3675 53.3662 37.4615 47.5195 36.9543C47.8495 36.9256 48.1833 36.9102 48.5207 36.9102Z" fill="#A1E42C"/>
<path fill-rule="evenodd" clip-rule="evenodd" d="M42.9301 49.0229C42.4428 48.5746 42.4113 47.816 42.8597 47.3288C43.308 46.8415 44.0666 46.81 44.5538 47.2584L47.1468 49.6397L52.4673 44.5456C52.9442 44.0869 53.7028 44.1016 54.1615 44.5784C54.6202 45.0553 54.6055 45.8138 54.1286 46.2726L48.0237 52.1177C47.5729 52.5827 46.8309 52.6061 46.3514 52.1649L42.9301 49.0229Z" fill="#F4F8F8"/>
</svg>
