<?xml version="1.0" encoding="utf-8"?>
<!-- Generator: Adobe Illustrator 27.4.0, SVG Export Plug-In . SVG Version: 6.00 Build 0)  -->
<svg version="1.1" xmlns="http://www.w3.org/2000/svg" xmlns:xlink="http://www.w3.org/1999/xlink" x="0px" y="0px"
	 viewBox="0 0 38.8 38.8" style="enable-background:new 0 0 38.8 38.8;" xml:space="preserve">
<style type="text/css">
	.st0{display:none;}
	.st1{display:inline;}
	.st2{clip-path:url(#SVGID_00000176030679805210943310000003030170756838763662_);}
	.st3{fill:#6BB893;}
	.st4{fill:#8FDCB6;}
	.st5{fill:#FFD1D4;}
	.st6{fill:#F1AAAE;}
	.st7{fill:#F49FA4;}
	.st8{fill:#C85960;}
	.st9{fill:#F9E95B;}
	.st10{fill:#E3D01D;}
	.st11{clip-path:url(#SVGID_00000127008470039888138010000018152969450654243748_);}
	.st12{fill:#B40166;}
	.st13{fill:#FEFDFD;}
</style>
<g id="Layer_1" class="st0">
	<g class="st1">
		<g>
			<defs>
				<rect id="SVGID_1_" x="7.4" y="7.4" width="24" height="24"/>
			</defs>
			<clipPath id="SVGID_00000075153904573589136690000003092329250948764571_">
				<use xlink:href="#SVGID_1_"  style="overflow:visible;"/>
			</clipPath>
			<g style="clip-path:url(#SVGID_00000075153904573589136690000003092329250948764571_);">
				<path class="st3" d="M15.2,12.6L25.5,8l2.2,4.6L21,14.4L15.2,12.6z"/>
				<path class="st4" d="M11.9,12.6L22.3,8l2.2,4.6l-7.2,2.1L11.9,12.6z"/>
				<path class="st5" d="M28.1,31H9.6c-1.2,0-2.2-1-2.2-2.2V14.8c0-1.2,1-2.2,2.2-2.2h18.4c1.2,0,2.2,1,2.2,2.2v13.9
					C30.3,30,29.3,31,28.1,31z"/>
				<path class="st6" d="M11.9,31H9.6c-1.2,0-2.2-1-2.2-2.2V14.8c0-1.2,1-2.2,2.2-2.2h2.3c-1.2,0-2.2,1-2.2,2.2v13.9
					C9.7,30,10.8,31,11.9,31z"/>
				<path class="st7" d="M23.4,25.3h6.7c0.7,0,1.3-0.6,1.3-1.3v-4.4c0-0.7-0.6-1.3-1.3-1.3h-6.7c-0.7,0-1.3,0.6-1.3,1.3V24
					C22.1,24.7,22.7,25.3,23.4,25.3z"/>
				<path class="st8" d="M24.7,25.3h-1.3c-0.7,0-1.3-0.6-1.3-1.3v-4.4c0-0.7,0.6-1.3,1.3-1.3h1.3c-0.7,0-1.3,0.6-1.3,1.3V24
					C23.4,24.7,24,25.3,24.7,25.3z"/>
				<path class="st9" d="M26.1,23.5c0.9,0,1.7-0.8,1.7-1.7s-0.8-1.7-1.7-1.7s-1.7,0.8-1.7,1.7S25.2,23.5,26.1,23.5z"/>
				<path class="st10" d="M26.7,23.4c-0.1,0-0.3,0.1-0.6,0.1c-0.9,0-1.7-0.8-1.7-1.7s0.8-1.7,1.7-1.7c0.2,0,0.3,0,0.6,0.1
					c-0.7,0.2-1.2,0.9-1.2,1.6C25.4,22.6,26,23.2,26.7,23.4z"/>
			</g>
		</g>
	</g>
</g>
<g id="Layer_2">
	<g>
		<defs>
			<rect id="SVGID_00000080891696695058504620000012764568974318683554_" x="5.7" y="5.7" width="27.4" height="27.4"/>
		</defs>
		<clipPath id="SVGID_00000051361073399998218560000004138633282897231263_">
			<use xlink:href="#SVGID_00000080891696695058504620000012764568974318683554_"  style="overflow:visible;"/>
		</clipPath>
		<g style="clip-path:url(#SVGID_00000051361073399998218560000004138633282897231263_);">
			<path class="st12" d="M19.4,5.7c3.9,0,7.9,0,11.8,0c0.9,0,1.7,0.6,1.9,1.6c0,0.1,0,0.2,0,0.2c0,7.9,0,15.8,0,23.7
				c0,1-0.8,1.9-1.9,1.9c-7.9,0-15.8,0-23.7,0c-1,0-1.7-0.7-1.9-1.6c0-0.1,0-0.2,0-0.3c0-7.8,0-15.7,0-23.5c0-1,0.6-1.7,1.6-1.9
				c0.1,0,0.2,0,0.3,0C11.5,5.7,15.5,5.7,19.4,5.7L19.4,5.7z M10.1,15.9L10.1,15.9c0,0.8,0,1.7,0,2.5c0,0.1,0,0.2,0.2,0.2
				c0.6,0,1.3,0,1.9,0c0.2,0,0.2,0,0.2-0.2c0-1.5,0-3.1,0-4.6c0-0.1,0-0.1,0-0.2c0-0.3,0.2-0.5,0.5-0.6c0.4-0.1,0.8,0.2,0.8,0.7
				c0,1.6,0,3.2,0,4.7c0,0.1,0,0.2,0.2,0.2c0.6,0,1.3,0,1.9,0c0.2,0,0.2,0,0.2-0.2c0-1.6,0-3.1,0-4.7c0-0.1,0-0.1,0-0.2
				c0.1-0.4,0.4-0.6,0.8-0.5c0.3,0.1,0.6,0.3,0.6,0.7c0,1.6,0,3.2,0,4.7c0,0.1,0,0.2,0.2,0.2c0.6,0,1.3,0,1.9,0c0.2,0,0.2,0,0.2-0.2
				c0-1.6,0-3.2,0-4.8c0-1.2-0.5-2-1.5-2.6c-1-0.6-2.1-0.5-3,0.1c-0.1,0.1-0.2,0.1-0.3,0c-1-0.6-2-0.7-3.1-0.1
				c-1,0.5-1.5,1.4-1.6,2.6C10.1,14.4,10.1,15.2,10.1,15.9L10.1,15.9z M19.6,25.5c0-0.8,0-1.5,0-2.3c0-1.2-0.5-2.1-1.6-2.6
				c-1-0.5-2-0.5-3,0.2c-0.1,0.1-0.2,0.1-0.3,0c-1-0.6-2-0.7-3-0.2c-1,0.5-1.6,1.4-1.6,2.5c0,1.6,0,3.3,0,4.9c0,0.1,0.1,0.1,0.2,0.1
				c0.7,0,1.3,0,2,0c0.1,0,0.2-0.1,0.2-0.2c0-0.6,0-1.3,0-1.9c0-1,0-1.9,0-2.9c0-0.4,0.3-0.7,0.6-0.7c0.4,0,0.7,0.3,0.7,0.7
				c0,1.6,0,3.1,0,4.7c0,0.1,0,0.2,0.2,0.2c0.6,0,1.3,0,1.9,0c0.1,0,0.2,0,0.2-0.2c0-1.2,0-2.4,0-3.6c0-0.4,0-0.8,0-1.2
				c0-0.3,0.3-0.6,0.6-0.6c0.3,0,0.6,0.2,0.7,0.5c0,0.1,0,0.2,0,0.3c0,1.5,0,3.1,0,4.6c0,0.1,0,0.2,0.2,0.2c0.6,0,1.3,0,1.9,0
				c0.1,0,0.2,0,0.2-0.2C19.6,27.2,19.6,26.3,19.6,25.5L19.6,25.5z M28.6,14.6c0-2.2-1.8-3.9-3.9-3.9c-2.2,0-3.9,1.8-3.9,3.9
				c0,2.2,1.8,4,3.9,4C26.9,18.6,28.6,16.8,28.6,14.6L28.6,14.6z M24.7,20.3c-2.2,0-3.9,1.8-3.9,3.9c0,2.2,1.8,3.9,3.9,3.9
				c2.2,0,4-1.7,4-3.9C28.6,22,26.9,20.3,24.7,20.3z"/>
			<path class="st13" d="M10.1,15.9c0-0.7,0-1.5,0-2.2c0-1.2,0.5-2.1,1.6-2.6c1-0.6,2.1-0.5,3.1,0.1c0.1,0.1,0.2,0.1,0.3,0
				c1-0.6,2-0.7,3-0.1c1,0.5,1.5,1.4,1.5,2.6c0,1.6,0,3.2,0,4.8c0,0.1,0,0.2-0.2,0.2c-0.6,0-1.3,0-1.9,0c-0.1,0-0.2,0-0.2-0.2
				c0-1.6,0-3.2,0-4.7c0-0.4-0.2-0.6-0.6-0.7c-0.4-0.1-0.7,0.2-0.8,0.5c0,0.1,0,0.1,0,0.2c0,1.6,0,3.1,0,4.7c0,0.2,0,0.2-0.2,0.2
				c-0.6,0-1.3,0-1.9,0c-0.1,0-0.2,0-0.2-0.2c0-1.6,0-3.2,0-4.7c0-0.5-0.4-0.8-0.8-0.7c-0.3,0.1-0.5,0.3-0.5,0.6c0,0.1,0,0.1,0,0.2
				c0,1.5,0,3.1,0,4.6c0,0.1,0,0.2-0.2,0.2c-0.6,0-1.3,0-1.9,0c-0.1,0-0.2,0-0.2-0.2C10.2,17.6,10.1,16.7,10.1,15.9L10.1,15.9
				L10.1,15.9z"/>
			<path class="st13" d="M19.6,25.5c0,0.8,0,1.7,0,2.5c0,0.1,0,0.2-0.2,0.2c-0.6,0-1.3,0-1.9,0c-0.1,0-0.2,0-0.2-0.2
				c0-1.5,0-3.1,0-4.6c0-0.1,0-0.2,0-0.3c-0.1-0.3-0.4-0.5-0.7-0.5c-0.3,0-0.6,0.3-0.6,0.6c0,0.4,0,0.8,0,1.2c0,1.2,0,2.4,0,3.6
				c0,0.1,0,0.2-0.2,0.2c-0.6,0-1.3,0-1.9,0c-0.2,0-0.2,0-0.2-0.2c0-1.6,0-3.1,0-4.7c0-0.5-0.3-0.8-0.7-0.7c-0.4,0-0.6,0.3-0.6,0.7
				c0,1,0,1.9,0,2.9c0,0.6,0,1.3,0,1.9c0,0.1,0,0.2-0.2,0.2c-0.7,0-1.3,0-2,0c-0.1,0-0.2,0-0.2-0.1c0-1.6,0-3.3,0-4.9
				c0-1.1,0.6-2,1.6-2.5c1-0.5,2-0.4,3,0.2c0.1,0.1,0.2,0.1,0.3,0c1-0.6,2-0.7,3-0.2c1,0.5,1.6,1.4,1.6,2.6
				C19.6,24,19.6,24.7,19.6,25.5L19.6,25.5z"/>
			<path class="st13" d="M28.6,14.6c0,2.2-1.8,4-3.9,4c-2.2,0-4-1.8-3.9-4c0-2.2,1.8-3.9,3.9-3.9C26.9,10.7,28.6,12.5,28.6,14.6
				L28.6,14.6z M26.4,14.6c0-0.9-0.7-1.7-1.7-1.7c-0.9,0-1.7,0.7-1.7,1.7c0,0.9,0.7,1.7,1.7,1.7C25.6,16.3,26.4,15.6,26.4,14.6
				L26.4,14.6z"/>
			<path class="st13" d="M24.7,20.3c2.2,0,3.9,1.7,3.9,3.9c0,2.2-1.8,3.9-4,3.9c-2.2,0-3.9-1.8-3.9-3.9C20.7,22,22.5,20.3,24.7,20.3
				z M24.7,22.5c-0.9,0-1.7,0.8-1.7,1.7c0,0.9,0.8,1.7,1.7,1.7c0.9,0,1.6-0.8,1.6-1.7C26.4,23.3,25.6,22.5,24.7,22.5z"/>
			<path class="st12" d="M26.4,14.6c0,0.9-0.8,1.7-1.7,1.7c-0.9,0-1.7-0.8-1.7-1.7c0-0.9,0.8-1.7,1.7-1.7
				C25.6,13,26.4,13.7,26.4,14.6L26.4,14.6z"/>
			<path class="st12" d="M24.7,22.5c0.9,0,1.7,0.7,1.7,1.7c0,0.9-0.7,1.7-1.6,1.7c-1,0-1.7-0.7-1.7-1.7C23,23.3,23.8,22.6,24.7,22.5
				z"/>
		</g>
	</g>
</g>
</svg>
