<svg width="48" height="48" viewBox="0 0 48 48" fill="none" xmlns="http://www.w3.org/2000/svg">
<rect x="0.5" y="7.55859" width="47" height="32.8824" rx="3.5" fill="white"/>
<path d="M31.032 23.935C31.782 23.9513 32.5363 23.9019 33.2833 23.9607C34.0398 24.1018 34.2221 25.2471 33.55 25.6222C33.0914 25.8693 32.5467 25.7142 32.0495 25.7578H31.032V23.935ZM33.717 21.8718C33.8836 22.46 33.3166 22.9881 32.7501 22.9071H31.032C31.044 22.3524 31.0084 21.7504 31.0494 21.2249C31.7377 21.2443 32.4324 21.1854 33.1167 21.2558C33.4107 21.3296 33.6568 21.5713 33.717 21.8718ZM37.8519 13.1495C37.8839 14.2727 37.8565 15.4553 37.8657 16.6014C37.8636 21.2608 37.8702 25.92 37.862 30.5797C37.8319 32.3259 36.2843 33.8432 34.5502 33.8781C32.8144 33.8851 31.0783 33.8792 29.3422 33.8811V26.8371C31.2338 26.8273 33.1262 26.8569 35.017 26.8223C35.8941 26.7672 36.8548 26.1885 36.8956 25.2233C36.9989 24.2538 36.085 23.5833 35.2172 23.4774C34.8837 23.4688 34.8934 23.3802 35.2172 23.3416C36.0448 23.1627 36.6948 22.3061 36.4512 21.4482C36.2437 20.546 35.2465 20.1967 34.417 20.1985C32.7257 20.187 31.034 20.1969 29.3426 20.1935C29.3535 18.8785 29.3198 17.5621 29.3608 16.248C29.4948 14.5333 31.0813 13.1192 32.7911 13.1499C34.4782 13.1496 36.1651 13.1496 37.8519 13.1496V13.1495Z" fill="url(#paint0_linear_3607_206277)"/>
<path d="M10.2286 16.4254C10.2718 14.682 11.826 13.1771 13.5579 13.1516C15.2872 13.1463 17.0169 13.1508 18.7463 13.1493C18.7415 18.9825 18.7557 24.8164 18.7392 30.6493C18.6725 32.3715 17.1353 33.8477 15.4223 33.8782C13.6896 33.8845 11.9568 33.8791 10.224 33.8808V26.5994C11.9071 26.997 13.672 27.1662 15.389 26.9025C16.4154 26.7373 17.5383 26.2333 17.8858 25.1685C18.1415 24.2577 17.9975 23.2992 18.0356 22.3643V20.1934H15.0641C15.0508 21.6292 15.0915 23.0675 15.0426 24.5016C14.9625 25.3831 14.0896 25.9432 13.2582 25.9132C12.2272 25.9242 10.1841 25.166 10.1841 25.166C10.179 22.4759 10.214 19.1069 10.2286 16.4257V16.4254Z" fill="url(#paint1_linear_3607_206277)"/>
<path d="M19.8547 21.0694C19.6983 21.1025 19.8232 20.5366 19.7833 20.3219C19.7939 18.9644 19.761 17.6055 19.8014 16.249C19.935 14.5271 21.5338 13.1095 23.2504 13.1498H28.3059C28.3012 18.983 28.3152 24.8168 28.2988 30.6497C28.2321 32.372 26.6948 33.8481 24.9817 33.8787C23.249 33.8852 21.516 33.8797 19.7832 33.8814V25.9035C20.9666 26.8745 22.5751 27.0257 24.0495 27.0283C25.161 27.0279 26.266 26.8566 27.3454 26.6002V25.1387C26.129 25.7449 24.699 26.13 23.3506 25.7817C22.4099 25.5476 21.7271 24.6385 21.7423 23.6677C21.6333 22.6582 22.2251 21.5924 23.2171 21.2923C24.4488 20.9067 25.7913 21.2016 26.9458 21.7029C27.1932 21.8324 27.4443 21.9931 27.3454 21.5796V20.4308C25.4144 19.9714 23.3594 19.8023 21.4194 20.3021C20.8579 20.4605 20.3108 20.7008 19.8547 21.0695V21.0694Z" fill="url(#paint2_linear_3607_206277)"/>
<rect x="0.5" y="7.55859" width="47" height="32.8824" rx="3.5" stroke="#F2F4F7"/>
<defs>
<linearGradient id="paint0_linear_3607_206277" x1="29.2841" y1="23.072" x2="37.8119" y2="23.072" gradientUnits="userSpaceOnUse">
<stop stop-color="#58B03A"/>
<stop offset="1" stop-color="#55B330"/>
</linearGradient>
<linearGradient id="paint1_linear_3607_206277" x1="10.0427" y1="23.7136" x2="18.6066" y2="23.7136" gradientUnits="userSpaceOnUse">
<stop stop-color="#0F6EB6"/>
<stop offset="1" stop-color="#006DBA"/>
</linearGradient>
<linearGradient id="paint2_linear_3607_206277" x1="19.7707" y1="23.2731" x2="28.3043" y2="23.2731" gradientUnits="userSpaceOnUse">
<stop stop-color="#DE0D3D"/>
<stop offset="1" stop-color="#E30138"/>
</linearGradient>
</defs>
</svg>
