<svg width="30" height="30" viewBox="0 0 30 30" fill="none" xmlns="http://www.w3.org/2000/svg">
<path d="M25.6409 12.1522L16.2659 3.63271C15.9202 3.31649 15.4687 3.14111 15.0002 3.14111C14.5318 3.14111 14.0803 3.31649 13.7346 3.63271L4.35963 12.1522C4.16768 12.3278 4.01437 12.5415 3.90946 12.7795C3.80455 13.0176 3.75033 13.2749 3.75025 13.535V24.328C3.74263 24.8007 3.90952 25.2597 4.219 25.6171C4.39465 25.8168 4.61103 25.9766 4.85359 26.0858C5.09615 26.1949 5.35926 26.2509 5.62525 26.2499H11.2503C11.4989 26.2499 11.7373 26.1511 11.9132 25.9753C12.089 25.7995 12.1877 25.561 12.1877 25.3124V19.6874C12.1877 19.4388 12.2865 19.2003 12.4623 19.0245C12.6382 18.8487 12.8766 18.7499 13.1252 18.7499H16.8752C17.1239 18.7499 17.3623 18.8487 17.5382 19.0245C17.714 19.2003 17.8127 19.4388 17.8127 19.6874V25.3124C17.8127 25.561 17.9115 25.7995 18.0873 25.9753C18.2632 26.1511 18.5016 26.2499 18.7502 26.2499H24.3752C24.6862 26.2526 24.9928 26.176 25.2659 26.0272C25.5631 25.8654 25.8112 25.6266 25.9844 25.3359C26.1576 25.0452 26.2494 24.7133 26.2502 24.3749V13.535C26.2502 13.2749 26.1959 13.0176 26.091 12.7795C25.9861 12.5415 25.8328 12.3278 25.6409 12.1522Z" fill="#FBB912"/>
</svg>
