<svg width="20" height="20" viewBox="0 0 20 20" fill="none" xmlns="http://www.w3.org/2000/svg">
<path fill-rule="evenodd" clip-rule="evenodd" d="M3.625 7.5C3.625 7.43096 3.68096 7.375 3.75 7.375H16.25C16.319 7.375 16.375 7.43096 16.375 7.5V11.875H17.375V7.5C17.375 6.87868 16.8713 6.375 16.25 6.375H3.75C3.12868 6.375 2.625 6.87868 2.625 7.5V16.25C2.625 16.8713 3.12868 17.375 3.75 17.375H10V16.375H3.75C3.68096 16.375 3.625 16.319 3.625 16.25V7.5Z" fill="#777E90"/>
<path d="M7.1875 6.875V4.0625C7.1875 3.31658 7.48382 2.60121 8.01126 2.07376C8.53871 1.54632 9.25408 1.25 10 1.25C10.7459 1.25 11.4613 1.54632 11.9887 2.07376C12.5162 2.60121 12.8125 3.31658 12.8125 4.0625V6.875" stroke="#777E90" stroke-linecap="round" stroke-linejoin="round"/>
<path d="M10.4375 11.875C10.4375 12.1166 10.2416 12.3125 10 12.3125C9.75838 12.3125 9.5625 12.1166 9.5625 11.875C9.5625 11.6334 9.75838 11.4375 10 11.4375C10.2416 11.4375 10.4375 11.6334 10.4375 11.875Z" fill="#777E90" stroke="#777E90"/>
<path d="M18.75 12.5L14.1667 16.875L11.875 14.6875" stroke="#777E90" stroke-linecap="round" stroke-linejoin="round"/>
</svg>
