<svg width="24" height="23" viewBox="0 0 24 23" fill="none" xmlns="http://www.w3.org/2000/svg">
<g clip-path="url(#clip0_2846_645274)">
<path d="M4.68701 0.115403C5.54294 -0.00877596 6.41342 -0.00951955 7.27825 0.00832651L7.20389 0.0715313C6.07234 0.753399 5.13397 1.68957 4.45585 2.76406C3.09638 4.91525 2.60093 7.45906 2.71328 9.92479C2.82481 11.9325 3.34856 13.9513 4.45909 15.6965C4.64498 16.0088 4.95454 16.2847 4.95939 16.6639C4.99414 17.4774 4.55688 18.244 3.96525 18.8255C4.00404 18.8627 4.04203 18.8999 4.08083 18.937C4.63448 19.4932 5.2253 20.016 5.78784 20.5648C6.5872 21.3961 7.49809 22.1322 8.28128 22.9784C6.97839 22.9963 5.66014 23.052 4.3726 22.8282C2.75207 22.539 1.3134 21.5054 0.626386 20.1238C0.21014 19.3252 0.0856704 18.4322 0.0533406 17.557C0.0525323 13.5163 0.0525323 9.4764 0.0533406 5.4365C0.071122 4.08615 0.459888 2.67334 1.49283 1.67173C2.31077 0.823296 3.46899 0.271556 4.68701 0.115403Z" fill="#0068FF"/>
<path d="M16.554 7.53516C16.9007 7.53516 17.2474 7.53516 17.595 7.53516C17.5893 9.40379 17.5893 11.2732 17.595 13.1418C17.2555 13.0979 16.6906 13.2979 16.5629 12.8823C16.5419 11.1007 16.5612 9.31753 16.554 7.53516Z" fill="#0068FF"/>
<path d="M5.94573 7.59926C7.55898 7.59777 9.17063 7.58811 10.7831 7.59852C10.7718 7.88926 10.754 8.20603 10.5422 8.441C9.43977 9.70361 8.36076 10.9826 7.25913 12.2452C8.43027 12.2519 9.60142 12.2474 10.7726 12.2474C10.7507 12.4995 10.8469 12.7932 10.6691 13.0118C10.5576 13.1531 10.3555 13.1405 10.1882 13.1419C8.72286 13.1345 7.25751 13.1486 5.79297 13.1345C5.79701 12.8497 5.80024 12.5344 6.01685 12.3076C7.10637 11.0502 8.20881 9.80176 9.29348 8.54138C8.17891 8.54287 7.06353 8.53469 5.94896 8.54584C5.94169 8.23056 5.94411 7.91454 5.94573 7.59926Z" fill="#0068FF"/>
<path d="M20.1746 8.83581C21.3353 8.59712 22.5945 9.29832 22.9122 10.3498C23.3106 11.4436 22.5832 12.7441 21.3814 13.0772C20.3605 13.4081 19.1385 12.9761 18.6091 12.1106C18.1936 11.4711 18.1686 10.6338 18.546 9.97573C18.8661 9.39499 19.4844 8.9704 20.1746 8.83581ZM20.1552 9.78314C19.4472 10.0129 19.0657 10.8056 19.3421 11.4458C19.5709 12.0511 20.3411 12.4214 21.0104 12.2355C21.7742 12.0674 22.2357 11.2443 21.9649 10.5699C21.7386 9.90211 20.8616 9.51694 20.1552 9.78314Z" fill="#0068FF"/>
<path d="M11.5776 9.61733C12.136 8.98082 13.114 8.66703 13.9756 8.89382C14.2601 8.96 14.5179 9.09087 14.7669 9.22992C14.7645 9.16003 14.7588 9.02098 14.7564 8.95108C15.0821 8.94959 15.407 8.95034 15.7327 8.94885C15.7311 10.3468 15.7295 11.7447 15.7335 13.1434C15.4943 13.1375 15.251 13.1635 15.0158 13.1189C14.8509 13.0572 14.8 12.8913 14.7346 12.756C13.8358 13.3985 12.4238 13.2527 11.677 12.4705C10.8808 11.7128 10.8396 10.4219 11.5776 9.61733ZM12.8934 9.80472C12.1449 10.0471 11.782 10.9342 12.1611 11.5737C12.4844 12.1968 13.3945 12.4586 14.0451 12.115C14.6489 11.8236 14.9277 11.1 14.6683 10.5215C14.4169 9.89246 13.5691 9.54 12.8934 9.80472Z" fill="#0068FF"/>
<path d="M7.20326 0.0715725C7.3843 0.0239831 7.57343 0.00911135 7.76094 0.00390625C10.9931 0.01506 14.2253 0.00241908 17.4575 0.00762418C18.3215 0.0172908 19.1903 -0.0362474 20.0479 0.0849571C21.2352 0.168239 22.3781 0.630749 23.2615 1.36169C24.3704 2.33653 24.962 3.74042 24.9806 5.1406C24.9814 9.08235 24.979 13.0271 24.983 16.9673C24.9717 16.9904 24.9499 17.038 24.9386 17.0618C23.7868 18.247 22.2382 19.0494 20.6193 19.5684C18.4379 20.2525 16.1012 20.4726 13.8082 20.312C11.5152 20.1305 9.20447 19.5795 7.25983 18.4136C6.26569 18.8203 5.1689 19.0196 4.0802 18.9371C4.0414 18.8999 4.00341 18.8627 3.96462 18.8255C4.55625 18.2441 4.99351 17.4774 4.95876 16.6639C4.95391 16.2847 4.64435 16.0088 4.45845 15.6965C3.34792 13.9513 2.82418 11.9325 2.71264 9.92483C2.6003 7.4591 3.09575 4.91529 4.45522 2.7641C5.13334 1.68962 6.07171 0.753441 7.20326 0.0715725ZM16.553 7.53494C16.5603 9.31732 16.5409 11.1004 16.5619 12.8821C16.6896 13.2977 17.2546 13.0977 17.5941 13.1416C17.5884 11.2729 17.5884 9.40357 17.5941 7.53494C17.2465 7.53494 16.8998 7.53494 16.553 7.53494ZM5.94563 7.60112C5.94401 7.9164 5.94158 8.23243 5.94886 8.54771C7.06343 8.53655 8.17881 8.54473 9.29338 8.54324C8.20871 9.80362 7.10627 11.0521 6.01675 12.3095C5.80014 12.5363 5.79691 12.8516 5.79287 13.1364C7.25741 13.1505 8.72276 13.1364 10.1881 13.1438C10.3554 13.1423 10.5575 13.155 10.669 13.0137C10.8468 12.7951 10.7506 12.5014 10.7725 12.2493C9.60132 12.2493 8.43017 12.2537 7.25902 12.247C8.36066 10.9844 9.43967 9.70547 10.5421 8.44286C10.7539 8.20789 10.7717 7.89112 10.783 7.60038C9.17053 7.58997 7.55888 7.59963 5.94563 7.60112ZM20.1748 8.83845C19.4845 8.97304 18.8662 9.39762 18.5462 9.97837C18.1687 10.6364 18.1938 11.4737 18.6092 12.1132C19.1386 12.9787 20.3607 13.4108 21.3815 13.0799C22.5834 12.7467 23.3108 11.4462 22.9123 10.3524C22.5947 9.30096 21.3354 8.59976 20.1748 8.83845ZM11.5767 9.61698C10.8387 10.4215 10.88 11.7124 11.6761 12.4701C12.4229 13.2524 13.8349 13.3981 14.7337 12.7557C14.7991 12.891 14.8501 13.0568 15.0149 13.1185C15.2501 13.1631 15.4934 13.1371 15.7327 13.1431C15.7286 11.7444 15.7302 10.3464 15.7319 8.9485C15.4061 8.94999 15.0812 8.94924 14.7555 8.95073C14.7579 9.02063 14.7636 9.15968 14.766 9.22957C14.5171 9.09052 14.2592 8.95965 13.9747 8.89347C13.1131 8.66668 12.1352 8.98047 11.5767 9.61698Z" fill="white"/>
<path d="M12.8919 9.8037C13.5676 9.53898 14.4154 9.89144 14.6668 10.5205C14.9263 11.099 14.6474 11.8225 14.0436 12.114C13.393 12.4576 12.4829 12.1958 12.1596 11.5727C11.7806 10.9332 12.1435 10.0461 12.8919 9.8037Z" fill="white"/>
<path d="M20.1555 9.78427C20.8619 9.51806 21.7388 9.90324 21.9652 10.571C22.2359 11.2454 21.7744 12.0686 21.0106 12.2366C20.3414 12.4225 19.5711 12.0522 19.3424 11.4469C19.066 10.8067 19.4475 10.014 20.1555 9.78427Z" fill="white"/>
<path d="M24.9385 17.0639L25.0023 17C25.0355 18.1622 24.8989 19.375 24.2789 20.4093C23.558 21.6229 22.2502 22.5241 20.7792 22.8126C19.954 22.9695 19.1078 23.0045 18.2672 22.9948C15.6816 22.9955 13.0961 22.9948 10.5105 22.9955C9.76689 22.9844 9.02169 23.0164 8.28053 22.9807C7.49734 22.1345 6.58645 21.3983 5.78709 20.567C5.22455 20.0182 4.63373 19.4955 4.08008 18.9393C5.16878 19.0218 6.26557 18.8225 7.25972 18.4158C9.20435 19.5817 11.5151 20.1327 13.8081 20.3142C16.1011 20.4748 18.4378 20.2547 20.6192 19.5706C22.2381 19.0516 23.7867 18.2492 24.9385 17.0639Z" fill="#005BE0"/>
</g>
<defs>
<clipPath id="clip0_2846_645274">
<rect width="25" height="23" fill="white"/>
</clipPath>
</defs>
</svg>
