<svg width="24" height="24" viewBox="0 0 24 24" fill="none" xmlns="http://www.w3.org/2000/svg">
<path d="M7.48145 10.0969H2.98145C2.78253 10.0969 2.59177 10.0178 2.45112 9.87718C2.31046 9.73653 2.23145 9.54576 2.23145 9.34685V4.84685C2.23417 4.69828 2.2799 4.55369 2.36309 4.43056C2.44628 4.30744 2.56337 4.21107 2.7002 4.1531C2.8376 4.09747 2.98842 4.08382 3.13359 4.11385C3.27875 4.14388 3.41177 4.21627 3.51582 4.32185L5.23145 6.03748L5.63457 5.63435C7.32496 3.95009 9.61395 3.00439 12.0002 3.00439C14.3864 3.00439 16.6754 3.95009 18.3658 5.63435C18.5061 5.77495 18.5848 5.96544 18.5848 6.16404C18.5848 6.36264 18.5061 6.55313 18.3658 6.69373C18.2968 6.76431 18.2144 6.8204 18.1235 6.85869C18.0325 6.89698 17.9348 6.91671 17.8361 6.91671C17.7374 6.91671 17.6397 6.89698 17.5488 6.85869C17.4578 6.8204 17.3754 6.76431 17.3064 6.69373C15.8973 5.28998 13.9892 4.50183 12.0002 4.50183C10.0111 4.50183 8.10314 5.28998 6.69395 6.69373L6.29082 7.09685L8.01582 8.82185C8.11913 8.92725 8.18905 9.0608 8.21682 9.20575C8.24459 9.35071 8.22897 9.50064 8.17192 9.63676C8.11487 9.77288 8.01892 9.88914 7.8961 9.97098C7.77328 10.0528 7.62904 10.0966 7.48145 10.0969ZM21.0189 13.9031H16.5189C16.3714 13.9033 16.2271 13.9471 16.1043 14.029C15.9815 14.1108 15.8855 14.2271 15.8285 14.3632C15.7714 14.4993 15.7558 14.6492 15.7836 14.7942C15.8113 14.9392 15.8813 15.0727 15.9846 15.1781L17.7096 16.9031L17.3064 17.3062C15.8973 18.71 13.9892 19.4981 12.0002 19.4981C10.0111 19.4981 8.10314 18.71 6.69395 17.3062C6.62497 17.2356 6.54257 17.1796 6.45161 17.1413C6.36065 17.103 6.26295 17.0832 6.16426 17.0832C6.06556 17.0832 5.96787 17.103 5.8769 17.1413C5.78594 17.1796 5.70355 17.2356 5.63457 17.3062C5.49431 17.4468 5.41554 17.6373 5.41554 17.8359C5.41554 18.0345 5.49431 18.225 5.63457 18.3656C7.32375 20.0522 9.61319 20.9994 12.0002 20.9994C14.3872 20.9994 16.6766 20.0522 18.3658 18.3656L18.7689 17.9625L20.4846 19.6781C20.5536 19.7501 20.6366 19.8071 20.7285 19.8458C20.8204 19.8845 20.9192 19.904 21.0189 19.9031C21.1154 19.9026 21.2109 19.8835 21.3002 19.8469C21.437 19.7889 21.5541 19.6925 21.6373 19.5694C21.7205 19.4463 21.7662 19.3017 21.7689 19.1531V14.6531C21.7689 14.5546 21.7495 14.4571 21.7119 14.3661C21.6742 14.2751 21.6189 14.1924 21.5493 14.1228C21.4796 14.0531 21.397 13.9979 21.306 13.9602C21.215 13.9225 21.1174 13.9031 21.0189 13.9031Z" fill="#141416"/>
</svg>
