<svg width="64" height="64" viewBox="0 0 64 64" fill="none" xmlns="http://www.w3.org/2000/svg">
<path d="M18.6875 63.0625C16.0986 63.0625 14 60.9639 14 58.375V5.625C14 3.03612 16.0986 0.9375 18.6875 0.9375H45.3125C47.9014 0.9375 50 3.03612 50 5.625V58.375C50 60.9639 47.9014 63.0625 45.3125 63.0625H18.6875Z" fill="#F5FCFF"/>
<path d="M49.6362 60.187C48.9287 61.8758 47.2588 63.062 45.3125 63.062H18.6875C16.0988 63.062 14 60.9633 14 58.3745V5.62453C14 3.67828 15.1862 2.00828 16.875 1.30078V58.3745C16.875 59.3745 17.6875 60.187 18.6875 60.187H49.6362Z" fill="#E0F5FC"/>
<path d="M36.6886 5.61449C37.2005 5.61449 37.6155 5.19952 37.6155 4.68762C37.6155 4.17572 37.2005 3.76074 36.6886 3.76074C36.1767 3.76074 35.7617 4.17572 35.7617 4.68762C35.7617 5.19952 36.1767 5.61449 36.6886 5.61449Z" fill="#89959D"/>
<path d="M45.3125 64H18.6875C15.5859 64 13.0625 61.4766 13.0625 58.375V5.625C13.0625 2.52338 15.5859 0 18.6875 0H45.3125C48.4141 0 50.9375 2.52338 50.9375 5.625V58.375C50.9375 61.4766 48.4141 64 45.3125 64ZM18.6875 1.875C16.6198 1.875 14.9375 3.55725 14.9375 5.625V58.375C14.9375 60.4427 16.6198 62.125 18.6875 62.125H45.3125C47.3802 62.125 49.0625 60.4427 49.0625 58.375V5.625C49.0625 3.55725 47.3802 1.875 45.3125 1.875H18.6875Z" fill="#505050"/>
<path d="M33.5625 5.625H27.3125C26.7946 5.625 26.375 5.20537 26.375 4.6875C26.375 4.16962 26.7946 3.75 27.3125 3.75H33.5625C34.0804 3.75 34.5 4.16962 34.5 4.6875C34.5 5.20537 34.0804 5.625 33.5625 5.625Z" fill="#89959D"/>
<path d="M39.125 50.4375H24.875C23.9085 50.4375 23.125 51.221 23.125 52.1875V55.0625C23.125 56.029 23.9085 56.8125 24.875 56.8125H39.125C40.0915 56.8125 40.875 56.029 40.875 55.0625V52.1875C40.875 51.221 40.0915 50.4375 39.125 50.4375Z" fill="#B3E59F"/>
<path d="M18.5703 28.7261C18.5703 28.7261 22.8516 41.6623 30.7217 41.6623C34.7143 41.6623 39.6627 41.4205 42.2498 38.7749C44.7623 36.2056 46.3109 32.6899 46.3109 28.8125C46.3109 20.9425 39.9309 14.5625 32.0609 14.5625C27.9642 14.5625 24.2713 16.2912 21.6718 19.059C19.2776 21.6084 18.5703 28.7261 18.5703 28.7261Z" fill="#B3E59F"/>
<path d="M43.6338 37.1286C41.0488 40.7223 36.8288 43.0623 32.0625 43.0623C24.1925 43.0623 17.8125 36.6823 17.8125 28.8123C17.8125 24.2736 19.935 20.2298 23.2412 17.6211C21.555 19.9611 20.5625 22.8336 20.5625 25.9373C20.5625 33.8073 26.9425 40.1873 34.8125 40.1873C38.1437 40.1873 41.2075 39.0448 43.6338 37.1286Z" fill="#95D6A4"/>
<path d="M30.3124 36.0308C29.8326 36.0308 29.3527 35.8476 28.9867 35.4815L23.2992 29.794C22.5457 29.0405 22.5676 27.8053 23.3648 27.0798C24.1116 26.4003 25.2744 26.466 25.9883 27.1799L30.0473 31.2389C30.1938 31.3854 30.4312 31.3854 30.5777 31.2389L38.1367 23.6799C38.8506 22.966 40.0134 22.9003 40.7602 23.5798C41.5574 24.3053 41.5793 25.5405 40.8258 26.294L31.6383 35.4815C31.2722 35.8476 30.7923 36.0308 30.3124 36.0308Z" fill="#CCF49F"/>
<path d="M30.26 35.4876C29.7801 35.4876 29.3003 35.3045 28.9343 34.9384L23.7854 29.5681C23.0319 28.8146 22.5683 27.8053 23.3655 27.0798C24.1123 26.4003 25.2751 26.466 25.989 27.1799L30.048 31.2389C30.1945 31.3854 30.9581 31.6565 31.1045 31.5101L38.2215 24.2415C38.2215 24.2415 40.014 22.9004 40.7608 23.5798C41.558 24.3053 41.5799 25.5405 40.8264 26.294L31.6389 35.4815C31.2728 35.8478 30.7398 35.4876 30.26 35.4876Z" fill="#F5FCFF"/>
<path d="M31.6253 35.4958C31.2616 35.8533 30.7866 36.0321 30.3128 36.0321C29.8328 36.0321 29.3528 35.8483 28.9866 35.4833L23.2991 29.7958C22.5453 29.0421 22.5678 27.8071 23.3653 27.0808C23.4541 27.0008 23.5478 26.9308 23.6453 26.8721C23.7153 27.2208 23.8853 27.5533 24.1566 27.8246L31.6116 35.4833C31.6166 35.4883 31.6203 35.4921 31.6253 35.4958Z" fill="#E0F5FC"/>
<path d="M40.8125 23.6317C40.795 23.6467 40.7775 23.663 40.76 23.6805L31.89 32.5455C31.7438 32.6917 31.5063 32.6917 31.36 32.5455L30.0938 31.2792C30.24 31.3855 30.445 31.3717 30.5763 31.2405L38.135 23.6805C38.8488 22.9667 40.0125 22.9017 40.7587 23.5805C40.7775 23.5967 40.795 23.6142 40.8125 23.6317Z" fill="#E0F5FC"/>
</svg>
