<svg width="64" height="64" viewBox="0 0 64 64" fill="none" xmlns="http://www.w3.org/2000/svg">
<path d="M38.4975 37.0938H28.8962L24.6895 33.1061V17.8422L23.2082 16.9658H15.2398C14.4944 17.1419 13.8082 17.3099 13.8082 17.3099L11.0184 19.1772L9.78516 22.5897V49.4391L11.5547 53.1736L15.5038 55.3198L19.5712 54.8257C19.9243 54.5732 20.3555 54.4231 20.8228 54.4231H34.0665C37.78 54.4231 40.7903 51.4127 40.7903 47.6993V38.5518L38.4975 37.0938Z" fill="#C5C9CE"/>
<path d="M18.3069 54.4229H16.9056C13.1921 54.4229 10.1819 51.4126 10.1819 47.6992V23.6896C10.1819 19.9762 13.1921 16.9658 16.9056 16.9658H6.72375C3.01025 16.9658 0 19.9762 0 23.6896V47.6992C0 51.4126 3.01025 54.4229 6.72375 54.4229H8.125C8.83025 54.4229 9.4925 54.7621 9.90487 55.3342L14.702 61.9908C15.9443 63.7147 18.667 62.8359 18.667 60.7109V56.5794C18.667 55.8556 19.0249 55.2166 19.572 54.8254C19.2064 54.5674 18.766 54.4229 18.3069 54.4229Z" fill="#BABDC1"/>
<path d="M11.0201 33.1064C9.22047 33.1064 7.76172 34.5653 7.76172 36.3648C7.76172 38.1643 9.22059 39.6232 11.0201 39.6232C12.8196 39.6232 14.2785 38.1643 14.2785 36.3648C14.2785 34.5653 12.8196 33.1064 11.0201 33.1064Z" fill="white"/>
<path d="M25.1829 35.8323L23.7449 33.3336H23.379C23.0089 33.1876 22.6062 33.1064 22.1842 33.1064C20.3845 33.1064 18.9258 34.5653 18.9258 36.3648C18.9258 38.1643 20.3847 39.6232 22.1842 39.6232C23.8338 39.6232 25.1963 38.3969 25.4119 36.8064L25.1829 35.8323Z" fill="white"/>
<path d="M57.2775 1.09473H37.527C35.9435 1.81698 34.2208 2.62985 34.2208 2.62985L32.418 7.26573V33.9864L35.8735 37.7209L38.6888 38.552H43.1776C43.5172 38.552 43.8373 38.6327 44.1231 38.7726H53.129L54.4775 39.0565C54.8666 38.7345 55.3595 38.552 55.876 38.552H57.2772C60.9906 38.552 64.001 35.5416 64.001 31.8282V7.81848C64.0012 4.10498 60.991 1.09473 57.2775 1.09473Z" fill="#FF8881"/>
<path d="M33.3928 31.8281V7.81848C33.3928 4.1051 36.4031 1.09473 40.1166 1.09473H29.9347C26.2212 1.09473 23.2109 4.1051 23.2109 7.81848V31.8281C23.2109 35.5415 26.2212 38.5519 29.9347 38.5519H40.1166C36.4031 38.5519 33.3928 35.5415 33.3928 31.8281Z" fill="#F76854"/>
<path d="M53.3616 38.5518H43.1797C44.3707 38.5518 45.3363 39.5173 45.3363 40.7083V44.8398C45.3363 46.9646 48.0589 47.8435 49.3013 46.1196L54.0983 39.463C54.2422 39.2633 54.4171 39.0928 54.6132 38.9543C54.2601 38.7019 53.8287 38.5518 53.3616 38.5518Z" fill="#F76854"/>
<path d="M53.1756 16.9577H47.3556C46.8661 16.9577 46.4694 16.5609 46.4694 16.0715V10.2515C46.4694 9.76198 46.0725 9.36523 45.5831 9.36523H41.6244C41.1349 9.36523 40.7381 9.76211 40.7381 10.2515V16.0715C40.7381 16.2395 40.6905 16.396 40.6094 16.5299V23.1171C40.6906 23.251 40.7381 23.4075 40.7381 23.5755V29.3955C40.7381 29.885 41.135 30.2817 41.6244 30.2817H45.5831C46.0726 30.2817 46.4694 29.8849 46.4694 29.3955V23.5755C46.4694 23.086 46.8661 22.6892 47.3556 22.6892H53.1756C53.6651 22.6892 54.0619 22.2924 54.0619 21.803V17.8442C54.0619 17.3545 53.6651 16.9577 53.1756 16.9577Z" fill="white"/>
<path d="M39.8508 16.9578H34.0308C33.5413 16.9578 33.1445 17.3547 33.1445 17.844V21.8028C33.1445 22.2923 33.5413 22.689 34.0308 22.689H39.8508C40.3403 22.689 40.737 23.0859 40.737 23.5753V16.0713C40.737 16.5609 40.3403 16.9578 39.8508 16.9578Z" fill="#F0ECEC"/>
</svg>
