<svg width="34" height="34" viewBox="0 0 34 34" fill="none" xmlns="http://www.w3.org/2000/svg">
<path d="M17 0.75C13.7861 0.75 10.6443 1.70305 7.97199 3.48862C5.29969 5.27419 3.21689 7.81209 1.98696 10.7814C0.757041 13.7507 0.435237 17.018 1.06225 20.1702C1.68926 23.3224 3.23692 26.2179 5.50952 28.4905C7.78213 30.7631 10.6776 32.3107 13.8298 32.9378C16.982 33.5648 20.2493 33.243 23.2186 32.013C26.1879 30.7831 28.7258 28.7003 30.5114 26.028C32.297 23.3557 33.25 20.2139 33.25 17C33.2417 12.6928 31.527 8.56432 28.4814 5.51864C25.4357 2.47296 21.3072 0.758259 17 0.75ZM9.50001 18.875C9.12917 18.875 8.76666 18.765 8.45831 18.559C8.14997 18.353 7.90965 18.0601 7.76773 17.7175C7.62582 17.3749 7.58869 16.9979 7.66103 16.6342C7.73338 16.2705 7.91196 15.9364 8.17418 15.6742C8.43641 15.412 8.7705 15.2334 9.13421 15.161C9.49793 15.0887 9.87493 15.1258 10.2175 15.2677C10.5602 15.4096 10.853 15.65 11.059 15.9583C11.265 16.2666 11.375 16.6292 11.375 17C11.375 17.4973 11.1775 17.9742 10.8258 18.3258C10.4742 18.6775 9.99729 18.875 9.50001 18.875ZM17 18.875C16.6292 18.875 16.2667 18.765 15.9583 18.559C15.65 18.353 15.4096 18.0601 15.2677 17.7175C15.1258 17.3749 15.0887 16.9979 15.161 16.6342C15.2334 16.2705 15.412 15.9364 15.6742 15.6742C15.9364 15.412 16.2705 15.2334 16.6342 15.161C16.9979 15.0887 17.3749 15.1258 17.7175 15.2677C18.0601 15.4096 18.353 15.65 18.559 15.9583C18.765 16.2666 18.875 16.6292 18.875 17C18.875 17.4973 18.6775 17.9742 18.3258 18.3258C17.9742 18.6775 17.4973 18.875 17 18.875ZM24.5 18.875C24.1292 18.875 23.7667 18.765 23.4583 18.559C23.15 18.353 22.9096 18.0601 22.7677 17.7175C22.6258 17.3749 22.5887 16.9979 22.661 16.6342C22.7334 16.2705 22.912 15.9364 23.1742 15.6742C23.4364 15.412 23.7705 15.2334 24.1342 15.161C24.4979 15.0887 24.8749 15.1258 25.2175 15.2677C25.5601 15.4096 25.853 15.65 26.059 15.9583C26.265 16.2666 26.375 16.6292 26.375 17C26.375 17.4973 26.1775 17.9742 25.8258 18.3258C25.4742 18.6775 24.9973 18.875 24.5 18.875Z" fill="#141416"/>
</svg>
