<svg width="21" height="20" viewBox="0 0 21 20" fill="none" xmlns="http://www.w3.org/2000/svg">
<path d="M8.62412 15C8.45847 14.9977 8.29964 14.9336 8.17881 14.8203L3.80381 10.4453C3.70414 10.3239 3.65321 10.1697 3.66092 10.0128C3.66862 9.85587 3.73442 9.70744 3.8455 9.59636C3.95659 9.48527 4.10502 9.41948 4.26193 9.41177C4.41883 9.40407 4.573 9.455 4.69443 9.55466L8.62412 13.4922L16.9288 5.17966C17.0502 5.08 17.2044 5.02907 17.3613 5.03677C17.5182 5.04448 17.6667 5.11027 17.7777 5.22136C17.8888 5.33244 17.9546 5.48087 17.9623 5.63778C17.97 5.79469 17.9191 5.94885 17.8194 6.07029L9.06943 14.8203C8.94861 14.9336 8.78978 14.9977 8.62412 15Z" fill="#DA291C"/>
</svg>
