<svg width="179" height="32" viewBox="0 0 179 32" fill="none" xmlns="http://www.w3.org/2000/svg">
<path d="M1.78665 0H0V32H1.78665V0Z" fill="#141416"/>
<path d="M2.67997 0V32H3.57329V0H2.67997Z" fill="#141416"/>
<path d="M7.89102 0H5.21105V32H7.89102V0Z" fill="#141416"/>
<path d="M10.4221 0H9.52878V32H10.4221V0Z" fill="#141416"/>
<path d="M13.1021 0H11.3154V32H13.1021V0Z" fill="#141416"/>
<path d="M14.8887 0V32H17.5687V0H14.8887Z" fill="#141416"/>
<path d="M20.0998 0H19.2065V32H20.0998V0Z" fill="#141416"/>
<path d="M23.5242 0H22.6309V32H23.5242V0Z" fill="#141416"/>
<path d="M26.2042 0H24.4175V32H26.2042V0Z" fill="#141416"/>
<path d="M31.4152 0H28.7352V32H31.4152V0Z" fill="#141416"/>
<path d="M34.9885 0H34.0952V32H34.9885V0Z" fill="#141416"/>
<path d="M37.5196 0H35.7329V32H37.5196V0Z" fill="#141416"/>
<path d="M40.1996 0H38.4129V32H40.1996V0Z" fill="#141416"/>
<path d="M44.5173 0H43.624V32H44.5173V0Z" fill="#141416"/>
<path d="M46.3039 0H45.4106V32H46.3039V0Z" fill="#141416"/>
<path d="M48.835 0H47.9417V32H48.835V0Z" fill="#141416"/>
<path d="M53.3016 0H49.8772V32H53.3016V0Z" fill="#141416"/>
<path d="M56.726 0H54.0461V32H56.726V0Z" fill="#141416"/>
<path d="M60.2993 0H57.6194V32H60.2993V0Z" fill="#141416"/>
<path d="M62.8304 0H61.9371V32H62.8304V0Z" fill="#141416"/>
<path d="M65.5104 0H63.7237V32H65.5104V0Z" fill="#141416"/>
<path d="M68.0415 0H67.1482V32H68.0415V0Z" fill="#141416"/>
<path d="M74.1459 0H70.7214V32H74.1459V0Z" fill="#141416"/>
<path d="M75.9325 0H75.0392V32H75.9325V0Z" fill="#141416"/>
<path d="M78.6125 0H76.8258V32H78.6125V0Z" fill="#141416"/>
<path d="M83.8235 0H81.1436V32H83.8235V0Z" fill="#141416"/>
<path d="M85.6102 0H84.7169V32H85.6102V0Z" fill="#141416"/>
<path d="M88.1413 0H86.3546V32H88.1413V0Z" fill="#141416"/>
<path d="M91.9311 0H90.1445V32H91.9311V0Z" fill="#141416"/>
<path d="M92.8244 0V32H93.7178V0H92.8244Z" fill="#141416"/>
<path d="M98.0355 0H95.3555V32H98.0355V0Z" fill="#141416"/>
<path d="M100.567 0H99.6732V32H100.567V0Z" fill="#141416"/>
<path d="M103.247 0H101.46V32H103.247V0Z" fill="#141416"/>
<path d="M105.033 0V32H107.713V0H105.033Z" fill="#141416"/>
<path d="M110.244 0H109.351V32H110.244V0Z" fill="#141416"/>
<path d="M113.669 0H112.775V32H113.669V0Z" fill="#141416"/>
<path d="M116.349 0H114.562V32H116.349V0Z" fill="#141416"/>
<path d="M121.56 0H118.88V32H121.56V0Z" fill="#141416"/>
<path d="M125.133 0H124.24V32H125.133V0Z" fill="#141416"/>
<path d="M127.664 0H125.877V32H127.664V0Z" fill="#141416"/>
<path d="M130.344 0H128.557V32H130.344V0Z" fill="#141416"/>
<path d="M134.662 0H133.768V32H134.662V0Z" fill="#141416"/>
<path d="M136.448 0H135.555V32H136.448V0Z" fill="#141416"/>
<path d="M138.979 0H138.086V32H138.979V0Z" fill="#141416"/>
<path d="M143.446 0H140.022V32H143.446V0Z" fill="#141416"/>
<path d="M146.87 0H144.191V32H146.87V0Z" fill="#141416"/>
<path d="M150.444 0H147.764V32H150.444V0Z" fill="#141416"/>
<path d="M152.975 0H152.082V32H152.975V0Z" fill="#141416"/>
<path d="M155.655 0H153.868V32H155.655V0Z" fill="#141416"/>
<path d="M158.186 0H157.293V32H158.186V0Z" fill="#141416"/>
<path d="M164.29 0H160.866V32H164.29V0Z" fill="#141416"/>
<path d="M166.077 0H165.184V32H166.077V0Z" fill="#141416"/>
<path d="M168.757 0H166.97V32H168.757V0Z" fill="#141416"/>
<path d="M173.968 0H171.288V32H173.968V0Z" fill="#141416"/>
<path d="M175.755 0H174.861V32H175.755V0Z" fill="#141416"/>
<path d="M178.286 0H176.499V32H178.286V0Z" fill="#141416"/>
</svg>
