<svg width="25" height="24" viewBox="0 0 25 24" fill="none" xmlns="http://www.w3.org/2000/svg">
<path d="M16.8439 14.5372C16.7622 14.5376 16.683 14.5081 16.6204 14.4541L14.0192 12.2884C13.9783 12.2535 13.9454 12.2098 13.9228 12.1604C13.9002 12.111 13.8884 12.057 13.8884 12.0024V6.01383C13.8884 5.91659 13.926 5.82333 13.9929 5.75457C14.0598 5.68581 14.1505 5.64718 14.2451 5.64718C14.3397 5.64718 14.4304 5.68581 14.4973 5.75457C14.5642 5.82333 14.6018 5.91659 14.6018 6.01383V11.8289L17.0698 13.8845C17.1285 13.9328 17.1709 13.9989 17.1909 14.0734C17.2108 14.148 17.2074 14.2271 17.181 14.2994C17.1546 14.3718 17.1067 14.4338 17.044 14.4765C16.9813 14.5192 16.9072 14.5404 16.832 14.5372H16.8439Z" fill="white"/>
<path d="M10.6644 16.0062H6.68655C6.59196 16.0062 6.50125 15.9676 6.43436 15.8988C6.36747 15.83 6.3299 15.7368 6.3299 15.6395C6.3299 15.5423 6.36747 15.449 6.43436 15.3803C6.50125 15.3115 6.59196 15.2729 6.68655 15.2729H10.6644C10.759 15.2729 10.8498 15.3115 10.9166 15.3803C10.9835 15.449 11.0211 15.5423 11.0211 15.6395C11.0211 15.7368 10.9835 15.83 10.9166 15.8988C10.8498 15.9676 10.759 16.0062 10.6644 16.0062Z" fill="white"/>
<path d="M9.04989 12.0715H2.35666C2.26206 12.0715 2.17135 12.0328 2.10446 11.9641C2.03758 11.8953 2 11.8021 2 11.7048C2 11.6076 2.03758 11.5143 2.10446 11.4456C2.17135 11.3768 2.26206 11.3382 2.35666 11.3382H9.04989C9.14448 11.3382 9.2352 11.3768 9.30208 11.4456C9.36897 11.5143 9.40654 11.6076 9.40654 11.7048C9.40654 11.8021 9.36897 11.8953 9.30208 11.9641C9.2352 12.0328 9.14448 12.0715 9.04989 12.0715Z" fill="white"/>
<path d="M7.05827 7.66642H3.08037C2.98578 7.66642 2.89506 7.62779 2.82818 7.55903C2.76129 7.49027 2.72372 7.39701 2.72372 7.29977C2.72372 7.20253 2.76129 7.10927 2.82818 7.04051C2.89506 6.97175 2.98578 6.93312 3.08037 6.93312H7.05827C7.15286 6.93312 7.24358 6.97175 7.31046 7.04051C7.37735 7.10927 7.41492 7.20253 7.41492 7.29977C7.41492 7.39701 7.37735 7.49027 7.31046 7.55903C7.24358 7.62779 7.15286 7.66642 7.05827 7.66642Z" fill="white"/>
<path d="M14.2451 18.97C14.1505 18.97 14.0598 18.9314 13.9929 18.8626C13.926 18.7938 13.8884 18.7006 13.8884 18.6033V18.53C13.8884 18.4328 13.926 18.3395 13.9929 18.2708C14.0598 18.202 14.1505 18.1634 14.2451 18.1634C14.3397 18.1634 14.4304 18.202 14.4973 18.2708C14.5642 18.3395 14.6018 18.4328 14.6018 18.53V18.6033C14.6018 18.7006 14.5642 18.7938 14.4973 18.8626C14.4304 18.9314 14.3397 18.97 14.2451 18.97Z" fill="white"/>
<path d="M20.8886 12.3699H20.8172C20.7226 12.3699 20.6319 12.3313 20.565 12.2626C20.4981 12.1938 20.4606 12.1005 20.4606 12.0033C20.4606 11.9061 20.4981 11.8128 20.565 11.744C20.6319 11.6753 20.7226 11.6366 20.8172 11.6366H20.8886C20.9831 11.6366 21.0739 11.6753 21.1407 11.744C21.2076 11.8128 21.2452 11.9061 21.2452 12.0033C21.2452 12.1005 21.2076 12.1938 21.1407 12.2626C21.0739 12.3313 20.9831 12.3699 20.8886 12.3699Z" fill="white"/>
<path d="M14.2451 20.9999C13.0688 21.0042 11.9039 20.7626 10.8212 20.2899C9.73845 19.8172 8.76046 19.1232 7.94661 18.2501C7.89234 18.1784 7.86591 18.0885 7.87244 17.9979C7.87898 17.9073 7.91801 17.8224 7.98197 17.7596C8.04594 17.6969 8.13027 17.6609 8.21863 17.6585C8.30699 17.656 8.39307 17.6874 8.46019 17.7466C9.20778 18.548 10.1062 19.1847 11.1007 19.6179C12.0952 20.0512 13.165 20.2719 14.2451 20.2667C15.678 20.2662 17.0847 19.8721 18.3196 19.1252C19.5545 18.3782 20.5728 17.3055 21.269 16.0181C21.9653 14.7307 22.3141 13.2754 22.2795 11.8029C22.2449 10.3303 21.8281 8.89404 21.0722 7.6427C20.3164 6.39136 19.2489 5.37045 17.9803 4.68564C16.7118 4.00083 15.2882 3.67701 13.857 3.74771C12.4258 3.81841 11.039 4.28105 9.8402 5.08774C8.64134 5.89444 7.67401 7.01587 7.03832 8.33594C6.99607 8.42314 6.92186 8.4895 6.83201 8.52045C6.74216 8.55139 6.64403 8.54437 6.55922 8.50093C6.4744 8.4575 6.40984 8.38121 6.37974 8.28884C6.34964 8.19647 6.35647 8.0956 6.39872 8.00841C7.09085 6.57053 8.14426 5.34898 9.4499 4.47023C10.7555 3.59148 12.2659 3.08747 13.8247 3.01039C15.3835 2.93332 16.9339 3.28597 18.3156 4.03185C19.6972 4.77772 20.8598 5.8897 21.683 7.25265C22.5062 8.6156 22.96 10.18 22.9975 11.7838C23.035 13.3876 22.6547 14.9726 21.8962 16.3746C21.1376 17.7766 20.0283 18.9447 18.6831 19.7579C17.3379 20.5712 15.8057 21 14.2451 20.9999Z" fill="white"/>
<path d="M4.67505 16.0062H4.02594C3.93135 16.0062 3.84063 15.9676 3.77374 15.8988C3.70686 15.83 3.66928 15.7368 3.66928 15.6395C3.66928 15.5423 3.70686 15.449 3.77374 15.3803C3.84063 15.3115 3.93135 15.2729 4.02594 15.2729H4.67505C4.76964 15.2729 4.86036 15.3115 4.92724 15.3803C4.99413 15.449 5.0317 15.5423 5.0317 15.6395C5.0317 15.7368 4.99413 15.83 4.92724 15.8988C4.86036 15.9676 4.76964 16.0062 4.67505 16.0062Z" fill="white"/>
<path d="M16.8439 14.5372C16.7622 14.5376 16.683 14.5081 16.6204 14.4541L14.0192 12.2884C13.9783 12.2535 13.9454 12.2098 13.9228 12.1604C13.9002 12.111 13.8884 12.057 13.8884 12.0024V6.01383C13.8884 5.91659 13.926 5.82333 13.9929 5.75457C14.0598 5.68581 14.1505 5.64718 14.2451 5.64718C14.3397 5.64718 14.4304 5.68581 14.4973 5.75457C14.5642 5.82333 14.6018 5.91659 14.6018 6.01383V11.8289L17.0698 13.8845C17.1285 13.9328 17.1709 13.9989 17.1909 14.0734C17.2108 14.148 17.2074 14.2271 17.181 14.2994C17.1546 14.3718 17.1067 14.4338 17.044 14.4765C16.9813 14.5192 16.9072 14.5404 16.832 14.5372H16.8439Z" stroke="white" stroke-width="0.5"/>
<path d="M10.6644 16.0062H6.68655C6.59196 16.0062 6.50125 15.9676 6.43436 15.8988C6.36747 15.83 6.3299 15.7368 6.3299 15.6395C6.3299 15.5423 6.36747 15.449 6.43436 15.3803C6.50125 15.3115 6.59196 15.2729 6.68655 15.2729H10.6644C10.759 15.2729 10.8498 15.3115 10.9166 15.3803C10.9835 15.449 11.0211 15.5423 11.0211 15.6395C11.0211 15.7368 10.9835 15.83 10.9166 15.8988C10.8498 15.9676 10.759 16.0062 10.6644 16.0062Z" stroke="white" stroke-width="0.5"/>
<path d="M9.04989 12.0715H2.35666C2.26206 12.0715 2.17135 12.0328 2.10446 11.9641C2.03758 11.8953 2 11.8021 2 11.7048C2 11.6076 2.03758 11.5143 2.10446 11.4456C2.17135 11.3768 2.26206 11.3382 2.35666 11.3382H9.04989C9.14448 11.3382 9.2352 11.3768 9.30208 11.4456C9.36897 11.5143 9.40654 11.6076 9.40654 11.7048C9.40654 11.8021 9.36897 11.8953 9.30208 11.9641C9.2352 12.0328 9.14448 12.0715 9.04989 12.0715Z" stroke="white" stroke-width="0.5"/>
<path d="M7.05827 7.66642H3.08037C2.98578 7.66642 2.89506 7.62779 2.82818 7.55903C2.76129 7.49027 2.72372 7.39701 2.72372 7.29977C2.72372 7.20253 2.76129 7.10927 2.82818 7.04051C2.89506 6.97175 2.98578 6.93312 3.08037 6.93312H7.05827C7.15286 6.93312 7.24358 6.97175 7.31046 7.04051C7.37735 7.10927 7.41492 7.20253 7.41492 7.29977C7.41492 7.39701 7.37735 7.49027 7.31046 7.55903C7.24358 7.62779 7.15286 7.66642 7.05827 7.66642Z" stroke="white" stroke-width="0.5"/>
<path d="M14.2451 18.97C14.1505 18.97 14.0598 18.9314 13.9929 18.8626C13.926 18.7938 13.8884 18.7006 13.8884 18.6033V18.53C13.8884 18.4328 13.926 18.3395 13.9929 18.2708C14.0598 18.202 14.1505 18.1634 14.2451 18.1634C14.3397 18.1634 14.4304 18.202 14.4973 18.2708C14.5642 18.3395 14.6018 18.4328 14.6018 18.53V18.6033C14.6018 18.7006 14.5642 18.7938 14.4973 18.8626C14.4304 18.9314 14.3397 18.97 14.2451 18.97Z" stroke="white" stroke-width="0.5"/>
<path d="M20.8886 12.3699H20.8172C20.7226 12.3699 20.6319 12.3313 20.565 12.2626C20.4981 12.1938 20.4606 12.1005 20.4606 12.0033C20.4606 11.9061 20.4981 11.8128 20.565 11.744C20.6319 11.6753 20.7226 11.6366 20.8172 11.6366H20.8886C20.9831 11.6366 21.0739 11.6753 21.1407 11.744C21.2076 11.8128 21.2452 11.9061 21.2452 12.0033C21.2452 12.1005 21.2076 12.1938 21.1407 12.2626C21.0739 12.3313 20.9831 12.3699 20.8886 12.3699Z" stroke="white" stroke-width="0.5"/>
<path d="M14.2451 20.9999C13.0688 21.0042 11.9039 20.7626 10.8212 20.2899C9.73845 19.8172 8.76046 19.1232 7.94661 18.2501C7.89234 18.1784 7.86591 18.0885 7.87244 17.9979C7.87898 17.9073 7.91801 17.8224 7.98197 17.7596C8.04594 17.6969 8.13027 17.6609 8.21863 17.6585C8.30699 17.656 8.39307 17.6874 8.46019 17.7466C9.20778 18.548 10.1062 19.1847 11.1007 19.6179C12.0952 20.0512 13.165 20.2719 14.2451 20.2667C15.678 20.2662 17.0847 19.8721 18.3196 19.1252C19.5545 18.3782 20.5728 17.3055 21.269 16.0181C21.9653 14.7307 22.3141 13.2754 22.2795 11.8029C22.2449 10.3303 21.8281 8.89404 21.0722 7.6427C20.3164 6.39136 19.2489 5.37045 17.9803 4.68564C16.7118 4.00083 15.2882 3.67701 13.857 3.74771C12.4258 3.81841 11.039 4.28105 9.8402 5.08774C8.64134 5.89444 7.67401 7.01587 7.03832 8.33594C6.99607 8.42314 6.92186 8.4895 6.83201 8.52045C6.74216 8.55139 6.64403 8.54437 6.55922 8.50093C6.4744 8.4575 6.40984 8.38121 6.37974 8.28884C6.34964 8.19647 6.35647 8.0956 6.39872 8.00841C7.09085 6.57053 8.14426 5.34898 9.4499 4.47023C10.7555 3.59148 12.2659 3.08747 13.8247 3.01039C15.3835 2.93332 16.9339 3.28597 18.3156 4.03185C19.6972 4.77772 20.8598 5.8897 21.683 7.25265C22.5062 8.6156 22.96 10.18 22.9975 11.7838C23.035 13.3876 22.6547 14.9726 21.8962 16.3746C21.1376 17.7766 20.0283 18.9447 18.6831 19.7579C17.3379 20.5712 15.8057 21 14.2451 20.9999Z" stroke="white" stroke-width="0.5"/>
<path d="M4.67505 16.0062H4.02594C3.93135 16.0062 3.84063 15.9676 3.77374 15.8988C3.70686 15.83 3.66928 15.7368 3.66928 15.6395C3.66928 15.5423 3.70686 15.449 3.77374 15.3803C3.84063 15.3115 3.93135 15.2729 4.02594 15.2729H4.67505C4.76964 15.2729 4.86036 15.3115 4.92724 15.3803C4.99413 15.449 5.0317 15.5423 5.0317 15.6395C5.0317 15.7368 4.99413 15.83 4.92724 15.8988C4.86036 15.9676 4.76964 16.0062 4.67505 16.0062Z" stroke="white" stroke-width="0.5"/>
</svg>
