<svg width="24" height="24" viewBox="0 0 24 24" fill="none" xmlns="http://www.w3.org/2000/svg">
<path d="M9.00001 20.2519H4.5C4.30109 20.2519 4.11033 20.1729 3.96967 20.0322C3.82902 19.8915 3.75 19.7008 3.75 19.5019V15.3112C3.74966 15.2139 3.76853 15.1174 3.80553 15.0273C3.84253 14.9372 3.89694 14.8553 3.96563 14.7862L15.2156 3.53625C15.2854 3.46538 15.3686 3.40911 15.4603 3.37069C15.5521 3.33228 15.6505 3.3125 15.75 3.3125C15.8495 3.3125 15.9479 3.33228 16.0397 3.37069C16.1314 3.40911 16.2146 3.46538 16.2844 3.53625L20.4656 7.7175C20.5365 7.78728 20.5928 7.87047 20.6312 7.96221C20.6696 8.05395 20.6894 8.15241 20.6894 8.25187C20.6894 8.35133 20.6696 8.44979 20.6312 8.54153C20.5928 8.63327 20.5365 8.71646 20.4656 8.78625L9.00001 20.2519Z" stroke="#141416" stroke-linecap="round" stroke-linejoin="round"/>
<path d="M20.25 20.25H9" stroke="#141416" stroke-linecap="round" stroke-linejoin="round"/>
<path d="M12.75 6L18 11.25" stroke="#141416" stroke-linecap="round" stroke-linejoin="round"/>
</svg>
