<svg width="57" height="56" viewBox="0 0 57 56" fill="none" xmlns="http://www.w3.org/2000/svg">
<g clip-path="url(#clip0_1778_191056)">
<path d="M19.3986 25.6304H18.9232V21.7753C18.9232 21.3184 18.5529 20.948 18.0958 20.948H18.0248V13.0607C18.0248 12.7474 17.8479 12.4609 17.5674 12.3207L11.165 9.11861C10.9086 8.99042 10.604 9.00399 10.36 9.15479C10.116 9.30547 9.96755 9.57177 9.96755 9.85858V20.948H9.89651C9.43949 20.948 9.06917 21.3184 9.06917 21.7753V25.6304H8.59296C8.13594 25.6304 7.76562 26.0009 7.76562 26.4578V48.1747C7.76562 48.6316 8.13594 49.002 8.59296 49.002H19.3984C19.8554 49.002 20.2257 48.6316 20.2257 48.1747V26.4578C20.2259 26.0009 19.8556 25.6304 19.3986 25.6304ZM11.6224 11.1974L16.3702 13.572V20.948H11.6224V11.1974ZM10.7242 22.6026H17.2686V25.6304H10.7242V22.6026ZM18.5713 47.3473H9.42052V27.2851H18.5713V47.3473Z" fill="#23262F"/>
<path d="M48.4145 39.168H21.5422C21.0852 39.168 20.7148 39.5384 20.7148 39.9953C20.7148 40.4522 21.0852 40.8226 21.5422 40.8226H47.0981L46.9089 41.2159C45.8697 43.3754 43.6497 44.7708 41.2532 44.7708H21.5422C21.0852 44.7708 20.7148 45.1412 20.7148 45.5981C20.7148 46.055 21.0852 46.4255 21.5422 46.4255H41.2532C44.2815 46.4255 47.0869 44.6622 48.3999 41.9334L49.1599 40.354C49.2834 40.0977 49.2664 39.7959 49.1149 39.5551C48.9635 39.3142 48.6989 39.168 48.4145 39.168Z" fill="#23262F"/>
<path d="M19.6316 11.6851C22.7165 8.82916 26.7322 7.25623 30.9394 7.25623C40.1188 7.25623 47.5869 14.7243 47.5869 23.9038C47.5869 28.8526 45.4062 33.5125 41.6041 36.6885C41.2533 36.9815 41.2065 37.5032 41.4995 37.8538C41.6631 38.0497 41.8981 38.1508 42.1349 38.1508C42.3219 38.1508 42.5101 38.0877 42.6648 37.9584C46.8446 34.4672 49.2417 29.3444 49.2417 23.9036C49.2416 13.8119 41.0312 5.60156 30.9394 5.60156C26.3142 5.60156 21.8992 7.33091 18.5074 10.471C18.1722 10.7815 18.152 11.3049 18.4624 11.6402C18.7727 11.9753 19.2962 11.9955 19.6316 11.6851Z" fill="#23262F"/>
<path d="M30.9386 10.6976C38.2209 10.6976 44.1455 16.6222 44.1455 23.9046C44.1455 31.1869 38.2209 37.1115 30.9386 37.1115C27.6647 37.1115 24.5243 35.9049 22.0957 33.7142C21.7566 33.4082 21.2334 33.435 20.9272 33.7743C20.6212 34.1135 20.6481 34.6367 20.9874 34.9427C23.7205 37.4083 27.2545 38.7661 30.9386 38.7661C39.1333 38.7661 45.8002 32.0992 45.8002 23.9046C45.8002 15.7099 39.1333 9.04297 30.9386 9.04297C26.2322 9.04297 21.7548 11.3088 18.9619 15.104C18.6909 15.472 18.7698 15.9899 19.1378 16.2607C19.5058 16.5315 20.0235 16.4528 20.2945 16.0848C22.777 12.7116 26.7561 10.6976 30.9386 10.6976Z" fill="#23262F"/>
<path d="M40.0396 17.3869L24.9415 32.4849C24.6184 32.808 24.6184 33.3319 24.9415 33.6549C25.1032 33.8164 25.3149 33.8973 25.5266 33.8973C25.7383 33.8973 25.9501 33.8165 26.1117 33.6549L41.2097 18.5568C41.5328 18.2337 41.5328 17.7098 41.2097 17.3869C40.8865 17.0638 40.3627 17.0638 40.0396 17.3869Z" fill="#23262F"/>
<path d="M29.5392 32.5857C29.2161 32.9088 29.2161 33.4327 29.5392 33.7557C29.7008 33.9172 29.9126 33.998 30.1243 33.998C30.336 33.998 30.5478 33.9173 30.7094 33.7557L42.045 22.4201C42.3681 22.097 42.3681 21.5731 42.045 21.2501C41.7218 20.927 41.198 20.927 40.8749 21.2501L29.5392 32.5857Z" fill="#23262F"/>
<line x1="16.5187" y1="29.782" x2="10.9747" y2="29.782" stroke="#23262F" stroke-width="1.4" stroke-linecap="round"/>
</g>
<defs>
<clipPath id="clip0_1778_191056">
<rect width="44.8" height="44.8" fill="white" transform="translate(6.10156 5.60156)"/>
</clipPath>
</defs>
</svg>
