<svg width="64" height="64" viewBox="0 0 64 64" fill="none" xmlns="http://www.w3.org/2000/svg">
<g clip-path="url(#clip0_3011_33753)">
<path d="M58.1179 6.89258H10.4316C9.60865 6.89258 8.94141 7.55982 8.94141 8.38277V53.0887C8.94141 53.9116 9.60865 54.5789 10.4316 54.5789H58.1179C58.9408 54.5789 59.6081 53.9116 59.6081 53.0887V8.38277C59.6081 7.55982 58.9408 6.89258 58.1179 6.89258Z" fill="#C1C8D1"/>
<path d="M14.9022 53.0887V8.38277C14.9022 7.55982 15.5694 6.89258 16.3924 6.89258H10.4316C9.60865 6.89258 8.94141 7.55982 8.94141 8.38277V53.0887C8.94141 53.9116 9.60865 54.5789 10.4316 54.5789H16.3924C15.5694 54.5789 14.9022 53.9116 14.9022 53.0887Z" fill="#758190"/>
<path d="M40.2341 6.89258H28.3125V20.2629C28.3125 21.2772 29.2912 22.0463 30.2742 21.7181L34.2733 20.3851L38.2724 21.7181C39.2569 22.0463 40.2341 21.2765 40.2341 20.2629V6.89258Z" fill="#F76854"/>
<path d="M37.2873 26.3525H17.9259C17.0349 26.3525 16.3125 27.0081 16.3125 27.8166V33.6728C16.3125 34.4813 17.0349 35.1369 17.9259 35.1369H37.2873C38.1783 35.1369 38.9007 34.4813 38.9007 33.6728V27.8166C38.9007 27.0081 38.1783 26.3525 37.2873 26.3525Z" fill="#D2D7DD"/>
<path d="M58.1177 51.5984C55.6387 51.5984 52.1286 53.6605 51.0182 54.354C50.7817 54.5017 50.5096 54.5788 50.2309 54.5788H43.7382C43.3999 54.5788 43.0717 54.4638 42.8076 54.2521L35.7648 48.618H44.706C45.5289 48.618 46.1962 47.9508 46.1962 47.1278V45.6376C46.1962 43.9917 44.8617 42.6572 43.2158 42.6572H30.421C30.0259 42.6572 29.6468 42.8144 29.3674 43.0938L24.2361 46.8411C23.9807 47.0274 23.6729 47.1278 23.3572 47.1278H2.98047V59.0494H23.7202C23.8017 59.0494 23.884 59.0559 23.9647 59.0698L41.3945 61.9745C41.6121 62.0109 41.8362 61.9985 42.0486 61.9374L52.0238 59.0872C52.1126 59.0625 52.1984 59.029 52.2806 58.9875L60.0627 55.0969C60.786 54.7352 61.0967 53.8584 60.7459 53.1301C60.3799 52.3712 59.6356 51.5984 58.1177 51.5984Z" fill="#FFE9D6"/>
<path d="M44.7068 45.6726H35.7656V48.6181H44.7068C45.5298 48.6181 46.197 47.9508 46.197 47.1279V45.6377C46.197 45.3401 46.1519 45.0527 46.0704 44.7812C45.8397 45.3059 45.3166 45.6726 44.7068 45.6726Z" fill="#FFD3AE"/>
<path d="M60.0016 52.1816L52.2806 56.0417C52.1984 56.0825 52.1126 56.1167 52.0238 56.1414L42.0486 58.9916C41.8362 59.0527 41.6121 59.0651 41.3945 59.0287L23.9647 56.124C23.884 56.1101 23.8017 56.1036 23.7202 56.1036H2.98047V59.0491H23.7202C23.8017 59.0491 23.884 59.0556 23.9647 59.0694L41.3945 61.9741C41.6121 62.0105 41.8362 61.9982 42.0486 61.937L52.0238 59.0869C52.1126 59.0622 52.1984 59.0287 52.2806 58.9872L60.0627 55.0965C60.786 54.7349 61.0967 53.8581 60.7459 53.1297C60.5837 52.7929 60.3465 52.4545 60.0016 52.1816Z" fill="#FFD3AE"/>
<path d="M17.8824 44.1475H0V62.0298H17.8824C18.7053 62.0298 19.3725 61.3626 19.3725 60.5396V45.6377C19.3725 44.8147 18.7053 44.1475 17.8824 44.1475Z" fill="#505050"/>
<path d="M17.8824 59.0488H0V62.0292H17.8824C18.7053 62.0292 19.3725 61.3619 19.3725 60.539V57.5586C19.3725 58.3815 18.7053 59.0488 17.8824 59.0488Z" fill="#343434"/>
</g>
<defs>
<clipPath id="clip0_3011_33753">
<rect width="64" height="64" fill="white"/>
</clipPath>
</defs>
</svg>
