<svg width="24" height="24" viewBox="0 0 24 24" fill="none" xmlns="http://www.w3.org/2000/svg">
<rect width="24" height="24" rx="12" fill="#FF0000"/>
<path d="M18.6752 8.6991C18.5185 8.11001 18.0549 7.64529 17.4652 7.48601C16.3988 7.2002 12.1203 7.2002 12.1203 7.2002C12.1203 7.2002 7.84391 7.2002 6.77537 7.48601C6.18778 7.6431 5.72423 8.10783 5.56536 8.6991C5.28027 9.7682 5.28027 12.0002 5.28027 12.0002C5.28027 12.0002 5.28027 14.2322 5.56536 15.3013C5.72206 15.8904 6.1856 16.3551 6.77537 16.5144C7.84391 16.8002 12.1203 16.8002 12.1203 16.8002C12.1203 16.8002 16.3988 16.8002 17.4652 16.5144C18.0528 16.3573 18.5163 15.8926 18.6752 15.3013C18.9603 14.2322 18.9603 12.0002 18.9603 12.0002C18.9603 12.0002 18.9603 9.7682 18.6752 8.6991Z" fill="white"/>
<path d="M10.7536 14.0577L14.3074 12.0002L10.7536 9.94274V14.0577Z" fill="#FF0000"/>
</svg>
