<svg width="48" height="48" viewBox="0 0 48 48" fill="none" xmlns="http://www.w3.org/2000/svg">
<path d="M0 13.1146C0 10.2173 2.52827 7.86865 5.64706 7.86865H42.3529C45.4717 7.86865 48 10.2173 48 13.1146V34.0982C48 36.9954 45.4717 39.3441 42.3529 39.3441H5.64706C2.52827 39.3441 0 36.9954 0 34.0982V13.1146Z" fill="white"/>
<path d="M16.2769 25.3039H18.3904C18.348 26.024 18.1571 26.6633 17.8178 27.2218C17.4833 27.7802 17.0144 28.2162 16.4112 28.5297C15.8127 28.8432 15.0917 29 14.2482 29C13.5885 29 12.9971 28.8824 12.474 28.6473C11.9509 28.4073 11.5032 28.0644 11.131 27.6186C10.7634 27.1728 10.483 26.6339 10.2898 26.002C10.0966 25.3701 10 24.6622 10 23.8784V23.1363C10 22.3525 10.099 21.6446 10.2969 21.0127C10.4995 20.3759 10.787 19.8346 11.1592 19.3888C11.5362 18.943 11.9863 18.6001 12.5093 18.3601C13.0324 18.12 13.6167 18 14.2623 18C15.12 18 15.8433 18.1617 16.4324 18.485C17.0262 18.8083 17.4856 19.2541 17.8108 19.8223C18.1406 20.3906 18.3386 21.0372 18.4045 21.7622H16.284C16.2604 21.3311 16.1779 20.9662 16.0366 20.6673C15.8952 20.3636 15.6808 20.1358 15.3933 19.984C15.1106 19.8272 14.7336 19.7488 14.2623 19.7488C13.9089 19.7488 13.6003 19.8174 13.3364 19.9546C13.0725 20.0917 12.851 20.2999 12.6719 20.5792C12.4928 20.8584 12.3585 21.2111 12.269 21.6373C12.1842 22.0586 12.1418 22.5533 12.1418 23.1216V23.8784C12.1418 24.432 12.1818 24.9194 12.2619 25.3407C12.3421 25.7571 12.4646 26.1098 12.6295 26.3988C12.7992 26.6829 13.0159 26.8985 13.2798 27.0454C13.5484 27.1875 13.8712 27.2585 14.2482 27.2585C14.6912 27.2585 15.0564 27.185 15.3438 27.0381C15.6313 26.8911 15.8504 26.6731 16.0012 26.3841C16.1567 26.0951 16.2486 25.735 16.2769 25.3039Z" fill="#777E90"/>
<path d="M28.4179 23.2538V23.7609C28.4179 24.574 28.3118 25.3039 28.0998 25.9506C27.8877 26.5972 27.5885 27.1483 27.2021 27.6039C26.8156 28.0546 26.3538 28.3999 25.8166 28.6399C25.2841 28.88 24.6927 29 24.0424 29C23.3968 29 22.8054 28.88 22.2682 28.6399C21.7357 28.3999 21.2739 28.0546 20.8828 27.6039C20.4916 27.1483 20.1877 26.5972 19.9709 25.9506C19.7589 25.3039 19.6528 24.574 19.6528 23.7609V23.2538C19.6528 22.4358 19.7589 21.7059 19.9709 21.0641C20.183 20.4175 20.4822 19.8664 20.8686 19.4108C21.2598 18.9552 21.7216 18.6074 22.2541 18.3674C22.7913 18.1274 23.3827 18.0073 24.0283 18.0073C24.6786 18.0073 25.27 18.1274 25.8025 18.3674C26.3397 18.6074 26.8015 18.9552 27.1879 19.4108C27.5791 19.8664 27.8806 20.4175 28.0927 21.0641C28.3095 21.7059 28.4179 22.4358 28.4179 23.2538ZM26.2761 23.7609V23.2391C26.2761 22.6709 26.2266 22.1712 26.1276 21.7401C26.0287 21.3091 25.8826 20.9466 25.6894 20.6526C25.4962 20.3587 25.2606 20.1383 24.9825 19.9913C24.7045 19.8395 24.3864 19.7635 24.0283 19.7635C23.6701 19.7635 23.352 19.8395 23.074 19.9913C22.8007 20.1383 22.5674 20.3587 22.3742 20.6526C22.1857 20.9466 22.042 21.3091 21.943 21.7401C21.8441 22.1712 21.7946 22.6709 21.7946 23.2391V23.7609C21.7946 24.3242 21.8441 24.8239 21.943 25.2599C22.042 25.6909 22.1881 26.0559 22.3813 26.3547C22.5745 26.6486 22.8101 26.8715 23.0882 27.0234C23.3662 27.1752 23.6843 27.2512 24.0424 27.2512C24.4006 27.2512 24.7186 27.1752 24.9967 27.0234C25.2747 26.8715 25.508 26.6486 25.6965 26.3547C25.885 26.0559 26.0287 25.6909 26.1276 25.2599C26.2266 24.8239 26.2761 24.3242 26.2761 23.7609Z" fill="#777E90"/>
<path d="M33.2853 28.853H31.0445L31.0587 27.1336H33.2853C33.8413 27.1336 34.3102 27.0038 34.6919 26.7442C35.0736 26.4796 35.3611 26.0951 35.5543 25.5905C35.7522 25.0859 35.8512 24.4761 35.8512 23.7609V23.2391C35.8512 22.6905 35.7946 22.208 35.6815 21.7916C35.5731 21.3752 35.4105 21.0249 35.1938 20.7408C34.977 20.4567 34.7108 20.2436 34.395 20.1015C34.0793 19.9546 33.7164 19.8811 33.3065 19.8811H31.0021V18.1543H33.3065C33.9945 18.1543 34.6236 18.2768 35.1938 18.5217C35.7687 18.7617 36.2658 19.1071 36.6852 19.5578C37.1046 20.0085 37.4274 20.5473 37.6536 21.1743C37.8845 21.7965 38 22.4896 38 23.2538V23.7609C38 24.5202 37.8845 25.2133 37.6536 25.8403C37.4274 26.4674 37.1046 27.0062 36.6852 27.4569C36.2706 27.9027 35.7734 28.2481 35.1938 28.493C34.6189 28.733 33.9827 28.853 33.2853 28.853ZM32.2462 18.1543V28.853H30.1256V18.1543H32.2462Z" fill="#777E90"/>
<path fill-rule="evenodd" clip-rule="evenodd" d="M42.3529 9.18013H5.64706C3.30797 9.18013 1.41176 10.9416 1.41176 13.1146V34.0982C1.41176 36.2711 3.30797 38.0326 5.64706 38.0326H42.3529C44.692 38.0326 46.5882 36.2711 46.5882 34.0982V13.1146C46.5882 10.9416 44.692 9.18013 42.3529 9.18013ZM5.64706 7.86865C2.52827 7.86865 0 10.2173 0 13.1146V34.0982C0 36.9954 2.52827 39.3441 5.64706 39.3441H42.3529C45.4717 39.3441 48 36.9954 48 34.0982V13.1146C48 10.2173 45.4717 7.86865 42.3529 7.86865H5.64706Z" fill="#F2F4F7"/>
</svg>
