<svg width="24" height="24" viewBox="0 0 24 24" fill="none" xmlns="http://www.w3.org/2000/svg">
<g clip-path="url(#clip0_2846_645314)">
<rect width="24" height="24" rx="12" fill="white"/>
<path d="M0 0H100V100H0V0Z" fill="#0C0C0C"/>
<path fill-rule="evenodd" clip-rule="evenodd" d="M14.4082 10.4535C15.1442 10.9768 16.0256 11.2563 16.9286 11.2529V9.46329C16.751 9.46378 16.574 9.44477 16.4006 9.40662V10.8323C15.4956 10.8339 14.6129 10.5512 13.8773 10.024V13.7047C13.875 14.3086 13.7094 14.9007 13.3979 15.4182C13.0865 15.9357 12.6408 16.3592 12.1081 16.6439C11.5754 16.9285 10.9757 17.0638 10.3724 17.0352C9.76909 17.0066 9.18478 16.8153 8.68141 16.4816C9.14702 16.9527 9.74195 17.275 10.3909 17.4078C11.0398 17.5405 11.7135 17.4777 12.3267 17.2273C12.94 16.9769 13.4651 16.5502 13.8356 16.0012C14.2061 15.4521 14.4054 14.8055 14.4082 14.1431V10.4535ZM15.0614 8.62813C14.6871 8.22246 14.4575 7.70443 14.4082 7.15468V6.92203H13.9071C13.969 7.27148 14.1038 7.60398 14.3027 7.89791C14.5016 8.19185 14.7601 8.44065 15.0614 8.62813ZM9.84167 15.0648C9.668 14.8377 9.56156 14.5664 9.53449 14.2817C9.50741 13.9971 9.56078 13.7106 9.68851 13.4548C9.81625 13.199 10.0132 12.9842 10.257 12.8349C10.5008 12.6855 10.7817 12.6076 11.0676 12.61C11.2254 12.61 11.3823 12.6341 11.5329 12.6816V10.8323C11.3569 10.809 11.1794 10.7991 11.0019 10.8025V12.2402C10.6354 12.1243 10.2387 12.1507 9.89069 12.314C9.54269 12.4773 9.26892 12.7656 9.12382 13.1216C8.97872 13.4776 8.97293 13.8751 9.1076 14.2352C9.24227 14.5952 9.50753 14.8914 9.85062 15.0648H9.84167Z" fill="#EE1D52"/>
<path fill-rule="evenodd" clip-rule="evenodd" d="M13.877 10.0121C14.6127 10.5393 15.4953 10.822 16.4004 10.8204V9.39469C15.8847 9.28566 15.4163 9.01754 15.0611 8.62813C14.7598 8.44065 14.5013 8.19185 14.3024 7.89791C14.1036 7.60398 13.9688 7.27148 13.9068 6.92203H12.5885V14.1431C12.5873 14.4628 12.486 14.774 12.2988 15.0331C12.1117 15.2922 11.8481 15.4862 11.5451 15.5879C11.242 15.6896 10.9148 15.6938 10.6092 15.6C10.3037 15.5062 10.0352 15.319 9.84142 15.0648C9.53436 14.9099 9.28845 14.656 9.14337 14.3442C8.99829 14.0323 8.9625 13.6807 9.04177 13.346C9.12105 13.0114 9.31076 12.7132 9.58031 12.4995C9.84985 12.2859 10.1835 12.1693 10.5274 12.1686C10.6852 12.1691 10.8421 12.1932 10.9927 12.2402V10.8025C10.3418 10.8181 9.70957 11.0235 9.17369 11.3934C8.6378 11.7632 8.22157 12.2815 7.97609 12.8846C7.73061 13.4877 7.66657 14.1493 7.79182 14.7883C7.91706 15.4273 8.22616 16.0158 8.68115 16.4816C9.18463 16.8177 9.76986 17.011 10.3745 17.0408C10.9791 17.0706 11.5806 16.9359 12.1147 16.6509C12.6488 16.366 13.0956 15.9415 13.4075 15.4226C13.7195 14.9038 13.8848 14.3101 13.886 13.7047L13.877 10.0121Z" fill="#E3E3E3"/>
<path fill-rule="evenodd" clip-rule="evenodd" d="M16.4004 9.39469L16.4005 9.00979C15.927 9.01181 15.4627 8.87954 15.0614 8.62813C15.4157 9.01866 15.8842 9.287 16.4004 9.39469ZM13.9071 6.92203C13.9071 6.85343 13.8861 6.78172 13.8772 6.71312V6.48047H12.0577V13.7046C12.0561 14.1091 11.8941 14.4964 11.6073 14.7816C11.3204 15.0668 10.9321 15.2265 10.5276 15.2257C10.2894 15.2269 10.0544 15.1719 9.84167 15.0648C10.0354 15.319 10.3037 15.5062 10.6092 15.6C10.9148 15.6938 11.242 15.6896 11.5451 15.5879C11.8481 15.4862 12.1117 15.2922 12.2988 15.0331C12.486 14.774 12.5873 14.4628 12.5885 14.1431V6.92203H13.9071ZM10.9929 10.7994V10.3908C10.2442 10.2891 9.48315 10.4439 8.83375 10.8302C8.18434 11.2164 7.68489 11.8111 7.41679 12.5175C7.14869 13.2239 7.12775 14.0003 7.35738 14.7201C7.58701 15.44 8.05377 16.0609 8.68141 16.4816C8.22986 16.0147 7.92397 15.4263 7.80128 14.7885C7.67858 14.1507 7.74431 13.491 7.99044 12.8899C8.23656 12.2888 8.65241 11.7725 9.1872 11.4039C9.72198 11.0353 10.3525 10.8304 11.0019 10.8143L10.9929 10.7994Z" fill="#69C9D0"/>
</g>
<defs>
<clipPath id="clip0_2846_645314">
<rect width="24" height="24" rx="12" fill="white"/>
</clipPath>
</defs>
</svg>
