<svg width="64" height="64" viewBox="0 0 64 64" fill="none" xmlns="http://www.w3.org/2000/svg">
<path fill-rule="evenodd" clip-rule="evenodd" d="M2.36337 28.2312H15.3658C16.1844 28.2312 16.8541 27.5615 16.8541 26.7428V13.7405C16.8541 12.9218 16.1844 12.252 15.3658 12.252H2.36337C1.54475 12.252 0.875 12.9218 0.875 13.7405V26.7428C0.875 27.5615 1.54475 28.2312 2.36337 28.2312Z" fill="#FF8881"/>
<path fill-rule="evenodd" clip-rule="evenodd" d="M14.0195 28.2312H15.3664C16.185 28.2312 16.8548 27.5615 16.8548 26.7428V13.7405C16.8548 12.9218 16.185 12.252 15.3664 12.252H14.0195V28.2312Z" fill="#F76854"/>
<path fill-rule="evenodd" clip-rule="evenodd" d="M11.2404 18.2368V12.252H6.49219V18.2368C6.49219 18.7081 6.81656 19.0923 7.21431 19.0923H10.5186C10.9162 19.0925 11.2404 18.7081 11.2404 18.2368Z" fill="#F7524B"/>
<path fill-rule="evenodd" clip-rule="evenodd" d="M45.4609 28.8633H52.0048L55.1187 43.2594H45.4609V28.8633Z" fill="#D2D7DD"/>
<path fill-rule="evenodd" clip-rule="evenodd" d="M45.4609 28.8633H52.0048L53.2643 34.6863L45.4609 31.7402V28.8633Z" fill="#A8B0BC"/>
<path fill-rule="evenodd" clip-rule="evenodd" d="M9.44141 33.2945H30.1104C31.4905 33.2945 32.6195 32.1655 32.6195 30.7855C32.6195 29.4054 31.4905 28.2764 30.1104 28.2764H11.9507C10.5705 28.2764 9.44141 29.4054 9.44141 30.7855V33.2945Z" fill="#404049"/>
<path fill-rule="evenodd" clip-rule="evenodd" d="M24.6035 50.1914C24.6035 55.4354 20.3524 59.6865 15.1084 59.6865C9.86441 59.6865 5.61328 55.4355 5.61328 50.1914H24.6035Z" fill="#404049"/>
<path fill-rule="evenodd" clip-rule="evenodd" d="M19.8382 50.1914C19.8382 52.8035 17.7207 54.921 15.1085 54.921C12.4964 54.921 10.3789 52.8035 10.3789 50.1914H19.8382Z" fill="#F0F0FC"/>
<path fill-rule="evenodd" clip-rule="evenodd" d="M61.2832 50.1914C61.2832 55.4354 57.0321 59.6865 51.7881 59.6865C46.5441 59.6865 42.293 55.4354 42.293 50.1914H61.2832Z" fill="#404049"/>
<path fill-rule="evenodd" clip-rule="evenodd" d="M56.5178 50.1914C56.5178 52.8035 54.4003 54.921 51.7882 54.921C49.1762 54.921 47.0586 52.8035 47.0586 50.1914H56.5178Z" fill="#F0F0FC"/>
<path fill-rule="evenodd" clip-rule="evenodd" d="M3.76953 50.1907H30.486V32.2471H12.7414C7.80691 32.2471 3.76953 36.2843 3.76953 41.2188V50.1907Z" fill="#D2D7DD"/>
<path fill-rule="evenodd" clip-rule="evenodd" d="M28.2148 43.584H44.0281V50.1914H28.2148V43.584Z" fill="#D2D7DD"/>
<path fill-rule="evenodd" clip-rule="evenodd" d="M53.6056 21.5825L46.6883 22.6325C45.9773 22.7403 45.4609 23.3411 45.4609 24.0602V29.7751L53.6056 31.0113C55.7606 31.3385 57.5553 28.8898 57.5553 26.297C57.5553 23.8228 55.8226 21.2461 53.6056 21.5825Z" fill="#C1C8D1"/>
<path fill-rule="evenodd" clip-rule="evenodd" d="M53.6992 31.0234C55.8131 31.2683 57.557 28.8528 57.557 26.2968C57.557 23.8569 55.872 21.3175 53.6992 21.5702V31.0234Z" fill="#A8B0BC"/>
<path fill-rule="evenodd" clip-rule="evenodd" d="M15.106 38.8545C21.367 38.8545 26.4425 43.93 26.4425 50.191H3.76953C3.76953 43.93 8.84503 38.8545 15.106 38.8545Z" fill="#C1C8D1"/>
<path fill-rule="evenodd" clip-rule="evenodd" d="M18.9062 23.0615L25.035 25.9787L32.6912 22.2456L37.4265 26.02L48.2544 29.2058L49.7971 26.6106C46.2817 25.4368 43.4577 24.2957 39.9285 22.8936L37.271 19.4715C37.271 19.4715 37.3584 16.3197 35.5631 14.6708C33.7679 13.022 33.7568 12.9805 33.7568 12.9805C24.1019 13.3433 20.4178 17.8447 18.9062 23.0615Z" fill="#A8B0BC"/>
<path fill-rule="evenodd" clip-rule="evenodd" d="M48.5578 29.6848C49.6395 29.6848 50.5218 28.8026 50.5218 27.7208C50.5218 26.6391 49.6395 25.7568 48.5578 25.7568C47.476 25.7568 46.5938 26.6391 46.5938 27.7208C46.5938 28.8026 47.476 29.6848 48.5578 29.6848Z" fill="#484A50"/>
<path fill-rule="evenodd" clip-rule="evenodd" d="M19.643 29.538L32.7957 34.0802L32.6741 45.6938H36.9404L37.3164 32.0032C37.352 30.708 36.61 29.5955 35.4286 29.0642L19.3269 21.8213L17.9099 24.9713C17.1307 26.7034 17.8472 28.9182 19.643 29.538Z" fill="#626469"/>
<path fill-rule="evenodd" clip-rule="evenodd" d="M32.6622 45.1143L32.6447 46.5943C32.6301 47.841 33.6954 48.8511 34.9423 48.8309L36.6492 48.803L38.7299 48.7896C39.6252 48.7839 40.3506 48.049 40.3449 47.1539L40.3434 46.9356C40.3374 45.9909 39.6118 45.2109 38.6924 45.1143H36.9143H32.6622Z" fill="#A8B0BC"/>
<path fill-rule="evenodd" clip-rule="evenodd" d="M35.9609 48.8144L36.6524 48.803L38.7332 48.7896C39.6284 48.7839 40.3538 48.049 40.3482 47.1539L40.3467 46.9356C40.3407 45.9909 39.6151 45.2109 38.6957 45.1143H36.9176H35.9611V48.8144H35.9609Z" fill="#8C9BA6"/>
<path fill-rule="evenodd" clip-rule="evenodd" d="M51.7895 38.8545C58.0504 38.8545 63.126 43.93 63.126 50.191H40.4531C40.4531 43.93 45.5286 38.8545 51.7895 38.8545Z" fill="#C1C8D1"/>
<path fill-rule="evenodd" clip-rule="evenodd" d="M15.1072 38.8545C21.3682 38.8545 26.4437 43.93 26.4437 50.191H21.4648C21.3059 44.9539 17.8144 40.5552 13.0391 39.0434C13.7096 38.9196 14.4007 38.8545 15.1072 38.8545Z" fill="#A8B0BC"/>
<path fill-rule="evenodd" clip-rule="evenodd" d="M51.7869 38.8545C58.0479 38.8545 63.1234 43.93 63.1234 50.191H58.1445C57.9856 44.9539 54.4941 40.5552 49.7188 39.0434C50.3894 38.9196 51.0805 38.8545 51.7869 38.8545Z" fill="#A8B0BC"/>
<path fill-rule="evenodd" clip-rule="evenodd" d="M48.5547 25.7568C49.6393 25.7568 50.5186 26.6361 50.5186 27.7207C50.5186 28.8053 49.6393 29.6846 48.5547 29.6846C48.4209 29.6846 48.2903 29.6712 48.1641 29.6457C49.0616 29.4646 49.7373 28.6716 49.7373 27.7207C49.7373 26.7698 49.0616 25.9768 48.1641 25.7957C48.2902 25.7702 48.4209 25.7568 48.5547 25.7568Z" fill="#404049"/>
<path fill-rule="evenodd" clip-rule="evenodd" d="M25.4589 25.7732L34.3034 29.7517C35.4848 30.283 36.2223 31.3955 36.1912 32.6908L35.8921 45.1144H36.9561L37.3162 32.0033C37.3452 30.8093 36.7204 29.7705 35.6971 29.1993C35.6797 29.1897 35.6622 29.18 35.6446 29.1707H35.6444C35.6269 29.1613 35.6092 29.1519 35.5914 29.1428C35.5737 29.1337 35.5557 29.1247 35.5377 29.1158C35.5197 29.1069 35.5016 29.0982 35.4833 29.0895C35.4651 29.0809 35.4467 29.0725 35.4283 29.0642L19.3266 21.8213L18.8828 22.8079L25.4589 25.7732Z" fill="#404049"/>
<path fill-rule="evenodd" clip-rule="evenodd" d="M25.0312 15.0525C26.9976 14.236 29.4307 13.719 32.4464 13.6056C32.9222 15.2802 34.253 16.9731 35.6939 17.9372C35.9882 19.1016 35.9606 20.0966 35.9606 20.0966L38.6181 23.5187C41.3625 24.609 44.1004 25.7091 46.8871 26.6877C47.0984 26.3468 47.4111 26.0753 47.7831 25.9155C45.1395 24.9753 42.5377 23.9293 39.9306 22.8936L37.2731 19.4715C37.2731 19.4715 37.2995 18.5191 37.0251 17.3875C36.8003 16.4605 36.3736 15.4133 35.5652 14.6708C33.77 13.022 33.7589 12.9805 33.7589 12.9805C33.6621 12.9841 33.566 12.9882 33.4705 12.9926C29.8866 13.1601 27.1407 13.9073 25.0312 15.0525Z" fill="#8C9BA6"/>
<path fill-rule="evenodd" clip-rule="evenodd" d="M40.6777 5.79883C43.6737 6.0902 45.8663 8.7552 45.5749 11.7512C45.2836 14.7473 42.6186 16.94 39.6226 16.6486C36.6265 16.3572 34.4338 13.6922 34.7252 10.6961L40.1502 11.2237L40.6777 5.79883Z" fill="#F6DCCD"/>
<path fill-rule="evenodd" clip-rule="evenodd" d="M40.8177 4.34641C43.9876 4.65466 46.4478 7.05879 46.9607 10.0533C47.0392 10.5118 46.9116 10.9397 46.5948 11.2804C46.2781 11.6212 45.8605 11.7794 45.3975 11.7344L41.5862 11.3638C40.7946 11.2868 40.0861 11.8697 40.0091 12.6613L39.6386 16.4718C39.5935 16.935 39.3575 17.3145 38.962 17.5598C38.5665 17.805 38.1216 17.8478 37.6866 17.6823C34.8475 16.6017 32.9631 13.7245 33.2712 10.5552C33.6407 6.75691 37.0195 3.97704 40.8177 4.34641Z" fill="#C1C8D1"/>
<path fill-rule="evenodd" clip-rule="evenodd" d="M40.8164 4.34641C43.9863 4.65466 46.4465 7.05878 46.9594 10.0533C47.0379 10.5118 46.9103 10.9397 46.5935 11.2804C46.3177 11.5772 45.9652 11.7355 45.5728 11.7417C45.5733 11.7098 45.574 11.6779 45.574 11.6459C45.574 7.91791 42.552 4.89591 38.824 4.89591C38.0787 4.89591 37.3618 5.01703 36.6914 5.24003C37.897 4.54241 39.3243 4.20128 40.8164 4.34641Z" fill="#A8B0BC"/>
</svg>
