<svg width="16" height="16" viewBox="0 0 16 16" fill="none" xmlns="http://www.w3.org/2000/svg">
<g clip-path="url(#clip0_3763_12433)">
<path d="M13.9993 5.33294C14.353 5.33294 14.6921 5.47342 14.9422 5.72347C15.1922 5.97351 15.3327 6.31265 15.3327 6.66627V9.33294C15.3327 9.68656 15.1922 10.0257 14.9422 10.2758C14.6921 10.5258 14.353 10.6663 13.9993 10.6663H13.2913C13.1288 11.9551 12.5015 13.1404 11.5272 13.9996C10.5528 14.8588 9.29842 15.3329 7.99935 15.3329V13.9996C9.06021 13.9996 10.0776 13.5782 10.8278 12.828C11.5779 12.0779 11.9993 11.0605 11.9993 9.99961V5.99961C11.9993 4.93874 11.5779 3.92133 10.8278 3.17118C10.0776 2.42104 9.06021 1.99961 7.99935 1.99961C6.93848 1.99961 5.92107 2.42104 5.17092 3.17118C4.42078 3.92133 3.99935 4.93874 3.99935 5.99961V10.6663H1.99935C1.64573 10.6663 1.30659 10.5258 1.05654 10.2758C0.806491 10.0257 0.666016 9.68656 0.666016 9.33294V6.66627C0.666016 6.31265 0.806491 5.97351 1.05654 5.72347C1.30659 5.47342 1.64573 5.33294 1.99935 5.33294H2.70735C2.87004 4.0442 3.4974 2.85912 4.47173 2.00006C5.44606 1.14099 6.70038 0.666992 7.99935 0.666992C9.29831 0.666992 10.5526 1.14099 11.527 2.00006C12.5013 2.85912 13.1287 4.0442 13.2913 5.33294H13.9993ZM5.17268 10.5229L5.87935 9.39227C6.51473 9.7903 7.24959 10.0008 7.99935 9.99961C8.74911 10.0008 9.48397 9.7903 10.1193 9.39227L10.826 10.5229C9.97886 11.0537 8.99904 11.3345 7.99935 11.3329C6.99965 11.3345 6.01984 11.0537 5.17268 10.5229Z" fill="#23262F"/>
</g>
<defs>
<clipPath id="clip0_3763_12433">
<rect width="16" height="16" fill="white"/>
</clipPath>
</defs>
</svg>
