<svg width="32" height="24" viewBox="0 0 32 24" fill="none" xmlns="http://www.w3.org/2000/svg">
<rect x="0.5" y="1.20508" width="31" height="21.5882" rx="3.5" fill="white"/>
<path d="M20.6906 11.956C21.1906 11.9669 21.6934 11.9339 22.1915 11.9731C22.6958 12.0672 22.8174 12.8307 22.3693 13.0808C22.0636 13.2455 21.7004 13.1421 21.3689 13.1712H20.6906V11.956V11.956ZM22.4806 10.5806C22.5917 10.9727 22.2137 11.3248 21.836 11.2708H20.6906C20.6986 10.901 20.6749 10.4996 20.7022 10.1493C21.1611 10.1622 21.6242 10.123 22.0804 10.1699C22.2764 10.2191 22.4404 10.3802 22.4806 10.5806V10.5806ZM25.2372 4.76565C25.2585 5.51449 25.2403 6.30291 25.2464 7.06693C25.245 10.1732 25.2494 13.2794 25.244 16.3858C25.2238 17.5499 24.1921 18.5615 23.0361 18.5847C21.8788 18.5894 20.7215 18.5855 19.5641 18.5867V13.8907C20.8251 13.8842 22.0868 13.9039 23.3472 13.8809C23.932 13.8442 24.5725 13.4583 24.5997 12.8149C24.6685 12.1686 24.0592 11.7216 23.4807 11.651C23.2584 11.6452 23.2649 11.5861 23.4807 11.5604C24.0325 11.4411 24.4658 10.8701 24.3034 10.2982C24.1651 9.69666 23.5003 9.46385 22.9473 9.465C21.8197 9.45734 20.6919 9.46393 19.5644 9.46171C19.5716 8.58502 19.5492 7.70739 19.5765 6.83134C19.6658 5.68821 20.7235 4.7455 21.8633 4.76595C22.9881 4.76578 24.1127 4.76578 25.2372 4.76574V4.76565Z" fill="url(#paint0_linear_1844_276103)"/>
<path d="M6.81905 6.94995C6.84785 5.78765 7.88397 4.78439 9.03857 4.76741C10.1915 4.76385 11.3446 4.76689 12.4975 4.76587C12.4944 8.65468 12.5038 12.5439 12.4928 16.4325C12.4484 17.5807 11.4235 18.5648 10.2815 18.5852C9.12641 18.5893 7.97117 18.5858 6.81602 18.5869V13.7326C7.93805 13.9976 9.11469 14.1105 10.2594 13.9347C10.9436 13.8246 11.6922 13.4886 11.9239 12.7787C12.0943 12.1715 11.9984 11.5324 12.0237 10.9092V9.46192H10.0428C10.0339 10.4191 10.061 11.378 10.0284 12.3341C9.97503 12.9217 9.39307 13.2951 8.83883 13.2752C8.15148 13.2824 6.7894 12.777 6.7894 12.777C6.78598 10.9836 6.80934 8.7376 6.81905 6.95012V6.94995Z" fill="url(#paint1_linear_1844_276103)"/>
<path d="M13.2339 10.0459C13.1296 10.068 13.2129 9.69073 13.1862 9.5476C13.1933 8.64263 13.1714 7.73667 13.1983 6.83234C13.2874 5.68438 14.3532 4.73931 15.4977 4.76618H18.868C18.8648 8.655 18.8742 12.5442 18.8633 16.4328C18.8188 17.581 17.7939 18.5651 16.6518 18.5855C15.4967 18.5898 14.3414 18.5862 13.1862 18.5873V13.2687C13.9752 13.916 15.0475 14.0168 16.0304 14.0185C16.7714 14.0183 17.5081 13.904 18.2277 13.7332V12.7588C17.4167 13.163 16.4634 13.4197 15.5644 13.1875C14.9373 13.0314 14.4821 12.4253 14.4923 11.7782C14.4196 11.1051 14.8141 10.3946 15.4755 10.1945C16.2966 9.93745 17.1916 10.1341 17.9613 10.4683C18.1262 10.5546 18.2936 10.6617 18.2276 10.3861V9.62021C16.9403 9.31394 15.5703 9.20123 14.277 9.53442C13.9027 9.64003 13.538 9.80018 13.2339 10.046V10.0459Z" fill="url(#paint2_linear_1844_276103)"/>
<rect x="0.5" y="1.20508" width="31" height="21.5882" rx="3.5" stroke="#F2F4F7"/>
<defs>
<linearGradient id="paint0_linear_1844_276103" x1="19.5253" y1="11.3807" x2="25.2106" y2="11.3807" gradientUnits="userSpaceOnUse">
<stop stop-color="#58B03A"/>
<stop offset="1" stop-color="#55B330"/>
</linearGradient>
<linearGradient id="paint1_linear_1844_276103" x1="6.69514" y1="11.8087" x2="12.4044" y2="11.8087" gradientUnits="userSpaceOnUse">
<stop stop-color="#0F6EB6"/>
<stop offset="1" stop-color="#006DBA"/>
</linearGradient>
<linearGradient id="paint2_linear_1844_276103" x1="13.1779" y1="11.5151" x2="18.8669" y2="11.5151" gradientUnits="userSpaceOnUse">
<stop stop-color="#DE0D3D"/>
<stop offset="1" stop-color="#E30138"/>
</linearGradient>
</defs>
</svg>
