<svg width="40" height="40" viewBox="0 0 40 40" fill="none" xmlns="http://www.w3.org/2000/svg">
<path d="M35.3125 37.5781H4.6875C2.10344 37.5781 0 35.4759 0 32.8906C0 32.0541 0.224297 31.2301 0.65 30.5091L15.9625 4.72672C16.8025 3.30539 18.3498 2.42188 20 2.42188C21.6502 2.42188 23.1975 3.30539 24.0375 4.72672L39.35 30.508V30.5091C39.7757 31.2302 40 32.0541 40 32.8906C40 35.4759 37.8966 37.5781 35.3125 37.5781Z" fill="url(#paint0_linear_1816_650186)"/>
<path d="M20 27.0312C18.7068 27.0312 17.6562 28.083 17.6562 29.375C17.6562 30.667 18.7068 31.7188 20 31.7188C21.2932 31.7188 22.3438 30.667 22.3438 29.375C22.3438 28.083 21.2932 27.0312 20 27.0312ZM18.8373 22.4891C18.9105 23.075 19.4095 23.5156 20 23.5156C20.5905 23.5156 21.0895 23.075 21.1627 22.4891L22.3346 13.1141C22.3758 12.781 22.2728 12.4446 22.0508 12.1928C21.8287 11.941 21.5084 11.7969 21.1719 11.7969H18.8281C18.4916 11.7969 18.1713 11.9411 17.9492 12.1928C17.7272 12.4445 17.6242 12.781 17.6654 13.1141L18.8373 22.4891Z" fill="url(#paint1_linear_1816_650186)"/>
<defs>
<linearGradient id="paint0_linear_1816_650186" x1="20" y1="37.5781" x2="20" y2="2.42188" gradientUnits="userSpaceOnUse">
<stop stop-color="#FD3A84"/>
<stop offset="1" stop-color="#FFA68D"/>
</linearGradient>
<linearGradient id="paint1_linear_1816_650186" x1="20" y1="31.7188" x2="20" y2="11.7969" gradientUnits="userSpaceOnUse">
<stop stop-color="#FFC2CC"/>
<stop offset="1" stop-color="#FFF2F4"/>
</linearGradient>
</defs>
</svg>
