<svg width="57" height="56" viewBox="0 0 57 56" fill="none" xmlns="http://www.w3.org/2000/svg">
<path d="M12.5082 14.3945C11.6197 14.3944 10.7512 14.6578 10.0124 15.1514C9.27359 15.6449 8.69776 16.3465 8.35769 17.1673C8.01763 17.9881 7.92861 18.8914 8.10189 19.7628C8.27517 20.6342 8.70297 21.4346 9.33119 22.0629C9.95941 22.6912 10.7598 23.1191 11.6312 23.2924C12.5026 23.4658 13.4059 23.3769 14.2267 23.0369C15.0476 22.6969 15.7492 22.1211 16.2428 21.3824C16.7364 20.6437 16.9999 19.7751 16.9999 18.8867C16.9985 17.6958 16.5249 16.554 15.6828 15.7119C14.8408 14.8698 13.6991 14.396 12.5082 14.3945ZM12.5082 21.8858C11.915 21.8859 11.3351 21.7101 10.8418 21.3806C10.3486 21.0511 9.96408 20.5827 9.73702 20.0347C9.50995 19.4867 9.4505 18.8836 9.56617 18.3018C9.68185 17.72 9.96746 17.1856 10.3869 16.7661C10.8063 16.3466 11.3407 16.0609 11.9225 15.9452C12.5043 15.8294 13.1073 15.8888 13.6554 16.1158C14.2034 16.3427 14.6719 16.7272 15.0014 17.2204C15.331 17.7136 15.5069 18.2935 15.5069 18.8867C15.5066 19.6821 15.1906 20.4449 14.6284 21.0076C14.0662 21.5703 13.3036 21.8869 12.5082 21.888V21.8858Z" fill="#23262F"/>
<path d="M41.886 11.322C41.6086 11.1888 41.2989 11.1378 40.9935 11.1751C40.6881 11.2123 40.3998 11.3363 40.1626 11.5323L38.6104 12.8021C33.6844 12.1196 13.2875 9.3086 12.5099 9.3086C10.1965 9.30674 7.96068 10.1427 6.21601 11.6619C4.47134 13.1811 3.33586 15.2807 3.01959 17.5724C2.70332 19.8641 3.22766 22.1928 4.49562 24.1277C5.76358 26.0627 7.68938 27.473 9.9168 28.0978L12.0163 38.758C12.158 39.6091 12.5876 40.3857 13.2332 40.958C13.8788 41.5303 14.7013 41.8636 15.5632 41.9022C15.748 43.2913 16.4541 44.5581 17.5385 45.4458C18.6228 46.3335 20.0041 46.7755 21.4024 46.6823C22.8006 46.5891 24.111 45.9676 25.0679 44.9438C26.0248 43.9201 26.5566 42.5707 26.5553 41.1694V36.1198C26.5553 35.4618 26.8167 34.8308 27.2819 34.3655C27.7472 33.9002 28.3782 33.6389 29.0362 33.6389C29.6942 33.6389 30.3252 33.9002 30.7904 34.3655C31.2557 34.8308 31.5171 35.4618 31.5171 36.1198V41.1694C31.5188 42.6337 32.1012 44.0376 33.1366 45.073C34.1721 46.1084 35.5759 46.6908 37.0402 46.6925H38.8318C39.0297 46.6925 39.2196 46.6139 39.3596 46.4739C39.4996 46.3339 39.5783 46.144 39.5783 45.946C39.5783 45.7481 39.4996 45.5582 39.3596 45.4182C39.2196 45.2782 39.0297 45.1996 38.8318 45.1996H37.0402C35.9717 45.1984 34.9473 44.7735 34.1917 44.0179C33.4361 43.2624 33.0112 42.2379 33.01 41.1694V36.1198C33.01 35.0658 32.5914 34.0551 31.8461 33.3098C31.1009 32.5646 30.0901 32.1459 29.0362 32.1459C27.9823 32.1459 26.9715 32.5646 26.2262 33.3098C25.481 34.0551 25.0623 35.0658 25.0623 36.1198V41.1694C25.062 42.1926 24.6723 43.1773 23.9724 43.9237C23.2725 44.6701 22.3148 45.1222 21.2938 45.1882C20.2727 45.2542 19.2648 44.9292 18.4746 44.2792C17.6844 43.6291 17.1712 42.7027 17.0391 41.6881C17.8775 41.3864 18.5823 40.7981 19.0289 40.027C19.4754 39.256 19.635 38.3519 19.4795 37.4745L17.513 27.8474C24.4204 26.9342 36.5015 25.2663 38.6104 24.9745L40.1626 26.2444C40.4006 26.439 40.6888 26.562 40.9939 26.5993C41.2989 26.6365 41.6083 26.5864 41.8861 26.4548C42.1638 26.3232 42.3985 26.1155 42.5628 25.8558C42.7272 25.5961 42.8145 25.2951 42.8146 24.9878V12.7881C42.8161 12.4805 42.7294 12.179 42.5648 11.9191C42.4002 11.6593 42.1646 11.4521 41.886 11.322ZM18.0121 37.7497C18.0652 38.0488 18.0583 38.3556 17.9918 38.6521C17.9254 38.9486 17.8007 39.2289 17.625 39.4768C17.4493 39.7247 17.2261 39.9352 16.9683 40.0962C16.7106 40.2571 16.4235 40.3652 16.1236 40.4143C15.8237 40.4633 15.5171 40.4523 15.2215 40.3819C14.926 40.3114 14.6473 40.183 14.4018 40.004C14.1563 39.825 13.9488 39.599 13.7913 39.3391C13.6339 39.0792 13.5296 38.7907 13.4846 38.4902L11.5002 28.4109C11.8355 28.4473 12.1726 28.4656 12.5099 28.4659C12.6502 28.4659 13.0409 28.4314 16.029 28.0424L18.0121 37.7497ZM38.0866 23.54C35.1539 23.9448 22.9696 25.6242 16.5247 26.4722C14.0506 26.7964 12.6942 26.9649 12.5099 26.973C11.9085 26.9739 11.309 26.906 10.723 26.7708H10.717H10.7098C8.76975 26.332 7.05958 25.1933 5.90642 23.5726C4.75325 21.952 4.23804 19.9631 4.45933 17.9864C4.68062 16.0097 5.62287 14.1839 7.10586 12.8584C8.58884 11.5328 10.5085 10.8005 12.4975 10.8016C13.2619 10.8331 27.9749 12.8388 38.0866 14.235V23.54ZM41.3216 24.9878C41.3216 25.0125 41.3146 25.0367 41.3014 25.0576C41.2882 25.0785 41.2693 25.0953 41.247 25.1059C41.2246 25.1164 41.1997 25.1205 41.1752 25.1175C41.1507 25.1145 41.1275 25.1045 41.1083 25.0888L39.5812 23.8394V13.9351L41.1083 12.6857C41.1268 12.6686 41.1502 12.6577 41.1752 12.6548C41.2001 12.6518 41.2254 12.6568 41.2474 12.6691C41.2705 12.6785 41.2901 12.6949 41.3035 12.716C41.3169 12.7371 41.3234 12.7618 41.322 12.7868L41.3216 24.9878Z" fill="#23262F"/>
<line x1="52.2727" y1="20.3367" x2="45.2727" y2="20.3367" stroke="#23262F" stroke-width="1.4" stroke-linecap="round"/>
<line x1="49.8313" y1="16.1375" x2="45.6312" y2="16.1375" stroke="#23262F" stroke-width="1.4" stroke-linecap="round"/>
</svg>
