<svg width="65" height="64" viewBox="0 0 65 64" fill="none" xmlns="http://www.w3.org/2000/svg">
<path d="M45.1983 25.4844C45.3705 25.5822 45.5744 25.6079 45.7655 25.5559C45.9566 25.5039 46.1193 25.3785 46.2183 25.2069C46.3167 25.0356 46.3435 24.8324 46.293 24.6414C46.2424 24.4504 46.1185 24.2871 45.9483 24.1869L44.4483 23.3169V21.5844C44.4483 21.3855 44.3692 21.1947 44.2286 21.0541C44.0879 20.9134 43.8972 20.8344 43.6983 20.8344C43.4994 20.8344 43.3086 20.9134 43.1679 21.0541C43.0273 21.1947 42.9483 21.3855 42.9483 21.5844V23.3169L39.2508 25.4544V21.1869L40.7508 20.3169C40.8404 20.27 40.9196 20.2055 40.9837 20.1272C41.0477 20.0489 41.0952 19.9585 41.1234 19.8613C41.1516 19.7642 41.1598 19.6623 41.1476 19.5619C41.1355 19.4615 41.1031 19.3646 41.0524 19.277C41.0018 19.1894 40.934 19.113 40.8531 19.0523C40.7722 18.9916 40.6798 18.9479 40.5816 18.9239C40.4833 18.8998 40.3812 18.8959 40.2814 18.9123C40.1816 18.9287 40.0861 18.9651 40.0008 19.0194L38.5008 19.8894L37.0008 19.0194C36.9154 18.9651 36.8199 18.9287 36.7201 18.9123C36.6203 18.8959 36.5182 18.8998 36.42 18.9239C36.3217 18.9479 36.2294 18.9916 36.1484 19.0523C36.0675 19.113 35.9997 19.1894 35.9491 19.277C35.8985 19.3646 35.8661 19.4615 35.8539 19.5619C35.8417 19.6623 35.8499 19.7642 35.8781 19.8613C35.9063 19.9585 35.9538 20.0489 36.0179 20.1272C36.0819 20.2055 36.1611 20.27 36.2508 20.3169L37.7508 21.1869V25.4544L34.0533 23.3169V21.5844C34.0533 21.3855 33.9742 21.1947 33.8336 21.0541C33.6929 20.9134 33.5022 20.8344 33.3033 20.8344C33.1044 20.8344 32.9136 20.9134 32.7729 21.0541C32.6323 21.1947 32.5533 21.3855 32.5533 21.5844V23.3169L31.0533 24.1869C30.883 24.2871 30.7591 24.4504 30.7086 24.6414C30.658 24.8324 30.6849 25.0356 30.7833 25.2069C30.8822 25.3785 31.045 25.5039 31.2361 25.5559C31.4272 25.6079 31.6311 25.5822 31.8033 25.4844L33.3033 24.6144L37.0008 26.7519L33.3033 28.8894L31.8033 28.0194C31.6319 27.9297 31.4324 27.9098 31.2467 27.9637C31.0609 28.0176 30.9031 28.1412 30.8063 28.3086C30.7095 28.4761 30.6811 28.6745 30.7272 28.8624C30.7732 29.0503 30.89 29.2131 31.0533 29.3169L32.5533 30.1869V31.9194C32.5533 32.1183 32.6323 32.3091 32.7729 32.4497C32.9136 32.5904 33.1044 32.6694 33.3033 32.6694C33.5022 32.6694 33.6929 32.5904 33.8336 32.4497C33.9742 32.3091 34.0533 32.1183 34.0533 31.9194V30.1869L37.7508 28.0494V32.3169L36.2508 33.1869C36.1611 33.2338 36.0819 33.2983 36.0179 33.3766C35.9538 33.4549 35.9063 33.5454 35.8781 33.6425C35.8499 33.7396 35.8417 33.8415 35.8539 33.9419C35.8661 34.0423 35.8985 34.1392 35.9491 34.2268C35.9997 34.3144 36.0675 34.3908 36.1484 34.4515C36.2294 34.5122 36.3217 34.5559 36.42 34.5799C36.5182 34.604 36.6203 34.6079 36.7201 34.5915C36.8199 34.5751 36.9154 34.5387 37.0008 34.4844L38.5008 33.6144L40.0008 34.4844C40.0861 34.5387 40.1816 34.5751 40.2814 34.5915C40.3812 34.6079 40.4833 34.604 40.5816 34.5799C40.6798 34.5559 40.7722 34.5122 40.8531 34.4515C40.934 34.3908 41.0018 34.3144 41.0524 34.2268C41.1031 34.1392 41.1355 34.0423 41.1476 33.9419C41.1598 33.8415 41.1516 33.7396 41.1234 33.6425C41.0952 33.5454 41.0477 33.4549 40.9837 33.3766C40.9196 33.2983 40.8404 33.2338 40.7508 33.1869L39.2508 32.3169V28.0494L42.9483 30.1869V31.9194C42.9483 32.1183 43.0273 32.3091 43.1679 32.4497C43.3086 32.5904 43.4994 32.6694 43.6983 32.6694C43.8972 32.6694 44.0879 32.5904 44.2286 32.4497C44.3692 32.3091 44.4483 32.1183 44.4483 31.9194V30.1869L45.9483 29.3169C46.1115 29.2131 46.2283 29.0503 46.2744 28.8624C46.3204 28.6745 46.292 28.4761 46.1952 28.3086C46.0984 28.1412 45.9407 28.0176 45.7549 27.9637C45.5691 27.9098 45.3697 27.9297 45.1983 28.0194L43.6983 28.8894L40.0008 26.7519L43.6983 24.6144L45.1983 25.4844Z" fill="#23262F"/>
<path d="M52.7244 15.1254V12.4582C52.7249 12.3374 52.6934 12.2186 52.6332 12.1138C52.573 12.009 52.4862 11.9221 52.3815 11.8616L49.9817 10.4903C49.8775 10.4301 49.7592 10.3984 49.6389 10.3984C49.5185 10.3984 49.4003 10.4301 49.296 10.4903L47.239 11.6697L45.182 10.4903C45.0778 10.4301 44.9595 10.3984 44.8392 10.3984C44.7188 10.3984 44.6006 10.4301 44.4963 10.4903L42.4393 11.6697L40.3823 10.4903C40.2781 10.4301 40.1598 10.3984 40.0395 10.3984C39.9191 10.3984 39.8009 10.4301 39.6966 10.4903L37.6396 11.6697L35.5826 10.4903C35.4784 10.4301 35.3601 10.3984 35.2398 10.3984C35.1194 10.3984 35.0012 10.4301 34.8969 10.4903L32.8399 11.6697L30.7829 10.4903C30.6787 10.4301 30.5604 10.3984 30.4401 10.3984C30.3197 10.3984 30.2015 10.4301 30.0972 10.4903L28.0402 11.6697L25.9832 10.4903C25.879 10.4301 25.7607 10.3984 25.6404 10.3984C25.52 10.3984 25.4018 10.4301 25.2975 10.4903L22.8977 11.8616C22.793 11.9221 22.7062 12.009 22.646 12.1138C22.5858 12.2186 22.5544 12.3374 22.5548 12.4582V15.1254C21.6426 19.2526 21.1828 23.467 21.1835 27.6938V28.5303L21.1081 28.5714C20.8487 28.7506 20.6272 28.9791 20.4561 29.2439C20.2851 29.5087 20.1679 29.8045 20.1112 30.1146C20.0545 30.4247 20.0595 30.7429 20.1258 31.0511C20.1922 31.3593 20.3186 31.6514 20.4978 31.9107C20.6877 32.1891 20.9357 32.423 21.2246 32.5963C21.2795 33.8443 21.3755 35.0785 21.5058 36.299L19.7436 35.2842C19.2552 35.0029 18.705 34.8464 18.1417 34.8284C17.5784 34.8105 17.0194 34.9317 16.5141 35.1813L14.841 33.2614C14.7692 33.1792 14.6787 33.1154 14.5772 33.0752C14.4757 33.035 14.3661 33.0196 14.2574 33.0303C14.1488 33.0411 14.0442 33.0776 13.9525 33.1369C13.8609 33.1962 13.7846 33.2765 13.7303 33.3711L11.6732 36.9366C11.6189 37.0309 11.5877 37.1368 11.5824 37.2456C11.5771 37.3543 11.5977 37.4627 11.6426 37.5619C11.6875 37.661 11.7554 37.7481 11.8406 37.8158C11.9258 37.8836 12.0259 37.9301 12.1326 37.9514L14.6285 38.4588C14.6395 38.6907 14.6763 38.9207 14.7382 39.1445C14.9794 40.0136 15.5534 40.7527 16.3358 41.2015L16.6238 41.3661C16.5455 41.5688 16.4836 41.7774 16.4387 41.99C15.7654 42.1131 15.1445 42.4349 14.6557 42.9139C14.1669 43.3929 13.8326 44.0073 13.696 44.6779H11.5841C11.4023 44.6779 11.2279 44.7501 11.0993 44.8787C10.9707 45.0073 10.8984 45.1817 10.8984 45.3635C10.9 46.5261 11.3234 47.6487 12.0902 48.5226C12.8569 49.3965 13.9148 49.9624 15.0673 50.1152C15.2177 51.0843 15.7093 51.9679 16.4536 52.6065C17.1978 53.2452 18.1458 53.597 19.1265 53.5984H34.8969C35.8776 53.597 36.8256 53.2452 37.5698 52.6065C38.3141 51.9679 38.8057 51.0843 38.9561 50.1152C39.9185 49.988 40.8197 49.5719 41.5407 48.9218C42.2617 48.2718 42.7687 47.4184 42.9947 46.4743L44.4963 47.3383C44.6006 47.3984 44.7188 47.4301 44.8392 47.4301C44.9595 47.4301 45.0778 47.3984 45.182 47.3383L47.239 46.1589L49.296 47.3383C49.4003 47.3984 49.5185 47.4301 49.6389 47.4301C49.7592 47.4301 49.8775 47.3984 49.9817 47.3383L52.3815 45.9669C52.4862 45.9065 52.573 45.8195 52.6332 45.7148C52.6934 45.61 52.7249 45.4912 52.7244 45.3704V42.7031C53.6366 38.5759 54.0965 34.3616 54.0957 30.1348V27.6938C54.0965 23.467 53.6366 19.2526 52.7244 15.1254ZM15.081 36.5252C14.9748 36.7078 14.8875 36.9008 14.8205 37.1012L13.3394 36.7926L14.4434 34.8796L15.4513 36.011C15.3104 36.1691 15.1863 36.3415 15.081 36.5252ZM23.9262 12.8559L25.6404 11.8754L27.6974 13.0547C27.8016 13.1149 27.9199 13.1466 28.0402 13.1466C28.1606 13.1466 28.2788 13.1149 28.3831 13.0547L30.4401 11.8754L32.4971 13.0547C32.6013 13.1149 32.7196 13.1466 32.8399 13.1466C32.9603 13.1466 33.0785 13.1149 33.1827 13.0547L35.2398 11.8754L37.2968 13.0547C37.401 13.1149 37.5192 13.1466 37.6396 13.1466C37.76 13.1466 37.8782 13.1149 37.9824 13.0547L40.0395 11.8754L42.0965 13.0547C42.2007 13.1149 42.3189 13.1466 42.4393 13.1466C42.5597 13.1466 42.6779 13.1149 42.7821 13.0547L44.8392 11.8754L46.8962 13.0547C47.0004 13.1149 47.1186 13.1466 47.239 13.1466C47.3594 13.1466 47.4776 13.1149 47.5818 13.0547L49.6389 11.8754L51.353 12.8559V14.5152H23.9262V12.8559ZM21.8692 29.6959C21.9799 29.6184 22.1048 29.5635 22.2368 29.5343C22.3688 29.5051 22.5052 29.5022 22.6383 29.5258C22.7714 29.5493 22.8985 29.5989 23.0124 29.6716C23.1264 29.7444 23.2248 29.8388 23.3022 29.9496C23.4071 30.0975 23.5662 30.1978 23.7448 30.2286C23.9234 30.2594 24.1069 30.2183 24.2553 30.1142C24.4042 30.0104 24.5059 29.8518 24.538 29.6731C24.5702 29.4944 24.5301 29.3103 24.4267 29.1611C24.3094 28.9945 24.2442 28.7968 24.2395 28.5931C24.2347 28.3893 24.2906 28.1888 24.4 28.0169C24.5094 27.845 24.6674 27.7094 24.8539 27.6274C25.0405 27.5454 25.2472 27.5207 25.4478 27.5564C25.6485 27.5921 25.834 27.6866 25.9808 27.8279C26.1277 27.9692 26.2292 28.1509 26.2726 28.35C26.316 28.5491 26.2993 28.7566 26.2246 28.9462C26.1499 29.1358 26.0205 29.2989 25.8529 29.4148C25.7051 29.5197 25.6048 29.6788 25.574 29.8574C25.5431 30.036 25.5843 30.2195 25.6884 30.3679L28.431 34.3037L26.7512 35.483L24.0085 31.5473C23.9036 31.3994 23.7445 31.2991 23.5659 31.2683C23.3873 31.2375 23.2037 31.2786 23.0554 31.3827C22.9446 31.4606 22.8196 31.5159 22.6875 31.5455C22.5554 31.575 22.4187 31.5783 22.2853 31.5551C22.1519 31.5318 22.0244 31.4825 21.9101 31.41C21.7957 31.3375 21.6968 31.2432 21.6189 31.1324C21.541 31.0217 21.4857 30.8967 21.4561 30.7645C21.4266 30.6324 21.4233 30.4957 21.4465 30.3624C21.4698 30.229 21.5191 30.1015 21.5916 29.9871C21.6641 29.8728 21.7584 29.7738 21.8692 29.6959ZM26.7512 37.5126C26.715 37.4393 26.7061 37.3556 26.7262 37.2764C26.7463 37.1971 26.7941 37.1277 26.8609 37.0806L29.9121 34.9482C29.9779 34.901 30.0586 34.8792 30.1392 34.8867C30.2198 34.8943 30.295 34.9307 30.3509 34.9893C31.6678 36.4059 33.3176 37.4712 35.1506 38.0886C36.4914 38.5082 37.62 39.4264 38.3038 40.6536C38.9876 41.8809 39.1745 43.3237 38.8258 44.6847H28.2185C28.0773 44.1692 28.0172 43.6348 28.0402 43.1008C28.0894 41.1623 27.6558 39.242 26.7786 37.5126H26.7512ZM25.5238 38.1228C25.6267 38.3423 25.7295 38.5617 25.8186 38.8085L22.9937 37.1423C22.8223 35.771 22.7125 34.3517 22.644 32.9323C22.8465 32.9197 23.0468 32.8829 23.2405 32.8226L25.7089 36.347C25.5209 36.5994 25.4065 36.899 25.3787 37.2126C25.3508 37.5261 25.4106 37.8412 25.5512 38.1228H25.5238ZM16.2672 37.2109C16.4022 36.9767 16.582 36.7713 16.7964 36.6067C17.0107 36.442 17.2554 36.3211 17.5165 36.2511C17.7776 36.181 18.05 36.1631 18.318 36.1984C18.586 36.2337 18.8444 36.3214 19.0785 36.4567L26.4632 40.7215C26.6255 41.4829 26.6945 42.2611 26.6689 43.0391C26.6458 43.5912 26.6918 44.144 26.806 44.6847H25.9078C25.7711 44.0141 25.4369 43.3998 24.9481 42.9208C24.4593 42.4417 23.8383 42.12 23.1651 41.9969C23.0185 41.2136 22.6035 40.5058 21.9916 39.9952C21.3797 39.4847 20.6091 39.2033 19.8122 39.1993C19.3594 39.1998 18.9113 39.2911 18.4944 39.4678C18.0775 39.6444 17.7002 39.9029 17.3849 40.2279L17.0215 40.0222C16.7873 39.8872 16.5819 39.7074 16.4172 39.493C16.2525 39.2787 16.1317 39.034 16.0617 38.7729C15.9916 38.5118 15.9737 38.2394 16.009 37.9714C16.0443 37.7034 16.132 37.445 16.2672 37.2109ZM17.0695 43.3134C17.2513 43.3134 17.4257 43.2411 17.5543 43.1125C17.6829 42.984 17.7551 42.8096 17.7551 42.6277C17.7551 42.0822 17.9719 41.5589 18.3576 41.1732C18.7434 40.7874 19.2666 40.5707 19.8122 40.5707C20.3577 40.5707 20.8809 40.7874 21.2667 41.1732C21.6525 41.5589 21.8692 42.0822 21.8692 42.6277C21.8692 42.8096 21.9414 42.984 22.07 43.1125C22.1986 43.2411 22.373 43.3134 22.5548 43.3134C22.9792 43.3146 23.3929 43.447 23.739 43.6925C24.0852 43.938 24.347 44.2846 24.4884 44.6847H15.1359C15.2773 44.2846 15.5391 43.938 15.8853 43.6925C16.2314 43.447 16.6451 43.3146 17.0695 43.3134ZM34.8969 52.2271H19.1265C18.52 52.2251 17.9312 52.0222 17.4523 51.65C16.9734 51.2778 16.6314 50.7573 16.4798 50.1701H37.5436C37.392 50.7573 37.05 51.2778 36.5711 51.65C36.0922 52.0222 35.5034 52.2251 34.8969 52.2271ZM38.3253 48.7987H15.6981C14.9078 48.7989 14.1417 48.526 13.5294 48.0262C12.9172 47.5264 12.4964 46.8304 12.3383 46.0561H41.6851C41.527 46.8304 41.1062 47.5264 40.494 48.0262C39.8817 48.526 39.1156 48.7989 38.3253 48.7987ZM51.353 44.9727L49.6389 45.9532L47.5818 44.7739C47.4776 44.7137 47.3594 44.682 47.239 44.682C47.1186 44.682 47.0004 44.7137 46.8962 44.7739L44.8392 45.9532L42.7821 44.7807C42.6783 44.7191 42.56 44.686 42.4393 44.6847H40.2314C40.3215 44.2331 40.3674 43.7739 40.3686 43.3134H51.353V44.9727ZM52.7244 30.1348C52.7235 34.103 52.3075 38.0603 51.4833 41.942H40.2246C39.9868 40.7442 39.43 39.6329 38.6129 38.7253C37.7959 37.8177 36.7489 37.1477 35.5826 36.7858C33.9642 36.2377 32.5079 35.2951 31.3451 34.0431C31.1279 33.8142 30.851 33.6505 30.5457 33.5705C30.2404 33.4906 29.9188 33.4975 29.6173 33.5906L27.1488 30.0594C27.3758 29.772 27.5339 29.4365 27.6112 29.0785C27.6885 28.7206 27.6828 28.3498 27.5946 27.9944C27.5065 27.6389 27.3382 27.3084 27.1026 27.0281C26.867 26.7478 26.5704 26.5251 26.2354 26.3771C25.9005 26.2291 25.5362 26.1597 25.1703 26.1742C24.8044 26.1887 24.4467 26.2867 24.1245 26.4608C23.8024 26.6349 23.5243 26.8803 23.3117 27.1784C23.099 27.4765 22.9574 27.8193 22.8977 28.1806C22.775 28.1624 22.6514 28.151 22.5274 28.1463V27.6938C22.5373 23.7246 22.9625 19.7673 23.7959 15.8865H51.4833C52.3075 19.7683 52.7235 23.7255 52.7244 27.6938V30.1348Z" fill="#23262F"/>
</svg>
