<svg width="44" height="44" viewBox="0 0 44 44" fill="none" xmlns="http://www.w3.org/2000/svg">
<rect x="1.25" y="1.25" width="41.5" height="41.5" rx="20.75" fill="#50515C"/>
<path d="M15.4746 17.0469V27H14.1553V17.0469H15.4746ZM21.4834 17.0469L17.3477 21.6885L15.0234 24.1016L14.8047 22.6934L16.5547 20.7656L19.8975 17.0469H21.4834ZM20.2119 27L16.5273 22.1465L17.3135 21.1006L21.7842 27H20.2119ZM26.7941 22.3447H24.2717L24.258 21.2852H26.548C26.9263 21.2852 27.2567 21.2214 27.5393 21.0938C27.8218 20.9661 28.0406 20.7839 28.1955 20.5469C28.355 20.3053 28.4348 20.0182 28.4348 19.6855C28.4348 19.321 28.3641 19.0247 28.2229 18.7969C28.0861 18.5645 27.8742 18.3958 27.5871 18.291C27.3046 18.1816 26.9445 18.127 26.507 18.127H24.5656V27H23.2463V17.0469H26.507C27.0174 17.0469 27.4732 17.0993 27.8742 17.2041C28.2753 17.3044 28.6148 17.4639 28.8928 17.6826C29.1753 17.8968 29.3895 18.1702 29.5354 18.5029C29.6812 18.8356 29.7541 19.2344 29.7541 19.6992C29.7541 20.1094 29.6493 20.4808 29.4396 20.8135C29.23 21.1416 28.9383 21.4105 28.5646 21.6201C28.1955 21.8298 27.7626 21.9642 27.2658 22.0234L26.7941 22.3447ZM26.7326 27H23.7521L24.4973 25.9268H26.7326C27.1519 25.9268 27.5074 25.8538 27.799 25.708C28.0952 25.5622 28.3208 25.3571 28.4758 25.0928C28.6307 24.8239 28.7082 24.5072 28.7082 24.1426C28.7082 23.7734 28.6421 23.4544 28.51 23.1855C28.3778 22.9167 28.1704 22.7093 27.8879 22.5635C27.6053 22.4176 27.2408 22.3447 26.7941 22.3447H24.9143L24.9279 21.2852H27.4982L27.7785 21.668C28.257 21.709 28.6626 21.8457 28.9953 22.0781C29.328 22.306 29.5809 22.5977 29.7541 22.9531C29.9318 23.3086 30.0207 23.7005 30.0207 24.1289C30.0207 24.7487 29.884 25.2728 29.6105 25.7012C29.3417 26.125 28.9611 26.4486 28.4689 26.6719C27.9768 26.8906 27.398 27 26.7326 27Z" fill="#F4F5F6"/>
<rect x="1.25" y="1.25" width="41.5" height="41.5" rx="20.75" stroke="white" stroke-width="1.5"/>
</svg>
