<svg width="57" height="56" viewBox="0 0 57 56" fill="none" xmlns="http://www.w3.org/2000/svg">
<g clip-path="url(#clip0_1778_152865)">
<path d="M26.8219 27.1602C25.4302 27.1602 24.3019 28.2884 24.3019 29.6802V32.9242L20.3775 47.053C20.2518 47.5064 20.322 47.9916 20.5709 48.3907C20.8198 48.7899 21.2247 49.0664 21.687 49.153L33.5075 51.369C33.6086 51.388 33.7112 51.3976 33.8141 51.3975C34.5372 51.3965 35.1792 50.9345 35.4101 50.2492L36.9019 45.7762L38.3929 50.2501C38.6582 51.0472 39.4716 51.5258 40.2972 51.3706L52.1169 49.1547C52.5792 49.0681 52.9841 48.7916 53.233 48.3924C53.4819 47.9933 53.5521 47.508 53.4264 47.0547L49.5019 32.9242V29.6802C49.5019 28.2884 48.3737 27.1602 46.9819 27.1602H26.8219ZM51.8069 47.5033L39.9873 49.7192L37.6983 42.8547C37.585 42.51 37.2631 42.277 36.9003 42.277C36.5374 42.277 36.2156 42.51 36.1023 42.8547L33.8133 49.7192L21.997 47.5033L25.7803 33.8802H32.9371L35.0136 40.1104C35.1604 40.5512 35.6368 40.7894 36.0775 40.6426C36.5182 40.4957 36.7564 40.0194 36.6096 39.5787L34.707 33.8802H48.0235L51.8086 47.5024L51.8069 47.5033ZM47.8219 29.6802V32.2002H25.9819V29.6802C25.9819 29.2162 26.358 28.8402 26.8219 28.8402H46.9819C47.4459 28.8402 47.8219 29.2162 47.8219 29.6802Z" fill="#23262F"/>
<path d="M32.4539 15.6466C32.2137 15.4064 31.8525 15.3346 31.5386 15.4646C31.2248 15.5946 31.0201 15.9008 31.0201 16.2405V24.6405C31.0201 25.1044 31.3961 25.4805 31.8601 25.4805C32.324 25.4805 32.7001 25.1044 32.7001 24.6405V18.2682L33.1478 18.7159C33.8059 19.3714 34.8702 19.3714 35.5283 18.7159L39.4201 14.8267C40.076 14.1688 40.076 13.1041 39.4201 12.4462L31.9441 4.97019C31.6295 4.65685 31.2037 4.48078 30.7597 4.48047H12.8005C12.3565 4.48078 11.9306 4.65685 11.6161 4.97019L4.14006 12.4462C3.48456 13.1043 3.48456 14.1686 4.14006 14.8267L8.0301 18.7168C8.68796 19.3722 9.75196 19.3722 10.4098 18.7168L10.8601 18.2682V36.4005C10.8601 37.3283 11.6122 38.0805 12.5401 38.0805H20.1001C20.564 38.0805 20.9401 37.7044 20.9401 37.2405C20.9401 36.7766 20.564 36.4005 20.1001 36.4005H12.5401V16.2405C12.54 15.9008 12.3353 15.5946 12.0215 15.4646C11.7077 15.3346 11.3464 15.4064 11.1062 15.6466L9.21954 17.5282L5.33034 13.6365L12.8005 6.16047H15.9345C15.9345 9.39839 18.5594 12.0232 21.7973 12.0232C25.0352 12.0232 27.6601 9.39839 27.6601 6.16047H30.7546L38.2306 13.6415L34.3364 17.5307L32.4539 15.6466ZM21.7969 10.3269C19.4945 10.3241 17.6264 8.4628 17.6153 6.16047H25.9801C25.969 8.46345 24.0999 10.325 21.7969 10.3269Z" fill="#23262F"/>
<path d="M45.7213 40.6016C44.0975 40.6016 42.7812 41.9178 42.7812 43.5416C42.7812 45.1653 44.0975 46.4816 45.7213 46.4816C47.345 46.4816 48.6613 45.1653 48.6613 43.5416C48.6613 41.9178 47.345 40.6016 45.7213 40.6016ZM45.7213 44.8016C45.0254 44.8016 44.4613 44.2374 44.4613 43.5416C44.4613 42.8457 45.0254 42.2816 45.7213 42.2816C46.4171 42.2816 46.9813 42.8457 46.9813 43.5416C46.9813 44.2374 46.4171 44.8016 45.7213 44.8016Z" fill="#23262F"/>
<path d="M29.341 15.819C29.341 14.6299 28.6247 13.5578 27.5261 13.1028C26.4275 12.6477 25.163 12.8993 24.3221 13.7401C23.4813 14.5809 23.2298 15.8455 23.6848 16.9441C24.1399 18.0427 25.2119 18.759 26.401 18.759C28.0247 18.759 29.341 17.4427 29.341 15.819ZM26.401 17.079C25.7051 17.079 25.141 16.5149 25.141 15.819C25.141 15.1231 25.7051 14.559 26.401 14.559C27.0969 14.559 27.661 15.1231 27.661 15.819C27.661 16.5149 27.0969 17.079 26.401 17.079Z" fill="#23262F"/>
</g>
<defs>
<clipPath id="clip0_1778_152865">
<rect width="50.4" height="50.4" fill="white" transform="translate(3.30078 2.80078)"/>
</clipPath>
</defs>
</svg>
