<svg width="32" height="32" viewBox="0 0 32 32" fill="none" xmlns="http://www.w3.org/2000/svg">
<path d="M16.6068 6.95752L15.2731 8.27243L15.2064 8.33817L14.783 8.75566L14.4696 9.06795L14.0461 9.48543L13.9795 9.54789L13.7961 9.73197L13.7294 9.79443L13.1059 10.4091L13.0392 10.4716C12.857 10.651 12.6506 10.8048 12.4257 10.9285C12.3184 10.9877 12.207 11.0393 12.0923 11.083C11.8341 11.1817 11.5619 11.2405 11.2855 11.2573C11.118 11.272 10.9495 11.272 10.782 11.2573C10.4163 11.2181 10.0624 11.1062 9.74174 10.9285C9.59652 10.8544 9.46197 10.7616 9.34164 10.6524L9.26495 10.5768L6.83435 8.15737L6.78433 8.10807C6.74104 8.06191 6.70303 8.0112 6.67097 7.95685C6.58757 7.81745 6.5438 7.65848 6.54427 7.49663C6.54253 7.47146 6.54253 7.4462 6.54427 7.42103C6.54427 7.38158 6.54427 7.34213 6.54427 7.30597V7.26324C6.57686 7.14373 6.63356 7.03192 6.71098 6.93451C6.73144 6.90888 6.75373 6.88471 6.77767 6.86219L6.82101 6.81946L9.43833 4.27183L11.0054 2.73011C11.1721 2.56544 11.3961 2.46941 11.632 2.46147C11.8679 2.45354 12.098 2.53429 12.2757 2.68737L16.6068 6.95752Z" fill="#005BAA"/>
<path d="M11.1659 11.7384L11.5662 12.1305C11.6649 12.1666 11.7693 12.1866 11.8751 12.1893L11.9184 12.1852L11.9305 12.1841L11.9427 12.1836C11.9958 12.1812 12.0487 12.1746 12.1007 12.1638L12.103 12.1633C12.1988 12.144 12.2917 12.1129 12.3795 12.0709L12.3802 12.0706C12.5548 11.9874 12.7145 11.8777 12.8537 11.7457L12.9272 11.6702L12.9326 11.6647L12.9381 11.6594L14.2536 10.3887L17.7989 6.90631L17.806 6.89815L17.8207 6.88131L17.8367 6.86585L19.8873 4.89349L19.8873 4.89348C19.9336 4.84894 19.9826 4.80754 20.034 4.76946L19.9969 4.73286C19.9968 4.73281 19.9968 4.73276 19.9967 4.73271C19.9285 4.66577 19.8347 4.62695 19.7354 4.62695C19.6361 4.62695 19.5422 4.66583 19.474 4.73286L19.4645 4.7422L19.4643 4.74207L19.4193 4.78404L18.3327 5.97538L18.3233 5.98576L18.3132 5.99559L15.6304 8.62431L15.6292 8.6254L15.5637 8.69006L15.5566 8.69707L15.5492 8.70379L15.1241 9.09065L14.8187 9.39496L14.8168 9.39682L14.8168 9.39682L14.3934 9.8143L14.3842 9.8233L14.3841 9.82318L14.3238 9.87971L14.1465 10.0577L14.1404 10.0638L14.1341 10.0697L14.0721 10.1278L13.4531 10.738L13.444 10.747L13.4439 10.7469L13.3816 10.8053C13.1677 11.015 12.926 11.1946 12.6631 11.3394M11.1659 11.7384L12.4219 10.9014M11.1659 11.7384C11.2169 11.7364 11.2679 11.7331 11.3188 11.7287C11.6434 11.7083 11.9631 11.639 12.2668 11.523M11.1659 11.7384L12.0885 11.0559M12.6631 11.3394L12.4219 10.9014M12.6631 11.3394C12.6632 11.3393 12.6633 11.3393 12.6634 11.3392L12.4219 10.9014M12.6631 11.3394C12.5355 11.4097 12.403 11.4711 12.2668 11.523M12.4219 10.9014C12.3146 10.9605 12.2032 11.0122 12.0885 11.0559M12.2668 11.523C12.2668 11.523 12.2669 11.523 12.267 11.5229L12.0885 11.0559M12.2668 11.523C12.2667 11.523 12.2666 11.5231 12.2665 11.5231L12.0885 11.0559M20.9534 4.97379L20.5077 4.53435L20.3966 5.12696C20.4527 5.09188 20.5123 5.06231 20.5747 5.03877C20.6956 4.99315 20.8242 4.9711 20.9534 4.97379ZM20.9534 4.97379C20.9536 4.97379 20.9538 4.9738 20.9541 4.9738V4.97443M20.9534 4.97379L20.9541 4.97443M20.9541 4.97443H20.9741C20.9676 4.97416 20.9611 4.97396 20.9547 4.97381L20.9541 4.97443Z" fill="#ED1C24" stroke="#005BAA"/>
<path d="M12.9124 13.1913C13.2047 13.0483 13.4726 12.8607 13.7064 12.6354L13.7149 12.6272L13.723 12.6187L13.8053 12.5315L14.9309 11.4413L14.9312 11.441L18.8288 7.66067L18.8559 7.63446L18.8747 7.60971L20.758 5.81114C20.7582 5.81092 20.7584 5.8107 20.7587 5.81048C20.8003 5.77138 20.8554 5.74644 20.915 5.74124C20.9623 5.73713 21.0093 5.7457 21.051 5.76522L21.4525 6.16409L21.4536 6.16515L23.8875 8.56814L23.8874 8.56827L23.8972 8.57745C23.8998 8.57984 23.9021 8.58237 23.9041 8.58499L23.9091 8.59136L23.9142 8.59756C23.9703 8.66508 23.9981 8.74948 23.9939 8.83436C23.9896 8.91928 23.9536 9.00097 23.8906 9.06317L23.8244 9.12845L23.8244 9.12844L23.8218 9.13107L20.9181 12.0367L20.9177 12.037L17.8613 15.0899C17.8611 15.0901 17.861 15.0902 17.8608 15.0904C17.7863 15.1645 17.7058 15.2328 17.6203 15.2945L17.582 15.3206L17.582 15.3206L17.5759 15.3248C17.1388 15.6328 16.6056 15.7816 16.0679 15.7444C15.5303 15.7073 15.0238 15.4868 14.635 15.1223L14.5926 15.0826L14.5423 15.0536L14.5181 15.0397L14.0406 14.5689L12.7258 13.2727C12.7891 13.2483 12.8514 13.2212 12.9124 13.1913ZM12.9124 13.1913L12.6926 12.7422M12.9124 13.1913C12.9124 13.1913 12.9125 13.1912 12.9125 13.1912L12.6926 12.7422M12.6926 12.7422C12.5751 12.7997 12.4517 12.8444 12.3245 12.8754L13.4495 12.1801L13.3594 12.2754C13.1633 12.4644 12.9383 12.6219 12.6926 12.7422Z" fill="#ED1C24" stroke="#005BAA"/>
<mask id="path-4-inside-1_1194_435880" fill="white">
<path d="M14.8338 6.23724C14.7993 6.26866 14.754 6.28611 14.7071 6.28611C14.6601 6.28611 14.6149 6.26866 14.5804 6.23724C14.3065 5.96549 13.981 5.74959 13.6225 5.60186C13.264 5.45413 12.8795 5.37747 12.491 5.37624C11.7062 5.37378 10.9527 5.67876 10.396 6.22409C9.83936 6.76942 9.52523 7.51044 9.52273 8.28412C9.52023 9.05781 9.82956 9.80078 10.3827 10.3496L11.2829 11.2437C11.2839 11.2503 11.2839 11.2569 11.2829 11.2635C11.1199 11.2783 10.9558 11.2783 10.7928 11.2635L10.1259 10.606C9.50695 9.99137 9.16096 9.15946 9.16408 8.29331C9.16721 7.42715 9.5192 6.59769 10.1426 5.98741C10.766 5.37712 11.6098 5.036 12.4883 5.03908C13.3668 5.04217 14.2081 5.3892 14.8271 6.00384C14.8573 6.03503 14.8747 6.07616 14.876 6.11928C14.8772 6.16239 14.8622 6.20442 14.8338 6.23724Z"/>
</mask>
<path d="M14.8338 6.23724C14.7993 6.26866 14.754 6.28611 14.7071 6.28611C14.6601 6.28611 14.6149 6.26866 14.5804 6.23724C14.3065 5.96549 13.981 5.74959 13.6225 5.60186C13.264 5.45413 12.8795 5.37747 12.491 5.37624C11.7062 5.37378 10.9527 5.67876 10.396 6.22409C9.83936 6.76942 9.52523 7.51044 9.52273 8.28412C9.52023 9.05781 9.82956 9.80078 10.3827 10.3496L11.2829 11.2437C11.2839 11.2503 11.2839 11.2569 11.2829 11.2635C11.1199 11.2783 10.9558 11.2783 10.7928 11.2635L10.1259 10.606C9.50695 9.99137 9.16096 9.15946 9.16408 8.29331C9.16721 7.42715 9.5192 6.59769 10.1426 5.98741C10.766 5.37712 11.6098 5.036 12.4883 5.03908C13.3668 5.04217 14.2081 5.3892 14.8271 6.00384C14.8573 6.03503 14.8747 6.07616 14.876 6.11928C14.8772 6.16239 14.8622 6.20442 14.8338 6.23724Z" fill="#009EDB"/>
<path d="M14.8338 6.23724L15.5071 6.97655L15.5511 6.93647L15.5901 6.89146L14.8338 6.23724ZM14.7071 6.28611V7.28611V6.28611ZM14.5804 6.23724L13.876 6.9471L13.8912 6.96215L13.907 6.97655L14.5804 6.23724ZM12.491 5.37624L12.4941 4.37625L12.491 5.37624ZM10.3827 10.3496L11.0874 9.6401L11.087 9.63975L10.3827 10.3496ZM11.2829 11.2437L12.2723 11.0989L12.2241 10.7691L11.9876 10.5342L11.2829 11.2437ZM11.2829 11.2635L11.3735 12.2594L12.1582 12.188L12.2723 11.4083L11.2829 11.2635ZM10.7928 11.2635L10.0907 11.9756L10.3456 12.2269L10.7022 12.2594L10.7928 11.2635ZM10.1259 10.606L9.42133 11.3156L9.42386 11.3181L10.1259 10.606ZM14.8271 6.00384L15.5453 5.30803L15.5386 5.30107L15.5317 5.29425L14.8271 6.00384ZM14.1604 5.49794C14.3114 5.36042 14.5067 5.28611 14.7071 5.28611V7.28611C15.0013 7.28611 15.2872 7.1769 15.5071 6.97655L14.1604 5.49794ZM14.7071 5.28611C14.9074 5.28611 15.1028 5.36042 15.2538 5.49794L13.907 6.97655C14.127 7.1769 14.4128 7.28611 14.7071 7.28611V5.28611ZM15.2847 5.52738C14.9177 5.16316 14.4822 4.87452 14.0035 4.67728L13.2415 6.52644C13.4799 6.62466 13.6954 6.76783 13.876 6.9471L15.2847 5.52738ZM14.0035 4.67728C13.5249 4.48005 13.012 4.37788 12.4941 4.37625L12.4878 6.37624C12.747 6.37705 13.0032 6.42821 13.2415 6.52644L14.0035 4.67728ZM12.4941 4.37625C11.4487 4.37296 10.442 4.77911 9.6962 5.50976L11.0958 6.93842C11.4633 6.5784 11.9638 6.37459 12.4878 6.37624L12.4941 4.37625ZM9.6962 5.50976C8.94991 6.24088 8.5261 7.23739 8.52273 8.28089L10.5227 8.28736C10.5243 7.78349 10.7288 7.29797 11.0958 6.93842L9.6962 5.50976ZM8.52273 8.28089C8.51936 9.3244 8.93671 10.3236 9.67832 11.0595L11.087 9.63975C10.7224 9.27796 10.5211 8.79122 10.5227 8.28736L8.52273 8.28089ZM9.67797 11.0591L10.5782 11.9532L11.9876 10.5342L11.0874 9.6401L9.67797 11.0591ZM10.2934 11.3886C10.2803 11.2991 10.2803 11.2081 10.2934 11.1186L12.2723 11.4083C12.2874 11.3057 12.2874 11.2015 12.2723 11.0989L10.2934 11.3886ZM11.1923 10.2676C11.0895 10.2769 10.9861 10.2769 10.8834 10.2676L10.7022 12.2594C10.9255 12.2797 11.1502 12.2797 11.3735 12.2594L11.1923 10.2676ZM11.4949 10.5514L10.828 9.89391L9.42386 11.3181L10.0907 11.9756L11.4949 10.5514ZM10.8305 9.89642C10.4 9.46888 10.1619 8.89325 10.1641 8.29691L8.16409 8.2897C8.15999 9.42568 8.61391 10.5139 9.42133 11.3156L10.8305 9.89642ZM10.1641 8.29691C10.1662 7.70058 10.4084 7.12657 10.8422 6.702L9.44307 5.27282C8.62995 6.06882 8.16819 7.15372 8.16409 8.2897L10.1641 8.29691ZM10.8422 6.702C11.2763 6.27696 11.867 6.03691 12.4848 6.03908L12.4918 4.03909C11.3526 4.03509 10.2557 4.47729 9.44307 5.27282L10.8422 6.702ZM12.4848 6.03908C13.1026 6.04124 13.6915 6.28543 14.1225 6.71344L15.5317 5.29425C14.7248 4.49298 13.631 4.04309 12.4918 4.03909L12.4848 6.03908ZM14.1089 6.69966C13.9666 6.55275 13.8823 6.35637 13.8764 6.14784L15.8756 6.09072C15.8671 5.79596 15.7481 5.51732 15.5453 5.30803L14.1089 6.69966ZM13.8764 6.14784C13.8704 5.93927 13.9433 5.7381 14.0775 5.58302L15.5901 6.89146C15.781 6.67075 15.884 6.38551 15.8756 6.09072L13.8764 6.14784Z" fill="#005BAA" mask="url(#path-4-inside-1_1194_435880)"/>
<mask id="path-6-inside-2_1194_435880" fill="white">
<path d="M16.2152 7.3555L15.9652 7.59876L15.5284 7.16484C15.512 7.14866 15.4989 7.12944 15.49 7.10829C15.4811 7.08714 15.4766 7.06446 15.4766 7.04157C15.4766 7.01867 15.4811 6.99599 15.49 6.97484C15.4989 6.95369 15.512 6.93447 15.5284 6.91829C15.5448 6.90209 15.5643 6.88924 15.5858 6.88047C15.6072 6.8717 15.6302 6.86719 15.6534 6.86719C15.6767 6.86719 15.6997 6.8717 15.7211 6.88047C15.7426 6.88924 15.762 6.90209 15.7785 6.91829L16.2152 7.3555Z"/>
</mask>
<path d="M16.2152 7.3555L15.9652 7.59876L15.5284 7.16484C15.512 7.14866 15.4989 7.12944 15.49 7.10829C15.4811 7.08714 15.4766 7.06446 15.4766 7.04157C15.4766 7.01867 15.4811 6.99599 15.49 6.97484C15.4989 6.95369 15.512 6.93447 15.5284 6.91829C15.5448 6.90209 15.5643 6.88924 15.5858 6.88047C15.6072 6.8717 15.6302 6.86719 15.6534 6.86719C15.6767 6.86719 15.6997 6.8717 15.7211 6.88047C15.7426 6.88924 15.762 6.90209 15.7785 6.91829L16.2152 7.3555Z" fill="#009EDB"/>
<path d="M16.2152 7.3555L16.9125 8.07229L17.6389 7.36567L16.9227 6.64874L16.2152 7.3555ZM15.9652 7.59876L15.2604 8.30818L15.9578 9.00103L16.6625 8.31555L15.9652 7.59876ZM15.5284 7.16484L16.2332 6.45541L16.23 6.4523L15.5284 7.16484ZM15.5284 6.91829L16.23 7.63083L16.2309 7.62995L15.5284 6.91829ZM15.7785 6.91829L16.4859 6.21152L16.481 6.20663L15.7785 6.91829ZM15.5179 6.63871L15.2679 6.88196L16.6625 8.31555L16.9125 8.07229L15.5179 6.63871ZM16.67 6.88933L16.2332 6.45541L14.8236 7.87426L15.2604 8.30818L16.67 6.88933ZM16.23 6.4523C16.3072 6.52833 16.3693 6.6194 16.4119 6.72067L14.5682 7.49591C14.6286 7.63948 14.7167 7.76898 14.8268 7.87737L16.23 6.4523ZM16.4119 6.72067C16.4544 6.82196 16.4766 6.93105 16.4766 7.04157H14.4766C14.4766 7.19788 14.5078 7.35231 14.5682 7.49591L16.4119 6.72067ZM16.4766 7.04157C16.4766 7.15208 16.4544 7.26117 16.4119 7.36246L14.5682 6.58722C14.5078 6.73082 14.4766 6.88526 14.4766 7.04157H16.4766ZM16.4119 7.36246C16.3693 7.46374 16.3072 7.5548 16.23 7.63083L14.8268 6.20576C14.7167 6.31415 14.6286 6.44364 14.5682 6.58722L16.4119 7.36246ZM16.2309 7.62995C16.1538 7.70606 16.063 7.76569 15.9641 7.80613L15.2074 5.95481C15.0656 6.01279 14.9358 6.09812 14.8259 6.20663L16.2309 7.62995ZM15.9641 7.80613C15.8652 7.84655 15.7597 7.86719 15.6534 7.86719V5.86719C15.5007 5.86719 15.3492 5.89685 15.2074 5.95481L15.9641 7.80613ZM15.6534 7.86719C15.5472 7.86719 15.4416 7.84655 15.3427 7.80613L16.0995 5.95481C15.9577 5.89685 15.8061 5.86719 15.6534 5.86719V7.86719ZM15.3427 7.80613C15.2438 7.76569 15.153 7.70606 15.0759 7.62995L16.481 6.20663C16.3711 6.09812 16.2413 6.01279 16.0995 5.95481L15.3427 7.80613ZM15.071 7.62505L15.5078 8.06226L16.9227 6.64874L16.4859 6.21153L15.071 7.62505Z" fill="#005BAA" mask="url(#path-6-inside-2_1194_435880)"/>
<path d="M12.4374 10.9215C12.3302 10.98 12.2188 11.0305 12.104 11.0727L10.877 9.86297C10.505 9.4935 10.2754 9.00759 10.2279 8.48907C10.1805 7.97056 10.318 7.45196 10.6169 7.02278C10.6439 6.98494 10.6848 6.95896 10.7308 6.95036C10.7769 6.94177 10.8246 6.95124 10.8637 6.97675C10.8828 6.98989 10.899 7.0066 10.9116 7.02595C10.9241 7.0453 10.9326 7.0669 10.9366 7.0895C10.9406 7.11211 10.9401 7.13527 10.935 7.15767C10.9299 7.18007 10.9204 7.20125 10.907 7.22001C10.6551 7.58226 10.5392 8.01983 10.5793 8.45729C10.6195 8.89475 10.8132 9.30468 11.1271 9.61643L12.4374 10.9215Z" fill="#009EDB"/>
<path d="M15.4674 8.08191L15.284 8.26271L15.224 8.32188L13.847 6.9511C13.595 6.70154 13.2772 6.52649 12.9296 6.44574C12.5819 6.36499 12.2183 6.38177 11.8798 6.49417C11.8572 6.50448 11.8327 6.50997 11.8077 6.51026C11.7828 6.51056 11.7581 6.50565 11.7353 6.49588C11.7124 6.4861 11.6919 6.47168 11.6751 6.45354C11.6583 6.4354 11.6456 6.41397 11.6378 6.39065C11.63 6.36732 11.6273 6.34263 11.6298 6.3182C11.6324 6.29377 11.6401 6.27015 11.6526 6.24888C11.6651 6.22761 11.682 6.20919 11.7022 6.19481C11.7224 6.18043 11.7454 6.17042 11.7698 6.16544C12.1689 6.03643 12.5966 6.01977 13.0048 6.11733C13.413 6.2149 13.7855 6.42282 14.0804 6.7177L15.4674 8.08191Z" fill="#009EDB"/>
<path d="M14.7273 8.81219L14.4773 9.05873L13.0936 7.68466C12.9269 7.54995 12.7153 7.4813 12.5001 7.49207C12.2848 7.50285 12.0814 7.5923 11.9294 7.74296C11.7774 7.89362 11.6878 8.0947 11.678 8.30697C11.6683 8.51924 11.7391 8.72749 11.8766 8.89108L12.7668 9.77536C12.8 9.80805 12.8186 9.85239 12.8186 9.89863C12.8186 9.94487 12.8 9.98921 12.7668 10.0219C12.7337 10.0546 12.6887 10.073 12.6418 10.073C12.5949 10.073 12.5499 10.0546 12.5168 10.0219L11.6099 9.13763C11.3983 8.9074 11.2849 8.60554 11.2934 8.29495C11.3019 7.98436 11.4316 7.68898 11.6555 7.47034C11.8795 7.25171 12.1803 7.12667 12.4954 7.12128C12.8105 7.11588 13.1155 7.23056 13.347 7.4414L14.7273 8.81219Z" fill="#009EDB"/>
<path d="M13.9902 9.53842L13.8068 9.7225L13.7468 9.77839L12.3565 8.41089C12.3233 8.37819 12.3047 8.33385 12.3047 8.28761C12.3047 8.24138 12.3233 8.19704 12.3565 8.16434C12.3896 8.13165 12.4346 8.11328 12.4815 8.11328C12.5284 8.11328 12.5734 8.13165 12.6065 8.16434L13.9902 9.53842Z" fill="#009EDB"/>
<path fill-rule="evenodd" clip-rule="evenodd" d="M25.6421 23.9327L23.5816 21.0202L23.3749 20.8328H25.4154L26.7924 23.032L26.9025 22.9433L27.7327 21.7237C27.8367 21.5905 27.8832 21.4221 27.8619 21.2553C27.8407 21.0884 27.7535 20.9366 27.6193 20.8328H29.5364L27.3192 23.9294V26.1779L27.7093 26.6381H25.3154L25.6488 26.1845C25.6488 25.4383 25.6221 24.6789 25.6488 23.9327H25.6421ZM20.0507 20.8328C20.1829 20.9678 20.2651 21.1426 20.2841 21.3292C20.2973 21.4406 20.2824 21.5535 20.2408 21.6579L18.7104 26.0366C18.6092 26.2566 18.4601 26.4519 18.2736 26.6086H19.9407C19.8183 26.5096 19.7356 26.371 19.7073 26.2174C19.6772 26.1098 19.6772 25.9962 19.7073 25.8887L20.0407 24.8499H21.9846L22.288 25.652C22.3186 25.7322 22.3377 25.8163 22.3447 25.9018C22.3644 26.0383 22.346 26.1775 22.2914 26.3044C22.2367 26.4312 22.1479 26.541 22.0346 26.6217H24.6519C24.3938 26.417 24.1816 26.1618 24.0284 25.8722L22.1146 20.8164L20.0507 20.8328ZM21.7178 24.1201H20.3275L20.9943 22.2266L21.7112 24.1201H21.7178ZM14.7461 20.8361H17.6635C18.0868 20.837 18.4925 21.0032 18.7918 21.2983C19.0911 21.5934 19.2597 21.9934 19.2606 22.4107V22.6047C19.2553 23.018 19.0858 23.4128 18.7884 23.7042C18.4909 23.9956 18.0894 24.1603 17.6702 24.1628L16.94 24.1858C17.2134 24.0388 17.4334 23.8111 17.5691 23.5346C17.7048 23.2582 17.7495 22.9468 17.6968 22.6441C17.6401 22.1576 17.3868 21.6908 16.9633 21.681H16.6966V25.9906C16.6954 26.0598 16.7164 26.1277 16.7566 26.1845C16.8365 26.3081 16.9257 26.4257 17.0233 26.5362L17.1 26.6283H14.8328L14.9295 26.5001C15.0005 26.4078 15.0598 26.3074 15.1062 26.2009C15.1355 26.1392 15.1503 26.0718 15.1495 26.0037V21.3654C15.1395 21.1221 14.8961 20.9841 14.7461 20.8361Z" fill="#005BAA"/>
<path fill-rule="evenodd" clip-rule="evenodd" d="M2.46094 20.8066H4.29139L5.82844 25.1491L7.1321 21.5528C7.15588 21.448 7.13671 21.3381 7.07875 21.2471C7.00874 21.0992 6.93205 20.9579 6.8587 20.8132H8.22571C8.14569 21.1058 8.02566 21.4279 7.9223 21.7238L6.15519 26.7927C5.62466 26.7091 5.12823 26.4814 4.7215 26.1353C4.44829 25.8455 4.25037 25.4947 4.14469 25.113L2.66766 21.2373C2.60894 21.0892 2.53987 20.9453 2.46094 20.8066ZM9.76942 22.848V25.9512C9.76942 26.0761 9.79943 26.0991 9.87945 26.201L10.2395 26.6645H8.51578L8.80585 26.2273C8.87699 26.1424 8.91484 26.0351 8.91254 25.9249V21.5824L8.42909 20.8066H10.2162L13.1069 24.4917V21.566C13.1101 21.4553 13.0735 21.347 13.0036 21.2603C12.9069 21.1124 12.8035 20.971 12.7068 20.8264H14.4139L14.0805 21.2767C14.0005 21.3753 13.9705 21.3983 13.9705 21.5266V26.7927C13.6212 26.7749 13.28 26.6832 12.9699 26.5238C12.6598 26.3644 12.3882 26.1411 12.1734 25.869L9.76942 22.848Z" fill="#ED1C24"/>
<path d="M4.29343 28.621C4.29343 28.8511 4.39346 28.9727 4.65019 28.9727C4.7504 28.9727 4.84979 28.9549 4.94359 28.9201C4.99027 28.9004 5.00361 28.9201 5.00361 28.9628V28.9891C5.00361 29.0286 5.00361 29.045 4.94359 29.068C4.8513 29.1037 4.75261 29.1205 4.65352 29.1173C4.3001 29.1173 4.13339 28.9628 4.13339 28.621V28.2922C4.1235 28.2229 4.13002 28.1522 4.15244 28.0858C4.17486 28.0194 4.21257 27.959 4.26263 27.9093C4.31268 27.8596 4.37371 27.8221 4.44095 27.7995C4.50819 27.777 4.5798 27.7701 4.65019 27.7794C4.74709 27.78 4.84309 27.7978 4.93359 27.832C4.98027 27.8484 4.99027 27.8682 4.99027 27.9076V27.9339C4.99027 27.9832 4.97027 27.9964 4.92692 27.9799C4.8374 27.9422 4.74089 27.9231 4.64352 27.9241C4.39679 27.9241 4.3101 28.0424 4.3101 28.2988L4.29343 28.621Z" fill="#009EDB"/>
<path d="M4.65302 29.1211C4.29626 29.1211 4.12955 28.96 4.12955 28.6214V28.2927C4.11954 28.223 4.12609 28.1521 4.14869 28.0853C4.17129 28.0186 4.20932 27.958 4.25976 27.9083C4.31021 27.8585 4.3717 27.821 4.43937 27.7987C4.50704 27.7765 4.57904 27.77 4.64968 27.7799C4.74659 27.7805 4.84259 27.7983 4.93309 27.8325C4.9831 27.8522 4.9931 27.8719 4.9931 27.9114V27.9377C4.9931 27.964 4.9931 27.9804 4.9931 27.987C4.9931 27.9936 4.96643 27.987 4.94309 27.987C4.85284 27.9519 4.75668 27.9341 4.65969 27.9344C4.41963 27.9344 4.32627 28.0494 4.32627 28.3058V28.6346C4.32627 28.8745 4.43296 28.983 4.67969 28.983C4.77894 28.9843 4.87748 28.9665 4.96976 28.9304C4.99643 28.9304 5.00977 28.9304 5.01977 28.9304C5.02978 28.9304 5.01977 28.9534 5.01977 28.9797V29.006C5.01977 29.0488 5.01977 29.0652 4.95976 29.0849C4.86179 29.1205 4.75673 29.1329 4.65302 29.1211ZM4.65302 27.7832C4.58218 27.773 4.50991 27.7794 4.44204 27.8019C4.37418 27.8244 4.31262 27.8622 4.26233 27.9124C4.21203 27.9627 4.17442 28.0238 4.15251 28.091C4.13061 28.1582 4.12503 28.2296 4.13622 28.2993V28.628C4.13622 28.9567 4.30293 29.1211 4.65635 29.1211C4.7545 29.1266 4.85262 29.1097 4.94309 29.0718C4.9931 29.0521 5.0031 29.0356 5.0031 28.9962V28.9633C5.0031 28.937 5.0031 28.9238 5.0031 28.9173C5.0031 28.9107 4.9831 28.9173 4.95976 28.9173C4.86632 28.9533 4.76668 28.9712 4.66635 28.9699C4.41962 28.9699 4.30626 28.8614 4.30626 28.6181V28.2894C4.30626 28.0297 4.41629 27.9147 4.65969 27.9147C4.75787 27.9131 4.85538 27.931 4.94642 27.9673C4.96643 27.9673 4.97977 27.9673 4.98977 27.9673C4.99308 27.96 4.99479 27.9522 4.99479 27.9442C4.99479 27.9363 4.99308 27.9285 4.98977 27.9212V27.8949C4.98977 27.8588 4.98977 27.839 4.92975 27.8193C4.83965 27.7893 4.7447 27.7759 4.64968 27.7799L4.65302 27.7832Z" fill="#009EDB"/>
<path d="M5.21875 27.7786C5.21875 27.7228 5.21875 27.7129 5.2821 27.7129H5.30544C5.35879 27.7129 5.36879 27.7129 5.36879 27.7786V28.2421C5.40746 28.1928 5.45863 28.1543 5.51717 28.1307C5.5757 28.107 5.63952 28.099 5.7022 28.1074C5.93893 28.1074 6.07896 28.206 6.07896 28.4361V29.0278C6.07896 29.0804 6.07896 29.0903 6.01561 29.0903H5.98894C5.9356 29.0903 5.92559 29.0903 5.92559 29.0278V28.4591C5.92559 28.3013 5.85558 28.2323 5.66553 28.2323C5.47548 28.2323 5.38546 28.3079 5.38546 28.492V29.0344C5.38546 29.087 5.38546 29.0968 5.32211 29.0968H5.29877C5.24876 29.0968 5.23542 29.0968 5.23542 29.0344L5.21875 27.7786Z" fill="#009EDB"/>
<path d="M5.99723 29.0949H5.97055C5.91721 29.0949 5.9072 29.0949 5.9072 29.0291V28.4604C5.9072 28.2994 5.83052 28.2369 5.64714 28.2369C5.46376 28.2369 5.3704 28.3125 5.3704 28.4933V29.0357C5.3704 29.0883 5.37041 29.1014 5.30372 29.1014H5.28038C5.22704 29.1014 5.2137 29.1014 5.2137 29.0357V27.78C5.2137 27.7208 5.2137 27.7109 5.28038 27.7109H5.30372C5.35707 27.7109 5.3704 27.7109 5.3704 27.78V28.2369C5.40945 28.1881 5.4608 28.1503 5.5193 28.1273C5.57781 28.1042 5.64144 28.0966 5.70382 28.1054C5.95388 28.1054 6.08058 28.2237 6.08058 28.4604V29.0521C6.07725 29.0949 6.05391 29.0949 5.99723 29.0949ZM5.64714 28.2237C5.83385 28.2237 5.91054 28.2928 5.91054 28.4539V29.0291C5.91054 29.0817 5.91054 29.0883 5.97055 29.0883H5.99723C6.05058 29.0883 6.06058 29.0883 6.06058 29.0291V28.4374C6.06058 28.204 5.93388 28.089 5.68715 28.089C5.62432 28.0776 5.55949 28.0842 5.50038 28.1081C5.44127 28.132 5.39037 28.1722 5.35374 28.2237V27.78C5.35374 27.7274 5.35374 27.7175 5.29372 27.7175H5.27038C5.22037 27.7175 5.20703 27.7175 5.20703 27.78V29.0521C5.20703 29.1047 5.20703 29.1113 5.27038 29.1113H5.29372C5.34707 29.1113 5.35374 29.1113 5.35374 29.0521V28.4933C5.36374 28.3092 5.45042 28.2303 5.64714 28.2303V28.2237Z" fill="#009EDB"/>
<path d="M6.27734 28.6967V28.5126C6.27734 28.2331 6.42738 28.0918 6.72412 28.0918C7.02086 28.0918 7.16756 28.2364 7.16756 28.5126V28.6967C7.16756 28.9794 7.02086 29.1174 6.72412 29.1174C6.42738 29.1174 6.27734 28.9728 6.27734 28.6967ZM7.01419 28.5126C7.01419 28.3186 6.94418 28.2331 6.72412 28.2331C6.50407 28.2331 6.43071 28.3186 6.43071 28.5126V28.6967C6.43071 28.8906 6.50407 28.9761 6.72412 28.9761C6.94418 28.9761 7.01419 28.8906 7.01419 28.6967V28.5126Z" fill="#009EDB"/>
<path d="M6.72609 29.1192C6.41934 29.1192 6.27931 28.9844 6.27931 28.6951V28.511C6.27358 28.4517 6.28041 28.3919 6.29935 28.3353C6.31828 28.2787 6.34893 28.2266 6.38934 28.1823C6.48309 28.1071 6.60215 28.0696 6.72275 28.0771C7.02616 28.0771 7.1662 28.2119 7.1662 28.5012V28.6853C7.17523 28.7443 7.17007 28.8046 7.15114 28.8613C7.13222 28.918 7.10006 28.9696 7.05724 29.0118C7.01442 29.054 6.96215 29.0857 6.90463 29.1043C6.84712 29.123 6.78596 29.1281 6.72609 29.1192ZM6.72609 28.0936C6.6058 28.0841 6.48643 28.1206 6.39267 28.1955C6.35155 28.2393 6.32045 28.2913 6.30147 28.3481C6.28249 28.4048 6.27607 28.4648 6.28264 28.5242V28.7083C6.28264 28.9943 6.42268 29.1258 6.72609 29.1258C6.84649 29.1363 6.96626 29.0997 7.0595 29.0239C7.10062 28.98 7.13172 28.928 7.1507 28.8713C7.16968 28.8146 7.1761 28.7545 7.16953 28.6951V28.511C7.16619 28.2251 7.02616 28.1067 6.72609 28.1067V28.0936ZM6.72609 28.9778C6.5127 28.9778 6.42935 28.8989 6.42935 28.6951V28.511C6.42935 28.3072 6.50937 28.2283 6.72609 28.2283C6.94281 28.2283 7.01949 28.3072 7.01949 28.511V28.6951C7.01949 28.9022 6.93947 28.9778 6.72609 28.9778ZM6.72609 28.2349C6.5127 28.2349 6.43601 28.3072 6.43601 28.511V28.6951C6.43601 28.8957 6.51603 28.9713 6.72609 28.9713C6.93614 28.9713 7.01616 28.8989 7.01616 28.6951V28.511C7.01616 28.3072 6.93614 28.2349 6.72609 28.2349Z" fill="#009EDB"/>
<path d="M7.90625 28.5062C7.90625 28.2433 8.04962 28.0921 8.35969 28.0921C8.41973 28.0901 8.47962 28.0991 8.53641 28.1183C8.58642 28.1183 8.59975 28.1479 8.59975 28.194V28.2137C8.59975 28.263 8.59976 28.2794 8.53641 28.263C8.481 28.2425 8.42219 28.2325 8.36303 28.2334C8.13631 28.2334 8.05962 28.3222 8.05962 28.5095V28.7035C8.05962 28.904 8.14964 28.9763 8.39304 28.9763C8.45418 28.9785 8.5152 28.9696 8.57308 28.95C8.61976 28.9336 8.6331 28.95 8.6331 28.9993V29.0191C8.6331 29.0618 8.6331 29.0782 8.56975 29.0914C8.50836 29.1107 8.4441 29.1196 8.3797 29.1177C8.06962 29.1177 7.92292 28.9862 7.92292 28.7035L7.90625 28.5062Z" fill="#009EDB"/>
<path d="M8.36027 29.1185C8.24029 29.1254 8.12183 29.0892 8.02685 29.0166C7.98495 28.9731 7.95312 28.9213 7.93355 28.8645C7.91398 28.8077 7.90713 28.7475 7.91349 28.6879V28.4906C7.90987 28.4347 7.91808 28.3787 7.93759 28.326C7.95711 28.2734 7.9875 28.2253 8.02685 28.1849C8.11875 28.1059 8.23854 28.0657 8.36027 28.0731C8.42022 28.0726 8.47987 28.0815 8.53698 28.0994C8.59032 28.0994 8.60033 28.1323 8.60033 28.1783V28.1981C8.60033 28.2276 8.60033 28.2441 8.60033 28.2507C8.59263 28.2547 8.58404 28.2568 8.57532 28.2568C8.5666 28.2568 8.55802 28.2547 8.55032 28.2507C8.49423 28.2332 8.43576 28.2243 8.37694 28.2244C8.16022 28.2244 8.07353 28.3033 8.07353 28.4972V28.6911C8.07353 28.8884 8.16022 28.9607 8.40695 28.9607C8.4681 28.9632 8.52919 28.9543 8.58699 28.9344C8.61033 28.9344 8.62367 28.9344 8.63367 28.9344C8.64367 28.9344 8.65034 28.9574 8.65034 28.987V29.0067C8.65034 29.0527 8.65034 29.0692 8.58366 29.0823C8.51198 29.1074 8.43632 29.1197 8.36027 29.1185ZM8.36027 28.0929C8.06353 28.0929 7.91016 28.2342 7.91016 28.5038V28.701C7.91016 28.9837 8.05353 29.1119 8.3636 29.1119C8.42774 29.1133 8.49175 29.1056 8.55365 29.0889C8.60366 29.0889 8.617 29.0593 8.617 29.0166V28.9969C8.617 28.9706 8.617 28.9541 8.617 28.9476C8.617 28.941 8.59366 28.9476 8.57365 28.9476C8.51425 28.9655 8.45241 28.9744 8.39028 28.9739C8.16022 28.9739 8.05686 28.895 8.05686 28.6977V28.5038C8.05686 28.3065 8.14688 28.2244 8.3636 28.2244C8.42274 28.2238 8.48149 28.2338 8.53698 28.2539C8.56032 28.2539 8.57365 28.2539 8.58366 28.2539C8.59366 28.2539 8.58366 28.2309 8.58366 28.2046V28.1849C8.58366 28.1422 8.58366 28.1257 8.52364 28.1093C8.46852 28.1003 8.41237 28.0992 8.35693 28.106L8.36027 28.0929Z" fill="#009EDB"/>
<path d="M8.9128 28.7425C8.9128 28.9003 8.97948 28.9759 9.18287 28.9759C9.38625 28.9759 9.45294 28.9036 9.45294 28.7425V28.1738C9.45294 28.1245 9.45294 28.1113 9.51962 28.1113H9.53962C9.5963 28.1113 9.60631 28.1113 9.60631 28.1738V28.7425C9.60631 28.9857 9.48294 29.1172 9.18287 29.1172C8.88279 29.1172 8.74609 28.9923 8.74609 28.7425V28.1738C8.74609 28.1245 8.74609 28.1113 8.81278 28.1113H8.83278C8.88946 28.1113 8.89947 28.1113 8.89947 28.1738L8.9128 28.7425Z" fill="#009EDB"/>
<path d="M9.18125 29.1199C8.90118 29.1199 8.75781 28.9917 8.75781 28.7419V28.1732C8.75781 28.1239 8.75781 28.1074 8.82116 28.1074H8.8445C8.90118 28.1074 8.91118 28.1074 8.91118 28.1732V28.7419C8.91118 28.9095 8.98787 28.972 9.18125 28.972C9.37463 28.972 9.44798 28.9095 9.44798 28.7419V28.1732C9.44798 28.1239 9.44798 28.1074 9.518 28.1074H9.53801C9.59802 28.1074 9.60469 28.1074 9.60469 28.1732V28.7419C9.60942 28.7925 9.60325 28.8436 9.58659 28.8917C9.56993 28.9399 9.54315 28.984 9.508 29.0213C9.4158 29.094 9.29893 29.1293 9.18125 29.1199ZM8.82116 28.1074C8.77448 28.1074 8.76115 28.1074 8.76115 28.1666V28.7353C8.75663 28.7865 8.76354 28.838 8.7814 28.8863C8.79926 28.9346 8.82762 28.9784 8.86451 29.0147C8.95925 29.087 9.07887 29.12 9.19792 29.1067C9.25712 29.1132 9.31704 29.1081 9.37425 29.0918C9.43146 29.0754 9.48484 29.0481 9.53134 29.0114C9.56658 28.9749 9.59345 28.9314 9.61013 28.8837C9.62682 28.8361 9.63292 28.7855 9.62803 28.7353V28.1732C9.62803 28.1271 9.62803 28.114 9.56468 28.114H9.54468C9.49466 28.114 9.48133 28.114 9.48133 28.1732V28.7419C9.48133 28.9128 9.40464 28.9785 9.20792 28.9785C9.01121 28.9785 8.93452 28.9128 8.93452 28.7419V28.1732C8.93452 28.1271 8.93452 28.114 8.87117 28.114L8.82116 28.1074Z" fill="#009EDB"/>
<path d="M9.80859 28.6969V28.5128C9.80859 28.2334 9.9553 28.0921 10.2554 28.0921C10.5554 28.0921 10.6955 28.2367 10.6955 28.5128V28.6969C10.6955 28.9796 10.5488 29.1177 10.2554 29.1177C9.96196 29.1177 9.80859 28.9731 9.80859 28.6969ZM10.5454 28.5128C10.5454 28.3189 10.4754 28.2334 10.2554 28.2334C10.0353 28.2334 9.95863 28.3189 9.95863 28.5128V28.6969C9.95863 28.8909 10.0353 28.9763 10.2554 28.9763C10.4754 28.9763 10.5454 28.8909 10.5454 28.6969V28.5128ZM10.112 27.8291C10.1587 27.7568 10.1887 27.7305 10.2554 27.7305C10.3221 27.7305 10.3487 27.7502 10.3987 27.8291L10.4754 27.9474C10.4988 27.9836 10.4754 27.9935 10.4488 27.9935C10.4316 27.9962 10.4141 27.9932 10.3989 27.9848C10.3838 27.9764 10.372 27.9633 10.3654 27.9474L10.3187 27.8685C10.2887 27.8127 10.2554 27.8127 10.222 27.8685L10.1787 27.9474C10.1717 27.9629 10.1598 27.9758 10.1447 27.984C10.1297 27.9923 10.1124 27.9956 10.0953 27.9935H10.0753C10.0353 27.9935 10.0286 27.9934 10.052 27.9474L10.112 27.8291ZM10.1854 29.2952C10.1994 29.2817 10.2173 29.2726 10.2366 29.269C10.2559 29.2654 10.2759 29.2675 10.294 29.275C10.3121 29.2826 10.3276 29.2952 10.3385 29.3114C10.3493 29.3275 10.3551 29.3465 10.3551 29.3659C10.3551 29.3853 10.3493 29.4042 10.3385 29.4204C10.3276 29.4366 10.3121 29.4492 10.294 29.4567C10.2759 29.4643 10.2559 29.4664 10.2366 29.4628C10.2173 29.4592 10.1994 29.4501 10.1854 29.4366C10.1758 29.4274 10.1682 29.4164 10.163 29.4042C10.1578 29.3921 10.1551 29.3791 10.1551 29.3659C10.1551 29.3527 10.1578 29.3397 10.163 29.3275C10.1682 29.3154 10.1758 29.3044 10.1854 29.2952Z" fill="#009EDB"/>
<path d="M10.2565 29.4648C10.2302 29.464 10.2052 29.4533 10.1867 29.435C10.1681 29.4167 10.1573 29.3921 10.1564 29.3662C10.156 29.3527 10.1584 29.3393 10.1636 29.3269C10.1688 29.3144 10.1765 29.3032 10.1864 29.2939C10.1952 29.2842 10.206 29.2765 10.2181 29.2714C10.2302 29.2663 10.2433 29.2639 10.2565 29.2643C10.2839 29.2643 10.3102 29.275 10.3295 29.2941C10.3489 29.3132 10.3598 29.3392 10.3598 29.3662C10.3602 29.3792 10.3578 29.3921 10.3526 29.404C10.3474 29.4159 10.3396 29.4266 10.3298 29.4352C10.3202 29.4447 10.3087 29.4521 10.2961 29.4572C10.2835 29.4623 10.2701 29.4649 10.2565 29.4648ZM10.2565 29.2676C10.2434 29.2676 10.2304 29.2702 10.2184 29.2753C10.2063 29.2804 10.1955 29.2878 10.1864 29.2972C10.1688 29.3159 10.1593 29.3406 10.1598 29.3662C10.1599 29.3916 10.1696 29.4159 10.1867 29.435C10.2057 29.4523 10.2305 29.4622 10.2565 29.4622C10.2824 29.4622 10.3074 29.4526 10.3265 29.4352C10.336 29.4263 10.3435 29.4156 10.3487 29.4037C10.3538 29.3919 10.3565 29.3791 10.3565 29.3662C10.3557 29.3403 10.3448 29.3157 10.3263 29.2974C10.3077 29.2791 10.2827 29.2684 10.2565 29.2676ZM10.2565 29.1196C9.94972 29.1196 9.80635 28.9849 9.80635 28.6956V28.5115C9.80107 28.452 9.80842 28.392 9.82794 28.3354C9.84745 28.2788 9.87871 28.2268 9.91971 28.1828C10.0131 28.107 10.1324 28.0694 10.2531 28.0776C10.5565 28.0776 10.6966 28.2124 10.6966 28.5016V28.6857C10.7056 28.7448 10.7004 28.8051 10.6815 28.8618C10.6626 28.9185 10.6304 28.97 10.5876 29.0122C10.5448 29.0544 10.4925 29.0861 10.435 29.1048C10.3775 29.1235 10.3163 29.1285 10.2565 29.1196ZM10.2565 28.094C10.1361 28.0838 10.0165 28.1204 9.92304 28.1959C9.88192 28.2398 9.85082 28.2918 9.83184 28.3485C9.81286 28.4052 9.80644 28.4653 9.81301 28.5247V28.7087C9.81301 28.9947 9.95305 29.1262 10.2565 29.1262C10.3768 29.136 10.4963 29.0995 10.5899 29.0243C10.631 28.9805 10.6621 28.9284 10.6811 28.8717C10.7001 28.815 10.7065 28.755 10.6999 28.6956V28.5115C10.6966 28.2255 10.5565 28.1072 10.2565 28.1072V28.094ZM10.2565 28.9783C10.0431 28.9783 9.95972 28.8994 9.95972 28.6956V28.5115C9.95972 28.3077 10.0397 28.2288 10.2565 28.2288C10.4732 28.2288 10.5465 28.3077 10.5465 28.5115V28.6956C10.5465 28.9027 10.4698 28.9783 10.2565 28.9783ZM10.2565 28.2354C10.0431 28.2354 9.96305 28.3077 9.96305 28.5115V28.6956C9.96305 28.8961 10.0464 28.9717 10.2565 28.9717C10.4665 28.9717 10.5432 28.8994 10.5432 28.6956V28.5115C10.5432 28.3077 10.4665 28.2354 10.2565 28.2354ZM10.4498 27.9954C10.4323 27.9979 10.4144 27.9944 10.3992 27.9854C10.384 27.9764 10.3725 27.9625 10.3665 27.9461L10.3198 27.8705C10.3198 27.8409 10.2865 27.8278 10.2731 27.8278C10.2731 27.8278 10.2398 27.8278 10.2265 27.8705L10.1798 27.9461C10.1738 27.9625 10.1622 27.9764 10.147 27.9854C10.1318 27.9944 10.114 27.9979 10.0964 27.9954H10.0764C10.0531 27.9954 10.0431 27.9954 10.0397 27.9954C10.0364 27.9954 10.0397 27.9757 10.0397 27.9592L10.1164 27.8409C10.1664 27.7686 10.1931 27.7423 10.2631 27.7423C10.3331 27.7423 10.3565 27.762 10.4065 27.8409L10.4832 27.9592C10.4832 27.9757 10.5032 27.9888 10.4832 27.9954C10.4632 28.002 10.4732 27.9954 10.4498 27.9954ZM10.2565 27.8245C10.2565 27.8245 10.2898 27.8245 10.3065 27.8672L10.3531 27.9461C10.3591 27.9617 10.3703 27.9748 10.3849 27.9831C10.3994 27.9915 10.4165 27.9947 10.4332 27.9921C10.4565 27.9921 10.4665 27.9921 10.4698 27.9921C10.4732 27.9921 10.4698 27.9921 10.4698 27.9592L10.4132 27.831C10.3665 27.7521 10.3365 27.7324 10.2731 27.7324C10.2098 27.7324 10.1798 27.7554 10.1298 27.831L10.0531 27.9494C10.0531 27.9494 10.0531 27.9757 10.0531 27.9823C10.0531 27.9888 10.0531 27.9823 10.0864 27.9823H10.0797C10.0963 27.9837 10.1129 27.9801 10.1272 27.9718C10.1415 27.9636 10.1529 27.9511 10.1598 27.9362L10.2064 27.8573C10.2231 27.8376 10.2398 27.8245 10.2565 27.8245Z" fill="#009EDB"/>
<path d="M10.8945 28.5062C10.8945 28.2433 11.0379 28.0921 11.348 28.0921C11.408 28.0901 11.4679 28.0991 11.5247 28.1183C11.5747 28.1183 11.588 28.1479 11.588 28.194V28.2137C11.588 28.263 11.588 28.2794 11.5247 28.263C11.4694 28.2422 11.4105 28.2322 11.3513 28.2334C11.1246 28.2334 11.0479 28.3222 11.0479 28.5095V28.7035C11.0479 28.904 11.1379 28.9763 11.3646 28.9763C11.4269 28.9782 11.4889 28.9693 11.548 28.95C11.5947 28.9336 11.608 28.95 11.608 28.9993V29.0191C11.608 29.0618 11.608 29.0782 11.5414 29.0914C11.4811 29.1107 11.418 29.1196 11.3546 29.1177C11.0412 29.1177 10.8945 28.9862 10.8945 28.7035V28.5062Z" fill="#009EDB"/>
<path d="M11.3525 29.1185C11.2323 29.1266 11.1134 29.0903 11.019 29.0166C10.9764 28.9737 10.944 28.9218 10.9244 28.8649C10.9048 28.808 10.8984 28.7475 10.9057 28.6879V28.4906C10.9016 28.4349 10.9093 28.379 10.9282 28.3264C10.9472 28.2738 10.977 28.2256 11.0157 28.1849C11.1076 28.1059 11.2274 28.0657 11.3491 28.0731C11.4101 28.0728 11.4709 28.0817 11.5292 28.0994C11.5792 28.0994 11.5892 28.1323 11.5892 28.1783V28.1981C11.5892 28.2276 11.5892 28.2441 11.5892 28.2507C11.5815 28.2547 11.5729 28.2568 11.5642 28.2568C11.5555 28.2568 11.5469 28.2547 11.5392 28.2507C11.4831 28.2332 11.4246 28.2243 11.3658 28.2244C11.1524 28.2244 11.0624 28.3033 11.0624 28.4972V28.6911C11.0624 28.8884 11.1491 28.9607 11.3791 28.9607C11.4403 28.9632 11.5014 28.9543 11.5592 28.9344C11.5671 28.9311 11.5756 28.9293 11.5842 28.9293C11.5928 28.9293 11.6013 28.9311 11.6092 28.9344C11.6092 28.9344 11.6092 28.9574 11.6092 28.987V29.0067C11.6092 29.0527 11.6092 29.0692 11.5458 29.0823C11.4835 29.1038 11.4184 29.1159 11.3525 29.1185ZM11.3525 28.0929C11.059 28.0929 10.9023 28.2342 10.9023 28.5038V28.701C10.9023 28.9837 11.0457 29.1119 11.3591 29.1119C11.4222 29.113 11.485 29.1052 11.5458 29.0889C11.5958 29.0889 11.6092 29.0593 11.6092 29.0166V28.9969C11.6092 28.9706 11.6092 28.9541 11.6092 28.9476C11.6092 28.941 11.5858 28.9476 11.5658 28.9476C11.5064 28.9655 11.4446 28.9744 11.3825 28.9739C11.1524 28.9739 11.049 28.895 11.049 28.6977V28.5038C11.049 28.3065 11.1391 28.2244 11.3558 28.2244C11.416 28.2237 11.4759 28.2337 11.5325 28.2539C11.5558 28.2539 11.5692 28.2539 11.5758 28.2539C11.5825 28.2539 11.5758 28.2309 11.5758 28.2046V28.1849C11.5758 28.1422 11.5758 28.1257 11.5158 28.1093C11.4596 28.0998 11.4023 28.0987 11.3458 28.106L11.3525 28.0929Z" fill="#009EDB"/>
<path d="M12.2773 28.9884C12.2773 28.9391 12.2773 28.926 12.344 28.9358C12.4404 28.9636 12.5403 28.978 12.6408 28.9786C12.7975 28.9786 12.8608 28.949 12.8608 28.8635C12.8608 28.778 12.8275 28.7649 12.7308 28.7189L12.4841 28.6038C12.354 28.5414 12.294 28.4822 12.294 28.3441C12.294 28.2061 12.414 28.1074 12.6541 28.1074C12.7399 28.107 12.8253 28.1191 12.9075 28.1436C12.9542 28.1436 12.9675 28.1732 12.9675 28.2192V28.2389C12.9675 28.2882 12.9675 28.2981 12.9042 28.2849C12.8222 28.2596 12.7367 28.2474 12.6508 28.2488C12.5007 28.2488 12.4441 28.2784 12.4441 28.3606C12.4441 28.4427 12.4807 28.4592 12.5507 28.492L12.8108 28.6071C12.9475 28.6728 13.0142 28.732 13.0142 28.8767C13.0142 29.0213 12.8908 29.1331 12.6308 29.1331C12.5339 29.1342 12.4374 29.1221 12.344 29.0969C12.2907 29.0805 12.2773 29.064 12.2773 29.0213V28.9884Z" fill="#009EDB"/>
<path d="M12.6308 29.1211C12.5327 29.1214 12.435 29.1081 12.3407 29.0817C12.2907 29.0817 12.2773 29.0521 12.2773 29.0061C12.2773 28.9798 12.2773 28.9633 12.2773 28.9568C12.2773 28.9502 12.304 28.9568 12.3307 28.9568C12.4274 28.983 12.5272 28.9963 12.6274 28.9962C12.7875 28.9962 12.8475 28.9666 12.8475 28.8845C12.8475 28.8023 12.8175 28.7891 12.7175 28.7431L12.4674 28.6248C12.344 28.5656 12.2773 28.5064 12.2773 28.3651C12.2773 28.2237 12.394 28.1087 12.6408 28.1087C12.7269 28.107 12.8127 28.1204 12.8942 28.1481C12.9442 28.1481 12.9575 28.1777 12.9575 28.2237V28.2434C12.9637 28.2593 12.9637 28.2769 12.9575 28.2927C12.9404 28.2997 12.9213 28.2997 12.9042 28.2927C12.8237 28.2656 12.7391 28.2522 12.6541 28.2533C12.5074 28.2533 12.4507 28.2862 12.4507 28.3651C12.4523 28.3944 12.4631 28.4225 12.4817 28.4454C12.5002 28.4684 12.5255 28.4851 12.5541 28.4933L12.8141 28.6116C12.9475 28.6708 13.0175 28.7332 13.0175 28.8812C13.0175 29.0291 12.8908 29.1211 12.6308 29.1211ZM12.2974 28.937H12.2773C12.2773 28.937 12.2773 28.9601 12.2773 28.9831C12.2773 29.0258 12.2773 29.0422 12.3407 29.0554C12.434 29.0811 12.5306 29.0932 12.6274 29.0915C12.8908 29.0915 13.0075 29.0159 13.0075 28.8384C13.0075 28.6609 12.9375 28.6313 12.8075 28.5722L12.5474 28.4538C12.5173 28.4462 12.4904 28.4294 12.4707 28.4058C12.4509 28.3821 12.4392 28.3529 12.4374 28.3223C12.4374 28.2401 12.4974 28.2073 12.6474 28.2073C12.7335 28.2065 12.8192 28.2198 12.9008 28.2467C12.9242 28.2467 12.9375 28.2467 12.9475 28.2467C12.9506 28.2394 12.9522 28.2316 12.9522 28.2237C12.9522 28.2158 12.9506 28.208 12.9475 28.2007V28.181C12.9475 28.135 12.9475 28.1251 12.8875 28.1087C12.8057 28.0826 12.72 28.0704 12.6341 28.0725C12.3907 28.0725 12.2773 28.1514 12.2773 28.3223C12.2773 28.4933 12.3407 28.5196 12.4641 28.5787L12.7108 28.6971C12.8108 28.7431 12.8442 28.7793 12.8442 28.8417C12.8442 28.9042 12.7841 28.9568 12.6208 28.9568C12.5194 28.9566 12.4185 28.9433 12.3207 28.9173L12.2974 28.937Z" fill="#009EDB"/>
<path d="M13.207 28.6973V28.5133C13.207 28.2338 13.3571 28.0925 13.6538 28.0925C13.9506 28.0925 14.0973 28.2371 14.0973 28.5133V28.6973C14.0973 28.98 13.9506 29.1181 13.6538 29.1181C13.3571 29.1181 13.207 28.9735 13.207 28.6973ZM13.9439 28.5133C13.9439 28.3193 13.8772 28.2338 13.6538 28.2338C13.4304 28.2338 13.3604 28.3193 13.3604 28.5133V28.6973C13.3604 28.8913 13.4338 28.9768 13.6538 28.9768C13.8739 28.9768 13.9439 28.8913 13.9439 28.6973V28.5133ZM13.5104 27.8295C13.5605 27.7572 13.5871 27.7309 13.6538 27.7309C13.7205 27.7309 13.7505 27.7506 13.7972 27.8295L13.8772 27.9478C13.9005 27.984 13.8772 27.9939 13.8505 27.9939C13.8334 27.9966 13.8158 27.9936 13.8007 27.9852C13.7856 27.9769 13.7737 27.9637 13.7672 27.9478L13.7205 27.869C13.6872 27.8131 13.6538 27.8131 13.6238 27.869L13.5771 27.9478C13.5571 27.9873 13.5371 27.9939 13.4938 27.9939C13.4504 27.9939 13.4438 27.9939 13.4671 27.9478L13.5104 27.8295ZM14.0272 27.7112C14.0189 27.7263 14.0062 27.7387 13.9908 27.7469C13.9754 27.7551 13.958 27.7586 13.9405 27.7572H13.9205C13.8739 27.7572 13.8672 27.7572 13.8905 27.7079L13.9739 27.5468C13.9814 27.5266 13.9958 27.5096 14.0147 27.4988C14.0336 27.488 14.0557 27.484 14.0772 27.4876H14.0973C14.1506 27.4876 14.1606 27.4876 14.1306 27.5435L14.0272 27.7112Z" fill="#009EDB"/>
<path d="M13.6558 29.1208C13.3524 29.1208 13.209 28.9861 13.209 28.6968V28.5127C13.2033 28.4534 13.2101 28.3935 13.229 28.337C13.248 28.2804 13.2786 28.2283 13.319 28.184C13.4131 28.1094 13.5319 28.0719 13.6524 28.0788C13.9558 28.0788 14.0992 28.2136 14.0992 28.5028V28.6869C14.1026 28.9795 13.9525 29.1208 13.6558 29.1208ZM13.6558 28.0952C13.5355 28.0857 13.4161 28.1222 13.3224 28.1971C13.2812 28.241 13.2501 28.293 13.2312 28.3497C13.2122 28.4064 13.2058 28.4665 13.2123 28.5258V28.7099C13.2123 28.9959 13.3524 29.1274 13.6558 29.1274C13.7762 29.1379 13.8959 29.1013 13.9892 29.0255C14.0303 28.9817 14.0614 28.9296 14.0804 28.8729C14.0994 28.8162 14.1058 28.7562 14.0992 28.6968V28.5127C14.0825 28.2267 13.9558 28.1084 13.6558 28.1084V28.0952ZM13.6558 28.9795C13.4424 28.9795 13.359 28.9006 13.359 28.6968V28.5127C13.359 28.3089 13.4391 28.23 13.6558 28.23C13.8725 28.23 13.9492 28.3089 13.9492 28.5127V28.6968C13.9492 28.9039 13.8692 28.9795 13.6558 28.9795ZM13.6558 28.2366C13.4424 28.2366 13.3657 28.3089 13.3657 28.5127V28.6968C13.3657 28.8973 13.4457 28.9729 13.6558 28.9729C13.8658 28.9729 13.9458 28.9006 13.9458 28.6968V28.5127C13.9458 28.3089 13.8658 28.2366 13.6558 28.2366ZM13.8525 27.9966C13.8345 27.9993 13.8161 27.9959 13.8004 27.987C13.7846 27.978 13.7724 27.964 13.7658 27.9473L13.7191 27.8717C13.6891 27.8158 13.6591 27.8158 13.6258 27.8717L13.5824 27.9473C13.5758 27.964 13.5636 27.978 13.5479 27.987C13.5321 27.9959 13.5137 27.9993 13.4957 27.9966C13.4724 27.9966 13.4591 27.9966 13.4557 27.9966C13.4524 27.9966 13.4557 27.9769 13.4557 27.9604L13.5324 27.8421C13.5791 27.7698 13.6091 27.7435 13.6758 27.7435C13.7425 27.7435 13.7725 27.7632 13.8225 27.8421L13.8992 27.9604C13.8992 27.9769 13.8992 27.99 13.8992 27.9966C13.8992 28.0032 13.8758 27.9966 13.8525 27.9966ZM13.6558 27.8257C13.6558 27.8257 13.6891 27.8257 13.7058 27.8684L13.7525 27.9473C13.7595 27.9628 13.7714 27.9756 13.7864 27.9839C13.8014 27.9922 13.8188 27.9955 13.8358 27.9933C13.8558 27.9933 13.8692 27.9933 13.8725 27.9933C13.8758 27.9933 13.8725 27.9933 13.8725 27.9604L13.7958 27.8421C13.7458 27.7632 13.7191 27.7435 13.6524 27.7435C13.5858 27.7435 13.5591 27.7665 13.5124 27.8421L13.4357 27.9604C13.4357 27.9604 13.4357 27.9867 13.4357 27.9933C13.4357 27.9999 13.4357 27.9933 13.4724 27.9933C13.4894 27.995 13.5065 27.9915 13.5214 27.9832C13.5363 27.975 13.5483 27.9625 13.5557 27.9473L13.5991 27.8684C13.6224 27.8388 13.6391 27.8257 13.6558 27.8257ZM13.9425 27.7599H13.9225C13.8958 27.7599 13.8825 27.7599 13.8792 27.7599C13.8738 27.7462 13.8738 27.7309 13.8792 27.7172L13.9659 27.5561C13.9682 27.5435 13.9731 27.5316 13.9804 27.521C13.9876 27.5104 13.9971 27.5014 14.008 27.4946C14.019 27.4878 14.0313 27.4833 14.0441 27.4814C14.057 27.4796 14.07 27.4804 14.0825 27.4838H14.1026C14.1326 27.4838 14.1492 27.4838 14.1526 27.4838C14.1559 27.4838 14.1526 27.5068 14.1526 27.5331L14.0525 27.6975C14.0439 27.7185 14.0283 27.736 14.0084 27.7473C13.9885 27.7586 13.9653 27.7631 13.9425 27.7599ZM14.0792 27.4871C14.0582 27.4843 14.0369 27.4886 14.0187 27.4994C14.0005 27.5101 13.9866 27.5266 13.9792 27.5462L13.8925 27.7073C13.8925 27.7303 13.8925 27.7402 13.8925 27.7468C13.8925 27.7533 13.8925 27.7468 13.9325 27.7468H13.9525C13.9702 27.7471 13.9876 27.7427 14.0028 27.734C14.0181 27.7253 14.0307 27.7127 14.0392 27.6975L14.1392 27.5331C14.1392 27.5101 14.1592 27.4969 14.1392 27.4904C14.1192 27.4838 14.1192 27.4904 14.0925 27.4904L14.0792 27.4871Z" fill="#009EDB"/>
<path d="M14.462 29.0352C14.462 29.0878 14.462 29.0977 14.3986 29.0977H14.3753C14.3253 29.0977 14.3086 29.0977 14.3086 29.0352V28.4665C14.3086 28.2167 14.452 28.0918 14.7354 28.0918C15.0188 28.0918 15.1555 28.2233 15.1555 28.4665V29.0352C15.1555 29.0878 15.1555 29.0977 15.0921 29.0977H15.0788C15.0221 29.0977 15.0121 29.0977 15.0121 29.0352V28.4665C15.0121 28.3055 14.9488 28.2331 14.7454 28.2331C14.542 28.2331 14.472 28.3088 14.472 28.4665L14.462 29.0352Z" fill="#009EDB"/>
<path d="M15.0791 29.0942C15.0224 29.0942 15.0091 29.0942 15.0091 29.0284V28.4663C15.0091 28.2987 14.9391 28.2362 14.7457 28.2362C14.5523 28.2362 14.4756 28.2987 14.4756 28.4663V29.035C14.4756 29.0876 14.4756 29.1008 14.4089 29.1008H14.3856C14.3356 29.1008 14.3189 29.1008 14.3189 29.035V28.4663C14.3189 28.2165 14.4623 28.0883 14.7457 28.0883C14.8051 28.0823 14.8652 28.0879 14.9224 28.1048C14.9796 28.1217 15.0328 28.1496 15.0791 28.1869C15.1147 28.224 15.1419 28.268 15.1592 28.3161C15.1764 28.3643 15.1832 28.4154 15.1791 28.4663V29.035C15.1591 29.0942 15.1491 29.0942 15.0791 29.0942ZM14.7457 28.2296C14.9424 28.2296 15.0157 28.2954 15.0157 28.4663V29.035C15.0157 29.0876 15.0157 29.0942 15.0791 29.0942C15.1324 29.0942 15.1424 29.0942 15.1424 29.035V28.4663C15.1467 28.4159 15.1399 28.3652 15.1227 28.3176C15.1054 28.27 15.0781 28.2265 15.0424 28.1902C14.9567 28.1287 14.8514 28.0995 14.7457 28.108C14.6266 28.0947 14.507 28.1277 14.4123 28.2001C14.3751 28.2363 14.3464 28.2801 14.328 28.3283C14.3096 28.3765 14.3019 28.4281 14.3056 28.4795V29.0482C14.3056 29.1008 14.3056 29.1073 14.3689 29.1073H14.4123C14.4656 29.1073 14.4756 29.1073 14.4756 29.0482V28.4663C14.4623 28.2954 14.539 28.2296 14.7457 28.2296Z" fill="#009EDB"/>
<path d="M16.2103 28.4631C16.2103 28.6932 16.0736 28.8116 15.7902 28.8116C15.7193 28.8039 15.6477 28.8039 15.5768 28.8116C15.5621 28.814 15.5488 28.8217 15.5396 28.8333C15.5303 28.8448 15.5258 28.8593 15.5268 28.874C15.5268 28.9003 15.5268 28.92 15.5801 28.9299C15.6501 28.9353 15.7203 28.9353 15.7902 28.9299C15.9049 28.922 16.0198 28.9435 16.1236 28.9924C16.1582 29.0158 16.1858 29.048 16.2034 29.0856C16.221 29.1232 16.228 29.1648 16.2236 29.206C16.2282 29.2506 16.2215 29.2955 16.204 29.3368C16.1865 29.3782 16.1589 29.4146 16.1236 29.4427C16.0212 29.496 15.9057 29.5199 15.7902 29.5117C15.6748 29.5189 15.5596 29.495 15.4568 29.4427C15.424 29.4185 15.398 29.3865 15.3811 29.3497C15.3642 29.313 15.357 29.2726 15.3601 29.2323C15.3578 29.1896 15.3675 29.147 15.3881 29.1094C15.4086 29.0717 15.4393 29.0403 15.4768 29.0187C15.4506 29.0083 15.4283 28.9899 15.4134 28.9663C15.3984 28.9427 15.3914 28.915 15.3934 28.8872C15.3934 28.7984 15.4468 28.7458 15.5568 28.7294C15.5006 28.7057 15.4537 28.6647 15.4231 28.6126C15.3924 28.5604 15.3797 28.4999 15.3868 28.4401V28.4368C15.3868 28.2199 15.5435 28.1081 15.8069 28.1081C15.8789 28.1066 15.9505 28.12 16.0169 28.1475L16.1336 28.0456C16.167 28.016 16.1836 28.016 16.217 28.0456C16.2503 28.0752 16.2503 28.0916 16.217 28.1245L16.1269 28.2166C16.1562 28.2459 16.179 28.2809 16.194 28.3194C16.2089 28.3579 16.2156 28.399 16.2136 28.4401L16.2103 28.4631ZM15.5935 29.0745C15.563 29.0898 15.5376 29.1134 15.5204 29.1426C15.5032 29.1718 15.495 29.2052 15.4968 29.2389C15.4968 29.3704 15.5735 29.4033 15.7902 29.4033C16.0069 29.4033 16.0836 29.3704 16.0836 29.2356C16.0836 29.1008 16.0103 29.0877 15.7902 29.0877C15.7244 29.0881 15.6586 29.0837 15.5935 29.0745ZM16.0569 28.4368C16.0569 28.2955 15.9669 28.2264 15.7902 28.2264C15.6135 28.2264 15.5201 28.2955 15.5201 28.4368V28.4631C15.5201 28.6045 15.5868 28.6768 15.7902 28.6768C15.9936 28.6768 16.0569 28.6045 16.0569 28.4631V28.4368Z" fill="#009EDB"/>
<path d="M15.7877 29.5361C15.6726 29.5447 15.5572 29.522 15.4543 29.4703C15.4217 29.4452 15.3959 29.4126 15.379 29.3753C15.3622 29.3381 15.3548 29.2974 15.3576 29.2567C15.355 29.2146 15.3638 29.1726 15.3832 29.1351C15.4025 29.0975 15.4317 29.0657 15.4676 29.043C15.4423 29.0317 15.4211 29.0131 15.4068 28.9896C15.3925 28.9661 15.3858 28.9388 15.3876 28.9115C15.3876 28.8238 15.441 28.7712 15.5477 28.7537C15.4924 28.7291 15.4465 28.6878 15.4166 28.6358C15.3866 28.5838 15.3742 28.5238 15.381 28.4644V28.4381C15.3796 28.3898 15.389 28.3418 15.4086 28.2975C15.4282 28.2531 15.4575 28.2136 15.4943 28.1817C15.5839 28.1168 15.6934 28.0843 15.8044 28.0897C15.8765 28.0882 15.948 28.1016 16.0145 28.1291L16.1312 28.0305C16.1645 27.9976 16.1812 27.9976 16.2145 28.0305C16.2345 28.047 16.2412 28.0568 16.2412 28.07C16.2412 28.0831 16.2412 28.093 16.2145 28.1127L16.1245 28.2015C16.1549 28.2302 16.1786 28.265 16.1942 28.3036C16.2097 28.3421 16.2166 28.3835 16.2145 28.425V28.4513C16.2145 28.6814 16.0711 28.7997 15.7911 28.7997C15.7202 28.7917 15.6486 28.7917 15.5777 28.7997C15.5642 28.8028 15.5521 28.8103 15.5436 28.8211C15.5351 28.8319 15.5307 28.8452 15.531 28.8589C15.531 28.8852 15.5477 28.9016 15.581 28.9115C15.6509 28.9175 15.7212 28.9175 15.7911 28.9115C15.9113 28.9007 16.0323 28.9223 16.1412 28.974C16.1757 28.9973 16.203 29.0296 16.2201 29.0673C16.2372 29.105 16.2433 29.1467 16.2378 29.1876C16.2436 29.2327 16.2375 29.2786 16.2199 29.3206C16.2024 29.3627 16.1741 29.3995 16.1378 29.4276C16.0337 29.4953 15.9124 29.5329 15.7877 29.5361ZM15.7877 28.0963C15.5277 28.0963 15.371 28.2245 15.371 28.425V28.4513C15.3642 28.5107 15.3766 28.5707 15.4066 28.6227C15.4365 28.6746 15.4824 28.7159 15.5377 28.7406C15.4276 28.757 15.3743 28.8063 15.3743 28.8951C15.3737 28.9226 15.3812 28.9497 15.3961 28.9731C15.4109 28.9964 15.4323 29.015 15.4576 29.0266C15.4211 29.0481 15.3912 29.0791 15.3712 29.1162C15.3512 29.1532 15.3419 29.195 15.3443 29.2369C15.3417 29.2768 15.3487 29.3167 15.365 29.3533C15.3812 29.3899 15.4062 29.4222 15.4376 29.4473C15.5412 29.4973 15.656 29.5199 15.7711 29.5131C15.8862 29.5215 16.0015 29.4988 16.1045 29.4473C16.1398 29.4192 16.1674 29.3828 16.1849 29.3415C16.2023 29.3001 16.2091 29.2552 16.2045 29.2106C16.2093 29.1702 16.2029 29.1293 16.1859 29.0922C16.1688 29.0551 16.1418 29.0233 16.1078 29.0003C16.004 28.9514 15.8891 28.9299 15.7744 28.9378C15.7035 28.9453 15.6319 28.9453 15.561 28.9378C15.5474 28.9355 15.5351 28.9288 15.526 28.9186C15.5169 28.9084 15.5116 28.8955 15.511 28.8819C15.51 28.8672 15.5145 28.8527 15.5238 28.8412C15.533 28.8296 15.5463 28.8219 15.561 28.8195C15.6319 28.8112 15.7035 28.8112 15.7744 28.8195C15.8923 28.8311 16.0106 28.8008 16.1078 28.734C16.1433 28.7008 16.171 28.6604 16.1888 28.6155C16.2067 28.5706 16.2143 28.5224 16.2112 28.4743V28.4381C16.2135 28.3972 16.2066 28.3562 16.1911 28.3181C16.1755 28.28 16.1516 28.2458 16.1211 28.2179L16.2112 28.1258C16.2312 28.1258 16.2378 28.0963 16.2378 28.0864C16.2367 28.0791 16.2341 28.0721 16.2301 28.0659C16.2261 28.0596 16.2208 28.0543 16.2145 28.0502H16.1978C16.1678 28.0207 16.1512 28.0207 16.1178 28.0502L16.0011 28.1521C15.9339 28.123 15.8611 28.1084 15.7877 28.1094V28.0963ZM15.7877 29.4112C15.561 29.4112 15.4943 29.3717 15.4943 29.2435C15.4907 29.2096 15.4981 29.1753 15.5155 29.1458C15.5329 29.1162 15.5593 29.0929 15.591 29.0792C15.6565 29.0832 15.7222 29.0832 15.7877 29.0792C16.0078 29.0792 16.0845 29.1022 16.0845 29.2304C16.0845 29.3586 16.0111 29.4243 15.7877 29.4243V29.4112ZM15.591 29.0824C15.5608 29.0969 15.5357 29.12 15.5191 29.1487C15.5024 29.1775 15.495 29.2105 15.4977 29.2435C15.4977 29.3684 15.5643 29.4079 15.7877 29.4079C16.0111 29.4079 16.0778 29.3684 16.0778 29.2402C16.0778 29.112 16.0078 29.0923 15.7877 29.0923C15.7223 29.0975 15.6566 29.0986 15.591 29.0956V29.0824ZM15.7877 28.6847C15.5943 28.6847 15.5177 28.6222 15.5177 28.4677V28.4381C15.5177 28.2935 15.6044 28.2245 15.7877 28.2245C15.9711 28.2245 16.0578 28.2968 16.0578 28.4381V28.4644C16.0578 28.6189 15.9811 28.6814 15.7877 28.6814V28.6847ZM15.7877 28.231C15.6077 28.231 15.521 28.3001 15.521 28.4414V28.4677C15.521 28.6189 15.5977 28.6814 15.7877 28.6814C15.9778 28.6814 16.0545 28.6189 16.0545 28.4677V28.4381C16.0545 28.3001 15.9644 28.2278 15.7877 28.2278V28.231Z" fill="#009EDB"/>
<path d="M18.0066 27.943C18.0066 27.9857 18.0066 27.9989 17.9499 27.9989H17.8299V28.6991C17.8299 28.9785 17.6798 29.1166 17.3831 29.1166C17.0863 29.1166 16.9396 28.9785 16.9396 28.6991V28.5117C16.9336 28.4563 16.9404 28.4002 16.9595 28.3478C16.9787 28.2953 17.0096 28.2479 17.0501 28.2089C17.0905 28.17 17.1394 28.1406 17.1931 28.123C17.2467 28.1054 17.3037 28.1001 17.3597 28.1074C17.4236 28.097 17.4891 28.1051 17.5483 28.1308C17.6075 28.1565 17.6578 28.1986 17.6932 28.252V28.0153H17.4164C17.3697 28.0153 17.3597 28.0153 17.3597 27.9594C17.3597 27.9167 17.3597 27.9036 17.4164 27.9036H17.6932V27.7786C17.6932 27.7228 17.6932 27.7129 17.7565 27.7129H17.7498C17.7998 27.7129 17.8165 27.7129 17.8165 27.7786V27.8871H17.9365C17.9799 27.8871 17.9932 27.8871 17.9932 27.943H18.0066ZM17.083 28.6958C17.083 28.8897 17.1497 28.9752 17.3731 28.9752C17.5965 28.9752 17.6665 28.8897 17.6665 28.6958V28.5117C17.6665 28.3177 17.5965 28.2323 17.3731 28.2323C17.1497 28.2323 17.083 28.3177 17.083 28.5117V28.6958Z" fill="#009EDB"/>
<path d="M17.3795 29.1212C17.2588 29.1297 17.1394 29.0921 17.0461 29.016C17.005 28.9721 16.9739 28.9201 16.9549 28.8634C16.9359 28.8067 16.9295 28.7466 16.9361 28.6873V28.4999C16.9299 28.4408 16.9362 28.3811 16.9546 28.3245C16.9729 28.2679 17.003 28.2157 17.0428 28.1712C17.0871 28.1304 17.1399 28.0997 17.1975 28.0809C17.255 28.0622 17.316 28.056 17.3762 28.0627C17.4365 28.0559 17.4976 28.0654 17.5529 28.0903C17.6081 28.1152 17.6554 28.1546 17.6896 28.204V27.9772H17.4129C17.3662 27.9772 17.3529 27.9772 17.3529 27.918C17.3529 27.872 17.3529 27.8589 17.4129 27.8589H17.6863V27.78C17.6863 27.7241 17.6863 27.7109 17.753 27.7109H17.7463C17.7963 27.7109 17.813 27.7109 17.813 27.78V27.8852H17.933C17.9764 27.8852 17.993 27.8852 17.993 27.9443C17.993 27.9871 17.993 28.0035 17.933 28.0035H17.813V28.7004C17.8263 28.9798 17.6763 29.1212 17.3795 29.1212ZM17.3562 28.1087C17.2997 28.1041 17.2428 28.1108 17.189 28.1283C17.1352 28.1458 17.0854 28.1738 17.0428 28.2106C17.0041 28.2557 16.975 28.3081 16.9572 28.3646C16.9394 28.4211 16.9334 28.4805 16.9394 28.5393V28.7267C16.9317 28.7859 16.9373 28.8459 16.9557 28.9027C16.9742 28.9595 17.005 29.0117 17.0461 29.0554C17.1394 29.1313 17.2591 29.1679 17.3795 29.1573C17.4998 29.1668 17.6192 29.1303 17.713 29.0554C17.7543 29.0117 17.7855 28.9597 17.8045 28.9029C17.8235 28.8462 17.8298 28.7861 17.823 28.7267V27.9969H17.9463C17.9864 27.9969 18.003 27.9969 18.003 27.9443C18.003 27.9049 18.003 27.8917 17.9463 27.8917H17.823V27.78C17.823 27.7241 17.823 27.7175 17.7596 27.7175H17.7463C17.6929 27.7175 17.6863 27.7175 17.6863 27.78V27.8917H17.4129C17.3662 27.8917 17.3595 27.8917 17.3595 27.9443C17.3595 27.9838 17.3595 27.9969 17.4129 27.9969H17.6929V28.2468C17.6565 28.194 17.6052 28.1528 17.5454 28.1283C17.4856 28.1038 17.4199 28.097 17.3562 28.1087ZM17.3795 28.993C17.1662 28.993 17.0861 28.9174 17.0861 28.7103V28.5262C17.0861 28.3224 17.1695 28.2435 17.3795 28.2435C17.5896 28.2435 17.6763 28.3224 17.6763 28.5262V28.7103C17.6763 28.9009 17.5929 28.9798 17.3795 28.9798V28.993ZM17.3795 28.25C17.1728 28.25 17.0895 28.3257 17.0895 28.5262V28.7103C17.0895 28.9141 17.1695 28.9864 17.3795 28.9864C17.5896 28.9864 17.6696 28.9141 17.6696 28.7103V28.5262C17.6696 28.3092 17.5929 28.2369 17.3795 28.2369V28.25Z" fill="#009EDB"/>
<path d="M18.0312 28.6967V28.5126C18.0312 28.2331 18.178 28.0918 18.478 28.0918C18.7014 28.0918 18.8314 28.1674 18.8881 28.3088C18.9181 28.3088 18.9481 28.2562 18.9481 28.151C18.9481 28.1214 18.9481 28.1115 18.9948 28.1115H19.0282C19.0648 28.1115 19.0715 28.1115 19.0715 28.151C19.0715 28.312 19.0082 28.3909 18.9115 28.4172C18.915 28.4489 18.915 28.4809 18.9115 28.5126V28.6967C18.9115 28.9794 18.7648 29.1174 18.4714 29.1174C18.178 29.1174 18.0312 28.9728 18.0312 28.6967ZM18.7681 28.5126C18.7681 28.3186 18.6981 28.2331 18.478 28.2331C18.258 28.2331 18.1813 28.3186 18.1813 28.5126V28.6967C18.1813 28.8906 18.258 28.9761 18.478 28.9761C18.6981 28.9761 18.7681 28.8906 18.7681 28.6967V28.5126Z" fill="#009EDB"/>
<path d="M18.4791 29.1193C18.1724 29.1193 18.029 28.9846 18.029 28.6953V28.5112C18.0237 28.4517 18.0311 28.3917 18.0506 28.3351C18.0701 28.2785 18.1014 28.2265 18.1424 28.1825C18.2358 28.1067 18.3551 28.0691 18.4758 28.0773C18.6958 28.0773 18.8092 28.1463 18.8859 28.2942C18.9259 28.2778 18.9426 28.2252 18.9426 28.1397C18.9426 28.1069 18.9426 28.097 18.9926 28.097H19.0259C19.0626 28.097 19.0726 28.097 19.0726 28.1397C19.0726 28.2844 19.0192 28.3764 18.9126 28.4093C18.9143 28.44 18.9143 28.4707 18.9126 28.5013V28.6854C18.9213 28.7438 18.9162 28.8035 18.8977 28.8596C18.8791 28.9157 18.8476 28.9668 18.8055 29.0089C18.7635 29.051 18.7122 29.0828 18.6555 29.102C18.5989 29.1212 18.5385 29.1271 18.4791 29.1193ZM18.4791 28.0937C18.3588 28.0835 18.2391 28.1201 18.1457 28.1956C18.1046 28.2395 18.0735 28.2915 18.0545 28.3482C18.0355 28.4049 18.0291 28.465 18.0357 28.5244V28.7084C18.0357 28.9944 18.1757 29.1259 18.4791 29.1259C18.5994 29.1357 18.7189 29.0992 18.8125 29.024C18.8537 28.9802 18.8848 28.9281 18.9037 28.8714C18.9227 28.8147 18.9291 28.7547 18.9226 28.6953V28.5112C18.9244 28.4795 18.9244 28.4476 18.9226 28.4159C19.0293 28.383 19.0826 28.2942 19.0826 28.1496C19.0826 28.12 19.0826 28.1134 19.0393 28.1134H19.0059C18.9726 28.1134 18.9626 28.1134 18.9626 28.1496C18.9626 28.2384 18.9426 28.291 18.8992 28.3107C18.8259 28.1628 18.6992 28.1069 18.4791 28.1069V28.0937ZM18.4791 28.978C18.2657 28.978 18.1824 28.8991 18.1824 28.6953V28.5112C18.1824 28.3074 18.2624 28.2285 18.4791 28.2285C18.6958 28.2285 18.7692 28.3074 18.7692 28.5112V28.6953C18.7692 28.9024 18.6925 28.978 18.4791 28.978ZM18.4791 28.2351C18.2657 28.2351 18.1857 28.3074 18.1857 28.5112V28.6953C18.1857 28.8958 18.2691 28.9714 18.4791 28.9714C18.6892 28.9714 18.7659 28.8991 18.7659 28.6953V28.5112C18.7659 28.3074 18.6892 28.2351 18.4791 28.2351Z" fill="#009EDB"/>
<path d="M19.2901 29.0352C19.2901 29.0878 19.2901 29.0977 19.2234 29.0977H19.2001C19.1501 29.0977 19.1367 29.0977 19.1367 29.0352V28.4665C19.1367 28.2167 19.2801 28.0918 19.5602 28.0918C19.8402 28.0918 19.9836 28.2233 19.9836 28.4665V29.0352C19.9836 29.0878 19.9836 29.0977 19.9169 29.0977H19.8936C19.8369 29.0977 19.8269 29.0977 19.8269 29.0352V28.4665C19.8269 28.3055 19.7669 28.2331 19.5602 28.2331C19.3534 28.2331 19.2901 28.3088 19.2901 28.4665V29.0352Z" fill="#009EDB"/>
<path d="M19.9132 29.0942H19.8899C19.8332 29.0942 19.8232 29.0942 19.8232 29.0284V28.4663C19.8232 28.2987 19.7498 28.2362 19.5565 28.2362C19.3631 28.2362 19.2864 28.2987 19.2864 28.4663V29.035C19.2864 29.0876 19.2864 29.1008 19.2197 29.1008H19.1964C19.1464 29.1008 19.1297 29.1008 19.1297 29.035V28.4663C19.1297 28.2165 19.2731 28.0883 19.5565 28.0883C19.6159 28.0823 19.6759 28.0879 19.7331 28.1048C19.7904 28.1217 19.8436 28.1496 19.8899 28.1869C19.926 28.2236 19.9536 28.2676 19.9709 28.3158C19.9881 28.3641 19.9946 28.4154 19.9899 28.4663V29.035C19.9799 29.0942 19.9699 29.0942 19.9132 29.0942ZM19.5565 28.2231C19.7532 28.2231 19.8265 28.2888 19.8265 28.4597V29.0284C19.8265 29.081 19.8265 29.0876 19.8899 29.0876H19.9132C19.9666 29.0876 19.9766 29.0876 19.9766 29.0284V28.4663C19.9806 28.4162 19.9741 28.3658 19.9575 28.3183C19.9408 28.2708 19.9144 28.2272 19.8799 28.1902C19.8334 28.1535 19.78 28.1262 19.7228 28.1098C19.6656 28.0935 19.6057 28.0884 19.5465 28.0949C19.4274 28.0816 19.3078 28.1146 19.213 28.1869C19.1759 28.2232 19.1472 28.2669 19.1288 28.3151C19.1104 28.3634 19.1027 28.4149 19.1064 28.4663V29.035C19.1064 29.0876 19.1063 29.0942 19.1697 29.0942H19.193C19.2464 29.0942 19.2564 29.0942 19.2564 29.035V28.4663C19.2831 28.2954 19.3597 28.2296 19.5565 28.2296V28.2231Z" fill="#009EDB"/>
<path d="M21.5746 28.4631C21.5746 28.6932 21.4379 28.8116 21.1578 28.8116C21.0858 28.8038 21.0131 28.8038 20.9411 28.8116C20.9264 28.814 20.9131 28.8217 20.9038 28.8333C20.8946 28.8448 20.89 28.8593 20.8911 28.874C20.8911 28.9003 20.8911 28.92 20.9444 28.9299C21.0154 28.9353 21.0868 28.9353 21.1578 28.9299C21.2725 28.922 21.3874 28.9435 21.4912 28.9924C21.525 29.0164 21.5517 29.0489 21.5687 29.0864C21.5857 29.1239 21.5923 29.1652 21.5879 29.206C21.5925 29.2506 21.5857 29.2955 21.5683 29.3368C21.5508 29.3782 21.5232 29.4146 21.4879 29.4427C21.3856 29.4963 21.27 29.5202 21.1545 29.5117C21.0324 29.5222 20.9098 29.4983 20.801 29.4427C20.7693 29.4177 20.7443 29.3855 20.728 29.3489C20.7117 29.3122 20.7048 29.2722 20.7077 29.2323C20.7051 29.1899 20.7142 29.1476 20.7342 29.1099C20.7542 29.0723 20.7842 29.0407 20.821 29.0187C20.7948 29.0083 20.7726 28.9899 20.7576 28.9663C20.7426 28.9427 20.7357 28.915 20.7377 28.8872C20.7377 28.7984 20.791 28.7458 20.9011 28.7294C20.8449 28.7057 20.798 28.6647 20.7673 28.6126C20.7367 28.5604 20.7239 28.4999 20.731 28.4401V28.4368C20.731 28.2199 20.8877 28.1081 21.1545 28.1081C21.2254 28.1068 21.2958 28.1203 21.3612 28.1475L21.4779 28.0456C21.5112 28.016 21.5279 28.016 21.5612 28.0456C21.5946 28.0752 21.5946 28.0916 21.5612 28.1245L21.4712 28.2166C21.5005 28.2459 21.5233 28.2809 21.5382 28.3194C21.5531 28.3579 21.5598 28.399 21.5579 28.4401L21.5746 28.4631ZM20.9577 29.0745C20.9272 29.0898 20.9018 29.1134 20.8847 29.1426C20.8675 29.1718 20.8593 29.2052 20.8611 29.2389C20.8611 29.3704 20.9377 29.4033 21.1578 29.4033C21.3778 29.4033 21.4479 29.3704 21.4479 29.2356C21.4479 29.1008 21.3745 29.0877 21.1578 29.0877C21.0909 29.0883 21.024 29.0839 20.9577 29.0745ZM21.4145 28.4368C21.4145 28.2955 21.3278 28.2264 21.1511 28.2264C20.9744 28.2264 20.8811 28.2955 20.8811 28.4368V28.4631C20.8811 28.6045 20.9444 28.6768 21.1511 28.6768C21.3578 28.6768 21.4145 28.6045 21.4145 28.4631V28.4368Z" fill="#009EDB"/>
<path d="M21.1577 29.5361C21.036 29.5477 20.9134 29.5249 20.8043 29.4703C20.7717 29.4452 20.7459 29.4126 20.729 29.3753C20.7122 29.3381 20.7048 29.2974 20.7076 29.2567C20.705 29.2142 20.7142 29.1719 20.7341 29.1343C20.7541 29.0966 20.7841 29.0651 20.821 29.043C20.7947 29.0326 20.7725 29.0143 20.7575 28.9906C20.7426 28.967 20.7356 28.9393 20.7376 28.9115C20.7376 28.8238 20.791 28.7712 20.8977 28.7537C20.8424 28.7291 20.7965 28.6878 20.7666 28.6358C20.7366 28.5838 20.7241 28.5238 20.731 28.4644V28.4381C20.7296 28.3898 20.739 28.3418 20.7586 28.2975C20.7782 28.2531 20.8075 28.2136 20.8443 28.1817C20.9349 28.1163 21.0456 28.0838 21.1577 28.0897C21.2287 28.0884 21.2991 28.1019 21.3644 28.1291L21.4811 28.0305C21.5145 27.9976 21.5311 27.9976 21.5645 28.0305C21.5845 28.047 21.5912 28.0568 21.5912 28.07C21.5912 28.0831 21.5912 28.093 21.5645 28.1127L21.4778 28.2015C21.5071 28.2308 21.5299 28.2658 21.5448 28.3043C21.5597 28.3428 21.5664 28.3838 21.5645 28.425V28.4513C21.5645 28.6814 21.4211 28.7997 21.1444 28.7997C21.0724 28.7916 20.9997 28.7916 20.9277 28.7997C20.9142 28.8028 20.9021 28.8103 20.8936 28.8211C20.8851 28.8319 20.8806 28.8452 20.881 28.8589C20.881 28.8852 20.881 28.9016 20.931 28.9115C21.002 28.9175 21.0734 28.9175 21.1444 28.9115C21.2591 28.9036 21.374 28.9251 21.4778 28.974C21.5127 28.9971 21.5405 29.0293 21.5581 29.067C21.5758 29.1047 21.5826 29.1464 21.5778 29.1876C21.5829 29.233 21.5761 29.2789 21.558 29.3209C21.5399 29.363 21.5111 29.3997 21.4745 29.4276C21.38 29.4898 21.271 29.5271 21.1577 29.5361ZM21.1577 28.0963C20.8943 28.0963 20.7376 28.2245 20.7376 28.425V28.4513C20.7308 28.5107 20.7433 28.5707 20.7732 28.6227C20.8032 28.6746 20.8491 28.7159 20.9043 28.7406C20.7943 28.757 20.7443 28.8063 20.7443 28.8951C20.7429 28.9223 20.7498 28.9494 20.7641 28.9728C20.7783 28.9962 20.7993 29.0149 20.8243 29.0266C20.7877 29.0481 20.7578 29.0791 20.7379 29.1162C20.7179 29.1532 20.7086 29.195 20.7109 29.2369C20.7081 29.2772 20.7155 29.3174 20.7323 29.3542C20.7492 29.3909 20.7751 29.4229 20.8076 29.4473C21.0302 29.5351 21.2786 29.5351 21.5011 29.4473C21.5361 29.419 21.5632 29.3825 21.5801 29.3411C21.597 29.2998 21.6031 29.2549 21.5978 29.2106C21.6027 29.1702 21.5962 29.1293 21.5792 29.0922C21.5621 29.0551 21.5352 29.0233 21.5011 29.0003C21.3977 28.9502 21.2825 28.9287 21.1677 28.9378C21.0968 28.9456 21.0252 28.9456 20.9543 28.9378C20.9177 28.9378 20.901 28.9082 20.901 28.8819C20.9 28.8672 20.9045 28.8527 20.9138 28.8412C20.923 28.8296 20.9363 28.8219 20.951 28.8195C21.023 28.8111 21.0957 28.8111 21.1677 28.8195C21.279 28.8267 21.3895 28.7966 21.4811 28.734C21.5166 28.7008 21.5443 28.6604 21.5621 28.6155C21.58 28.5706 21.5876 28.5224 21.5845 28.4743V28.4381C21.5868 28.3972 21.58 28.3562 21.5644 28.3181C21.5488 28.28 21.525 28.2458 21.4945 28.2179L21.5878 28.1258C21.6004 28.1161 21.6087 28.102 21.6112 28.0864C21.6101 28.0791 21.6074 28.0721 21.6034 28.0659C21.5994 28.0596 21.5941 28.0543 21.5878 28.0502C21.5545 28.0174 21.5412 28.0207 21.5045 28.0502L21.3878 28.1521C21.3155 28.1204 21.2367 28.1058 21.1577 28.1094V28.0963ZM21.1577 29.4112C20.9277 29.4112 20.861 29.3717 20.861 29.2435C20.8573 29.2095 20.8648 29.1753 20.8821 29.1458C20.8995 29.1162 20.926 29.0929 20.9577 29.0792C21.0243 29.0833 21.0911 29.0833 21.1577 29.0792C21.3744 29.0792 21.4511 29.1022 21.4511 29.2304C21.4511 29.3586 21.3511 29.4243 21.1577 29.4243V29.4112ZM20.9577 29.0824C20.9275 29.0969 20.9024 29.12 20.8857 29.1487C20.8691 29.1775 20.8616 29.2105 20.8643 29.2435C20.8643 29.3684 20.931 29.4079 21.1577 29.4079C21.3844 29.4079 21.4445 29.3684 21.4445 29.2402C21.4445 29.112 21.3744 29.0923 21.1577 29.0923C21.0912 29.0976 21.0244 29.0986 20.9577 29.0956V29.0824ZM21.1577 28.6847C20.9643 28.6847 20.8843 28.6222 20.8843 28.4677V28.4381C20.8843 28.2935 20.9743 28.2245 21.1577 28.2245C21.3411 28.2245 21.4245 28.2968 21.4245 28.4381V28.4644C21.4145 28.6189 21.3478 28.6814 21.1577 28.6814V28.6847ZM21.1577 28.231C20.9743 28.231 20.8877 28.3001 20.8877 28.4414V28.4677C20.8877 28.6189 20.9643 28.6814 21.1577 28.6814C21.3511 28.6814 21.4211 28.6189 21.4211 28.4677V28.4381C21.4145 28.3001 21.3311 28.2278 21.1577 28.2278V28.231Z" fill="#009EDB"/>
<path d="M21.9813 27.8017C21.9817 27.8145 21.9796 27.8273 21.9749 27.8392C21.9703 27.8512 21.9632 27.8621 21.9542 27.8713C21.9452 27.8805 21.9344 27.8878 21.9224 27.8928C21.9104 27.8978 21.8976 27.9004 21.8846 27.9004C21.8712 27.9008 21.8578 27.8986 21.8453 27.8938C21.8328 27.8891 21.8214 27.8819 21.8117 27.8727C21.8021 27.8635 21.7944 27.8524 21.7892 27.8403C21.7839 27.8281 21.7812 27.815 21.7813 27.8017C21.7821 27.7753 21.7934 27.7502 21.8127 27.7318C21.832 27.7134 21.8578 27.7031 21.8846 27.7031C21.9106 27.704 21.9352 27.7147 21.9532 27.7331C21.9712 27.7515 21.9813 27.7761 21.9813 27.8017ZM21.8079 28.1732C21.8079 28.1239 21.8079 28.1107 21.8713 28.1107H21.8946C21.9446 28.1107 21.958 28.1107 21.958 28.1732V29.0345C21.958 29.0871 21.958 29.0969 21.8946 29.0969H21.8713C21.8146 29.0969 21.8079 29.0969 21.8079 29.0345V28.1732Z" fill="#009EDB"/>
<path d="M21.8968 29.0944H21.8735C21.8168 29.0944 21.8068 29.0944 21.8068 29.0286V28.1739C21.8068 28.1246 21.8068 28.1082 21.8735 28.1082H21.8968C21.9468 28.1082 21.9635 28.1082 21.9635 28.1739V29.0352C21.9635 29.0944 21.9468 29.0944 21.8968 29.0944ZM21.8735 28.1082C21.8201 28.1082 21.8101 28.1082 21.8101 28.1673V29.0286C21.8101 29.0812 21.8101 29.0878 21.8735 29.0878H21.8968C21.9435 29.0878 21.9568 29.0878 21.9568 29.0286V28.1739C21.9568 28.1279 21.9568 28.1147 21.8968 28.1147L21.8735 28.1082ZM21.8735 27.8945C21.8469 27.8945 21.8215 27.8841 21.8027 27.8656C21.784 27.8471 21.7734 27.822 21.7734 27.7959C21.7734 27.7697 21.784 27.7446 21.8027 27.7262C21.8215 27.7077 21.8469 27.6973 21.8735 27.6973C21.9 27.6973 21.9254 27.7077 21.9442 27.7262C21.9629 27.7446 21.9735 27.7697 21.9735 27.7959C21.9735 27.822 21.9629 27.8471 21.9442 27.8656C21.9254 27.8841 21.9 27.8945 21.8735 27.8945ZM21.8735 27.7006C21.8608 27.7006 21.8482 27.703 21.8365 27.7078C21.8247 27.7126 21.8141 27.7196 21.8051 27.7285C21.7961 27.7373 21.789 27.7478 21.7841 27.7594C21.7793 27.771 21.7768 27.7834 21.7768 27.7959C21.7768 27.8084 21.7793 27.8208 21.7841 27.8324C21.789 27.8439 21.7961 27.8544 21.8051 27.8633C21.8141 27.8721 21.8247 27.8792 21.8365 27.884C21.8482 27.8887 21.8608 27.8912 21.8735 27.8912C21.8991 27.8912 21.9237 27.8812 21.9418 27.8633C21.96 27.8454 21.9702 27.8212 21.9702 27.7959C21.9702 27.7706 21.96 27.7464 21.9418 27.7285C21.9237 27.7106 21.8991 27.7006 21.8735 27.7006Z" fill="#009EDB"/>
<path d="M22.9832 28.8026C22.9832 29.0261 22.8532 29.1313 22.5598 29.1313C22.3264 29.1313 22.1797 29.0393 22.1797 28.8322C22.1797 28.6251 22.3164 28.5396 22.5931 28.5396H22.8332V28.4048C22.8332 28.27 22.7365 28.224 22.5664 28.224C22.4914 28.2236 22.4164 28.2313 22.3431 28.247C22.293 28.247 22.2764 28.247 22.2764 28.1977V28.1813C22.2764 28.1353 22.2764 28.1221 22.3397 28.1123C22.4122 28.0986 22.486 28.092 22.5598 28.0925C22.8432 28.0925 22.9832 28.1977 22.9832 28.4048V28.8026ZM22.8332 28.6448H22.5931C22.4131 28.6448 22.3297 28.6941 22.3297 28.819C22.3297 28.9439 22.4064 28.99 22.5598 28.99C22.7132 28.99 22.8332 28.9472 22.8332 28.796V28.6448ZM22.5931 27.9873C22.5564 27.9873 22.5531 27.9873 22.5464 27.9479C22.5398 27.9084 22.5765 27.869 22.6365 27.8065C22.6507 27.7949 22.6602 27.7785 22.6631 27.7605C22.6631 27.7244 22.6631 27.7079 22.6265 27.7079C22.5969 27.7009 22.566 27.7009 22.5364 27.7079C22.5131 27.7079 22.4964 27.7079 22.4831 27.6882V27.6718C22.4831 27.6422 22.4831 27.629 22.5131 27.6192C22.5509 27.603 22.5919 27.5951 22.6331 27.5962C22.653 27.5945 22.6729 27.5973 22.6915 27.6042C22.7101 27.6112 22.7269 27.6222 22.7407 27.6364C22.7544 27.6505 22.7648 27.6676 22.771 27.6862C22.7772 27.7049 22.7791 27.7246 22.7765 27.7441C22.7765 27.8296 22.6565 27.8657 22.6531 27.9315C22.6518 27.9414 22.6471 27.9507 22.6399 27.9578C22.6327 27.965 22.6233 27.9696 22.6131 27.9709L22.5931 27.9873Z" fill="#009EDB"/>
<path d="M22.5592 29.1188C22.3091 29.1188 22.1758 29.0136 22.1758 28.8164C22.1758 28.6192 22.3025 28.5206 22.5926 28.5206H22.8293V28.4022C22.8293 28.2773 22.7493 28.2247 22.5659 28.2247C22.4909 28.2237 22.4161 28.2303 22.3425 28.2444C22.3158 28.2444 22.2991 28.2444 22.2891 28.2444C22.2791 28.2444 22.2891 28.2214 22.2891 28.1984V28.182C22.2891 28.136 22.2891 28.1228 22.3525 28.1097C22.425 28.0957 22.4987 28.089 22.5725 28.0899C22.856 28.0899 22.9993 28.1984 22.9993 28.4187V28.8164C22.986 29.0202 22.8526 29.1188 22.5592 29.1188ZM22.5926 28.5271C22.3058 28.5271 22.1791 28.6159 22.1791 28.8164C22.1791 29.0169 22.3091 29.1123 22.5592 29.1123C22.6754 29.1243 22.7923 29.099 22.8926 29.0399C22.9288 29.0116 22.9572 28.9748 22.9753 28.9329C22.9933 28.891 23.0004 28.8453 22.996 28.8V28.4022C22.9986 28.3577 22.9903 28.3132 22.9717 28.2726C22.9532 28.2319 22.9249 28.1963 22.8893 28.1688C22.794 28.1125 22.6835 28.0861 22.5725 28.0932C22.4987 28.0923 22.425 28.0989 22.3525 28.1129C22.3025 28.1129 22.2925 28.1327 22.2925 28.1787V28.1951C22.2925 28.2181 22.2925 28.2313 22.2925 28.2379C22.2925 28.2444 22.3158 28.2379 22.3425 28.2379C22.4159 28.2223 22.4908 28.2146 22.5659 28.2148C22.7526 28.2148 22.8326 28.2707 22.8326 28.3989V28.5238L22.5926 28.5271ZM22.5592 28.9874C22.4025 28.9874 22.3292 28.9315 22.3292 28.8164C22.3292 28.7014 22.4092 28.6389 22.5926 28.6389H22.8326V28.7934C22.8326 28.9545 22.7293 28.9874 22.5592 28.9874ZM22.5926 28.6586C22.4092 28.6586 22.3325 28.7079 22.3325 28.8296C22.3325 28.9512 22.4058 28.9972 22.5592 28.9972C22.7126 28.9972 22.8293 28.9446 22.8293 28.8066V28.6586H22.5926ZM22.5926 28.0012C22.5525 28.0012 22.5492 28.0012 22.5425 27.9617C22.5359 27.9223 22.5625 27.8894 22.6059 27.8434L22.6359 27.8138C22.6425 27.8086 22.6479 27.8021 22.6519 27.7948C22.656 27.7874 22.6584 27.7794 22.6592 27.7711C22.6592 27.7349 22.6592 27.7218 22.6259 27.7185C22.5991 27.7192 22.5729 27.726 22.5492 27.7382C22.5225 27.7382 22.5059 27.7382 22.4892 27.7152V27.6987C22.4892 27.6659 22.4892 27.656 22.5192 27.6461C22.557 27.63 22.598 27.6221 22.6392 27.6231C22.6781 27.622 22.716 27.6349 22.7459 27.6593C22.7595 27.6745 22.7697 27.6922 22.776 27.7114C22.7823 27.7307 22.7846 27.751 22.7826 27.7711C22.7796 27.7931 22.7721 27.8144 22.7607 27.8336C22.7492 27.8528 22.734 27.8695 22.7159 27.8828C22.6882 27.9003 22.668 27.9272 22.6592 27.9584C22.6585 27.9686 22.654 27.9782 22.6467 27.9855C22.6393 27.9927 22.6296 27.9971 22.6192 27.9979L22.5926 28.0012ZM22.6159 27.7152C22.6359 27.7152 22.6559 27.7152 22.6559 27.7711C22.6529 27.7891 22.6435 27.8054 22.6292 27.8171L22.5992 27.8467C22.5559 27.8894 22.5325 27.9124 22.5359 27.9584C22.5392 28.0045 22.5359 27.9946 22.5826 27.9946C22.5918 27.9933 22.6004 27.989 22.607 27.9825C22.6136 27.976 22.6179 27.9676 22.6192 27.9584C22.6279 27.9263 22.648 27.8982 22.6759 27.8795C22.6947 27.8685 22.7109 27.8538 22.7235 27.8362C22.7361 27.8187 22.7449 27.7987 22.7493 27.7776C22.7509 27.758 22.7486 27.7383 22.7423 27.7197C22.7359 27.701 22.7259 27.6838 22.7126 27.6692C22.6844 27.6441 22.6472 27.6311 22.6092 27.633C22.568 27.632 22.527 27.6398 22.4892 27.656C22.4659 27.656 22.4525 27.6757 22.4625 27.7053C22.4625 27.7349 22.4925 27.7349 22.5159 27.7283C22.5472 27.7145 22.582 27.7099 22.6159 27.7152Z" fill="#009EDB"/>
<path d="M23.3526 29.0352C23.3526 29.0878 23.3526 29.0977 23.2859 29.0977H23.2626C23.2126 29.0977 23.1992 29.0977 23.1992 29.0352V28.4665C23.1992 28.2167 23.3426 28.0918 23.6227 28.0918C23.9027 28.0918 24.0461 28.2233 24.0461 28.4665V29.0352C24.0461 29.0878 24.0461 29.0977 23.9794 29.0977H23.9561C23.8994 29.0977 23.8894 29.0977 23.8894 29.0352V28.4665C23.8894 28.3055 23.8294 28.2331 23.6227 28.2331C23.4159 28.2331 23.3526 28.3088 23.3526 28.4665V29.0352Z" fill="#009EDB"/>
<path d="M23.9796 29.0942H23.9563C23.8996 29.0942 23.8896 29.0942 23.8896 29.0284V28.4663C23.8896 28.2987 23.8163 28.2362 23.6229 28.2362C23.4295 28.2362 23.3528 28.2987 23.3528 28.4663V29.035C23.3528 29.0876 23.3528 29.1008 23.2861 29.1008H23.2628C23.2128 29.1008 23.1961 29.1008 23.1961 29.035V28.4663C23.1961 28.2165 23.3395 28.0883 23.6229 28.0883C23.6823 28.0823 23.7423 28.0879 23.7996 28.1048C23.8568 28.1217 23.91 28.1496 23.9563 28.1869C23.9924 28.2236 24.02 28.2676 24.0373 28.3158C24.0545 28.3641 24.061 28.4154 24.0563 28.4663V29.035C24.0463 29.0942 24.0363 29.0942 23.9796 29.0942ZM23.6229 28.2231C23.8196 28.2231 23.8929 28.2888 23.8929 28.4597V29.0284C23.8929 29.081 23.8929 29.0876 23.9563 29.0876H23.9796C24.033 29.0876 24.043 29.0876 24.043 29.0284V28.4663C24.047 28.4162 24.0405 28.3658 24.0239 28.3183C24.0072 28.2708 23.9808 28.2272 23.9463 28.1902C23.8998 28.1535 23.8464 28.1262 23.7892 28.1098C23.732 28.0935 23.6721 28.0884 23.6129 28.0949C23.4938 28.0816 23.3742 28.1146 23.2794 28.1869C23.2423 28.2232 23.2136 28.2669 23.1952 28.3151C23.1768 28.3634 23.1691 28.4149 23.1728 28.4663V29.035C23.1728 29.0876 23.1894 29.0942 23.2361 29.0942H23.2594C23.3128 29.0942 23.3228 29.0942 23.3228 29.035V28.4663C23.3495 28.2954 23.4162 28.2296 23.6229 28.2296V28.2231Z" fill="#009EDB"/>
<path d="M24.8438 27.7786C24.8438 27.7228 24.8438 27.7129 24.9104 27.7129H24.9338C24.9871 27.7129 24.9971 27.7129 24.9971 27.7786V28.2421C25.0356 28.1925 25.0867 28.1539 25.1453 28.1302C25.2039 28.1065 25.2678 28.0986 25.3305 28.1074C25.5773 28.1074 25.704 28.2224 25.704 28.4591V29.0508C25.704 29.1034 25.704 29.1133 25.6406 29.1133H25.6139C25.5606 29.1133 25.5506 29.1133 25.5506 29.0508V28.4591C25.5506 28.3013 25.4772 28.2323 25.2905 28.2323C25.1038 28.2323 25.0105 28.3079 25.0105 28.492V29.0344C25.0105 29.087 25.0105 29.0968 24.9471 29.0968H24.9238C24.8704 29.0968 24.8571 29.0968 24.8571 29.0344L24.8438 27.7786Z" fill="#009EDB"/>
<path d="M25.6273 29.0949H25.6006C25.5473 29.0949 25.5339 29.0949 25.5339 29.0291V28.4604C25.5339 28.2994 25.4606 28.2369 25.2772 28.2369C25.0938 28.2369 25.0005 28.3125 25.0005 28.4933V29.0357C25.0005 29.0883 25.0005 29.1014 24.9338 29.1014H24.9104C24.8604 29.1014 24.8438 29.1014 24.8438 29.0357V27.78C24.8438 27.7208 24.8438 27.7109 24.9104 27.7109H24.9338C24.9871 27.7109 25.0005 27.7109 25.0005 27.78V28.2369C25.0395 28.1881 25.0908 28.1503 25.1494 28.1273C25.2079 28.1042 25.2715 28.0966 25.3339 28.1054C25.5839 28.1054 25.7106 28.2237 25.7106 28.4604V29.0521C25.694 29.0949 25.6806 29.0949 25.6273 29.0949ZM25.2939 28.2237C25.4806 28.2237 25.5573 28.2928 25.5573 28.4539V29.0291C25.5573 29.0817 25.5573 29.0883 25.6173 29.0883H25.644C25.6973 29.0883 25.704 29.0883 25.704 29.0291V28.4374C25.704 28.204 25.5806 28.089 25.3339 28.089C25.2712 28.0802 25.2072 28.0881 25.1486 28.1118C25.09 28.1355 25.0389 28.1741 25.0005 28.2237V27.78C25.0005 27.7274 25.0005 27.7175 24.9404 27.7175H24.9171C24.8671 27.7175 24.8538 27.7175 24.8538 27.78V29.0521C24.8538 29.1047 24.8538 29.1113 24.9171 29.1113H24.9404C24.9905 29.1113 25.0005 29.1113 25.0005 29.0521V28.4933C24.9938 28.3092 25.0838 28.2303 25.2772 28.2303L25.2939 28.2237Z" fill="#009EDB"/>
<path d="M25.9062 28.6969V28.5128C25.9062 28.2334 26.053 28.092 26.353 28.092C26.436 28.0799 26.5206 28.0945 26.5945 28.1336C26.6684 28.1727 26.7275 28.2342 26.7631 28.309C26.7931 28.309 26.8231 28.2564 26.8231 28.1512C26.8231 28.1216 26.8231 28.1117 26.8698 28.1117H26.9032C26.9398 28.1117 26.9465 28.1117 26.9465 28.1512C26.9465 28.3123 26.8798 28.3912 26.7865 28.4175C26.79 28.4491 26.79 28.4811 26.7865 28.5128V28.6969C26.7865 28.9796 26.6398 29.1176 26.3464 29.1176C26.053 29.1176 25.9062 28.973 25.9062 28.6969ZM26.6431 28.5128C26.6431 28.3188 26.5731 28.2334 26.353 28.2334C26.133 28.2334 26.0563 28.3188 26.0563 28.5128V28.6969C26.0563 28.8908 26.1296 28.9763 26.353 28.9763C26.5764 28.9763 26.6431 28.8908 26.6431 28.6969V28.5128Z" fill="#009EDB"/>
<path d="M26.3541 29.1193C26.0474 29.1193 25.904 28.9846 25.904 28.6953V28.5112C25.8987 28.4517 25.9061 28.3917 25.9256 28.3351C25.9451 28.2785 25.9764 28.2265 26.0174 28.1825C26.1108 28.1067 26.2301 28.0691 26.3508 28.0773C26.5708 28.0773 26.7009 28.1463 26.7609 28.2942C26.8009 28.2778 26.8176 28.2252 26.8176 28.1397C26.8176 28.1069 26.8176 28.097 26.8676 28.097H26.9009C26.9376 28.097 26.9476 28.097 26.9476 28.1397C26.9476 28.2844 26.8943 28.3764 26.7876 28.4093C26.7893 28.44 26.7893 28.4707 26.7876 28.5013V28.6854C26.7963 28.7438 26.7912 28.8035 26.7727 28.8596C26.7541 28.9157 26.7226 28.9668 26.6805 29.0089C26.6385 29.051 26.5872 29.0828 26.5305 29.102C26.4739 29.1212 26.4135 29.1271 26.3541 29.1193ZM26.3541 28.0937C26.2338 28.0835 26.1141 28.1201 26.0207 28.1956C25.9796 28.2395 25.9485 28.2915 25.9295 28.3482C25.9105 28.4049 25.9041 28.465 25.9107 28.5244V28.7084C25.9107 28.9944 26.0507 29.1259 26.3541 29.1259C26.4744 29.1357 26.5939 29.0992 26.6875 29.024C26.7287 28.9802 26.7597 28.9281 26.7787 28.8714C26.7977 28.8147 26.8041 28.7547 26.7976 28.6953V28.5112C26.7993 28.4794 26.7993 28.4476 26.7976 28.4159C26.9043 28.383 26.9543 28.2942 26.9543 28.1496C26.9543 28.12 26.9543 28.1134 26.9143 28.1134H26.8809C26.8476 28.1134 26.8376 28.1134 26.8376 28.1496C26.8376 28.2384 26.8176 28.291 26.7742 28.3107C26.7009 28.1628 26.5742 28.1069 26.3541 28.1069V28.0937ZM26.3541 28.978C26.1407 28.978 26.0574 28.8991 26.0574 28.6953V28.5112C26.0574 28.3074 26.1374 28.2285 26.3541 28.2285C26.5708 28.2285 26.6442 28.3074 26.6442 28.5112V28.6953C26.6442 28.9024 26.5675 28.978 26.3541 28.978ZM26.3541 28.2351C26.1407 28.2351 26.0607 28.3074 26.0607 28.5112V28.6953C26.0607 28.8958 26.1441 28.9714 26.3541 28.9714C26.5642 28.9714 26.6409 28.8991 26.6409 28.6953V28.5112C26.6409 28.3074 26.5642 28.2351 26.3541 28.2351Z" fill="#009EDB"/>
<path d="M27.1668 29.0352C27.1668 29.0878 27.1668 29.0977 27.1001 29.0977H27.0868C27.0368 29.0977 27.0234 29.0977 27.0234 29.0352V28.4665C27.0234 28.2167 27.1635 28.0918 27.4469 28.0918C27.7303 28.0918 27.8703 28.2233 27.8703 28.4665V29.0352C27.8703 29.0878 27.8703 29.0977 27.8036 29.0977H27.7803C27.7236 29.0977 27.7136 29.0977 27.7136 29.0352V28.4665C27.7136 28.3055 27.6536 28.2331 27.4469 28.2331C27.2402 28.2331 27.1768 28.3088 27.1768 28.4665L27.1668 29.0352Z" fill="#009EDB"/>
<path d="M27.7921 29.0942H27.7688C27.7121 29.0942 27.7021 29.0942 27.7021 29.0284V28.4663C27.7021 28.2987 27.6288 28.2362 27.4354 28.2362C27.242 28.2362 27.1653 28.2987 27.1653 28.4663V29.035C27.1653 29.0876 27.1653 29.1008 27.0986 29.1008H27.0853C27.0353 29.1008 27.0186 29.1008 27.0186 29.035V28.4663C27.0186 28.2165 27.162 28.0883 27.4454 28.0883C27.5048 28.0823 27.5648 28.0879 27.6221 28.1048C27.6793 28.1217 27.7325 28.1496 27.7788 28.1869C27.8149 28.2236 27.8425 28.2676 27.8598 28.3158C27.877 28.3641 27.8835 28.4154 27.8788 28.4663V29.035C27.8588 29.0942 27.8488 29.0942 27.7921 29.0942ZM27.4354 28.2231C27.6321 28.2231 27.7054 28.2888 27.7054 28.4597V29.0284C27.7054 29.081 27.7054 29.0876 27.7688 29.0876H27.7921C27.8455 29.0876 27.8555 29.0876 27.8555 29.0284V28.4663C27.8595 28.4162 27.853 28.3658 27.8364 28.3183C27.8197 28.2708 27.7933 28.2272 27.7588 28.1902C27.7123 28.1535 27.6589 28.1262 27.6017 28.1098C27.5445 28.0935 27.4846 28.0884 27.4254 28.0949C27.3063 28.0816 27.1867 28.1146 27.092 28.1869C27.0548 28.2232 27.0261 28.2669 27.0077 28.3151C26.9893 28.3634 26.9816 28.4149 26.9853 28.4663V29.035C26.9853 29.0876 27.0019 29.0942 27.0486 29.0942H27.0853C27.1386 29.0942 27.1486 29.0942 27.1486 29.035V28.4663C27.162 28.2954 27.2387 28.2296 27.4354 28.2296V28.2231Z" fill="#009EDB"/>
</svg>
