<svg width="32" height="30" viewBox="0 0 32 30" fill="none" xmlns="http://www.w3.org/2000/svg">
<path d="M10.748 30.001C11.9907 30.001 12.998 28.9936 12.998 27.751C12.998 26.5083 11.9907 25.501 10.748 25.501C9.50541 25.501 8.49805 26.5083 8.49805 27.751C8.49805 28.9936 9.50541 30.001 10.748 30.001Z" fill="#363A42"/>
<path d="M25.749 30.001C26.9917 30.001 27.999 28.9936 27.999 27.751C27.999 26.5083 26.9917 25.501 25.749 25.501C24.5064 25.501 23.499 26.5083 23.499 27.751C23.499 28.9936 24.5064 30.001 25.749 30.001Z" fill="#363A42"/>
<path d="M0.999023 1.5H4.31331L9.57045 18.9066C9.70109 19.5051 10.0589 20.0427 10.5812 20.4253C11.1036 20.808 11.7572 21.0112 12.4276 20.9995C13.098 20.9878 24.0705 20.9995 25.2847 20.9995C26.499 20.9995 26.9558 20.6007 27.1311 20.4253C27.3064 20.25 28.0112 19.5051 28.1419 18.9066C28.2725 18.3081 30.999 6.69987 30.999 6.69987H7.17045" stroke="#363A42" stroke-width="2" stroke-linecap="round" stroke-linejoin="round"/>
</svg>
