<svg width="212" height="180" viewBox="0 0 212 180" fill="none" xmlns="http://www.w3.org/2000/svg">
<g clip-path="url(#clip0_2533_577479)">
<path d="M150.194 165.953H145.465V166.089H150.194V165.953Z" fill="#D4D7DE"/>
<path d="M30.3015 160.338H26.8572V160.474H30.3015V160.338Z" fill="#D4D7DE"/>
<path d="M92.4786 162.635H41.5051V162.771H92.4786V162.635Z" fill="#D4D7DE"/>
<path d="M41.0696 12.0645L45.0417 9.51758L47.2073 13.7081L51.9195 13.4904L51.7018 18.2033L55.8916 20.3693L53.3451 24.3421L55.8916 28.3094L51.7018 30.4808L51.9195 35.1938L47.2073 34.9706L45.0417 39.1611L41.0696 36.6142L37.103 39.1611L34.9374 34.9706L30.2253 35.1938L30.4429 30.4808L26.2532 28.3094L28.7997 24.3421L26.2532 20.3693L30.4429 18.2033L30.2253 13.4904L34.9374 13.7081L37.103 9.51758L41.0696 12.0645Z" fill="#D4D7DE"/>
<path d="M39.5678 30.4041L34.8503 25.6857C34.3116 25.1469 34.3116 24.2707 34.8503 23.732C35.389 23.1932 36.265 23.1932 36.8037 23.732L39.5678 26.4966L45.341 20.7224C45.8797 20.1837 46.7557 20.1837 47.2944 20.7224C47.8331 21.2612 47.8331 22.1374 47.2944 22.6762L39.5678 30.4041Z" fill="white"/>
<path d="M188.631 53.7199L191.743 51.7227L193.441 55.0097L197.141 54.8356L196.966 58.5363L200.253 60.2342L198.256 63.3471L200.253 66.4601L196.966 68.158L197.141 71.8587L193.441 71.6846L191.743 74.9716L188.631 72.9744L185.518 74.9716L183.82 71.6846L180.12 71.8587L180.295 68.158L177.008 66.4601L179.005 63.3471L177.008 60.2342L180.295 58.5363L180.12 54.8356L183.82 55.0097L185.518 51.7227L188.631 53.7199Z" fill="#D4D7DE"/>
<path d="M187.45 68.1031L183.75 64.4025C183.325 63.978 183.325 63.2923 183.75 62.8678C184.174 62.4433 184.86 62.4433 185.284 62.8678L187.45 65.0338L191.977 60.5059C192.401 60.0814 193.087 60.0814 193.511 60.5059C193.936 60.9304 193.936 61.6161 193.511 62.0406L187.45 68.1031Z" fill="white"/>
<path d="M41.4725 105.964L47.5395 109.061C48.5624 109.583 49.8085 109.366 50.5974 108.522L55.2388 103.537C55.7884 102.944 56.0332 102.128 55.8918 101.333L53.4759 87.6461C53.0786 85.4093 50.9457 83.9127 48.7093 84.31L41.0263 85.6651C38.79 86.0624 37.2936 88.1957 37.6908 90.4324L40.1068 104.12C40.2482 104.914 40.7543 105.6 41.4725 105.97V105.964ZM48.3829 104.903C49.0848 104.778 49.7541 105.246 49.8792 105.954C50.0043 106.656 49.5364 107.325 48.829 107.45C48.1271 107.575 47.4579 107.107 47.3327 106.4C47.2076 105.698 47.6755 105.028 48.3829 104.903Z" fill="#D4D7DE"/>
<path d="M41.7757 101.729L53.5164 99.6582L53.2924 98.388L41.5518 100.459L41.7757 101.729Z" fill="white"/>
<path d="M39.7821 90.4416L51.5227 88.3711L51.2988 87.1009L39.5582 89.1714L39.7821 90.4416Z" fill="white"/>
<path d="M62.2089 17.3443L66.3824 21.8233C67.0897 22.5797 68.2106 22.7756 69.1302 22.3076L74.5877 19.5267C75.2352 19.1947 75.6923 18.5797 75.8174 17.8668L77.9885 5.55659C78.3422 3.54298 76.9982 1.62734 74.9904 1.27359L68.08 0.0545471C66.0668 -0.299194 64.1514 1.04502 63.7978 3.05319L61.6267 15.3634C61.5016 16.0818 61.7192 16.811 62.2144 17.3443H62.2089ZM68.3738 18.5743C69.005 18.6831 69.4294 19.2872 69.3152 19.9185C69.2064 20.5498 68.6024 20.9743 67.9712 20.86C67.34 20.7511 66.9156 20.1471 67.0299 19.5158C67.1387 18.8845 67.7427 18.46 68.3738 18.5743Z" fill="#F4F5F6"/>
<path d="M63.7639 13.8629L74.3203 15.7246L74.5216 14.583L63.9652 12.7213L63.7639 13.8629Z" fill="white"/>
<path d="M65.5557 3.71252L76.1121 5.57422L76.3133 4.43265L65.7569 2.57095L65.5557 3.71252Z" fill="white"/>
<path d="M163.34 4.07097C161.729 1.76893 158.551 1.20838 156.25 2.81927L154.095 4.33219L152.582 2.17709C150.972 -0.124952 147.794 -0.685496 145.492 0.925388C143.191 2.53627 142.63 5.7145 144.241 8.01655L151.592 18.5199L162.094 11.1676C164.395 9.55668 164.956 6.37845 163.345 4.07641L163.34 4.07097Z" fill="#D4D7DE"/>
<path d="M178.434 5.0498C177.645 3.92327 176.088 3.64572 174.962 4.43483L173.906 5.17497L173.166 4.11918C172.377 2.99265 170.821 2.7151 169.695 3.50422C168.569 4.29333 168.291 5.8498 169.08 6.97633L172.677 12.1192L177.819 8.52191C178.945 7.73279 179.223 6.17633 178.434 5.0498Z" fill="#D4D7DE"/>
<path d="M17.5038 55.0149C10.1908 57.1102 5.96292 64.7455 8.05779 72.0598C9.4181 76.8108 17.7486 84.7782 23.4238 89.7741C25.954 92 29.9424 90.8571 30.9055 87.6299C33.0657 80.3864 35.9114 69.2136 34.5457 64.4625C32.4508 57.1483 24.8168 52.9197 17.5038 55.0149ZM23.0538 74.3727C19.6803 75.3415 16.1543 73.3877 15.1912 70.0136C14.2227 66.6394 16.1761 63.1129 19.5497 62.1496C22.9232 61.1809 26.4491 63.1346 27.4122 66.5088C28.3808 69.8829 26.4274 73.4095 23.0538 74.3727Z" fill="#B1B5C3"/>
<path d="M19.6586 54.3997C12.3455 56.4949 8.1177 64.1303 10.2126 71.4446C11.5729 76.1956 19.9034 84.1629 25.5786 89.1589C28.1088 91.3847 32.0972 90.2419 33.0603 87.0146C35.2205 79.7711 38.0662 68.5983 36.7005 63.8473C34.6056 56.533 26.9716 52.3044 19.6586 54.3997ZM25.2086 73.7575C21.835 74.7262 18.3091 72.7725 17.346 69.3983C16.3775 66.0242 18.3309 62.4976 21.7045 61.5344C25.078 60.5657 28.6039 62.5194 29.567 65.8936C30.5301 69.2677 28.5822 72.7942 25.2086 73.7575Z" fill="#F4F5F6"/>
<path d="M178.319 20.0058C171.953 18.1772 165.309 21.8616 163.481 28.2344C162.295 32.3704 164.771 42.0956 166.653 48.4085C167.491 51.2221 170.963 52.218 173.166 50.2752C178.107 45.9214 185.36 38.9881 186.546 34.8466C188.375 28.4792 184.691 21.8343 178.319 20.0058ZM173.487 36.8602C170.549 36.0167 168.846 32.9527 169.69 30.0085C170.533 27.0697 173.596 25.3663 176.54 26.2099C179.478 27.0534 181.181 30.1173 180.338 33.0616C179.495 36.0058 176.431 37.7037 173.487 36.8602Z" fill="#B1B5C3"/>
<path d="M180.196 20.5448C173.83 18.7163 167.187 22.4006 165.358 28.7734C164.172 32.9095 166.648 42.6346 168.53 48.9476C169.368 51.7612 172.84 52.7571 175.044 50.8142C179.984 46.4605 187.237 39.5272 188.424 35.3857C190.252 29.0183 186.568 22.3734 180.196 20.5448ZM175.365 37.3993C172.426 36.5557 170.723 33.4918 171.567 30.5476C172.41 27.6088 175.473 25.9054 178.417 26.7489C181.355 27.5925 183.059 30.6564 182.215 33.6006C181.372 36.5394 178.308 38.2428 175.365 37.3993Z" fill="#F4F5F6"/>
<path d="M106 179.995C164.266 179.995 211.5 177.237 211.5 173.834C211.5 170.432 164.266 167.674 106 167.674C47.734 167.674 0.5 170.432 0.5 173.834C0.5 177.237 47.734 179.995 106 179.995Z" fill="#F4F5F6"/>
<path d="M72.5364 49.8555H78.3585C79.6046 49.8555 80.5296 50.8677 80.4153 52.114L79.3434 64.397C79.2346 65.6432 78.1355 66.6555 76.8894 66.6555H71.0673C69.8213 66.6555 68.8963 65.6432 69.0105 64.397L70.0824 52.114C70.1913 50.8677 71.2904 49.8555 72.5364 49.8555Z" fill="#777E90"/>
<path opacity="0.2" d="M137.668 47.2266H146.766C148.714 47.2266 150.156 48.8048 149.981 50.7531L148.861 63.5803C148.692 65.5286 146.972 67.1068 145.025 67.1068H135.927C133.979 67.1068 132.537 65.5286 132.711 63.5803L133.832 50.7531C134.001 48.8048 135.72 47.2266 137.668 47.2266Z" fill="#B1B5C3"/>
<path opacity="0.2" d="M135.802 68.5449H144.899C146.847 68.5449 148.289 70.1232 148.115 72.0715L146.994 84.8987C146.825 86.847 145.106 88.4252 143.158 88.4252H134.06C132.112 88.4252 130.67 86.847 130.845 84.8987L131.965 72.0715C132.134 70.1232 133.854 68.5449 135.802 68.5449Z" fill="#B1B5C3"/>
<path d="M88.8656 23.1836H139.556C146.602 23.1836 151.81 28.8924 151.195 35.9401L140.378 159.57C139.763 166.618 133.549 172.326 126.508 172.326H75.8175C68.7711 172.326 63.5638 166.618 64.1787 159.57L74.9904 35.9401C75.6053 28.8924 81.8192 23.1836 88.8601 23.1836H88.8656Z" fill="#777E90"/>
<path opacity="0.2" d="M88.8656 23.1836H139.556C146.602 23.1836 151.81 28.8924 151.195 35.9401L140.378 159.57C139.763 166.618 133.549 172.326 126.508 172.326H75.8175C68.7711 172.326 63.5638 166.618 64.1787 159.57L74.9904 35.9401C75.6053 28.8924 81.8192 23.1836 88.8601 23.1836H88.8656Z" fill="#B1B5C3"/>
<path d="M87.2278 23.1836H137.918C144.965 23.1836 150.172 28.8924 149.557 35.9401L138.745 159.57C138.13 166.618 131.917 172.326 124.876 172.326H74.1852C67.1388 172.326 61.9315 166.618 62.5464 159.57L73.3635 35.9401C73.9784 28.8924 80.1923 23.1836 87.2332 23.1836H87.2278Z" fill="#777E90"/>
<path d="M148.039 35.9393L137.227 159.564C136.683 165.768 131.215 170.802 125.012 170.802H74.3212C68.1182 170.802 63.5258 165.773 64.0699 159.564L74.8816 35.9393C75.4257 29.7352 80.8942 24.7012 87.0972 24.7012H137.788C143.991 24.7012 148.583 29.7297 148.039 35.9393Z" fill="white"/>
<g opacity="0.1">
<path d="M74.3157 170.802H93.5342L124.582 24.7012H100.096L69.3098 169.561C70.7735 170.35 72.4712 170.802 74.3157 170.802Z" fill="#B1B5C3"/>
<path d="M136.335 24.7012H131.672L100.624 170.802H105.287L136.335 24.7012Z" fill="#B1B5C3"/>
</g>
<path d="M97.5825 24.3438C97.4138 26.3301 98.883 27.9356 100.869 27.9465H123.45C125.436 27.941 127.183 26.3301 127.362 24.3438H97.5825Z" fill="#777E90"/>
<path d="M136.868 28.6855H141.994C142.424 28.6855 142.739 29.0338 142.701 29.4583L142.505 31.6951C142.467 32.125 142.092 32.4679 141.662 32.4679H136.536C136.106 32.4679 135.791 32.1196 135.829 31.6951L136.025 29.4583C136.063 29.0284 136.438 28.6855 136.868 28.6855Z" fill="#777E90"/>
<path d="M82.1402 28.6855H89.0016C89.4859 28.6855 89.8395 29.0774 89.8014 29.5617L89.6219 31.5971C89.5784 32.0815 89.1539 32.4733 88.6697 32.4733H81.8083C81.324 32.4733 80.9703 32.0815 81.0084 31.5971L81.188 29.5617C81.2315 29.0774 81.6559 28.6855 82.1402 28.6855Z" fill="#777E90"/>
<path opacity="0.4" d="M82.1402 28.6855H89.0016C89.4859 28.6855 89.8395 29.0774 89.8014 29.5617L89.6219 31.5971C89.5784 32.0815 89.1539 32.4733 88.6697 32.4733H81.8083C81.324 32.4733 80.9703 32.0815 81.0084 31.5971L81.188 29.5617C81.2315 29.0774 81.6559 28.6855 82.1402 28.6855Z" fill="white"/>
<path d="M135.502 29.3281H136.308C136.466 29.3281 136.58 29.4533 136.569 29.6111L136.4 31.5322C136.384 31.69 136.248 31.8152 136.09 31.8152H135.285C135.127 31.8152 135.013 31.69 135.024 31.5322L135.192 29.6111C135.209 29.4533 135.345 29.3281 135.502 29.3281Z" fill="#777E90"/>
<path d="M140.976 29.3281H141.782C141.939 29.3281 142.054 29.4533 142.043 29.6111L141.874 31.5322C141.858 31.69 141.722 31.8152 141.564 31.8152H140.759C140.601 31.8152 140.487 31.69 140.498 31.5322L140.666 29.6111C140.683 29.4533 140.819 29.3281 140.976 29.3281Z" fill="white"/>
<path d="M139.241 29.3281H140.046C140.204 29.3281 140.318 29.4533 140.307 29.6111L140.138 31.5322C140.122 31.69 139.986 31.8152 139.828 31.8152H139.023C138.865 31.8152 138.751 31.69 138.762 31.5322L138.93 29.6111C138.947 29.4533 139.083 29.3281 139.241 29.3281Z" fill="white"/>
<path d="M148.349 63.4941L147.245 76.1363C148.306 75.9404 149.182 75.0207 149.28 73.9214L149.998 65.7145C150.096 64.6098 149.383 63.6955 148.355 63.4996L148.349 63.4941Z" fill="#777E90"/>
<path opacity="0.2" d="M148.349 63.4941L147.245 76.1363C148.306 75.9404 149.182 75.0207 149.28 73.9214L149.998 65.7145C150.096 64.6098 149.383 63.6955 148.355 63.4996L148.349 63.4941Z" fill="#B1B5C3"/>
<path d="M149.541 49.8555L148.436 62.4976C149.497 62.3017 150.373 61.382 150.471 60.2827L151.19 52.0759C151.287 50.9711 150.575 50.0568 149.546 49.8609L149.541 49.8555Z" fill="#777E90"/>
<path opacity="0.2" d="M149.541 49.8555L148.436 62.4976C149.497 62.3017 150.373 61.382 150.471 60.2827L151.19 52.0759C151.287 50.9711 150.575 50.0568 149.546 49.8609L149.541 49.8555Z" fill="#B1B5C3"/>
<path d="M118.787 33.3867H101.832C98.9972 33.3867 96.4942 35.6888 96.2439 38.5241L95.3679 48.5649C95.1176 51.4003 97.2179 53.7024 100.053 53.7024H104.901L104.558 57.6098C104.471 58.5786 105.603 59.0629 106.348 58.3772L111.43 53.7024H117.002C119.837 53.7024 122.34 51.4003 122.59 48.5649L123.466 38.5241C123.717 35.6888 121.616 33.3867 118.782 33.3867H118.787Z" fill="#DA291C"/>
<path d="M113.721 38.1871H105.581C105.559 37.5122 105.548 37.1748 105.527 36.5H101.049C101.108 36.8864 101.141 37.0769 101.201 37.4633H104.433C104.449 37.7517 104.46 37.8986 104.482 38.1871C104.575 39.6129 104.618 40.3259 104.711 41.7517C104.738 42.1381 104.749 42.3286 104.77 42.715C104.863 44.1408 104.906 44.8537 104.999 46.2796C105.048 47.0415 105.075 47.4225 105.124 48.1844H114.059C114.184 47.798 114.244 47.6075 114.363 47.2211H105.859C105.848 46.8456 105.842 46.6551 105.831 46.2796H115.082C115.56 44.8537 115.794 44.1408 116.273 42.715C116.404 42.3286 116.464 42.1381 116.594 41.7517C117.073 40.3259 117.307 39.6129 117.786 38.1871H113.716H113.721ZM105.614 39.1503H108.498C108.438 40.1898 108.411 40.7122 108.351 41.7517H105.701C105.668 40.7122 105.652 40.1898 105.619 39.1503H105.614ZM105.81 45.3163C105.777 44.2769 105.761 43.7544 105.728 42.715H108.296C108.236 43.7544 108.209 44.2769 108.149 45.3163H105.815H105.81ZM111.343 45.3163H109.009C109.102 44.2769 109.151 43.7544 109.243 42.715H111.811C111.626 43.7544 111.534 44.2769 111.343 45.3163ZM111.98 41.7517H109.325C109.417 40.7122 109.466 40.1898 109.559 39.1503H112.443C112.258 40.1898 112.165 40.7122 111.975 41.7517H111.98ZM114.543 45.3163H112.209C112.432 44.2769 112.54 43.7544 112.758 42.715H115.326C115.011 43.7544 114.858 44.2769 114.543 45.3163ZM115.615 41.7517H112.965C113.188 40.7122 113.297 40.1898 113.514 39.1503H116.398C116.083 40.1898 115.93 40.7122 115.615 41.7517Z" fill="white"/>
<path d="M105.608 49.082C104.977 49.082 104.422 49.5936 104.362 50.2249C104.308 50.8562 104.776 51.3677 105.407 51.3677C106.038 51.3677 106.593 50.8562 106.653 50.2249C106.707 49.5936 106.239 49.082 105.608 49.082Z" fill="white"/>
<path d="M113.732 49.082C113.101 49.082 112.546 49.5936 112.486 50.2249C112.432 50.8562 112.9 51.3677 113.531 51.3677C114.162 51.3677 114.717 50.8562 114.777 50.2249C114.831 49.5936 114.363 49.082 113.732 49.082Z" fill="white"/>
<path d="M130.975 104.441H111.588V123.832H130.975V104.441Z" fill="#DA291C"/>
<path d="M142.875 104.441H130.97V123.832H142.875V104.441Z" fill="#DA291C"/>
<path d="M127.27 99.5762H107.883L111.588 104.441H130.97L127.27 99.5762Z" fill="#DA291C"/>
<path opacity="0.3" d="M142.875 104.441H130.97V123.832H142.875V104.441Z" fill="white"/>
<path opacity="0.4" d="M127.27 99.5762H107.883L111.588 104.441H130.97L127.27 99.5762Z" fill="white"/>
<path d="M134.48 99.5762H146.385L142.881 104.441H130.97L134.48 99.5762Z" fill="#DA291C"/>
<path opacity="0.6" d="M130.975 104.441H111.588V123.832H130.975V104.441Z" fill="white"/>
<path opacity="0.2" d="M134.48 99.5762H146.385L142.881 104.441H130.97L134.48 99.5762Z" fill="white"/>
<path d="M185.524 123.354H136.661V172.224H185.524V123.354Z" fill="#DA291C"/>
<path opacity="0.4" d="M185.524 123.354H136.661V172.224H185.524V123.354Z" fill="white"/>
<path d="M136.651 123.354H106.637V172.224H136.651V123.354Z" fill="#DA291C"/>
<path opacity="0.6" d="M136.651 123.354H106.637V172.224H136.651V123.354Z" fill="white"/>
<path opacity="0.5" d="M115.909 123.354V136.48L117.1 137.106L118.129 136.251L119.756 137.106L121.296 136.251L122.498 137.106L123.869 136.251L124.647 136.954V123.354H115.909Z" fill="white"/>
<path opacity="0.5" d="M124.647 172.225V159.098L123.456 158.467L122.427 159.327L120.8 158.467L119.255 159.327L118.058 158.467L116.681 159.327L115.909 158.625V172.225H124.647Z" fill="white"/>
<path d="M156.593 143.283C156.87 144.399 157.006 144.96 157.284 146.075C157.36 146.38 157.398 146.527 157.469 146.832C157.746 147.947 157.882 148.508 158.16 149.624H165.407C165.375 149.917 165.353 150.064 165.32 150.358H158.655C158.726 150.658 158.758 150.81 158.829 151.115H165.832C165.924 150.516 165.968 150.217 166.06 149.624C166.229 148.508 166.316 147.947 166.485 146.832C166.528 146.532 166.556 146.38 166.599 146.075C166.768 144.96 166.855 144.399 167.023 143.283C167.056 143.055 167.072 142.946 167.111 142.717H169.641C169.717 142.418 169.755 142.266 169.826 141.961H166.316C166.251 142.489 166.224 142.755 166.158 143.283H156.587H156.593ZM165.832 146.075H163.753C163.78 145.259 163.791 144.851 163.813 144.04H166.071C165.973 144.856 165.924 145.264 165.826 146.075H165.832ZM163.666 148.867C163.693 148.051 163.704 147.643 163.726 146.826H165.739C165.641 147.643 165.592 148.051 165.494 148.867H163.666ZM160.973 146.826H162.986C162.986 147.643 162.986 148.051 162.991 148.867H161.163C161.087 148.051 161.049 147.643 160.978 146.826H160.973ZM160.717 144.034H162.981C162.981 144.851 162.981 145.259 162.986 146.07H160.907C160.831 145.253 160.793 144.845 160.722 144.034H160.717ZM158.214 146.826H160.227C160.331 147.643 160.38 148.051 160.483 148.867H158.655C158.481 148.051 158.394 147.643 158.22 146.826H158.214ZM157.616 144.034H159.874C159.977 144.851 160.026 145.259 160.129 146.07H158.051C157.877 145.253 157.79 144.845 157.616 144.034Z" fill="white"/>
<path d="M165.397 153.618C165.892 153.618 166.294 153.216 166.294 152.72C166.294 152.224 165.892 151.822 165.397 151.822C164.901 151.822 164.499 152.224 164.499 152.72C164.499 153.216 164.901 153.618 165.397 153.618Z" fill="white"/>
<path d="M159.025 153.618C159.521 153.618 159.923 153.216 159.923 152.72C159.923 152.224 159.521 151.822 159.025 151.822C158.529 151.822 158.127 152.224 158.127 152.72C158.127 153.216 158.529 153.618 159.025 153.618Z" fill="white"/>
<g opacity="0.5">
<path d="M115.027 143.283C115.305 144.399 115.441 144.96 115.718 146.075C115.794 146.38 115.832 146.527 115.903 146.832C116.181 147.947 116.317 148.508 116.594 149.624H123.842C123.809 149.917 123.788 150.064 123.755 150.358H117.089C117.16 150.658 117.193 150.81 117.264 151.115H124.266C124.359 150.516 124.402 150.217 124.495 149.624C124.664 148.508 124.751 147.947 124.919 146.832C124.963 146.532 124.99 146.38 125.034 146.075C125.202 144.96 125.289 144.399 125.458 143.283C125.491 143.055 125.507 142.946 125.545 142.717H128.075C128.151 142.418 128.19 142.266 128.26 141.961H124.751C124.685 142.489 124.658 142.755 124.593 143.283H115.022H115.027ZM124.266 146.075H122.188L122.248 144.04H124.506C124.408 144.856 124.359 145.264 124.261 146.075H124.266ZM122.101 148.867C122.128 148.051 122.139 147.643 122.161 146.826H124.174C124.076 147.643 124.027 148.051 123.929 148.867H122.101ZM119.407 146.826H121.421C121.421 147.643 121.421 148.051 121.426 148.867H119.598C119.522 148.051 119.484 147.643 119.413 146.826H119.407ZM119.152 144.034H121.415C121.415 144.851 121.415 145.259 121.421 146.07H119.342C119.266 145.253 119.228 144.845 119.157 144.034H119.152ZM116.649 146.826H118.662C118.765 147.643 118.814 148.051 118.918 148.867H117.089C116.915 148.051 116.828 147.643 116.654 146.826H116.649ZM116.05 144.034H118.308C118.412 144.851 118.461 145.259 118.564 146.07H116.485C116.311 145.253 116.224 144.845 116.05 144.034Z" fill="white"/>
<path d="M123.831 153.618C124.327 153.618 124.729 153.216 124.729 152.72C124.729 152.224 124.327 151.822 123.831 151.822C123.335 151.822 122.933 152.224 122.933 152.72C122.933 153.216 123.335 153.618 123.831 153.618Z" fill="white"/>
<path d="M117.459 153.618C117.955 153.618 118.357 153.216 118.357 152.72C118.357 152.224 117.955 151.822 117.459 151.822C116.963 151.822 116.562 152.224 116.562 152.72C116.562 153.216 116.963 153.618 117.459 153.618Z" fill="white"/>
</g>
<path d="M41.3693 129.136L40.0688 129.066L40.379 123.166C40.5912 119.15 44.0246 115.885 48.0402 115.885C49.9991 115.885 51.8001 116.647 53.1169 118.034C54.4337 119.422 55.103 121.273 55.005 123.232L54.6949 129.131L53.3944 129.06L53.7046 123.161C53.7862 121.561 53.2475 120.059 52.1756 118.932C51.1091 117.806 49.64 117.185 48.0457 117.185C44.7157 117.185 41.859 119.896 41.6849 123.232L41.3747 129.131L41.3693 129.136Z" fill="#50515C"/>
<path d="M69.2664 126.514H30.8132L29.5073 172.146L35.2097 170.84L40.9121 172.146H70.5723L69.2664 126.514Z" fill="#DA291C"/>
<path opacity="0.6" d="M69.2664 126.514H30.8132L29.5073 172.146L35.2097 170.84L40.9121 172.146H70.5723L69.2664 126.514Z" fill="white"/>
<path d="M40.9121 172.146L35.2097 170.84L29.5073 172.146L30.8132 126.514H39.6117L40.9121 172.146Z" fill="#DA291C"/>
<path opacity="0.3" d="M40.9121 172.146L35.2097 170.84L29.5073 172.146L30.8132 126.514H39.6117L40.9121 172.146Z" fill="white"/>
<path d="M61.1263 129.137L60.8161 123.238C60.642 119.907 57.7908 117.191 54.4553 117.191C52.8611 117.191 51.3919 117.812 50.3254 118.938C49.2535 120.065 48.7148 121.567 48.7965 123.167L49.1066 129.066L47.8062 129.137L47.496 123.238C47.3926 121.278 48.0619 119.428 49.3841 118.04C50.7009 116.653 52.5019 115.891 54.4608 115.891C58.4764 115.891 61.9098 119.156 62.122 123.172L62.4322 129.072L61.1317 129.142L61.1263 129.137Z" fill="#50515C"/>
<g opacity="0.2">
<path d="M61.1263 129.137L60.8161 123.238C60.642 119.907 57.7908 117.191 54.4553 117.191C52.8611 117.191 51.3919 117.812 50.3254 118.938C49.2535 120.065 48.7148 121.567 48.7965 123.167L49.1066 129.066L47.8062 129.137L47.496 123.238C47.3926 121.278 48.0619 119.428 49.3841 118.04C50.7009 116.653 52.5019 115.891 54.4608 115.891C58.4764 115.891 61.9098 119.156 62.122 123.172L62.4322 129.072L61.1317 129.142L61.1263 129.137Z" fill="white"/>
</g>
<path d="M46.1957 143.184H64.0701C64.4728 143.184 64.7992 143.51 64.7992 143.913V146.797C64.7992 147.2 64.4728 147.526 64.0701 147.526H46.1957C45.793 147.526 45.4666 147.2 45.4666 146.797V143.913C45.4666 143.51 45.793 143.184 46.1957 143.184Z" fill="white"/>
<path d="M23.696 143.313L22.8254 143.27L23.0322 139.313C23.1737 136.625 25.4753 134.432 28.1687 134.432C29.4801 134.432 30.688 134.943 31.5695 135.874C32.451 136.804 32.9026 138.045 32.8319 139.357L32.6251 143.313L31.7545 143.27L31.9613 139.313C32.0157 138.241 31.6511 137.234 30.9383 136.478C30.2201 135.721 29.2406 135.308 28.1687 135.308C25.9378 135.308 24.0225 137.126 23.9082 139.362L23.7015 143.319L23.696 143.313Z" fill="#50515C"/>
<path d="M42.3976 141.555H16.617L15.741 172.145L19.5662 171.269L23.3913 172.145H43.2736L42.3976 141.555Z" fill="#DA291C"/>
<path d="M23.3913 172.145L19.5662 171.269L15.741 172.145L16.617 141.555H22.5153L23.3913 172.145Z" fill="#DA291C"/>
<path opacity="0.2" d="M23.3913 172.145L19.5662 171.269L15.741 172.145L16.617 141.555H22.5153L23.3913 172.145Z" fill="#23262F"/>
<path d="M36.9401 143.313L36.7333 139.356C36.6191 137.12 34.7037 135.302 32.4728 135.302C31.4009 135.302 30.4215 135.716 29.7033 136.472C28.985 137.229 28.6204 138.235 28.6803 139.307L28.8871 143.264L28.0165 143.307L27.8097 139.351C27.739 138.034 28.1906 136.799 29.0721 135.868C29.9535 134.937 31.1615 134.426 32.4728 134.426C35.1662 134.426 37.4679 136.614 37.6094 139.307L37.8161 143.264L36.9455 143.307L36.9401 143.313Z" fill="#50515C"/>
<g opacity="0.2">
<path d="M36.9401 143.313L36.7333 139.356C36.6191 137.12 34.7037 135.302 32.4728 135.302C31.4009 135.302 30.4215 135.716 29.7033 136.472C28.985 137.229 28.6204 138.235 28.6803 139.307L28.8871 143.264L28.0165 143.307L27.8097 139.351C27.739 138.034 28.1906 136.799 29.0721 135.868C29.9535 134.937 31.1615 134.426 32.4728 134.426C35.1662 134.426 37.4679 136.614 37.6094 139.307L37.8161 143.264L36.9455 143.307L36.9401 143.313Z" fill="white"/>
</g>
<path d="M38.6704 152.729H27.1676C26.7649 152.729 26.4385 153.055 26.4385 153.458V154.911C26.4385 155.314 26.7649 155.64 27.1676 155.64H38.6704C39.073 155.64 39.3995 155.314 39.3995 154.911V153.458C39.3995 153.055 39.073 152.729 38.6704 152.729Z" fill="white"/>
</g>
<defs>
<clipPath id="clip0_2533_577479">
<rect width="211" height="180" fill="white" transform="translate(0.5)"/>
</clipPath>
</defs>
</svg>
