<svg width="220" height="166" viewBox="0 0 220 166" fill="none" xmlns="http://www.w3.org/2000/svg">
<circle cx="110" cy="80" r="80" fill="#EAECF0"/>
<circle cx="18" cy="12" r="8" fill="#F2F4F7"/>
<circle cx="198" cy="142" r="6" fill="#F2F4F7"/>
<circle cx="25" cy="138" r="10" fill="#F2F4F7"/>
<circle cx="210" cy="46" r="10" fill="#F2F4F7"/>
<circle cx="191" cy="11" r="7" fill="#F2F4F7"/>
<g filter="url(#filter0_dd_3276_541166)">
<rect x="27" y="22" width="166" height="104" rx="6" fill="url(#paint0_linear_3276_541166)"/>
<rect x="41.0703" y="46.1875" width="29.0233" height="21.7674" rx="2" fill="#D0D5DD"/>
<circle cx="166.837" cy="53.4407" r="12.093" fill="#98A2B3"/>
<circle cx="152.325" cy="53.4407" r="12.093" fill="#D0D5DD"/>
<path d="M41.0703 110.278C41.0703 108.942 42.1532 107.859 43.4889 107.859H67.675C69.0107 107.859 70.0936 108.942 70.0936 110.278C70.0936 111.614 69.0107 112.697 67.675 112.697H43.4889C42.1532 112.697 41.0703 111.614 41.0703 110.278Z" fill="#D0D5DD"/>
<path d="M77.3494 110.278C77.3494 108.942 78.4322 107.859 79.768 107.859H103.954C105.29 107.859 106.373 108.942 106.373 110.278C106.373 111.614 105.29 112.697 103.954 112.697H79.768C78.4322 112.697 77.3494 111.614 77.3494 110.278Z" fill="#D0D5DD"/>
<path d="M113.628 110.278C113.628 108.942 114.711 107.859 116.047 107.859H140.233C141.569 107.859 142.652 108.942 142.652 110.278C142.652 111.614 141.569 112.697 140.233 112.697H116.047C114.711 112.697 113.628 111.614 113.628 110.278Z" fill="#D0D5DD"/>
<path d="M149.908 110.278C149.908 108.942 150.99 107.859 152.326 107.859H176.512C177.848 107.859 178.931 108.942 178.931 110.278C178.931 111.614 177.848 112.697 176.512 112.697H152.326C150.99 112.697 149.908 111.614 149.908 110.278Z" fill="#D0D5DD"/>
</g>
<g filter="url(#filter1_b_3276_541166)">
<rect x="82" y="92" width="56" height="56" rx="28" fill="#344054" fill-opacity="0.4"/>
<path d="M120.5 112.125H99.5C99.0168 112.125 98.625 112.517 98.625 113V127C98.625 127.483 99.0168 127.875 99.5 127.875H120.5C120.983 127.875 121.375 127.483 121.375 127V113C121.375 112.517 120.983 112.125 120.5 112.125Z" stroke="white" stroke-width="1.5" stroke-linecap="round" stroke-linejoin="round"/>
<path d="M114.375 124.375H117.875" stroke="white" stroke-width="1.5" stroke-linecap="round" stroke-linejoin="round"/>
<path d="M109.125 124.375H110.875" stroke="white" stroke-width="1.5" stroke-linecap="round" stroke-linejoin="round"/>
<path d="M98.625 116.598H121.375" stroke="white" stroke-width="1.5" stroke-linecap="round" stroke-linejoin="round"/>
</g>
<defs>
<filter id="filter0_dd_3276_541166" x="7" y="22" width="206" height="144" filterUnits="userSpaceOnUse" color-interpolation-filters="sRGB">
<feFlood flood-opacity="0" result="BackgroundImageFix"/>
<feColorMatrix in="SourceAlpha" type="matrix" values="0 0 0 0 0 0 0 0 0 0 0 0 0 0 0 0 0 0 127 0" result="hardAlpha"/>
<feMorphology radius="4" operator="erode" in="SourceAlpha" result="effect1_dropShadow_3276_541166"/>
<feOffset dy="8"/>
<feGaussianBlur stdDeviation="4"/>
<feColorMatrix type="matrix" values="0 0 0 0 0.0627451 0 0 0 0 0.0941176 0 0 0 0 0.156863 0 0 0 0.03 0"/>
<feBlend mode="normal" in2="BackgroundImageFix" result="effect1_dropShadow_3276_541166"/>
<feColorMatrix in="SourceAlpha" type="matrix" values="0 0 0 0 0 0 0 0 0 0 0 0 0 0 0 0 0 0 127 0" result="hardAlpha"/>
<feMorphology radius="4" operator="erode" in="SourceAlpha" result="effect2_dropShadow_3276_541166"/>
<feOffset dy="20"/>
<feGaussianBlur stdDeviation="12"/>
<feColorMatrix type="matrix" values="0 0 0 0 0.0627451 0 0 0 0 0.0941176 0 0 0 0 0.156863 0 0 0 0.08 0"/>
<feBlend mode="normal" in2="effect1_dropShadow_3276_541166" result="effect2_dropShadow_3276_541166"/>
<feBlend mode="normal" in="SourceGraphic" in2="effect2_dropShadow_3276_541166" result="shape"/>
</filter>
<filter id="filter1_b_3276_541166" x="74" y="84" width="72" height="72" filterUnits="userSpaceOnUse" color-interpolation-filters="sRGB">
<feFlood flood-opacity="0" result="BackgroundImageFix"/>
<feGaussianBlur in="BackgroundImageFix" stdDeviation="4"/>
<feComposite in2="SourceAlpha" operator="in" result="effect1_backgroundBlur_3276_541166"/>
<feBlend mode="normal" in="SourceGraphic" in2="effect1_backgroundBlur_3276_541166" result="shape"/>
</filter>
<linearGradient id="paint0_linear_3276_541166" x1="32.7809" y1="124.769" x2="29.758" y2="29.5842" gradientUnits="userSpaceOnUse">
<stop stop-color="#E4E7EC"/>
<stop offset="1" stop-color="#F9FAFB"/>
</linearGradient>
</defs>
</svg>
