<svg width="310" height="180" viewBox="0 0 310 180" fill="none" xmlns="http://www.w3.org/2000/svg">
<g clip-path="url(#clip0_2725_1060741)">
<path opacity="0.53" d="M62.4234 53.2029C62.4234 53.2029 22.7356 17.6224 11.2866 38.0307C7.45982 45.8432 61.8543 56.789 61.8543 56.789L62.4181 53.2029H62.4234Z" fill="#D4D7DE"/>
<path d="M18.5742 36.9023C18.5742 36.9023 48.588 44.8242 58.2515 50.6588" stroke="white" stroke-width="0.82" stroke-miterlimit="10"/>
<path d="M40.3232 43.3689C40.3232 43.3689 37.5354 41.4379 35.2383 36.1758" stroke="white" stroke-width="0.82" stroke-miterlimit="10"/>
<g style="mix-blend-mode:multiply">
<path d="M54.6177 55.2292L24.7188 31.8594C40.6628 33.7019 62.4174 53.1993 62.4174 53.1993L61.9215 56.3587H59.7914C58.5332 56.0933 56.7582 55.7081 54.6177 55.2292Z" fill="#B1B5C3"/>
</g>
<path d="M30.8535 40.3945C30.8535 40.3945 25.2465 40.9879 20.125 44.0223" stroke="white" stroke-width="0.82" stroke-miterlimit="10"/>
<g style="mix-blend-mode:multiply">
<path d="M46.5677 53.3396C55.1244 55.4372 61.8539 56.7904 61.8539 56.7904L62.4178 53.2043C62.4178 53.2043 55.4795 46.9845 46.5625 41.2383V53.3396H46.5677Z" fill="#B1B5C3"/>
</g>
<path d="M67.8025 54.0518C67.8025 54.0518 33.4816 -16.5159 7.08051 3.61136C-2.28542 11.6425 65.1086 58.4499 65.1086 58.4499L67.7973 54.0518H67.8025Z" fill="#F4F5F6"/>
<path d="M15.7383 5.07422C15.7383 5.07422 50.4246 32.1916 63.9097 52.8133" stroke="white" stroke-width="0.82" stroke-miterlimit="10"/>
<path d="M13.5234 13.7243C13.5234 13.7243 22.3255 12.9852 26.3403 13.818" stroke="white" stroke-width="0.82" stroke-miterlimit="10"/>
<path d="M36.0703 11.7109C36.0703 11.7109 36.9526 19.8045 38.9835 25.0822" stroke="white" stroke-width="0.82" stroke-miterlimit="10"/>
<path d="M39.6641 35.2196C39.6641 35.2196 44.9004 33.8976 49.0248 34.9074" stroke="white" stroke-width="0.82" stroke-miterlimit="10"/>
<g style="mix-blend-mode:multiply">
<path d="M46.5703 44.9497C56.876 52.731 65.109 58.446 65.109 58.446L66.3098 56.4837V51.1175C63.2766 45.3193 55.8788 31.9324 46.5703 20.3047V44.9445V44.9497Z" fill="#D4D7DE"/>
</g>
<path d="M60.0918 144.932C60.0918 144.932 -4.1802 145.469 0.215628 126.866C4.61146 108.264 34.6514 124.842 34.6514 124.842C34.6514 124.842 10.9651 110.357 8.80368 91.9261C6.64231 73.4957 52.7933 118.84 52.7933 118.84C52.7933 118.84 38.807 103.824 38.332 84.4727C37.8569 65.121 69.0506 92.9515 60.0971 144.932H60.0918Z" fill="#D4D7DE"/>
<path opacity="0.39" d="M56.2547 135.095C56.2547 135.095 6.50668 81.3029 19.1356 98.3072C31.7644 115.312 56.2547 135.095 56.2547 135.095Z" fill="#B1B5C3"/>
<path opacity="0.39" d="M9.14844 127.449L53.9838 135.709C53.9838 135.709 14.8599 133.94 9.14844 127.449Z" fill="#B1B5C3"/>
<path opacity="0.39" d="M45.0781 88.4492L59.1792 122.817C59.1792 122.817 52.8987 93.7686 45.0781 88.4492Z" fill="#B1B5C3"/>
<g style="mix-blend-mode:multiply" opacity="0.39">
<path d="M46.5703 80.668V110.315C49.8176 115.645 52.7882 118.84 52.7882 118.84C52.7882 118.84 50.324 116.42 46.5703 112.928V144.558C54.4275 144.979 60.0919 144.932 60.0919 144.932C65.8712 111.387 54.9287 87.9079 46.5703 80.668Z" fill="#B1B5C3"/>
</g>
<path d="M263.351 114.927C266.379 113.261 269.329 111.835 272.023 110.794C304.433 97.3603 302.157 79.2109 310.009 63.5234C292.457 67.9788 283.258 93.2432 267.94 100.171C252.628 107.099 238.156 119.169 238.156 119.169C238.156 119.169 236.877 122.859 235.943 126.612C235.395 127.028 234.846 127.455 234.309 127.897C234.705 128.246 235.081 128.569 235.431 128.881C234.575 133.175 234.674 136.511 238.428 132.878C238.673 132.639 238.924 132.399 239.185 132.16C240.33 133.159 240.902 133.661 240.902 133.664C240.902 133.664 262.135 137.188 274.122 127.543C286.103 117.899 303.211 116.712 303.211 116.712C303.211 116.712 284.344 111.122 263.346 114.932L263.351 114.927Z" fill="#B1B5C3"/>
<path d="M244.677 121.616C244.677 121.616 259.321 110.15 274.858 104.274C290.4 98.3972 300.695 75.043 300.695 75.043C300.695 75.043 287.21 98.0225 274.352 102.332C261.493 106.647 244.698 118.53 244.698 118.53L244.672 121.611L244.677 121.616Z" fill="#777E90"/>
<path d="M303.211 116.708C303.211 116.708 261.664 115.09 236.871 133.432" stroke="#777E90" stroke-width="0.98" stroke-miterlimit="10"/>
<g style="mix-blend-mode:multiply" opacity="0.53">
<path d="M241.465 133.743C243.454 134.019 250.471 134.815 258.129 133.743V105.293C251.107 109.4 245.02 113.829 241.465 116.551V133.743Z" fill="#777E90"/>
</g>
<path d="M246.994 53.0126C246.994 53.0126 251.927 72.3747 270.905 64.7704C261.231 60.721 260.912 54.9175 260.912 54.9175C260.912 54.9175 270.779 67.8829 282.792 58.6182C272.69 54.7093 271.108 50.051 271.108 50.051C271.108 50.051 281.764 51.4095 285.042 54.0796C288.321 56.7497 290.399 46.8344 290.399 46.8344C290.399 46.8344 273.484 46.2827 272.131 43.852C270.779 41.4213 291.934 42.2957 291.934 42.2957L292.618 37.3407C292.618 37.3407 277.159 39.9744 282.254 36.8306C287.345 33.6869 290.9 34.3791 290.9 34.3791L289.151 26.4625L277.477 20.7267C277.477 20.7267 270.738 33.64 268.038 34.0824C265.345 34.5197 274.058 19.0508 274.058 19.0508L266.399 20.2271C266.399 20.2271 263.345 32.8385 261.361 33.2757C259.377 33.7129 262.572 21.5231 262.572 21.5231C262.572 21.5231 257.049 23.3916 255.258 33.4527C253.274 33.8899 250.967 27.8158 253.358 23.6987C242.217 36.9191 242.561 47.6724 246.989 53.0282L246.994 53.0126Z" fill="#F4F5F6"/>
<path opacity="0.53" d="M282.216 31.875C282.216 31.875 257.559 39.5105 248.684 51.7264C263.672 41.4572 282.216 31.875 282.216 31.875Z" fill="#D4D7DE"/>
<path opacity="0.53" d="M258.13 25.599C256.981 27.3843 255.89 29.9034 255.258 33.4375C253.274 33.8747 250.967 27.8006 253.358 23.6836C242.217 36.904 242.561 47.6572 246.989 53.013C246.989 53.013 249.557 63.0949 258.124 65.8482V25.599H258.13Z" fill="#D4D7DE"/>
<path d="M234.609 111.684C234.609 111.684 242.054 97.7556 255.993 90.9944C269.933 84.2333 283.83 73.1469 292.825 57.1836" stroke="#B1B5C3" stroke-width="1.37" stroke-miterlimit="10"/>
<path d="M249.535 94.6129C249.535 94.6129 247.034 91.8231 249.268 88.1797C251.43 90.0482 250.615 92.4529 249.535 94.6129Z" fill="#B1B5C3"/>
<path d="M249.535 94.6112C249.535 94.6112 251.3 97.9163 255.502 97.0783C254.484 94.4082 251.942 94.3458 249.535 94.6112Z" fill="#B1B5C3"/>
<path d="M257.038 90.5074C257.038 90.5074 254.538 87.7176 256.772 84.0742C258.934 85.9428 258.119 88.3474 257.038 90.5074Z" fill="#B1B5C3"/>
<path d="M257.039 90.5058C257.039 90.5058 258.804 93.8109 263.006 92.9729C261.988 90.3028 259.446 90.2403 257.039 90.5058Z" fill="#B1B5C3"/>
<path d="M263.622 86.5075C263.622 86.5075 261.554 83.3793 264.3 80.1055C266.169 82.2707 265.005 84.5296 263.622 86.5075Z" fill="#B1B5C3"/>
<path d="M263.621 86.5078C263.621 86.5078 264.884 90.0315 269.16 89.8181C268.544 87.0283 266.038 86.5963 263.621 86.5078Z" fill="#B1B5C3"/>
<path d="M270.274 82.1207C270.274 82.1207 268.206 78.9926 270.953 75.7188C272.822 77.884 271.657 80.1429 270.274 82.1207Z" fill="#B1B5C3"/>
<path d="M270.273 82.1211C270.273 82.1211 271.537 85.6448 275.813 85.4314C275.197 82.6416 272.691 82.2096 270.273 82.1211Z" fill="#B1B5C3"/>
<path d="M276.119 77.186C276.119 77.186 273.012 75.078 274.302 71.0078C276.855 72.2986 276.646 74.8282 276.119 77.186Z" fill="#B1B5C3"/>
<path d="M276.117 77.1855C276.117 77.1855 278.634 79.9649 282.502 78.1431C280.868 75.7958 278.383 76.3475 276.117 77.1855Z" fill="#B1B5C3"/>
<path d="M282.279 72.0102C282.279 72.0102 279.172 69.9022 280.462 65.832C283.015 67.1228 282.806 69.6524 282.279 72.0102Z" fill="#B1B5C3"/>
<path d="M282.277 72.0097C282.277 72.0097 284.794 74.7891 288.662 72.9674C287.028 70.62 284.543 71.1717 282.277 72.0097Z" fill="#B1B5C3"/>
<path d="M287.316 64.9282C287.316 64.9282 284.142 62.9243 285.295 58.8125C287.89 60.02 287.765 62.5548 287.316 64.9282Z" fill="#B1B5C3"/>
<path d="M287.316 64.9301C287.316 64.9301 289.922 67.6263 293.733 65.6744C292.025 63.3843 289.556 64.0193 287.316 64.9301Z" fill="#B1B5C3"/>
<path d="M291.906 58.5381C291.906 58.5381 295.482 57.393 295.404 53.125C292.59 53.6455 292.073 56.1334 291.906 58.5381Z" fill="#B1B5C3"/>
<g opacity="0.53">
<path d="M82.8783 82.9509C82.8783 82.9509 70.7349 72.8275 55.266 71.7813C39.797 70.7351 22.7462 65.6604 8.39453 54.2305" stroke="#B1B5C3" stroke-width="1.95" stroke-miterlimit="10"/>
<path d="M62.62 72.716C62.62 72.716 63.8887 69.1923 60.4482 66.6523C59.1483 69.1975 60.8084 71.1181 62.62 72.716Z" fill="#B1B5C3"/>
<path d="M62.6202 72.7148C62.6202 72.7148 62.2287 76.4363 58.0208 77.2327C57.9581 74.3804 60.2918 73.3655 62.6202 72.7148Z" fill="#B1B5C3"/>
<path d="M54.1161 71.7199C54.1161 71.7199 55.3847 68.1962 51.9443 65.6562C50.6443 68.2014 52.3045 70.122 54.1161 71.7199Z" fill="#B1B5C3"/>
<path d="M54.1163 71.7188C54.1163 71.7188 53.7247 75.4402 49.5169 76.2366C49.4542 73.3843 51.7879 72.3694 54.1163 71.7188Z" fill="#B1B5C3"/>
<path d="M46.5101 70.4754C46.5101 70.4754 47.2463 66.806 43.4717 64.7969C42.5581 67.5034 44.4845 69.1638 46.5101 70.4754Z" fill="#B1B5C3"/>
<path d="M46.5117 70.4766C46.5117 70.4766 46.6683 74.2189 42.6223 75.6138C42.142 72.7979 44.3033 71.4603 46.5117 70.4766Z" fill="#B1B5C3"/>
<path d="M38.6937 68.9012C38.6937 68.9012 39.4299 65.2317 35.6553 63.2227C34.7417 65.9292 36.6681 67.5895 38.6937 68.9012Z" fill="#B1B5C3"/>
<path d="M38.6953 68.9023C38.6953 68.9023 38.8519 72.6446 34.8059 74.0395C34.3256 71.2237 36.4869 69.8861 38.6953 68.9023Z" fill="#B1B5C3"/>
<path d="M31.4199 66.5127C31.4199 66.5127 33.503 63.4002 30.7778 60.1055C28.8983 62.2603 30.0469 64.5244 31.4199 66.5127Z" fill="#B1B5C3"/>
<path d="M31.4194 66.5117C31.4194 66.5117 30.1351 70.0302 25.8594 69.7856C26.4911 67.001 29.0022 66.5846 31.4194 66.5117Z" fill="#B1B5C3"/>
<path d="M23.7558 64.0205C23.7558 64.0205 25.8389 60.908 23.1137 57.6133C21.2342 59.7681 22.3828 62.0322 23.7558 64.0205Z" fill="#B1B5C3"/>
<path d="M23.7554 64.0195C23.7554 64.0195 22.4711 67.538 18.1953 67.2934C18.827 64.5088 21.3382 64.0924 23.7554 64.0195Z" fill="#B1B5C3"/>
<path d="M16.4205 59.3447C16.4205 59.3447 18.608 56.2998 15.9924 52.9219C14.0451 55.0142 15.1153 57.3148 16.4205 59.3447Z" fill="#B1B5C3"/>
<path d="M16.4223 59.3438C16.4223 59.3438 15.0231 62.8155 10.7578 62.4355C11.4783 59.6717 13.9999 59.3386 16.4223 59.3438Z" fill="#B1B5C3"/>
<path d="M9.7625 55.1407C9.7625 55.1407 6.01926 55.4166 4.48438 51.4349C7.28789 50.8623 8.7027 52.9755 9.7625 55.1407Z" fill="#B1B5C3"/>
</g>
<path d="M252.75 127.039H50.9805V10.2839C50.9805 4.8812 55.3711 0.503906 60.7902 0.503906H242.94C248.36 0.503906 252.75 4.8812 252.75 10.2839V127.039Z" fill="#777E90"/>
<path d="M242.443 10.7773H61.2852V117.847H242.443V10.7773Z" fill="#F4F5F6"/>
<path d="M243.055 151.376H60.6753C55.3189 151.376 50.9805 147.05 50.9805 141.71V127.043H252.75V141.71C252.75 147.05 248.412 151.376 243.055 151.376Z" fill="#F4F5F6"/>
<path d="M174.1 139.496H129.625V172.485H174.1V139.496Z" fill="#F4F5F6"/>
<path d="M156.273 143.818C158.834 141.093 158.694 136.814 155.96 134.261C153.227 131.709 148.935 131.848 146.375 134.574C143.814 137.299 143.954 141.577 146.688 144.13C149.421 146.683 153.713 146.543 156.273 143.818Z" fill="#B1B5C3"/>
<path d="M186.036 172.484H118.777V177.892H186.036V172.484Z" fill="#F4F5F6"/>
<path d="M174.1 151.379H129.625V158.218H174.1V151.379Z" fill="#777E90"/>
<path d="M174.1 170.035H129.625V172.481H174.1V170.035Z" fill="#B1B5C3"/>
<path d="M235.401 15.1289H68.2083C66.0977 15.1289 64.3867 16.8347 64.3867 18.9389V19.0117C64.3867 21.1159 66.0977 22.8217 68.2083 22.8217H235.401C237.512 22.8217 239.223 21.1159 239.223 19.0117V18.9389C239.223 16.8347 237.512 15.1289 235.401 15.1289Z" fill="#B1B5C3"/>
<path d="M71.4448 19.0012C71.4448 20.1515 70.5103 21.0884 69.3513 21.0884C68.1923 21.0884 67.2578 20.1567 67.2578 19.0012C67.2578 17.8457 68.1923 16.9141 69.3513 16.9141C70.5103 16.9141 71.4448 17.8457 71.4448 19.0012Z" fill="white"/>
<path d="M77.7925 19.0012C77.7925 20.1515 76.858 21.0884 75.699 21.0884C74.54 21.0884 73.6055 20.1567 73.6055 19.0012C73.6055 17.8457 74.54 16.9141 75.699 16.9141C76.858 16.9141 77.7925 17.8457 77.7925 19.0012Z" fill="white"/>
<path d="M84.144 19.0012C84.144 20.1515 83.2095 21.0884 82.0505 21.0884C80.8915 21.0884 79.957 20.1567 79.957 19.0012C79.957 17.8457 80.8915 16.9141 82.0505 16.9141C83.2095 16.9141 84.144 17.8457 84.144 19.0012Z" fill="#DA291C"/>
<path d="M233.438 26.5078H70.1713C66.9765 26.5078 64.3867 29.0898 64.3867 32.2748V109.031C64.3867 112.216 66.9765 114.798 70.1713 114.798H233.438C236.633 114.798 239.223 112.216 239.223 109.031V32.2748C239.223 29.0898 236.633 26.5078 233.438 26.5078Z" fill="#ECECEC"/>
<path d="M152 65.5936L154.268 64.6667L152 65.6093V92L172.898 83.4554V57.053L173 57.0114L172.898 56.9673V56.923L172.846 56.9447L152.165 48L131 56.7968L131.1 56.8388L131 83.134L152 91.9843L152 65.5936Z" fill="#F9FAFB"/>
<path d="M152 65.5947V91.9854L131 83.1351L131.1 56.8398L152 65.5947Z" fill="#DA291C"/>
<path d="M152 65.6082V91.9989L172.898 83.4543V56.9219L152 65.6082Z" fill="#E15449"/>
<path d="M152 65.5936L173 57.0114L152.165 48L131 56.7968L152 65.5936Z" fill="#E97F77"/>
<path d="M138.918 53.5052L159.838 62.3897L160.028 68.8642L165.881 66.5077L165.704 59.9924L144.165 51.3242L138.918 53.5052Z" fill="#F0A9A4"/>
<g opacity="0.5">
<path d="M83.5 76.3962L84.85 75.8485L83.5002 76.4055V92L95.9394 86.9509V71.3495L96 71.3249L95.9394 71.2989V71.2727L95.9082 71.2855L83.5982 66L71 71.1981L71.0596 71.2229L71 86.761L83.5 91.9907L83.5 76.3962Z" fill="#F9FAFB"/>
<path d="M83.5 76.396V91.9905L71 86.7607L71.0596 71.2227L83.5 76.396Z" fill="#DA291C"/>
<path d="M83.5 76.4063V92.0008L95.9392 86.9517V71.2734L83.5 76.4063Z" fill="#E15449"/>
<path d="M83.5 76.3962L96 71.3249L83.5982 66L71 71.1981L83.5 76.3962Z" fill="#E97F77"/>
<path d="M75.7109 69.2536L88.1633 74.5036L88.2764 78.3294L91.7604 76.9369L91.6551 73.0869L78.8343 67.9648L75.7109 69.2536Z" fill="#F0A9A4"/>
</g>
<g opacity="0.5">
<path d="M219.5 76.3962L220.85 75.8485L219.5 76.4055V92L231.939 86.9509V71.3495L232 71.3249L231.939 71.2989V71.2727L231.908 71.2855L219.598 66L207 71.1981L207.06 71.2229L207 86.761L219.5 91.9907L219.5 76.3962Z" fill="#F9FAFB"/>
<path d="M219.5 76.396V91.9905L207 86.7607L207.06 71.2227L219.5 76.396Z" fill="#DA291C"/>
<path d="M219.5 76.4063V92.0008L231.939 86.9517V71.2734L219.5 76.4063Z" fill="#E15449"/>
<path d="M219.5 76.3962L232 71.3249L219.598 66L207 71.1981L219.5 76.3962Z" fill="#E97F77"/>
<path d="M211.711 69.2536L224.163 74.5036L224.276 78.3294L227.76 76.9369L227.655 73.0869L214.834 67.9648L211.711 69.2536Z" fill="#F0A9A4"/>
</g>
<path opacity="0.38" d="M212.484 101.007C226.77 86.7647 226.77 63.6728 212.484 49.4302C198.198 35.1876 175.036 35.1876 160.75 49.4302C146.464 63.6728 146.464 86.7647 160.75 101.007C175.036 115.25 198.198 115.25 212.484 101.007Z" fill="#D4D7DE"/>
<path d="M214.343 99.8146L205.094 107.367L221.548 127.395L230.797 119.843L214.343 99.8146Z" fill="#777E90"/>
<path d="M160.981 44.4187C143.763 58.477 141.236 83.7883 155.337 100.959C169.438 118.125 194.826 120.644 212.049 106.586C229.267 92.5273 231.794 67.216 217.693 50.0451C203.592 32.8795 178.204 30.3603 160.981 44.4187ZM208.473 102.229C193.636 114.346 171.756 112.176 159.607 97.3834C147.454 82.5912 149.631 60.7776 164.468 48.6658C179.305 36.5489 201.185 38.7193 213.334 53.5116C225.488 68.3038 223.31 90.1174 208.473 102.229Z" fill="#777E90"/>
<path d="M168.562 54.4183C180.069 45.0235 197.041 46.7047 206.465 58.1762C210.438 63.0116 212.437 68.815 212.557 74.6132" stroke="white" stroke-width="8.88" stroke-miterlimit="10" stroke-linecap="round"/>
<path d="M261.133 165.738L260.992 165.852C257.077 169.048 251.308 168.475 248.097 164.572L216.089 125.608C212.884 121.705 213.458 115.953 217.374 112.752L217.514 112.638C221.43 109.442 227.199 110.014 230.41 113.918L262.418 152.882C265.623 156.785 265.049 162.537 261.133 165.738Z" fill="#DA291C"/>
<path d="M255.256 158.727L223.248 119.764C221.087 117.135 220.653 113.669 221.786 110.707C220.267 110.962 218.79 111.597 217.511 112.638L217.37 112.753C213.454 115.948 212.88 121.705 216.085 125.609L248.093 164.572C251.299 168.476 257.073 169.048 260.989 165.853L261.13 165.738C262.409 164.697 263.322 163.375 263.87 161.944C260.733 162.469 257.412 161.361 255.251 158.732L255.256 158.727Z" fill="#AE2116"/>
<path d="M223.817 75.4295C223.817 54.7558 207.007 37.9961 186.27 37.9961C165.533 37.9961 148.723 54.7558 148.723 75.4295C148.723 96.1033 165.533 112.863 186.27 112.863C207.007 112.863 223.817 96.1033 223.817 75.4295ZM208.474 102.229C193.636 114.346 171.756 112.176 159.608 97.3837C147.454 82.5914 149.631 60.7778 164.468 48.6661C179.306 36.5491 201.185 38.7196 213.334 53.5118C225.488 68.304 223.311 90.1177 208.474 102.229Z" fill="#F4F5F6"/>
</g>
<defs>
<clipPath id="clip0_2725_1060741">
<rect width="310" height="180" fill="white"/>
</clipPath>
</defs>
</svg>
