<svg width="220" height="180" viewBox="0 0 220 180" fill="none" xmlns="http://www.w3.org/2000/svg">
<g clip-path="url(#clip0_2846_644713)">
<path d="M110 179.994C170.751 179.994 220 176.352 220 171.858C220 167.365 170.751 163.723 110 163.723C49.2487 163.723 0 167.365 0 171.858C0 176.352 49.2487 179.994 110 179.994Z" fill="#D4D7DE"/>
<path d="M183.503 61.7199C183.503 63.351 182.169 64.6819 180.535 64.6819C178.9 64.6819 177.566 63.351 177.566 61.7199C177.566 60.0887 178.9 58.7578 180.535 58.7578C182.169 58.7578 183.503 60.0887 183.503 61.7199ZM182.57 61.7199C182.57 60.5991 181.658 59.6885 180.535 59.6885C179.412 59.6885 178.499 60.5991 178.499 61.7199C178.499 62.8406 179.412 63.7513 180.535 63.7513C181.658 63.7513 182.57 62.8406 182.57 61.7199Z" fill="#777E90"/>
<path d="M196.575 53.0753C196.575 54.7065 195.242 56.0374 193.607 56.0374C191.972 56.0374 190.639 54.7065 190.639 53.0753C190.639 51.4442 191.972 50.1133 193.607 50.1133C195.242 50.1133 196.575 51.4442 196.575 53.0753ZM195.643 53.0753C195.643 51.9546 194.73 51.0439 193.607 51.0439C192.484 51.0439 191.571 51.9546 191.571 53.0753C191.571 54.1961 192.484 55.1067 193.607 55.1067C194.73 55.1067 195.643 54.1961 195.643 53.0753Z" fill="#D4D7DE"/>
<path d="M194.919 41.8945C194.664 41.8945 194.453 42.1047 194.453 42.3599V44.4113C194.453 44.6665 194.664 44.8766 194.919 44.8766C195.175 44.8766 195.386 44.6665 195.386 44.4113V42.3599C195.386 42.1047 195.175 41.8945 194.919 41.8945Z" fill="#777E90"/>
<path d="M194.919 38.3086C194.664 38.3086 194.453 38.5187 194.453 38.7739V40.8253C194.453 41.0805 194.664 41.2907 194.919 41.2907C195.175 41.2907 195.386 41.0805 195.386 40.8253V38.7739C195.386 38.5187 195.175 38.3086 194.919 38.3086Z" fill="#777E90"/>
<path d="M197.804 41.125H195.958C195.703 41.125 195.492 41.3351 195.492 41.5903C195.492 41.8455 195.703 42.0556 195.958 42.0556H197.804C198.059 42.0556 198.27 41.8455 198.27 41.5903C198.27 41.3351 198.059 41.125 197.804 41.125Z" fill="#777E90"/>
<path d="M193.882 41.125H192.037C191.781 41.125 191.57 41.3351 191.57 41.5903C191.57 41.8455 191.781 42.0556 192.037 42.0556H193.882C194.138 42.0556 194.348 41.8455 194.348 41.5903C194.348 41.3351 194.138 41.125 193.882 41.125Z" fill="#777E90"/>
<path d="M178.839 49.6289C178.584 49.6289 178.373 49.8391 178.373 50.0942V52.1457C178.373 52.4008 178.584 52.611 178.839 52.611C179.095 52.611 179.306 52.4008 179.306 52.1457V50.0942C179.306 49.8391 179.095 49.6289 178.839 49.6289Z" fill="#F4F5F6"/>
<path d="M178.839 46.043C178.584 46.043 178.373 46.2531 178.373 46.5083V48.5547C178.373 48.8099 178.584 49.02 178.839 49.02C179.095 49.02 179.306 48.8099 179.306 48.5547V46.5083C179.306 46.2531 179.095 46.043 178.839 46.043Z" fill="#F4F5F6"/>
<path d="M181.724 48.8594H179.878C179.623 48.8594 179.412 49.0695 179.412 49.3247C179.412 49.5799 179.623 49.79 179.878 49.79H181.724C181.979 49.79 182.19 49.5799 182.19 49.3247C182.19 49.0695 181.979 48.8594 181.724 48.8594Z" fill="#F4F5F6"/>
<path d="M177.802 48.8594H175.957C175.701 48.8594 175.49 49.0695 175.49 49.3247C175.49 49.5799 175.701 49.79 175.957 49.79H177.802C178.057 49.79 178.268 49.5799 178.268 49.3247C178.268 49.0695 178.057 48.8594 177.802 48.8594Z" fill="#F4F5F6"/>
<path d="M49.8961 10.3499C48.2615 10.3499 46.9277 9.01897 46.9277 7.38784C46.9277 5.75671 48.2615 4.42578 49.8961 4.42578C51.5307 4.42578 52.8645 5.75671 52.8645 7.38784C52.8645 9.01897 51.5307 10.3499 49.8961 10.3499ZM49.8961 9.41925C51.0193 9.41925 51.9318 8.50862 51.9318 7.38784C51.9318 6.26706 51.0193 5.35643 49.8961 5.35643C48.7729 5.35643 47.8604 6.26706 47.8604 7.38784C47.8604 8.50862 48.7729 9.41925 49.8961 9.41925Z" fill="#777E90"/>
<path d="M58.3844 20.1311C56.7498 20.1311 55.416 18.8002 55.416 17.1691C55.416 15.538 56.7498 14.207 58.3844 14.207C60.019 14.207 61.3527 15.538 61.3527 17.1691C61.3527 18.8002 60.019 20.1311 58.3844 20.1311ZM58.3844 19.2005C59.5075 19.2005 60.4201 18.2899 60.4201 17.1691C60.4201 16.0483 59.5075 15.1377 58.3844 15.1377C57.2612 15.1377 56.3486 16.0483 56.3486 17.1691C56.3486 18.2899 57.2612 19.2005 58.3844 19.2005Z" fill="#D4D7DE"/>
<path d="M65.9357 5.23876C65.9357 4.98358 65.7251 4.77344 65.4694 4.77344H63.4136C63.1579 4.77344 62.9473 4.98358 62.9473 5.23876C62.9473 5.49394 63.1579 5.70408 63.4136 5.70408H65.4694C65.7251 5.70408 65.9357 5.49394 65.9357 5.23876Z" fill="#777E90"/>
<path d="M69.5303 5.23876C69.5303 4.98358 69.3197 4.77344 69.064 4.77344H67.0132C66.7575 4.77344 66.5469 4.98358 66.5469 5.23876C66.5469 5.49394 66.7575 5.70408 67.0132 5.70408H69.064C69.3197 5.70408 69.5303 5.49394 69.5303 5.23876Z" fill="#777E90"/>
<path d="M66.708 8.10738V6.2661C66.708 6.01093 66.4974 5.80078 66.2417 5.80078C65.986 5.80078 65.7754 6.01093 65.7754 6.2661V8.10738C65.7754 8.36256 65.986 8.57271 66.2417 8.57271C66.4974 8.57271 66.708 8.36256 66.708 8.10738Z" fill="#777E90"/>
<path d="M66.708 4.20113V2.35985C66.708 2.10468 66.4974 1.89453 66.2417 1.89453C65.986 1.89453 65.7754 2.10468 65.7754 2.35985V4.20113C65.7754 4.45631 65.986 4.66646 66.2417 4.66646C66.4974 4.66646 66.708 4.45631 66.708 4.20113Z" fill="#777E90"/>
<path d="M42.6201 22.5474C42.6201 22.2922 42.4095 22.082 42.1538 22.082H40.103C39.8473 22.082 39.6367 22.2922 39.6367 22.5474C39.6367 22.8025 39.8473 23.0127 40.103 23.0127H42.1538C42.4095 23.0127 42.6201 22.8025 42.6201 22.5474Z" fill="#F4F5F6"/>
<path d="M46.2158 22.5474C46.2158 22.2922 46.0052 22.082 45.7495 22.082H43.6987C43.443 22.082 43.2324 22.2922 43.2324 22.5474C43.2324 22.8025 43.443 23.0127 43.6987 23.0127H45.7495C46.0052 23.0127 46.2158 22.8025 46.2158 22.5474Z" fill="#F4F5F6"/>
<path d="M43.3916 25.4238V23.5825C43.3916 23.3273 43.181 23.1172 42.9253 23.1172C42.6696 23.1172 42.459 23.3273 42.459 23.5825V25.4238C42.459 25.679 42.6696 25.8891 42.9253 25.8891C43.181 25.8891 43.3916 25.679 43.3916 25.4238Z" fill="#F4F5F6"/>
<path d="M43.3916 21.5097V19.6684C43.3916 19.4133 43.181 19.2031 42.9253 19.2031C42.6696 19.2031 42.459 19.4133 42.459 19.6684V21.5097C42.459 21.7649 42.6696 21.975 42.9253 21.975C43.181 21.975 43.3916 21.7649 43.3916 21.5097Z" fill="#F4F5F6"/>
<path d="M153.513 33.3491L154.696 34.0496L155.323 34.4198L157.103 35.4706C157.103 35.4706 190.793 18.6489 186.491 3.2882C185.167 -1.44008 178.288 -2.67594 171.343 10.6433C164.905 22.9869 153.508 33.3441 153.508 33.3441L153.513 33.3491Z" fill="#D4D7DE"/>
<path d="M154.701 34.0503L155.328 34.4205C162.403 29.6422 168.41 23.4779 172.336 18.9648C176.999 13.6061 179.812 9.34812 179.842 9.30309C179.942 9.15299 179.902 8.94784 179.747 8.84778C179.596 8.74771 179.391 8.78773 179.29 8.94284C179.26 8.98787 176.462 13.2158 171.829 18.5395C167.883 23.0727 161.826 29.287 154.701 34.0453V34.0503Z" fill="#B1B5C3"/>
<path d="M147.346 37.3411L148.469 38.8772L149.066 39.6928L150.75 41.9994C150.75 41.9994 202.712 39.0023 205.655 17.1621C206.563 10.4375 198.505 5.12376 182.405 18.2479C167.482 30.4113 147.346 37.3461 147.346 37.3461V37.3411Z" fill="#F4F5F6"/>
<path d="M148.469 38.8718L149.065 39.6874C160.658 37.4758 171.654 32.9277 179.105 29.3352C187.95 25.0722 193.857 21.2045 193.917 21.1645C194.127 21.0244 194.188 20.7442 194.047 20.5341C193.907 20.3239 193.626 20.2639 193.415 20.404C193.355 20.444 187.494 24.2867 178.699 28.5246C171.213 32.1321 160.122 36.7153 148.474 38.8768L148.469 38.8718Z" fill="#D4D7DE"/>
<path d="M84.4396 146.666L83.2513 147.362L82.6195 147.727L80.8294 148.768C80.8294 148.768 47.2398 131.746 51.6372 116.405C52.991 111.682 59.8754 110.491 66.7397 123.855C73.1027 136.239 84.4396 146.666 84.4396 146.666Z" fill="#D4D7DE"/>
<path d="M83.2511 147.355L82.6193 147.721C75.5745 142.902 69.6026 136.703 65.7067 132.165C61.0786 126.776 58.2857 122.503 58.2607 122.458C58.1604 122.303 58.2055 122.103 58.3559 122.003C58.5064 121.903 58.7119 121.948 58.8122 122.098C58.8423 122.143 61.6101 126.386 66.2131 131.74C70.1291 136.298 76.1511 142.547 83.2461 147.35L83.2511 147.355Z" fill="#B1B5C3"/>
<path d="M90.5811 150.69L89.4529 152.222L88.8512 153.032L87.1514 155.329C87.1514 155.329 35.21 152.016 32.3971 130.161C31.5296 123.432 39.6224 118.168 55.6376 131.387C70.4844 143.641 90.576 150.695 90.576 150.695L90.5811 150.69Z" fill="#F4F5F6"/>
<path d="M89.4528 152.222L88.8511 153.032C77.2685 150.751 66.3026 146.137 58.8766 142.5C50.0568 138.182 44.1752 134.279 44.115 134.239C43.9044 134.099 43.8493 133.819 43.9897 133.609C44.1301 133.399 44.4109 133.344 44.6215 133.484C44.6816 133.524 50.5181 137.401 59.2928 141.689C66.7588 145.342 77.82 149.99 89.4528 152.222Z" fill="#D4D7DE"/>
<path d="M154.106 125.357C160.674 116.921 167.032 107.725 170.527 101.141C175.09 92.5395 176.92 85.6397 175.963 80.6413C175.897 80.311 175.576 80.0909 175.246 80.1559C174.915 80.221 174.694 80.5412 174.759 80.8714C176.429 89.6075 168.807 104.913 152.707 125.167L154.101 125.357H154.106Z" fill="#D4D7DE"/>
<path d="M173.957 93.1352C173.957 93.1352 178.204 95.9822 182.932 88.3419C182.932 88.3419 175.196 85.8201 173.957 93.1352Z" fill="#F4F5F6"/>
<path d="M171.726 97.2064C171.726 97.2064 174.815 93.1336 167.429 88C167.429 88 164.476 95.5703 171.726 97.2064Z" fill="#F4F5F6"/>
<path d="M175.536 84.5808C175.536 84.5808 179.808 81.7688 174.558 74.4688C174.558 74.4688 169.243 80.623 175.536 84.5808Z" fill="#F4F5F6"/>
<path d="M167.484 105.522C167.484 105.522 170.513 109.634 177.553 104.036C177.553 104.036 171.125 99.0521 167.484 105.522Z" fill="#F4F5F6"/>
<path d="M164.581 109.324C164.581 109.324 168.327 105.846 161.944 99.5117C161.944 99.5117 157.722 106.457 164.581 109.324Z" fill="#F4F5F6"/>
<path d="M161.125 114.915C161.125 114.915 164.078 119.088 171.218 113.625C171.218 113.625 164.886 108.521 161.125 114.915Z" fill="#F4F5F6"/>
<path d="M81.1549 72.8151C72.4654 66.5807 63.7608 59.5509 58.5411 54.2222C51.7269 47.2573 48.0165 41.1581 47.5151 36.0946C47.48 35.7593 47.7256 35.4591 48.0666 35.4291C48.4026 35.3941 48.7034 35.6393 48.7335 35.9795C49.6059 44.8306 61.2538 57.3593 82.4385 72.2397L81.1549 72.8151Z" fill="#D4D7DE"/>
<path d="M52.9857 47.5089C52.9857 47.5089 49.7215 51.4416 43.0176 45.4425C43.0176 45.4425 49.7265 40.8393 52.9857 47.5089Z" fill="#F4F5F6"/>
<path d="M56.2799 50.7803C56.2799 50.7803 52.1633 47.7481 57.7942 40.7383C57.7942 40.7383 62.7732 47.1627 56.2799 50.7803Z" fill="#F4F5F6"/>
<path d="M49.0436 39.7532C49.0436 39.7532 44.1498 38.2621 47.1132 29.7812C47.1132 29.7812 53.9524 34.1843 49.0436 39.7532Z" fill="#F4F5F6"/>
<path d="M62.7034 57.5624C62.7034 57.5624 60.9635 62.3657 52.625 58.9784C52.625 58.9784 57.3784 52.3838 62.7034 57.5624Z" fill="#F4F5F6"/>
<path d="M66.5641 60.3864C66.5641 60.3864 61.9862 58.1098 66.3134 50.2344C66.3134 50.2344 72.3304 55.7032 66.5641 60.3864Z" fill="#F4F5F6"/>
<path d="M71.4682 64.7805C71.4682 64.7805 69.8186 69.6138 61.4199 66.3916C61.4199 66.3916 66.048 59.707 71.4682 64.7805Z" fill="#F4F5F6"/>
<path d="M164.112 20.4991V163.263C164.112 167.736 160.477 171.364 155.995 171.364H84.7487C82.4974 171.364 80.4566 170.448 78.9875 168.972C77.5284 167.506 76.6309 165.49 76.6309 163.263V20.4991C76.6309 16.026 80.2661 12.3984 84.7487 12.3984H155.995C157.318 12.3984 158.572 12.7137 159.68 13.279C162.312 14.62 164.117 17.3469 164.117 20.4991H164.112Z" fill="#B1B5C3"/>
<path d="M161.089 20.4991V163.263C161.089 167.736 157.454 171.364 152.971 171.364H81.7253C79.474 171.364 77.4332 170.448 75.9641 168.972C74.5049 167.506 73.6074 165.49 73.6074 163.263V20.4991C73.6074 16.026 77.2427 12.3984 81.7253 12.3984H152.971C154.295 12.3984 155.548 12.7137 156.656 13.279C159.289 14.62 161.094 17.3469 161.094 20.4991H161.089Z" fill="#777E90"/>
<path d="M162.629 47.5061H163.752C164.8 47.5061 165.647 46.6605 165.647 45.6148V36.5085C165.647 35.4628 164.8 34.6172 163.752 34.6172H162.629V47.5111V47.5061Z" fill="#50515C"/>
<path d="M73.6022 47.5083H72.7197C71.8973 47.5083 71.2305 46.8429 71.2305 46.0223V36.0954C71.2305 35.2748 71.8974 34.6094 72.7147 34.6094H73.5971V47.5033L73.6022 47.5083Z" fill="#50515C"/>
<path d="M73.6022 64.4263H72.7197C71.8973 64.4263 71.2305 63.7608 71.2305 62.9403V53.0134C71.2305 52.1928 71.8973 51.5273 72.7197 51.5273H73.6022V64.4213V64.4263Z" fill="#50515C"/>
<path d="M157.038 20.0089V163.754C157.038 165.73 155.433 167.321 153.463 167.321H81.2344C79.7552 167.321 78.4866 166.431 77.9401 165.15C77.7596 164.719 77.6543 164.249 77.6543 163.754V20.0089C77.6543 18.0375 79.2538 16.4414 81.2294 16.4414H153.458C153.694 16.4414 153.924 16.4614 154.145 16.5065C154.396 16.5565 154.636 16.6265 154.867 16.7266C155.97 17.2019 156.787 18.2126 156.988 19.4235C157.023 19.6136 157.038 19.8087 157.038 20.0089Z" fill="white"/>
<path d="M139.132 140.882V153.781C139.132 154.656 138.365 155.362 137.417 155.362H99.1641C98.2164 155.362 97.4492 154.651 97.4492 153.781V140.882C97.4492 140.006 98.2164 139.301 99.1641 139.301H137.417C138.365 139.301 139.132 140.011 139.132 140.882Z" fill="#DA291C"/>
<path d="M114.186 146.291C114.186 148.172 112.742 149.358 110.471 149.358H109.293V151.354H106.545V143.219H110.471C112.742 143.219 114.186 144.405 114.186 146.286V146.291ZM111.414 146.291C111.414 145.7 111.053 145.34 110.295 145.34H109.293V147.247H110.295C111.053 147.247 111.414 146.886 111.414 146.296V146.291Z" fill="#831911"/>
<path d="M120.233 149.938H117.134L116.588 151.354H113.795L117.36 143.219H120.063L123.628 151.354H120.785L120.238 149.938H120.233ZM119.476 147.962L118.684 145.916L117.891 147.962H119.476Z" fill="#831911"/>
<path d="M128.386 148.406V151.358H125.638V148.371L122.564 143.223H125.463L127.127 146.035L128.802 143.223H131.455L128.381 148.406H128.386Z" fill="#831911"/>
<path d="M113.425 146.291C113.425 148.172 111.981 149.358 109.709 149.358H108.531V151.354H105.783V143.219H109.709C111.981 143.219 113.425 144.405 113.425 146.286V146.291ZM110.652 146.291C110.652 145.7 110.291 145.34 109.534 145.34H108.531V147.247H109.534C110.291 147.247 110.652 146.886 110.652 146.296V146.291Z" fill="white"/>
<path d="M119.467 149.938H116.369L115.822 151.354H113.029L116.594 143.219H119.297L122.862 151.354H120.019L119.472 149.938H119.467ZM118.71 147.962L117.918 145.916L117.126 147.962H118.71Z" fill="white"/>
<path d="M127.62 148.406V151.358H124.872V148.371L121.799 143.223H124.697L126.362 146.035L128.036 143.223H130.689L127.615 148.406H127.62Z" fill="white"/>
<path d="M114.022 60.7812H77.8848V124.591H114.022V60.7812Z" fill="#E9E2E8"/>
<path d="M125.287 55.8103V122.116C125.287 125.178 123.281 127.79 120.513 128.716C119.822 128.946 119.084 129.071 118.317 129.071C114.481 129.071 111.348 125.944 111.348 122.116V55.8103C111.348 51.9826 114.481 48.8555 118.317 48.8555C119.084 48.8555 119.822 48.9806 120.513 49.2107C121.551 49.556 122.484 50.1414 123.241 50.8969C124.505 52.1578 125.287 53.894 125.287 55.8103Z" fill="#777E90"/>
<path d="M125.287 55.8105V122.117C125.287 125.179 123.281 127.791 120.514 128.716C117.746 127.796 115.74 125.179 115.74 122.117V55.8105C115.74 52.7484 117.746 50.1366 120.514 49.2109C121.552 49.5562 122.484 50.1416 123.241 50.8971C124.505 52.158 125.287 53.8942 125.287 55.8105Z" fill="#B1B5C3"/>
<path d="M157.038 20.0089V34.7891H77.6543V20.0089C77.6543 18.0375 79.2538 16.4414 81.2294 16.4414H153.458C153.694 16.4414 153.924 16.4614 154.145 16.5065C154.396 16.5565 154.636 16.6265 154.867 16.7266C155.97 17.2019 156.787 18.2126 156.988 19.4235C157.023 19.6136 157.038 19.8087 157.038 20.0089Z" fill="#DDE0E5"/>
<path d="M75.6277 35.2845L75.6026 35.3095V40.2529C75.6026 42.3044 74.7753 44.1607 73.4265 45.5066C72.0777 46.8525 70.2175 47.6831 68.1617 47.6831C64.3309 47.6831 61.177 44.7961 60.7658 41.0835C60.7357 40.8133 60.7207 40.5331 60.7207 40.2529V35.4096L78.8969 17.272C79.4284 16.7416 80.1555 16.4414 80.9076 16.4414H94.2051L75.6277 35.2895V35.2845Z" fill="#DA291C"/>
<path d="M75.6026 35.3102V40.2536C75.6026 42.305 74.7753 44.1613 73.4265 45.5073C72.0777 46.8532 70.2175 47.6838 68.1617 47.6838C64.3309 47.6838 61.177 44.7968 60.7658 41.0842L60.7207 35.4102L75.6327 35.2852L75.6077 35.3102H75.6026Z" fill="#AE2116"/>
<path d="M123.984 16.4414L105.386 34.9993V40.2529C105.386 42.3044 104.554 44.1607 103.205 45.5066C101.856 46.8525 99.9959 47.6831 97.9401 47.6831C93.8285 47.6831 90.4941 44.3558 90.4941 40.2529V35.1644L109.087 16.4414H123.979H123.984Z" fill="#DA291C"/>
<path d="M105.386 35.0391V40.2527C105.386 42.3041 104.554 44.1604 103.205 45.5063C101.856 46.8523 99.9959 47.6828 97.9401 47.6828C93.8285 47.6828 90.4941 44.3555 90.4941 40.2527V35.1641L105.386 35.0441V35.0391Z" fill="#AE2116"/>
<path d="M135.606 34.797V40.2608C135.606 42.3122 134.778 44.1685 133.43 45.5144C132.081 46.8603 130.221 47.6909 128.165 47.6909C124.053 47.6909 120.268 44.3636 120.268 40.2608L120.298 35.0071L120.378 34.9271L138.865 16.4492H154.208L135.606 34.802V34.797Z" fill="#DA291C"/>
<path d="M135.611 40.2557C135.611 42.3071 134.778 44.1634 133.43 45.5093C132.081 46.8552 130.221 47.6858 128.165 47.6858C124.053 47.6858 120.268 44.3585 120.268 40.2557L120.298 35.002L120.378 34.922L135.606 34.7969V40.2607L135.611 40.2557Z" fill="#AE2116"/>
<path d="M150.499 34.6715V40.2554C150.499 42.3068 149.667 44.1631 148.318 45.509C146.974 46.855 145.109 47.6856 143.053 47.6856C138.942 47.6856 135.607 44.3582 135.607 40.2554V34.7916L154.145 16.5039C154.395 16.5539 154.636 16.624 154.867 16.7241C155.97 17.1994 156.787 18.2101 156.988 19.4209C157.023 19.6111 157.038 19.8062 157.038 20.0063V28.2571L150.499 34.6665V34.6715Z" fill="white"/>
<path d="M150.499 40.2558C150.499 42.3072 149.667 44.1635 148.318 45.5094C146.969 46.8553 145.109 47.6859 143.053 47.6859C138.942 47.6859 135.607 44.3586 135.607 40.2558V34.792L150.494 34.6719V40.2558H150.499Z" fill="#DDE0E5"/>
<path d="M109.087 16.4425L90.4896 35.1655V40.254C90.4896 42.3055 89.6573 44.1618 88.3085 45.5077C86.9597 46.8536 85.0994 47.6842 83.0436 47.6842C78.932 47.6842 75.5977 44.3569 75.5977 40.254V35.3106L75.6227 35.2856L94.2001 16.4375H109.087V16.4425Z" fill="white"/>
<path d="M90.4896 35.1641V40.2526C90.4896 42.304 89.6573 44.1603 88.3085 45.5062C86.9597 46.8522 85.0994 47.6828 83.0436 47.6828C78.932 47.6828 75.5977 44.3554 75.5977 40.2526V35.3092L75.6227 35.2841L90.4896 35.1641Z" fill="#DDE0E5"/>
<path d="M138.866 16.4414L120.269 34.9993V40.2529C120.269 42.3044 119.437 44.1607 118.088 45.5066C116.739 46.8525 114.879 47.6831 112.823 47.6831C108.711 47.6831 105.377 44.3558 105.377 40.2529V34.9993L123.979 16.4414H138.866Z" fill="white"/>
<path d="M120.349 34.9191L120.269 34.9991V40.2528C120.269 42.3042 119.437 44.1605 118.088 45.5064C116.739 46.8524 114.879 47.6829 112.823 47.6829C108.711 47.6829 105.377 44.3556 105.377 40.2528V35.0391L120.349 34.9141V34.9191Z" fill="#DDE0E5"/>
<path d="M122.37 61.5736V116.447C122.37 118.913 120.364 120.915 117.892 120.915H24.4991C23.386 120.915 22.3631 120.504 21.5809 119.834C20.6282 119.013 20.0215 117.798 20.0215 116.447V61.5736C20.0215 59.1069 22.0271 57.1055 24.4991 57.1055H117.887C120.359 57.1055 122.365 59.1069 122.365 61.5736H122.37Z" fill="#D4D7DE"/>
<path d="M122.365 68.3867H20.0215V80.5502H122.365V68.3867Z" fill="#777E90"/>
<path d="M112.847 104.258H93.0264C91.8522 104.258 90.9004 105.208 90.9004 106.379V110.552C90.9004 111.724 91.8522 112.674 93.0264 112.674H112.847C114.021 112.674 114.973 111.724 114.973 110.552V106.379C114.973 105.208 114.021 104.258 112.847 104.258Z" fill="#B1B5C3"/>
<path d="M33.2484 90.3867H26.4994C26.2031 90.3867 25.9629 90.6264 25.9629 90.9221V94.4395C25.9629 94.7352 26.2031 94.9749 26.4994 94.9749H33.2484C33.5447 94.9749 33.7849 94.7352 33.7849 94.4395V90.9221C33.7849 90.6264 33.5447 90.3867 33.2484 90.3867Z" fill="#B1B5C3"/>
<path d="M47.0219 90.3867H40.2728C39.9765 90.3867 39.7363 90.6264 39.7363 90.9221V94.4395C39.7363 94.7352 39.9765 94.9749 40.2728 94.9749H47.0219C47.3182 94.9749 47.5584 94.7352 47.5584 94.4395V90.9221C47.5584 90.6264 47.3182 90.3867 47.0219 90.3867Z" fill="#B1B5C3"/>
<path d="M60.7953 90.3867H54.0463C53.75 90.3867 53.5098 90.6264 53.5098 90.9221V94.4395C53.5098 94.7352 53.75 94.9749 54.0463 94.9749H60.7953C61.0916 94.9749 61.3318 94.7352 61.3318 94.4395V90.9221C61.3318 90.6264 61.0916 90.3867 60.7953 90.3867Z" fill="#B1B5C3"/>
<path d="M74.5707 90.3867H67.8217C67.5254 90.3867 67.2852 90.6264 67.2852 90.9221V94.4395C67.2852 94.7352 67.5254 94.9749 67.8217 94.9749H74.5707C74.867 94.9749 75.1072 94.7352 75.1072 94.4395V90.9221C75.1072 90.6264 74.867 90.3867 74.5707 90.3867Z" fill="#B1B5C3"/>
<path d="M88.3441 90.3867H81.5951C81.2988 90.3867 81.0586 90.6264 81.0586 90.9221V94.4395C81.0586 94.7352 81.2988 94.9749 81.5951 94.9749H88.3441C88.6404 94.9749 88.8806 94.7352 88.8806 94.4395V90.9221C88.8806 90.6264 88.6404 90.3867 88.3441 90.3867Z" fill="#B1B5C3"/>
<path d="M102.118 90.3867H95.3685C95.0722 90.3867 94.832 90.6264 94.832 90.9221V94.4395C94.832 94.7352 95.0722 94.9749 95.3685 94.9749H102.118C102.414 94.9749 102.654 94.7352 102.654 94.4395V90.9221C102.654 90.6264 102.414 90.3867 102.118 90.3867Z" fill="#B1B5C3"/>
<path d="M115.897 90.3867H109.148C108.852 90.3867 108.611 90.6264 108.611 90.9221V94.4395C108.611 94.7352 108.852 94.9749 109.148 94.9749H115.897C116.193 94.9749 116.433 94.7352 116.433 94.4395V90.9221C116.433 90.6264 116.193 90.3867 115.897 90.3867Z" fill="#B1B5C3"/>
<path d="M122.365 61.9453H20.0215V64.2769H122.365V61.9453Z" fill="#B1B5C3"/>
<path d="M36.2619 100.125H29.4377C27.5186 100.125 25.9629 101.677 25.9629 103.592V110.402C25.9629 112.317 27.5186 113.87 29.4377 113.87H36.2619C38.181 113.87 39.7367 112.317 39.7367 110.402V103.592C39.7367 101.677 38.181 100.125 36.2619 100.125Z" fill="#B1B5C3"/>
<path d="M86.4188 106.574H44.2148C43.5558 106.574 43.0215 107.107 43.0215 107.765V109.171C43.0215 109.829 43.5558 110.362 44.2148 110.362H86.4188C87.0779 110.362 87.6121 109.829 87.6121 109.171V107.765C87.6121 107.107 87.0779 106.574 86.4188 106.574Z" fill="#B1B5C3"/>
<path opacity="0.2" d="M84.448 57.1055L21.5809 119.839C20.6282 119.018 20.0215 117.803 20.0215 116.452V97.1983L60.1997 57.1055H84.448Z" fill="white"/>
<path opacity="0.2" d="M117.697 57.1055L53.7521 120.92H41.8887L105.834 57.1055H117.697Z" fill="white"/>
<path d="M198.655 172.702H189.579C188.346 172.702 187.253 171.306 186.872 169.244L183.021 148.445C182.865 147.594 183.201 146.709 183.708 146.639C190.712 145.683 197.652 145.683 204.521 146.639C205.028 146.709 205.364 147.594 205.208 148.445L201.357 169.249C200.976 171.311 199.883 172.707 198.65 172.707L198.655 172.702Z" fill="#B1B5C3"/>
<path d="M194.172 148.796C199.669 148.796 204.125 148.298 204.125 147.685C204.125 147.072 199.669 146.574 194.172 146.574C188.675 146.574 184.219 147.072 184.219 147.685C184.219 148.298 188.675 148.796 194.172 148.796Z" fill="#50515C"/>
<path d="M211.365 120.04C205.915 118.609 197.587 129.897 195.054 140.904V124.868C196.328 122.617 198.75 119.234 203.152 115.657C209.997 110.093 216.299 102.953 210.839 101.522C205.719 100.176 198.068 110.048 195.059 120.37V99.7759C195.942 98.4099 197.386 96.6187 199.698 94.7424C204.01 91.2349 207.981 86.7368 204.541 85.8312C201.553 85.0456 197.195 90.3243 195.059 96.2734V89.5988C195.41 87.5324 195.912 84.5853 197.281 81.5682C200.455 74.5834 202.169 67.3834 197.983 67.9188C193.796 68.4541 191.083 80.8978 193.37 90.4494V93.8868C191.825 86.8969 186.515 79.6569 183.051 80.5675C179.611 81.4732 183.582 85.9713 187.894 89.4787C191.179 92.1456 192.713 94.6473 193.37 95.9882V112.215C190.888 101.152 182.499 89.7339 177.019 91.1749C171.558 92.6109 177.861 99.7509 184.705 105.31C189.88 109.513 192.322 113.45 193.37 115.597V135.055C190.717 124.193 182.544 113.235 177.169 114.646C171.709 116.082 176.392 121.301 184.084 127.61C189.313 131.898 192.111 136.426 193.37 138.883V148.049C193.981 148.22 194.553 148.22 195.059 148.049V144.402C196.127 142.24 198.574 138.348 203.684 134.195C210.528 128.631 216.831 121.491 211.37 120.06L211.365 120.04Z" fill="#777E90"/>
<path d="M49.8155 169.22C49.8155 169.22 49.8155 169.255 49.8155 169.275C49.8155 169.961 49.4494 170.616 48.7775 171.232C48.6121 171.382 48.4316 171.527 48.231 171.672C47.6694 172.077 46.9724 172.458 46.1551 172.813C45.9796 172.888 45.7941 172.963 45.6086 173.038C44.9768 173.288 44.2799 173.518 43.5327 173.733C43.3522 173.784 43.1717 173.839 42.9862 173.884C42.3294 174.059 41.6374 174.219 40.9104 174.369C40.7298 174.404 40.5493 174.444 40.3638 174.474C39.6969 174.599 39.005 174.714 38.288 174.814C38.1075 174.839 37.9219 174.864 37.7414 174.889C37.0695 174.974 36.3776 175.054 35.6656 175.119C35.4851 175.134 35.2995 175.149 35.119 175.164C34.4421 175.219 33.7502 175.265 33.0432 175.3C32.8627 175.31 32.6772 175.315 32.4966 175.325C31.8147 175.35 31.1228 175.365 30.4208 175.37C30.3005 175.37 30.1751 175.37 30.0548 175.37C29.9946 175.37 29.9344 175.37 29.8743 175.37C29.1723 175.37 28.4803 175.355 27.7984 175.33C27.6129 175.325 27.4324 175.315 27.2519 175.31C26.7354 175.285 26.219 175.26 25.7125 175.225C25.532 175.21 25.3515 175.199 25.176 175.184C24.9905 175.169 24.81 175.154 24.6295 175.139C23.9225 175.079 23.2255 175.004 22.5536 174.919C22.3681 174.894 22.1876 174.874 22.0071 174.844C21.5759 174.784 21.1547 174.724 20.7435 174.654C20.4677 174.609 20.197 174.564 19.9312 174.514C19.7457 174.479 19.5652 174.444 19.3847 174.409C18.6576 174.264 17.9657 174.109 17.3088 173.939C17.1785 173.904 17.0531 173.869 16.9228 173.834C16.8676 173.819 16.8124 173.804 16.7623 173.789C16.4665 173.703 16.1757 173.618 15.8949 173.528C15.4687 173.393 15.0675 173.253 14.6865 173.108C14.5009 173.038 14.3154 172.963 14.1399 172.888C13.4379 172.598 12.8212 172.282 12.2997 171.952C12.2195 171.902 12.1393 171.852 12.0641 171.797C11.9688 171.732 11.8785 171.667 11.7883 171.602C11.693 171.532 11.6028 171.457 11.5125 171.387C10.7203 170.726 10.2891 170.016 10.2891 169.27C10.2891 169.22 10.2891 169.165 10.2941 169.115V164.902H11.5125H12.059H14.1349H14.6814H16.301H16.7573H17.3038H19.3797H19.9262H22.0021H22.5486H24.6245H25.171H27.2469H27.7934H29.8692H30.4158H32.4916H33.0382H35.114H35.6606H37.7364H38.283H40.3588H40.9053H42.9812H43.5277H45.6036H46.1501H48.226H48.7725H49.8054L49.8104 169.27L49.8155 169.22Z" fill="#B1B5C3"/>
<path d="M12.0437 164.906V171.801C11.9485 171.736 11.8582 171.671 11.768 171.606C11.6727 171.536 11.5824 171.461 11.4922 171.391V164.906H12.0387H12.0437Z" fill="#777E90"/>
<path d="M14.6657 164.902V173.108C14.4802 173.038 14.2946 172.963 14.1191 172.888V164.902H14.6657Z" fill="#777E90"/>
<path d="M17.2926 164.898V173.935C17.1623 173.9 17.0369 173.865 16.9065 173.83C16.8514 173.815 16.7962 173.8 16.7461 173.785V164.898H17.2926Z" fill="#777E90"/>
<path d="M19.9157 164.898V174.515C19.7302 174.48 19.5496 174.445 19.3691 174.41V164.898H19.9157Z" fill="#777E90"/>
<path d="M22.5387 164.891V174.918C22.3532 174.893 22.1727 174.873 21.9922 174.843V164.891H22.5387Z" fill="#777E90"/>
<path d="M25.1598 164.887V175.184C24.9743 175.169 24.7938 175.154 24.6133 175.139V164.887H25.1598Z" fill="#777E90"/>
<path d="M27.7887 164.883V175.33C27.6032 175.325 27.4227 175.315 27.2422 175.31V164.883H27.7887Z" fill="#777E90"/>
<path d="M30.4098 164.875V175.367C30.2895 175.367 30.1641 175.367 30.0438 175.367C29.9836 175.367 29.9235 175.367 29.8633 175.367V164.875H30.4098Z" fill="#777E90"/>
<path d="M33.0329 164.875V175.302C32.8524 175.312 32.6668 175.317 32.4863 175.327V164.88H33.0329V164.875Z" fill="#777E90"/>
<path d="M35.6598 164.871V175.123C35.4793 175.138 35.2938 175.153 35.1133 175.168V164.871H35.6598Z" fill="#777E90"/>
<path d="M38.2829 164.867V174.819C38.1024 174.844 37.9168 174.869 37.7363 174.894V164.867H38.2829Z" fill="#777E90"/>
<path d="M40.9059 164.863V174.37C40.7254 174.405 40.5449 174.445 40.3594 174.475V164.863H40.9059Z" fill="#777E90"/>
<path d="M43.527 164.863V173.739C43.3465 173.789 43.166 173.845 42.9805 173.89V164.863H43.527Z" fill="#777E90"/>
<path d="M46.154 164.855V172.811C45.9785 172.886 45.7929 172.961 45.6074 173.036V164.855H46.154Z" fill="#777E90"/>
<path d="M48.777 164.852V171.231C48.6115 171.381 48.431 171.526 48.2305 171.671V164.852H48.777Z" fill="#777E90"/>
<path d="M49.8107 164.901C49.8107 167.993 40.9608 170.505 30.045 170.505C28.5558 170.505 27.1017 170.46 25.7028 170.37C23.9478 170.259 22.2781 170.079 20.7338 169.844C19.3549 169.634 18.0713 169.379 16.913 169.089C16.557 168.999 16.216 168.909 15.8851 168.808C14.431 168.388 13.2126 167.898 12.2849 167.362C12.1044 167.257 11.934 167.152 11.7785 167.042C10.8108 166.382 10.2793 165.656 10.2793 164.901C10.2793 164.831 10.2793 164.761 10.2943 164.691C10.6754 161.694 19.3749 159.297 30.045 159.297C32.6724 159.297 35.1795 159.442 37.4709 159.707C37.9122 159.757 38.3484 159.812 38.7746 159.872C40.6348 160.132 42.3296 160.473 43.8038 160.878C44.1297 160.968 44.4406 161.058 44.7464 161.153C45.8245 161.493 46.7571 161.869 47.5142 162.274C48.2964 162.694 48.9031 163.145 49.2892 163.615C49.575 163.96 49.7455 164.32 49.7906 164.686C49.8007 164.756 49.8057 164.826 49.8057 164.896L49.8107 164.901Z" fill="#D4D7DE"/>
<path opacity="0.3" d="M49.2938 163.623L25.7073 170.368C23.9523 170.258 22.2826 170.078 20.7383 169.843L47.5187 162.277C48.301 162.698 48.9077 163.148 49.2938 163.618V163.623Z" fill="white"/>
<path opacity="0.3" d="M38.7754 159.876L12.2857 167.366C12.1052 167.261 11.9347 167.156 11.7793 167.046L37.4717 159.711C37.913 159.761 38.3492 159.816 38.7754 159.876Z" fill="white"/>
<path opacity="0.3" d="M44.7461 161.159L16.9127 169.09C16.5567 169 16.2157 168.909 15.8848 168.809L43.8034 160.879C44.1294 160.969 44.4402 161.059 44.7461 161.154V161.159Z" fill="white"/>
<path d="M45.8451 164.9C45.8451 164.97 45.8401 165.035 45.8301 165.105C45.449 167.477 38.5145 169.378 30.0456 169.378C21.5768 169.378 14.6422 167.482 14.2611 165.105C14.2511 165.035 14.2461 164.97 14.2461 164.9C14.2461 162.433 21.3311 160.422 30.0456 160.422C38.7602 160.422 45.8451 162.428 45.8451 164.9Z" fill="#777E90"/>
<path d="M45.8287 165.113C45.4477 167.484 38.5131 169.386 30.0442 169.386C29.8537 169.386 29.6682 169.386 29.4777 169.386C27.5873 169.366 25.7822 169.256 24.1175 169.061C22.4529 168.87 20.9235 168.6 19.5998 168.265C19.2639 168.18 18.938 168.095 18.6271 168C17.2131 167.58 16.0799 167.084 15.3228 166.529C15.1423 166.399 14.9768 166.264 14.8414 166.124C14.5155 165.798 14.3199 165.458 14.2598 165.113C14.6408 162.741 21.5754 160.84 30.0442 160.84C31.1173 160.84 32.1602 160.87 33.1781 160.93C33.6945 160.96 34.201 160.995 34.7024 161.04C36.7381 161.22 38.5984 161.51 40.1929 161.891C40.5388 161.971 40.8698 162.061 41.1907 162.151C42.4342 162.501 43.4721 162.906 44.2493 163.357C45.0064 163.797 45.5179 164.272 45.7335 164.778C45.7836 164.888 45.8137 165.003 45.8337 165.113H45.8287Z" fill="#B1B5C3"/>
<path opacity="0.2" d="M45.7289 164.77L29.4832 169.373C27.5928 169.353 25.7877 169.243 24.123 169.048L44.2448 163.344C45.0019 163.784 45.5133 164.259 45.7289 164.765V164.77Z" fill="white"/>
<path opacity="0.2" d="M34.7028 161.032L15.3232 166.521C15.1426 166.391 14.9772 166.256 14.8418 166.115L33.1785 160.922C33.6949 160.952 34.2014 160.987 34.7028 161.032Z" fill="white"/>
<path opacity="0.2" d="M41.1855 162.142L19.5997 168.261C19.2637 168.176 18.9378 168.091 18.627 167.996L40.1877 161.887C40.5337 161.967 40.8646 162.057 41.1855 162.147V162.142Z" fill="white"/>
<path d="M32.2416 167.443V168.189H28.9072V167.478C26.5405 167.438 24.2491 167.258 22.8301 167.008L24.6251 165.857C26.1845 166.117 28.2654 166.288 30.0855 166.288C31.67 166.288 32.2366 166.193 32.2366 166.032C32.2366 165.442 23.0858 165.917 23.0858 164.171C23.0858 163.416 25.0263 162.775 28.9022 162.625V161.895H32.2366V162.61C33.9865 162.655 35.6913 162.785 37.0351 163L35.3554 164.146C33.7258 163.911 32.1864 163.796 30.7424 163.796C29.1128 163.796 28.5913 163.931 28.5913 164.091C28.5913 164.656 37.7421 164.186 37.7421 165.912C37.7421 166.638 35.8969 167.268 32.2316 167.448L32.2416 167.443Z" fill="#777E90"/>
<path d="M32.1459 167.197V167.943H28.8115V167.232C26.4448 167.192 24.1534 167.012 22.7344 166.762L24.5294 165.611C26.0888 165.871 28.1697 166.041 29.9898 166.041C31.5743 166.041 32.1409 165.946 32.1409 165.786C32.1409 165.196 22.9901 165.671 22.9901 163.925C22.9901 163.169 24.9306 162.529 28.8065 162.379V161.648H32.1409V162.364C33.8908 162.409 35.5956 162.539 36.9394 162.754L35.2597 163.9C33.6301 163.665 32.0907 163.55 30.6467 163.55C29.0171 163.55 28.4956 163.685 28.4956 163.845C28.4956 164.41 37.6464 163.94 37.6464 165.666C37.6464 166.392 35.8012 167.022 32.1359 167.202L32.1459 167.197Z" fill="#D4D7DE"/>
<path d="M51.0596 162.31C51.0596 162.31 51.0596 162.345 51.0596 162.365C51.0596 163.051 50.6936 163.706 50.0217 164.322C49.8562 164.472 49.6757 164.617 49.4751 164.762C48.9135 165.167 48.2166 165.547 47.3993 165.898C47.2238 165.973 47.0383 166.048 46.8527 166.123C46.221 166.373 45.524 166.603 44.7769 166.818C44.5964 166.868 44.4159 166.923 44.2303 166.968C43.5735 167.144 42.8815 167.304 42.1545 167.454C41.974 167.489 41.7935 167.524 41.608 167.559C40.9411 167.684 40.2491 167.799 39.5321 167.899C39.3516 167.924 39.1661 167.949 38.9856 167.974C38.3137 168.059 37.6217 168.139 36.9097 168.204C36.7292 168.219 36.5437 168.234 36.3632 168.249C35.6863 168.304 34.9943 168.349 34.2873 168.384C34.1068 168.394 33.9213 168.399 33.7408 168.409C33.0589 168.434 32.3669 168.449 31.6649 168.454C31.5446 168.454 31.4192 168.454 31.2989 168.454C31.2387 168.454 31.1786 168.454 31.1184 168.454C30.4164 168.454 29.7245 168.439 29.0425 168.414C28.857 168.409 28.6765 168.399 28.496 168.394C27.9745 168.369 27.4631 168.344 26.9567 168.309C26.7762 168.299 26.5957 168.284 26.4202 168.269C26.2346 168.254 26.0541 168.239 25.8736 168.224C25.1666 168.164 24.4697 168.089 23.7978 168.004C23.6122 167.979 23.4317 167.959 23.2512 167.929C22.82 167.869 22.3988 167.809 21.9877 167.739C21.7119 167.694 21.4411 167.644 21.1754 167.599C20.9899 167.564 20.8093 167.529 20.6288 167.494C19.9018 167.349 19.2098 167.194 18.553 167.023C18.4226 166.988 18.2973 166.953 18.1669 166.918C18.1117 166.903 18.0566 166.888 18.0064 166.873C17.7106 166.788 17.4198 166.703 17.139 166.618C16.7128 166.483 16.3117 166.343 15.9306 166.198C15.7451 166.128 15.5595 166.053 15.3841 165.978C14.6821 165.683 14.0653 165.372 13.5439 165.042C13.4636 164.992 13.3834 164.942 13.3082 164.887C13.2129 164.822 13.1227 164.757 13.0324 164.692C12.9372 164.622 12.8469 164.547 12.7567 164.477C11.9644 163.816 11.5332 163.106 11.5332 162.36C11.5332 162.31 11.5332 162.255 11.5382 162.205V157.992H12.7567H13.3032H15.379H15.9256H17.5451H18.0014H18.548H20.6238H21.1704H23.2462H23.7928H25.8686H26.4151H28.491H29.0375H31.1134H31.6599H33.7358H34.2823H36.3582H36.9047H38.9806H39.5271H41.6029H42.1495H44.2253H44.7719H46.8477H47.3943H49.4701H50.0167H51.0496L51.0546 162.36L51.0596 162.31Z" fill="#B1B5C3"/>
<path d="M13.2879 157.996V164.891C13.1926 164.826 13.1024 164.761 13.0121 164.696C12.9168 164.626 12.8266 164.551 12.7363 164.481V157.996H13.2829H13.2879Z" fill="#777E90"/>
<path d="M15.9098 157.992V166.198C15.7243 166.128 15.5388 166.053 15.3633 165.978V157.992H15.9098Z" fill="#777E90"/>
<path d="M18.5329 157.988V167.025C18.4025 166.99 18.2771 166.955 18.1468 166.919C18.0916 166.904 18.0365 166.889 17.9863 166.874V157.988H18.5329Z" fill="#777E90"/>
<path d="M21.1598 157.988V167.605C20.9743 167.57 20.7938 167.535 20.6133 167.5V157.988H21.1598Z" fill="#777E90"/>
<path d="M23.7829 157.98V168.007C23.5973 167.982 23.4168 167.962 23.2363 167.932V157.98H23.7829Z" fill="#777E90"/>
<path d="M26.404 157.977V168.274C26.2184 168.259 26.0379 168.244 25.8574 168.229V157.977H26.404Z" fill="#777E90"/>
<path d="M29.027 157.973V168.42C28.8415 168.415 28.661 168.405 28.4805 168.4V157.973H29.027Z" fill="#777E90"/>
<path d="M31.654 157.965V168.457C31.5336 168.457 31.4083 168.457 31.2879 168.457C31.2278 168.457 31.1676 168.457 31.1074 168.457V157.965H31.654Z" fill="#777E90"/>
<path d="M34.277 157.965V168.392C34.0965 168.402 33.911 168.407 33.7305 168.417V157.97H34.277V157.965Z" fill="#777E90"/>
<path d="M36.9001 157.961V168.213C36.7195 168.228 36.534 168.243 36.3535 168.258V157.961H36.9001Z" fill="#777E90"/>
<path d="M39.527 157.957V167.909C39.3465 167.934 39.161 167.959 38.9805 167.984V157.957H39.527Z" fill="#777E90"/>
<path d="M42.1501 157.953V167.46C41.9695 167.495 41.789 167.53 41.6035 167.565V157.953H42.1501Z" fill="#777E90"/>
<path d="M44.7712 157.953V166.829C44.5906 166.879 44.4101 166.934 44.2246 166.979V157.953H44.7712Z" fill="#777E90"/>
<path d="M47.3942 157.945V165.901C47.2187 165.976 47.0332 166.051 46.8477 166.126V157.945H47.3942Z" fill="#777E90"/>
<path d="M50.0212 157.941V164.321C49.8557 164.471 49.6752 164.616 49.4746 164.761V157.941H50.0212Z" fill="#777E90"/>
<path d="M51.0548 157.991C51.0548 161.083 42.2049 163.594 31.2891 163.594C29.7999 163.594 28.3458 163.549 26.9469 163.459C25.192 163.349 23.5223 163.169 21.9779 162.934C20.599 162.724 19.3154 162.469 18.1571 162.179C17.8011 162.088 17.4602 161.998 17.1292 161.898C15.6751 161.473 14.4567 160.988 13.5291 160.452C13.3486 160.347 13.1781 160.242 13.0227 160.132C12.0549 159.472 11.5234 158.746 11.5234 157.991C11.5234 157.921 11.5234 157.851 11.5385 157.78C11.9196 154.783 20.6191 152.387 31.2891 152.387C33.9165 152.387 36.4236 152.532 38.7151 152.797C39.1563 152.847 39.5925 152.902 40.0187 152.962C41.879 153.222 43.5788 153.563 45.0479 153.968C45.3738 154.058 45.6847 154.148 45.9906 154.243C47.0686 154.583 48.0012 154.959 48.7584 155.364C49.5406 155.784 50.1473 156.234 50.5334 156.705C50.8192 157.05 50.9897 157.41 51.0348 157.775C51.0448 157.846 51.0498 157.916 51.0498 157.986L51.0548 157.991Z" fill="#D4D7DE"/>
<path opacity="0.3" d="M50.534 156.713L26.9475 163.458C25.1926 163.348 23.5229 163.168 21.9785 162.932L48.759 155.367C49.5412 155.787 50.1479 156.238 50.534 156.708V156.713Z" fill="white"/>
<path opacity="0.3" d="M40.0137 152.966L13.524 160.456C13.3435 160.351 13.173 160.246 13.0176 160.136L38.71 152.801C39.1512 152.851 39.5875 152.906 40.0137 152.966Z" fill="white"/>
<path opacity="0.3" d="M45.9902 154.249L18.1568 162.179C17.8008 162.089 17.4598 161.999 17.1289 161.899L45.0476 153.969C45.3735 154.059 45.6844 154.149 45.9902 154.244V154.249Z" fill="white"/>
<path d="M47.0893 157.99C47.0893 158.06 47.0843 158.125 47.0742 158.195C46.6932 160.567 39.7586 162.468 31.2898 162.468C22.8209 162.468 15.8864 160.572 15.5053 158.195C15.4952 158.125 15.4902 158.06 15.4902 157.99C15.4902 155.523 22.5752 153.512 31.2898 153.512C40.0043 153.512 47.0893 155.518 47.0893 157.99Z" fill="#777E90"/>
<path d="M47.0729 158.203C46.6918 160.574 39.7573 162.476 31.2884 162.476C31.0979 162.476 30.9123 162.476 30.7218 162.476C28.8315 162.456 27.0264 162.346 25.3617 162.15C23.697 161.96 22.1677 161.69 20.844 161.355C20.508 161.27 20.1821 161.185 19.8712 161.09C18.4572 160.669 17.324 160.174 16.5669 159.619C16.3864 159.489 16.2209 159.353 16.0855 159.213C15.7596 158.888 15.5641 158.548 15.5039 158.203C15.885 155.831 22.8195 153.93 31.2884 153.93C32.3614 153.93 33.4044 153.96 34.4222 154.02C34.9387 154.05 35.4451 154.085 35.9465 154.13C37.9823 154.31 39.8425 154.6 41.437 154.98C41.783 155.06 42.1139 155.151 42.4348 155.241C43.6783 155.591 44.7162 155.996 45.4934 156.446C46.2506 156.887 46.762 157.362 46.9776 157.867C47.0278 157.977 47.0578 158.093 47.0779 158.203H47.0729Z" fill="#B1B5C3"/>
<path opacity="0.2" d="M46.9731 157.86L30.7273 162.463C28.837 162.443 27.0319 162.333 25.3672 162.138L45.4889 156.434C46.246 156.874 46.7575 157.349 46.9731 157.855V157.86Z" fill="white"/>
<path opacity="0.2" d="M35.943 154.123L16.5634 159.612C16.3829 159.482 16.2174 159.347 16.082 159.206L34.4187 154.008C34.9352 154.038 35.4416 154.073 35.943 154.118V154.123Z" fill="white"/>
<path opacity="0.2" d="M42.4297 155.232L20.8438 161.351C20.5079 161.266 20.182 161.181 19.8711 161.086L41.4319 154.977C41.7778 155.057 42.1088 155.147 42.4297 155.237V155.232Z" fill="white"/>
<path d="M33.4857 160.533V161.279H30.1513V160.568C27.7847 160.528 25.4932 160.348 24.0742 160.098L25.8693 158.947C27.4287 159.207 29.5095 159.377 31.3297 159.377C32.9141 159.377 33.4807 159.282 33.4807 159.122C33.4807 158.532 24.3299 159.007 24.3299 157.261C24.3299 156.505 26.2704 155.865 30.1463 155.715V154.984H33.4807V155.7C35.2307 155.745 36.9355 155.875 38.2792 156.09L36.5995 157.236C34.9699 157.001 33.4306 156.886 31.9865 156.886C30.3569 156.886 29.8355 157.021 29.8355 157.181C29.8355 157.746 38.9862 157.276 38.9862 159.002C38.9862 159.728 37.141 160.358 33.4757 160.538L33.4857 160.533Z" fill="#777E90"/>
<path d="M33.39 160.287V161.033H30.0556V160.322C27.689 160.282 25.3975 160.102 23.9785 159.852L25.7736 158.701C27.333 158.961 29.4138 159.131 31.234 159.131C32.8184 159.131 33.385 159.036 33.385 158.876C33.385 158.286 24.2342 158.761 24.2342 157.015C24.2342 156.259 26.1747 155.619 30.0506 155.469V154.738H33.385V155.454C35.135 155.499 36.8398 155.629 38.1835 155.844L36.5038 156.99C34.8742 156.755 33.3349 156.64 31.8908 156.64C30.2612 156.64 29.7398 156.775 29.7398 156.935C29.7398 157.495 38.8905 157.03 38.8905 158.756C38.8905 159.482 37.0453 160.112 33.38 160.292L33.39 160.287Z" fill="#D4D7DE"/>
<path d="M50.878 155.399C50.878 155.399 50.878 155.434 50.878 155.454C50.878 156.139 50.5119 156.795 49.84 157.41C49.6746 157.56 49.4941 157.706 49.2935 157.851C48.7319 158.256 48.0349 158.636 47.2176 158.991C47.0421 159.066 46.8566 159.142 46.6711 159.217C46.0393 159.467 45.3424 159.697 44.5952 159.912C44.4147 159.962 44.2342 160.017 44.0487 160.062C43.3919 160.237 42.6999 160.397 41.9729 160.548C41.7923 160.583 41.6118 160.623 41.4263 160.653C40.7594 160.778 40.0675 160.893 39.3505 160.993C39.17 161.018 38.9844 161.043 38.8039 161.068C38.132 161.153 37.4401 161.233 36.7281 161.298C36.5476 161.313 36.362 161.328 36.1815 161.343C35.5046 161.398 34.8127 161.443 34.1057 161.478C33.9252 161.488 33.7397 161.493 33.5591 161.503C32.8772 161.528 32.1853 161.543 31.4833 161.548C31.363 161.548 31.2376 161.548 31.1173 161.548C31.0571 161.548 30.9969 161.548 30.9368 161.548C30.2348 161.548 29.5428 161.533 28.8609 161.508C28.6754 161.503 28.4949 161.493 28.3144 161.488C27.7929 161.463 27.2815 161.438 26.775 161.403C26.5945 161.388 26.414 161.378 26.2385 161.363C26.053 161.348 25.8725 161.333 25.692 161.318C24.985 161.258 24.288 161.183 23.6161 161.098C23.4306 161.073 23.2501 161.053 23.0696 161.023C22.6384 160.963 22.2172 160.903 21.806 160.833C21.5302 160.788 21.2595 160.743 20.9937 160.693C20.8082 160.658 20.6277 160.623 20.4472 160.588C19.7201 160.442 19.0282 160.287 18.3713 160.117C18.241 160.082 18.1156 160.047 17.9853 160.012C17.9301 159.997 17.8749 159.982 17.8248 159.967C17.529 159.882 17.2382 159.797 16.9574 159.712C16.5312 159.577 16.13 159.437 15.749 159.292C15.5634 159.222 15.3779 159.147 15.2024 159.071C14.5004 158.776 13.8837 158.466 13.3622 158.136C13.282 158.086 13.2018 158.036 13.1266 157.981C13.0313 157.916 12.941 157.851 12.8508 157.786C12.7555 157.716 12.6653 157.641 12.575 157.57C11.7828 156.91 11.3516 156.199 11.3516 155.454C11.3516 155.404 11.3516 155.349 11.3566 155.299V151.086H12.575H13.1216H15.1974H15.7439H17.3635H17.8198H18.3663H20.4422H20.9887H23.0646H23.6111H25.687H26.2335H28.3094H28.8559H30.9317H31.4783H33.5541H34.1007H36.1765H36.7231H38.7989H39.3455H41.4213H41.9678H44.0437H44.5902H46.6661H47.2126H49.2885H49.835H50.8679L50.8729 155.454L50.878 155.399Z" fill="#B1B5C3"/>
<path d="M13.1062 151.086V157.981C13.011 157.916 12.9207 157.851 12.8305 157.786C12.7352 157.716 12.6449 157.641 12.5547 157.57V151.086H13.1012H13.1062Z" fill="#777E90"/>
<path d="M15.7282 151.082V159.288C15.5427 159.218 15.3571 159.143 15.1816 159.068V151.082H15.7282Z" fill="#777E90"/>
<path d="M18.3512 151.078V160.114C18.2209 160.079 18.0955 160.044 17.9651 160.009C17.91 159.994 17.8548 159.979 17.8047 159.964V151.078H18.3512Z" fill="#777E90"/>
<path d="M20.9782 151.078V160.695C20.7927 160.66 20.6121 160.625 20.4316 160.59V151.078H20.9782Z" fill="#777E90"/>
<path d="M23.6012 151.07V161.097C23.4157 161.072 23.2352 161.052 23.0547 161.022V151.07H23.6012Z" fill="#777E90"/>
<path d="M26.2223 151.066V161.364C26.0368 161.349 25.8563 161.334 25.6758 161.319V151.066H26.2223Z" fill="#777E90"/>
<path d="M28.8454 151.062V161.51C28.6598 161.505 28.4793 161.495 28.2988 161.49V151.062H28.8454Z" fill="#777E90"/>
<path d="M31.4723 151.055V161.547C31.352 161.547 31.2266 161.547 31.1063 161.547C31.0461 161.547 30.986 161.547 30.9258 161.547V151.055H31.4723Z" fill="#777E90"/>
<path d="M34.0954 151.055V161.482C33.9149 161.492 33.7293 161.497 33.5488 161.507V151.06H34.0954V151.055Z" fill="#777E90"/>
<path d="M36.7184 151.051V161.303C36.5379 161.318 36.3524 161.333 36.1719 161.348V151.051H36.7184Z" fill="#777E90"/>
<path d="M39.3395 151.047V160.999C39.159 161.024 38.9735 161.049 38.793 161.074V151.047H39.3395Z" fill="#777E90"/>
<path d="M41.9684 151.043V160.55C41.7879 160.585 41.6074 160.625 41.4219 160.655V151.043H41.9684Z" fill="#777E90"/>
<path d="M44.5895 151.043V159.919C44.409 159.969 44.2285 160.024 44.043 160.069V151.043H44.5895Z" fill="#777E90"/>
<path d="M47.2126 151.035V158.991C47.0371 159.066 46.8515 159.141 46.666 159.216V151.035H47.2126Z" fill="#777E90"/>
<path d="M49.8356 151.031V157.411C49.6701 157.561 49.4896 157.706 49.2891 157.851V151.031H49.8356Z" fill="#777E90"/>
<path d="M50.8732 151.08C50.8732 154.173 42.0233 156.684 31.1075 156.684C29.6183 156.684 28.1642 156.639 26.7653 156.549C25.0103 156.439 23.3406 156.259 21.7963 156.024C20.4174 155.814 19.1338 155.559 17.9755 155.268C17.6195 155.178 17.2785 155.088 16.9476 154.988C15.4935 154.563 14.2751 154.078 13.3474 153.542C13.1669 153.437 12.9965 153.332 12.841 153.222C11.8733 152.561 11.3418 151.836 11.3418 151.08C11.3418 151.01 11.3418 150.94 11.3568 150.87C11.7379 147.873 20.4374 145.477 31.1075 145.477C33.7349 145.477 36.242 145.622 38.5334 145.887C38.9747 145.937 39.4109 145.992 39.8371 146.052C41.6973 146.312 43.3921 146.652 44.8663 147.058C45.1922 147.148 45.5031 147.238 45.8089 147.333C46.887 147.673 47.8196 148.048 48.5767 148.454C49.3589 148.874 49.9656 149.324 50.3517 149.795C50.6375 150.14 50.808 150.5 50.8531 150.865C50.8632 150.935 50.8682 151.005 50.8682 151.075L50.8732 151.08Z" fill="#D4D7DE"/>
<path opacity="0.3" d="M50.3523 149.803L26.7659 156.548C25.0109 156.438 23.3412 156.257 21.7969 156.022L48.5773 148.457C49.3595 148.877 49.9663 149.328 50.3523 149.798V149.803Z" fill="white"/>
<path opacity="0.3" d="M39.832 146.056L13.3424 153.546C13.1619 153.441 12.9914 153.336 12.8359 153.226L38.5283 145.891C38.9696 145.941 39.4058 145.996 39.832 146.056Z" fill="white"/>
<path opacity="0.3" d="M45.8086 147.339L17.9752 155.269C17.6192 155.179 17.2782 155.089 16.9473 154.989L44.8659 147.059C45.1919 147.149 45.5027 147.239 45.8086 147.334V147.339Z" fill="white"/>
<path d="M46.9076 151.08C46.9076 151.15 46.9026 151.215 46.8926 151.285C46.5115 153.656 39.577 155.558 31.1081 155.558C22.6393 155.558 15.7047 153.661 15.3236 151.285C15.3136 151.215 15.3086 151.15 15.3086 151.08C15.3086 148.613 22.3936 146.602 31.1081 146.602C39.8227 146.602 46.9076 148.608 46.9076 151.08Z" fill="#777E90"/>
<path d="M46.8873 151.293C46.5063 153.664 39.5717 155.565 31.1028 155.565C30.9123 155.565 30.7268 155.565 30.5362 155.565C28.6459 155.545 26.8408 155.435 25.1761 155.24C23.5114 155.05 21.9821 154.78 20.6584 154.445C20.3225 154.36 19.9965 154.275 19.6857 154.18C18.2717 153.759 17.1385 153.264 16.3814 152.708C16.2008 152.578 16.0354 152.443 15.9 152.303C15.5741 151.978 15.3785 151.638 15.3184 151.293C15.6994 148.921 22.634 147.02 31.1028 147.02C32.1759 147.02 33.2188 147.05 34.2367 147.11C34.7531 147.14 35.2596 147.175 35.761 147.22C37.7967 147.4 39.6569 147.69 41.2514 148.07C41.5974 148.15 41.9284 148.24 42.2493 148.33C43.4928 148.681 44.5307 149.086 45.3079 149.536C46.065 149.977 46.5764 150.452 46.7921 150.957C46.8422 151.067 46.8723 151.182 46.8923 151.293H46.8873Z" fill="#B1B5C3"/>
<path opacity="0.2" d="M46.7914 150.949L30.5457 155.553C28.6553 155.533 26.8502 155.423 25.1855 155.227L45.3073 149.523C46.0644 149.964 46.5758 150.439 46.7914 150.944V150.949Z" fill="white"/>
<path opacity="0.2" d="M35.7614 147.213L16.3817 152.702C16.2012 152.571 16.0358 152.436 15.9004 152.296L34.2371 147.098C34.7535 147.128 35.2599 147.163 35.7614 147.208V147.213Z" fill="white"/>
<path opacity="0.2" d="M42.248 148.322L20.6622 154.441C20.3262 154.356 20.0003 154.271 19.6895 154.176L41.2502 148.066C41.5962 148.146 41.9271 148.237 42.248 148.327V148.322Z" fill="white"/>
<path d="M33.3041 153.623V154.369H29.9697V153.658C27.603 153.618 25.3116 153.438 23.8926 153.188L25.6876 152.037C27.247 152.297 29.3279 152.467 31.148 152.467C32.7325 152.467 33.2991 152.372 33.2991 152.212C33.2991 151.622 24.1483 152.097 24.1483 150.351C24.1483 149.595 26.0888 148.955 29.9647 148.805V148.074H33.2991V148.79C35.049 148.835 36.7538 148.965 38.0976 149.18L36.4179 150.326C34.7883 150.091 33.2489 149.976 31.8049 149.976C30.1753 149.976 29.6538 150.111 29.6538 150.271C29.6538 150.831 38.8046 150.366 38.8046 152.092C38.8046 152.818 36.9594 153.448 33.2941 153.628L33.3041 153.623Z" fill="#777E90"/>
<path d="M33.2084 153.377V154.122H29.874V153.412C27.5073 153.372 25.2159 153.192 23.7969 152.942L25.5919 151.791C27.1513 152.051 29.2322 152.221 31.0523 152.221C32.6368 152.221 33.2034 152.126 33.2034 151.966C33.2034 151.376 24.0526 151.851 24.0526 150.105C24.0526 149.349 25.9931 148.709 29.869 148.559V147.828H33.2034V148.544C34.9533 148.589 36.6581 148.719 38.0019 148.934L36.3222 150.08C34.6926 149.845 33.1532 149.729 31.7092 149.729C30.0796 149.729 29.5581 149.865 29.5581 150.025C29.5581 150.585 38.7089 150.12 38.7089 151.846C38.7089 152.571 36.8637 153.202 33.1984 153.382L33.2084 153.377Z" fill="#D4D7DE"/>
<path d="M49.8916 149.219C49.8916 149.219 49.8916 149.254 49.8916 149.274C49.8916 149.96 49.5256 150.615 48.8537 151.231C48.6882 151.381 48.5077 151.526 48.3072 151.671C47.7456 152.076 47.0486 152.457 46.2313 152.812C46.0558 152.887 45.8703 152.962 45.6848 153.037C45.053 153.287 44.356 153.517 43.6089 153.732C43.4284 153.782 43.2479 153.837 43.0624 153.882C42.4055 154.058 41.7136 154.218 40.9865 154.368C40.806 154.403 40.6255 154.443 40.44 154.473C39.7731 154.598 39.0812 154.713 38.3641 154.813C38.1836 154.838 37.9981 154.863 37.8176 154.888C37.1457 154.973 36.4538 155.053 35.7417 155.118C35.5612 155.133 35.3757 155.148 35.1952 155.163C34.5183 155.218 33.8264 155.263 33.1194 155.298C32.9389 155.308 32.7533 155.313 32.5728 155.323C31.8909 155.349 31.1989 155.364 30.497 155.369C30.3766 155.369 30.2513 155.369 30.1309 155.369C30.0708 155.369 30.0106 155.369 29.9504 155.369C29.2484 155.369 28.5565 155.354 27.8746 155.328C27.6891 155.323 27.5085 155.313 27.328 155.308C26.8066 155.283 26.2951 155.258 25.7887 155.223C25.6082 155.213 25.4277 155.198 25.2522 155.183C25.0667 155.168 24.8862 155.153 24.7056 155.138C23.9987 155.078 23.3017 155.003 22.6298 154.918C22.4443 154.893 22.2638 154.873 22.0833 154.843C21.652 154.783 21.2309 154.723 20.8197 154.653C20.5439 154.608 20.2732 154.563 20.0074 154.513C19.8219 154.478 19.6414 154.443 19.4609 154.408C18.7338 154.263 18.0419 154.108 17.385 153.938C17.2546 153.903 17.1293 153.867 16.9989 153.832C16.9438 153.817 16.8886 153.802 16.8385 153.787C16.5426 153.702 16.2518 153.617 15.971 153.532C15.5448 153.397 15.1437 153.257 14.7626 153.112C14.5771 153.042 14.3916 152.967 14.2161 152.892C13.5141 152.602 12.8974 152.286 12.3759 151.956C12.2957 151.906 12.2154 151.856 12.1402 151.801C12.045 151.736 11.9547 151.671 11.8645 151.606C11.7692 151.536 11.6789 151.461 11.5887 151.391C10.7964 150.73 10.3652 150.02 10.3652 149.274C10.3652 149.224 10.3652 149.169 10.3702 149.119V144.906H11.5887H12.1352H14.2111H14.7576H16.3772H16.8335H17.38H19.4559H20.0024H22.0782H22.6248H24.7006H25.2472H27.323H27.8696H29.9454H30.492H32.5678H33.1143H35.1902H35.7367H37.8126H38.3591H40.435H40.9815H43.0574H43.6039H45.6798H46.2263H48.3021H48.8487H49.8816L49.8866 149.274L49.8916 149.219Z" fill="#B1B5C3"/>
<path d="M12.1199 144.906V151.801C12.0246 151.736 11.9344 151.671 11.8441 151.606C11.7489 151.536 11.6586 151.461 11.5684 151.391V144.906H12.1149H12.1199Z" fill="#777E90"/>
<path d="M14.7477 144.902V153.108C14.5622 153.038 14.3767 152.963 14.2012 152.888V144.902H14.7477Z" fill="#777E90"/>
<path d="M17.3688 144.898V153.935C17.2384 153.9 17.1131 153.865 16.9827 153.83C16.9276 153.815 16.8724 153.8 16.8223 153.785V144.898H17.3688Z" fill="#777E90"/>
<path d="M19.9919 144.891V154.507C19.8063 154.472 19.6258 154.437 19.4453 154.402V144.891H19.9919Z" fill="#777E90"/>
<path d="M22.6188 144.891V154.918C22.4333 154.893 22.2528 154.873 22.0723 154.843V144.891H22.6188Z" fill="#777E90"/>
<path d="M25.2419 144.887V155.184C25.0563 155.169 24.8758 155.154 24.6953 155.139V144.887H25.2419Z" fill="#777E90"/>
<path d="M27.8649 144.883V155.33C27.6794 155.325 27.4989 155.315 27.3184 155.31V144.883H27.8649Z" fill="#777E90"/>
<path d="M30.486 144.875V155.367C30.3657 155.367 30.2403 155.367 30.12 155.367C30.0598 155.367 29.9996 155.367 29.9395 155.367V144.875H30.486Z" fill="#777E90"/>
<path d="M33.1149 144.875V155.302C32.9344 155.312 32.7489 155.317 32.5684 155.327V144.88H33.1149V144.875Z" fill="#777E90"/>
<path d="M35.736 144.871V155.123C35.5555 155.138 35.37 155.153 35.1895 155.168V144.871H35.736Z" fill="#777E90"/>
<path d="M38.359 144.867V154.819C38.1785 154.844 37.993 154.869 37.8125 154.894V144.867H38.359Z" fill="#777E90"/>
<path d="M40.9821 144.863V154.37C40.8016 154.405 40.6211 154.445 40.4355 154.475V144.863H40.9821Z" fill="#777E90"/>
<path d="M43.609 144.855V153.732C43.4285 153.782 43.248 153.837 43.0625 153.882V144.855H43.609Z" fill="#777E90"/>
<path d="M46.2301 144.855V152.811C46.0546 152.886 45.8691 152.961 45.6836 153.036V144.855H46.2301Z" fill="#777E90"/>
<path d="M48.8532 144.852V151.231C48.6877 151.381 48.5072 151.526 48.3066 151.671V144.852H48.8532Z" fill="#777E90"/>
<path d="M49.8908 144.901C49.8908 147.993 41.0408 150.505 30.1251 150.505C28.6359 150.505 27.1818 150.46 25.7828 150.37C24.0279 150.259 22.3582 150.079 20.8138 149.844C19.435 149.634 18.1513 149.379 16.9931 149.089C16.6371 148.999 16.2961 148.909 15.9652 148.808C14.5111 148.383 13.2926 147.898 12.365 147.362C12.1845 147.257 12.014 147.152 11.8586 147.042C10.8909 146.382 10.3594 145.656 10.3594 144.901C10.3594 144.831 10.3594 144.761 10.3744 144.691C10.7555 141.694 19.455 139.297 30.1251 139.297C32.7525 139.297 35.2596 139.442 37.551 139.707C37.9923 139.757 38.4285 139.812 38.8547 139.872C40.7149 140.132 42.4097 140.473 43.8839 140.878C44.2098 140.968 44.5207 141.058 44.8265 141.153C45.9046 141.493 46.8372 141.869 47.5943 142.274C48.3765 142.694 48.9832 143.145 49.3693 143.615C49.6551 143.96 49.8256 144.32 49.8707 144.686C49.8808 144.756 49.8858 144.826 49.8858 144.896L49.8908 144.901Z" fill="#D4D7DE"/>
<path opacity="0.3" d="M49.3699 143.623L25.7835 150.368C24.0285 150.258 22.3588 150.078 20.8145 149.843L47.5949 142.277C48.3771 142.698 48.9838 143.148 49.3699 143.618V143.623Z" fill="white"/>
<path opacity="0.3" d="M38.8496 139.872L12.3599 147.362C12.1794 147.257 12.009 147.152 11.8535 147.042L37.5459 139.707C37.9872 139.757 38.4234 139.812 38.8496 139.872Z" fill="white"/>
<path opacity="0.3" d="M44.8223 141.159L16.9888 149.09C16.6328 149 16.2919 148.909 15.9609 148.809L43.8796 140.879C44.2055 140.969 44.5164 141.059 44.8223 141.154V141.159Z" fill="white"/>
<path d="M45.9194 144.9C45.9194 144.97 45.9144 145.035 45.9043 145.105C45.5233 147.477 38.5887 149.378 30.1198 149.378C21.651 149.378 14.7164 147.482 14.3354 145.105C14.3253 145.035 14.3203 144.97 14.3203 144.9C14.3203 142.433 21.4053 140.422 30.1198 140.422C38.8344 140.422 45.9194 142.428 45.9194 144.9Z" fill="#777E90"/>
<path d="M45.9049 145.105C45.5238 147.477 38.5893 149.378 30.1204 149.378C29.9299 149.378 29.7444 149.378 29.5538 149.378C27.6635 149.358 25.8584 149.248 24.1937 149.053C22.529 148.863 20.9997 148.592 19.676 148.257C19.34 148.172 19.0141 148.087 18.7032 147.992C17.2893 147.572 16.1561 147.076 15.3989 146.521C15.2184 146.391 15.053 146.256 14.9176 146.116C14.5917 145.79 14.3961 145.45 14.3359 145.105C14.717 142.733 21.6516 140.832 30.1204 140.832C31.1934 140.832 32.2364 140.862 33.2543 140.922C33.7707 140.952 34.2771 140.987 34.7785 141.032C36.8143 141.212 38.6745 141.502 40.269 141.883C40.615 141.963 40.9459 142.053 41.2668 142.143C42.5053 142.493 43.5483 142.898 44.3255 143.349C45.0826 143.789 45.594 144.264 45.8096 144.77C45.8598 144.88 45.8899 144.995 45.9099 145.105H45.9049Z" fill="#B1B5C3"/>
<path opacity="0.2" d="M45.8051 144.77L29.5593 149.373C27.669 149.353 25.8639 149.243 24.1992 149.048L44.3209 143.344C45.0781 143.784 45.5895 144.259 45.8051 144.765V144.77Z" fill="white"/>
<path opacity="0.2" d="M34.7789 141.033L15.3993 146.522C15.2188 146.392 15.0534 146.257 14.918 146.117L33.2546 140.918C33.7711 140.948 34.2775 140.983 34.7789 141.028V141.033Z" fill="white"/>
<path opacity="0.2" d="M41.2617 142.142L19.6759 148.261C19.3399 148.176 19.014 148.091 18.7031 147.996L40.2639 141.887C40.6099 141.967 40.9408 142.057 41.2617 142.147V142.142Z" fill="white"/>
<path d="M32.3197 147.443V148.189H28.9853V147.478C26.6187 147.438 24.3272 147.258 22.9082 147.008L24.7033 145.857C26.2627 146.117 28.3435 146.288 30.1637 146.288C31.7481 146.288 32.3147 146.193 32.3147 146.032C32.3147 145.442 23.1639 145.917 23.1639 144.171C23.1639 143.416 25.1044 142.775 28.9803 142.625V141.895H32.3147V142.61C34.0646 142.655 35.7694 142.785 37.1132 143L35.4335 144.146C33.8039 143.911 32.2646 143.796 30.8205 143.796C29.1909 143.796 28.6694 143.931 28.6694 144.091C28.6694 144.656 37.8202 144.186 37.8202 145.912C37.8202 146.638 35.975 147.268 32.3097 147.448L32.3197 147.443Z" fill="#777E90"/>
<path d="M32.2201 147.193V147.939H28.8857V147.228C26.519 147.188 24.2276 147.008 22.8086 146.758L24.6037 145.607C26.163 145.867 28.2439 146.038 30.064 146.038C31.6485 146.038 32.2151 145.943 32.2151 145.782C32.2151 145.192 23.0643 145.667 23.0643 143.921C23.0643 143.166 25.0048 142.525 28.8807 142.375V141.645H32.2151V142.36C33.965 142.405 35.6698 142.535 37.0136 142.75L35.3339 143.896C33.7043 143.661 32.165 143.546 30.7209 143.546C29.0913 143.546 28.5698 143.681 28.5698 143.841C28.5698 144.406 37.7206 143.936 37.7206 145.662C37.7206 146.388 35.8754 147.018 32.2101 147.198L32.2201 147.193Z" fill="#D4D7DE"/>
<path d="M84.7588 169.22C84.7588 169.22 84.7588 169.255 84.7588 169.275C84.7588 169.961 84.3928 170.616 83.7209 171.232C83.5554 171.382 83.3749 171.527 83.1744 171.672C82.6128 172.077 81.9158 172.458 81.0985 172.813C80.923 172.888 80.7375 172.963 80.552 173.038C79.9202 173.288 79.2232 173.518 78.4761 173.733C78.2956 173.784 78.1151 173.839 77.9296 173.884C77.2727 174.059 76.5808 174.219 75.8537 174.369C75.6732 174.404 75.4927 174.444 75.3072 174.474C74.6403 174.599 73.9484 174.714 73.2313 174.814C73.0508 174.839 72.8653 174.864 72.6848 174.889C72.0129 174.974 71.3209 175.054 70.6089 175.119C70.4284 175.134 70.2429 175.149 70.0624 175.164C69.3855 175.219 68.6935 175.265 67.9865 175.3C67.806 175.31 67.6205 175.315 67.44 175.325C66.7581 175.35 66.0661 175.365 65.3642 175.37C65.2438 175.37 65.1185 175.37 64.9981 175.37C64.938 175.37 64.8778 175.37 64.8176 175.37C64.1156 175.37 63.4237 175.355 62.7418 175.33C62.5562 175.325 62.3757 175.315 62.1952 175.31C61.6788 175.285 61.1623 175.26 60.6559 175.225C60.4754 175.21 60.2949 175.199 60.1194 175.184C59.9339 175.169 59.7533 175.154 59.5728 175.139C58.8658 175.079 58.1689 175.004 57.497 174.919C57.3115 174.894 57.131 174.874 56.9504 174.844C56.5192 174.784 56.098 174.724 55.6869 174.654C55.4111 174.609 55.1403 174.564 54.8746 174.514C54.6891 174.479 54.5086 174.444 54.3281 174.409C53.601 174.264 52.9091 174.109 52.2522 173.939C52.1218 173.904 51.9965 173.869 51.8661 173.834C51.811 173.819 51.7558 173.804 51.7057 173.789C51.4098 173.703 51.119 173.618 50.8382 173.528C50.412 173.393 50.0109 173.253 49.6298 173.108C49.4443 173.038 49.2588 172.963 49.0833 172.888C48.3813 172.598 47.7646 172.282 47.2431 171.952C47.1629 171.902 47.0826 171.852 47.0074 171.797C46.9122 171.732 46.8219 171.667 46.7316 171.602C46.6364 171.532 46.5461 171.457 46.4559 171.387C45.6636 170.726 45.2324 170.016 45.2324 169.27C45.2324 169.22 45.2324 169.165 45.2374 169.115V164.902H46.4559H47.0024H49.0783H49.6248H51.2444H51.7007H52.2472H54.323H54.8696H56.9454H57.492H59.5678H60.1144H62.1902H62.7368H64.8126H65.3591H67.435H67.9815H70.0574H70.6039H72.6798H73.2263H75.3022H75.8487H77.9246H78.4711H80.5469H81.0935H83.1693H83.7159H84.7488L84.7538 169.27L84.7588 169.22Z" fill="#B1B5C3"/>
<path d="M46.9871 164.906V171.801C46.8918 171.736 46.8016 171.671 46.7113 171.606C46.6161 171.536 46.5258 171.461 46.4355 171.391V164.906H46.9821H46.9871Z" fill="#777E90"/>
<path d="M49.609 164.902V173.108C49.4235 173.038 49.238 172.963 49.0625 172.888V164.902H49.609Z" fill="#777E90"/>
<path d="M52.2321 164.898V173.935C52.1017 173.9 51.9764 173.865 51.846 173.83C51.7908 173.815 51.7357 173.8 51.6855 173.785V164.898H52.2321Z" fill="#777E90"/>
<path d="M54.859 164.898V174.515C54.6735 174.48 54.493 174.445 54.3125 174.41V164.898H54.859Z" fill="#777E90"/>
<path d="M57.4821 164.891V174.918C57.2966 174.893 57.1161 174.873 56.9355 174.843V164.891H57.4821Z" fill="#777E90"/>
<path d="M60.1032 164.887V175.184C59.9177 175.169 59.7371 175.154 59.5566 175.139V164.887H60.1032Z" fill="#777E90"/>
<path d="M62.7262 164.883V175.33C62.5407 175.325 62.3602 175.315 62.1797 175.31V164.883H62.7262Z" fill="#777E90"/>
<path d="M65.3532 164.875V175.367C65.2328 175.367 65.1075 175.367 64.9871 175.367C64.927 175.367 64.8668 175.367 64.8066 175.367V164.875H65.3532Z" fill="#777E90"/>
<path d="M67.9762 164.875V175.302C67.7957 175.312 67.6102 175.317 67.4297 175.327V164.88H67.9762V164.875Z" fill="#777E90"/>
<path d="M70.5993 164.871V175.123C70.4188 175.138 70.2332 175.153 70.0527 175.168V164.871H70.5993Z" fill="#777E90"/>
<path d="M73.2204 164.867V174.819C73.0399 174.844 72.8543 174.869 72.6738 174.894V164.867H73.2204Z" fill="#777E90"/>
<path d="M75.8493 164.863V174.37C75.6688 174.405 75.4883 174.445 75.3027 174.475V164.863H75.8493Z" fill="#777E90"/>
<path d="M78.4704 164.863V173.739C78.2899 173.789 78.1094 173.845 77.9238 173.89V164.863H78.4704Z" fill="#777E90"/>
<path d="M81.0934 164.855V172.811C80.9179 172.886 80.7324 172.961 80.5469 173.036V164.855H81.0934Z" fill="#777E90"/>
<path d="M83.7165 164.852V171.231C83.551 171.381 83.3705 171.526 83.1699 171.671V164.852H83.7165Z" fill="#777E90"/>
<path d="M84.7541 164.901C84.7541 167.993 75.9041 170.505 64.9884 170.505C63.4992 170.505 62.0451 170.46 60.6461 170.37C58.8912 170.259 57.2215 170.079 55.6771 169.844C54.2982 169.634 53.0146 169.379 51.8563 169.089C51.5003 168.999 51.1594 168.909 50.8285 168.808C49.3744 168.388 48.1559 167.898 47.2283 167.362C47.0478 167.257 46.8773 167.152 46.7219 167.042C45.7542 166.382 45.2227 165.656 45.2227 164.901C45.2227 164.831 45.2227 164.761 45.2377 164.691C45.6188 161.694 54.3183 159.297 64.9884 159.297C67.6158 159.297 70.1228 159.442 72.4143 159.707C72.8555 159.757 73.2918 159.812 73.718 159.872C75.5782 160.132 77.273 160.473 78.7471 160.878C79.0731 160.968 79.3839 161.058 79.6898 161.153C80.7678 161.493 81.7005 161.869 82.4576 162.274C83.2398 162.694 83.8465 163.145 84.2326 163.615C84.5184 163.96 84.6889 164.32 84.734 164.686C84.744 164.756 84.7491 164.826 84.7491 164.896L84.7541 164.901Z" fill="#D4D7DE"/>
<path opacity="0.3" d="M84.2332 163.623L60.6467 170.368C58.8918 170.258 57.2221 170.078 55.6777 169.843L82.4582 162.277C83.2404 162.698 83.8471 163.148 84.2332 163.618V163.623Z" fill="white"/>
<path opacity="0.3" d="M73.7129 159.876L47.2232 167.366C47.0427 167.261 46.8722 167.156 46.7168 167.046L72.4092 159.711C72.8505 159.761 73.2867 159.816 73.7129 159.876Z" fill="white"/>
<path opacity="0.3" d="M79.6895 161.159L51.856 169.09C51.5 169 51.1591 168.909 50.8281 168.809L78.7468 160.879C79.0727 160.969 79.3836 161.059 79.6895 161.154V161.159Z" fill="white"/>
<path d="M80.7885 164.9C80.7885 164.97 80.7835 165.035 80.7735 165.105C80.3924 167.477 73.4578 169.378 64.989 169.378C56.5201 169.378 49.5856 167.482 49.2045 165.105C49.1945 165.035 49.1895 164.97 49.1895 164.9C49.1895 162.433 56.2744 160.422 64.989 160.422C73.7035 160.422 80.7885 162.428 80.7885 164.9Z" fill="#777E90"/>
<path d="M80.7682 165.113C80.3871 167.484 73.4526 169.386 64.9837 169.386C64.7932 169.386 64.6076 169.386 64.4171 169.386C62.5268 169.366 60.7217 169.256 59.057 169.061C57.3923 168.87 55.863 168.6 54.5393 168.265C54.2033 168.18 53.8774 168.095 53.5665 168C52.1525 167.58 51.0193 167.084 50.2622 166.529C50.0817 166.399 49.9162 166.264 49.7809 166.124C49.4549 165.798 49.2594 165.458 49.1992 165.113C49.5803 162.741 56.5148 160.84 64.9837 160.84C66.0567 160.84 67.0997 160.87 68.1175 160.93C68.634 160.96 69.1404 160.995 69.6418 161.04C71.6776 161.22 73.5378 161.51 75.1323 161.891C75.4783 161.971 75.8092 162.061 76.1301 162.151C77.3736 162.501 78.4115 162.906 79.1887 163.357C79.9459 163.797 80.4573 164.272 80.6729 164.778C80.7231 164.888 80.7531 165.003 80.7732 165.113H80.7682Z" fill="#B1B5C3"/>
<path opacity="0.2" d="M80.6723 164.77L64.4265 169.373C62.5362 169.353 60.7311 169.243 59.0664 169.048L79.1881 163.344C79.9452 163.784 80.4567 164.259 80.6723 164.765V164.77Z" fill="white"/>
<path opacity="0.2" d="M69.6422 161.032L50.2626 166.521C50.0821 166.391 49.9166 166.256 49.7812 166.115L68.1179 160.922C68.6344 160.952 69.1408 160.987 69.6422 161.032Z" fill="white"/>
<path opacity="0.2" d="M76.1289 162.142L54.5431 168.261C54.2071 168.176 53.8812 168.091 53.5703 167.996L75.1311 161.887C75.477 161.967 75.808 162.057 76.1289 162.147V162.142Z" fill="white"/>
<path d="M67.185 167.443V168.189H63.8506V167.478C61.4839 167.438 59.1924 167.258 57.7734 167.008L59.5685 165.857C61.1279 166.117 63.2088 166.288 65.0289 166.288C66.6133 166.288 67.1799 166.193 67.1799 166.032C67.1799 165.442 58.0292 165.917 58.0292 164.171C58.0292 163.416 59.9696 162.775 63.8455 162.625V161.895H67.1799V162.61C68.9299 162.655 70.6347 162.785 71.9785 163L70.2987 164.146C68.6691 163.911 67.1298 163.796 65.6857 163.796C64.0561 163.796 63.5347 163.931 63.5347 164.091C63.5347 164.656 72.6855 164.186 72.6855 165.912C72.6855 166.638 70.8403 167.268 67.1749 167.448L67.185 167.443Z" fill="#777E90"/>
<path d="M67.0893 167.197V167.943H63.7549V167.232C61.3882 167.192 59.0967 167.012 57.6777 166.762L59.4728 165.611C61.0322 165.871 63.1131 166.041 64.9332 166.041C66.5176 166.041 67.0842 165.946 67.0842 165.786C67.0842 165.196 57.9335 165.671 57.9335 163.925C57.9335 163.169 59.8739 162.529 63.7498 162.379V161.648H67.0842V162.364C68.8342 162.409 70.539 162.539 71.8828 162.754L70.203 163.9C68.5734 163.665 67.0341 163.55 65.59 163.55C63.9604 163.55 63.439 163.685 63.439 163.845C63.439 164.41 72.5898 163.94 72.5898 165.666C72.5898 166.392 70.7446 167.022 67.0792 167.202L67.0893 167.197Z" fill="#D4D7DE"/>
<path d="M85.9991 162.31C85.9991 162.31 85.9991 162.345 85.9991 162.365C85.9991 163.051 85.633 163.706 84.9611 164.322C84.7957 164.472 84.6152 164.617 84.4146 164.762C83.853 165.167 83.156 165.547 82.3387 165.898C82.1632 165.973 81.9777 166.048 81.7922 166.123C81.1604 166.373 80.4634 166.603 79.7163 166.818C79.5358 166.868 79.3553 166.923 79.1698 166.968C78.513 167.144 77.821 167.304 77.094 167.454C76.9134 167.489 76.7329 167.524 76.5474 167.559C75.8805 167.684 75.1886 167.799 74.4716 167.899C74.2911 167.924 74.1055 167.949 73.925 167.974C73.2531 168.059 72.5612 168.139 71.8492 168.204C71.6687 168.219 71.4831 168.234 71.3026 168.249C70.6257 168.304 69.9338 168.349 69.2268 168.384C69.0463 168.394 68.8608 168.399 68.6802 168.409C67.9983 168.434 67.3064 168.449 66.6044 168.454C66.4841 168.454 66.3587 168.454 66.2384 168.454C66.1782 168.454 66.118 168.454 66.0579 168.454C65.3559 168.454 64.6639 168.439 63.982 168.414C63.7965 168.409 63.616 168.399 63.4355 168.394C62.914 168.369 62.4026 168.344 61.8961 168.309C61.7156 168.299 61.5351 168.284 61.3596 168.269C61.1741 168.254 60.9936 168.239 60.8131 168.224C60.1061 168.164 59.4091 168.089 58.7372 168.004C58.5517 167.979 58.3712 167.959 58.1907 167.929C57.7595 167.869 57.3383 167.809 56.9271 167.739C56.6513 167.694 56.3806 167.644 56.1148 167.599C55.9293 167.564 55.7488 167.529 55.5683 167.494C54.8412 167.349 54.1493 167.194 53.4924 167.023C53.3621 166.988 53.2367 166.953 53.1064 166.918C53.0512 166.903 52.996 166.888 52.9459 166.873C52.6501 166.788 52.3592 166.703 52.0785 166.618C51.6523 166.483 51.2511 166.343 50.87 166.198C50.6845 166.128 50.499 166.053 50.3235 165.978C49.6215 165.683 49.0048 165.372 48.4833 165.042C48.4031 164.992 48.3229 164.942 48.2477 164.887C48.1524 164.822 48.0621 164.757 47.9719 164.692C47.8766 164.622 47.7864 164.547 47.6961 164.477C46.9039 163.816 46.4727 163.106 46.4727 162.36C46.4727 162.31 46.4727 162.255 46.4777 162.205V157.992H47.6961H48.2426H50.3185H50.865H52.4846H52.9409H53.4874H55.5633H56.1098H58.1857H58.7322H60.8081H61.3546H63.4304H63.977H66.0528H66.5994H68.6752H69.2218H71.2976H71.8442H73.92H74.4665H76.5424H77.0889H79.1648H79.7113H81.7872H82.3337H84.4096H84.9561H85.989L85.994 162.36L85.9991 162.31Z" fill="#B1B5C3"/>
<path d="M48.2273 157.996V164.891C48.1321 164.826 48.0418 164.761 47.9516 164.696C47.8563 164.626 47.766 164.551 47.6758 164.481V157.996H48.2223H48.2273Z" fill="#777E90"/>
<path d="M50.8551 157.992V166.198C50.6696 166.128 50.4841 166.053 50.3086 165.978V157.992H50.8551Z" fill="#777E90"/>
<path d="M53.4762 157.988V167.025C53.3459 166.99 53.2205 166.955 53.0901 166.919C53.035 166.904 52.9798 166.889 52.9297 166.874V157.988H53.4762Z" fill="#777E90"/>
<path d="M56.0993 157.988V167.605C55.9137 167.57 55.7332 167.535 55.5527 167.5V157.988H56.0993Z" fill="#777E90"/>
<path d="M58.7262 157.98V168.007C58.5407 167.982 58.3602 167.962 58.1797 167.932V157.98H58.7262Z" fill="#777E90"/>
<path d="M61.3493 157.977V168.274C61.1637 168.259 60.9832 168.244 60.8027 168.229V157.977H61.3493Z" fill="#777E90"/>
<path d="M63.9723 157.973V168.42C63.7868 168.415 63.6063 168.405 63.4258 168.4V157.973H63.9723Z" fill="#777E90"/>
<path d="M66.5934 157.965V168.457C66.4731 168.457 66.3477 168.457 66.2274 168.457C66.1672 168.457 66.107 168.457 66.0469 168.457V157.965H66.5934Z" fill="#777E90"/>
<path d="M69.2223 157.965V168.392C69.0418 168.402 68.8563 168.407 68.6758 168.417V157.97H69.2223V157.965Z" fill="#777E90"/>
<path d="M71.8434 157.961V168.213C71.6629 168.228 71.4774 168.243 71.2969 168.258V157.961H71.8434Z" fill="#777E90"/>
<path d="M74.4665 157.957V167.909C74.286 167.934 74.1004 167.959 73.9199 167.984V157.957H74.4665Z" fill="#777E90"/>
<path d="M77.0895 157.953V167.46C76.909 167.495 76.7285 167.53 76.543 167.565V157.953H77.0895Z" fill="#777E90"/>
<path d="M79.7165 157.953V166.829C79.536 166.879 79.3554 166.934 79.1699 166.979V157.953H79.7165Z" fill="#777E90"/>
<path d="M82.3376 157.945V165.901C82.1621 165.976 81.9765 166.051 81.791 166.126V157.945H82.3376Z" fill="#777E90"/>
<path d="M84.9606 157.941V164.321C84.7951 164.471 84.6146 164.616 84.4141 164.761V157.941H84.9606Z" fill="#777E90"/>
<path d="M85.9982 157.991C85.9982 161.083 77.1483 163.594 66.2325 163.594C64.7433 163.594 63.2892 163.549 61.8903 163.459C60.1353 163.349 58.4656 163.169 56.9213 162.934C55.5424 162.724 54.2588 162.469 53.1005 162.179C52.7445 162.088 52.4035 161.998 52.0726 161.898C50.6185 161.473 49.4001 160.988 48.4724 160.452C48.2919 160.347 48.1215 160.242 47.966 160.132C46.9983 159.472 46.4668 158.746 46.4668 157.991C46.4668 157.921 46.4668 157.851 46.4818 157.78C46.8629 154.783 55.5624 152.387 66.2325 152.387C68.8599 152.387 71.367 152.532 73.6584 152.797C74.0997 152.847 74.5359 152.902 74.9621 152.962C76.8223 153.222 78.5171 153.563 79.9913 153.968C80.3172 154.058 80.6281 154.148 80.9339 154.243C82.012 154.583 82.9446 154.959 83.7017 155.364C84.4839 155.784 85.0906 156.234 85.4767 156.705C85.7625 157.05 85.933 157.41 85.9781 157.775C85.9882 157.846 85.9932 157.916 85.9932 157.986L85.9982 157.991Z" fill="#D4D7DE"/>
<path opacity="0.3" d="M85.4774 156.713L61.8909 163.458C60.1359 163.348 58.4662 163.168 56.9219 162.932L83.7023 155.367C84.4846 155.787 85.0913 156.238 85.4774 156.708V156.713Z" fill="white"/>
<path opacity="0.3" d="M74.957 152.966L48.4674 160.456C48.2869 160.351 48.1164 160.246 47.9609 160.136L73.6533 152.801C74.0946 152.851 74.5308 152.906 74.957 152.966Z" fill="white"/>
<path opacity="0.3" d="M80.9297 154.249L53.0963 162.179C52.7403 162.089 52.3993 161.999 52.0684 161.899L79.987 153.969C80.313 154.059 80.6238 154.149 80.9297 154.244V154.249Z" fill="white"/>
<path d="M82.0268 157.99C82.0268 158.06 82.0218 158.125 82.0117 158.195C81.6307 160.567 74.6961 162.468 66.2273 162.468C57.7584 162.468 50.8239 160.572 50.4428 158.195C50.4327 158.125 50.4277 158.06 50.4277 157.99C50.4277 155.523 57.5127 153.512 66.2273 153.512C74.9418 153.512 82.0268 155.518 82.0268 157.99Z" fill="#777E90"/>
<path d="M82.0123 158.203C81.6313 160.574 74.6967 162.476 66.2278 162.476C66.0373 162.476 65.8518 162.476 65.6612 162.476C63.7709 162.456 61.9658 162.346 60.3011 162.15C58.6365 161.96 57.1071 161.69 55.7834 161.355C55.4475 161.27 55.1215 161.185 54.8107 161.09C53.3967 160.669 52.2635 160.174 51.5064 159.619C51.3258 159.489 51.1604 159.353 51.025 159.213C50.6991 158.888 50.5035 158.548 50.4434 158.203C50.8244 155.831 57.759 153.93 66.2278 153.93C67.3009 153.93 68.3438 153.96 69.3617 154.02C69.8781 154.05 70.3846 154.085 70.886 154.13C72.9217 154.31 74.782 154.6 76.3764 154.98C76.7224 155.06 77.0534 155.151 77.3743 155.241C78.6178 155.591 79.6557 155.996 80.4329 156.446C81.19 156.887 81.7015 157.362 81.9171 157.867C81.9672 157.977 81.9973 158.093 82.0173 158.203H82.0123Z" fill="#B1B5C3"/>
<path opacity="0.2" d="M81.9125 157.86L65.6668 162.463C63.7764 162.443 61.9713 162.333 60.3066 162.138L80.4283 156.434C81.1855 156.874 81.6969 157.349 81.9125 157.855V157.86Z" fill="white"/>
<path opacity="0.2" d="M70.8864 154.123L51.5067 159.612C51.3262 159.482 51.1608 159.347 51.0254 159.206L69.3621 154.008C69.8785 154.038 70.3849 154.073 70.8864 154.118V154.123Z" fill="white"/>
<path opacity="0.2" d="M77.3691 155.232L55.7833 161.351C55.4473 161.266 55.1214 161.181 54.8105 161.086L76.3713 154.977C76.7173 155.057 77.0482 155.147 77.3691 155.237V155.232Z" fill="white"/>
<path d="M68.4271 160.533V161.279H65.0928V160.568C62.7261 160.528 60.4346 160.348 59.0156 160.098L60.8107 158.947C62.3701 159.207 64.4509 159.377 66.2711 159.377C67.8555 159.377 68.4221 159.282 68.4221 159.122C68.4221 158.532 59.2713 159.007 59.2713 157.261C59.2713 156.505 61.2118 155.865 65.0877 155.715V154.984H68.4221V155.7C70.1721 155.745 71.8769 155.875 73.2207 156.09L71.5409 157.236C69.9113 157.001 68.372 156.886 66.9279 156.886C65.2983 156.886 64.7769 157.021 64.7769 157.181C64.7769 157.746 73.9277 157.276 73.9277 159.002C73.9277 159.728 72.0824 160.358 68.4171 160.538L68.4271 160.533Z" fill="#777E90"/>
<path d="M68.3275 160.287V161.033H64.9931V160.322C62.6265 160.282 60.335 160.102 58.916 159.852L60.7111 158.701C62.2705 158.961 64.3513 159.131 66.1715 159.131C67.7559 159.131 68.3225 159.036 68.3225 158.876C68.3225 158.286 59.1717 158.761 59.1717 157.015C59.1717 156.259 61.1122 155.619 64.9881 155.469V154.738H68.3225V155.454C70.0725 155.499 71.7773 155.629 73.121 155.844L71.4413 156.99C69.8117 156.755 68.2724 156.64 66.8283 156.64C65.1987 156.64 64.6773 156.775 64.6773 156.935C64.6773 157.495 73.828 157.03 73.828 158.756C73.828 159.482 71.9828 160.112 68.3175 160.292L68.3275 160.287Z" fill="#D4D7DE"/>
<path d="M169.889 63.9041V78.7544C169.889 79.7001 169.117 80.4656 168.174 80.4656H153.292C152.44 80.4656 151.106 79.8652 150.504 78.4943C150.474 78.4342 150.444 78.3792 150.429 78.3191C150.399 78.2291 150.369 78.144 150.339 78.0489C150.339 78.0389 150.334 78.0289 150.334 78.0189C150.334 78.0189 150.332 78.0156 150.329 78.0089V77.9789L150.299 66.2608V62.8284C150.299 61.9378 150.976 61.2173 151.833 61.1222C151.893 61.1222 151.959 61.1172 152.014 61.1172L167.196 61.1772C167.267 61.1772 167.337 61.1822 167.402 61.1972H167.407C168.936 61.3674 169.889 63.0035 169.889 63.9091V63.9041Z" fill="#AE2116"/>
<path d="M168.616 62.8284V77.6737C168.616 78.6243 167.844 79.3849 166.901 79.3849H152.02C151.368 79.3849 150.801 79.0246 150.51 78.4943C150.48 78.4342 150.45 78.3792 150.435 78.3191C150.405 78.2291 150.375 78.144 150.345 78.0489C150.345 78.0389 150.34 78.0289 150.34 78.0189C150.34 78.0089 150.335 77.9889 150.335 77.9789C150.315 77.8788 150.305 77.7788 150.305 77.6737V62.8284C150.305 61.9378 150.982 61.2173 151.839 61.1222C151.899 61.1222 151.964 61.1172 152.02 61.1172H166.901C167.077 61.1172 167.247 61.1422 167.408 61.1922H167.413C168.115 61.4074 168.616 62.0528 168.616 62.8284Z" fill="#DA291C"/>
<path d="M160.542 75.2853L160.532 76.7664L158.647 76.7514L158.657 75.3354C157.323 75.2453 156.03 74.875 155.232 74.3747L156.265 72.0881C157.143 72.6135 158.316 72.9587 159.344 72.9687C160.242 72.9737 160.562 72.7936 160.562 72.4734C160.572 71.2976 155.393 72.2032 155.423 68.7258C155.433 67.2197 156.541 65.9589 158.737 65.6737L158.747 64.2227L160.633 64.2377L160.623 65.6637C161.61 65.7637 162.573 66.0239 163.33 66.4592L162.363 68.7308C161.445 68.2555 160.577 68.0253 159.76 68.0153C158.838 68.0103 158.542 68.2705 158.542 68.5907C158.532 69.7115 163.711 68.8208 163.686 72.2582C163.676 73.6992 162.623 74.9451 160.547 75.2853H160.542Z" fill="white"/>
<path d="M178.709 136.623L147 136.543V175.845L178.709 175.95V136.623Z" fill="#AE2116"/>
<path d="M155.133 141.493C155.453 141.508 155.724 141.268 155.754 140.952C155.945 138.976 156.807 132.361 160.066 129.975C160.959 129.319 161.937 129.054 163.055 129.159C168.776 129.694 169.643 138.646 169.774 141.007C169.789 141.328 170.055 141.573 170.376 141.573C170.716 141.573 170.992 141.288 170.972 140.942C170.842 138.35 169.909 128.764 163.18 128.133C161.736 127.998 160.422 128.354 159.284 129.194C155.659 131.851 154.757 138.711 154.561 140.842C154.531 141.182 154.792 141.483 155.133 141.498V141.493Z" fill="#E15449"/>
<path d="M175.951 136.623L144.236 136.543V175.845L175.951 175.95V136.623Z" fill="#DA291C"/>
<path d="M153.683 141.292C153.683 141.917 153.171 142.428 152.544 142.428C151.918 142.428 151.406 141.917 151.406 141.292C151.406 140.667 151.918 140.156 152.544 140.156C153.171 140.156 153.683 140.667 153.683 141.292Z" fill="#AE2116"/>
<path d="M168.956 141.292C168.956 141.917 168.445 142.428 167.818 142.428C167.191 142.428 166.68 141.917 166.68 141.292C166.68 140.667 167.191 140.156 167.818 140.156C168.445 140.156 168.956 140.667 168.956 141.292Z" fill="#AE2116"/>
<path d="M152.59 141.581C152.911 141.596 153.181 141.356 153.211 141.041C153.402 139.065 154.264 132.45 157.524 130.063C158.416 129.408 159.394 129.143 160.512 129.248C166.233 129.783 167.1 138.734 167.231 141.101C167.246 141.421 167.512 141.666 167.833 141.666C168.174 141.666 168.444 141.381 168.429 141.036C168.299 138.444 167.366 128.858 160.637 128.227C159.193 128.092 157.88 128.447 156.741 129.288C153.116 131.945 152.214 138.804 152.018 140.936C151.988 141.276 152.249 141.576 152.59 141.591V141.581Z" fill="#E97F77"/>
</g>
<defs>
<clipPath id="clip0_2846_644713">
<rect width="220" height="180" fill="white"/>
</clipPath>
</defs>
</svg>
