<svg width="220" height="160" viewBox="0 0 220 160" fill="none" xmlns="http://www.w3.org/2000/svg">
<circle cx="110" cy="80" r="80" fill="#EAECF0"/>
<circle cx="26" cy="20" r="8" fill="#F2F4F7"/>
<circle cx="198" cy="126" r="6" fill="#F2F4F7"/>
<circle cx="25" cy="138" r="10" fill="#F2F4F7"/>
<circle cx="210" cy="46" r="10" fill="#F2F4F7"/>
<circle cx="191" cy="11" r="7" fill="#F2F4F7"/>
<g filter="url(#filter0_dd_3151_648113)">
<path fill-rule="evenodd" clip-rule="evenodd" d="M113.486 16C96.7495 16 81.9448 24.2701 72.9354 36.9466C69.9934 36.2528 66.9253 35.8857 63.7714 35.8857C41.8063 35.8857 24 53.692 24 75.6571C24 97.6223 41.8063 115.429 63.7714 115.429H163.2C182.42 115.429 198 99.8481 198 80.6286C198 61.4091 182.42 45.8286 163.2 45.8286C161.835 45.8286 160.488 45.9072 159.164 46.0601C151.546 28.3784 133.961 16 113.486 16Z" fill="#F9FAFB"/>
<circle cx="63.7714" cy="75.6572" r="39.7714" fill="url(#paint0_linear_3151_648113)"/>
<circle cx="113.486" cy="65.7143" r="49.7143" fill="url(#paint1_linear_3151_648113)"/>
<circle cx="163.2" cy="80.6286" r="34.8" fill="url(#paint2_linear_3151_648113)"/>
</g>
<g filter="url(#filter1_b_3151_648113)">
<rect x="82" y="84" width="56" height="56" rx="28" fill="#344054" fill-opacity="0.4"/>
<path d="M102.147 109.375C102.145 108.338 102.349 107.31 102.746 106.352C103.144 105.394 103.727 104.524 104.462 103.792C105.197 103.06 106.069 102.48 107.029 102.087C107.989 101.694 109.017 101.494 110.055 101.5C114.386 101.533 117.853 105.131 117.853 109.474V110.25C117.853 114.166 118.673 116.441 119.395 117.688C119.472 117.82 119.512 117.971 119.513 118.124C119.513 118.278 119.473 118.428 119.396 118.561C119.32 118.694 119.21 118.805 119.077 118.882C118.944 118.959 118.794 119 118.641 119H101.359C101.206 119 101.056 118.959 100.923 118.882C100.79 118.805 100.68 118.694 100.604 118.561C100.527 118.428 100.487 118.278 100.487 118.124C100.488 117.971 100.528 117.82 100.605 117.688C101.327 116.441 102.147 114.166 102.147 110.25V109.375Z" stroke="white" stroke-width="1.5" stroke-linecap="round" stroke-linejoin="round"/>
<path d="M106.5 119V119.875C106.5 120.803 106.869 121.693 107.525 122.35C108.182 123.006 109.072 123.375 110 123.375C110.928 123.375 111.818 123.006 112.475 122.35C113.131 121.693 113.5 120.803 113.5 119.875V119" stroke="white" stroke-width="1.5" stroke-linecap="round" stroke-linejoin="round"/>
<path d="M107.812 108.5H112.188L107.812 113.75H112.188" stroke="white" stroke-width="1.5" stroke-linecap="round" stroke-linejoin="round"/>
</g>
<defs>
<filter id="filter0_dd_3151_648113" x="4" y="16" width="214" height="139.429" filterUnits="userSpaceOnUse" color-interpolation-filters="sRGB">
<feFlood flood-opacity="0" result="BackgroundImageFix"/>
<feColorMatrix in="SourceAlpha" type="matrix" values="0 0 0 0 0 0 0 0 0 0 0 0 0 0 0 0 0 0 127 0" result="hardAlpha"/>
<feMorphology radius="4" operator="erode" in="SourceAlpha" result="effect1_dropShadow_3151_648113"/>
<feOffset dy="8"/>
<feGaussianBlur stdDeviation="4"/>
<feColorMatrix type="matrix" values="0 0 0 0 0.0627451 0 0 0 0 0.0941176 0 0 0 0 0.156863 0 0 0 0.03 0"/>
<feBlend mode="normal" in2="BackgroundImageFix" result="effect1_dropShadow_3151_648113"/>
<feColorMatrix in="SourceAlpha" type="matrix" values="0 0 0 0 0 0 0 0 0 0 0 0 0 0 0 0 0 0 127 0" result="hardAlpha"/>
<feMorphology radius="4" operator="erode" in="SourceAlpha" result="effect2_dropShadow_3151_648113"/>
<feOffset dy="20"/>
<feGaussianBlur stdDeviation="12"/>
<feColorMatrix type="matrix" values="0 0 0 0 0.0627451 0 0 0 0 0.0941176 0 0 0 0 0.156863 0 0 0 0.08 0"/>
<feBlend mode="normal" in2="effect1_dropShadow_3151_648113" result="effect2_dropShadow_3151_648113"/>
<feBlend mode="normal" in="SourceGraphic" in2="effect2_dropShadow_3151_648113" result="shape"/>
</filter>
<filter id="filter1_b_3151_648113" x="74" y="76" width="72" height="72" filterUnits="userSpaceOnUse" color-interpolation-filters="sRGB">
<feFlood flood-opacity="0" result="BackgroundImageFix"/>
<feGaussianBlur in="BackgroundImageFix" stdDeviation="4"/>
<feComposite in2="SourceAlpha" operator="in" result="effect1_backgroundBlur_3151_648113"/>
<feBlend mode="normal" in="SourceGraphic" in2="effect1_backgroundBlur_3151_648113" result="shape"/>
</filter>
<linearGradient id="paint0_linear_3151_648113" x1="33.2326" y1="49.3796" x2="103.543" y2="115.429" gradientUnits="userSpaceOnUse">
<stop stop-color="#D0D5DD"/>
<stop offset="0.350715" stop-color="white" stop-opacity="0"/>
</linearGradient>
<linearGradient id="paint1_linear_3151_648113" x1="75.3122" y1="32.8673" x2="163.2" y2="115.428" gradientUnits="userSpaceOnUse">
<stop stop-color="#D0D5DD"/>
<stop offset="0.350715" stop-color="white" stop-opacity="0"/>
</linearGradient>
<linearGradient id="paint2_linear_3151_648113" x1="136.479" y1="57.6358" x2="198" y2="115.429" gradientUnits="userSpaceOnUse">
<stop stop-color="#D0D5DD"/>
<stop offset="0.350715" stop-color="white" stop-opacity="0"/>
</linearGradient>
</defs>
</svg>
