<svg width="220" height="178" viewBox="0 0 220 178" fill="none" xmlns="http://www.w3.org/2000/svg">
<circle cx="110" cy="88" r="80" fill="#EAECF0"/>
<circle cx="26" cy="28" r="8" fill="#F2F4F7"/>
<circle cx="198" cy="134" r="6" fill="#F2F4F7"/>
<circle cx="25" cy="146" r="10" fill="#F2F4F7"/>
<circle cx="210" cy="54" r="10" fill="#F2F4F7"/>
<circle cx="191" cy="19" r="7" fill="#F2F4F7"/>
<g filter="url(#filter0_dd_3149_665356)">
<path d="M110 54.9529L116.912 52.0578L110.001 55.002V137.432L173.69 110.743V28.2767L174 28.1466L173.69 28.009V27.8705L173.53 27.9384L110.503 0L46 27.4765L46.3053 27.6076L46 109.74L110 137.383L110 54.9529Z" fill="#F9FAFB"/>
<path d="M110 54.9529V137.383L46 109.739L46.3053 27.6074L110 54.9529Z" fill="url(#paint0_linear_3149_665356)"/>
<path d="M110.001 55.0021V137.432L173.69 110.744V27.8706L110.001 55.0021Z" fill="url(#paint1_linear_3149_665356)"/>
<path d="M110 54.9529L174 28.1466L110.503 0L46 27.4765L110 54.9529Z" fill="#F2F4F7"/>
<path d="M70.1255 17.1998L133.881 44.9503L134.461 65.173L152.299 57.8126L151.759 37.4622L86.1172 10.3877L70.1255 17.1998Z" fill="#EAECF0"/>
</g>
<g filter="url(#filter1_b_3149_665356)">
<rect x="82" y="104" width="56" height="56" rx="28" fill="#344054" fill-opacity="0.4"/>
<path d="M119.625 126.75H100.375C99.8918 126.75 99.5 127.142 99.5 127.625V131.125C99.5 131.608 99.8918 132 100.375 132H119.625C120.108 132 120.5 131.608 120.5 131.125V127.625C120.5 127.142 120.108 126.75 119.625 126.75Z" stroke="white" stroke-width="1.5" stroke-linecap="round" stroke-linejoin="round"/>
<path d="M118.75 132V139.875C118.75 140.107 118.658 140.33 118.494 140.494C118.33 140.658 118.107 140.75 117.875 140.75H102.125C101.893 140.75 101.67 140.658 101.506 140.494C101.342 140.33 101.25 140.107 101.25 139.875V132" stroke="white" stroke-width="1.5" stroke-linecap="round" stroke-linejoin="round"/>
<path d="M110 126.75V140.75" stroke="white" stroke-width="1.5" stroke-linecap="round" stroke-linejoin="round"/>
<path d="M114.955 125.514C113.708 126.75 110 126.75 110 126.75C110 126.75 110 123.042 111.236 121.795C111.729 121.302 112.398 121.025 113.095 121.025C113.793 121.025 114.462 121.302 114.955 121.795C115.448 122.288 115.725 122.957 115.725 123.654C115.725 124.352 115.448 125.021 114.955 125.514V125.514Z" stroke="white" stroke-width="1.5" stroke-linecap="round" stroke-linejoin="round"/>
<path d="M105.045 125.514C106.292 126.75 110 126.75 110 126.75C110 126.75 110 123.042 108.764 121.795C108.271 121.302 107.602 121.025 106.905 121.025C106.207 121.025 105.538 121.302 105.045 121.795C104.552 122.288 104.275 122.957 104.275 123.654C104.275 124.352 104.552 125.021 105.045 125.514V125.514Z" stroke="white" stroke-width="1.5" stroke-linecap="round" stroke-linejoin="round"/>
</g>
<defs>
<filter id="filter0_dd_3149_665356" x="26" y="0" width="168" height="177.432" filterUnits="userSpaceOnUse" color-interpolation-filters="sRGB">
<feFlood flood-opacity="0" result="BackgroundImageFix"/>
<feColorMatrix in="SourceAlpha" type="matrix" values="0 0 0 0 0 0 0 0 0 0 0 0 0 0 0 0 0 0 127 0" result="hardAlpha"/>
<feMorphology radius="4" operator="erode" in="SourceAlpha" result="effect1_dropShadow_3149_665356"/>
<feOffset dy="8"/>
<feGaussianBlur stdDeviation="4"/>
<feColorMatrix type="matrix" values="0 0 0 0 0.0627451 0 0 0 0 0.0941176 0 0 0 0 0.156863 0 0 0 0.03 0"/>
<feBlend mode="normal" in2="BackgroundImageFix" result="effect1_dropShadow_3149_665356"/>
<feColorMatrix in="SourceAlpha" type="matrix" values="0 0 0 0 0 0 0 0 0 0 0 0 0 0 0 0 0 0 127 0" result="hardAlpha"/>
<feMorphology radius="4" operator="erode" in="SourceAlpha" result="effect2_dropShadow_3149_665356"/>
<feOffset dy="20"/>
<feGaussianBlur stdDeviation="12"/>
<feColorMatrix type="matrix" values="0 0 0 0 0.0627451 0 0 0 0 0.0941176 0 0 0 0 0.156863 0 0 0 0.08 0"/>
<feBlend mode="normal" in2="effect1_dropShadow_3149_665356" result="effect2_dropShadow_3149_665356"/>
<feBlend mode="normal" in="SourceGraphic" in2="effect2_dropShadow_3149_665356" result="shape"/>
</filter>
<filter id="filter1_b_3149_665356" x="74" y="96" width="72" height="72" filterUnits="userSpaceOnUse" color-interpolation-filters="sRGB">
<feFlood flood-opacity="0" result="BackgroundImageFix"/>
<feGaussianBlur in="BackgroundImageFix" stdDeviation="4"/>
<feComposite in2="SourceAlpha" operator="in" result="effect1_backgroundBlur_3149_665356"/>
<feBlend mode="normal" in="SourceGraphic" in2="effect1_backgroundBlur_3149_665356" result="shape"/>
</filter>
<linearGradient id="paint0_linear_3149_665356" x1="46" y1="110.154" x2="71.2754" y2="41.7012" gradientUnits="userSpaceOnUse">
<stop stop-color="#DEE1E8"/>
<stop offset="1" stop-color="#EFF1F5"/>
</linearGradient>
<linearGradient id="paint1_linear_3149_665356" x1="110" y1="56.6155" x2="182.166" y2="70.9831" gradientUnits="userSpaceOnUse">
<stop stop-color="#E4E7EC"/>
<stop offset="1" stop-color="#F2F4F7"/>
</linearGradient>
</defs>
</svg>
