<svg width="220" height="178" viewBox="0 0 220 178" fill="none" xmlns="http://www.w3.org/2000/svg">
<circle cx="110" cy="88" r="80" fill="#EAECF0"/>
<circle cx="26" cy="28" r="8" fill="#F2F4F7"/>
<circle cx="198" cy="134" r="6" fill="#F2F4F7"/>
<circle cx="25" cy="146" r="10" fill="#F2F4F7"/>
<circle cx="210" cy="54" r="10" fill="#F2F4F7"/>
<circle cx="191" cy="19" r="7" fill="#F2F4F7"/>
<g filter="url(#filter0_dd_3259_583040)">
<path d="M110 54.9529L116.912 52.0578L110.001 55.002V137.432L173.69 110.743V28.2767L174 28.1466L173.69 28.009V27.8705L173.53 27.9384L110.503 0L46 27.4765L46.3053 27.6076L46 109.74L110 137.383L110 54.9529Z" fill="#F9FAFB"/>
<path d="M110 54.9531V137.383L46 109.74L46.3053 27.6077L110 54.9531Z" fill="url(#paint0_linear_3259_583040)"/>
<path d="M110.001 55.0021V137.432L173.69 110.744V27.8706L110.001 55.0021Z" fill="url(#paint1_linear_3259_583040)"/>
<path d="M110 54.9529L174 28.1466L110.503 0L46 27.4765L110 54.9529Z" fill="#F2F4F7"/>
<path d="M70.1255 17.1998L133.881 44.9503L134.461 65.173L152.299 57.8126L151.759 37.4622L86.1172 10.3877L70.1255 17.1998Z" fill="#EAECF0"/>
</g>
<g filter="url(#filter1_b_3259_583040)">
<rect x="82" y="104" width="56" height="56" rx="28" fill="#344054" fill-opacity="0.4"/>
<path d="M106.5 124.125V139.875" stroke="white" stroke-width="1.5" stroke-linecap="round" stroke-linejoin="round"/>
<path d="M98.625 136.287C98.6239 136.086 98.6933 135.89 98.8211 135.735C98.9489 135.579 99.1272 135.473 99.325 135.434C100.112 135.267 100.818 134.835 101.324 134.21C101.83 133.585 102.107 132.805 102.107 132C102.107 131.195 101.83 130.415 101.324 129.79C100.818 129.165 100.112 128.733 99.325 128.566C99.1272 128.527 98.9489 128.421 98.8211 128.265C98.6933 128.11 98.6239 127.914 98.625 127.713V125C98.625 124.768 98.7172 124.545 98.8813 124.381C99.0454 124.217 99.2679 124.125 99.5 124.125H120.5C120.732 124.125 120.955 124.217 121.119 124.381C121.283 124.545 121.375 124.768 121.375 125V127.713C121.376 127.914 121.307 128.11 121.179 128.265C121.051 128.421 120.873 128.527 120.675 128.566C119.888 128.733 119.182 129.165 118.676 129.79C118.17 130.415 117.893 131.195 117.893 132C117.893 132.805 118.17 133.585 118.676 134.21C119.182 134.835 119.888 135.267 120.675 135.434C120.873 135.473 121.051 135.579 121.179 135.735C121.307 135.89 121.376 136.086 121.375 136.287V139C121.375 139.232 121.283 139.455 121.119 139.619C120.955 139.783 120.732 139.875 120.5 139.875H99.5C99.2679 139.875 99.0454 139.783 98.8813 139.619C98.7172 139.455 98.625 139.232 98.625 139V136.287Z" stroke="white" stroke-width="1.5" stroke-linecap="round" stroke-linejoin="round"/>
</g>
<defs>
<filter id="filter0_dd_3259_583040" x="26" y="0" width="168" height="177.432" filterUnits="userSpaceOnUse" color-interpolation-filters="sRGB">
<feFlood flood-opacity="0" result="BackgroundImageFix"/>
<feColorMatrix in="SourceAlpha" type="matrix" values="0 0 0 0 0 0 0 0 0 0 0 0 0 0 0 0 0 0 127 0" result="hardAlpha"/>
<feMorphology radius="4" operator="erode" in="SourceAlpha" result="effect1_dropShadow_3259_583040"/>
<feOffset dy="8"/>
<feGaussianBlur stdDeviation="4"/>
<feColorMatrix type="matrix" values="0 0 0 0 0.0627451 0 0 0 0 0.0941176 0 0 0 0 0.156863 0 0 0 0.03 0"/>
<feBlend mode="normal" in2="BackgroundImageFix" result="effect1_dropShadow_3259_583040"/>
<feColorMatrix in="SourceAlpha" type="matrix" values="0 0 0 0 0 0 0 0 0 0 0 0 0 0 0 0 0 0 127 0" result="hardAlpha"/>
<feMorphology radius="4" operator="erode" in="SourceAlpha" result="effect2_dropShadow_3259_583040"/>
<feOffset dy="20"/>
<feGaussianBlur stdDeviation="12"/>
<feColorMatrix type="matrix" values="0 0 0 0 0.0627451 0 0 0 0 0.0941176 0 0 0 0 0.156863 0 0 0 0.08 0"/>
<feBlend mode="normal" in2="effect1_dropShadow_3259_583040" result="effect2_dropShadow_3259_583040"/>
<feBlend mode="normal" in="SourceGraphic" in2="effect2_dropShadow_3259_583040" result="shape"/>
</filter>
<filter id="filter1_b_3259_583040" x="74" y="96" width="72" height="72" filterUnits="userSpaceOnUse" color-interpolation-filters="sRGB">
<feFlood flood-opacity="0" result="BackgroundImageFix"/>
<feGaussianBlur in="BackgroundImageFix" stdDeviation="4"/>
<feComposite in2="SourceAlpha" operator="in" result="effect1_backgroundBlur_3259_583040"/>
<feBlend mode="normal" in="SourceGraphic" in2="effect1_backgroundBlur_3259_583040" result="shape"/>
</filter>
<linearGradient id="paint0_linear_3259_583040" x1="46" y1="110.154" x2="71.2754" y2="41.7014" gradientUnits="userSpaceOnUse">
<stop stop-color="#DEE1E8"/>
<stop offset="1" stop-color="#EFF1F5"/>
</linearGradient>
<linearGradient id="paint1_linear_3259_583040" x1="110" y1="56.6155" x2="182.166" y2="70.9831" gradientUnits="userSpaceOnUse">
<stop stop-color="#E4E7EC"/>
<stop offset="1" stop-color="#F2F4F7"/>
</linearGradient>
</defs>
</svg>
