<svg width="229" height="165" viewBox="0 0 229 165" fill="none" xmlns="http://www.w3.org/2000/svg">
<circle cx="117" cy="80" r="80" fill="#EAECF0"/>
<circle cx="33" cy="20" r="8" fill="#F2F4F7"/>
<circle cx="205" cy="126" r="6" fill="#F2F4F7"/>
<circle cx="32" cy="138" r="10" fill="#F2F4F7"/>
<circle cx="217" cy="38" r="10" fill="#F2F4F7"/>
<circle cx="198" cy="11" r="7" fill="#F2F4F7"/>
<g filter="url(#filter0_dd_3149_652898)">
<path d="M63.0783 124.214L115.53 99.7554C118.163 98.5274 119.302 95.397 118.074 92.7636L87.0988 26.3362L66.1234 18.7018L23.2087 38.7133C20.5753 39.9413 19.4359 43.0716 20.6639 45.7051L56.0865 121.669C57.3145 124.302 60.4448 125.442 63.0783 124.214Z" fill="url(#paint0_linear_3149_652898)"/>
<path d="M66.123 18.7017L87.0984 26.3361L72.7935 33.0066L66.123 18.7017Z" fill="#D0D5DD"/>
</g>
<g filter="url(#filter1_dd_3149_652898)">
<path d="M88.1514 106.339H146.025C148.931 106.339 151.286 103.984 151.286 101.078V27.7837L135.502 12H88.1514C85.2457 12 82.8901 14.3555 82.8901 17.2612V101.078C82.8901 103.984 85.2457 106.339 88.1514 106.339Z" fill="url(#paint1_linear_3149_652898)"/>
<path d="M135.502 12L151.286 27.7837H135.502V12Z" fill="#D0D5DD"/>
</g>
<g filter="url(#filter2_dd_3149_652898)">
<path d="M117.911 99.724L170.362 124.182C172.996 125.41 176.126 124.271 177.354 121.638L208.33 55.2103L200.695 34.2349L157.781 14.2235C155.147 12.9955 152.017 14.1348 150.789 16.7683L115.366 92.7322C114.138 95.3657 115.278 98.496 117.911 99.724Z" fill="url(#paint2_linear_3149_652898)"/>
<path d="M200.695 34.2349L208.33 55.2102L194.025 48.5398L200.695 34.2349Z" fill="#D0D5DD"/>
</g>
<g filter="url(#filter3_b_3149_652898)">
<rect x="89" y="88" width="56" height="56" rx="28" fill="#344054" fill-opacity="0.4"/>
<path d="M127.664 116H124.164C123.7 116 123.255 116.184 122.927 116.513C122.598 116.841 122.414 117.286 122.414 117.75V122.125C122.414 122.589 122.598 123.034 122.927 123.363C123.255 123.691 123.7 123.875 124.164 123.875H125.914C126.378 123.875 126.823 123.691 127.151 123.363C127.48 123.034 127.664 122.589 127.664 122.125V116ZM127.664 116C127.664 114.614 127.39 113.241 126.857 111.962C126.323 110.682 125.542 109.521 124.558 108.544C123.574 107.568 122.406 106.797 121.122 106.274C119.838 105.752 118.463 105.489 117.077 105.5C115.691 105.49 114.318 105.754 113.035 106.277C111.752 106.8 110.586 107.572 109.602 108.548C108.619 109.524 107.839 110.685 107.307 111.964C106.774 113.243 106.5 114.615 106.5 116V122.125C106.5 122.589 106.684 123.034 107.013 123.363C107.341 123.691 107.786 123.875 108.25 123.875H110C110.464 123.875 110.909 123.691 111.237 123.363C111.566 123.034 111.75 122.589 111.75 122.125V117.75C111.75 117.286 111.566 116.841 111.237 116.513C110.909 116.184 110.464 116 110 116H106.5" stroke="white" stroke-width="1.5" stroke-linecap="round" stroke-linejoin="round"/>
<path d="M127.664 122.125V124.75C127.664 125.678 127.295 126.568 126.639 127.225C125.983 127.881 125.092 128.25 124.164 128.25H117.875" stroke="white" stroke-width="1.5" stroke-linecap="round" stroke-linejoin="round"/>
</g>
<defs>
<filter id="filter0_dd_3149_652898" x="-1.55957" y="12.0312" width="141.857" height="154.406" filterUnits="userSpaceOnUse" color-interpolation-filters="sRGB">
<feFlood flood-opacity="0" result="BackgroundImageFix"/>
<feColorMatrix in="SourceAlpha" type="matrix" values="0 0 0 0 0 0 0 0 0 0 0 0 0 0 0 0 0 0 127 0" result="hardAlpha"/>
<feMorphology radius="4" operator="erode" in="SourceAlpha" result="effect1_dropShadow_3149_652898"/>
<feOffset dy="8"/>
<feGaussianBlur stdDeviation="4"/>
<feColorMatrix type="matrix" values="0 0 0 0 0.0627451 0 0 0 0 0.0941176 0 0 0 0 0.156863 0 0 0 0.03 0"/>
<feBlend mode="normal" in2="BackgroundImageFix" result="effect1_dropShadow_3149_652898"/>
<feColorMatrix in="SourceAlpha" type="matrix" values="0 0 0 0 0 0 0 0 0 0 0 0 0 0 0 0 0 0 127 0" result="hardAlpha"/>
<feMorphology radius="4" operator="erode" in="SourceAlpha" result="effect2_dropShadow_3149_652898"/>
<feOffset dy="20"/>
<feGaussianBlur stdDeviation="12"/>
<feColorMatrix type="matrix" values="0 0 0 0 0.0627451 0 0 0 0 0.0941176 0 0 0 0 0.156863 0 0 0 0.08 0"/>
<feBlend mode="normal" in2="effect1_dropShadow_3149_652898" result="effect2_dropShadow_3149_652898"/>
<feBlend mode="normal" in="SourceGraphic" in2="effect2_dropShadow_3149_652898" result="shape"/>
</filter>
<filter id="filter1_dd_3149_652898" x="62.8901" y="12" width="108.396" height="134.339" filterUnits="userSpaceOnUse" color-interpolation-filters="sRGB">
<feFlood flood-opacity="0" result="BackgroundImageFix"/>
<feColorMatrix in="SourceAlpha" type="matrix" values="0 0 0 0 0 0 0 0 0 0 0 0 0 0 0 0 0 0 127 0" result="hardAlpha"/>
<feMorphology radius="4" operator="erode" in="SourceAlpha" result="effect1_dropShadow_3149_652898"/>
<feOffset dy="8"/>
<feGaussianBlur stdDeviation="4"/>
<feColorMatrix type="matrix" values="0 0 0 0 0.0627451 0 0 0 0 0.0941176 0 0 0 0 0.156863 0 0 0 0.03 0"/>
<feBlend mode="normal" in2="BackgroundImageFix" result="effect1_dropShadow_3149_652898"/>
<feColorMatrix in="SourceAlpha" type="matrix" values="0 0 0 0 0 0 0 0 0 0 0 0 0 0 0 0 0 0 127 0" result="hardAlpha"/>
<feMorphology radius="4" operator="erode" in="SourceAlpha" result="effect2_dropShadow_3149_652898"/>
<feOffset dy="20"/>
<feGaussianBlur stdDeviation="12"/>
<feColorMatrix type="matrix" values="0 0 0 0 0.0627451 0 0 0 0 0.0941176 0 0 0 0 0.156863 0 0 0 0.08 0"/>
<feBlend mode="normal" in2="effect1_dropShadow_3149_652898" result="effect2_dropShadow_3149_652898"/>
<feBlend mode="normal" in="SourceGraphic" in2="effect2_dropShadow_3149_652898" result="shape"/>
</filter>
<filter id="filter2_dd_3149_652898" x="93.1426" y="12" width="141.857" height="154.406" filterUnits="userSpaceOnUse" color-interpolation-filters="sRGB">
<feFlood flood-opacity="0" result="BackgroundImageFix"/>
<feColorMatrix in="SourceAlpha" type="matrix" values="0 0 0 0 0 0 0 0 0 0 0 0 0 0 0 0 0 0 127 0" result="hardAlpha"/>
<feMorphology radius="4" operator="erode" in="SourceAlpha" result="effect1_dropShadow_3149_652898"/>
<feOffset dy="8"/>
<feGaussianBlur stdDeviation="4"/>
<feColorMatrix type="matrix" values="0 0 0 0 0.0627451 0 0 0 0 0.0941176 0 0 0 0 0.156863 0 0 0 0.03 0"/>
<feBlend mode="normal" in2="BackgroundImageFix" result="effect1_dropShadow_3149_652898"/>
<feColorMatrix in="SourceAlpha" type="matrix" values="0 0 0 0 0 0 0 0 0 0 0 0 0 0 0 0 0 0 127 0" result="hardAlpha"/>
<feMorphology radius="4" operator="erode" in="SourceAlpha" result="effect2_dropShadow_3149_652898"/>
<feOffset dy="20"/>
<feGaussianBlur stdDeviation="12"/>
<feColorMatrix type="matrix" values="0 0 0 0 0.0627451 0 0 0 0 0.0941176 0 0 0 0 0.156863 0 0 0 0.08 0"/>
<feBlend mode="normal" in2="effect1_dropShadow_3149_652898" result="effect2_dropShadow_3149_652898"/>
<feBlend mode="normal" in="SourceGraphic" in2="effect2_dropShadow_3149_652898" result="shape"/>
</filter>
<filter id="filter3_b_3149_652898" x="81" y="80" width="72" height="72" filterUnits="userSpaceOnUse" color-interpolation-filters="sRGB">
<feFlood flood-opacity="0" result="BackgroundImageFix"/>
<feGaussianBlur in="BackgroundImageFix" stdDeviation="4"/>
<feComposite in2="SourceAlpha" operator="in" result="effect1_backgroundBlur_3149_652898"/>
<feBlend mode="normal" in="SourceGraphic" in2="effect1_backgroundBlur_3149_652898" result="shape"/>
</filter>
<linearGradient id="paint0_linear_3149_652898" x1="59.9968" y1="124.419" x2="18.1972" y2="49.009" gradientUnits="userSpaceOnUse">
<stop stop-color="#E4E7EC"/>
<stop offset="1" stop-color="#F9FAFB"/>
</linearGradient>
<linearGradient id="paint1_linear_3149_652898" x1="85.272" y1="105.223" x2="79.2583" y2="19.2131" gradientUnits="userSpaceOnUse">
<stop stop-color="#E4E7EC"/>
<stop offset="1" stop-color="#F9FAFB"/>
</linearGradient>
<linearGradient id="paint2_linear_3149_652898" x1="115.773" y1="97.4951" x2="146.672" y2="17.0024" gradientUnits="userSpaceOnUse">
<stop stop-color="#E4E7EC"/>
<stop offset="1" stop-color="#F9FAFB"/>
</linearGradient>
</defs>
</svg>
