<svg width="592" height="442" viewBox="0 0 592 442" fill="none" xmlns="http://www.w3.org/2000/svg">
<g clip-path="url(#clip0_1_5615)">
<path d="M592 388.051H0V388.347H592V388.051Z" fill="#E6E8EC"/>
<path d="M280.62 335.265H51.9894C48.2598 335.265 45.2288 332.235 45.2288 328.507V7.25803C45.2288 3.52987 48.2598 0.5 51.9894 0.5H280.62C284.349 0.5 287.38 3.52987 287.38 7.25803V328.507C287.38 332.235 284.349 335.265 280.62 335.265ZM51.9894 0.795886C48.4256 0.795886 45.5248 3.69557 45.5248 7.25803V328.507C45.5248 332.07 48.4256 334.969 51.9894 334.969H280.62C284.184 334.969 287.084 332.07 287.084 328.507V7.25803C287.084 3.69557 284.184 0.795886 280.62 0.795886H51.9894Z" fill="#E6E8EC"/>
<path d="M536.719 335.265H308.089C304.359 335.265 301.328 332.235 301.328 328.507V7.25803C301.328 3.52987 304.359 0.5 308.089 0.5H536.719C540.449 0.5 543.48 3.52987 543.48 7.25803V328.507C543.48 332.235 540.449 335.265 536.719 335.265ZM308.089 0.795886C304.525 0.795886 301.624 3.69557 301.624 7.25803V328.507C301.624 332.07 304.525 334.969 308.089 334.969H536.719C540.283 334.969 543.184 332.07 543.184 328.507V7.25803C543.184 3.69557 540.283 0.795886 536.719 0.795886H308.089Z" fill="#E6E8EC"/>
<path d="M91.4995 399.319H60.7155V399.614H91.4995V399.319Z" fill="#E6E8EC"/>
<path d="M225.173 396.111H171.858V396.407H225.173V396.111Z" fill="#E6E8EC"/>
<path d="M164.659 410.314H92.6835V410.61H164.659V410.314Z" fill="#E6E8EC"/>
<path d="M531.285 408.325H508.516V408.621H531.285V408.325Z" fill="#E6E8EC"/>
<path d="M497.967 408.325H432.503V408.621H497.967V408.325Z" fill="#E6E8EC"/>
<path d="M392.52 403.319H304.347V403.615H392.52V403.319Z" fill="#E6E8EC"/>
<path d="M225.943 190.447L210.965 388.051H355.389L370.367 190.447H225.943ZM316.767 330.117C315.548 346.237 301.482 359.303 285.356 359.303C269.23 359.303 257.153 346.237 258.372 330.117L263.641 260.643C264.861 244.523 278.927 231.445 295.053 231.445C303.116 231.445 310.172 234.711 315.051 240.002C319.929 245.28 322.64 252.583 322.036 260.643L316.767 330.117Z" fill="#BABECC"/>
<path d="M401.222 388.051H190.636L191.844 375.08H402.442L401.222 388.051Z" fill="#BABECC"/>
<path d="M482.148 314.672H500.796C501.862 314.672 502.691 313.796 502.632 312.731L502.561 311.405C502.501 310.34 501.59 309.464 500.524 309.464H481.876C480.811 309.464 479.982 310.34 480.041 311.405L480.112 312.731C480.171 313.796 481.083 314.672 482.148 314.672Z" fill="#E6E8EC"/>
<path d="M450.974 314.672H469.622C470.687 314.672 471.516 313.796 471.457 312.731L471.386 311.405C471.327 310.34 470.415 309.464 469.349 309.464H450.701C449.636 309.464 448.807 310.34 448.866 311.405L448.937 312.731C448.996 313.796 449.908 314.672 450.974 314.672Z" fill="#E6E8EC"/>
<path d="M515.312 313.216H80.0384C75.0182 313.216 70.744 309.144 70.4954 304.126L57.3885 42.7762C57.1398 37.7579 60.9997 33.6866 66.0198 33.6866H501.282C506.302 33.6866 510.576 37.7579 510.825 42.7762L523.932 304.126C524.181 309.144 520.321 313.216 515.301 313.216H515.312Z" fill="#E6E8EC"/>
<path d="M520.64 313.216H85.3782C80.3581 313.216 76.0838 309.144 75.8352 304.126L62.7283 42.7762C62.4797 37.7579 66.3395 33.6866 71.3597 33.6866H506.622C511.642 33.6866 515.916 37.7579 516.165 42.7762L529.272 304.126C529.52 309.144 525.66 313.216 520.64 313.216Z" fill="#BABECC"/>
<path d="M87.9238 294.977L75.7405 51.9368C75.5866 48.7886 78.0019 46.2439 81.1514 46.2439H498.109C501.258 46.2439 503.934 48.7886 504.088 51.9368L516.271 294.977C516.425 298.126 514.01 300.67 510.86 300.67H93.903C90.7536 300.67 88.0778 298.126 87.9238 294.977Z" fill="#F4F5F6"/>
<path d="M101.421 58.6711C101.564 61.4525 99.4205 63.713 96.6381 63.713C93.8557 63.713 91.4877 61.4525 91.3456 58.6711C91.2035 55.8898 93.3466 53.6292 96.129 53.6292C98.9114 53.6292 101.279 55.8898 101.421 58.6711Z" fill="white"/>
<path d="M124.237 58.6711C124.379 61.4525 122.236 63.713 119.454 63.713C116.671 63.713 114.303 61.4525 114.161 58.6711C114.019 55.8898 116.162 53.6292 118.945 53.6292C121.727 53.6292 124.095 55.8898 124.237 58.6711Z" fill="white"/>
<path d="M147.065 58.6711C147.207 61.4525 145.064 63.713 142.281 63.713C139.499 63.713 137.131 61.4525 136.989 58.6711C136.847 55.8898 138.99 53.6292 141.772 53.6292C144.555 53.6292 146.923 55.8898 147.065 58.6711Z" fill="white"/>
<g opacity="0.6">
<path d="M131.282 300.67H191.37L246.308 46.2321H186.22L131.282 300.67Z" fill="white"/>
<path d="M389.867 300.67H405.082L460.019 46.2321H444.805L389.867 300.67Z" fill="white"/>
<path d="M204.725 300.67H289.973L344.911 46.2321H259.663L204.725 300.67Z" fill="white"/>
</g>
<path d="M296 441.5C422.786 441.5 525.566 435.502 525.566 428.102C525.566 420.703 422.786 414.705 296 414.705C169.214 414.705 66.4342 420.703 66.4342 428.102C66.4342 435.502 169.214 441.5 296 441.5Z" fill="#F4F5F6"/>
<path d="M426.95 246.795C426.808 246.795 426.666 246.795 426.524 246.783C394.994 244.203 373.28 217.254 372.368 216.106C370.556 213.822 370.935 210.496 373.22 208.673C375.506 206.863 378.833 207.241 380.644 209.526C380.893 209.845 399.47 232.735 425.198 236.001C433.545 227.728 440.566 205.845 439.797 199.217C439.797 199.158 439.785 199.099 439.785 199.028C439.607 196.897 439.217 189.607 441.312 185.251C442.579 182.624 445.74 181.511 448.369 182.777C450.997 184.044 452.11 187.204 450.844 189.831C450.323 190.92 450.074 194.85 450.323 198.104C451.495 208.993 442.058 236.475 430.195 245.671C429.259 246.393 428.123 246.783 426.95 246.783V246.795Z" fill="#565A65"/>
<path d="M176.203 218.118C166.814 218.118 140.233 215.81 118.708 191.749C117.038 189.879 116.908 187.086 118.4 185.074C126.948 173.581 142.033 146.443 144.389 137.602C143.418 135.921 141.666 133.507 139.487 132.477C137.806 131.684 136.657 130.062 136.468 128.216L135.615 119.553C135.331 116.641 137.451 114.061 140.363 113.777C143.264 113.493 145.857 115.611 146.141 118.523L146.733 124.547C151.895 128.252 154.476 134.027 154.796 134.773C155.151 135.613 155.282 136.536 155.187 137.448C154.098 146.845 138.86 174.019 129.482 187.76C151.374 209.573 177.541 207.585 178.689 207.478C181.578 207.241 184.159 209.372 184.42 212.271C184.68 215.171 182.549 217.739 179.648 218.012C179.4 218.035 178.192 218.142 176.215 218.142L176.203 218.118Z" fill="#565A65"/>
<path d="M346.758 427.925H332.586C330.928 427.925 329.377 427.155 328.371 425.842C327.376 424.528 327.044 422.824 327.483 421.226C331.188 407.923 333 397.105 334.373 380.145C329.353 356.533 324.629 334.922 324.582 334.697C323.954 331.845 325.766 329.028 328.619 328.401C331.473 327.773 334.291 329.584 334.918 332.437C334.965 332.661 339.796 354.758 344.887 378.689C344.994 379.186 345.029 379.695 344.982 380.204C343.786 395.425 342.247 405.946 339.441 417.344H346.758C349.683 417.344 352.051 419.711 352.051 422.634C352.051 425.558 349.683 427.925 346.758 427.925Z" fill="#565A65"/>
<path d="M237.179 427.925H229.175C227.648 427.925 226.191 427.262 225.185 426.102C224.179 424.954 223.729 423.415 223.942 421.9C225.303 412.195 232.277 394.525 239.689 376.76C242.329 353.326 244.496 333.206 244.52 333.005C244.828 330.105 247.432 327.986 250.345 328.318C253.246 328.625 255.353 331.229 255.034 334.141C255.01 334.342 252.796 354.924 250.12 378.701C250.061 379.198 249.942 379.684 249.741 380.145C244.484 392.726 238.505 407.544 235.77 417.356H237.191C240.115 417.356 242.483 419.723 242.483 422.646C242.483 425.569 240.115 427.937 237.191 427.937L237.179 427.925Z" fill="#565A65"/>
<path d="M241.785 66.8139L180.134 128.441C177.032 196.743 177.292 268.49 180.134 342.887H383.971C379.934 246.89 379.555 154.491 383.971 66.8258H241.773L241.785 66.8139Z" fill="white"/>
<path d="M383.983 343.929H180.146C179.577 343.929 179.116 343.479 179.092 342.911C176.132 265.673 176.132 193.489 179.092 128.382C179.104 128.121 179.21 127.873 179.4 127.684L241.051 66.0565C241.252 65.8553 241.512 65.7487 241.796 65.7487H383.995C384.279 65.7487 384.563 65.8671 384.764 66.0801C384.966 66.2932 385.072 66.5772 385.06 66.8613C380.81 151.295 380.81 241.576 385.06 342.828C385.072 343.112 384.966 343.396 384.764 343.609C384.563 343.81 384.291 343.929 384.007 343.929H383.983ZM181.164 341.81H382.882C378.691 241.375 378.691 151.745 382.882 67.8554H242.235L181.188 128.879C178.263 193.536 178.263 265.164 181.164 341.81Z" fill="#8F96A8"/>
<path d="M253.708 194.873C253.471 189.725 250.546 185.642 247.16 185.76C243.774 185.878 241.228 190.163 241.453 195.311C241.69 200.46 244.614 204.543 248.001 204.424C251.387 204.306 253.932 200.022 253.708 194.873Z" fill="#565A65"/>
<path d="M325.186 193.264C324.949 188.115 322.024 184.032 318.638 184.15C315.252 184.269 312.706 188.553 312.931 193.702C313.168 198.85 316.092 202.933 319.479 202.815C322.865 202.697 325.411 198.412 325.186 193.264Z" fill="#565A65"/>
<path d="M271.55 216C290.293 209.313 304.773 217.171 305.448 217.538C306.182 217.952 306.443 218.864 306.028 219.597C305.614 220.319 304.691 220.58 303.956 220.177C303.791 220.083 286.919 210.993 266.767 221.373C266.021 221.752 265.098 221.468 264.707 220.734C264.316 219.988 264.6 219.077 265.346 218.698C267.454 217.609 269.526 216.721 271.539 216H271.55Z" fill="#565A65"/>
<path d="M243.478 146.537C243.987 146.549 244.496 146.691 244.97 146.963C246.426 147.816 246.911 149.674 246.059 151.118C237.546 165.498 223.516 166.208 222.924 166.232C221.242 166.303 219.821 165.001 219.739 163.332C219.656 161.663 220.946 160.266 222.616 160.195C223.077 160.172 234.006 159.497 240.802 148.029C241.382 147.058 242.424 146.526 243.478 146.549V146.537Z" fill="#565A65"/>
<path d="M315.003 144.798C315.974 144.608 317.016 144.892 317.762 145.638C327.269 155.142 338.056 153.201 338.506 153.118C340.151 152.798 341.762 153.864 342.093 155.497C342.425 157.13 341.383 158.716 339.749 159.047C339.157 159.154 325.363 161.793 313.452 149.887C312.268 148.703 312.268 146.786 313.452 145.614C313.89 145.176 314.435 144.904 315.003 144.798Z" fill="#565A65"/>
<path opacity="0.2" d="M247.48 133.933C241.453 117.481 235.427 91.1712 241.796 66.8139L180.146 128.441C197.562 134.264 225.339 136.809 247.48 133.944V133.933Z" fill="#363A42"/>
<path d="M241.785 128.429C235.024 108.475 237.783 81.3478 241.785 66.8021L180.134 128.429C198.794 131.826 219.644 131.293 241.785 128.429Z" fill="white"/>
<path d="M208.337 131.838C198.048 131.838 188.635 131.045 179.956 129.471C179.565 129.4 179.258 129.127 179.139 128.749C179.021 128.37 179.127 127.968 179.4 127.684L241.051 66.0565C241.394 65.7132 241.915 65.6541 242.329 65.8908C242.744 66.1275 242.945 66.6246 242.815 67.0861C239.085 80.6259 236.007 108.049 242.791 128.086C242.898 128.382 242.85 128.713 242.684 128.985C242.519 129.258 242.235 129.435 241.927 129.471C229.755 131.045 218.614 131.826 208.337 131.826V131.838ZM182.336 127.743C198.711 130.453 217.738 130.394 240.388 127.553C234.811 109.883 236.078 86.4844 239.831 70.2699L182.336 127.743Z" fill="#8F96A8"/>
</g>
<defs>
<clipPath id="clip0_1_5615">
<rect width="592" height="441" fill="white" transform="translate(0 0.5)"/>
</clipPath>
</defs>
</svg>
