<svg width="24" height="24" viewBox="0 0 24 24" fill="none" xmlns="http://www.w3.org/2000/svg">
<path d="M9.64174 5.62086C10.2419 5.36917 10.4936 4.65282 10.2226 4.07199L9.27389 2.07781C9.00283 1.51654 8.34456 1.26465 7.76373 1.51654C6.11805 2.21353 4.70471 3.1235 3.58177 4.22707C2.20715 5.52406 1.27782 7.01485 0.774437 8.66053C0.271053 10.3258 0 12.5908 0 15.4756V21.4194C0 22.0583 0.522745 22.581 1.16166 22.581H8.7705C9.40941 22.581 9.93216 22.0583 9.93216 21.4194V13.8105C9.93216 13.1714 9.40941 12.6489 8.7705 12.6489H5.13065C5.16937 10.6932 5.63403 9.12519 6.48591 7.94398C7.18291 6.99568 8.2284 6.22124 9.64174 5.62086Z" fill="#E4E6E9"/>
<path d="M23.3106 5.62086C23.9107 5.36917 24.1622 4.65281 23.8914 4.07199L22.9427 2.09737C22.6716 1.5359 22.0134 1.28421 21.4325 1.5359C19.8062 2.23289 18.412 3.14286 17.2699 4.22707C15.8951 5.54361 14.9466 7.0344 14.4431 8.68008C13.9397 10.3062 13.6882 12.5716 13.6882 15.4758V21.4196C13.6882 22.0585 14.2109 22.5812 14.8498 22.5812H22.4587C23.0976 22.5812 23.6203 22.0585 23.6203 21.4196V13.8107C23.6203 13.1716 23.0976 12.6491 22.4587 12.6491H18.7995C18.8382 10.6934 19.303 9.12538 20.1547 7.94417C20.8517 6.99568 21.8972 6.22124 23.3106 5.62086Z" fill="#E4E6E9"/>
</svg>
