<svg width="164" height="28" viewBox="0 0 164 28" fill="none" xmlns="http://www.w3.org/2000/svg">
<g clip-path="url(#clip0_1482_136766)">
<path d="M19.7656 25.6213C16.596 28.7929 11.4063 28.7929 8.23668 25.6213L2.37889 19.764C-0.792962 16.5924 -0.792962 11.4054 2.37889 8.23377L8.23668 2.3787C11.4085 -0.792898 16.596 -0.792898 19.7656 2.3787L25.6234 8.23602C28.793 11.4054 28.793 16.5946 25.6234 19.7662L19.7656 25.6236V25.6213Z" fill="#DA291C"/>
<path d="M10.5246 22.6057C10.059 22.6057 9.67883 22.2413 9.66083 21.7757C9.65184 21.544 9.73281 21.3236 9.88802 21.1549C10.0455 20.9839 10.2569 20.885 10.4908 20.876C10.9655 20.8535 11.3726 21.2269 11.3928 21.706C11.4108 22.1828 11.0397 22.5877 10.5628 22.6057C10.5493 22.6057 10.5381 22.6057 10.5246 22.6057Z" fill="white"/>
<path d="M13.6785 6.61621C13.2016 6.61621 12.8214 6.76467 12.5132 7.07058C11.8496 7.73189 11.5009 9.09276 11.5324 10.908C11.5684 13.1438 12.1016 17.5301 13.8607 19.7907C14.1464 20.1573 14.4523 20.4475 14.774 20.6589C15.0845 20.8636 15.4309 21.0638 15.973 21.0638C16.1215 21.0638 16.279 21.0481 16.4432 21.0188C17.4532 20.7759 18.7152 19.6535 19.6555 18.1599C19.7995 17.9327 20.0447 17.7978 20.3146 17.7978C20.4608 17.7978 20.6026 17.8383 20.7285 17.9147C20.904 18.0272 21.0255 18.1982 21.0727 18.4006C21.1177 18.603 21.084 18.8122 20.9737 18.9877C19.786 20.8771 18.2158 22.2043 16.7784 22.5372C16.7739 22.5372 16.7581 22.5417 16.7401 22.5439C16.4769 22.5934 16.2182 22.6181 15.9708 22.6181C15.044 22.6181 14.3893 22.265 13.9214 21.9568C13.4603 21.6509 13.0284 21.2438 12.6392 20.7467C10.1625 17.5661 9.99375 11.6053 9.9825 10.935C9.95551 9.34918 10.185 7.1988 11.4222 5.97065C12.0273 5.37007 12.7854 5.06641 13.674 5.06641H13.818C14.711 5.06641 15.4691 5.37007 16.0743 5.97065C17.3137 7.1988 17.541 9.34918 17.5162 10.935C17.487 12.5883 17.1855 15.7891 15.4714 18.6593C15.3319 18.8932 15.0755 19.0372 14.8033 19.0372C14.6638 19.0372 14.5243 18.9989 14.4051 18.9269C14.0384 18.7065 13.9169 18.2296 14.1351 17.8608C15.3342 15.8521 15.9145 13.641 15.9618 10.9057C15.991 9.09051 15.6446 7.72965 14.9787 7.06833C14.6705 6.76242 14.2904 6.61396 13.818 6.61396H13.683L13.6785 6.61621Z" fill="white"/>
</g>
<path d="M54.5042 8.45703C49.8081 8.45703 46.9883 11.3546 46.9883 14.9516C46.9883 18.5486 49.8081 21.4351 54.5042 21.4351C59.2003 21.4351 62.0202 18.5375 62.0202 14.9516C62.0202 11.3657 59.2003 8.45703 54.5042 8.45703V8.45703ZM54.5042 20.0362C52.2505 20.0362 50.5409 17.7493 50.5409 14.9516C50.5409 12.1539 52.2505 9.85586 54.5042 9.85586C56.7579 9.85586 58.4676 12.1317 58.4676 14.9516C58.4676 17.7715 56.7579 20.0362 54.5042 20.0362Z" fill="#DA291C"/>
<path d="M62.3711 10.9517H67.3336V21.4762H71.0527V10.9517H75.227V9.51953H62.3711V10.9517Z" fill="#DA291C"/>
<path d="M76.875 10.9517H81.0493V21.4762H84.7684V10.9517H89.7198V9.51953H76.875V10.9517Z" fill="#DA291C"/>
<path d="M39.5748 19.3335V9.51953H36V20.0552C36 20.8434 36.6328 21.4762 37.4321 21.4762H46.58V20.0441H40.2964C39.9078 20.0441 39.5859 19.7221 39.5859 19.3335" fill="#DA291C"/>
<path d="M91.7539 10.9295V20.0441C91.7539 20.8323 92.3867 21.4651 93.1749 21.4651H102.933V20.0552H96.0503C95.6507 20.0552 95.3287 19.7332 95.3287 19.3447V15.8143H102.811V14.4154H95.3287V11.6289C95.3287 11.2403 95.6395 10.9295 96.0503 10.9295H102.933V9.51953H93.1749C92.3867 9.51953 91.7539 10.1523 91.7539 10.9406" fill="#DA291C"/>
<path d="M163.99 11.9839V9.24173H161.048V6H156.951V9.24173H154.331C152.288 9.24173 151.112 10.0966 150.523 10.7405V9.24173H146.371V12.3391C146.371 12.6056 146.371 12.8831 146.371 13.1718V13.9156V21.1762H150.523V15.159C150.523 15.159 150.523 15.1368 150.523 15.1146C150.523 14.8149 150.545 14.5484 150.601 14.3264C150.601 14.3264 151.167 11.9839 154.342 11.9839H156.962V16.8909C156.962 18.5784 157.351 19.733 158.117 20.4324C158.716 20.9653 159.66 21.3538 160.792 21.4426H164.001V18.4229H162.558C161.436 18.3785 161.059 17.7124 161.059 16.3247V11.9839H164.001H163.99Z" fill="#DA291C"/>
<path d="M144.603 18.3099V14.1356C144.603 13.9802 144.603 13.8359 144.603 13.6915C144.459 11.0826 142.971 8.98438 138.731 8.98438C136.288 8.98438 134.445 9.59497 133.513 10.0613L134.279 12.4259C135.156 11.9708 136.61 11.5489 137.987 11.5489C140.052 11.5489 140.429 12.4592 140.429 13.0921V13.2364C135.678 13.2364 132.547 14.7018 132.547 17.8103C132.547 19.7087 134.168 21.4739 136.888 21.4739C138.375 21.4739 139.674 21.0299 140.551 20.1861V21.1853H144.615V19.0204C144.615 18.7873 144.615 18.5541 144.615 18.3099H144.603ZM140.585 16.7446C140.585 16.9666 140.551 17.1886 140.507 17.3885C140.24 18.1545 139.352 18.754 138.331 18.754C137.398 18.754 136.688 18.2877 136.688 17.3329C136.688 15.9119 138.398 15.4456 140.596 15.4456V16.7446H140.585Z" fill="#DA291C"/>
<path d="M129.429 6H124.733L121.402 15.1368L118.272 6H113.565L111.422 21.1873H114.764L116.074 12.1171L119.182 21.1873H122.235L125.555 11.9728L126.831 21.1873H131.483L129.429 6Z" fill="#DA291C"/>
<defs>
<clipPath id="clip0_1482_136766">
<rect width="28" height="28" fill="white"/>
</clipPath>
</defs>
</svg>
