<?xml version="1.0" encoding="UTF-8"?>
<svg id="Layer_1" data-name="Layer 1" xmlns="http://www.w3.org/2000/svg" viewBox="0 0 927.66 109.28">
  <defs>
    <style>
      .cls-1 {
        fill: #fff;
      }

      .cls-2 {
        fill: #ed1c24;
      }
    </style>
  </defs>
  <g>
    <path class="cls-1" d="m652.19,91.64l-3.82-57.39-18.39,57.39h-19.89l-18.39-57.39-3.82,57.39h-19.32l8.1-85.82h23.13l20.24,62.88,20.24-62.88h23.13l8.1,85.82h-19.32Z"/>
    <path class="cls-1" d="m747.27,91.64l-7.27-18.98h-33.21l-7.16,18.98h-20.77l33.91-85.82h21.35l33.91,85.82h-20.77Zm-34.26-35.23h20.88l-10.44-27.54-10.44,27.54Z"/>
    <path class="cls-1" d="m829.84,91.64l-15.44-31.17h-16.71v28.09l-14.75,4.94c-3.23,1.1-4.84.11-4.84-2.96V5.83h38.26c4.45,0,8.56.55,12.33,1.65,3.76,1.1,7.03,2.78,9.79,5.05,2.77,2.27,4.91,5.1,6.45,8.5,1.54,3.4,2.3,7.44,2.3,12.13,0,5.93-1.29,10.83-3.86,14.7-2.57,3.88-6.05,6.88-10.43,9l17.74,34.79h-20.86Zm-32.15-47.41h12.79c2.23,0,4.36-.15,6.39-.44,2.03-.29,3.82-.84,5.36-1.65,1.54-.8,2.75-1.92,3.63-3.35.88-1.43,1.32-3.31,1.32-5.65s-.44-4.13-1.32-5.6c-.88-1.47-2.09-2.6-3.63-3.4-1.54-.8-3.32-1.35-5.36-1.65-2.04-.29-4.17-.44-6.39-.44h-12.79v22.17Z"/>
    <path class="cls-1" d="m886.53,93.51c-3.23,1.1-4.84.11-4.84-2.96V22.07h-26.03V5.83h72.01v16.24h-26.39v66.5l-14.75,4.94Z"/>
  </g>
  <g>
    <g>
      <path class="cls-1" d="m248.69,17.48c-27,0-43.16,16.7-43.16,37.3s16.16,37.3,43.16,37.3,43.22-16.7,43.22-37.3-16.19-37.3-43.22-37.3Zm0,66.58c-12.92,0-22.76-13.13-22.76-29.28s9.85-29.27,22.76-29.27,22.8,13.09,22.8,29.27-9.83,29.28-22.8,29.28Z"/>
      <polygon class="cls-1" points="295.61 28.5 324.02 28.5 324.02 88.97 345.44 88.97 345.44 28.5 369.45 28.5 369.45 20.24 295.61 20.24 295.61 28.5"/>
      <polygon class="cls-1" points="377.25 28.5 401.23 28.5 401.23 88.97 422.63 88.97 422.63 28.5 451.11 28.5 451.11 20.24 377.25 20.24 377.25 28.5"/>
      <path class="cls-1" d="m162.86,76.62V20.24h-20.55v60.55c0,4.52,3.67,8.17,8.19,8.17h52.55v-8.26h-36.09c-2.24,0-4.11-1.79-4.11-4.09Z"/>
      <path class="cls-1" d="m462.75,28.41v52.38c0,4.52,3.69,8.17,8.21,8.17h56.02v-8.11h-39.53c-2.3,0-4.14-1.84-4.14-4.11v-20.23h43.05v-8.06h-43.05v-16.02c0-2.25,1.84-4.09,4.14-4.09h39.53v-8.1h-56.04c-4.49,0-8.18,3.64-8.18,8.17Z"/>
    </g>
    <g>
      <path class="cls-1" d="m77.14,100c-12.37,12.37-32.62,12.37-45,0l-22.86-22.86c-12.37-12.37-12.37-32.62,0-45l22.86-22.86c12.38-12.37,32.62-12.37,45,0l22.86,22.86c12.37,12.37,12.37,32.62,0,45l-22.86,22.86Z"/>
      <g>
        <path class="cls-2" d="m41.08,88.22c-1.82,0-3.3-1.42-3.37-3.24-.04-.9.28-1.77.89-2.43.61-.67,1.45-1.05,2.35-1.09,1.86-.09,3.44,1.37,3.52,3.24.08,1.86-1.38,3.44-3.24,3.52-.05,0-.1,0-.14,0Z"/>
        <path class="cls-2" d="m53.38,25.82c-1.85,0-3.34.58-4.54,1.77-2.59,2.58-3.95,7.9-3.83,14.97.15,8.73,2.22,25.85,9.09,34.67,1.11,1.43,2.31,2.57,3.56,3.39,1.21.8,2.56,1.58,4.68,1.58.57,0,1.19-.06,1.83-.17,3.94-.94,8.87-5.33,12.53-11.16.56-.89,1.52-1.42,2.57-1.42.57,0,1.13.16,1.61.47.69.43,1.16,1.1,1.34,1.89.18.79.04,1.6-.39,2.29-4.64,7.38-10.76,12.55-16.38,13.85-.02,0-.08.02-.14.03-1.03.19-2.04.29-3.01.29-3.62,0-6.18-1.38-8-2.58-1.8-1.19-3.48-2.78-5-4.73-9.66-12.41-10.33-35.68-10.37-38.29-.1-6.19.79-14.58,5.62-19.38,2.36-2.34,5.32-3.53,8.79-3.53h.56c3.48,0,6.44,1.19,8.8,3.53,4.84,4.8,5.73,13.19,5.62,19.38-.11,6.45-1.29,18.95-7.98,30.15-.55.91-1.54,1.48-2.61,1.48-.55,0-1.08-.15-1.55-.43-1.43-.86-1.9-2.72-1.05-4.16,4.68-7.84,6.94-16.47,7.12-27.14.12-7.08-1.24-12.4-3.83-14.97-1.2-1.19-2.68-1.77-4.53-1.77h-.53Z"/>
      </g>
    </g>
  </g>
</svg>