<?xml version="1.0" encoding="UTF-8"?>
<svg id="Layer_1" data-name="Layer 1" xmlns="http://www.w3.org/2000/svg" viewBox="0 0 708.83 800.72">
  <defs>
    <style>
      .cls-1 {
        fill: #fff;
      }

      .cls-2 {
        fill: #ed1c24;
      }
    </style>
  </defs>
  <g>
    <g>
      <path class="cls-1" d="m165.07,796.18l-7.54-113.29-36.3,113.29h-39.27l-36.3-113.29-7.53,113.29H0l15.98-169.4h45.66l39.96,124.12,39.95-124.12h45.66l15.98,169.4h-38.13Z"/>
      <path class="cls-1" d="m352.74,796.18l-14.36-37.47h-65.55l-14.13,37.47h-41l66.94-169.4h42.15l66.94,169.4h-41Zm-67.63-69.54h41.23l-20.61-54.37-20.61,54.37Z"/>
      <path class="cls-1" d="m515.73,796.18l-30.48-61.52h-32.98v55.45l-29.11,9.75c-6.37,2.17-9.55.22-9.55-5.85v-167.23h75.52c8.79,0,16.91,1.08,24.34,3.25,7.43,2.17,13.87,5.49,19.33,9.97,5.46,4.47,9.7,10.07,12.74,16.79,3.03,6.71,4.55,14.69,4.55,23.94,0,11.7-2.54,21.38-7.62,29.03-5.08,7.66-11.94,13.58-20.59,17.76l35.03,68.67h-41.17Zm-63.46-93.58h25.25c4.4,0,8.6-.29,12.62-.87,4.02-.58,7.54-1.66,10.57-3.25s5.42-3.79,7.17-6.61c1.74-2.82,2.62-6.53,2.62-11.16s-.87-8.16-2.62-11.04c-1.74-2.89-4.13-5.13-7.17-6.72-3.03-1.59-6.56-2.67-10.57-3.25-4.02-.57-8.23-.87-12.62-.87h-25.25v43.76Z"/>
      <path class="cls-1" d="m627.63,799.87c-6.37,2.17-9.55.22-9.55-5.85v-135.18h-51.39v-32.06h142.14v32.06h-52.09v131.27l-29.11,9.75Z"/>
    </g>
    <g>
      <path class="cls-1" d="m196.85,447.6c-49.59,0-79.28,30.66-79.28,68.52s29.69,68.36,79.28,68.36,79.37-30.57,79.37-68.36-29.77-68.52-79.37-68.52Zm0,122.25c-23.76,0-41.86-24.13-41.86-53.73s18.11-53.78,41.86-53.78,41.87,24.09,41.87,53.78-18.06,53.73-41.87,53.73Z"/>
      <polygon class="cls-1" points="282.95 467.81 335.19 467.81 335.19 578.9 374.54 578.9 374.54 467.81 418.6 467.81 418.6 452.65 282.95 452.65 282.95 467.81"/>
      <polygon class="cls-1" points="432.98 467.81 476.97 467.81 476.97 578.9 516.3 578.9 516.3 467.81 568.57 467.81 568.57 452.65 432.98 452.65 432.98 467.81"/>
      <path class="cls-1" d="m39.24,556.25v-103.6H1.49v111.17c0,8.28,6.73,15.07,15.03,15.07h96.53v-15.15H46.8c-4.18,0-7.56-3.33-7.56-7.49Z"/>
      <path class="cls-1" d="m589.93,467.64v96.19c0,8.28,6.76,15.07,15.05,15.07h102.95v-14.93h-72.62c-4.22,0-7.51-3.43-7.51-7.49v-37.2h78.96v-14.83h-78.96v-29.4c0-4.11,3.28-7.47,7.51-7.47h72.62v-14.93h-102.95c-8.29,0-15.05,6.68-15.05,14.98Z"/>
    </g>
  </g>
  <g>
    <path class="cls-1" d="m429.1,331.3c-40.99,40.99-108.08,40.99-149.07,0l-75.74-75.74c-41-40.99-41-108.08,0-149.08l75.74-75.74c41-40.99,108.08-40.99,149.07,0l75.74,75.74c40.99,40.99,40.99,108.08,0,149.08l-75.74,75.74Z"/>
    <g>
      <path class="cls-2" d="m309.65,292.28c-6.02,0-10.93-4.71-11.18-10.73-.12-2.99.92-5.85,2.95-8.05,2.03-2.2,4.79-3.49,7.78-3.61,6.16-.29,11.4,4.55,11.66,10.73.25,6.17-4.56,11.39-10.73,11.65-.16,0-.32.01-.48.01Z"/>
      <path class="cls-2" d="m350.4,85.54c-6.15,0-11.07,1.92-15.05,5.88-8.59,8.54-13.09,26.16-12.69,49.61.48,28.92,7.37,85.64,30.11,114.85,3.69,4.73,7.65,8.51,11.78,11.23,4,2.65,8.5,5.23,15.51,5.23,1.9,0,3.94-.19,6.08-.58,13.04-3.13,29.38-17.65,41.53-36.96,1.85-2.94,5.03-4.7,8.51-4.7,1.89,0,3.73.53,5.33,1.54,2.27,1.43,3.85,3.66,4.45,6.28.6,2.62.14,5.31-1.29,7.58-15.36,24.43-35.65,41.59-54.26,45.9-.06.03-.26.07-.46.1-3.41.63-6.77.95-9.96.95-12.01,0-20.47-4.57-26.51-8.56-5.96-3.95-11.53-9.21-16.56-15.66-32.02-41.12-34.21-118.2-34.35-126.86-.34-20.51,2.61-48.31,18.63-64.21,7.82-7.76,17.62-11.69,29.12-11.69h1.87c11.53,0,21.34,3.93,29.16,11.69,16.02,15.9,18.97,43.7,18.63,64.21-.36,21.37-4.28,62.77-26.44,99.89-1.81,3.02-5.11,4.89-8.64,4.89-1.81,0-3.59-.49-5.14-1.42-4.75-2.83-6.31-9.01-3.48-13.78,15.51-25.97,23.01-54.55,23.6-89.93.4-23.46-4.11-41.08-12.7-49.61-3.98-3.96-8.89-5.88-15.02-5.88h-1.76Z"/>
    </g>
  </g>
</svg>