<?xml version="1.0" encoding="utf-8"?>
<!-- Generator: Adobe Illustrator 27.4.0, SVG Export Plug-In . SVG Version: 6.00 Build 0)  -->
<svg version="1.1" id="Layer_1" xmlns="http://www.w3.org/2000/svg" xmlns:xlink="http://www.w3.org/1999/xlink" x="0px" y="0px"
	 viewBox="0 0 820.4 274" style="enable-background:new 0 0 820.4 274;" xml:space="preserve">
<style type="text/css">
	.st0{fill:#FFFFFF;}
	.st1{fill:#ED1C24;}
</style>
<g>
	<g>
		<g>
			<path class="st0" d="M451.4,252.7l-5.1-76.9l-24.6,76.9H395l-24.6-76.9l-5.1,76.9h-25.9l10.8-115h31l27.1,84.2l27.1-84.2h31
				l10.8,115H451.4z"/>
			<path class="st0" d="M578.8,252.7l-9.7-25.4h-44.5l-9.6,25.4h-27.8l45.4-115h28.6l45.4,115H578.8z M532.9,205.5h28l-14-36.9
				L532.9,205.5z"/>
			<path class="st0" d="M689.4,252.7l-20.7-41.7h-22.4v37.6l-19.8,6.6c-4.3,1.5-6.5,0.1-6.5-4V137.7h51.2c6,0,11.5,0.7,16.5,2.2
				c5,1.5,9.4,3.7,13.1,6.8c3.7,3,6.6,6.8,8.6,11.4c2.1,4.6,3.1,10,3.1,16.2c0,7.9-1.7,14.5-5.2,19.7c-3.4,5.2-8.1,9.2-14,12.1
				l23.8,46.6H689.4z M646.3,189.2h17.1c3,0,5.8-0.2,8.6-0.6c2.7-0.4,5.1-1.1,7.2-2.2c2.1-1.1,3.7-2.6,4.9-4.5
				c1.2-1.9,1.8-4.4,1.8-7.6c0-3-0.6-5.5-1.8-7.5c-1.2-2-2.8-3.5-4.9-4.6c-2.1-1.1-4.5-1.8-7.2-2.2c-2.7-0.4-5.6-0.6-8.6-0.6h-17.1
				V189.2z"/>
			<path class="st0" d="M765.3,255.2c-4.3,1.5-6.5,0.1-6.5-4v-91.7H724v-21.8h96.5v21.8h-35.3v89.1L765.3,255.2z"/>
		</g>
		<g>
			<g>
				<g>
					<g>
						<g>
							<g>
								<path class="st0" d="M473,16.1c-33.7,0-53.8,20.8-53.8,46.5c0,25.6,20.1,46.4,53.8,46.4c33.7,0,53.9-20.7,53.9-46.4
									C526.9,36.9,506.7,16.1,473,16.1z M473,99.1c-16.1,0-28.4-16.4-28.4-36.5c0-20.2,12.3-36.5,28.4-36.5
									c16.2,0,28.4,16.3,28.4,36.5C501.4,82.7,489.2,99.1,473,99.1z"/>
								<polygon class="st0" points="531.4,29.8 566.9,29.8 566.9,105.2 593.6,105.2 593.6,29.8 623.5,29.8 623.5,19.5 531.4,19.5 
																	"/>
								<polygon class="st0" points="633.2,29.8 663.1,29.8 663.1,105.2 689.8,105.2 689.8,29.8 725.3,29.8 725.3,19.5 633.2,19.5 
																	"/>
								<path class="st0" d="M366,89.8V19.5h-25.6V95c0,5.6,4.6,10.2,10.2,10.2h65.5V94.9h-45C368.3,94.9,366,92.7,366,89.8z"/>
								<path class="st0" d="M739.8,29.7V95c0,5.6,4.6,10.2,10.2,10.2h69.9V95.1h-49.3c-2.9,0-5.1-2.3-5.1-5.1V64.7H819V54.7h-53.6
									V34.7c0-2.8,2.2-5.1,5.1-5.1h49.3V19.5H750C744.3,19.5,739.8,24.1,739.8,29.7z"/>
							</g>
						</g>
					</g>
				</g>
			</g>
		</g>
	</g>
	<g>
		<g>
			<path class="st0" d="M192.2,249.2c-30.8,30.9-81.3,30.9-112.1,0l-57-56.9c-30.8-30.9-30.8-81.3,0-112.2l57-56.9
				c30.8-30.9,81.3-30.9,112.1,0l57,56.9c30.8,30.9,30.8,81.3,0,112.2L192.2,249.2z"/>
			<path class="st1" d="M102.4,219.8c-4.5,0-8.2-3.6-8.4-8.1c-0.1-2.3,0.7-4.4,2.2-6.1c1.5-1.6,3.6-2.6,5.8-2.7
				c4.6-0.2,8.6,3.4,8.8,8.1c0.2,4.7-3.4,8.6-8.1,8.8C102.6,219.8,102.5,219.8,102.4,219.8"/>
			<path class="st1" d="M133,64.3c-4.6,0-8.3,1.5-11.3,4.4c-6.5,6.4-9.9,19.7-9.6,37.3c0.4,21.7,5.5,64.4,22.6,86.4
				c2.8,3.5,5.8,6.4,8.9,8.4c3,2,6.4,3.9,11.7,3.9c1.4,0,3-0.1,4.6-0.4c9.8-2.4,22.1-13.3,31.2-27.8c1.4-2.2,3.8-3.6,6.4-3.6
				c1.4,0,2.8,0.4,4,1.2c1.7,1.1,2.9,2.7,3.3,4.7c0.4,2,0.1,4-1,5.7c-11.5,18.4-26.8,31.3-40.8,34.5c-0.1,0-0.2,0-0.4,0.1
				c-2.6,0.5-5.1,0.7-7.5,0.7c-9,0-15.4-3.4-19.9-6.4c-4.5-3-8.7-6.9-12.4-11.8c-24.1-30.9-25.7-88.9-25.8-95.4
				C96.8,90.9,99,70,111,58c5.9-5.8,13.3-8.8,21.9-8.8h1.4c8.7,0,16,3,21.9,8.8c12,12,14.3,32.9,14,48.3
				c-0.3,16.1-3.2,47.2-19.9,75.1c-1.4,2.3-3.8,3.7-6.5,3.7c-1.3,0-2.7-0.4-3.9-1.1c-3.6-2.1-4.8-6.8-2.6-10.4
				c11.7-19.5,17.3-41,17.7-67.6c0.3-17.7-3.1-30.9-9.5-37.3c-3-3-6.7-4.4-11.3-4.4H133z"/>
		</g>
	</g>
</g>
</svg>
