<?xml version="1.0" encoding="UTF-8"?>
<svg id="Layer_1" data-name="Layer 1" xmlns="http://www.w3.org/2000/svg" viewBox="0 0 272.3 272.32">
  <defs>
    <style>
      .cls-1 {
        fill: #fff;
      }

      .cls-2 {
        fill: #ed1c24;
      }
    </style>
  </defs>
  <path class="cls-2" d="m192.2,249.18c-30.83,30.86-81.27,30.86-112.11,0l-56.96-56.93c-30.83-30.86-30.83-81.31,0-112.17l56.96-56.93c30.84-30.86,81.27-30.86,112.11,0l56.98,56.93c30.84,30.86,30.84,81.31,0,112.17l-56.98,56.93Z"/>
  <path class="cls-1" d="m102.36,219.84c-4.52,0-8.23-3.55-8.41-8.07-.1-2.25.7-4.41,2.22-6.09,1.52-1.61,3.61-2.57,5.84-2.71,4.64-.2,8.59,3.45,8.77,8.08.19,4.67-3.43,8.6-8.07,8.79h-.36"/>
  <path class="cls-1" d="m133.02,64.34c-4.63,0-8.34,1.45-11.31,4.43-6.48,6.41-9.86,19.66-9.56,37.32.36,21.73,5.52,64.41,22.63,86.37,2.8,3.55,5.77,6.4,8.85,8.45,3.02,2.01,6.43,3.92,11.7,3.92,1.43,0,2.95-.12,4.56-.41,9.81-2.37,22.12-13.29,31.22-27.8,1.4-2.22,3.8-3.58,6.43-3.58,1.41,0,2.81.45,4.01,1.19,1.7,1.09,2.88,2.75,3.35,4.73.44,1.95.09,4.01-.98,5.69-11.54,18.39-26.81,31.28-40.81,34.53-.07,0-.2,0-.35.07-2.56.47-5.1.7-7.49.7-9.05,0-15.4-3.43-19.94-6.42-4.47-2.98-8.69-6.93-12.45-11.79-24.1-30.89-25.73-88.91-25.85-95.4-.26-15.42,1.97-36.33,14.01-48.32,5.89-5.81,13.26-8.77,21.9-8.77h1.4c8.67,0,16.05,2.96,21.93,8.77,12.03,11.99,14.27,32.9,14,48.32-.26,16.06-3.2,47.19-19.88,75.12-1.35,2.28-3.82,3.69-6.49,3.69-1.35,0-2.7-.38-3.85-1.06-3.56-2.13-4.77-6.8-2.62-10.38,11.66-19.52,17.31-41.01,17.74-67.61.3-17.67-3.1-30.91-9.54-37.32-2.99-2.98-6.69-4.43-11.3-4.43h-1.32Z"/>
</svg>