<svg width="98" height="98" viewBox="0 0 98 98" fill="none" xmlns="http://www.w3.org/2000/svg">
<g clip-path="url(#clip0_2959_245429)">
<rect width="98" height="98" fill="white"/>
<path d="M5.55859 5.56006H9.03377V9.03524H5.55859V5.56006ZM9.03377 5.56006H12.5089V9.03524H9.03377V5.56006ZM12.5089 5.56006H15.9841V9.03524H12.5089V5.56006ZM15.9841 5.56006H19.4593V9.03524H15.9841V5.56006ZM19.4593 5.56006H22.9345V9.03524H19.4593V5.56006ZM22.9345 5.56006H26.4097V9.03524H22.9345V5.56006ZM26.4097 5.56006H29.8848V9.03524H26.4097V5.56006ZM43.7855 5.56006H47.2607V9.03524H43.7855V5.56006ZM54.2111 5.56006H57.6863V9.03524H54.2111V5.56006ZM57.6863 5.56006H61.1614V9.03524H57.6863V5.56006ZM61.1614 5.56006H64.6366V9.03524H61.1614V5.56006ZM68.1118 5.56006H71.587V9.03524H68.1118V5.56006ZM71.587 5.56006H75.0621V9.03524H71.587V5.56006ZM75.0621 5.56006H78.5373V9.03524H75.0621V5.56006ZM78.5373 5.56006H82.0125V9.03524H78.5373V5.56006ZM82.0125 5.56006H85.4877V9.03524H82.0125V5.56006ZM85.4877 5.56006H88.9628V9.03524H85.4877V5.56006ZM88.9628 5.56006H92.438V9.03524H88.9628V5.56006ZM5.55859 9.03524H9.03377V12.5104H5.55859V9.03524ZM26.4097 9.03524H29.8848V12.5104H26.4097V9.03524ZM36.8352 9.03524H40.3104V12.5104H36.8352V9.03524ZM50.7359 9.03524H54.2111V12.5104H50.7359V9.03524ZM54.2111 9.03524H57.6863V12.5104H54.2111V9.03524ZM61.1614 9.03524H64.6366V12.5104H61.1614V9.03524ZM68.1118 9.03524H71.587V12.5104H68.1118V9.03524ZM88.9628 9.03524H92.438V12.5104H88.9628V9.03524ZM5.55859 12.5104H9.03377V15.9856H5.55859V12.5104ZM12.5089 12.5104H15.9841V15.9856H12.5089V12.5104ZM15.9841 12.5104H19.4593V15.9856H15.9841V12.5104ZM19.4593 12.5104H22.9345V15.9856H19.4593V12.5104ZM26.4097 12.5104H29.8848V15.9856H26.4097V12.5104ZM36.8352 12.5104H40.3104V15.9856H36.8352V12.5104ZM40.3104 12.5104H43.7855V15.9856H40.3104V12.5104ZM47.2607 12.5104H50.7359V15.9856H47.2607V12.5104ZM54.2111 12.5104H57.6863V15.9856H54.2111V12.5104ZM57.6863 12.5104H61.1614V15.9856H57.6863V12.5104ZM68.1118 12.5104H71.587V15.9856H68.1118V12.5104ZM75.0621 12.5104H78.5373V15.9856H75.0621V12.5104ZM78.5373 12.5104H82.0125V15.9856H78.5373V12.5104ZM82.0125 12.5104H85.4877V15.9856H82.0125V12.5104ZM88.9628 12.5104H92.438V15.9856H88.9628V12.5104ZM5.55859 15.9856H9.03377V19.4608H5.55859V15.9856ZM12.5089 15.9856H15.9841V19.4608H12.5089V15.9856ZM15.9841 15.9856H19.4593V19.4608H15.9841V15.9856ZM19.4593 15.9856H22.9345V19.4608H19.4593V15.9856ZM26.4097 15.9856H29.8848V19.4608H26.4097V15.9856ZM33.36 15.9856H36.8352V19.4608H33.36V15.9856ZM36.8352 15.9856H40.3104V19.4608H36.8352V15.9856ZM47.2607 15.9856H50.7359V19.4608H47.2607V15.9856ZM54.2111 15.9856H57.6863V19.4608H54.2111V15.9856ZM57.6863 15.9856H61.1614V19.4608H57.6863V15.9856ZM68.1118 15.9856H71.587V19.4608H68.1118V15.9856ZM75.0621 15.9856H78.5373V19.4608H75.0621V15.9856ZM78.5373 15.9856H82.0125V19.4608H78.5373V15.9856ZM82.0125 15.9856H85.4877V19.4608H82.0125V15.9856ZM88.9628 15.9856H92.438V19.4608H88.9628V15.9856ZM5.55859 19.4608H9.03377V22.9359H5.55859V19.4608ZM12.5089 19.4608H15.9841V22.9359H12.5089V19.4608ZM15.9841 19.4608H19.4593V22.9359H15.9841V19.4608ZM19.4593 19.4608H22.9345V22.9359H19.4593V19.4608ZM26.4097 19.4608H29.8848V22.9359H26.4097V19.4608ZM40.3104 19.4608H43.7855V22.9359H40.3104V19.4608ZM43.7855 19.4608H47.2607V22.9359H43.7855V19.4608ZM47.2607 19.4608H50.7359V22.9359H47.2607V19.4608ZM50.7359 19.4608H54.2111V22.9359H50.7359V19.4608ZM54.2111 19.4608H57.6863V22.9359H54.2111V19.4608ZM68.1118 19.4608H71.587V22.9359H68.1118V19.4608ZM75.0621 19.4608H78.5373V22.9359H75.0621V19.4608ZM78.5373 19.4608H82.0125V22.9359H78.5373V19.4608ZM82.0125 19.4608H85.4877V22.9359H82.0125V19.4608ZM88.9628 19.4608H92.438V22.9359H88.9628V19.4608ZM5.55859 22.9359H9.03377V26.4111H5.55859V22.9359ZM26.4097 22.9359H29.8848V26.4111H26.4097V22.9359ZM33.36 22.9359H36.8352V26.4111H33.36V22.9359ZM43.7855 22.9359H47.2607V26.4111H43.7855V22.9359ZM61.1614 22.9359H64.6366V26.4111H61.1614V22.9359ZM68.1118 22.9359H71.587V26.4111H68.1118V22.9359ZM88.9628 22.9359H92.438V26.4111H88.9628V22.9359ZM5.55859 26.4111H9.03377V29.8863H5.55859V26.4111ZM9.03377 26.4111H12.5089V29.8863H9.03377V26.4111ZM12.5089 26.4111H15.9841V29.8863H12.5089V26.4111ZM15.9841 26.4111H19.4593V29.8863H15.9841V26.4111ZM19.4593 26.4111H22.9345V29.8863H19.4593V26.4111ZM22.9345 26.4111H26.4097V29.8863H22.9345V26.4111ZM26.4097 26.4111H29.8848V29.8863H26.4097V26.4111ZM33.36 26.4111H36.8352V29.8863H33.36V26.4111ZM40.3104 26.4111H43.7855V29.8863H40.3104V26.4111ZM47.2607 26.4111H50.7359V29.8863H47.2607V26.4111ZM54.2111 26.4111H57.6863V29.8863H54.2111V26.4111ZM61.1614 26.4111H64.6366V29.8863H61.1614V26.4111ZM68.1118 26.4111H71.587V29.8863H68.1118V26.4111ZM71.587 26.4111H75.0621V29.8863H71.587V26.4111ZM75.0621 26.4111H78.5373V29.8863H75.0621V26.4111ZM78.5373 26.4111H82.0125V29.8863H78.5373V26.4111ZM82.0125 26.4111H85.4877V29.8863H82.0125V26.4111ZM85.4877 26.4111H88.9628V29.8863H85.4877V26.4111ZM88.9628 26.4111H92.438V29.8863H88.9628V26.4111ZM33.36 29.8863H36.8352V33.3615H33.36V29.8863ZM36.8352 29.8863H40.3104V33.3615H36.8352V29.8863ZM40.3104 29.8863H43.7855V33.3615H40.3104V29.8863ZM54.2111 29.8863H57.6863V33.3615H54.2111V29.8863ZM57.6863 29.8863H61.1614V33.3615H57.6863V29.8863ZM61.1614 29.8863H64.6366V33.3615H61.1614V29.8863ZM9.03377 33.3615H12.5089V36.8367H9.03377V33.3615ZM12.5089 33.3615H15.9841V36.8367H12.5089V33.3615ZM26.4097 33.3615H29.8848V36.8367H26.4097V33.3615ZM50.7359 33.3615H54.2111V36.8367H50.7359V33.3615ZM54.2111 33.3615H57.6863V36.8367H54.2111V33.3615ZM61.1614 33.3615H64.6366V36.8367H61.1614V33.3615ZM68.1118 33.3615H71.587V36.8367H68.1118V33.3615ZM71.587 33.3615H75.0621V36.8367H71.587V33.3615ZM78.5373 33.3615H82.0125V36.8367H78.5373V33.3615ZM9.03377 36.8367H12.5089V40.3118H9.03377V36.8367ZM12.5089 36.8367H15.9841V40.3118H12.5089V36.8367ZM19.4593 36.8367H22.9345V40.3118H19.4593V36.8367ZM29.8848 36.8367H33.36V40.3118H29.8848V36.8367ZM40.3104 36.8367H43.7855V40.3118H40.3104V36.8367ZM43.7855 36.8367H47.2607V40.3118H43.7855V36.8367ZM47.2607 36.8367H50.7359V40.3118H47.2607V36.8367ZM50.7359 36.8367H54.2111V40.3118H50.7359V36.8367ZM54.2111 36.8367H57.6863V40.3118H54.2111V36.8367ZM57.6863 36.8367H61.1614V40.3118H57.6863V36.8367ZM61.1614 36.8367H64.6366V40.3118H61.1614V36.8367ZM68.1118 36.8367H71.587V40.3118H68.1118V36.8367ZM71.587 36.8367H75.0621V40.3118H71.587V36.8367ZM78.5373 36.8367H82.0125V40.3118H78.5373V36.8367ZM85.4877 36.8367H88.9628V40.3118H85.4877V36.8367ZM88.9628 36.8367H92.438V40.3118H88.9628V36.8367ZM26.4097 40.3118H29.8848V43.787H26.4097V40.3118ZM43.7855 40.3118H47.2607V43.787H43.7855V40.3118ZM57.6863 40.3118H61.1614V43.787H57.6863V40.3118ZM64.6366 40.3118H68.1118V43.787H64.6366V40.3118ZM71.587 40.3118H75.0621V43.787H71.587V40.3118ZM78.5373 40.3118H82.0125V43.787H78.5373V40.3118ZM82.0125 40.3118H85.4877V43.787H82.0125V40.3118ZM88.9628 40.3118H92.438V43.787H88.9628V40.3118ZM5.55859 43.787H9.03377V47.2622H5.55859V43.787ZM9.03377 43.787H12.5089V47.2622H9.03377V43.787ZM19.4593 43.787H22.9345V47.2622H19.4593V43.787ZM29.8848 43.787H33.36V47.2622H29.8848V43.787ZM36.8352 43.787H40.3104V47.2622H36.8352V43.787ZM40.3104 43.787H43.7855V47.2622H40.3104V43.787ZM50.7359 43.787H54.2111V47.2622H50.7359V43.787ZM57.6863 43.787H61.1614V47.2622H57.6863V43.787ZM64.6366 43.787H68.1118V47.2622H64.6366V43.787ZM71.587 43.787H75.0621V47.2622H71.587V43.787ZM78.5373 43.787H82.0125V47.2622H78.5373V43.787ZM5.55859 47.2622H9.03377V50.7374H5.55859V47.2622ZM9.03377 47.2622H12.5089V50.7374H9.03377V47.2622ZM15.9841 47.2622H19.4593V50.7374H15.9841V47.2622ZM26.4097 47.2622H29.8848V50.7374H26.4097V47.2622ZM29.8848 47.2622H33.36V50.7374H29.8848V47.2622ZM33.36 47.2622H36.8352V50.7374H33.36V47.2622ZM36.8352 47.2622H40.3104V50.7374H36.8352V47.2622ZM40.3104 47.2622H43.7855V50.7374H40.3104V47.2622ZM50.7359 47.2622H54.2111V50.7374H50.7359V47.2622ZM57.6863 47.2622H61.1614V50.7374H57.6863V47.2622ZM61.1614 47.2622H64.6366V50.7374H61.1614V47.2622ZM68.1118 47.2622H71.587V50.7374H68.1118V47.2622ZM71.587 47.2622H75.0621V50.7374H71.587V47.2622ZM88.9628 47.2622H92.438V50.7374H88.9628V47.2622ZM12.5089 50.7374H15.9841V54.2125H12.5089V50.7374ZM15.9841 50.7374H19.4593V54.2125H15.9841V50.7374ZM19.4593 50.7374H22.9345V54.2125H19.4593V50.7374ZM40.3104 50.7374H43.7855V54.2125H40.3104V50.7374ZM43.7855 50.7374H47.2607V54.2125H43.7855V50.7374ZM47.2607 50.7374H50.7359V54.2125H47.2607V50.7374ZM57.6863 50.7374H61.1614V54.2125H57.6863V50.7374ZM61.1614 50.7374H64.6366V54.2125H61.1614V50.7374ZM68.1118 50.7374H71.587V54.2125H68.1118V50.7374ZM71.587 50.7374H75.0621V54.2125H71.587V50.7374ZM85.4877 50.7374H88.9628V54.2125H85.4877V50.7374ZM88.9628 50.7374H92.438V54.2125H88.9628V50.7374ZM5.55859 54.2125H9.03377V57.6877H5.55859V54.2125ZM9.03377 54.2125H12.5089V57.6877H9.03377V54.2125ZM15.9841 54.2125H19.4593V57.6877H15.9841V54.2125ZM22.9345 54.2125H26.4097V57.6877H22.9345V54.2125ZM26.4097 54.2125H29.8848V57.6877H26.4097V54.2125ZM33.36 54.2125H36.8352V57.6877H33.36V54.2125ZM36.8352 54.2125H40.3104V57.6877H36.8352V54.2125ZM40.3104 54.2125H43.7855V57.6877H40.3104V54.2125ZM47.2607 54.2125H50.7359V57.6877H47.2607V54.2125ZM57.6863 54.2125H61.1614V57.6877H57.6863V54.2125ZM61.1614 54.2125H64.6366V57.6877H61.1614V54.2125ZM68.1118 54.2125H71.587V57.6877H68.1118V54.2125ZM78.5373 54.2125H82.0125V57.6877H78.5373V54.2125ZM82.0125 54.2125H85.4877V57.6877H82.0125V54.2125ZM88.9628 54.2125H92.438V57.6877H88.9628V54.2125ZM12.5089 57.6877H15.9841V61.1629H12.5089V57.6877ZM15.9841 57.6877H19.4593V61.1629H15.9841V57.6877ZM19.4593 57.6877H22.9345V61.1629H19.4593V57.6877ZM29.8848 57.6877H33.36V61.1629H29.8848V57.6877ZM40.3104 57.6877H43.7855V61.1629H40.3104V57.6877ZM54.2111 57.6877H57.6863V61.1629H54.2111V57.6877ZM57.6863 57.6877H61.1614V61.1629H57.6863V57.6877ZM61.1614 57.6877H64.6366V61.1629H61.1614V57.6877ZM64.6366 57.6877H68.1118V61.1629H64.6366V57.6877ZM68.1118 57.6877H71.587V61.1629H68.1118V57.6877ZM71.587 57.6877H75.0621V61.1629H71.587V57.6877ZM75.0621 57.6877H78.5373V61.1629H75.0621V57.6877ZM78.5373 57.6877H82.0125V61.1629H78.5373V57.6877ZM5.55859 61.1629H9.03377V64.6381H5.55859V61.1629ZM9.03377 61.1629H12.5089V64.6381H9.03377V61.1629ZM12.5089 61.1629H15.9841V64.6381H12.5089V61.1629ZM19.4593 61.1629H22.9345V64.6381H19.4593V61.1629ZM26.4097 61.1629H29.8848V64.6381H26.4097V61.1629ZM33.36 61.1629H36.8352V64.6381H33.36V61.1629ZM43.7855 61.1629H47.2607V64.6381H43.7855V61.1629ZM61.1614 61.1629H64.6366V64.6381H61.1614V61.1629ZM64.6366 61.1629H68.1118V64.6381H64.6366V61.1629ZM68.1118 61.1629H71.587V64.6381H68.1118V61.1629ZM71.587 61.1629H75.0621V64.6381H71.587V61.1629ZM75.0621 61.1629H78.5373V64.6381H75.0621V61.1629ZM85.4877 61.1629H88.9628V64.6381H85.4877V61.1629ZM33.36 64.6381H36.8352V68.1133H33.36V64.6381ZM36.8352 64.6381H40.3104V68.1133H36.8352V64.6381ZM40.3104 64.6381H43.7855V68.1133H40.3104V64.6381ZM43.7855 64.6381H47.2607V68.1133H43.7855V64.6381ZM50.7359 64.6381H54.2111V68.1133H50.7359V64.6381ZM54.2111 64.6381H57.6863V68.1133H54.2111V64.6381ZM61.1614 64.6381H64.6366V68.1133H61.1614V64.6381ZM75.0621 64.6381H78.5373V68.1133H75.0621V64.6381ZM88.9628 64.6381H92.438V68.1133H88.9628V64.6381ZM5.55859 68.1133H9.03377V71.5884H5.55859V68.1133ZM9.03377 68.1133H12.5089V71.5884H9.03377V68.1133ZM12.5089 68.1133H15.9841V71.5884H12.5089V68.1133ZM15.9841 68.1133H19.4593V71.5884H15.9841V68.1133ZM19.4593 68.1133H22.9345V71.5884H19.4593V68.1133ZM22.9345 68.1133H26.4097V71.5884H22.9345V68.1133ZM26.4097 68.1133H29.8848V71.5884H26.4097V68.1133ZM40.3104 68.1133H43.7855V71.5884H40.3104V68.1133ZM43.7855 68.1133H47.2607V71.5884H43.7855V68.1133ZM54.2111 68.1133H57.6863V71.5884H54.2111V68.1133ZM61.1614 68.1133H64.6366V71.5884H61.1614V68.1133ZM68.1118 68.1133H71.587V71.5884H68.1118V68.1133ZM75.0621 68.1133H78.5373V71.5884H75.0621V68.1133ZM88.9628 68.1133H92.438V71.5884H88.9628V68.1133ZM5.55859 71.5884H9.03377V75.0636H5.55859V71.5884ZM26.4097 71.5884H29.8848V75.0636H26.4097V71.5884ZM36.8352 71.5884H40.3104V75.0636H36.8352V71.5884ZM40.3104 71.5884H43.7855V75.0636H40.3104V71.5884ZM47.2607 71.5884H50.7359V75.0636H47.2607V71.5884ZM50.7359 71.5884H54.2111V75.0636H50.7359V71.5884ZM61.1614 71.5884H64.6366V75.0636H61.1614V71.5884ZM75.0621 71.5884H78.5373V75.0636H75.0621V71.5884ZM85.4877 71.5884H88.9628V75.0636H85.4877V71.5884ZM5.55859 75.0636H9.03377V78.5388H5.55859V75.0636ZM12.5089 75.0636H15.9841V78.5388H12.5089V75.0636ZM15.9841 75.0636H19.4593V78.5388H15.9841V75.0636ZM19.4593 75.0636H22.9345V78.5388H19.4593V75.0636ZM26.4097 75.0636H29.8848V78.5388H26.4097V75.0636ZM36.8352 75.0636H40.3104V78.5388H36.8352V75.0636ZM40.3104 75.0636H43.7855V78.5388H40.3104V75.0636ZM54.2111 75.0636H57.6863V78.5388H54.2111V75.0636ZM57.6863 75.0636H61.1614V78.5388H57.6863V75.0636ZM61.1614 75.0636H64.6366V78.5388H61.1614V75.0636ZM64.6366 75.0636H68.1118V78.5388H64.6366V75.0636ZM68.1118 75.0636H71.587V78.5388H68.1118V75.0636ZM71.587 75.0636H75.0621V78.5388H71.587V75.0636ZM75.0621 75.0636H78.5373V78.5388H75.0621V75.0636ZM85.4877 75.0636H88.9628V78.5388H85.4877V75.0636ZM88.9628 75.0636H92.438V78.5388H88.9628V75.0636ZM5.55859 78.5388H9.03377V82.014H5.55859V78.5388ZM12.5089 78.5388H15.9841V82.014H12.5089V78.5388ZM15.9841 78.5388H19.4593V82.014H15.9841V78.5388ZM19.4593 78.5388H22.9345V82.014H19.4593V78.5388ZM26.4097 78.5388H29.8848V82.014H26.4097V78.5388ZM36.8352 78.5388H40.3104V82.014H36.8352V78.5388ZM40.3104 78.5388H43.7855V82.014H40.3104V78.5388ZM43.7855 78.5388H47.2607V82.014H43.7855V78.5388ZM47.2607 78.5388H50.7359V82.014H47.2607V78.5388ZM57.6863 78.5388H61.1614V82.014H57.6863V78.5388ZM64.6366 78.5388H68.1118V82.014H64.6366V78.5388ZM75.0621 78.5388H78.5373V82.014H75.0621V78.5388ZM82.0125 78.5388H85.4877V82.014H82.0125V78.5388ZM85.4877 78.5388H88.9628V82.014H85.4877V78.5388ZM5.55859 82.014H9.03377V85.4891H5.55859V82.014ZM12.5089 82.014H15.9841V85.4891H12.5089V82.014ZM15.9841 82.014H19.4593V85.4891H15.9841V82.014ZM19.4593 82.014H22.9345V85.4891H19.4593V82.014ZM26.4097 82.014H29.8848V85.4891H26.4097V82.014ZM33.36 82.014H36.8352V85.4891H33.36V82.014ZM50.7359 82.014H54.2111V85.4891H50.7359V82.014ZM54.2111 82.014H57.6863V85.4891H54.2111V82.014ZM57.6863 82.014H61.1614V85.4891H57.6863V82.014ZM61.1614 82.014H64.6366V85.4891H61.1614V82.014ZM64.6366 82.014H68.1118V85.4891H64.6366V82.014ZM71.587 82.014H75.0621V85.4891H71.587V82.014ZM75.0621 82.014H78.5373V85.4891H75.0621V82.014ZM78.5373 82.014H82.0125V85.4891H78.5373V82.014ZM85.4877 82.014H88.9628V85.4891H85.4877V82.014ZM88.9628 82.014H92.438V85.4891H88.9628V82.014ZM5.55859 85.4891H9.03377V88.9643H5.55859V85.4891ZM26.4097 85.4891H29.8848V88.9643H26.4097V85.4891ZM33.36 85.4891H36.8352V88.9643H33.36V85.4891ZM36.8352 85.4891H40.3104V88.9643H36.8352V85.4891ZM40.3104 85.4891H43.7855V88.9643H40.3104V85.4891ZM50.7359 85.4891H54.2111V88.9643H50.7359V85.4891ZM61.1614 85.4891H64.6366V88.9643H61.1614V85.4891ZM64.6366 85.4891H68.1118V88.9643H64.6366V85.4891ZM68.1118 85.4891H71.587V88.9643H68.1118V85.4891ZM71.587 85.4891H75.0621V88.9643H71.587V85.4891ZM75.0621 85.4891H78.5373V88.9643H75.0621V85.4891ZM5.55859 88.9643H9.03377V92.4395H5.55859V88.9643ZM9.03377 88.9643H12.5089V92.4395H9.03377V88.9643ZM12.5089 88.9643H15.9841V92.4395H12.5089V88.9643ZM15.9841 88.9643H19.4593V92.4395H15.9841V88.9643ZM19.4593 88.9643H22.9345V92.4395H19.4593V88.9643ZM22.9345 88.9643H26.4097V92.4395H22.9345V88.9643ZM26.4097 88.9643H29.8848V92.4395H26.4097V88.9643ZM40.3104 88.9643H43.7855V92.4395H40.3104V88.9643ZM47.2607 88.9643H50.7359V92.4395H47.2607V88.9643ZM61.1614 88.9643H64.6366V92.4395H61.1614V88.9643ZM68.1118 88.9643H71.587V92.4395H68.1118V88.9643ZM78.5373 88.9643H82.0125V92.4395H78.5373V88.9643ZM88.9628 88.9643H92.438V92.4395H88.9628V88.9643Z" fill="black"/>
</g>
<defs>
<clipPath id="clip0_2959_245429">
<rect width="98" height="98" rx="4" fill="white"/>
</clipPath>
</defs>
</svg>
