<svg width="37" height="36" viewBox="0 0 37 36" fill="none" xmlns="http://www.w3.org/2000/svg">
<rect x="0.104004" width="36" height="36" rx="18" fill="#EF6765"/>
<path d="M12.7946 14.002V22H11.2784L7.87817 16.4519V22H6.36755V14.002H7.87817L11.2894 19.5555V14.002H12.7946ZM19.6335 20.8135V22H15.3818V20.8135H19.6335ZM15.8433 14.002V22H14.3326V14.002H15.8433ZM19.0787 17.3033V18.4624H15.3818V17.3033H19.0787ZM19.6171 14.002V15.194H15.3818V14.002H19.6171ZM22.6493 20.4674L24.2423 14.002H25.1047L25.1597 15.3643L23.4568 22H22.5449L22.6493 20.4674ZM21.644 14.002L22.9514 20.4454V22H21.9572L20.1444 14.002H21.644ZM26.8131 20.418L28.0985 14.002H29.6036L27.7909 22H26.7966L26.8131 20.418ZM25.5167 14.002L27.1097 20.4894L27.2031 22H26.2913L24.5939 15.3588L24.6598 14.002H25.5167Z" fill="white"/>
</svg>
