<svg width="34" height="40" viewBox="0 0 34 40" fill="none" xmlns="http://www.w3.org/2000/svg">
<path d="M17.0027 20C16.8511 20 16.7056 19.9473 16.5984 19.8536C16.4912 19.7598 16.4309 19.6326 16.4309 19.5V18.207L15.6922 18.854C15.5848 18.9478 15.4392 19.0004 15.2875 19.0003C15.1358 19.0002 14.9903 18.9474 14.8831 18.8535C14.7758 18.7596 14.7157 18.6323 14.7158 18.4996C14.7159 18.367 14.7763 18.2398 14.8836 18.146L16.4309 16.793V12.866L12.5427 14.829L11.9755 16.679C11.9361 16.8071 11.84 16.9163 11.7086 16.9825C11.5771 17.0487 11.421 17.0665 11.2745 17.032C11.128 16.9975 11.0031 16.9136 10.9274 16.7986C10.8517 16.6836 10.8313 16.5471 10.8708 16.419L11.1418 15.537L9.86098 16.183C9.72972 16.2483 9.57427 16.2655 9.42855 16.2309C9.28283 16.1963 9.15868 16.1127 9.08318 15.9983C9.00768 15.884 8.98697 15.7482 9.02556 15.6205C9.06416 15.4929 9.15892 15.3838 9.28918 15.317L10.57 14.671L9.55907 14.434C9.48653 14.4169 9.41855 14.3875 9.35901 14.3475C9.29947 14.3074 9.24953 14.2575 9.21204 14.2006C9.17455 14.1437 9.15026 14.0809 9.14054 14.0157C9.13081 13.9506 9.13586 13.8844 9.15538 13.821C9.17491 13.7576 9.20852 13.6981 9.25432 13.6461C9.30012 13.594 9.35719 13.5503 9.42229 13.5175C9.48738 13.4848 9.55922 13.4635 9.63371 13.455C9.7082 13.4465 9.78387 13.4509 9.8564 13.468L11.9698 13.963L15.8591 12L11.9709 10.037L9.85526 10.532C9.70972 10.5637 9.55575 10.5442 9.42655 10.4775C9.29735 10.4109 9.20325 10.3026 9.16455 10.1759C9.12585 10.0491 9.14563 9.9142 9.21965 9.80012C9.29366 9.68604 9.41597 9.60196 9.56021 9.566L10.57 9.329L9.28918 8.683C9.22363 8.65041 9.16609 8.6068 9.11989 8.55469C9.07369 8.50257 9.03973 8.44298 9.01998 8.37935C9.00022 8.31571 8.99505 8.24928 9.00477 8.18389C9.01449 8.1185 9.0389 8.05544 9.07661 7.99834C9.11431 7.94123 9.16457 7.89121 9.22447 7.85116C9.28437 7.8111 9.35274 7.7818 9.42564 7.76495C9.49855 7.7481 9.57454 7.74402 9.64926 7.75295C9.72397 7.76188 9.79593 7.78365 9.86098 7.817L11.1418 8.463L10.8708 7.58C10.85 7.51618 10.8439 7.44937 10.8529 7.38348C10.8619 7.31758 10.8859 7.25392 10.9233 7.1962C10.9608 7.13847 11.011 7.08785 11.071 7.04727C11.1311 7.00669 11.1998 6.97697 11.2731 6.95985C11.3464 6.94272 11.4229 6.93854 11.4981 6.94753C11.5733 6.95652 11.6457 6.97851 11.7111 7.01222C11.7765 7.04593 11.8335 7.09068 11.8789 7.14386C11.9243 7.19705 11.9571 7.2576 11.9755 7.322L12.5416 9.171L16.4309 11.134V7.207L14.8836 5.854C14.8305 5.80758 14.7883 5.75245 14.7595 5.69177C14.7307 5.6311 14.7158 5.56605 14.7158 5.50035C14.7157 5.43466 14.7305 5.36959 14.7592 5.30888C14.7879 5.24816 14.83 5.19299 14.8831 5.1465C14.9362 5.10001 14.9992 5.06312 15.0686 5.03794C15.138 5.01275 15.2124 4.99977 15.2875 4.99972C15.3626 4.99968 15.437 5.01257 15.5065 5.03767C15.5759 5.06277 15.639 5.09958 15.6922 5.146L16.4309 5.793V4.5C16.4309 4.36739 16.4912 4.24021 16.5984 4.14645C16.7056 4.05268 16.8511 4 17.0027 4C17.1544 4 17.2998 4.05268 17.407 4.14645C17.5143 4.24021 17.5745 4.36739 17.5745 4.5V5.793L18.3144 5.146C18.4218 5.05225 18.5673 4.99963 18.7191 4.99972C18.8708 4.99982 19.0163 5.05261 19.1235 5.1465C19.2307 5.24039 19.2909 5.36767 19.2908 5.50035C19.2907 5.63304 19.2303 5.76025 19.1229 5.854L17.5745 7.207V11.134L21.4627 9.171L22.0299 7.321C22.0694 7.1929 22.1654 7.08374 22.2968 7.01754C22.4283 6.95134 22.5845 6.93352 22.731 6.968C22.8775 7.00248 23.0023 7.08643 23.078 7.20139C23.1537 7.31635 23.1741 7.4529 23.1347 7.581L22.8648 8.463L24.1456 7.817C24.2768 7.75174 24.4323 7.73453 24.578 7.76913C24.7237 7.80372 24.8479 7.88731 24.9234 8.00165C24.9989 8.116 25.0196 8.25181 24.981 8.37946C24.9424 8.50711 24.8476 8.61622 24.7174 8.683L23.4366 9.329L24.4464 9.566C24.5928 9.60048 24.7177 9.68443 24.7934 9.79939C24.8691 9.91435 24.8895 10.0509 24.85 10.179C24.8106 10.3071 24.7146 10.4163 24.5831 10.4825C24.4517 10.5487 24.2955 10.5665 24.149 10.532L22.0357 10.037L18.1463 12L22.0345 13.963L24.149 13.468C24.2955 13.4337 24.4516 13.4516 24.583 13.5179C24.7143 13.5842 24.8102 13.6934 24.8495 13.8215C24.8887 13.9496 24.8682 14.0861 24.7924 14.201C24.7166 14.3158 24.5917 14.3997 24.4452 14.434L23.4354 14.671L24.7162 15.317C24.8465 15.3838 24.9413 15.4929 24.9799 15.6205C25.0185 15.7482 24.9977 15.884 24.9222 15.9983C24.8467 16.1127 24.7226 16.1963 24.5769 16.2309C24.4312 16.2655 24.2757 16.2483 24.1444 16.183L22.8636 15.537L23.1335 16.42C23.1543 16.4838 23.1604 16.5506 23.1514 16.6165C23.1423 16.6824 23.1184 16.7461 23.081 16.8038C23.0435 16.8615 22.9933 16.9122 22.9332 16.9527C22.8732 16.9933 22.8045 17.023 22.7312 17.0402C22.6578 17.0573 22.5814 17.0615 22.5062 17.0525C22.431 17.0435 22.3586 17.0215 22.2932 16.9878C22.2278 16.9541 22.1708 16.9093 22.1254 16.8561C22.08 16.803 22.0472 16.7424 22.0288 16.678L21.4627 14.829L17.5745 12.866V16.793L19.1218 18.146C19.2292 18.2398 19.2895 18.367 19.2896 18.4996C19.2898 18.6323 19.2296 18.7596 19.1224 18.8535C19.0151 18.9474 18.8697 19.0002 18.7179 19.0003C18.5662 19.0004 18.4206 18.9478 18.3133 18.854L17.5734 18.207V19.5C17.5734 19.6326 17.5131 19.7598 17.4059 19.8536C17.2987 19.9473 17.1532 20 17.0016 20H17.0027Z" fill="#50515C"/>
<path d="M2.02148 27.8906V35H0.678711V27.8906H2.02148ZM4.8877 30.9619V32.0215H1.66992V30.9619H4.8877ZM5.26367 27.8906V28.9502H1.66992V27.8906H5.26367ZM7.24121 30.7959V35H5.95215V29.7168H7.17285L7.24121 30.7959ZM8.84766 29.6826L8.82812 30.8838C8.75651 30.8708 8.67513 30.861 8.58398 30.8545C8.49609 30.848 8.41309 30.8447 8.33496 30.8447C8.13639 30.8447 7.96224 30.8724 7.8125 30.9277C7.66276 30.9798 7.53743 31.0563 7.43652 31.1572C7.33887 31.2581 7.264 31.3818 7.21191 31.5283C7.15983 31.6715 7.13053 31.8343 7.12402 32.0166L6.8457 31.9824C6.8457 31.6471 6.87988 31.3363 6.94824 31.0498C7.0166 30.7633 7.11589 30.5127 7.24609 30.2979C7.3763 30.083 7.53906 29.917 7.73438 29.7998C7.93294 29.6794 8.16081 29.6191 8.41797 29.6191C8.48958 29.6191 8.56608 29.6257 8.64746 29.6387C8.7321 29.6484 8.79883 29.6631 8.84766 29.6826ZM11.8311 35.0977C11.4307 35.0977 11.071 35.0326 10.752 34.9023C10.4329 34.7721 10.1611 34.5915 9.93652 34.3604C9.71517 34.126 9.54427 33.8542 9.42383 33.5449C9.30664 33.2324 9.24805 32.8971 9.24805 32.5391V32.3438C9.24805 31.9368 9.30664 31.5674 9.42383 31.2354C9.54102 30.9001 9.70703 30.612 9.92188 30.3711C10.1367 30.1302 10.3939 29.9447 10.6934 29.8145C10.9928 29.6842 11.3232 29.6191 11.6846 29.6191C12.0589 29.6191 12.3893 29.6826 12.6758 29.8096C12.9622 29.9333 13.2015 30.109 13.3936 30.3369C13.5856 30.5648 13.7305 30.8382 13.8281 31.1572C13.9258 31.473 13.9746 31.8229 13.9746 32.207V32.749H9.83398V31.8604H12.7051V31.7627C12.6986 31.5576 12.6595 31.3704 12.5879 31.2012C12.5163 31.0286 12.4056 30.8919 12.2559 30.791C12.1061 30.6868 11.9124 30.6348 11.6748 30.6348C11.4827 30.6348 11.3151 30.6771 11.1719 30.7617C11.0319 30.8431 10.9147 30.9603 10.8203 31.1133C10.7292 31.263 10.6608 31.4421 10.6152 31.6504C10.5697 31.8587 10.5469 32.0898 10.5469 32.3438V32.5391C10.5469 32.7604 10.5762 32.9655 10.6348 33.1543C10.6966 33.3431 10.7861 33.5075 10.9033 33.6475C11.0238 33.7842 11.167 33.8916 11.333 33.9697C11.5023 34.0446 11.6943 34.082 11.9092 34.082C12.1794 34.082 12.4235 34.0299 12.6416 33.9258C12.863 33.8184 13.055 33.6605 13.2178 33.4521L13.8672 34.126C13.7565 34.2887 13.6068 34.445 13.418 34.5947C13.2324 34.7445 13.0078 34.8665 12.7441 34.9609C12.4805 35.0521 12.1761 35.0977 11.8311 35.0977ZM17.2119 35.0977C16.8115 35.0977 16.4518 35.0326 16.1328 34.9023C15.8138 34.7721 15.542 34.5915 15.3174 34.3604C15.096 34.126 14.9251 33.8542 14.8047 33.5449C14.6875 33.2324 14.6289 32.8971 14.6289 32.5391V32.3438C14.6289 31.9368 14.6875 31.5674 14.8047 31.2354C14.9219 30.9001 15.0879 30.612 15.3027 30.3711C15.5176 30.1302 15.7747 29.9447 16.0742 29.8145C16.3737 29.6842 16.7041 29.6191 17.0654 29.6191C17.4398 29.6191 17.7702 29.6826 18.0566 29.8096C18.3431 29.9333 18.5824 30.109 18.7744 30.3369C18.9665 30.5648 19.1113 30.8382 19.209 31.1572C19.3066 31.473 19.3555 31.8229 19.3555 32.207V32.749H15.2148V31.8604H18.0859V31.7627C18.0794 31.5576 18.0404 31.3704 17.9688 31.2012C17.8971 31.0286 17.7865 30.8919 17.6367 30.791C17.487 30.6868 17.2933 30.6348 17.0557 30.6348C16.8636 30.6348 16.696 30.6771 16.5527 30.7617C16.4128 30.8431 16.2956 30.9603 16.2012 31.1133C16.11 31.263 16.0417 31.4421 15.9961 31.6504C15.9505 31.8587 15.9277 32.0898 15.9277 32.3438V32.5391C15.9277 32.7604 15.957 32.9655 16.0156 33.1543C16.0775 33.3431 16.167 33.5075 16.2842 33.6475C16.4046 33.7842 16.5479 33.8916 16.7139 33.9697C16.8831 34.0446 17.0752 34.082 17.29 34.082C17.5602 34.082 17.8044 34.0299 18.0225 33.9258C18.2438 33.8184 18.4359 33.6605 18.5986 33.4521L19.248 34.126C19.1374 34.2887 18.9876 34.445 18.7988 34.5947C18.6133 34.7445 18.3887 34.8665 18.125 34.9609C17.8613 35.0521 17.557 35.0977 17.2119 35.0977ZM24.3604 33.9844V35H20.3857V33.9844H24.3604ZM24.2676 30.4883L20.8691 35H20.0195V34.2041L23.3984 29.7168H24.2676V30.4883ZM23.7939 29.7168V30.7373H20.0879V29.7168H23.7939ZM27.5732 35.0977C27.1729 35.0977 26.8132 35.0326 26.4941 34.9023C26.1751 34.7721 25.9033 34.5915 25.6787 34.3604C25.4574 34.126 25.2865 33.8542 25.166 33.5449C25.0488 33.2324 24.9902 32.8971 24.9902 32.5391V32.3438C24.9902 31.9368 25.0488 31.5674 25.166 31.2354C25.2832 30.9001 25.4492 30.612 25.6641 30.3711C25.8789 30.1302 26.1361 29.9447 26.4355 29.8145C26.735 29.6842 27.0654 29.6191 27.4268 29.6191C27.8011 29.6191 28.1315 29.6826 28.418 29.8096C28.7044 29.9333 28.9437 30.109 29.1357 30.3369C29.3278 30.5648 29.4727 30.8382 29.5703 31.1572C29.668 31.473 29.7168 31.8229 29.7168 32.207V32.749H25.5762V31.8604H28.4473V31.7627C28.4408 31.5576 28.4017 31.3704 28.3301 31.2012C28.2585 31.0286 28.1478 30.8919 27.998 30.791C27.8483 30.6868 27.6546 30.6348 27.417 30.6348C27.2249 30.6348 27.0573 30.6771 26.9141 30.7617C26.7741 30.8431 26.6569 30.9603 26.5625 31.1133C26.4714 31.263 26.403 31.4421 26.3574 31.6504C26.3118 31.8587 26.2891 32.0898 26.2891 32.3438V32.5391C26.2891 32.7604 26.3184 32.9655 26.377 33.1543C26.4388 33.3431 26.5283 33.5075 26.6455 33.6475C26.766 33.7842 26.9092 33.8916 27.0752 33.9697C27.2445 34.0446 27.4365 34.082 27.6514 34.082C27.9215 34.082 28.1657 34.0299 28.3838 33.9258C28.6051 33.8184 28.7972 33.6605 28.96 33.4521L29.6094 34.126C29.4987 34.2887 29.349 34.445 29.1602 34.5947C28.9746 34.7445 28.75 34.8665 28.4863 34.9609C28.2227 35.0521 27.9183 35.0977 27.5732 35.0977ZM31.8701 30.7959V35H30.5811V29.7168H31.8018L31.8701 30.7959ZM33.4766 29.6826L33.457 30.8838C33.3854 30.8708 33.304 30.861 33.2129 30.8545C33.125 30.848 33.042 30.8447 32.9639 30.8447C32.7653 30.8447 32.5911 30.8724 32.4414 30.9277C32.2917 30.9798 32.1663 31.0563 32.0654 31.1572C31.9678 31.2581 31.8929 31.3818 31.8408 31.5283C31.7887 31.6715 31.7594 31.8343 31.7529 32.0166L31.4746 31.9824C31.4746 31.6471 31.5088 31.3363 31.5771 31.0498C31.6455 30.7633 31.7448 30.5127 31.875 30.2979C32.0052 30.083 32.168 29.917 32.3633 29.7998C32.5618 29.6794 32.7897 29.6191 33.0469 29.6191C33.1185 29.6191 33.195 29.6257 33.2764 29.6387C33.361 29.6484 33.4277 29.6631 33.4766 29.6826Z" fill="#50515C"/>
</svg>
