<svg width="56" height="20" viewBox="0 0 56 20" fill="none" xmlns="http://www.w3.org/2000/svg">
<rect x="0.5" y="0.5" width="55" height="19" rx="1.5" fill="white" fill-opacity="0.8"/>
<path fill-rule="evenodd" clip-rule="evenodd" d="M12 14.4233C12.6753 14.4233 12.9531 14.7755 13.3151 14.8538C13.677 14.9322 13.9809 14.9539 14.2921 14.8212C14.9083 14.5583 15.284 14.2452 15.7398 13.7776C16.5846 12.9109 17 11.7192 17 10.1234C17 8.52761 16.5554 7.70292 15.8704 7.16346C15.1853 6.62403 14.7881 6.52067 13.9597 6.62403C13.1313 6.72736 12.6803 7.58891 12.0023 7.58891C11.3244 7.58891 10.4981 6.7394 9.77931 6.62403C9.06047 6.50862 8.66667 6.62403 8.04435 7.16346C7.42204 7.70292 7 8.54294 7 10.1234C7 11.7039 7.43099 12.8758 8.27575 13.7425C8.73158 14.2102 9.09167 14.5583 9.70792 14.8212C10.0191 14.9539 10.3408 14.9322 10.6901 14.8538C11.0395 14.7755 11.3173 14.4233 12 14.4233Z" stroke="#76A148"/>
<path d="M12 7.41671C12.31 5.19449 13.6271 4.08337 15.9512 4.08337C16.1643 4.55105 16.2193 5.00368 16.1163 5.44127C16.0674 5.64915 15.9156 5.94559 15.6608 6.33056" stroke="#76A148" stroke-linecap="round"/>
<path d="M8.84172 9.91675C8.6083 10.5183 8.6083 11.1378 8.84172 11.775C9.07522 12.4121 9.57237 12.9038 10.3333 13.2501" stroke="#76A148" stroke-linecap="round"/>
<path d="M26.2236 6.17969V14H24.7466V6.17969H26.2236ZM29.3765 9.55811V10.7236H25.8369V9.55811H29.3765ZM29.79 6.17969V7.34521H25.8369V6.17969H29.79ZM31.9653 9.37549V14H30.5474V8.18848H31.8901L31.9653 9.37549ZM33.7324 8.15088L33.7109 9.47217C33.6322 9.45785 33.5426 9.4471 33.4424 9.43994C33.3457 9.43278 33.2544 9.4292 33.1685 9.4292C32.95 9.4292 32.7585 9.45964 32.5938 9.52051C32.429 9.5778 32.2912 9.66195 32.1802 9.77295C32.0728 9.88395 31.9904 10.02 31.9331 10.1812C31.8758 10.3387 31.8436 10.5177 31.8364 10.7183L31.5303 10.6807C31.5303 10.3118 31.5679 9.96989 31.6431 9.65479C31.7183 9.33968 31.8275 9.06396 31.9707 8.82764C32.1139 8.59131 32.293 8.40869 32.5078 8.27979C32.7262 8.1473 32.9769 8.08105 33.2598 8.08105C33.3385 8.08105 33.4227 8.08822 33.5122 8.10254C33.6053 8.11328 33.6787 8.12939 33.7324 8.15088ZM37.0142 14.1074C36.5737 14.1074 36.1781 14.0358 35.8271 13.8926C35.4762 13.7493 35.1772 13.5506 34.9302 13.2964C34.6867 13.0386 34.4987 12.7396 34.3662 12.3994C34.2373 12.0557 34.1729 11.6868 34.1729 11.293V11.0781C34.1729 10.6305 34.2373 10.2241 34.3662 9.85889C34.4951 9.49007 34.6777 9.17318 34.9141 8.9082C35.1504 8.64323 35.4333 8.43913 35.7627 8.2959C36.0921 8.15267 36.4556 8.08105 36.853 8.08105C37.2648 8.08105 37.6283 8.15088 37.9434 8.29053C38.2585 8.4266 38.5216 8.61995 38.7329 8.87061C38.9442 9.12126 39.1035 9.42204 39.2109 9.77295C39.3184 10.1203 39.3721 10.5052 39.3721 10.9277V11.5239H34.8174V10.5464H37.9756V10.439C37.9684 10.2134 37.9255 10.0075 37.8467 9.82129C37.7679 9.63151 37.6462 9.48112 37.4814 9.37012C37.3167 9.25553 37.1037 9.19824 36.8423 9.19824C36.631 9.19824 36.4466 9.24479 36.2891 9.33789C36.1351 9.42741 36.0062 9.55632 35.9023 9.72461C35.8021 9.88932 35.7269 10.0863 35.6768 10.3154C35.6266 10.5446 35.6016 10.7988 35.6016 11.0781V11.293C35.6016 11.5365 35.6338 11.762 35.6982 11.9697C35.7663 12.1774 35.8647 12.3582 35.9937 12.5122C36.1261 12.6626 36.2837 12.7808 36.4663 12.8667C36.6525 12.9491 36.8638 12.9902 37.1001 12.9902C37.3973 12.9902 37.6659 12.9329 37.9058 12.8184C38.1493 12.7002 38.3605 12.5265 38.5396 12.2974L39.2539 13.0386C39.1322 13.2176 38.9674 13.3895 38.7598 13.5542C38.5557 13.7189 38.3086 13.8532 38.0186 13.957C37.7285 14.0573 37.3937 14.1074 37.0142 14.1074ZM43.5186 12.4102C43.5186 12.2884 43.4863 12.1792 43.4219 12.0825C43.3574 11.9858 43.2357 11.8981 43.0566 11.8193C42.8812 11.737 42.6234 11.66 42.2832 11.5884C41.9824 11.5239 41.7049 11.4434 41.4507 11.3467C41.1965 11.25 40.978 11.1336 40.7954 10.9976C40.6128 10.8579 40.4696 10.695 40.3657 10.5088C40.2655 10.319 40.2153 10.1006 40.2153 9.85352C40.2153 9.61361 40.2673 9.38802 40.3711 9.17676C40.4749 8.96191 40.6253 8.77393 40.8223 8.61279C41.0192 8.44808 41.2591 8.31917 41.542 8.22607C41.8249 8.12939 42.1436 8.08105 42.498 8.08105C42.9922 8.08105 43.4165 8.16162 43.771 8.32275C44.1291 8.48389 44.403 8.70589 44.5928 8.98877C44.7826 9.26807 44.8774 9.58317 44.8774 9.93408H43.4595C43.4595 9.78011 43.4237 9.64046 43.3521 9.51514C43.284 9.38981 43.1784 9.28955 43.0352 9.21436C42.8919 9.13558 42.7111 9.09619 42.4927 9.09619C42.2957 9.09619 42.1292 9.12842 41.9932 9.19287C41.8607 9.25732 41.7604 9.34147 41.6924 9.44531C41.6243 9.54915 41.5903 9.66374 41.5903 9.78906C41.5903 9.88216 41.6082 9.96631 41.644 10.0415C41.6834 10.1131 41.7461 10.1794 41.832 10.2402C41.918 10.3011 42.0343 10.3566 42.1812 10.4067C42.3315 10.4569 42.516 10.5052 42.7344 10.5518C43.1676 10.6377 43.5454 10.7523 43.8677 10.8955C44.1935 11.0352 44.4478 11.2214 44.6304 11.4541C44.813 11.6868 44.9043 11.984 44.9043 12.3457C44.9043 12.6035 44.8488 12.8398 44.7378 13.0547C44.6268 13.266 44.4657 13.4504 44.2544 13.6079C44.0431 13.7655 43.7907 13.889 43.4971 13.9785C43.2035 14.0645 42.8722 14.1074 42.5034 14.1074C41.9699 14.1074 41.5187 14.0125 41.1499 13.8228C40.7811 13.6294 40.5018 13.3859 40.312 13.0923C40.1222 12.7951 40.0273 12.4871 40.0273 12.1685H41.3862C41.397 12.394 41.4578 12.5749 41.5688 12.7109C41.6799 12.847 41.8195 12.9455 41.9878 13.0063C42.1597 13.0636 42.3405 13.0923 42.5303 13.0923C42.7451 13.0923 42.9259 13.0636 43.0728 13.0063C43.2196 12.9455 43.3306 12.8649 43.4058 12.7646C43.481 12.6608 43.5186 12.5426 43.5186 12.4102ZM47.375 5.75V14H45.9517V5.75H47.375ZM47.1494 10.8848H46.7305C46.7305 10.4801 46.7842 10.1077 46.8916 9.76758C46.999 9.42741 47.1512 9.132 47.3481 8.88135C47.5451 8.62712 47.7796 8.43018 48.0518 8.29053C48.3275 8.15088 48.6318 8.08105 48.9648 8.08105C49.2513 8.08105 49.5109 8.12223 49.7437 8.20459C49.98 8.28337 50.1823 8.41048 50.3506 8.58594C50.5189 8.76139 50.6478 8.99056 50.7373 9.27344C50.8304 9.55273 50.877 9.8929 50.877 10.2939V14H49.4482V10.2832C49.4482 10.0146 49.4089 9.80339 49.3301 9.64941C49.2513 9.49186 49.1385 9.37907 48.9917 9.31104C48.8485 9.243 48.6712 9.20898 48.46 9.20898C48.2308 9.20898 48.0339 9.25374 47.8691 9.34326C47.7044 9.4292 47.5684 9.54915 47.4609 9.70312C47.3571 9.8571 47.2783 10.0343 47.2246 10.2349C47.1745 10.4354 47.1494 10.652 47.1494 10.8848Z" fill="#76A148"/>
<rect x="0.5" y="0.5" width="55" height="19" rx="1.5" stroke="#76A148"/>
</svg>
