<svg width="156" height="104" viewBox="0 0 156 104" fill="none" xmlns="http://www.w3.org/2000/svg">
<rect x="18.5" y="25" width="119" height="63" rx="20" fill="white"/>
<g opacity="0.6">
<path d="M66.4706 87.8456C62.5477 85.7298 57.1235 84.3899 51.4531 83.8597C56.1707 83.1794 60.8597 82.3189 65.498 81.2751C65.5328 81.2845 65.5676 81.294 65.6118 81.3003C68.3445 81.937 70.7206 83.4626 72.3381 85.6212C73.6328 87.35 75.5248 88.6578 77.9284 89.1303C78.8425 89.3099 79.7786 89.3661 80.7335 89.3211C83.7123 89.2114 86.7885 88.194 89.7256 87.3601C86.2115 82.1134 79.6125 78.8042 72.8164 78.218C78.5245 74.3494 81.606 67.7316 80.8803 61.5214C80.6021 61.6355 80.3334 61.7464 80.052 61.8509C77.0582 63.0201 73.8777 64.0091 71.6405 66.2433C69.8899 68.0092 68.9873 70.3246 68.8531 72.7312C68.7159 75.2865 67.3674 77.6876 65.2436 79.4095C65.1519 79.4823 65.0698 79.5519 64.9876 79.6216C57.7123 81.1354 50.3229 82.1814 42.8888 82.7783C44.0237 82.2304 45.0667 81.5655 45.9642 80.8122C49.5448 77.7706 50.9133 72.5581 50.3248 67.7993C50.3667 73.1309 46.6483 77.9056 42.0996 80.385C39.0682 82.0412 35.7263 82.8627 32.3114 83.308C24.6683 83.4687 16.99 83.1456 9.32089 82.3133C24.7597 78.7884 39.384 72.9526 52.7545 65.1317C52.783 65.1222 52.8178 65.1317 52.8462 65.1221C55.2178 64.9306 57.5362 65.5582 59.3935 66.8881C60.8869 67.9495 62.7436 68.5205 64.8178 68.2913C65.5989 68.199 66.3766 68.0023 67.1385 67.7266C69.5191 66.8679 71.7536 65.2566 73.9124 63.8288C69.7167 60.4862 63.5274 59.5074 57.8868 60.7702C61.5168 56.1727 62.3091 50.0247 60.1235 45.188C59.9339 45.3463 59.7348 45.5077 59.5357 45.6691C57.4182 47.3783 55.092 48.9992 53.8542 51.3845C52.8911 53.2667 52.7504 55.3697 53.2642 57.3489C53.8097 59.4546 53.3402 61.7413 52.0578 63.6776C52.0104 63.7567 51.9535 63.8389 51.9062 63.918C47.0509 66.6475 42.0437 69.1116 36.9003 71.2942C38.5026 69.9048 39.8644 68.3637 40.8687 66.7312C43.9608 61.6914 43.4878 55.0383 40.8434 49.7435C43.0584 55.9304 40.5055 63.0569 36.0281 67.8638C32.6535 71.4903 28.3389 74.0392 23.8153 76.1518C16.7872 78.4055 9.5501 80.1596 2.1671 81.3826L2.14814 81.389C1.36065 81.2726 0.646274 81.6905 0.44121 82.3389C0.419118 82.399 0.406534 82.456 0.393929 82.5129L0.400268 82.5319C0.375057 82.6457 0.359318 82.7564 0.378386 82.8766C0.394232 82.924 0.413249 82.9809 0.429096 83.0283C0.435435 83.0473 0.444943 83.0757 0.451281 83.0947L0.454452 83.1042C0.625599 83.6164 1.12869 84.0176 1.77071 84.1088C13.6209 85.6842 25.4608 86.0612 37.1575 85.3156C44.9337 85.5216 52.7197 86.1988 59.6247 88.5306C67.7792 91.2883 74.5032 96.833 74.5617 103.256C75.4966 97.5027 72.9337 91.2844 66.4927 87.8171L66.4706 87.8456Z" fill="#FCC741"/>
<path d="M148.844 44.6213C144.334 48.5428 136.905 46.6605 136.952 46.6446C136.952 46.6446 136.952 46.5814 136.958 46.4422C137.018 45.1994 137.294 38.8335 141.011 35.5989C145.078 32.1521 154.883 30.5731 155.228 30.4369C155.313 30.4084 153.439 40.7346 148.857 44.6276L148.844 44.6213Z" fill="#FCC741"/>
<path d="M150.042 53.6676C146.96 55.9625 143.733 58.5802 140.177 59.4208C139.952 59.4748 139.724 59.5192 139.497 59.5637C137.053 59.9797 134.81 59.4217 132.991 58.2688C130.049 56.4053 126.276 55.9369 122.691 57.1666L122.453 57.2458C122.659 57.0085 122.871 56.7585 123.073 56.5117C125.284 53.8538 126.151 50.422 125.213 47.4249C124.497 45.1233 124.539 42.6314 125.578 40.3443C127.03 37.1809 130.105 34.9935 132.678 32.5945C132.697 32.6514 132.731 32.6925 132.75 32.7494C135.518 38.2877 134.866 45.5487 130.867 51.1553C137.478 49.2941 144.888 50.0127 150.045 53.6771L150.042 53.6676Z" fill="#FCC741"/>
<path d="M140.173 59.4108C139.949 59.4647 139.721 59.5091 139.494 59.5536C137.049 59.9697 134.807 59.4116 132.988 58.2588C130.045 56.3952 126.272 55.9269 122.687 57.1565L122.45 57.2358C122.656 56.9984 122.867 56.7485 123.07 56.5017C125.281 53.8437 126.148 50.412 125.21 47.4148C124.493 45.1132 124.536 42.6213 125.575 40.3342C127.027 37.1708 130.102 34.9834 132.674 32.5845C132.693 32.6414 132.728 32.6825 132.747 32.7394C131.341 34.1793 130.024 35.695 128.969 37.3971C127.642 39.5484 126.759 42.0473 126.915 44.5042C126.995 45.7217 127.338 46.9041 127.44 48.1247C127.634 50.4741 126.868 52.976 125.307 54.9947C127.558 54.0001 130.11 54.4124 132.189 55.3311C134.267 56.2498 136.042 57.6493 138.092 58.6407C138.744 58.9502 139.446 59.2216 140.173 59.4108Z" fill="#C9940E"/>
<path d="M136.056 64.1608C132.797 66.1459 129.38 68.4475 125.776 68.9562C125.545 68.9911 125.32 69.0134 125.083 69.0294C122.617 69.221 120.444 68.4605 118.738 67.1431C115.982 65.017 112.275 64.2102 108.611 65.1079C108.535 65.1332 108.447 65.1523 108.368 65.1681C108.598 64.9434 108.816 64.7124 109.047 64.4877C111.477 62.0415 112.641 58.7107 111.965 55.647C111.461 53.2851 111.712 50.8184 112.947 48.645C114.662 45.6364 117.898 43.7429 120.661 41.5968C120.68 41.6537 120.696 41.7011 120.715 41.758C122.977 47.518 121.698 54.672 117.246 59.871C123.969 58.6263 131.252 60.0407 136.043 64.1544L136.056 64.1608Z" fill="#FCC741"/>
<path d="M125.779 68.9568C125.548 68.9917 125.324 69.014 125.087 69.03C122.62 69.2216 120.447 68.4611 118.742 67.1437C115.986 65.0176 112.279 64.2108 108.614 65.1085C108.539 65.1339 108.45 65.1529 108.371 65.1688C108.602 64.9441 108.82 64.7131 109.05 64.4884C111.48 62.0421 112.645 58.7114 111.969 55.6476C111.464 53.2858 111.715 50.819 112.95 48.6456C114.665 45.637 117.902 43.7435 120.664 41.5974C120.683 41.6543 120.699 41.7017 120.718 41.7586C119.201 43.0563 117.757 44.4456 116.569 46.034C115.059 48.0463 113.976 50.4536 113.912 52.9108C113.887 54.1314 114.119 55.3298 114.107 56.5567C114.093 58.9126 113.108 61.3294 111.389 63.1901C113.713 62.4136 116.202 63.0473 118.199 64.1621C120.182 65.2706 121.818 66.822 123.77 67.9938C124.39 68.3665 125.061 68.7012 125.77 68.9599L125.779 68.9568Z" fill="#C9940E"/>
<path d="M121.275 73.2942C117.87 74.9696 114.273 76.9519 110.643 77.1317C110.415 77.1445 110.185 77.1479 109.951 77.1417C107.481 77.1025 105.393 76.1553 103.817 74.6892C101.266 72.3257 97.6606 71.19 93.9264 71.7526C93.8474 71.7684 93.7557 71.778 93.6766 71.7939C93.9231 71.585 94.1696 71.3761 94.4098 71.1798C97.0423 68.9611 98.4914 65.7566 98.0938 62.6421C97.8011 60.2516 98.2704 57.8068 99.6856 55.7629C101.657 52.9217 105.03 51.3412 107.963 49.4543C107.982 49.5112 107.998 49.5586 108.007 49.6187C109.748 55.553 107.859 62.5525 102.97 67.3281C109.762 66.7032 116.863 68.7691 121.259 73.31L121.275 73.2942Z" fill="#FCC741"/>
<path d="M110.647 77.1332C110.419 77.146 110.189 77.1494 109.954 77.1432C107.485 77.104 105.397 76.1569 103.821 74.6907C101.27 72.3273 97.6646 71.1916 93.9303 71.7541C93.8513 71.7699 93.7596 71.7795 93.6806 71.7954C93.9271 71.5865 94.1736 71.3776 94.4137 71.1813C97.0463 68.9626 98.4954 65.7581 98.0977 62.6436C97.805 60.2531 98.2744 57.8083 99.6895 55.7644C101.661 52.9232 105.034 51.3427 107.967 49.4558C107.986 49.5127 108.002 49.5601 108.011 49.6202C106.393 50.7725 104.838 52.0196 103.517 53.4942C101.843 55.3612 100.551 57.6485 100.275 60.1026C100.143 61.3171 100.273 62.5281 100.154 63.7488C99.9344 66.0891 98.7471 68.4048 96.8605 70.1107C99.2318 69.5397 101.661 70.4043 103.534 71.6868C105.407 72.9693 106.898 74.6536 108.73 76.0026C109.315 76.429 109.951 76.8175 110.628 77.1396L110.647 77.1332Z" fill="#C9940E"/>
<path d="M105.795 81.0405C102.264 82.3998 98.5112 84.0438 94.8903 83.9042C94.6563 83.8981 94.4286 83.8793 94.2009 83.8605C91.7531 83.603 89.7505 82.4692 88.3073 80.8639C85.9779 78.2789 82.4857 76.8205 78.7259 77.0542L78.4793 77.0734C78.7448 76.8898 79.0102 76.7061 79.2662 76.5257C82.0855 74.5503 83.813 71.4848 83.6936 68.3511C83.6064 65.9446 84.294 63.5534 85.8895 61.6391C88.1043 58.9906 91.6008 57.7167 94.6797 56.108C94.6987 56.1649 94.7051 56.2155 94.7051 56.2787C95.9113 62.3494 93.4151 69.1407 88.1405 73.4548C94.9457 73.437 101.826 76.1356 105.798 81.05L105.795 81.0405Z" fill="#FCC741"/>
<path d="M94.8883 83.9044C94.6543 83.8983 94.4266 83.8795 94.1989 83.8607C91.7511 83.6032 89.7485 82.4694 88.3053 80.8641C85.976 78.2791 82.4837 76.8207 78.7239 77.0544L78.4773 77.0736C78.7428 76.8899 79.0083 76.7063 79.2643 76.5259C82.0835 74.5505 83.811 71.485 83.6917 68.3512C83.6045 65.9448 84.2921 63.5536 85.8876 61.6393C88.1023 58.9908 91.5989 57.7169 94.6777 56.1082C94.6968 56.1651 94.7031 56.2157 94.7031 56.2789C92.9931 57.2826 91.3432 58.3717 89.8991 59.7294C88.0757 61.4352 86.5753 63.6025 86.0838 66.0125C85.8507 67.208 85.8705 68.435 85.6374 69.6305C85.2091 71.9456 83.8225 74.1381 81.7935 75.6702C84.206 75.3174 86.5469 76.3908 88.2967 77.841C90.0434 79.2816 91.3792 81.1021 93.0848 82.6092C93.6228 83.0832 94.2271 83.5349 94.8693 83.9108L94.8883 83.9044Z" fill="#C9940E"/>
<path d="M65.2423 79.4214C67.3661 77.6995 68.7146 75.2983 68.8518 72.7431C68.9765 70.3397 69.876 68.0147 71.6393 66.2552C73.8765 64.0209 77.0665 63.0287 80.0508 61.8628C79.64 62.3374 78.7455 62.8156 78.4484 63.0941C76.7736 64.6449 75.5323 66.6096 74.4459 68.5963C73.1101 71.0671 71.9674 73.6736 70.2678 76.0024C69.8192 76.6162 69.339 77.1984 68.7512 77.7111C67.781 78.5625 66.5482 79.1643 65.2423 79.4214Z" fill="#C9940E"/>
<path d="M80.725 89.323C79.7795 89.3648 78.8339 89.3118 77.9199 89.1322C75.5035 88.6533 73.6242 87.3519 72.3295 85.6231C70.7246 83.4708 68.3359 81.9389 65.6032 81.3021C66.1755 81.1215 67.0484 81.241 67.488 81.326C69.9074 81.7511 71.9197 83.1663 73.7138 84.6544C75.508 86.1425 77.1947 87.7824 79.4154 88.8117C79.8393 89.0074 80.2758 89.1779 80.725 89.323Z" fill="#C9940E"/>
<path d="M137.556 45.2288C137.354 45.6337 137.162 46.0355 136.96 46.4404C137.019 45.1976 137.295 38.8317 141.012 35.5971C145.079 32.1503 154.884 30.5713 155.229 30.435C154.657 30.679 154.1 30.9703 153.557 31.268C152.365 31.8982 151.17 32.5189 149.978 33.1174C146.95 34.6566 143.827 36.1641 141.558 38.6514C139.808 40.5754 138.699 42.9384 137.563 45.2477L137.556 45.2288Z" fill="#C9940E"/>
<path d="M152.6 36.7433C152.82 35.9842 151.865 35.207 151.223 35.9695C149.855 37.5865 149.351 39.5159 148.236 41.2907C146.884 43.4295 144.924 44.1266 143.047 45.5764C143.028 45.5827 143.031 45.6238 143.053 45.6269C146.912 46.7625 151.764 39.8271 152.59 36.7464L152.6 36.7433Z" fill="white"/>
<path d="M132.066 46.8541C132.625 45.7817 133.013 44.7979 133.24 43.6467C133.624 41.7048 133.881 39.0356 132.83 37.4047C132.472 36.8389 131.594 37.238 131.48 37.8136C131.294 38.7403 131.497 39.6635 131.533 40.5901C131.565 41.6336 131.535 42.6772 131.412 43.7303C131.308 44.6822 131.211 45.6531 131.054 46.6019C130.899 47.497 130.388 48.2689 130.455 49.1638C130.458 49.2049 130.509 49.2302 130.55 49.1954C131.352 48.6319 131.63 47.664 132.069 46.832L132.066 46.8541Z" fill="white"/>
<path d="M138.842 51.9995C137.267 51.5453 135.572 51.2051 133.842 51.6143C133.687 51.6555 133.684 51.8358 133.82 51.8641C135.348 52.2077 136.92 52.3994 138.346 53.0087C138.96 53.2675 139.497 52.1919 138.842 51.9995Z" fill="white"/>
<path d="M141.346 52.1746C140.824 51.4951 139.582 52.4479 140.104 53.1274C140.63 53.8163 141.878 52.8509 141.346 52.1746Z" fill="white"/>
<path d="M117.631 57.4863C118.38 56.7616 118.797 55.7683 119.201 54.8636C119.51 54.1803 120.24 53.1141 119.765 52.4504C119.689 52.3492 119.578 52.3335 119.461 52.3937C118.703 52.7737 118.659 53.9058 118.369 54.5828C117.99 55.4685 117.422 56.3228 117.147 57.2369C117.071 57.5152 117.416 57.6952 117.631 57.4863Z" fill="white"/>
<path d="M120.525 50.0101C120.484 49.8868 120.434 49.7667 120.354 49.656C120.016 49.1788 119.225 49.4324 119.197 50.0427C119.188 50.1724 119.22 50.2988 119.242 50.4285C119.302 50.7668 119.726 50.9309 120.049 50.8232C120.371 50.7154 120.64 50.3199 120.513 50.0038L120.525 50.0101Z" fill="white"/>
<path d="M130.847 62.2498C129.721 61.0869 127.488 60.7787 125.837 60.5079C124.031 60.2152 121.88 59.7741 119.996 60.2878C119.775 60.3512 119.718 60.6548 119.917 60.7464C121.468 61.4726 123.45 61.4742 125.177 61.7828C126.983 62.1072 128.495 62.8777 130.241 63.2748C130.88 63.4198 131.183 62.591 130.847 62.2498Z" fill="white"/>
<path d="M105.378 61.4549C106.114 59.8068 106.865 57.7318 106.579 55.9927C106.452 55.2339 105.225 55.1905 104.998 55.9623C104.582 57.4299 104.583 59.011 104.208 60.5071C103.785 62.2087 103.16 63.999 102.026 65.464C101.9 65.6222 102.09 65.8751 102.292 65.7547C103.787 64.8966 104.738 62.9132 105.382 61.4644L105.378 61.4549Z" fill="white"/>
<path d="M117.045 71.7673C116.256 70.1963 113.726 69.7555 112.044 69.295C110.073 68.7621 107.552 67.9702 105.418 68.3039C105.228 68.3356 105.231 68.5665 105.377 68.6233C107.227 69.365 109.334 69.7366 111.276 70.3739C113.044 70.964 114.762 71.8133 116.587 72.2578C116.884 72.3272 117.165 72.0013 117.042 71.7579L117.045 71.7673Z" fill="white"/>
<path d="M89.046 71.1366C89.6085 70.5164 90.2089 69.9784 90.6732 69.2855C91.046 68.7286 91.5483 68.1496 91.5162 67.4855C91.5002 67.2484 91.2061 67.1569 91.0069 67.2867C90.4285 67.6697 90.1856 68.3941 89.8571 68.9572C89.4655 69.6153 89.1846 70.3207 88.755 70.9598C88.6444 71.1338 88.926 71.2822 89.0555 71.1335L89.046 71.1366Z" fill="white"/>
<path d="M92.3034 65.5816C92.5906 64.8319 92.9442 64.1549 93.1397 63.3832C93.3258 62.6462 93.4612 61.884 93.3784 61.1315C93.3656 60.9986 93.1822 60.9861 93.1254 61.1C92.456 62.473 92.337 63.9783 91.8637 65.4017C91.7753 65.6737 92.1929 65.8505 92.3002 65.5721L92.3034 65.5816Z" fill="white"/>
<path d="M98.5307 77.6566C98.6159 77.4383 98.5904 77.2043 98.3879 77.0717C97.4862 76.4557 96.4549 75.862 95.3605 75.5529C94.2788 75.2501 93.0075 75.2637 91.8691 75.2013C91.7204 75.1983 91.67 75.3944 91.825 75.4164C93.8933 75.6425 96.0982 76.7508 97.6739 77.9007C97.8131 78.0018 98.0503 78.0174 98.2241 77.9383C98.398 77.8591 98.477 77.8116 98.5402 77.6534L98.5307 77.6566Z" fill="white"/>
<path d="M100.423 79.221C100.622 79.0279 100.688 78.7211 100.511 78.5378L100.447 78.4747C100.232 78.2408 99.8305 78.2379 99.5619 78.4753C99.3186 78.6937 99.2778 79.108 99.5751 79.2722L99.6511 79.3101C99.8915 79.4301 100.195 79.4235 100.419 79.2115L100.423 79.221Z" fill="white"/>
<path d="M74.0242 75.8948C73.8625 75.3162 72.8634 75.5763 73.0188 76.1675C73.1742 76.7588 74.1796 76.4861 74.0242 75.8948Z" fill="white"/>
<path d="M77.7186 71.3066C78.584 69.9841 79.2691 68.374 79.2584 66.8277C79.255 66.4703 78.7236 66.3632 78.5468 66.6859C77.8173 68.0367 77.8659 69.6337 77.089 71.0003C76.3785 72.25 75.5287 73.4618 74.7169 74.6609C74.6727 74.7178 74.7549 74.7747 74.8087 74.7462C76.1016 74.1349 76.9984 72.4013 77.7059 71.3003L77.7186 71.3066Z" fill="white"/>
<path d="M84.1341 83.649L84.1719 83.4782C84.2129 83.2853 84.1874 83.0513 83.9944 82.9471C81.7893 81.5858 78.6385 79.9817 75.7988 80.0977C75.6534 80.1041 75.5871 80.2844 75.7168 80.3571C77.2005 81.0738 78.8831 81.4393 80.3889 82.1908C81.224 82.6076 82.0023 83.0751 82.7743 83.5868C83.2077 83.8742 83.3818 84.048 83.9635 83.8325C84.0488 83.804 84.1247 83.747 84.1404 83.668L84.1341 83.649Z" fill="white"/>
<path d="M86.0663 85.1144C86.0028 84.7982 85.816 84.46 85.4838 84.318C85.2877 84.2359 85.0222 84.3879 85.0255 84.5871C85.029 85.0077 85.4877 85.3078 85.9652 85.2536C86.0474 85.2473 86.0885 85.1808 86.0789 85.1208L86.0663 85.1144Z" fill="white"/>
<path d="M65.9347 80.788L65.5539 79.0491C92.0969 73.1948 117.159 61.3301 138.687 44.1301C139.054 44.5978 139.431 45.0624 139.795 45.5207C118.048 62.8884 92.7432 74.8766 65.9347 80.788Z" fill="#FCC741"/>
<path d="M110.754 14.0789C108.11 18.41 101.618 18.7975 101.65 18.7659C101.65 18.7659 101.631 18.709 101.596 18.6046C101.33 17.5866 99.9121 12.3667 102.088 8.78223C104.489 4.95408 112.022 1.15054 112.262 0.954295C112.322 0.913141 113.461 9.74769 110.754 14.0789Z" fill="#FCC741"/>
<path d="M114.042 21.085C112.134 23.7365 110.198 26.682 107.534 28.2683C107.366 28.3665 107.189 28.4678 107.018 28.5565C105.147 29.5192 103.186 29.6471 101.418 29.1836C98.5623 28.43 95.3879 29.0269 92.8026 30.9451L92.6351 31.0749C92.7392 30.8187 92.8434 30.5625 92.9412 30.3189C94.046 27.5985 93.8666 24.6008 92.3376 22.4232C91.1632 20.7385 90.5608 18.7151 90.8122 16.5962C91.1705 13.6613 93.1007 11.1079 94.5692 8.49797C94.6009 8.52957 94.6357 8.57065 94.6673 8.60225C98.3321 12.3753 99.6648 18.4142 97.8665 23.9812C102.74 20.771 108.912 19.4572 114.036 21.0977L114.042 21.085Z" fill="#FCC741"/>
<path d="M107.534 28.2679C107.367 28.3661 107.19 28.4674 107.019 28.5561C105.148 29.5188 103.187 29.6467 101.419 29.1832C98.563 28.4296 95.3886 29.0265 92.8032 30.9447L92.6357 31.0745C92.7399 30.8183 92.8441 30.5621 92.9419 30.3185C94.0467 27.5981 93.8673 24.6004 92.3383 22.4228C91.1639 20.7381 90.5615 18.7147 90.8129 16.5958C91.1712 13.661 93.1014 11.1075 94.5699 8.49757C94.6016 8.52917 94.6364 8.57025 94.668 8.60185C93.9007 10.1235 93.222 11.6893 92.8027 13.3372C92.2762 15.4215 92.2051 17.6699 92.9623 19.6205C93.3489 20.5879 93.9219 21.4507 94.3084 22.4181C95.0624 24.2643 95.0894 26.4905 94.3446 28.5213C95.9057 27.135 98.078 26.8203 100.004 27.0308C101.92 27.2444 103.714 27.9103 105.631 28.1871C106.238 28.2689 106.873 28.3095 107.515 28.2742L107.534 28.2679Z" fill="#C9940E"/>
<path d="M105.422 33.1732C103.299 35.6224 101.125 38.3626 98.3337 39.696C98.1536 39.7878 97.9765 39.8575 97.7995 39.9272C95.8584 40.7129 93.9009 40.6607 92.1834 40.0326C89.4093 39.0196 86.1998 39.3225 83.4657 40.9847C83.4056 41.0259 83.3424 41.0575 83.2823 41.0987C83.4118 40.8551 83.5318 40.6147 83.6613 40.3711C85.0033 37.7612 85.0801 34.7728 83.7502 32.4653C82.7338 30.6857 82.3085 28.6242 82.7433 26.5494C83.3641 23.6745 85.4969 21.317 87.1774 18.8681C87.2091 18.8997 87.2439 18.9408 87.2692 18.985C90.5737 23.0682 91.3815 29.1771 89.1118 34.5326C94.2295 31.7997 100.49 31.0677 105.422 33.1732Z" fill="#FCC741"/>
<path d="M98.3327 39.6957C98.1525 39.7876 97.9755 39.8573 97.7984 39.927C95.8574 40.7127 93.8999 40.6604 92.1823 40.0324C89.4082 39.0194 86.1987 39.3222 83.4646 40.9845C83.4046 41.0256 83.3413 41.0573 83.2813 41.0984C83.4108 40.8548 83.5307 40.6144 83.6602 40.3708C85.0022 37.7609 85.079 34.7725 83.7491 32.4651C82.7327 30.6855 82.3074 28.624 82.7423 26.5492C83.3631 23.6742 85.4959 21.3167 87.1763 18.8679C87.208 18.8995 87.2428 18.9405 87.2681 18.9848C86.3775 20.4211 85.5595 21.9175 85.0042 23.5054C84.3068 25.5203 84.0397 27.7499 84.6262 29.7575C84.9274 30.7534 85.4214 31.6638 85.7226 32.6597C86.3185 34.5692 86.1399 36.7798 85.2211 38.7316C86.8962 37.4971 89.0813 37.3784 90.9726 37.7691C92.8608 38.1503 94.5848 38.987 96.4636 39.4347C97.0582 39.5734 97.6907 39.6678 98.3232 39.6989L98.3327 39.6957Z" fill="#C9940E"/>
<path d="M95.8078 44.3555C93.4852 46.5867 91.0806 49.1088 88.1943 50.1893C88.0046 50.2527 87.8244 50.3129 87.6347 50.3763C85.6334 50.9818 83.6885 50.7461 82.0372 49.9694C79.3609 48.7128 76.1575 48.7184 73.2778 50.1341L73.0881 50.2291C73.2334 50.0013 73.3787 49.7735 73.5208 49.5363C75.078 47.0653 75.4268 44.102 74.3118 41.6806C73.4598 39.8249 73.2116 37.7254 73.833 35.7042C74.6974 32.8955 77.0264 30.7465 78.9125 28.4714C78.9379 28.5157 78.9695 28.5473 78.9948 28.5915C81.9264 32.947 82.1998 39.0974 79.4682 44.2065C84.7981 41.951 91.0751 41.804 95.8047 44.3461L95.8078 44.3555Z" fill="#FCC741"/>
<path d="M88.1974 50.1909C88.0077 50.2543 87.8275 50.3145 87.6378 50.3779C85.6365 50.9834 83.6915 50.7477 82.0402 49.971C79.364 48.7144 76.1606 48.72 73.2808 50.1357L73.0912 50.2307C73.2365 50.0029 73.3818 49.7751 73.5239 49.5378C75.0811 47.0669 75.4298 44.1036 74.3149 41.6821C73.4629 39.8265 73.2146 37.727 73.8361 35.7058C74.7004 32.897 77.0294 30.7481 78.9156 28.473C78.9409 28.5173 78.9726 28.5489 78.9979 28.5931C77.9838 29.9442 77.0489 31.3426 76.3606 32.88C75.4893 34.816 75.0292 37.0046 75.4292 39.0535C75.6323 40.0716 76.0536 41.0168 76.2694 42.0412C76.6883 43.9888 76.32 46.1679 75.2462 48.0345C77.0194 46.9674 79.2046 47.0385 81.0581 47.6C82.899 48.1552 84.5473 49.1438 86.3756 49.7559C86.9576 49.9515 87.5775 50.1028 88.2068 50.1877L88.1974 50.1909Z" fill="#C9940E"/>
<path d="M85.273 54.6029C82.7605 56.6129 80.1534 58.9075 77.1878 59.7192C76.9949 59.7731 76.8084 59.8144 76.6218 59.8557C74.5793 60.2746 72.6627 59.8713 71.0872 58.9427C68.5436 57.4521 65.34 57.173 62.3588 58.3168L62.1596 58.3834C62.3334 58.1777 62.4945 57.9657 62.6619 57.7411C64.4374 55.4186 65.0424 52.4962 64.1424 49.9924C63.4547 48.0607 63.3963 45.961 64.1948 43.9966C65.3028 41.2857 67.809 39.3517 69.8851 37.2662C69.9009 37.3136 69.9357 37.3547 69.9484 37.3927C72.488 41.995 72.208 48.1301 69.0399 52.9739C74.5441 51.2084 80.7994 51.6274 85.2794 54.5903L85.273 54.6029Z" fill="#FCC741"/>
<path d="M77.19 59.7201C76.9972 59.774 76.8106 59.8153 76.6241 59.8565C74.5815 60.2755 72.6649 59.8721 71.0894 58.9436C68.5458 57.4529 65.3422 57.1739 62.361 58.3177L62.1618 58.3842C62.3356 58.1786 62.4967 57.9666 62.6642 57.7419C64.4396 55.4195 65.0446 52.4971 64.1446 49.9932C63.457 48.0616 63.3985 45.9619 64.1971 43.9975C65.305 41.2866 67.8112 39.3526 69.8873 37.2671C69.9031 37.3145 69.9379 37.3556 69.9506 37.3935C68.829 38.6435 67.7706 39.9566 66.9526 41.4214C65.9136 43.2657 65.2607 45.4134 65.4899 47.4877C65.6013 48.5154 65.931 49.5017 66.0645 50.5325C66.3127 52.5056 65.7546 54.6532 64.5068 56.4092C66.375 55.5003 68.5319 55.7706 70.3254 56.4997C72.1158 57.2194 73.6535 58.3503 75.4218 59.1301C75.9881 59.3732 76.5859 59.5846 77.2026 59.7264L77.19 59.7201Z" fill="#C9940E"/>
<path d="M52.0318 63.7065C53.3111 61.7607 53.7837 59.4835 53.2382 57.3778C52.7245 55.3986 52.8525 53.2893 53.8283 51.4133C55.0661 49.028 57.3923 47.4072 59.5098 45.698C59.2951 46.1915 58.6979 46.8022 58.5242 47.1028C57.5673 48.7827 57.0659 50.6899 56.6973 52.5844C56.2469 54.928 55.9957 57.3315 55.2227 59.6563C55.0144 60.2637 54.7714 60.8615 54.4334 61.4278C53.8713 62.3643 53.0212 63.165 52.035 63.7159L52.0318 63.7065Z" fill="#C9940E"/>
<path d="M67.1129 67.7326C66.351 68.0083 65.5827 68.2017 64.7922 68.2972C62.7211 68.5359 60.8517 67.9586 59.3678 66.8941C57.5106 65.5641 55.1922 64.9366 52.8206 65.1281C53.241 64.84 53.9682 64.713 54.354 64.6684C56.4251 64.3981 58.4146 65.0195 60.2429 65.7581C62.0713 66.4968 63.8681 67.3935 65.9175 67.6576C66.3128 67.7047 66.7113 67.7297 67.1129 67.7326Z" fill="#C9940E"/>
<path d="M101.774 17.4683C101.72 17.8447 101.657 18.2242 101.604 18.6005C101.337 17.5825 99.9199 12.3626 102.096 8.77814C104.496 4.94998 112.029 1.14644 112.27 0.950195C111.878 1.29202 111.498 1.67178 111.129 2.04836C110.326 2.86483 109.52 3.67182 108.708 4.45983C106.651 6.47575 104.515 8.50753 103.315 11.1015C102.393 13.1071 102.104 15.3019 101.77 17.4588L101.774 17.4683Z" fill="#C9940E"/>
<path d="M111.755 6.74018C111.742 6.06979 110.771 5.68788 110.442 6.47237C109.751 8.12676 109.844 9.82483 109.396 11.5454C108.857 13.6235 107.451 14.6839 106.298 16.3449C106.282 16.3608 106.301 16.3861 106.31 16.3829C109.722 16.3076 111.871 9.45333 111.749 6.75283L111.755 6.74018Z" fill="white"/>
<path d="M97.75 20.194C97.9295 19.1851 97.9889 18.2902 97.8775 17.2941C97.6897 15.6277 97.2105 13.405 95.9511 12.3498C95.5145 11.9896 94.9046 12.5308 94.965 13.0272C95.0542 13.8304 95.4626 14.5163 95.713 15.2656C96.014 16.1033 96.2455 16.9538 96.4264 17.8423C96.5883 18.6422 96.7629 19.4485 96.8773 20.2642C96.9854 21.0294 96.7646 21.7886 97.0529 22.4935C97.0656 22.5315 97.1099 22.5378 97.1383 22.4966C97.6437 21.8322 97.621 20.9752 97.7595 20.1909L97.75 20.194Z" fill="white"/>
<path d="M104.55 22.6148C103.149 22.6506 101.698 22.8193 100.405 23.5887C100.291 23.6584 100.329 23.8038 100.453 23.7942C101.774 23.6794 103.096 23.4381 104.411 23.5573C104.978 23.6106 105.135 22.5986 104.559 22.6116L104.55 22.6148Z" fill="white"/>
<path d="M106.619 22.1089C106.017 21.6983 105.262 22.7835 105.854 23.1973C106.449 23.6206 107.22 22.5196 106.619 22.1089Z" fill="white"/>
<path d="M88.7916 32.5077C89.2053 31.7264 89.2932 30.8219 89.3811 29.9806C89.4565 29.3545 89.7688 28.3012 89.2182 27.8842C89.1328 27.8178 89.0348 27.84 88.9558 27.9192C88.4375 28.4192 88.6944 29.3455 88.6316 29.978C88.5563 30.794 88.3166 31.6227 88.3267 32.4417C88.3332 32.682 88.659 32.7419 88.7821 32.5109L88.7916 32.5077Z" fill="white"/>
<path d="M89.218 25.7123C89.1483 25.6301 89.0755 25.5384 88.9901 25.4721C88.5946 25.172 88.0162 25.5867 88.1494 26.0799C88.1843 26.1842 88.2381 26.2822 88.2919 26.3802C88.4313 26.6394 88.8076 26.6612 89.0478 26.4966C89.2785 26.3352 89.3984 25.9366 89.218 25.7123Z" fill="white"/>
<path d="M100.719 32.9617C99.5107 32.3112 97.6262 32.6351 96.2191 32.8417C94.6824 33.0706 92.8295 33.268 91.4419 34.164C91.2776 34.2716 91.3126 34.5341 91.4897 34.5592C92.9223 34.7447 94.5347 34.2376 96.0113 34.0499C97.5575 33.8495 98.9744 34.0824 100.492 33.9548C101.046 33.907 101.08 33.1575 100.722 32.9712L100.719 32.9617Z" fill="white"/>
<path d="M79.9108 38.8633C80.0773 37.3422 80.1581 35.47 79.4804 34.1361C79.1827 33.5607 78.1773 33.8335 78.1936 34.5133C78.2262 35.8098 78.6414 37.0839 78.7215 38.3962C78.8174 39.8824 78.7744 41.4889 78.2347 42.9661C78.1748 43.1337 78.3931 43.2822 78.5258 43.1429C79.5148 42.0639 79.7727 40.2169 79.9235 38.8697L79.9108 38.8633Z" fill="white"/>
<path d="M91.9915 44.206C90.9471 43.1316 88.7907 43.4305 87.3139 43.4917C85.5874 43.5626 83.3453 43.5737 81.6984 44.3877C81.5435 44.4605 81.6164 44.647 81.746 44.6564C83.4348 44.788 85.2276 44.5368 86.9669 44.5671C88.5449 44.5881 90.1578 44.8399 91.7547 44.728C92.014 44.7151 92.1529 44.3735 91.9915 44.206Z" fill="white"/>
<path d="M69.1831 50.8797C69.4736 50.2344 69.8242 49.6428 70.0292 48.9627C70.1932 48.4124 70.4489 47.8209 70.2493 47.2866C70.1827 47.0874 69.914 47.1034 69.7876 47.2616C69.4148 47.7236 69.4089 48.3687 69.286 48.9159C69.1379 49.5453 69.0909 50.1936 68.8985 50.8167C68.848 50.9812 69.1169 51.0284 69.1926 50.8766L69.1831 50.8797Z" fill="white"/>
<path d="M70.3771 45.557C70.4145 44.8802 70.5279 44.2414 70.4894 43.5583C70.4541 42.9164 70.3619 42.2619 70.1117 41.6708C70.0768 41.5664 69.9124 41.6108 69.903 41.7089C69.7079 42.9866 69.9997 44.2386 69.9849 45.5193C69.9819 45.7628 70.3646 45.8037 70.3834 45.5443L70.3771 45.557Z" fill="white"/>
<path d="M78.5285 53.7268C78.5442 53.5212 78.4555 53.3505 78.2562 53.2906C77.3674 53.0288 76.387 52.8082 75.4162 52.8374C74.4675 52.8697 73.4305 53.2057 72.501 53.453C72.3777 53.4942 72.3905 53.6587 72.5201 53.6364C74.2496 53.2905 76.318 53.6115 77.8869 54.1415C78.0197 54.192 78.2252 54.1445 78.3358 54.0337C78.4559 53.9198 78.5128 53.8691 78.5159 53.7205L78.5285 53.7268Z" fill="white"/>
<path d="M80.4527 54.5141C80.5632 54.3085 80.5377 54.0429 80.3447 53.9387L80.2814 53.9071C80.0473 53.7744 79.7217 53.8727 79.5701 54.1448C79.428 54.3821 79.5041 54.7362 79.7825 54.7802L79.8615 54.796C80.0861 54.8369 80.3327 54.7545 80.4558 54.5236L80.4527 54.5141Z" fill="white"/>
<path d="M58.2506 58.5965C57.9688 58.1635 57.2324 58.6416 57.5142 59.0746C57.7959 59.5076 58.5324 59.0295 58.2506 58.5965Z" fill="white"/>
<path d="M60.0587 53.9384C60.4183 52.6479 60.5658 51.1647 60.1506 49.9222C60.0523 49.6282 59.597 49.6855 59.5403 49.9891C59.2946 51.2732 59.7415 52.5472 59.4705 53.8503C59.2152 55.0426 58.8461 56.2414 58.4929 57.4244C58.4803 57.4813 58.5498 57.5002 58.5909 57.4654C59.4757 56.6426 59.7623 55.0075 60.0556 53.9289L60.0587 53.9384Z" fill="white"/>
<path d="M68.4191 62.2821L68.4 62.1303C68.3872 61.9659 68.3049 61.7825 68.1214 61.7384C65.9833 61.2087 63.0262 60.7208 60.7563 61.532C60.633 61.5732 60.6363 61.7408 60.7565 61.7534C62.1417 61.9548 63.5931 61.8177 65.0068 62.0411C65.788 62.1702 66.5407 62.3404 67.2904 62.5644C67.711 62.6874 67.9008 62.7821 68.3085 62.4561C68.3686 62.4149 68.4191 62.3453 68.4064 62.2758L68.4191 62.2821Z" fill="white"/>
<path d="M70.3616 62.9733C70.2286 62.733 69.985 62.5087 69.6782 62.4741C69.4916 62.4521 69.3242 62.6452 69.378 62.8064C69.4921 63.1478 69.9444 63.2708 70.3016 63.1093C70.368 63.0871 70.387 63.0175 70.3616 62.9733Z" fill="white"/>
<path d="M52.968 64.6376C52.7179 64.2045 52.4645 63.762 52.2144 63.329C72.1913 51.7717 89.4169 35.7355 102.425 16.2904C102.845 16.5715 103.266 16.8526 103.687 17.1337C90.5529 36.7687 73.1504 52.9694 52.9807 64.6439L52.968 64.6376Z" fill="#FCC741"/>
</g>
<path d="M37.38 44.872H46.128C48.504 44.872 50.328 45.472 51.6 46.672C52.896 47.848 53.544 49.456 53.544 51.496C53.544 52.936 53.184 54.088 52.464 54.952C51.768 55.816 50.772 56.44 49.476 56.824V57.004C50.988 57.364 52.176 58.024 53.04 58.984C53.928 59.92 54.372 61.252 54.372 62.98C54.372 64.036 54.192 64.996 53.832 65.86C53.496 66.7 53.004 67.432 52.356 68.056C51.732 68.68 50.964 69.16 50.052 69.496C49.164 69.832 48.156 70 47.028 70H37.38V44.872ZM45.588 66.58C46.908 66.58 47.892 66.34 48.54 65.86C49.212 65.356 49.548 64.504 49.548 63.304V62.116C49.548 60.94 49.212 60.112 48.54 59.632C47.892 59.128 46.908 58.876 45.588 58.876H41.988V66.58H45.588ZM44.976 55.6C46.248 55.6 47.184 55.372 47.784 54.916C48.408 54.46 48.72 53.668 48.72 52.54V51.352C48.72 50.224 48.408 49.432 47.784 48.976C47.184 48.52 46.248 48.292 44.976 48.292H41.988V55.6H44.976ZM67.3179 70.432C65.8299 70.432 64.5099 70.204 63.3579 69.748C62.2059 69.292 61.2339 68.644 60.4419 67.804C59.6739 66.964 59.0859 65.956 58.6779 64.78C58.2699 63.58 58.0659 62.236 58.0659 60.748C58.0659 59.236 58.2699 57.88 58.6779 56.68C59.1099 55.48 59.7099 54.46 60.4779 53.62C61.2459 52.78 62.1699 52.132 63.2499 51.676C64.3539 51.22 65.5899 50.992 66.9579 50.992C68.3019 50.992 69.5139 51.22 70.5939 51.676C71.6739 52.108 72.5859 52.732 73.3299 53.548C74.0979 54.364 74.6859 55.348 75.0939 56.5C75.5019 57.652 75.7059 58.924 75.7059 60.316V61.828H62.6739V62.296C62.6739 63.64 63.0939 64.732 63.9339 65.572C64.7739 66.388 65.9499 66.796 67.4619 66.796C68.6139 66.796 69.5979 66.568 70.4139 66.112C71.2539 65.632 71.9499 65.008 72.5019 64.24L75.1299 66.868C74.4579 67.852 73.4739 68.692 72.1779 69.388C70.9059 70.084 69.2859 70.432 67.3179 70.432ZM66.9939 54.376C65.6979 54.376 64.6539 54.784 63.8619 55.6C63.0699 56.416 62.6739 57.496 62.6739 58.84V59.092H71.0979V58.768C71.0979 57.424 70.7259 56.356 69.9819 55.564C69.2619 54.772 68.2659 54.376 66.9939 54.376ZM88.9039 70.432C87.4159 70.432 86.0959 70.204 84.9439 69.748C83.7919 69.292 82.8199 68.644 82.0279 67.804C81.2599 66.964 80.6719 65.956 80.2639 64.78C79.8559 63.58 79.6519 62.236 79.6519 60.748C79.6519 59.236 79.8559 57.88 80.2639 56.68C80.6959 55.48 81.2959 54.46 82.0639 53.62C82.8319 52.78 83.7559 52.132 84.8359 51.676C85.9399 51.22 87.1759 50.992 88.5439 50.992C89.8879 50.992 91.0999 51.22 92.1799 51.676C93.2599 52.108 94.1719 52.732 94.9159 53.548C95.6839 54.364 96.2719 55.348 96.6799 56.5C97.0879 57.652 97.2919 58.924 97.2919 60.316V61.828H84.2599V62.296C84.2599 63.64 84.6799 64.732 85.5199 65.572C86.3599 66.388 87.5359 66.796 89.0479 66.796C90.1999 66.796 91.1839 66.568 91.9999 66.112C92.8399 65.632 93.5359 65.008 94.0879 64.24L96.7159 66.868C96.0439 67.852 95.0599 68.692 93.7639 69.388C92.4919 70.084 90.8719 70.432 88.9039 70.432ZM88.5799 54.376C87.2839 54.376 86.2399 54.784 85.4479 55.6C84.6559 56.416 84.2599 57.496 84.2599 58.84V59.092H92.6839V58.768C92.6839 57.424 92.3119 56.356 91.5679 55.564C90.8479 54.772 89.8519 54.376 88.5799 54.376ZM101.958 66.364H106.566V55.06H101.958V51.424H111.174V56.5H111.462C111.63 55.852 111.858 55.228 112.146 54.628C112.458 54.004 112.842 53.464 113.298 53.008C113.778 52.528 114.354 52.144 115.026 51.856C115.698 51.568 116.502 51.424 117.438 51.424H119.454V55.744H115.638C114.246 55.744 113.154 56.152 112.362 56.968C111.57 57.784 111.174 58.828 111.174 60.1V66.364H117.618V70H101.958V66.364Z" fill="#57100B"/>
</svg>
