<svg width="67" height="13" viewBox="0 0 67 13" fill="none" xmlns="http://www.w3.org/2000/svg">
<g clip-path="url(#clip0_2846_643508)">
<path d="M30.7309 0.0018405C31.7864 -0.00424915 32.6882 0.145455 33.5462 0.519461C34.9775 1.14314 36.03 2.16113 36.6449 3.61402C37.3548 5.2907 37.3729 7.00139 36.764 8.70192C36.2058 10.2609 35.1433 11.3778 33.6382 12.0477C32.5912 12.5135 31.4855 12.6516 30.3516 12.5826C29.1499 12.5095 28.0321 12.1654 27.0505 11.4489C25.7991 10.5359 24.9968 9.32408 24.6471 7.78949C24.4657 6.99479 24.4165 6.19857 24.528 5.40945C24.6828 4.31433 25.0535 3.28569 25.7398 2.39609C26.3029 1.66584 26.9852 1.0858 27.8121 0.682359C28.7736 0.213963 29.7859 -0.0235331 30.7309 0.0018405ZM27.4288 5.92657C27.4197 7.06635 27.5996 7.78086 28.005 8.42992C28.5295 9.26928 29.2866 9.74934 30.2476 9.94574C31.5488 10.2122 33.0067 9.58289 33.6829 8.43601C34.1823 7.58904 34.3249 6.67052 34.2104 5.70683C34.135 5.07046 33.927 4.47469 33.5407 3.95758C32.7786 2.93858 31.7337 2.57218 30.5084 2.65338C29.9718 2.6889 29.4709 2.85637 29.0188 3.15273C27.891 3.89313 27.4639 4.99739 27.4288 5.92657Z" fill="white"/>
<path d="M55.6053 6.42424C55.6053 8.25874 55.6053 10.0938 55.6053 11.9283C55.6053 11.9958 55.6038 12.0638 55.6053 12.1313C55.6074 12.2495 55.5727 12.353 55.4647 12.4083C55.3476 12.4687 55.2527 12.3931 55.1708 12.3251C54.9643 12.1541 54.7649 11.9744 54.5624 11.7978C53.6049 10.9615 52.6473 10.1257 51.6903 9.28891C50.8694 8.57135 50.0495 7.85226 49.2281 7.13419C48.8679 6.81956 48.5042 6.50848 48.1455 6.19181C48.0641 6.12026 47.9812 6.06342 47.8757 6.10808C47.7718 6.15223 47.7471 6.25779 47.7361 6.36029C47.729 6.42728 47.7336 6.49528 47.7336 6.56328C47.7336 8.22018 47.7336 9.87758 47.7336 11.5345C47.7336 12.3256 47.3402 12.5966 46.5977 12.3099C46.3867 12.2282 46.1938 12.1094 46.0325 11.943C45.7572 11.6598 45.4724 11.3868 45.2021 11.0986C44.9233 10.8007 44.7695 10.4454 44.7695 10.0283C44.7695 6.82412 44.7695 3.61944 44.7695 0.41527C44.7695 0.278253 44.769 0.127534 44.9137 0.0656227C45.0569 0.00421869 45.1669 0.105713 45.2699 0.196043C46.6826 1.43478 48.0953 2.67352 49.5095 3.91124C50.3856 4.67803 51.2633 5.44228 52.1409 6.20704C52.1917 6.25119 52.2439 6.29483 52.3007 6.32934C52.4851 6.44149 52.6237 6.37095 52.6514 6.15122C52.6609 6.07611 52.6564 5.99948 52.6564 5.92336C52.6564 4.24921 52.6564 2.57507 52.6564 0.901428C52.6564 0.293985 52.8357 0.112818 53.4346 0.112818C53.9369 0.112818 54.4388 0.11028 54.9412 0.113832C55.3733 0.116877 55.6038 0.352344 55.6043 0.792829C55.6059 2.66996 55.6048 4.54659 55.6053 6.42373V6.42424Z" fill="white"/>
<path d="M14.1773 5.40869C14.1773 3.87815 14.1773 2.34762 14.1773 0.817089C14.1773 0.35732 14.4149 0.114241 14.8691 0.114241C16.2335 0.113226 17.598 0.124898 18.9625 0.109674C19.4819 0.104092 19.9979 0.177168 20.4887 0.289826C21.5065 0.523263 22.4163 0.988106 22.9795 1.94926C23.2563 2.42171 23.3879 2.93172 23.4171 3.48131C23.4512 4.12783 23.3909 4.74999 23.1242 5.34627C22.6665 6.36933 21.8964 7.05137 20.882 7.47257C20.1732 7.76691 19.4317 7.84658 18.6721 7.81765C18.3626 7.80598 18.0526 7.81258 17.7432 7.81664C17.3639 7.82171 17.1328 8.05261 17.1318 8.43271C17.1288 9.47302 17.1303 10.5128 17.1308 11.5531C17.1308 12.3301 16.7033 12.6062 15.9793 12.3037C15.6352 12.1601 15.3875 11.8987 15.1393 11.6364C14.8259 11.305 14.4667 11.0112 14.2893 10.5676C14.213 10.3763 14.1753 10.182 14.1758 9.97542C14.1783 8.45352 14.1768 6.9311 14.1773 5.40919V5.40869ZM17.1313 3.90505C17.1313 4.22628 17.1273 4.54751 17.1323 4.86874C17.1378 5.21128 17.3558 5.44269 17.698 5.44827C18.1245 5.45487 18.552 5.45791 18.9775 5.43152C19.8125 5.38027 20.3214 4.96262 20.4776 4.23085C20.655 3.40164 20.3239 2.76476 19.5668 2.5024C18.9167 2.27708 18.243 2.34762 17.5774 2.37858C17.3177 2.39076 17.1383 2.65464 17.1328 2.94187C17.1268 3.2631 17.1313 3.58433 17.1313 3.90505Z" fill="white"/>
<path d="M61.9481 0.113732C63.3457 0.113732 64.7438 0.112717 66.1414 0.113732C66.6282 0.113732 66.8538 0.348691 66.8548 0.847536C66.8553 1.13476 66.8583 1.4225 66.8543 1.70973C66.8488 2.10911 66.6056 2.3532 66.2088 2.35472C65.514 2.35726 64.8192 2.35472 64.1244 2.35574C63.611 2.35574 63.409 2.55721 63.409 3.07686C63.408 5.75732 63.4105 8.43727 63.406 11.1177C63.406 11.3786 63.4417 11.6399 63.3964 11.9008C63.3442 12.2037 63.1553 12.3813 62.8554 12.3971C62.4399 12.4189 62.0782 12.2788 61.7788 11.9972C61.4668 11.7039 61.1608 11.4014 60.8725 11.0842C60.5967 10.7813 60.4756 10.4129 60.4761 9.99521C60.4806 7.70398 60.4781 5.41275 60.4781 3.12151C60.4781 2.53437 60.2993 2.35625 59.711 2.35625C59.0328 2.35625 58.3551 2.35777 57.6769 2.35625C57.2699 2.35523 57.0278 2.10759 57.0248 1.69248C57.0228 1.39662 57.0233 1.10076 57.0248 0.804908C57.0268 0.357826 57.2619 0.11627 57.7045 0.115762C59.1192 0.113732 60.5334 0.115255 61.9481 0.115255V0.113732Z" fill="white"/>
<path d="M0.00151449 5.41681C0.00151449 3.88627 0.00151449 2.35523 0.00151449 0.824702C0.00201687 0.338544 0.223064 0.115765 0.706353 0.114242C1.22531 0.113227 1.74427 0.11272 2.26373 0.114242C2.72893 0.115765 2.93089 0.320783 2.93089 0.796283C2.93189 3.57012 2.93089 6.34396 2.93089 9.11779C2.93089 9.72575 3.1439 9.94244 3.74324 9.94244C5.26695 9.94244 6.79067 9.94244 8.31438 9.94244C8.83334 9.94244 9.03932 10.1525 9.04082 10.6818C9.04183 11.0371 9.04484 11.3923 9.03982 11.7475C9.03429 12.1301 8.77155 12.3966 8.39778 12.3971C6.37168 12.3986 4.34559 12.3981 2.31999 12.3981C1.89649 12.3981 1.54432 12.2362 1.24792 11.9322C0.938452 11.6146 0.597839 11.3263 0.324544 10.9741C0.100986 10.6854 -0.000997409 10.3525 7.34973e-06 9.98303C0.00302163 8.46062 0.00151449 6.93871 0.00151449 5.4163V5.41681Z" fill="white"/>
<path d="M41.9876 6.22138C41.9876 7.9889 41.9886 9.75592 41.9861 11.5234C41.9861 11.6574 41.9716 11.7924 41.9495 11.9243C41.9022 12.2029 41.7143 12.3643 41.4305 12.3821C41.1291 12.4009 40.8412 12.3374 40.5925 12.1684C40.0977 11.833 39.6963 11.3915 39.329 10.9246C39.105 10.6399 39.0352 10.2893 39.0352 9.92338C39.0377 6.89581 39.0367 3.86875 39.0372 0.841173C39.0372 0.313911 39.2457 0.102296 39.7631 0.101788C40.2484 0.101281 40.7342 0.101788 41.2195 0.101788C41.7405 0.101788 41.9866 0.347404 41.9866 0.868577C41.9866 2.65285 41.9866 4.43711 41.9866 6.22138H41.9876Z" fill="white"/>
<path d="M10.3834 11.1728C10.3834 11.1307 10.3788 11.0881 10.3839 11.0465C10.4115 10.8176 10.2738 10.5233 10.4748 10.3715C10.7431 10.1696 11.0586 10.0138 11.3987 9.94576C11.5625 9.91278 11.7132 9.98433 11.8533 10.0579C12.6637 10.4817 12.5341 10.2335 12.5456 11.1261C12.5476 11.3032 12.5361 11.4814 12.5486 11.6575C12.5607 11.8259 12.5109 11.9569 12.3723 12.0477C11.9131 12.3476 11.4399 12.5471 10.8993 12.2502C10.8044 12.1979 10.7069 12.1472 10.6054 12.1111C10.4457 12.0548 10.3889 11.9345 10.3849 11.7803C10.3799 11.5778 10.3839 11.3753 10.3834 11.1728Z" fill="white"/>
</g>
<defs>
<clipPath id="clip0_2846_643508">
<rect width="66.8571" height="12.6" fill="white"/>
</clipPath>
</defs>
</svg>
