<svg width="314" height="88" viewBox="0 0 314 88" fill="none" xmlns="http://www.w3.org/2000/svg">
<g clip-path="url(#clip0_1538_462169)">
<path d="M70.3083 9.01428C69.329 6.12678 66.8024 3.60022 63.554 2.36289H63.5024C62.7288 2.05352 61.9043 1.7957 61.0792 1.53806L57.6241 0.455078L56.2318 5.66289C55.4588 9.11741 56.3866 12.3143 58.1403 14.8408C61.388 16.1299 64.2759 17.9863 66.7509 20.3065L68.9677 17.316C70.8245 14.8408 71.2884 11.7988 70.3083 9.01428Z" fill="#FF9F40"/>
<path d="M80.7247 15.0476C79.9518 14.0679 79.1782 13.0882 78.353 12.2116L76.6001 10.4585L72.7845 14.0163C70.4122 16.4396 69.2779 19.8429 69.536 23.2976C71.598 25.8241 73.2483 28.7632 74.2794 31.8571L77.4253 30.6193C80.2098 29.5366 82.2718 27.2163 82.9421 24.2255C83.6641 21.1319 82.839 17.6774 80.7247 15.0476Z" fill="#FF9F40"/>
<path d="M87.7371 28.8145L82.426 29.8457C79.435 30.516 76.8569 32.4754 75.207 35.0535C75.6709 37.0129 75.8773 39.0752 75.8773 41.1379C75.8773 42.7879 75.7225 44.4379 75.4128 45.9848L77.3213 46.3457C77.9909 46.5002 78.6619 46.5518 79.3317 46.5518C81.3433 46.5518 83.3537 45.8299 85.0041 44.3863C87.6338 42.1691 88.9228 38.7143 88.6133 34.9502L87.7371 28.8145Z" fill="#FF9F40"/>
<path d="M82.1174 48.3566C79.5908 47.4802 77.116 47.5834 74.8991 48.3054C73.816 52.5849 71.7533 56.4004 68.9688 59.5973C70.5675 61.2473 72.7849 62.1754 75.1566 62.1754C75.5689 62.1754 76.0333 62.1242 76.4972 62.0724C79.9005 61.5566 82.7884 59.391 84.5406 56.0398C84.9535 55.3179 85.3148 54.4927 85.6238 53.7195L87.1187 50.3162L82.1174 48.3566Z" fill="#FF9F40"/>
<path d="M33.6488 5.55977L32.2564 0.455078L28.8015 1.53806C27.9764 1.79587 27.1519 2.05352 26.3783 2.36289H26.3267C23.0783 3.60039 20.5517 6.12678 19.6239 8.96306C18.5923 11.799 19.0562 14.841 20.913 17.3162L23.1298 20.3066C25.6047 17.9865 28.4925 16.1301 31.7404 14.841C33.4939 12.3145 34.4217 9.06602 33.6488 5.55977Z" fill="#FFBE40"/>
<path d="M16.9946 13.913L13.2818 10.4585L11.5288 12.2118C10.7037 13.0882 9.93005 14.068 9.15713 15.0477C7.04289 17.6774 6.21772 21.1321 6.9396 24.2772C7.60991 27.2163 9.6719 29.5368 12.4564 30.6193L15.6023 31.8571C16.6849 28.7116 18.2837 25.7724 20.3972 23.1943C20.6038 19.7913 19.4179 16.3884 16.9946 13.913Z" fill="#FFBE40"/>
<path d="M14.674 35.0537C13.0243 32.4756 10.3945 30.5162 7.35192 29.7941L2.14411 28.8145L1.26789 34.9504C0.958174 38.7143 2.24724 42.1693 4.8771 44.3865C6.579 45.8301 8.58942 46.6037 10.5495 46.6037C11.1675 46.6037 11.787 46.5004 12.405 46.3459L14.4167 45.9849C14.1587 44.4381 14.0038 42.7881 14.0038 41.1381C14.0037 39.0754 14.2101 37.0132 14.674 35.0537Z" fill="#FFBE40"/>
<path d="M14.9815 48.3569C12.7647 47.6352 10.2381 47.532 7.65998 48.4084L2.76172 50.3162L4.25686 53.7195C4.56589 54.4928 4.92717 55.318 5.34002 56.0398C7.09228 59.3914 9.98013 61.5569 13.3834 62.0727C13.8473 62.1242 14.3119 62.1756 14.7758 62.1756C17.0959 62.1756 19.2617 61.2992 20.8088 59.7008L20.9121 59.5975C18.1273 56.4006 16.0648 52.585 14.9815 48.3569Z" fill="#FFBE40"/>
<path d="M47.5195 66.8839V61.7276H50.0977C62.8925 61.7226 73.3008 51.3295 73.3008 38.5597C73.3008 27.5675 65.4959 18.0052 54.7403 15.8224L52.2126 15.3088L53.2399 10.2559L55.7676 10.767C68.9149 13.4381 78.457 25.1253 78.457 38.5597C78.457 54.172 65.7376 66.8789 50.0977 66.8839H47.5195Z" fill="#FFBE40"/>
<path d="M42.3633 66.884H39.7852C24.1452 66.879 11.4258 54.1722 11.4258 38.5599C11.4258 25.1255 20.9679 13.4383 34.1153 10.767L36.6431 10.2559L37.6704 15.3088L35.1426 15.8224C24.3869 18.0054 16.582 27.5676 16.582 38.5599C16.582 51.3297 26.9903 61.7228 39.7852 61.7278H42.3633V66.884Z" fill="#FFDF40"/>
<path d="M23.0273 87.5444H0.941406L7.81984 77.2319L0.941406 66.9194H26.4765L23.0273 87.5444Z" fill="#E64C2E"/>
<path d="M88.9414 87.5444H66.8554C66.0428 82.8014 66.9711 88.5722 63.4062 66.9194H88.9414L82.0629 77.2319L88.9414 87.5444Z" fill="#D92121"/>
<path d="M71.1821 82.3882H18.7031L22.1423 61.7632H67.7429L71.1821 82.3882Z" fill="#FF7733"/>
<path d="M44.9414 82.3882H71.1809L67.7417 61.7632H44.9414V82.3882Z" fill="#E64C2E"/>
<path d="M26.8945 28.2474C26.8945 29.6699 25.7364 30.8255 24.3164 30.8255H21.7383V35.9818H24.3164C25.2246 35.9818 26.0838 35.7958 26.8945 35.5069V51.4505H32.0508C32.0508 49.0979 32.0508 25.1397 32.0508 25.6693H26.8945V28.2474Z" fill="#66538C"/>
<path d="M44.9414 26.1333C44.1169 25.8239 43.2911 25.6694 42.3633 25.6694C38.0833 25.6694 34.6289 29.1239 34.6289 33.4038V43.7163C34.6289 47.9958 38.0833 51.4507 42.3633 51.4507C43.2911 51.4507 44.1169 51.2958 44.9414 50.9864C47.9324 49.9552 50.0977 47.0677 50.0977 43.7163V33.4038C50.0977 30.0521 47.9324 27.1647 44.9414 26.1333ZM44.9414 43.7163C44.9414 45.1599 43.8072 46.2944 42.3633 46.2944C40.9194 46.2944 39.7852 45.1599 39.7852 43.7163V33.4038C39.7852 31.9599 40.9194 30.8257 42.3633 30.8257C43.8072 30.8257 44.9414 31.9599 44.9414 33.4038V43.7163Z" fill="#66538C"/>
<path d="M50.0977 33.4038V43.7163C50.0977 47.0677 47.9324 49.9552 44.9414 50.9864V26.1333C47.9324 27.1647 50.0977 30.0521 50.0977 33.4038Z" fill="#443D66"/>
<path d="M60.4102 25.6694C56.1453 25.6694 52.6758 29.1389 52.6758 33.4038V43.7163C52.6758 47.9812 56.1453 51.4507 60.4102 51.4507C64.6751 51.4507 68.1445 47.9812 68.1445 43.7163V33.4038C68.1445 29.1389 64.6751 25.6694 60.4102 25.6694ZM62.9883 43.7163C62.9883 45.1387 61.8302 46.2944 60.4102 46.2944C58.9901 46.2944 57.832 45.1387 57.832 43.7163V33.4038C57.832 31.9814 58.9901 30.8257 60.4102 30.8257C61.8302 30.8257 62.9883 31.9814 62.9883 33.4038V43.7163Z" fill="#443D66"/>
</g>
<path d="M110.404 45.9756H104.195L104.162 42.5557H109.375C110.294 42.5557 111.046 42.4395 111.633 42.207C112.219 41.9635 112.657 41.6149 112.944 41.1611C113.243 40.6963 113.393 40.1318 113.393 39.4678C113.393 38.7152 113.249 38.1064 112.961 37.6416C112.684 37.1768 112.247 36.8392 111.649 36.6289C111.063 36.4186 110.305 36.3135 109.375 36.3135H105.922V56.584H100.941V32.4121H109.375C110.781 32.4121 112.037 32.5449 113.144 32.8105C114.261 33.0762 115.208 33.4801 115.982 34.0225C116.757 34.5648 117.349 35.251 117.759 36.0811C118.168 36.9001 118.373 37.874 118.373 39.0029C118.373 39.999 118.146 40.9176 117.692 41.7588C117.25 42.5999 116.547 43.2861 115.584 43.8174C114.632 44.3486 113.387 44.6419 111.849 44.6973L110.404 45.9756ZM110.188 56.584H102.834L104.776 52.6992H110.188C111.063 52.6992 111.777 52.5609 112.33 52.2842C112.883 51.9964 113.293 51.609 113.559 51.1221C113.824 50.6351 113.957 50.0762 113.957 49.4453C113.957 48.737 113.835 48.1227 113.592 47.6025C113.359 47.0824 112.983 46.6839 112.463 46.4072C111.943 46.1195 111.257 45.9756 110.404 45.9756H105.606L105.64 42.5557H111.616L112.762 43.9004C114.234 43.8783 115.418 44.1383 116.314 44.6807C117.222 45.2119 117.881 45.9036 118.29 46.7559C118.711 47.6081 118.921 48.5212 118.921 49.4951C118.921 51.0446 118.583 52.3506 117.908 53.4131C117.233 54.4645 116.243 55.2559 114.937 55.7871C113.642 56.3184 112.059 56.584 110.188 56.584Z" fill="#141416"/>
<path d="M130.625 56.916C129.23 56.916 127.98 56.6947 126.873 56.252C125.766 55.7982 124.826 55.1729 124.051 54.376C123.287 53.5791 122.701 52.6549 122.291 51.6035C121.882 50.541 121.677 49.4121 121.677 48.2168V47.5527C121.677 46.1914 121.87 44.9463 122.258 43.8174C122.645 42.6885 123.199 41.709 123.918 40.8789C124.648 40.0488 125.534 39.4124 126.574 38.9697C127.615 38.516 128.788 38.2891 130.094 38.2891C131.367 38.2891 132.495 38.4993 133.48 38.9199C134.465 39.3405 135.29 39.9382 135.954 40.7129C136.629 41.4876 137.138 42.4173 137.481 43.502C137.825 44.5755 137.996 45.7708 137.996 47.0879V49.0801H123.719V45.8926H133.298V45.5273C133.298 44.8633 133.176 44.2712 132.933 43.751C132.7 43.2197 132.346 42.7992 131.87 42.4893C131.394 42.1794 130.785 42.0244 130.044 42.0244C129.413 42.0244 128.871 42.1628 128.417 42.4395C127.963 42.7161 127.592 43.1035 127.305 43.6016C127.028 44.0996 126.818 44.6862 126.674 45.3613C126.541 46.0254 126.475 46.7559 126.475 47.5527V48.2168C126.475 48.9362 126.574 49.6003 126.773 50.209C126.984 50.8177 127.277 51.3434 127.653 51.7861C128.041 52.2288 128.506 52.5719 129.048 52.8154C129.601 53.0589 130.227 53.1807 130.924 53.1807C131.787 53.1807 132.59 53.0146 133.331 52.6826C134.084 52.3395 134.731 51.8249 135.273 51.1387L137.598 53.6621C137.221 54.2044 136.707 54.7246 136.054 55.2227C135.412 55.7207 134.637 56.1302 133.729 56.4512C132.822 56.7611 131.787 56.916 130.625 56.916Z" fill="#141416"/>
<path d="M150.431 51.6201C150.431 51.277 150.331 50.9671 150.132 50.6904C149.933 50.4137 149.562 50.1592 149.02 49.9268C148.488 49.6833 147.719 49.4619 146.712 49.2627C145.804 49.0635 144.958 48.8145 144.172 48.5156C143.397 48.2057 142.722 47.835 142.146 47.4033C141.582 46.9717 141.139 46.4626 140.818 45.876C140.497 45.2783 140.337 44.5977 140.337 43.834C140.337 43.0814 140.497 42.373 140.818 41.709C141.15 41.0449 141.621 40.4583 142.229 39.9492C142.849 39.429 143.602 39.0251 144.487 38.7373C145.384 38.4385 146.391 38.2891 147.509 38.2891C149.069 38.2891 150.409 38.5381 151.526 39.0361C152.655 39.5342 153.519 40.2204 154.116 41.0947C154.725 41.958 155.029 42.943 155.029 44.0498H150.248C150.248 43.585 150.148 43.1699 149.949 42.8047C149.761 42.4284 149.462 42.1351 149.053 41.9248C148.654 41.7035 148.134 41.5928 147.492 41.5928C146.961 41.5928 146.502 41.6868 146.114 41.875C145.727 42.0521 145.428 42.2956 145.218 42.6055C145.019 42.9043 144.919 43.2363 144.919 43.6016C144.919 43.8783 144.974 44.1273 145.085 44.3486C145.207 44.5589 145.4 44.7526 145.666 44.9297C145.932 45.1068 146.275 45.2728 146.695 45.4277C147.127 45.5716 147.658 45.7044 148.289 45.8262C149.584 46.0918 150.741 46.4404 151.759 46.8721C152.777 47.2926 153.585 47.8682 154.183 48.5986C154.78 49.318 155.079 50.2643 155.079 51.4375C155.079 52.2344 154.902 52.9648 154.548 53.6289C154.194 54.293 153.685 54.874 153.021 55.3721C152.356 55.859 151.56 56.2409 150.63 56.5176C149.711 56.7832 148.676 56.916 147.525 56.916C145.854 56.916 144.438 56.6172 143.275 56.0195C142.124 55.4219 141.25 54.6637 140.652 53.7451C140.066 52.8154 139.772 51.8636 139.772 50.8896H144.305C144.327 51.5426 144.493 52.0684 144.803 52.4668C145.124 52.8652 145.528 53.153 146.015 53.3301C146.513 53.5072 147.049 53.5957 147.625 53.5957C148.245 53.5957 148.759 53.5127 149.169 53.3467C149.578 53.1696 149.888 52.9372 150.099 52.6494C150.32 52.3506 150.431 52.0075 150.431 51.6201Z" fill="#141416"/>
<path d="M166.982 38.6211V42.0078H156.523V38.6211H166.982ZM159.113 34.1885H163.895V51.1719C163.895 51.6921 163.961 52.0905 164.094 52.3672C164.238 52.6439 164.448 52.8376 164.725 52.9482C165.001 53.0479 165.35 53.0977 165.771 53.0977C166.069 53.0977 166.335 53.0866 166.567 53.0645C166.811 53.0312 167.016 52.998 167.182 52.9648L167.198 56.4844C166.789 56.6172 166.346 56.7223 165.87 56.7998C165.394 56.8773 164.868 56.916 164.293 56.916C163.242 56.916 162.323 56.7445 161.537 56.4014C160.762 56.0472 160.165 55.4827 159.744 54.708C159.324 53.9333 159.113 52.915 159.113 51.6533V34.1885Z" fill="#141416"/>
<path d="M187.884 47.9678H181.725V44.083H187.884C188.836 44.083 189.61 43.9281 190.208 43.6182C190.806 43.2972 191.243 42.8545 191.52 42.29C191.796 41.7256 191.935 41.0892 191.935 40.3809C191.935 39.6615 191.796 38.9919 191.52 38.3721C191.243 37.7523 190.806 37.2542 190.208 36.8779C189.61 36.5016 188.836 36.3135 187.884 36.3135H183.451V56.584H178.471V32.4121H187.884C189.776 32.4121 191.398 32.7552 192.748 33.4414C194.109 34.1165 195.15 35.0518 195.869 36.2471C196.589 37.4424 196.948 38.8092 196.948 40.3477C196.948 41.9082 196.589 43.2585 195.869 44.3984C195.15 45.5384 194.109 46.4183 192.748 47.0381C191.398 47.6579 189.776 47.9678 187.884 47.9678Z" fill="#141416"/>
<path d="M204.867 42.5391V56.584H200.086V38.6211H204.585L204.867 42.5391ZM210.279 38.5049L210.196 42.9375C209.964 42.9043 209.682 42.8766 209.35 42.8545C209.029 42.8213 208.735 42.8047 208.47 42.8047C207.795 42.8047 207.208 42.8932 206.71 43.0703C206.223 43.2363 205.813 43.4854 205.481 43.8174C205.16 44.1494 204.917 44.5534 204.751 45.0293C204.596 45.5052 204.507 46.0475 204.485 46.6562L203.522 46.3574C203.522 45.1953 203.639 44.1273 203.871 43.1533C204.104 42.1683 204.441 41.3105 204.884 40.5801C205.338 39.8496 205.891 39.2852 206.544 38.8867C207.197 38.4883 207.944 38.2891 208.785 38.2891C209.051 38.2891 209.322 38.3112 209.599 38.3555C209.875 38.3887 210.102 38.4385 210.279 38.5049Z" fill="#141416"/>
<path d="M211.275 47.7852V47.4365C211.275 46.1195 211.464 44.9076 211.84 43.8008C212.216 42.6829 212.764 41.7145 213.483 40.8955C214.203 40.0765 215.088 39.4401 216.14 38.9863C217.191 38.5215 218.397 38.2891 219.759 38.2891C221.12 38.2891 222.332 38.5215 223.395 38.9863C224.457 39.4401 225.348 40.0765 226.067 40.8955C226.798 41.7145 227.351 42.6829 227.728 43.8008C228.104 44.9076 228.292 46.1195 228.292 47.4365V47.7852C228.292 49.0911 228.104 50.3031 227.728 51.4209C227.351 52.5277 226.798 53.4961 226.067 54.3262C225.348 55.1452 224.463 55.7816 223.411 56.2354C222.36 56.6891 221.153 56.916 219.792 56.916C218.431 56.916 217.219 56.6891 216.156 56.2354C215.105 55.7816 214.214 55.1452 213.483 54.3262C212.764 53.4961 212.216 52.5277 211.84 51.4209C211.464 50.3031 211.275 49.0911 211.275 47.7852ZM216.057 47.4365V47.7852C216.057 48.5378 216.123 49.2406 216.256 49.8936C216.389 50.5465 216.599 51.1221 216.887 51.6201C217.186 52.1071 217.573 52.4889 218.049 52.7656C218.525 53.0423 219.106 53.1807 219.792 53.1807C220.456 53.1807 221.026 53.0423 221.502 52.7656C221.978 52.4889 222.36 52.1071 222.647 51.6201C222.935 51.1221 223.146 50.5465 223.278 49.8936C223.422 49.2406 223.494 48.5378 223.494 47.7852V47.4365C223.494 46.7061 223.422 46.0199 223.278 45.3779C223.146 44.7249 222.93 44.1494 222.631 43.6514C222.343 43.1423 221.961 42.7438 221.485 42.4561C221.009 42.1683 220.434 42.0244 219.759 42.0244C219.084 42.0244 218.508 42.1683 218.032 42.4561C217.567 42.7438 217.186 43.1423 216.887 43.6514C216.599 44.1494 216.389 44.7249 216.256 45.3779C216.123 46.0199 216.057 46.7061 216.057 47.4365Z" fill="#141416"/>
<path d="M241.839 52.666V31.084H246.653V56.584H242.32L241.839 52.666ZM230.483 47.8184V47.4697C230.483 46.0973 230.638 44.8522 230.948 43.7344C231.258 42.6055 231.712 41.637 232.31 40.8291C232.907 40.0212 233.643 39.3958 234.518 38.9531C235.392 38.5104 236.388 38.2891 237.506 38.2891C238.557 38.2891 239.476 38.5104 240.262 38.9531C241.059 39.3958 241.734 40.0267 242.287 40.8457C242.852 41.6536 243.305 42.611 243.648 43.7178C243.992 44.8135 244.241 46.0143 244.396 47.3203V48.084C244.241 49.3346 243.992 50.4967 243.648 51.5703C243.305 52.6439 242.852 53.5846 242.287 54.3926C241.734 55.1895 241.059 55.8092 240.262 56.252C239.465 56.6947 238.535 56.916 237.473 56.916C236.355 56.916 235.359 56.6891 234.484 56.2354C233.621 55.7816 232.891 55.1452 232.293 54.3262C231.706 53.5072 231.258 52.5443 230.948 51.4375C230.638 50.3307 230.483 49.1243 230.483 47.8184ZM235.265 47.4697V47.8184C235.265 48.5599 235.32 49.2516 235.431 49.8936C235.552 50.5355 235.746 51.1055 236.012 51.6035C236.288 52.0905 236.643 52.4723 237.074 52.749C237.517 53.0146 238.054 53.1475 238.685 53.1475C239.504 53.1475 240.179 52.9648 240.71 52.5996C241.241 52.2233 241.645 51.7087 241.922 51.0557C242.21 50.4027 242.376 49.6501 242.42 48.7979V46.623C242.387 45.9258 242.287 45.3005 242.121 44.7471C241.966 44.1826 241.734 43.7012 241.424 43.3027C241.125 42.9043 240.749 42.5944 240.295 42.373C239.852 42.1517 239.326 42.041 238.718 42.041C238.098 42.041 237.567 42.1849 237.124 42.4727C236.681 42.7493 236.322 43.1312 236.045 43.6182C235.779 44.1051 235.58 44.6807 235.447 45.3447C235.326 45.9977 235.265 46.7061 235.265 47.4697Z" fill="#141416"/>
<path d="M261.014 52.2842V38.6211H265.795V56.584H261.296L261.014 52.2842ZM261.545 48.5986L262.956 48.5654C262.956 49.7607 262.818 50.873 262.541 51.9023C262.264 52.9206 261.849 53.806 261.296 54.5586C260.743 55.3001 260.045 55.8812 259.204 56.3018C258.363 56.7113 257.372 56.916 256.232 56.916C255.358 56.916 254.55 56.7943 253.809 56.5508C253.078 56.2962 252.447 55.9033 251.916 55.3721C251.396 54.8298 250.986 54.138 250.688 53.2969C250.4 52.4447 250.256 51.4209 250.256 50.2256V38.6211H255.037V50.2588C255.037 50.79 255.098 51.2383 255.22 51.6035C255.353 51.9688 255.535 52.2676 255.768 52.5C256 52.7324 256.271 52.8984 256.581 52.998C256.902 53.0977 257.256 53.1475 257.644 53.1475C258.629 53.1475 259.403 52.9482 259.968 52.5498C260.543 52.1514 260.947 51.609 261.18 50.9229C261.423 50.2256 261.545 49.4508 261.545 48.5986Z" fill="#141416"/>
<path d="M276.868 53.1807C277.455 53.1807 277.975 53.07 278.429 52.8486C278.882 52.6162 279.237 52.2952 279.491 51.8857C279.757 51.4652 279.895 50.9727 279.906 50.4082H284.405C284.394 51.6699 284.057 52.7933 283.393 53.7783C282.729 54.7523 281.838 55.5215 280.72 56.0859C279.602 56.6393 278.351 56.916 276.968 56.916C275.573 56.916 274.356 56.6836 273.315 56.2188C272.286 55.7539 271.428 55.112 270.742 54.293C270.056 53.4629 269.541 52.5 269.198 51.4043C268.855 50.2975 268.684 49.1133 268.684 47.8516V47.3701C268.684 46.0973 268.855 44.9131 269.198 43.8174C269.541 42.7106 270.056 41.7477 270.742 40.9287C271.428 40.0986 272.286 39.4512 273.315 38.9863C274.345 38.5215 275.551 38.2891 276.935 38.2891C278.407 38.2891 279.696 38.5713 280.803 39.1357C281.921 39.7002 282.795 40.5081 283.426 41.5596C284.068 42.5999 284.394 43.834 284.405 45.2617H279.906C279.895 44.6641 279.768 44.1217 279.524 43.6348C279.292 43.1478 278.949 42.7604 278.495 42.4727C278.052 42.1738 277.505 42.0244 276.852 42.0244C276.154 42.0244 275.584 42.1738 275.142 42.4727C274.699 42.7604 274.356 43.1589 274.112 43.668C273.869 44.166 273.697 44.736 273.598 45.3779C273.509 46.0088 273.465 46.6729 273.465 47.3701V47.8516C273.465 48.5488 273.509 49.2184 273.598 49.8604C273.686 50.5023 273.852 51.0723 274.096 51.5703C274.35 52.0684 274.699 52.4613 275.142 52.749C275.584 53.0368 276.16 53.1807 276.868 53.1807Z" fill="#141416"/>
<path d="M295.977 38.6211V42.0078H285.518V38.6211H295.977ZM288.107 34.1885H292.889V51.1719C292.889 51.6921 292.955 52.0905 293.088 52.3672C293.232 52.6439 293.442 52.8376 293.719 52.9482C293.995 53.0479 294.344 53.0977 294.765 53.0977C295.063 53.0977 295.329 53.0866 295.562 53.0645C295.805 53.0312 296.01 52.998 296.176 52.9648L296.192 56.4844C295.783 56.6172 295.34 56.7223 294.864 56.7998C294.388 56.8773 293.863 56.916 293.287 56.916C292.236 56.916 291.317 56.7445 290.531 56.4014C289.757 56.0472 289.159 55.4827 288.738 54.708C288.318 53.9333 288.107 52.915 288.107 51.6533V34.1885Z" fill="#141416"/>
<path d="M308.411 51.6201C308.411 51.277 308.312 50.9671 308.112 50.6904C307.913 50.4137 307.542 50.1592 307 49.9268C306.469 49.6833 305.7 49.4619 304.692 49.2627C303.785 49.0635 302.938 48.8145 302.152 48.5156C301.378 48.2057 300.702 47.835 300.127 47.4033C299.562 46.9717 299.12 46.4626 298.799 45.876C298.478 45.2783 298.317 44.5977 298.317 43.834C298.317 43.0814 298.478 42.373 298.799 41.709C299.131 41.0449 299.601 40.4583 300.21 39.9492C300.83 39.429 301.582 39.0251 302.468 38.7373C303.364 38.4385 304.371 38.2891 305.489 38.2891C307.05 38.2891 308.389 38.5381 309.507 39.0361C310.636 39.5342 311.499 40.2204 312.097 41.0947C312.705 41.958 313.01 42.943 313.01 44.0498H308.229C308.229 43.585 308.129 43.1699 307.93 42.8047C307.742 42.4284 307.443 42.1351 307.033 41.9248C306.635 41.7035 306.115 41.5928 305.473 41.5928C304.941 41.5928 304.482 41.6868 304.095 41.875C303.707 42.0521 303.409 42.2956 303.198 42.6055C302.999 42.9043 302.899 43.2363 302.899 43.6016C302.899 43.8783 302.955 44.1273 303.065 44.3486C303.187 44.5589 303.381 44.7526 303.646 44.9297C303.912 45.1068 304.255 45.2728 304.676 45.4277C305.107 45.5716 305.639 45.7044 306.27 45.8262C307.564 46.0918 308.721 46.4404 309.739 46.8721C310.757 47.2926 311.565 47.8682 312.163 48.5986C312.761 49.318 313.06 50.2643 313.06 51.4375C313.06 52.2344 312.882 52.9648 312.528 53.6289C312.174 54.293 311.665 54.874 311.001 55.3721C310.337 55.859 309.54 56.2409 308.61 56.5176C307.692 56.7832 306.657 56.916 305.506 56.916C303.835 56.916 302.418 56.6172 301.256 56.0195C300.105 55.4219 299.23 54.6637 298.633 53.7451C298.046 52.8154 297.753 51.8636 297.753 50.8896H302.285C302.307 51.5426 302.473 52.0684 302.783 52.4668C303.104 52.8652 303.508 53.153 303.995 53.3301C304.493 53.5072 305.03 53.5957 305.605 53.5957C306.225 53.5957 306.74 53.5127 307.149 53.3467C307.559 53.1696 307.869 52.9372 308.079 52.6494C308.3 52.3506 308.411 52.0075 308.411 51.6201Z" fill="#141416"/>
<defs>
<clipPath id="clip0_1538_462169">
<rect width="88" height="88" fill="white" transform="translate(0.941406)"/>
</clipPath>
</defs>
</svg>
