<svg width="164" height="60" viewBox="0 0 164 60" fill="none" xmlns="http://www.w3.org/2000/svg">
<g clip-path="url(#clip0_1018_384490)">
<path d="M8.84695 31.3448H3.3702L3.34021 28.2322H7.93854C8.74825 28.2322 9.413 28.1263 9.93031 27.9149C10.4476 27.6932 10.8325 27.3759 11.0861 26.9629C11.3498 26.5399 11.4822 26.0261 11.4822 25.4217C11.4822 24.7367 11.3548 24.1827 11.1011 23.7596C10.8575 23.3366 10.4714 23.0293 9.94405 22.838C9.42674 22.6465 8.75824 22.5508 7.93854 22.5508H4.89215V41H0.5V19H7.93854C9.17809 19 10.2864 19.1208 11.2623 19.3626C12.2482 19.6043 13.0829 19.9721 13.7664 20.4656C14.4499 20.9592 14.9722 21.5838 15.3333 22.3392C15.6945 23.0847 15.8756 23.9712 15.8756 24.9986C15.8756 25.9053 15.6745 26.7413 15.2746 27.5069C14.8847 28.2724 14.2637 28.897 13.4153 29.3805C12.5756 29.864 11.4772 30.1309 10.1202 30.1814L8.84695 31.3448ZM8.65577 41H2.16939L3.88252 37.4643H8.65577C9.42674 37.4643 10.0565 37.3384 10.5451 37.0865C11.0337 36.8246 11.3948 36.4721 11.6284 36.0288C11.8633 35.5856 11.9796 35.0769 11.9796 34.5027C11.9796 33.858 11.8721 33.2989 11.6584 32.8256C11.4522 32.3521 11.1211 31.9894 10.6625 31.7376C10.2027 31.4758 9.59792 31.3448 8.84695 31.3448H4.61475L4.64348 28.2322H9.91532L10.9262 29.4561C12.2245 29.4358 13.2691 29.6726 14.0588 30.1663C14.8598 30.6498 15.4408 31.2793 15.8019 32.0549C16.173 32.8306 16.358 33.6616 16.358 34.5481C16.358 35.9583 16.0606 37.147 15.4645 38.114C14.8698 39.071 13.9963 39.7912 12.8442 40.2747C11.7022 40.7582 10.3052 41 8.65577 41ZM19.653 19H27.6039C29.2345 19 30.6353 19.2518 31.8073 19.7554C32.9881 20.2592 33.8953 21.0046 34.5301 21.9917C35.1649 22.9789 35.4822 24.1927 35.4822 25.6332C35.4822 26.8118 35.2873 27.8241 34.8962 28.6703C34.5151 29.5064 33.974 30.2065 33.2705 30.7706C32.5783 31.3246 31.7623 31.7678 30.8252 32.1003L29.4344 32.8558H22.5232L22.4932 29.3201H27.6339C28.4048 29.3201 29.0446 29.179 29.5519 28.897C30.0592 28.6149 30.4403 28.222 30.694 27.7184C30.9576 27.2148 31.0888 26.6305 31.0888 25.9656C31.0888 25.2606 30.9626 24.6511 30.709 24.1374C30.4541 23.6236 30.0692 23.2307 29.5519 22.9588C29.0346 22.6868 28.3848 22.5508 27.6039 22.5508H24.0464V41H19.653V19ZM31.5724 41L26.7104 31.1936L31.3525 31.1635L36.2732 40.7884V41H31.5724ZM47.5328 22.7624L41.735 41H37.0642L44.985 19H47.9577L47.5328 22.7624ZM52.3511 41L46.5382 22.7624L46.0696 19H49.071L57.0369 41H52.3511ZM52.0874 32.8104V36.3612H40.8265V32.8104H52.0874ZM76.3661 19V41H71.9727L63.4071 26.2527V41H59.0137V19H63.4071L71.9877 33.7623V19H76.3661ZM86.7336 41H82.0915L82.1202 37.4643H86.7336C87.8844 37.4643 88.8565 37.1974 89.6475 36.6634C90.4372 36.1194 91.0332 35.3288 91.4331 34.2912C91.8429 33.2537 92.0479 31.9995 92.0479 30.5288V29.4561C92.0479 28.3279 91.9317 27.3356 91.6967 26.4794C91.4731 25.6231 91.1357 24.9029 90.6871 24.3187C90.2373 23.7345 89.6862 23.2962 89.0315 23.0042C88.378 22.7019 87.6257 22.5508 86.7773 22.5508H82.0028V19H86.7773C88.2018 19 89.505 19.2518 90.6871 19.7554C91.8779 20.249 92.9075 20.9592 93.776 21.886C94.6457 22.8127 95.3142 23.9208 95.7828 25.2102C96.2613 26.4895 96.5 27.9149 96.5 29.4862V30.5288C96.5 32.0901 96.2613 33.5156 95.7828 34.8049C95.3142 36.0943 94.6457 37.2024 93.776 38.1291C92.9175 39.0458 91.8879 39.756 90.6871 40.2596C89.495 40.7532 88.178 41 86.7336 41ZM84.5806 19V41H80.1872V19H84.5806Z" fill="#141416"/>
<mask id="mask0_1018_384490" style="mask-type:luminance" maskUnits="userSpaceOnUse" x="110" y="17" width="26" height="26">
<path d="M135.008 17.1091H110.008V42.1091H135.008V17.1091Z" fill="white"/>
</mask>
<g mask="url(#mask0_1018_384490)">
<path d="M122.509 31.1259C123.778 31.1259 124.811 30.0935 124.811 28.8245V19.4105C124.811 18.1416 123.778 17.1091 122.509 17.1091C121.24 17.1091 120.207 18.1416 120.207 19.4105V28.8245C120.207 30.0936 121.24 31.1259 122.509 31.1259Z" fill="#DA291C"/>
<path d="M130.255 23.4673C130.25 23.4608 130.244 23.4546 130.238 23.4491C129.804 23.0145 129.226 22.7751 128.611 22.7751C127.996 22.7751 127.418 23.0144 126.983 23.4491C126.548 23.8837 126.309 24.4617 126.309 25.0765C126.31 25.6813 126.541 26.2506 126.963 26.6828C126.969 26.69 126.977 26.6972 126.983 26.7041C128.178 27.8993 128.836 29.4884 128.836 31.1788C128.836 34.6681 125.998 37.5069 122.508 37.5069C119.019 37.5069 116.181 34.6681 116.181 31.1788C116.181 29.4883 116.839 27.8992 118.034 26.7041C118.931 25.8069 118.931 24.3469 118.034 23.4492C117.598 23.0147 117.021 22.7754 116.406 22.7754C115.791 22.7754 115.213 23.0147 114.779 23.4494C112.714 25.514 111.578 28.2591 111.578 31.1788C111.578 34.0986 112.714 36.8435 114.779 38.9082C116.844 40.9728 119.589 42.1098 122.508 42.1098C125.428 42.1098 128.173 40.9728 130.238 38.9082C132.303 36.8436 133.439 34.0986 133.439 31.1788C133.439 28.2677 132.309 25.5297 130.255 23.4673Z" fill="#DA291C"/>
<path d="M124.809 28.8245V19.4105C124.809 18.1416 123.777 17.1091 122.508 17.1091V31.1259C123.777 31.1259 124.809 30.0936 124.809 28.8245Z" fill="#AC1B10"/>
<path d="M130.255 23.4673C130.249 23.4608 130.242 23.4546 130.237 23.4491C129.802 23.0145 129.224 22.7751 128.609 22.7751C127.995 22.7751 127.417 23.0144 126.983 23.4491C126.548 23.8837 126.309 24.4617 126.309 25.0765C126.309 25.6813 126.541 26.2506 126.962 26.6828C126.969 26.69 126.975 26.6972 126.983 26.7041C128.178 27.8993 128.836 29.4884 128.836 31.1788C128.836 34.6681 125.997 37.5069 122.508 37.5069V42.1098C125.428 42.1098 128.173 40.9728 130.237 38.9082C132.302 36.8436 133.439 34.0986 133.439 31.1788C133.439 28.2677 132.308 25.5297 130.255 23.4673Z" fill="#AC1B10"/>
</g>
<path d="M156.5 19V41H151.183L140.817 26.2527V41H135.5V19H140.817L151.201 33.7623V19H156.5Z" fill="#DA291C"/>
<path d="M151.001 0C152.934 0 154.5 1.56627 154.5 3.5C154.5 5.43373 152.934 7 151.001 7C149.067 7 147.5 5.43373 147.5 3.5C147.5 1.56627 149.067 0 151.001 0Z" fill="url(#paint0_linear_1018_384490)"/>
<path d="M118 59C119.381 59 120.5 57.8807 120.5 56.5C120.5 55.1193 119.381 54 118 54C116.619 54 115.5 55.1193 115.5 56.5C115.5 57.8807 116.619 59 118 59Z" fill="#29CC6A"/>
<path d="M162.5 12C163.053 12 163.5 11.5523 163.5 11C163.5 10.4478 163.053 10 162.5 10C161.948 10 161.5 10.4478 161.5 11C161.5 11.5523 161.948 12 162.5 12Z" fill="#29CC6A"/>
<path d="M161.5 53C162.052 53 162.5 52.5523 162.5 52C162.5 51.4477 162.052 51 161.5 51C160.947 51 160.5 51.4477 160.5 52C160.5 52.5523 160.947 53 161.5 53Z" fill="url(#paint1_linear_1018_384490)"/>
<path d="M141.5 60C142.052 60 142.5 59.5523 142.5 59C142.5 58.4477 142.052 58 141.5 58C140.947 58 140.5 58.4477 140.5 59C140.5 59.5523 140.947 60 141.5 60Z" fill="url(#paint2_linear_1018_384490)"/>
<path d="M138.5 2C139.053 2 139.5 1.55231 139.5 1.00004C139.5 0.447773 139.053 0 138.5 0C137.947 0 137.5 0.447773 137.5 1.00004C137.5 1.55231 137.947 2 138.5 2Z" fill="url(#paint3_linear_1018_384490)"/>
<path d="M109.5 6C110.052 6 110.5 5.55223 110.5 4.99996C110.5 4.44769 110.052 4 109.5 4C108.947 4 108.5 4.44769 108.5 4.99996C108.5 5.55223 108.947 6 109.5 6Z" fill="url(#paint4_linear_1018_384490)"/>
<path d="M104.5 14C105.053 14 105.5 13.5523 105.5 13C105.5 12.4477 105.053 12 104.5 12C103.948 12 103.5 12.4477 103.5 13C103.5 13.5523 103.948 14 104.5 14Z" fill="#29CC6A"/>
<path d="M101.5 50C102.053 50 102.5 49.5523 102.5 49C102.5 48.4477 102.053 48 101.5 48C100.947 48 100.5 48.4477 100.5 49C100.5 49.5523 100.947 50 101.5 50Z" fill="url(#paint5_linear_1018_384490)"/>
</g>
<defs>
<linearGradient id="paint0_linear_1018_384490" x1="147.5" y1="0" x2="153.818" y2="6.21052" gradientUnits="userSpaceOnUse">
<stop stop-color="#F0816B"/>
<stop offset="1" stop-color="#EB4F44"/>
</linearGradient>
<linearGradient id="paint1_linear_1018_384490" x1="160.5" y1="51" x2="162.305" y2="52.7743" gradientUnits="userSpaceOnUse">
<stop stop-color="#F0816B"/>
<stop offset="1" stop-color="#EB4F44"/>
</linearGradient>
<linearGradient id="paint2_linear_1018_384490" x1="140.5" y1="58" x2="142.305" y2="59.7743" gradientUnits="userSpaceOnUse">
<stop stop-color="#F0816B"/>
<stop offset="1" stop-color="#EB4F44"/>
</linearGradient>
<linearGradient id="paint3_linear_1018_384490" x1="137.5" y1="0" x2="139.305" y2="1.77433" gradientUnits="userSpaceOnUse">
<stop stop-color="#F0816B"/>
<stop offset="1" stop-color="#EB4F44"/>
</linearGradient>
<linearGradient id="paint4_linear_1018_384490" x1="108.5" y1="4" x2="110.305" y2="5.77433" gradientUnits="userSpaceOnUse">
<stop stop-color="#F0816B"/>
<stop offset="1" stop-color="#EB4F44"/>
</linearGradient>
<linearGradient id="paint5_linear_1018_384490" x1="100.5" y1="48" x2="102.305" y2="49.7743" gradientUnits="userSpaceOnUse">
<stop stop-color="#F0816B"/>
<stop offset="1" stop-color="#EB4F44"/>
</linearGradient>
<clipPath id="clip0_1018_384490">
<rect width="163" height="60" fill="white" transform="translate(0.5)"/>
</clipPath>
</defs>
</svg>
