<svg width="370" height="60" viewBox="0 0 370 60" fill="none" xmlns="http://www.w3.org/2000/svg">
<path d="M15.0391 29.6074V30.416C15.0391 31.7129 14.8633 32.877 14.5117 33.9082C14.1602 34.9395 13.6641 35.8184 13.0234 36.5449C12.3828 37.2637 11.6172 37.8145 10.7266 38.1973C9.84375 38.5801 8.86328 38.7715 7.78516 38.7715C6.71484 38.7715 5.73438 38.5801 4.84375 38.1973C3.96094 37.8145 3.19531 37.2637 2.54688 36.5449C1.89844 35.8184 1.39453 34.9395 1.03516 33.9082C0.683594 32.877 0.507812 31.7129 0.507812 30.416V29.6074C0.507812 28.3027 0.683594 27.1387 1.03516 26.1152C1.38672 25.084 1.88281 24.2051 2.52344 23.4785C3.17188 22.752 3.9375 22.1973 4.82031 21.8145C5.71094 21.4316 6.69141 21.2402 7.76172 21.2402C8.83984 21.2402 9.82031 21.4316 10.7031 21.8145C11.5938 22.1973 12.3594 22.752 13 23.4785C13.6484 24.2051 14.1484 25.084 14.5 26.1152C14.8594 27.1387 15.0391 28.3027 15.0391 29.6074ZM11.4883 30.416V29.584C11.4883 28.6777 11.4062 27.8809 11.2422 27.1934C11.0781 26.5059 10.8359 25.9277 10.5156 25.459C10.1953 24.9902 9.80469 24.6387 9.34375 24.4043C8.88281 24.1621 8.35547 24.041 7.76172 24.041C7.16797 24.041 6.64062 24.1621 6.17969 24.4043C5.72656 24.6387 5.33984 24.9902 5.01953 25.459C4.70703 25.9277 4.46875 26.5059 4.30469 27.1934C4.14062 27.8809 4.05859 28.6777 4.05859 29.584V30.416C4.05859 31.3145 4.14062 32.1113 4.30469 32.8066C4.46875 33.4941 4.71094 34.0762 5.03125 34.5527C5.35156 35.0215 5.74219 35.377 6.20312 35.6191C6.66406 35.8613 7.19141 35.9824 7.78516 35.9824C8.37891 35.9824 8.90625 35.8613 9.36719 35.6191C9.82812 35.377 10.2148 35.0215 10.5273 34.5527C10.8398 34.0762 11.0781 33.4941 11.2422 32.8066C11.4062 32.1113 11.4883 31.3145 11.4883 30.416Z" fill="#141416"/>
<path d="M26.9922 21.4746H30.4961V32.748C30.4961 34.0605 30.2148 35.166 29.6523 36.0645C29.0977 36.9629 28.3281 37.6387 27.3438 38.0918C26.3672 38.5449 25.2422 38.7715 23.9688 38.7715C22.6953 38.7715 21.5625 38.5449 20.5703 38.0918C19.5859 37.6387 18.8125 36.9629 18.25 36.0645C17.6953 35.166 17.418 34.0605 17.418 32.748V21.4746H20.9336V32.748C20.9336 33.5137 21.0547 34.1387 21.2969 34.623C21.5391 35.1074 21.8867 35.4629 22.3398 35.6895C22.8008 35.916 23.3438 36.0293 23.9688 36.0293C24.6094 36.0293 25.1523 35.916 25.5977 35.6895C26.0508 35.4629 26.3945 35.1074 26.6289 34.623C26.8711 34.1387 26.9922 33.5137 26.9922 32.748V21.4746Z" fill="#141416"/>
<path d="M33.3906 21.4746H39.7539C41.0586 21.4746 42.1797 21.6699 43.1172 22.0605C44.0625 22.4512 44.7891 23.0293 45.2969 23.7949C45.8047 24.5605 46.0586 25.502 46.0586 26.6191C46.0586 27.5332 45.9023 28.3184 45.5898 28.9746C45.2852 29.623 44.8516 30.166 44.2891 30.6035C43.7344 31.0332 43.082 31.377 42.332 31.6348L41.2188 32.2207H35.6875L35.6641 29.4785H39.7773C40.3945 29.4785 40.9062 29.3691 41.3125 29.1504C41.7188 28.9316 42.0234 28.627 42.2266 28.2363C42.4375 27.8457 42.543 27.3926 42.543 26.877C42.543 26.3301 42.4414 25.8574 42.2383 25.459C42.0352 25.0605 41.7266 24.7559 41.3125 24.5449C40.8984 24.334 40.3789 24.2285 39.7539 24.2285H36.9062V38.5371H33.3906V21.4746ZM42.9297 38.5371L39.0391 30.9316L42.7539 30.9082L46.6914 38.373V38.5371H42.9297Z" fill="#141416"/>
<path d="M59.9805 38.5371H56.2656L56.2891 35.7949H59.9805C60.9023 35.7949 61.6797 35.5879 62.3125 35.1738C62.9453 34.752 63.4219 34.1387 63.7422 33.334C64.0703 32.5293 64.2344 31.5566 64.2344 30.416V29.584C64.2344 28.709 64.1406 27.9395 63.9531 27.2754C63.7734 26.6113 63.5039 26.0527 63.1445 25.5996C62.7852 25.1465 62.3438 24.8066 61.8203 24.5801C61.2969 24.3457 60.6953 24.2285 60.0156 24.2285H56.1953V21.4746H60.0156C61.1562 21.4746 62.1992 21.6699 63.1445 22.0605C64.0977 22.4434 64.9219 22.9941 65.6172 23.7129C66.3125 24.4316 66.8477 25.291 67.2227 26.291C67.6055 27.2832 67.7969 28.3887 67.7969 29.6074V30.416C67.7969 31.627 67.6055 32.7324 67.2227 33.7324C66.8477 34.7324 66.3125 35.5918 65.6172 36.3105C64.9297 37.0215 64.1055 37.5723 63.1445 37.9629C62.1914 38.3457 61.1367 38.5371 59.9805 38.5371ZM58.2578 21.4746V38.5371H54.7422V21.4746H58.2578Z" fill="#141416"/>
<path d="M74.0898 21.4746V38.5371H70.5859V21.4746H74.0898Z" fill="#141416"/>
<path d="M86.2656 34.0723C86.2656 33.7676 86.2188 33.4941 86.125 33.252C86.0391 33.002 85.875 32.7754 85.6328 32.5723C85.3906 32.3613 85.0508 32.1543 84.6133 31.9512C84.1758 31.748 83.6094 31.5371 82.9141 31.3184C82.1406 31.0684 81.4062 30.7871 80.7109 30.4746C80.0234 30.1621 79.4141 29.7988 78.8828 29.3848C78.3594 28.9629 77.9453 28.4746 77.6406 27.9199C77.3438 27.3652 77.1953 26.7207 77.1953 25.9863C77.1953 25.2754 77.3516 24.6309 77.6641 24.0527C77.9766 23.4668 78.4141 22.9668 78.9766 22.5527C79.5391 22.1309 80.2031 21.8066 80.9688 21.5801C81.7422 21.3535 82.5898 21.2402 83.5117 21.2402C84.7695 21.2402 85.8672 21.4668 86.8047 21.9199C87.7422 22.373 88.4688 22.9941 88.9844 23.7832C89.5078 24.5723 89.7695 25.4746 89.7695 26.4902H86.2773C86.2773 25.9902 86.1719 25.5527 85.9609 25.1777C85.7578 24.7949 85.4453 24.4941 85.0234 24.2754C84.6094 24.0566 84.0859 23.9473 83.4531 23.9473C82.8438 23.9473 82.3359 24.041 81.9297 24.2285C81.5234 24.4082 81.2188 24.6543 81.0156 24.9668C80.8125 25.2715 80.7109 25.6152 80.7109 25.998C80.7109 26.2871 80.7812 26.5488 80.9219 26.7832C81.0703 27.0176 81.2891 27.2363 81.5781 27.4395C81.8672 27.6426 82.2227 27.834 82.6445 28.0137C83.0664 28.1934 83.5547 28.3691 84.1094 28.541C85.0391 28.8223 85.8555 29.1387 86.5586 29.4902C87.2695 29.8418 87.8633 30.2363 88.3398 30.6738C88.8164 31.1113 89.1758 31.6074 89.418 32.1621C89.6602 32.7168 89.7812 33.3457 89.7812 34.0488C89.7812 34.791 89.6367 35.4551 89.3477 36.041C89.0586 36.627 88.6406 37.123 88.0938 37.5293C87.5469 37.9355 86.8945 38.2441 86.1367 38.4551C85.3789 38.666 84.5312 38.7715 83.5938 38.7715C82.75 38.7715 81.918 38.6621 81.0977 38.4434C80.2773 38.2168 79.5312 37.877 78.8594 37.4238C78.1953 36.9707 77.6641 36.3926 77.2656 35.6895C76.8672 34.9863 76.668 34.1543 76.668 33.1934H80.1953C80.1953 33.7246 80.2773 34.1738 80.4414 34.541C80.6055 34.9082 80.8359 35.2051 81.1328 35.4316C81.4375 35.6582 81.7969 35.8223 82.2109 35.9238C82.6328 36.0254 83.0938 36.0762 83.5938 36.0762C84.2031 36.0762 84.7031 35.9902 85.0938 35.8184C85.4922 35.6465 85.7852 35.4082 85.9727 35.1035C86.168 34.7988 86.2656 34.4551 86.2656 34.0723Z" fill="#141416"/>
<path d="M102.062 32.877H105.566C105.496 34.0254 105.18 35.0449 104.617 35.9355C104.062 36.8262 103.285 37.5215 102.285 38.0215C101.293 38.5215 100.098 38.7715 98.6992 38.7715C97.6055 38.7715 96.625 38.584 95.7578 38.209C94.8906 37.8262 94.1484 37.2793 93.5312 36.5684C92.9219 35.8574 92.457 34.998 92.1367 33.9902C91.8164 32.9824 91.6562 31.8535 91.6562 30.6035V29.4199C91.6562 28.1699 91.8203 27.041 92.1484 26.0332C92.4844 25.0176 92.9609 24.1543 93.5781 23.4434C94.2031 22.7324 94.9492 22.1855 95.8164 21.8027C96.6836 21.4199 97.6523 21.2285 98.7227 21.2285C100.145 21.2285 101.344 21.4863 102.32 22.002C103.305 22.5176 104.066 23.2285 104.605 24.1348C105.152 25.041 105.48 26.0723 105.59 27.2285H102.074C102.035 26.541 101.898 25.959 101.664 25.4824C101.43 24.998 101.074 24.6348 100.598 24.3926C100.129 24.1426 99.5039 24.0176 98.7227 24.0176C98.1367 24.0176 97.625 24.127 97.1875 24.3457C96.75 24.5645 96.3828 24.8965 96.0859 25.3418C95.7891 25.7871 95.5664 26.3496 95.418 27.0293C95.2773 27.7012 95.207 28.4902 95.207 29.3965V30.6035C95.207 31.4863 95.2734 32.2637 95.4062 32.9355C95.5391 33.5996 95.7422 34.1621 96.0156 34.623C96.2969 35.0762 96.6562 35.4199 97.0938 35.6543C97.5391 35.8809 98.0742 35.9941 98.6992 35.9941C99.4336 35.9941 100.039 35.877 100.516 35.6426C100.992 35.4082 101.355 35.0605 101.605 34.5996C101.863 34.1387 102.016 33.5645 102.062 32.877Z" fill="#141416"/>
<path d="M121.891 29.6074V30.416C121.891 31.7129 121.715 32.877 121.363 33.9082C121.012 34.9395 120.516 35.8184 119.875 36.5449C119.234 37.2637 118.469 37.8145 117.578 38.1973C116.695 38.5801 115.715 38.7715 114.637 38.7715C113.566 38.7715 112.586 38.5801 111.695 38.1973C110.812 37.8145 110.047 37.2637 109.398 36.5449C108.75 35.8184 108.246 34.9395 107.887 33.9082C107.535 32.877 107.359 31.7129 107.359 30.416V29.6074C107.359 28.3027 107.535 27.1387 107.887 26.1152C108.238 25.084 108.734 24.2051 109.375 23.4785C110.023 22.752 110.789 22.1973 111.672 21.8145C112.562 21.4316 113.543 21.2402 114.613 21.2402C115.691 21.2402 116.672 21.4316 117.555 21.8145C118.445 22.1973 119.211 22.752 119.852 23.4785C120.5 24.2051 121 25.084 121.352 26.1152C121.711 27.1387 121.891 28.3027 121.891 29.6074ZM118.34 30.416V29.584C118.34 28.6777 118.258 27.8809 118.094 27.1934C117.93 26.5059 117.688 25.9277 117.367 25.459C117.047 24.9902 116.656 24.6387 116.195 24.4043C115.734 24.1621 115.207 24.041 114.613 24.041C114.02 24.041 113.492 24.1621 113.031 24.4043C112.578 24.6387 112.191 24.9902 111.871 25.459C111.559 25.9277 111.32 26.5059 111.156 27.1934C110.992 27.8809 110.91 28.6777 110.91 29.584V30.416C110.91 31.3145 110.992 32.1113 111.156 32.8066C111.32 33.4941 111.562 34.0762 111.883 34.5527C112.203 35.0215 112.594 35.377 113.055 35.6191C113.516 35.8613 114.043 35.9824 114.637 35.9824C115.23 35.9824 115.758 35.8613 116.219 35.6191C116.68 35.377 117.066 35.0215 117.379 34.5527C117.691 34.0762 117.93 33.4941 118.094 32.8066C118.258 32.1113 118.34 31.3145 118.34 30.416Z" fill="#141416"/>
<path d="M133.844 21.4746H137.348V32.748C137.348 34.0605 137.066 35.166 136.504 36.0645C135.949 36.9629 135.18 37.6387 134.195 38.0918C133.219 38.5449 132.094 38.7715 130.82 38.7715C129.547 38.7715 128.414 38.5449 127.422 38.0918C126.438 37.6387 125.664 36.9629 125.102 36.0645C124.547 35.166 124.27 34.0605 124.27 32.748V21.4746H127.785V32.748C127.785 33.5137 127.906 34.1387 128.148 34.623C128.391 35.1074 128.738 35.4629 129.191 35.6895C129.652 35.916 130.195 36.0293 130.82 36.0293C131.461 36.0293 132.004 35.916 132.449 35.6895C132.902 35.4629 133.246 35.1074 133.48 34.623C133.723 34.1387 133.844 33.5137 133.844 32.748V21.4746Z" fill="#141416"/>
<path d="M154.129 21.4746V38.5371H150.613L143.758 27.0996V38.5371H140.242V21.4746H143.758L150.625 32.9238V21.4746H154.129Z" fill="#141416"/>
<path d="M164.465 21.4746V38.5371H160.961V21.4746H164.465ZM169.715 21.4746V24.2285H155.793V21.4746H169.715Z" fill="#141416"/>
<path d="M186.953 32.877H190.457C190.387 34.0254 190.07 35.0449 189.508 35.9355C188.953 36.8262 188.176 37.5215 187.176 38.0215C186.184 38.5215 184.988 38.7715 183.59 38.7715C182.496 38.7715 181.516 38.584 180.648 38.209C179.781 37.8262 179.039 37.2793 178.422 36.5684C177.812 35.8574 177.348 34.998 177.027 33.9902C176.707 32.9824 176.547 31.8535 176.547 30.6035V29.4199C176.547 28.1699 176.711 27.041 177.039 26.0332C177.375 25.0176 177.852 24.1543 178.469 23.4434C179.094 22.7324 179.84 22.1855 180.707 21.8027C181.574 21.4199 182.543 21.2285 183.613 21.2285C185.035 21.2285 186.234 21.4863 187.211 22.002C188.195 22.5176 188.957 23.2285 189.496 24.1348C190.043 25.041 190.371 26.0723 190.48 27.2285H186.965C186.926 26.541 186.789 25.959 186.555 25.4824C186.32 24.998 185.965 24.6348 185.488 24.3926C185.02 24.1426 184.395 24.0176 183.613 24.0176C183.027 24.0176 182.516 24.127 182.078 24.3457C181.641 24.5645 181.273 24.8965 180.977 25.3418C180.68 25.7871 180.457 26.3496 180.309 27.0293C180.168 27.7012 180.098 28.4902 180.098 29.3965V30.6035C180.098 31.4863 180.164 32.2637 180.297 32.9355C180.43 33.5996 180.633 34.1621 180.906 34.623C181.188 35.0762 181.547 35.4199 181.984 35.6543C182.43 35.8809 182.965 35.9941 183.59 35.9941C184.324 35.9941 184.93 35.877 185.406 35.6426C185.883 35.4082 186.246 35.0605 186.496 34.5996C186.754 34.1387 186.906 33.5645 186.953 32.877Z" fill="#141416"/>
<path d="M206.781 29.6074V30.416C206.781 31.7129 206.605 32.877 206.254 33.9082C205.902 34.9395 205.406 35.8184 204.766 36.5449C204.125 37.2637 203.359 37.8145 202.469 38.1973C201.586 38.5801 200.605 38.7715 199.527 38.7715C198.457 38.7715 197.477 38.5801 196.586 38.1973C195.703 37.8145 194.938 37.2637 194.289 36.5449C193.641 35.8184 193.137 34.9395 192.777 33.9082C192.426 32.877 192.25 31.7129 192.25 30.416V29.6074C192.25 28.3027 192.426 27.1387 192.777 26.1152C193.129 25.084 193.625 24.2051 194.266 23.4785C194.914 22.752 195.68 22.1973 196.562 21.8145C197.453 21.4316 198.434 21.2402 199.504 21.2402C200.582 21.2402 201.562 21.4316 202.445 21.8145C203.336 22.1973 204.102 22.752 204.742 23.4785C205.391 24.2051 205.891 25.084 206.242 26.1152C206.602 27.1387 206.781 28.3027 206.781 29.6074ZM203.23 30.416V29.584C203.23 28.6777 203.148 27.8809 202.984 27.1934C202.82 26.5059 202.578 25.9277 202.258 25.459C201.938 24.9902 201.547 24.6387 201.086 24.4043C200.625 24.1621 200.098 24.041 199.504 24.041C198.91 24.041 198.383 24.1621 197.922 24.4043C197.469 24.6387 197.082 24.9902 196.762 25.459C196.449 25.9277 196.211 26.5059 196.047 27.1934C195.883 27.8809 195.801 28.6777 195.801 29.584V30.416C195.801 31.3145 195.883 32.1113 196.047 32.8066C196.211 33.4941 196.453 34.0762 196.773 34.5527C197.094 35.0215 197.484 35.377 197.945 35.6191C198.406 35.8613 198.934 35.9824 199.527 35.9824C200.121 35.9824 200.648 35.8613 201.109 35.6191C201.57 35.377 201.957 35.0215 202.27 34.5527C202.582 34.0762 202.82 33.4941 202.984 32.8066C203.148 32.1113 203.23 31.3145 203.23 30.416Z" fill="#141416"/>
<path d="M218.734 21.4746H222.238V32.748C222.238 34.0605 221.957 35.166 221.395 36.0645C220.84 36.9629 220.07 37.6387 219.086 38.0918C218.109 38.5449 216.984 38.7715 215.711 38.7715C214.438 38.7715 213.305 38.5449 212.312 38.0918C211.328 37.6387 210.555 36.9629 209.992 36.0645C209.438 35.166 209.16 34.0605 209.16 32.748V21.4746H212.676V32.748C212.676 33.5137 212.797 34.1387 213.039 34.623C213.281 35.1074 213.629 35.4629 214.082 35.6895C214.543 35.916 215.086 36.0293 215.711 36.0293C216.352 36.0293 216.895 35.916 217.34 35.6895C217.793 35.4629 218.137 35.1074 218.371 34.623C218.613 34.1387 218.734 33.5137 218.734 32.748V21.4746Z" fill="#141416"/>
<path d="M231.777 32.4551H227.43V29.7129H231.777C232.449 29.7129 232.996 29.6035 233.418 29.3848C233.84 29.1582 234.148 28.8457 234.344 28.4473C234.539 28.0488 234.637 27.5996 234.637 27.0996C234.637 26.5918 234.539 26.1191 234.344 25.6816C234.148 25.2441 233.84 24.8926 233.418 24.627C232.996 24.3613 232.449 24.2285 231.777 24.2285H228.648V38.5371H225.133V21.4746H231.777C233.113 21.4746 234.258 21.7168 235.211 22.2012C236.172 22.6777 236.906 23.3379 237.414 24.1816C237.922 25.0254 238.176 25.9902 238.176 27.0762C238.176 28.1777 237.922 29.1309 237.414 29.9355C236.906 30.7402 236.172 31.3613 235.211 31.7988C234.258 32.2363 233.113 32.4551 231.777 32.4551Z" fill="#141416"/>
<path d="M254.617 29.6074V30.416C254.617 31.7129 254.441 32.877 254.09 33.9082C253.738 34.9395 253.242 35.8184 252.602 36.5449C251.961 37.2637 251.195 37.8145 250.305 38.1973C249.422 38.5801 248.441 38.7715 247.363 38.7715C246.293 38.7715 245.312 38.5801 244.422 38.1973C243.539 37.8145 242.773 37.2637 242.125 36.5449C241.477 35.8184 240.973 34.9395 240.613 33.9082C240.262 32.877 240.086 31.7129 240.086 30.416V29.6074C240.086 28.3027 240.262 27.1387 240.613 26.1152C240.965 25.084 241.461 24.2051 242.102 23.4785C242.75 22.752 243.516 22.1973 244.398 21.8145C245.289 21.4316 246.27 21.2402 247.34 21.2402C248.418 21.2402 249.398 21.4316 250.281 21.8145C251.172 22.1973 251.938 22.752 252.578 23.4785C253.227 24.2051 253.727 25.084 254.078 26.1152C254.438 27.1387 254.617 28.3027 254.617 29.6074ZM251.066 30.416V29.584C251.066 28.6777 250.984 27.8809 250.82 27.1934C250.656 26.5059 250.414 25.9277 250.094 25.459C249.773 24.9902 249.383 24.6387 248.922 24.4043C248.461 24.1621 247.934 24.041 247.34 24.041C246.746 24.041 246.219 24.1621 245.758 24.4043C245.305 24.6387 244.918 24.9902 244.598 25.459C244.285 25.9277 244.047 26.5059 243.883 27.1934C243.719 27.8809 243.637 28.6777 243.637 29.584V30.416C243.637 31.3145 243.719 32.1113 243.883 32.8066C244.047 33.4941 244.289 34.0762 244.609 34.5527C244.93 35.0215 245.32 35.377 245.781 35.6191C246.242 35.8613 246.77 35.9824 247.363 35.9824C247.957 35.9824 248.484 35.8613 248.945 35.6191C249.406 35.377 249.793 35.0215 250.105 34.5527C250.418 34.0762 250.656 33.4941 250.82 32.8066C250.984 32.1113 251.066 31.3145 251.066 30.416Z" fill="#141416"/>
<path d="M271.035 21.4746V38.5371H267.52L260.664 27.0996V38.5371H257.148V21.4746H260.664L267.531 32.9238V21.4746H271.035Z" fill="#141416"/>
<path d="M282.977 34.0723C282.977 33.7676 282.93 33.4941 282.836 33.252C282.75 33.002 282.586 32.7754 282.344 32.5723C282.102 32.3613 281.762 32.1543 281.324 31.9512C280.887 31.748 280.32 31.5371 279.625 31.3184C278.852 31.0684 278.117 30.7871 277.422 30.4746C276.734 30.1621 276.125 29.7988 275.594 29.3848C275.07 28.9629 274.656 28.4746 274.352 27.9199C274.055 27.3652 273.906 26.7207 273.906 25.9863C273.906 25.2754 274.062 24.6309 274.375 24.0527C274.688 23.4668 275.125 22.9668 275.688 22.5527C276.25 22.1309 276.914 21.8066 277.68 21.5801C278.453 21.3535 279.301 21.2402 280.223 21.2402C281.48 21.2402 282.578 21.4668 283.516 21.9199C284.453 22.373 285.18 22.9941 285.695 23.7832C286.219 24.5723 286.48 25.4746 286.48 26.4902H282.988C282.988 25.9902 282.883 25.5527 282.672 25.1777C282.469 24.7949 282.156 24.4941 281.734 24.2754C281.32 24.0566 280.797 23.9473 280.164 23.9473C279.555 23.9473 279.047 24.041 278.641 24.2285C278.234 24.4082 277.93 24.6543 277.727 24.9668C277.523 25.2715 277.422 25.6152 277.422 25.998C277.422 26.2871 277.492 26.5488 277.633 26.7832C277.781 27.0176 278 27.2363 278.289 27.4395C278.578 27.6426 278.934 27.834 279.355 28.0137C279.777 28.1934 280.266 28.3691 280.82 28.541C281.75 28.8223 282.566 29.1387 283.27 29.4902C283.98 29.8418 284.574 30.2363 285.051 30.6738C285.527 31.1113 285.887 31.6074 286.129 32.1621C286.371 32.7168 286.492 33.3457 286.492 34.0488C286.492 34.791 286.348 35.4551 286.059 36.041C285.77 36.627 285.352 37.123 284.805 37.5293C284.258 37.9355 283.605 38.2441 282.848 38.4551C282.09 38.666 281.242 38.7715 280.305 38.7715C279.461 38.7715 278.629 38.6621 277.809 38.4434C276.988 38.2168 276.242 37.877 275.57 37.4238C274.906 36.9707 274.375 36.3926 273.977 35.6895C273.578 34.9863 273.379 34.1543 273.379 33.1934H276.906C276.906 33.7246 276.988 34.1738 277.152 34.541C277.316 34.9082 277.547 35.2051 277.844 35.4316C278.148 35.6582 278.508 35.8223 278.922 35.9238C279.344 36.0254 279.805 36.0762 280.305 36.0762C280.914 36.0762 281.414 35.9902 281.805 35.8184C282.203 35.6465 282.496 35.4082 282.684 35.1035C282.879 34.7988 282.977 34.4551 282.977 34.0723Z" fill="#141416"/>
<path d="M310.652 37.2782C311.27 37.2782 311.77 36.7803 311.77 36.166C311.77 35.5517 311.27 35.0537 310.652 35.0537C310.035 35.0537 309.535 35.5517 309.535 36.166C309.535 36.7803 310.035 37.2782 310.652 37.2782Z" fill="url(#paint0_linear_1453_427739)"/>
<path d="M314.289 10.4237C314.906 10.4237 315.406 9.92578 315.406 9.31153C315.406 8.69719 314.906 8.19922 314.289 8.19922C313.672 8.19922 313.172 8.69719 313.172 9.31153C313.172 9.92578 313.672 10.4237 314.289 10.4237Z" fill="#29CC6A"/>
<path d="M360.957 40.2831C361.574 40.2831 362.074 39.7852 362.074 39.1709C362.074 38.5566 361.574 38.0586 360.957 38.0586C360.34 38.0586 359.84 38.5566 359.84 39.1709C359.84 39.7852 360.34 40.2831 360.957 40.2831Z" fill="#29CC6A"/>
<path d="M320.926 3.81437C321.543 3.81437 322.044 3.3164 322.044 2.70216C322.044 2.08781 321.543 1.58984 320.926 1.58984C320.31 1.58984 319.809 2.08781 319.809 2.70216C319.809 3.3164 320.31 3.81437 320.926 3.81437Z" fill="url(#paint1_linear_1453_427739)"/>
<path d="M343.047 2.22452C343.664 2.22452 344.164 1.72656 344.164 1.11221C344.164 0.497967 343.664 0 343.047 0C342.43 0 341.93 0.497967 341.93 1.11221C341.93 1.72656 342.43 2.22452 343.047 2.22452Z" fill="url(#paint2_linear_1453_427739)"/>
<path d="M330.89 59.9999C331.508 59.9999 332.008 59.5019 332.008 58.8877C332.008 58.2734 331.508 57.7754 330.89 57.7754C330.273 57.7754 329.773 58.2734 329.773 58.8877C329.773 59.5019 330.273 59.9999 330.89 59.9999Z" fill="url(#paint3_linear_1453_427739)"/>
<path d="M353.914 13.2412C354.531 13.2412 355.031 12.7432 355.031 12.1289C355.031 11.5146 354.531 11.0166 353.914 11.0166C353.297 11.0166 352.797 11.5146 352.797 12.1289C352.797 12.7432 353.297 13.2412 353.914 13.2412Z" fill="#29CC6A"/>
<path d="M320.368 57.7751C321.897 57.7751 323.135 56.542 323.135 55.0208C323.135 53.4997 321.897 52.2666 320.368 52.2666C318.84 52.2666 317.602 53.4997 317.602 55.0208C317.602 56.542 318.84 57.7751 320.368 57.7751Z" fill="#29CC6A"/>
<path d="M354.592 0C356.239 0 357.573 1.32734 357.573 2.96607C357.573 4.60489 356.239 5.93213 354.592 5.93213C352.946 5.93213 351.613 4.60489 351.613 2.96607C351.613 1.32734 352.946 0 354.592 0Z" fill="url(#paint4_linear_1453_427739)"/>
<path d="M361.964 50.2988C362.582 50.2988 363.082 49.8008 363.082 49.1865C363.082 48.5722 362.582 48.0742 361.964 48.0742C361.348 48.0742 360.848 48.5722 360.848 49.1865C360.848 49.8008 361.348 50.2988 361.964 50.2988Z" fill="url(#paint5_linear_1453_427739)"/>
<path d="M345.307 42.9433C345.611 43.4328 346.074 43.8032 346.618 43.9925C347.162 44.1819 347.755 44.1788 348.297 43.9837L351.938 42.6584C352.561 42.4316 353.068 41.9666 353.349 41.3657C353.629 40.7648 353.659 40.0771 353.432 39.4541L343.171 11.2633C342.945 10.6402 342.48 10.1328 341.879 9.85257C341.278 9.57236 340.59 9.54234 339.967 9.76911L336.326 11.0944C335.785 11.2934 335.329 11.672 335.034 12.1667C334.739 12.6615 334.623 13.2426 334.705 13.8128C334.829 14.6662 334.655 15.5363 334.213 16.2766C333.771 17.0168 333.087 17.5821 332.276 17.877C331.466 18.1719 330.579 18.1786 329.764 17.8958C328.95 17.613 328.257 17.0581 327.804 16.3246C327.5 15.8351 327.037 15.4647 326.493 15.2754C325.949 15.086 325.357 15.0891 324.815 15.2842L321.173 16.6095C320.55 16.8363 320.043 17.3013 319.763 17.9022C319.482 18.5031 319.452 19.1907 319.679 19.8138L329.94 48.0046C330.167 48.6276 330.632 49.1351 331.232 49.4153C331.833 49.6955 332.521 49.7255 333.144 49.4988L336.785 48.1734C337.326 47.9744 337.782 47.5959 338.077 47.1011C338.372 46.6063 338.488 46.0253 338.406 45.455C338.282 44.6017 338.456 43.7316 338.898 42.9913C339.341 42.251 340.024 41.6858 340.835 41.3909C341.645 41.0959 342.532 41.0893 343.347 41.3721C344.162 41.6548 344.854 42.2097 345.307 42.9433ZM325.67 17.6334C326.423 18.863 327.577 19.7944 328.938 20.27C330.299 20.7456 331.783 20.736 333.138 20.2429C334.492 19.7498 335.635 18.8035 336.372 17.5644C337.109 16.3252 337.395 14.8695 337.181 13.4437L340.822 12.1183L343.815 20.3407L325.021 27.1811L322.028 18.9587L325.67 17.6334Z" fill="#DA291C"/>
<defs>
<linearGradient id="paint0_linear_1453_427739" x1="309.535" y1="35.0537" x2="311.542" y2="37.0364" gradientUnits="userSpaceOnUse">
<stop stop-color="#F0816B"/>
<stop offset="1" stop-color="#EB4F44"/>
</linearGradient>
<linearGradient id="paint1_linear_1453_427739" x1="319.809" y1="1.58984" x2="321.817" y2="3.57256" gradientUnits="userSpaceOnUse">
<stop stop-color="#F0816B"/>
<stop offset="1" stop-color="#EB4F44"/>
</linearGradient>
<linearGradient id="paint2_linear_1453_427739" x1="341.93" y1="0" x2="343.938" y2="1.98271" gradientUnits="userSpaceOnUse">
<stop stop-color="#F0816B"/>
<stop offset="1" stop-color="#EB4F44"/>
</linearGradient>
<linearGradient id="paint3_linear_1453_427739" x1="329.773" y1="57.7754" x2="331.782" y2="59.7581" gradientUnits="userSpaceOnUse">
<stop stop-color="#F0816B"/>
<stop offset="1" stop-color="#EB4F44"/>
</linearGradient>
<linearGradient id="paint4_linear_1453_427739" x1="351.613" y1="0" x2="356.968" y2="5.28715" gradientUnits="userSpaceOnUse">
<stop stop-color="#F0816B"/>
<stop offset="1" stop-color="#EB4F44"/>
</linearGradient>
<linearGradient id="paint5_linear_1453_427739" x1="360.848" y1="48.0742" x2="362.855" y2="50.0569" gradientUnits="userSpaceOnUse">
<stop stop-color="#F0816B"/>
<stop offset="1" stop-color="#EB4F44"/>
</linearGradient>
</defs>
</svg>
