<svg width="170" height="60" viewBox="0 0 170 60" fill="none" xmlns="http://www.w3.org/2000/svg">
<g clip-path="url(#clip0_1018_384526)">
<path d="M5.75 48.5723L9.48799 32.7812H11.576L12.053 35.4109L8.06999 51.55H5.827L5.75 48.5723ZM3.82899 32.7812L6.923 48.5723L6.66499 51.55H4.164L0 32.7812H3.82899ZM15.34 48.5079L18.395 32.7812H22.224L18.073 51.55H15.572L15.34 48.5079ZM12.749 32.7812L16.513 48.6367L16.41 51.55H14.167L10.158 35.398L10.674 32.7812H12.749ZM36.919 48.5336V51.55H26.929V48.5336H36.919ZM28.192 32.7812V51.55H24.325V32.7812H28.192ZM35.617 40.4254V43.3645H26.929V40.4254H35.617ZM36.906 32.7812V35.8106H26.929V32.7812H36.906ZM51.769 48.5336V51.55H41.779V48.5336H51.769ZM43.042 32.7812V51.55H39.175V32.7812H43.042ZM50.467 40.4254V43.3645H41.779V40.4254H50.467ZM51.756 32.7812V35.8106H41.779V32.7812H51.756ZM57.892 32.7812V51.55H54.025V32.7812H57.892ZM69.133 32.7812L61.695 42.0496L57.402 46.6646L56.706 43.0035L59.607 39.0332L64.389 32.7812H69.133ZM64.737 51.55L59.207 42.8746L62.069 40.477L69.313 51.55H64.737ZM82.874 48.5336V51.55H73.425V48.5336H82.874ZM74.676 32.7812V51.55H70.809V32.7812H74.676ZM84.215 32.7812L88.134 41.3406L92.052 32.7812H96.268L90.093 44.718V51.55H86.174V44.718L79.987 32.7812H84.215Z" fill="#141416"/>
<path d="M143.372 24.8077L137.5 21.8424L131.628 24.8076C130.374 25.4411 128.907 24.4179 129.147 23.076L130.269 16.7956L125.519 12.3478C124.503 11.3974 125.063 9.74173 126.466 9.54605L133.031 8.62964L135.967 2.91564C136.594 1.69479 138.406 1.69479 139.033 2.91564L141.969 8.62964L148.534 9.54605C149.937 9.74183 150.497 11.3974 149.481 12.3478L144.731 16.7956L145.853 23.076C146.092 24.418 144.626 25.4412 143.372 24.8077Z" fill="#FFF36C"/>
<path d="M148.475 9.54609L141.649 8.62978L138.595 2.91571C138.269 2.30524 137.635 2 137 2V21.8423L143.107 24.8077C144.412 25.4412 145.936 24.4179 145.687 23.0761L144.52 16.7957L149.461 12.3479C150.516 11.3976 149.934 9.74177 148.475 9.54609Z" fill="#FFD422"/>
<path d="M131.712 37.6154C132.975 37.6154 134 36.5821 134 35.3077C134 34.0332 132.975 33 131.712 33H125.287C124.024 33 123 34.0332 123 35.3077V50.6923C123 51.9668 124.024 53 125.287 53H131.712C132.975 53 134 51.9668 134 50.6923C134 49.4179 132.975 48.3846 131.712 48.3846H127.574V45.3076H131.238C132.502 45.3076 133.526 44.2744 133.526 43C133.526 41.7255 132.502 40.6923 131.238 40.6923H127.574V37.6154H131.712Z" fill="#DA291C"/>
<path d="M117.855 41.734C118.34 40.8817 118.619 39.8969 118.619 38.8477C118.619 35.6232 115.997 33 112.774 33H108.307C107.032 33 106 34.0332 106 35.3077V50.6923C106 51.3061 106.245 51.8946 106.679 52.3277C107.112 52.7585 107.697 53 108.307 53H108.317C108.358 52.9998 112.438 52.9817 113.554 52.9817C117.108 52.9817 120 50.0888 120 46.533C120 44.6288 119.17 42.9156 117.855 41.734ZM112.774 37.6154C113.453 37.6154 114.006 38.1681 114.006 38.8477C114.006 39.5273 113.453 40.0802 112.774 40.0802C112.451 40.0802 111.848 40.0819 111.188 40.0841H110.613V37.6154H112.774ZM113.554 48.3663C112.999 48.3663 111.753 48.3704 110.613 48.375V44.7015C110.807 44.7008 111 44.7002 111.189 44.6994H113.554C114.565 44.6994 115.387 45.5218 115.387 46.5328C115.387 47.5437 114.565 48.3663 113.554 48.3663Z" fill="#DA291C"/>
<path d="M166.712 33H158.288C157.025 33 156 34.0332 156 35.3077C156 36.5821 157.025 37.6154 158.288 37.6154H160.195V50.6923C160.195 51.9668 161.219 53 162.483 53C163.747 53 164.771 51.9668 164.771 50.6923V37.6154H166.712C167.976 37.6154 169 36.5821 169 35.3077C169 34.0332 167.976 33 166.712 33Z" fill="#BC2217"/>
<path d="M147.739 40.9738C145.745 40.3037 143.884 39.575 143.236 39.3173C142.996 39.1155 142.992 38.8547 143.016 38.7066C143.047 38.5095 143.21 38.026 144.057 37.7938C146.102 37.2324 147.638 38.1633 147.936 38.3636C148.682 39.2158 150.012 39.4889 151.106 38.9564C152.339 38.3558 152.804 36.9578 152.145 35.8336C151.25 34.3063 147.181 32.1158 142.596 33.375C140.11 34.0574 138.351 35.8488 138.004 38.0508C137.676 40.1258 138.664 42.1225 140.581 43.2612C140.692 43.3277 140.81 43.386 140.932 43.4356C141.03 43.4755 143.362 44.4214 145.987 45.3039C147.012 45.6485 148.059 46.2646 147.923 46.9603C147.81 47.5349 146.931 48.385 145.401 48.385C143.845 48.385 142.352 47.8178 141.408 46.8679C140.469 45.9235 138.867 45.8517 137.832 46.7074C136.795 47.563 136.717 49.0225 137.656 49.9669C139.572 51.8944 142.395 53 145.401 53C149.157 53 152.314 50.8011 152.908 47.7715C153.358 45.4764 152.236 42.4853 147.739 40.9738Z" fill="#BC2217"/>
<path d="M161.574 26.8361L158.5 25.2657L155.426 26.8361C154.369 27.376 153.135 26.5041 153.336 25.3606L153.924 22.0345L151.437 19.679C150.581 18.8693 151.054 17.4584 152.235 17.2916L155.672 16.8064L157.209 13.7803C157.736 12.7399 159.263 12.7399 159.792 13.7803L161.329 16.8064L164.765 17.2916C165.947 17.4584 166.418 18.8693 165.564 19.679L163.077 22.0345L163.663 25.3606C163.866 26.5041 162.63 27.376 161.574 26.8361Z" fill="#FFF36C"/>
<path d="M164.682 17.2916L161.017 16.8063L159.378 13.7802C159.096 13.26 158.547 13 158 13V25.2658L161.278 26.8361C162.405 27.3759 163.723 26.504 163.507 25.3605L162.882 22.0345L165.534 19.679C166.446 18.8692 165.943 17.4584 164.682 17.2916Z" fill="#FFD422"/>
<path d="M119.574 26.8361L116.5 25.2657L113.426 26.8361C112.369 27.376 111.134 26.504 111.336 25.3606L111.923 22.0345L109.436 19.679C108.582 18.8693 109.053 17.4584 110.234 17.2916L113.672 16.8064L115.208 13.7803C115.737 12.7399 117.263 12.7399 117.792 13.7803L119.329 16.8064L122.765 17.2916C123.947 17.4585 124.418 18.8693 123.564 19.679L121.077 22.0345L121.664 25.3606C121.866 26.504 120.631 27.376 119.574 26.8361Z" fill="#FFF36C"/>
<path d="M122.847 17.2916L119.64 16.8064L118.206 13.7803C117.959 13.2601 117.479 13 117 13V25.2657L119.869 26.8361C120.855 27.376 122.008 26.5041 121.82 25.3606L121.271 22.0345L123.593 19.6791C124.39 18.8693 123.95 17.4585 122.847 17.2916Z" fill="#FFD422"/>
<path d="M169 60C169.552 60 170 59.5522 170 59C170 58.4477 169.552 58 169 58C168.448 58 168 58.4477 168 59C168 59.5522 168.448 60 169 60Z" fill="url(#paint0_linear_1018_384526)"/>
<path d="M125 60C125.552 60 126 59.5523 126 59C126 58.4477 125.552 58 125 58C124.448 58 124 58.4477 124 59C124 59.5523 124.448 60 125 60Z" fill="url(#paint1_linear_1018_384526)"/>
<path d="M151 2C151.552 2 152 1.55229 152 1.00005C152 0.447707 151.552 0 151 0C150.448 0 150 0.447707 150 1.00005C150 1.55229 150.448 2 151 2Z" fill="url(#paint2_linear_1018_384526)"/>
<path d="M120 5C120.552 5 121 4.55222 121 4C121 3.44769 120.552 3 120 3C119.448 3 119 3.44769 119 4C119 4.55222 119.448 5 120 5Z" fill="#29CC6A"/>
</g>
<defs>
<linearGradient id="paint0_linear_1018_384526" x1="168" y1="58" x2="169.805" y2="59.7744" gradientUnits="userSpaceOnUse">
<stop stop-color="#F0816B"/>
<stop offset="1" stop-color="#EB4F44"/>
</linearGradient>
<linearGradient id="paint1_linear_1018_384526" x1="124" y1="58" x2="125.805" y2="59.7744" gradientUnits="userSpaceOnUse">
<stop stop-color="#F0816B"/>
<stop offset="1" stop-color="#EB4F44"/>
</linearGradient>
<linearGradient id="paint2_linear_1018_384526" x1="150" y1="0" x2="151.805" y2="1.77443" gradientUnits="userSpaceOnUse">
<stop stop-color="#F0816B"/>
<stop offset="1" stop-color="#EB4F44"/>
</linearGradient>
<clipPath id="clip0_1018_384526">
<rect width="170" height="60" fill="white"/>
</clipPath>
</defs>
</svg>
