<svg width="212" height="60" viewBox="0 0 212 60" fill="none" xmlns="http://www.w3.org/2000/svg">
<g clip-path="url(#clip0_1018_384391)">
<path d="M8.672 9.60401V26.6665H5.16801V9.60401H8.672ZM13.922 9.60401V12.3579H0V9.60401H13.922ZM29.613 17.7368V18.5454C29.613 19.8423 29.438 21.0063 29.086 22.0376C28.735 23.0688 28.238 23.9477 27.598 24.6743C26.957 25.3931 26.192 25.9438 25.301 26.3267C24.418 26.7095 23.438 26.9009 22.36 26.9009C21.289 26.9009 20.309 26.7095 19.418 26.3267C18.535 25.9438 17.77 25.3931 17.121 24.6743C16.473 23.9477 15.969 23.0688 15.61 22.0376C15.258 21.0063 15.082 19.8423 15.082 18.5454V17.7368C15.082 16.4321 15.258 15.2681 15.61 14.2446C15.961 13.2134 16.457 12.3345 17.098 11.6079C17.746 10.8813 18.512 10.3267 19.395 9.94381C20.285 9.56101 21.266 9.36961 22.336 9.36961C23.414 9.36961 24.395 9.56101 25.278 9.94381C26.168 10.3267 26.934 10.8813 27.574 11.6079C28.223 12.3345 28.723 13.2134 29.074 14.2446C29.434 15.2681 29.613 16.4321 29.613 17.7368ZM26.063 18.5454V17.7134C26.063 16.8071 25.981 16.0103 25.817 15.3227C25.653 14.6353 25.41 14.0571 25.09 13.5884C24.77 13.1196 24.379 12.7681 23.918 12.5337C23.457 12.2915 22.93 12.1704 22.336 12.1704C21.742 12.1704 21.215 12.2915 20.754 12.5337C20.301 12.7681 19.914 13.1196 19.594 13.5884C19.281 14.0571 19.043 14.6353 18.879 15.3227C18.715 16.0103 18.633 16.8071 18.633 17.7134V18.5454C18.633 19.4438 18.715 20.2407 18.879 20.936C19.043 21.6235 19.285 22.2056 19.606 22.6821C19.926 23.1509 20.317 23.5063 20.778 23.7485C21.238 23.9907 21.766 24.1118 22.36 24.1118C22.953 24.1118 23.481 23.9907 23.942 23.7485C24.403 23.5063 24.789 23.1509 25.102 22.6821C25.414 22.2056 25.653 21.6235 25.817 20.936C25.981 20.2407 26.063 19.4438 26.063 18.5454ZM37.383 26.6665H33.668L33.692 23.9243H37.383C38.305 23.9243 39.082 23.7173 39.715 23.3032C40.348 22.8813 40.824 22.2681 41.145 21.4634C41.473 20.6587 41.637 19.686 41.637 18.5454V17.7134C41.637 16.8384 41.543 16.0688 41.356 15.4048C41.176 14.7407 40.906 14.1821 40.547 13.729C40.188 13.2759 39.746 12.936 39.223 12.7095C38.699 12.4751 38.098 12.3579 37.418 12.3579H33.598V9.60401H37.418C38.559 9.60401 39.602 9.79931 40.547 10.1899C41.5 10.5727 42.324 11.1235 43.02 11.8423C43.715 12.561 44.25 13.4204 44.625 14.4204C45.008 15.4126 45.199 16.5181 45.199 17.7368V18.5454C45.199 19.7563 45.008 20.8618 44.625 21.8618C44.25 22.8618 43.715 23.7212 43.02 24.4399C42.332 25.1509 41.508 25.7017 40.547 26.0923C39.594 26.4751 38.539 26.6665 37.383 26.6665ZM35.66 9.60401V26.6665H32.145V9.60401H35.66ZM54.434 12.522L49.793 26.6665H46.055L52.395 9.60401H54.774L54.434 12.522ZM58.289 26.6665L53.637 12.522L53.262 9.60401H55.664L62.039 26.6665H58.289ZM58.078 20.3149V23.0688H49.067V20.3149H58.078ZM64.418 9.60401L67.981 17.3853L71.543 9.60401H75.375L69.762 20.4556V26.6665H66.199V20.4556L60.574 9.60401H64.418ZM92.801 21.0063H96.305C96.235 22.1548 95.918 23.1743 95.356 24.0649C94.801 24.9556 94.024 25.6509 93.024 26.1509C92.031 26.6509 90.836 26.9009 89.438 26.9009C88.344 26.9009 87.363 26.7134 86.496 26.3384C85.629 25.9556 84.887 25.4087 84.27 24.6977C83.66 23.9868 83.196 23.1274 82.875 22.1196C82.555 21.1118 82.395 19.9829 82.395 18.7329V17.5493C82.395 16.2993 82.559 15.1704 82.887 14.1626C83.223 13.147 83.699 12.2837 84.317 11.5727C84.942 10.8618 85.688 10.3149 86.555 9.93211C87.422 9.54931 88.391 9.35791 89.461 9.35791C90.883 9.35791 92.082 9.61571 93.059 10.1313C94.043 10.647 94.805 11.3579 95.344 12.2642C95.891 13.1704 96.219 14.2017 96.328 15.3579H92.813C92.774 14.6704 92.637 14.0884 92.403 13.6118C92.168 13.1274 91.813 12.7642 91.336 12.522C90.867 12.272 90.242 12.147 89.461 12.147C88.875 12.147 88.363 12.2563 87.926 12.4751C87.488 12.6938 87.121 13.0259 86.824 13.4712C86.528 13.9165 86.305 14.479 86.156 15.1587C86.016 15.8306 85.946 16.6196 85.946 17.5259V18.7329C85.946 19.6157 86.012 20.3931 86.145 21.0649C86.278 21.729 86.481 22.2915 86.754 22.7524C87.035 23.2056 87.395 23.5493 87.832 23.7837C88.278 24.0103 88.813 24.1235 89.438 24.1235C90.172 24.1235 90.778 24.0063 91.254 23.772C91.731 23.5376 92.094 23.1899 92.344 22.729C92.602 22.2681 92.754 21.6938 92.801 21.0063ZM109.992 16.5532V19.2954H101.086V16.5532H109.992ZM102.129 9.60401V26.6665H98.613V9.60401H102.129ZM112.5 9.60401V26.6665H108.996V9.60401H112.5ZM127.008 23.9243V26.6665H117.926V23.9243H127.008ZM119.074 9.60401V26.6665H115.559V9.60401H119.074ZM125.824 16.5532V19.2251H117.926V16.5532H125.824ZM126.996 9.60401V12.3579H117.926V9.60401H126.996ZM138.949 21.0063H142.453C142.383 22.1548 142.067 23.1743 141.504 24.0649C140.949 24.9556 140.172 25.6509 139.172 26.1509C138.18 26.6509 136.985 26.9009 135.586 26.9009C134.492 26.9009 133.512 26.7134 132.645 26.3384C131.778 25.9556 131.035 25.4087 130.418 24.6977C129.809 23.9868 129.344 23.1274 129.024 22.1196C128.703 21.1118 128.543 19.9829 128.543 18.7329V17.5493C128.543 16.2993 128.707 15.1704 129.035 14.1626C129.371 13.147 129.848 12.2837 130.465 11.5727C131.09 10.8618 131.836 10.3149 132.703 9.93211C133.57 9.54931 134.539 9.35791 135.61 9.35791C137.031 9.35791 138.231 9.61571 139.207 10.1313C140.192 10.647 140.953 11.3579 141.492 12.2642C142.039 13.1704 142.367 14.2017 142.477 15.3579H138.961C138.922 14.6704 138.785 14.0884 138.551 13.6118C138.317 13.1274 137.961 12.7642 137.485 12.522C137.016 12.272 136.391 12.147 135.61 12.147C135.024 12.147 134.512 12.2563 134.074 12.4751C133.637 12.6938 133.27 13.0259 132.973 13.4712C132.676 13.9165 132.453 14.479 132.305 15.1587C132.164 15.8306 132.094 16.6196 132.094 17.5259V18.7329C132.094 19.6157 132.16 20.3931 132.293 21.0649C132.426 21.729 132.629 22.2915 132.903 22.7524C133.184 23.2056 133.543 23.5493 133.981 23.7837C134.426 24.0103 134.961 24.1235 135.586 24.1235C136.32 24.1235 136.926 24.0063 137.403 23.772C137.879 23.5376 138.242 23.1899 138.492 22.729C138.75 22.2681 138.903 21.6938 138.949 21.0063ZM148.278 9.60401V26.6665H144.762V9.60401H148.278ZM158.496 9.60401L151.735 18.0298L147.832 22.2251L147.199 18.897L149.836 15.2876L154.184 9.60401H158.496ZM154.5 26.6665L149.473 18.7798L152.074 16.6001L158.66 26.6665H154.5Z" fill="#141416"/>
<path d="M211.438 15.5828L210.554 17.7698C210.275 18.5143 210.275 19.3054 210.554 20.0499L211.438 22.2369C211.95 23.5398 211.531 25.0288 210.368 25.8664L208.413 27.2158C207.762 27.6812 207.343 28.3791 207.157 29.1237L206.738 31.4503C206.459 32.8462 205.296 33.87 203.9 33.9165L201.526 34.0095C200.735 34.0561 199.991 34.3818 199.433 34.9402L197.804 36.6619C196.827 37.6856 195.291 37.9183 194.081 37.2203L192.034 36.0104C191.336 35.5916 190.545 35.4986 189.754 35.6847L187.427 36.2431C186.078 36.5688 184.635 35.9174 183.984 34.661L182.914 32.5205C182.541 31.8225 181.936 31.2641 181.192 31.0315L178.958 30.287C177.609 29.8216 176.771 28.5187 176.911 27.1228L177.144 24.7496C177.237 23.9586 177.004 23.1675 176.492 22.5626L175.003 20.7013C174.119 19.5846 174.119 18.049 175.003 16.9322L176.492 15.0709C177.004 14.466 177.237 13.675 177.144 12.8839L176.911 10.5108C176.771 9.1148 177.609 7.8119 178.958 7.3466L181.192 6.6021C181.936 6.3694 182.541 5.811 182.914 5.113L183.984 2.9725C184.635 1.7162 186.031 1.0647 187.427 1.3905L189.754 1.9488C190.498 2.135 191.336 2.0419 192.034 1.6231L194.081 0.413299C195.291 -0.284701 196.827 -0.0986003 197.804 0.9717L199.433 2.6934C199.991 3.2517 200.735 3.624 201.526 3.624L203.9 3.7171C205.296 3.7636 206.505 4.7873 206.738 6.1833L207.157 8.5099C207.296 9.3009 207.762 9.9989 208.413 10.4177L210.368 11.7671C211.531 12.7908 211.996 14.2799 211.438 15.5828Z" fill="#DA291C"/>
<g opacity="0.15">
<path d="M185.333 34.5215L184.263 32.381C183.891 31.683 183.286 31.1246 182.541 30.8919L180.308 30.1474C178.958 29.6821 178.121 28.3792 178.26 26.9832L178.493 24.6101C178.586 23.819 178.353 23.028 177.842 22.4231L176.353 20.5618C175.468 19.445 175.468 17.9095 176.353 16.7927L177.842 14.9314C178.353 14.3265 178.586 13.5354 178.493 12.7444L178.26 10.3712C178.121 8.97528 178.958 7.67238 180.308 7.20698L182.541 6.46248C183.286 6.22988 183.891 5.67148 184.263 4.97348L185.333 2.83298C185.706 2.08848 186.357 1.57658 187.055 1.34398C185.799 1.15788 184.542 1.80928 183.984 2.97258L182.914 5.11308C182.541 5.81108 181.936 6.36948 181.192 6.60208L178.958 7.34658C177.609 7.81198 176.771 9.11488 176.911 10.5108L177.144 12.884C177.237 13.675 177.004 14.4661 176.492 15.071L175.003 16.9323C174.119 18.0491 174.119 19.5846 175.003 20.7014L176.492 22.5627C177.004 23.1676 177.237 23.9586 177.144 24.7497L176.911 27.1228C176.771 28.5188 177.609 29.8217 178.958 30.287L181.192 31.0315C181.936 31.2642 182.541 31.8226 182.914 32.5206L183.984 34.6611C184.635 35.9174 186.031 36.5689 187.427 36.2432L187.706 36.1966C186.683 36.0105 185.799 35.4521 185.333 34.5215Z" fill="#141416"/>
<path d="M193.338 1.48351L195.385 0.273716C195.571 0.180616 195.757 0.0875153 195.943 0.0410153C195.292 -0.0520847 194.594 0.0875145 194.036 0.413314L191.988 1.62312C191.802 1.71622 191.616 1.80922 191.43 1.85582C192.081 1.94882 192.733 1.85581 193.338 1.48351Z" fill="#141416"/>
<path d="M202.827 33.8235C202.595 33.8235 202.362 33.8701 202.176 33.9166L203.851 33.8235C204.084 33.8235 204.27 33.777 204.503 33.7305L202.827 33.8235Z" fill="#141416"/>
<path d="M195.383 37.0342L193.336 35.8244C192.638 35.4056 191.847 35.3125 191.056 35.4986L190.777 35.5452C191.195 35.5917 191.568 35.7313 191.94 35.9174L193.987 37.1273C194.778 37.5926 195.662 37.6391 196.5 37.3599C196.128 37.3599 195.755 37.2669 195.383 37.0342Z" fill="#141416"/>
</g>
<path d="M185.613 15.955L191.43 22.6091L203.342 13.0234" fill="#DA291C"/>
<path d="M190.566 24.6665C190.042 24.6665 189.519 24.4319 189.145 24.0018L184.469 18.4107C183.796 17.5896 183.871 16.3776 184.619 15.6347C185.405 14.9309 186.564 15.0091 187.275 15.7911L190.79 19.9747L198.982 13.0933C199.767 12.4286 200.964 12.5459 201.6 13.4061C202.236 14.2662 202.123 15.4783 201.301 16.143L191.726 24.2364C191.389 24.5101 190.977 24.6665 190.566 24.6665Z" fill="white"/>
<path d="M52.2004 53.5015H53.5134C53.4454 54.1304 53.2654 54.6932 52.9734 55.1899C52.6814 55.6867 52.2694 56.0809 51.7364 56.3726C51.2024 56.6597 50.5374 56.8032 49.7394 56.8032C49.1564 56.8032 48.6254 56.6938 48.1474 56.4751C47.6734 56.2563 47.2654 55.9464 46.9234 55.5454C46.5814 55.1398 46.3174 54.6545 46.1304 54.0894C45.9484 53.5197 45.8574 52.8862 45.8574 52.189V51.1977C45.8574 50.5005 45.9484 49.8693 46.1304 49.3042C46.3174 48.7345 46.5844 48.2469 46.9304 47.8413C47.2814 47.4357 47.7024 47.1235 48.1954 46.9048C48.6874 46.686 49.2404 46.5767 49.8564 46.5767C50.6084 46.5767 51.2434 46.7179 51.7634 47.0005C52.2824 47.283 52.6864 47.675 52.9734 48.1763C53.2654 48.673 53.4454 49.2495 53.5134 49.9058H52.2004C52.1374 49.4409 52.0184 49.0422 51.8454 48.7095C51.6724 48.3722 51.4264 48.1125 51.1074 47.9302C50.7884 47.7479 50.3714 47.6567 49.8564 47.6567C49.4144 47.6567 49.0244 47.741 48.6874 47.9097C48.3544 48.0783 48.0744 48.3175 47.8464 48.6274C47.6234 48.9373 47.4544 49.3088 47.3404 49.7417C47.2264 50.1746 47.1694 50.6554 47.1694 51.1841V52.189C47.1694 52.6766 47.2194 53.1346 47.3204 53.563C47.4244 53.9914 47.5824 54.3673 47.7914 54.6909C48.0014 55.0145 48.2674 55.2697 48.5914 55.4565C48.9154 55.6388 49.2974 55.73 49.7394 55.73C50.3004 55.73 50.7474 55.6411 51.0794 55.4634C51.4124 55.2856 51.6634 55.0304 51.8314 54.6977C52.0044 54.3651 52.1274 53.9663 52.2004 53.5015ZM59.4814 55.4019V51.5942C59.4814 51.3026 59.4214 51.0496 59.3034 50.8354C59.1894 50.6167 59.0164 50.4481 58.7834 50.3296C58.5514 50.2111 58.2644 50.1519 57.9224 50.1519C57.6034 50.1519 57.3234 50.2065 57.0814 50.3159C56.8444 50.4253 56.6574 50.5688 56.5214 50.7466C56.3894 50.9243 56.3224 51.1157 56.3224 51.3208H55.0584C55.0584 51.0565 55.1264 50.7944 55.2634 50.5347C55.4004 50.2749 55.5964 50.0402 55.8514 49.8306C56.1114 49.6164 56.4204 49.4477 56.7804 49.3247C57.1454 49.1971 57.5514 49.1333 57.9974 49.1333C58.5354 49.1333 59.0094 49.2244 59.4194 49.4067C59.8344 49.589 60.1574 49.8647 60.3904 50.2339C60.6274 50.5985 60.7454 51.0565 60.7454 51.6079V55.0532C60.7454 55.2993 60.7664 55.5614 60.8074 55.8394C60.8524 56.1173 60.9184 56.3566 61.0054 56.5571V56.6665H59.6864C59.6224 56.5207 59.5724 56.327 59.5354 56.0854C59.4994 55.8394 59.4814 55.6115 59.4814 55.4019ZM59.6994 52.1821L59.7134 53.0708H58.4354C58.0754 53.0708 57.7534 53.1004 57.4714 53.1597C57.1884 53.2144 56.9514 53.2987 56.7604 53.4126C56.5694 53.5265 56.4234 53.6701 56.3224 53.8433C56.2224 54.0119 56.1724 54.2101 56.1724 54.438C56.1724 54.6704 56.2244 54.8823 56.3294 55.0737C56.4344 55.2651 56.5914 55.4178 56.8014 55.5317C57.0154 55.6411 57.2774 55.6958 57.5874 55.6958C57.9744 55.6958 58.3164 55.6138 58.6124 55.4497C58.9094 55.2856 59.1434 55.0851 59.3174 54.8481C59.4944 54.6112 59.5904 54.381 59.6044 54.1577L60.1444 54.7661C60.1124 54.9575 60.0254 55.1694 59.8844 55.4019C59.7434 55.6343 59.5544 55.8576 59.3174 56.0718C59.0844 56.2814 58.8064 56.4569 58.4834 56.5981C58.1644 56.7349 57.8044 56.8032 57.4034 56.8032C56.9014 56.8032 56.4614 56.7052 56.0834 56.5093C55.7094 56.3133 55.4184 56.0513 55.2084 55.7231C55.0034 55.3905 54.9014 55.019 54.9014 54.6089C54.9014 54.2124 54.9784 53.8638 55.1334 53.563C55.2884 53.2576 55.5114 53.0047 55.8034 52.8042C56.0954 52.5991 56.4464 52.4442 56.8564 52.3394C57.2664 52.2345 57.7244 52.1821 58.2304 52.1821H59.6994ZM63.9994 50.8491V56.6665H62.7354V49.27H63.9314L63.9994 50.8491ZM63.6984 52.688L63.1724 52.6675C63.1774 52.1616 63.2524 51.6945 63.3984 51.2661C63.5434 50.8332 63.7494 50.4572 64.0134 50.1382C64.2774 49.8192 64.5924 49.5731 64.9564 49.3999C65.3254 49.2222 65.7334 49.1333 66.1804 49.1333C66.5444 49.1333 66.8734 49.1834 67.1644 49.2837C67.4564 49.3794 67.7044 49.5343 67.9094 49.7485C68.1194 49.9627 68.2794 50.2407 68.3884 50.5825C68.4974 50.9198 68.5524 51.3322 68.5524 51.8198V56.6665H67.2804V51.8061C67.2804 51.4188 67.2234 51.1089 67.1104 50.8765C66.9964 50.6395 66.8294 50.4686 66.6114 50.3638C66.3924 50.2544 66.1234 50.1997 65.8044 50.1997C65.4894 50.1997 65.2024 50.2658 64.9434 50.3979C64.6874 50.5301 64.4664 50.7124 64.2794 50.9448C64.0974 51.1772 63.9544 51.4438 63.8494 51.7446C63.7494 52.0408 63.6984 52.3553 63.6984 52.688ZM71.7374 50.8491V56.6665H70.4734V49.27H71.6694L71.7374 50.8491ZM71.4374 52.688L70.9104 52.6675C70.9154 52.1616 70.9904 51.6945 71.1364 51.2661C71.2824 50.8332 71.4874 50.4572 71.7514 50.1382C72.0154 49.8192 72.3304 49.5731 72.6954 49.3999C73.0644 49.2222 73.4724 49.1333 73.9184 49.1333C74.2834 49.1333 74.6114 49.1834 74.9034 49.2837C75.1944 49.3794 75.4434 49.5343 75.6484 49.7485C75.8574 49.9627 76.0174 50.2407 76.1264 50.5825C76.2364 50.9198 76.2904 51.3322 76.2904 51.8198V56.6665H75.0194V51.8061C75.0194 51.4188 74.9624 51.1089 74.8484 50.8765C74.7344 50.6395 74.5684 50.4686 74.3494 50.3638C74.1304 50.2544 73.8614 50.1997 73.5424 50.1997C73.2284 50.1997 72.9414 50.2658 72.6814 50.3979C72.4264 50.5301 72.2054 50.7124 72.0184 50.9448C71.8354 51.1772 71.6924 51.4438 71.5874 51.7446C71.4874 52.0408 71.4374 52.3553 71.4374 52.688ZM77.8764 53.0503V52.8931C77.8764 52.3599 77.9544 51.8654 78.1094 51.4097C78.2644 50.9494 78.4874 50.5506 78.7794 50.2134C79.0704 49.8716 79.4234 49.6073 79.8384 49.4204C80.2534 49.229 80.7184 49.1333 81.2334 49.1333C81.7524 49.1333 82.2194 49.229 82.6344 49.4204C83.0534 49.6073 83.4094 49.8716 83.7004 50.2134C83.9974 50.5506 84.2224 50.9494 84.3774 51.4097C84.5324 51.8654 84.6104 52.3599 84.6104 52.8931V53.0503C84.6104 53.5835 84.5324 54.078 84.3774 54.5337C84.2224 54.9894 83.9974 55.3882 83.7004 55.73C83.4094 56.0672 83.0564 56.3315 82.6414 56.5229C82.2314 56.7098 81.7664 56.8032 81.2464 56.8032C80.7274 56.8032 80.2604 56.7098 79.8454 56.5229C79.4304 56.3315 79.0754 56.0672 78.7794 55.73C78.4874 55.3882 78.2644 54.9894 78.1094 54.5337C77.9544 54.078 77.8764 53.5835 77.8764 53.0503ZM79.1414 52.8931V53.0503C79.1414 53.4194 79.1844 53.7681 79.2714 54.0962C79.3574 54.4198 79.4874 54.7069 79.6604 54.9575C79.8384 55.2082 80.0594 55.4064 80.3234 55.5522C80.5884 55.6935 80.8954 55.7642 81.2464 55.7642C81.5934 55.7642 81.8964 55.6935 82.1554 55.5522C82.4204 55.4064 82.6394 55.2082 82.8124 54.9575C82.9854 54.7069 83.1154 54.4198 83.2014 54.0962C83.2934 53.7681 83.3384 53.4194 83.3384 53.0503V52.8931C83.3384 52.5285 83.2934 52.1844 83.2014 51.8608C83.1154 51.5327 82.9834 51.2433 82.8054 50.9927C82.6324 50.7375 82.4134 50.5369 82.1494 50.3911C81.8894 50.2453 81.5844 50.1724 81.2334 50.1724C80.8864 50.1724 80.5814 50.2453 80.3174 50.3911C80.0574 50.5369 79.8384 50.7375 79.6604 50.9927C79.4874 51.2433 79.3574 51.5327 79.2714 51.8608C79.1844 52.1844 79.1414 52.5285 79.1414 52.8931ZM89.2924 49.27V50.2407H85.2934V49.27H89.2924ZM86.6474 47.4722H87.9114V54.8345C87.9114 55.0851 87.9504 55.2742 88.0284 55.4019C88.1054 55.5295 88.2054 55.6138 88.3284 55.6548C88.4514 55.6958 88.5844 55.7163 88.7254 55.7163C88.8304 55.7163 88.9394 55.7072 89.0534 55.689C89.1714 55.6662 89.2604 55.6479 89.3204 55.6343L89.3264 56.6665C89.2264 56.6984 89.0944 56.728 88.9304 56.7554C88.7704 56.7873 88.5774 56.8032 88.3494 56.8032C88.0394 56.8032 87.7544 56.7417 87.4944 56.6186C87.2354 56.4956 87.0274 56.2905 86.8724 56.0034C86.7224 55.7117 86.6474 55.3198 86.6474 54.8276V47.4722ZM95.5064 50.7397V56.6665H94.2354V49.27H95.4384L95.5064 50.7397ZM95.2464 52.688L94.6584 52.6675C94.6634 52.1616 94.7294 51.6945 94.8574 51.2661C94.9844 50.8332 95.1734 50.4572 95.4244 50.1382C95.6754 49.8192 95.9874 49.5731 96.3614 49.3999C96.7344 49.2222 97.1674 49.1333 97.6594 49.1333C98.0064 49.1333 98.3254 49.1834 98.6164 49.2837C98.9084 49.3794 99.1614 49.5321 99.3754 49.7417C99.5894 49.9513 99.7564 50.2202 99.8744 50.5483C99.9934 50.8765 100.052 51.2729 100.052 51.7378V56.6665H98.7874V51.7993C98.7874 51.4119 98.7214 51.102 98.5894 50.8696C98.4614 50.6372 98.2794 50.4686 98.0424 50.3638C97.8054 50.2544 97.5274 50.1997 97.2084 50.1997C96.8344 50.1997 96.5224 50.2658 96.2724 50.3979C96.0214 50.5301 95.8204 50.7124 95.6704 50.9448C95.5204 51.1772 95.4104 51.4438 95.3424 51.7446C95.2784 52.0408 95.2464 52.3553 95.2464 52.688ZM100.038 51.9907L99.1914 52.2505C99.1954 51.8449 99.2614 51.4552 99.3894 51.0815C99.5214 50.7078 99.7104 50.3752 99.9564 50.0835C100.207 49.7918 100.515 49.5617 100.879 49.3931C101.244 49.2199 101.661 49.1333 102.13 49.1333C102.527 49.1333 102.877 49.1857 103.183 49.2905C103.493 49.3953 103.752 49.5571 103.962 49.7759C104.176 49.9901 104.338 50.2658 104.447 50.603C104.557 50.9403 104.612 51.3413 104.612 51.8061V56.6665H103.34V51.7925C103.34 51.3778 103.274 51.0565 103.142 50.8286C103.014 50.5962 102.832 50.4344 102.595 50.3433C102.362 50.2476 102.084 50.1997 101.761 50.1997C101.483 50.1997 101.237 50.2476 101.023 50.3433C100.808 50.439 100.628 50.5711 100.483 50.7397C100.337 50.9038 100.225 51.0929 100.148 51.3071C100.075 51.5213 100.038 51.7492 100.038 51.9907ZM107.9 49.27V56.6665H106.628V49.27H107.9ZM106.532 47.3081C106.532 47.103 106.594 46.9298 106.717 46.7886C106.845 46.6473 107.031 46.5767 107.278 46.5767C107.519 46.5767 107.704 46.6473 107.831 46.7886C107.963 46.9298 108.029 47.103 108.029 47.3081C108.029 47.5041 107.963 47.6727 107.831 47.814C107.704 47.9507 107.519 48.019 107.278 48.019C107.031 48.019 106.845 47.9507 106.717 47.814C106.594 47.6727 106.532 47.5041 106.532 47.3081ZM114.237 54.7046C114.237 54.5223 114.196 54.3537 114.113 54.1987C114.036 54.0392 113.874 53.8957 113.628 53.7681C113.387 53.6359 113.022 53.522 112.534 53.4263C112.124 53.3397 111.753 53.2371 111.42 53.1186C111.092 53.0002 110.812 52.8566 110.579 52.688C110.351 52.5194 110.176 52.3211 110.053 52.0933C109.93 51.8654 109.868 51.5988 109.868 51.2935C109.868 51.0018 109.932 50.7261 110.06 50.4663C110.192 50.2065 110.376 49.9764 110.613 49.7759C110.855 49.5754 111.144 49.4181 111.482 49.3042C111.819 49.1903 112.195 49.1333 112.61 49.1333C113.202 49.1333 113.708 49.2381 114.127 49.4477C114.546 49.6574 114.868 49.9377 115.091 50.2886C115.314 50.6349 115.426 51.02 115.426 51.4438H114.161C114.161 51.2388 114.1 51.0405 113.977 50.8491C113.858 50.6532 113.683 50.4914 113.45 50.3638C113.223 50.2362 112.942 50.1724 112.61 50.1724C112.259 50.1724 111.974 50.227 111.755 50.3364C111.541 50.4412 111.384 50.5757 111.283 50.7397C111.188 50.9038 111.14 51.077 111.14 51.2593C111.14 51.396 111.163 51.519 111.208 51.6284C111.258 51.7332 111.345 51.8312 111.468 51.9224C111.591 52.0089 111.764 52.091 111.987 52.1685C112.211 52.2459 112.496 52.3234 112.842 52.4009C113.448 52.5376 113.947 52.7017 114.339 52.8931C114.731 53.0845 115.023 53.3192 115.214 53.5972C115.405 53.8752 115.501 54.2124 115.501 54.6089C115.501 54.9325 115.433 55.2287 115.296 55.4976C115.164 55.7664 114.97 55.9989 114.715 56.1948C114.464 56.3862 114.164 56.5366 113.813 56.646C113.466 56.7508 113.077 56.8032 112.644 56.8032C111.992 56.8032 111.441 56.687 110.989 56.4546C110.538 56.2222 110.196 55.9214 109.964 55.5522C109.732 55.1831 109.615 54.7935 109.615 54.3833H110.887C110.905 54.7297 111.005 55.0054 111.188 55.2104C111.37 55.411 111.593 55.5545 111.858 55.6411C112.122 55.7231 112.384 55.7642 112.644 55.7642C112.99 55.7642 113.279 55.7186 113.512 55.6274C113.749 55.5363 113.929 55.411 114.052 55.2515C114.175 55.092 114.237 54.9097 114.237 54.7046ZM121.469 54.7046C121.469 54.5223 121.428 54.3537 121.346 54.1987C121.268 54.0392 121.107 53.8957 120.861 53.7681C120.619 53.6359 120.254 53.522 119.767 53.4263C119.357 53.3397 118.985 53.2371 118.653 53.1186C118.324 53.0002 118.044 52.8566 117.812 52.688C117.584 52.5194 117.408 52.3211 117.285 52.0933C117.162 51.8654 117.101 51.5988 117.101 51.2935C117.101 51.0018 117.165 50.7261 117.292 50.4663C117.424 50.2065 117.609 49.9764 117.846 49.7759C118.087 49.5754 118.377 49.4181 118.714 49.3042C119.051 49.1903 119.427 49.1333 119.842 49.1333C120.434 49.1333 120.94 49.2381 121.36 49.4477C121.779 49.6574 122.1 49.9377 122.323 50.2886C122.547 50.6349 122.658 51.02 122.658 51.4438H121.394C121.394 51.2388 121.332 51.0405 121.209 50.8491C121.091 50.6532 120.915 50.4914 120.683 50.3638C120.455 50.2362 120.175 50.1724 119.842 50.1724C119.491 50.1724 119.206 50.227 118.987 50.3364C118.773 50.4412 118.616 50.5757 118.516 50.7397C118.42 50.9038 118.372 51.077 118.372 51.2593C118.372 51.396 118.395 51.519 118.441 51.6284C118.491 51.7332 118.577 51.8312 118.7 51.9224C118.823 52.0089 118.997 52.091 119.22 52.1685C119.443 52.2459 119.728 52.3234 120.074 52.4009C120.681 52.5376 121.18 52.7017 121.571 52.8931C121.963 53.0845 122.255 53.3192 122.446 53.5972C122.638 53.8752 122.734 54.2124 122.734 54.6089C122.734 54.9325 122.665 55.2287 122.529 55.4976C122.396 55.7664 122.203 55.9989 121.947 56.1948C121.697 56.3862 121.396 56.5366 121.045 56.646C120.699 56.7508 120.309 56.8032 119.876 56.8032C119.224 56.8032 118.673 56.687 118.222 56.4546C117.771 56.2222 117.429 55.9214 117.196 55.5522C116.964 55.1831 116.848 54.7935 116.848 54.3833H118.119C118.138 54.7297 118.238 55.0054 118.42 55.2104C118.602 55.411 118.826 55.5545 119.09 55.6411C119.354 55.7231 119.616 55.7642 119.876 55.7642C120.223 55.7642 120.512 55.7186 120.744 55.6274C120.981 55.5363 121.161 55.411 121.284 55.2515C121.407 55.092 121.469 54.9097 121.469 54.7046ZM130.964 49.27V50.2407H126.965V49.27H130.964ZM128.319 47.4722H129.583V54.8345C129.583 55.0851 129.622 55.2742 129.699 55.4019C129.777 55.5295 129.877 55.6138 130 55.6548C130.123 55.6958 130.255 55.7163 130.397 55.7163C130.501 55.7163 130.611 55.7072 130.725 55.689C130.843 55.6662 130.932 55.6479 130.991 55.6343L130.998 56.6665C130.898 56.6984 130.766 56.728 130.602 56.7554C130.442 56.7873 130.249 56.8032 130.021 56.8032C129.711 56.8032 129.426 56.7417 129.166 56.6186C128.906 56.4956 128.699 56.2905 128.544 56.0034C128.394 55.7117 128.319 55.3198 128.319 54.8276V47.4722ZM131.976 53.0503V52.8931C131.976 52.3599 132.053 51.8654 132.208 51.4097C132.363 50.9494 132.586 50.5506 132.878 50.2134C133.17 49.8716 133.523 49.6073 133.938 49.4204C134.352 49.229 134.817 49.1333 135.332 49.1333C135.852 49.1333 136.319 49.229 136.734 49.4204C137.153 49.6073 137.508 49.8716 137.8 50.2134C138.096 50.5506 138.322 50.9494 138.477 51.4097C138.632 51.8654 138.709 52.3599 138.709 52.8931V53.0503C138.709 53.5835 138.632 54.078 138.477 54.5337C138.322 54.9894 138.096 55.3882 137.8 55.73C137.508 56.0672 137.155 56.3315 136.74 56.5229C136.33 56.7098 135.865 56.8032 135.346 56.8032C134.826 56.8032 134.359 56.7098 133.945 56.5229C133.53 56.3315 133.174 56.0672 132.878 55.73C132.586 55.3882 132.363 54.9894 132.208 54.5337C132.053 54.078 131.976 53.5835 131.976 53.0503ZM133.24 52.8931V53.0503C133.24 53.4194 133.284 53.7681 133.37 54.0962C133.457 54.4198 133.587 54.7069 133.76 54.9575C133.938 55.2082 134.159 55.4064 134.423 55.5522C134.687 55.6935 134.995 55.7642 135.346 55.7642C135.692 55.7642 135.995 55.6935 136.255 55.5522C136.519 55.4064 136.738 55.2082 136.911 54.9575C137.084 54.7069 137.214 54.4198 137.301 54.0962C137.392 53.7681 137.438 53.4194 137.438 53.0503V52.8931C137.438 52.5285 137.392 52.1844 137.301 51.8608C137.214 51.5327 137.082 51.2433 136.904 50.9927C136.731 50.7375 136.513 50.5369 136.248 50.3911C135.988 50.2453 135.683 50.1724 135.332 50.1724C134.986 50.1724 134.681 50.2453 134.416 50.3911C134.156 50.5369 133.938 50.7375 133.76 50.9927C133.587 51.2433 133.457 51.5327 133.37 51.8608C133.284 52.1844 133.24 52.5285 133.24 52.8931ZM144.957 55.231V46.1665H146.229V56.6665H145.067L144.957 55.231ZM139.981 53.0503V52.9067C139.981 52.3416 140.049 51.8289 140.186 51.3686C140.327 50.9038 140.525 50.505 140.78 50.1724C141.04 49.8397 141.348 49.5845 141.703 49.4067C142.063 49.2244 142.464 49.1333 142.906 49.1333C143.371 49.1333 143.777 49.2153 144.123 49.3794C144.474 49.5389 144.77 49.7736 145.012 50.0835C145.258 50.3888 145.452 50.758 145.593 51.1909C145.734 51.6239 145.832 52.1138 145.887 52.6606V53.2895C145.837 53.8319 145.739 54.3195 145.593 54.7524C145.452 55.1854 145.258 55.5545 145.012 55.8599C144.77 56.1652 144.474 56.3999 144.123 56.564C143.772 56.7235 143.362 56.8032 142.893 56.8032C142.46 56.8032 142.063 56.7098 141.703 56.5229C141.348 56.3361 141.04 56.0741 140.78 55.7368C140.525 55.3996 140.327 55.0031 140.186 54.5474C140.049 54.0871 139.981 53.588 139.981 53.0503ZM141.252 52.9067V53.0503C141.252 53.4194 141.289 53.7658 141.362 54.0894C141.439 54.4129 141.557 54.6977 141.717 54.9438C141.876 55.1899 142.079 55.3836 142.325 55.5249C142.571 55.6616 142.865 55.73 143.207 55.73C143.626 55.73 143.971 55.6411 144.239 55.4634C144.513 55.2856 144.732 55.0509 144.896 54.7593C145.06 54.4676 145.187 54.1509 145.279 53.8091V52.1616C145.224 51.911 145.144 51.6694 145.039 51.437C144.939 51.2 144.807 50.9904 144.643 50.8081C144.483 50.6213 144.285 50.4731 144.048 50.3638C143.816 50.2544 143.54 50.1997 143.221 50.1997C142.875 50.1997 142.576 50.2726 142.325 50.4185C142.079 50.5597 141.876 50.7557 141.717 51.0063C141.557 51.2524 141.439 51.5395 141.362 51.8677C141.289 52.1912 141.252 52.5376 141.252 52.9067ZM152.559 55.4019V51.5942C152.559 51.3026 152.5 51.0496 152.381 50.8354C152.267 50.6167 152.094 50.4481 151.862 50.3296C151.629 50.2111 151.342 50.1519 151 50.1519C150.681 50.1519 150.401 50.2065 150.159 50.3159C149.922 50.4253 149.736 50.5688 149.599 50.7466C149.467 50.9243 149.401 51.1157 149.401 51.3208H148.136C148.136 51.0565 148.204 50.7944 148.341 50.5347C148.478 50.2749 148.674 50.0402 148.929 49.8306C149.189 49.6164 149.499 49.4477 149.859 49.3247C150.223 49.1971 150.629 49.1333 151.075 49.1333C151.613 49.1333 152.087 49.2244 152.497 49.4067C152.912 49.589 153.236 49.8647 153.468 50.2339C153.705 50.5985 153.823 51.0565 153.823 51.6079V55.0532C153.823 55.2993 153.844 55.5614 153.885 55.8394C153.931 56.1173 153.997 56.3566 154.083 56.5571V56.6665H152.764C152.7 56.5207 152.65 56.327 152.613 56.0854C152.577 55.8394 152.559 55.6115 152.559 55.4019ZM152.778 52.1821L152.791 53.0708H151.513C151.153 53.0708 150.832 53.1004 150.549 53.1597C150.266 53.2144 150.029 53.2987 149.838 53.4126C149.647 53.5265 149.501 53.6701 149.401 53.8433C149.3 54.0119 149.25 54.2101 149.25 54.438C149.25 54.6704 149.303 54.8823 149.407 55.0737C149.512 55.2651 149.669 55.4178 149.879 55.5317C150.093 55.6411 150.355 55.6958 150.665 55.6958C151.053 55.6958 151.394 55.6138 151.691 55.4497C151.987 55.2856 152.222 55.0851 152.395 54.8481C152.572 54.6112 152.668 54.381 152.682 54.1577L153.222 54.7661C153.19 54.9575 153.103 55.1694 152.962 55.4019C152.821 55.6343 152.632 55.8576 152.395 56.0718C152.162 56.2814 151.884 56.4569 151.561 56.5981C151.242 56.7349 150.882 56.8032 150.481 56.8032C149.979 56.8032 149.54 56.7052 149.161 56.5093C148.788 56.3133 148.496 56.0513 148.286 55.7231C148.081 55.3905 147.979 55.019 147.979 54.6089C147.979 54.2124 148.056 53.8638 148.211 53.563C148.366 53.2576 148.589 53.0047 148.881 52.8042C149.173 52.5991 149.524 52.4442 149.934 52.3394C150.344 52.2345 150.802 52.1821 151.308 52.1821H152.778ZM157.781 55.9009L159.839 49.27H161.193L158.226 57.8081C158.157 57.9904 158.066 58.1864 157.952 58.396C157.843 58.6102 157.702 58.813 157.529 59.0044C157.355 59.1958 157.146 59.3507 156.9 59.4692C156.658 59.5923 156.369 59.6538 156.031 59.6538C155.931 59.6538 155.804 59.6401 155.649 59.6128C155.494 59.5854 155.384 59.5627 155.32 59.5444L155.314 58.519C155.35 58.5236 155.407 58.5282 155.485 58.5327C155.567 58.5418 155.624 58.5464 155.655 58.5464C155.943 58.5464 156.186 58.5076 156.387 58.4302C156.587 58.3573 156.756 58.2319 156.893 58.0542C157.034 57.881 157.155 57.6418 157.255 57.3364L157.781 55.9009ZM156.271 49.27L158.192 55.0122L158.52 56.3452L157.611 56.8101L154.89 49.27H156.271ZM163.838 46.7134L163.749 53.8569H162.608L162.512 46.7134H163.838ZM162.471 56.0308C162.471 55.8257 162.532 55.6525 162.655 55.5112C162.783 55.37 162.97 55.2993 163.216 55.2993C163.458 55.2993 163.642 55.37 163.77 55.5112C163.902 55.6525 163.968 55.8257 163.968 56.0308C163.968 56.2267 163.902 56.3953 163.77 56.5366C163.642 56.6779 163.458 56.7485 163.216 56.7485C162.97 56.7485 162.783 56.6779 162.655 56.5366C162.532 56.3953 162.471 56.2267 162.471 56.0308Z" fill="#777E90"/>
</g>
<defs>
<clipPath id="clip0_1018_384391">
<rect width="212" height="60" fill="white"/>
</clipPath>
</defs>
</svg>
