<svg width="244" height="60" viewBox="0 0 244 60" fill="none" xmlns="http://www.w3.org/2000/svg">
<g clip-path="url(#clip0_1018_384436)">
<path d="M8.41511 44.5791V32.7549H11.9107V44.5791C11.9107 45.7197 11.6614 46.7002 11.1626 47.5205C10.6638 48.333 9.98175 48.958 9.11657 49.3955C8.25917 49.833 7.29273 50.0518 6.21704 50.0518C5.10255 50.0518 4.11655 49.8643 3.25916 49.4893C2.40176 49.1143 1.72754 48.5401 1.23658 47.7666C0.74553 46.9854 0.5 45.9971 0.5 44.8018H4.01908C4.01908 45.4268 4.10488 45.9229 4.27628 46.2901C4.45556 46.6572 4.70887 46.919 5.03631 47.0752C5.36364 47.2315 5.75722 47.3096 6.21704 47.3096C6.6614 47.3096 7.0472 47.2041 7.37454 46.9932C7.70188 46.7822 7.95519 46.4736 8.13447 46.0674C8.32153 45.6612 8.41511 45.1651 8.41511 44.5791ZM24.3038 32.7549H27.7996V44.0283C27.7996 45.3408 27.5193 46.4463 26.9576 47.3447C26.4039 48.2432 25.6367 48.919 24.655 49.3721C23.6802 49.8252 22.5579 50.0518 21.2878 50.0518C20.0168 50.0518 18.8864 49.8252 17.8968 49.3721C16.915 48.919 16.1429 48.2432 15.5822 47.3447C15.0285 46.4463 14.7521 45.3408 14.7521 44.0283V32.7549H18.2589V44.0283C18.2589 44.794 18.3796 45.419 18.6221 45.9033C18.8635 46.3877 19.2097 46.7432 19.6626 46.9697C20.1226 47.1963 20.6643 47.3096 21.2878 47.3096C21.9263 47.3096 22.4681 47.1963 22.912 46.9697C23.365 46.7432 23.7072 46.3877 23.9416 45.9033C24.1831 45.419 24.3038 44.794 24.3038 44.0283V32.7549ZM39.5492 45.3526C39.5492 45.0479 39.5023 44.7744 39.4095 44.5322C39.3237 44.2822 39.1601 44.0557 38.9176 43.8526C38.6762 43.6416 38.337 43.4346 37.901 43.2315C37.464 43.0283 36.8994 42.8174 36.206 42.5986C35.4338 42.3486 34.7015 42.0674 34.0081 41.7549C33.3217 41.4424 32.7141 41.0791 32.1834 40.6651C31.6616 40.2432 31.2486 39.7549 30.9443 39.2002C30.648 38.6455 30.5003 38.001 30.5003 37.2666C30.5003 36.5557 30.6559 35.9112 30.9682 35.333C31.2795 34.7471 31.7165 34.2471 32.2772 33.833C32.8388 33.4112 33.5013 33.0869 34.2645 32.8604C35.0367 32.6338 35.8817 32.5205 36.8016 32.5205C38.0566 32.5205 39.1521 32.7471 40.0869 33.2002C41.0227 33.6533 41.747 34.2744 42.2618 35.0635C42.7836 35.8526 43.045 36.7549 43.045 37.7705H39.5611C39.5611 37.2705 39.4554 36.833 39.2459 36.458C39.0424 36.0752 38.7311 35.7744 38.3101 35.5557C37.897 35.3369 37.3752 35.2276 36.7437 35.2276C36.1351 35.2276 35.6293 35.3213 35.2233 35.5088C34.8182 35.6885 34.5139 35.9346 34.3114 36.2471C34.1089 36.5518 34.0081 36.8955 34.0081 37.2783C34.0081 37.5674 34.0779 37.8291 34.2176 38.0635C34.3663 38.2979 34.5848 38.5166 34.8731 38.7197C35.1614 38.9229 35.5156 39.1143 35.9366 39.294C36.3576 39.4736 36.8445 39.6494 37.3982 39.8213C38.326 40.1026 39.1401 40.419 39.8415 40.7705C40.5508 41.1221 41.1434 41.5166 41.6183 41.9541C42.0942 42.3916 42.4524 42.8877 42.6948 43.4424C42.9363 43.9971 43.057 44.626 43.057 45.3291C43.057 46.0713 42.9123 46.7354 42.624 47.3213C42.3357 47.9072 41.9186 48.4033 41.3729 48.8096C40.8272 49.2158 40.1767 49.5244 39.4205 49.7354C38.6642 49.9463 37.8192 50.0518 36.8834 50.0518C36.0424 50.0518 35.2123 49.9424 34.3932 49.7236C33.5751 49.4971 32.8309 49.1572 32.1604 48.7041C31.498 48.251 30.9682 47.6729 30.5701 46.9697C30.1731 46.2666 29.9745 45.4346 29.9745 44.4736H33.4933C33.4933 45.0049 33.5751 45.4541 33.7387 45.8213C33.9024 46.1885 34.1328 46.4854 34.4281 46.7119C34.7324 46.9385 35.0906 47.1026 35.5046 47.2041C35.9246 47.3057 36.3846 47.3565 36.8834 47.3565C37.492 47.3565 37.9908 47.2705 38.3799 47.0986C38.778 46.9268 39.0703 46.6885 39.2569 46.3838C39.4524 46.0791 39.5492 45.7354 39.5492 45.3526ZM53.0526 32.7549V49.8174H49.5568V32.7549H53.0526ZM58.2904 32.7549V35.5088H44.4008V32.7549H58.2904Z" fill="#141416"/>
<path d="M79.2852 35.6729L74.6561 49.8174H70.9258L77.251 32.7549H79.6245L79.2852 35.6729ZM83.1323 49.8174L78.4901 35.6729L78.116 32.7549H80.5134L86.8735 49.8174H83.1323ZM82.9217 43.4658V46.2197H73.9308V43.4658H82.9217ZM88.4518 32.7549H94.8C96.1019 32.7549 97.2203 32.9502 98.1552 33.3408C99.099 33.7315 99.8233 34.3096 100.33 35.0752C100.837 35.8408 101.09 36.7822 101.09 37.8994C101.09 38.8135 100.935 39.5986 100.622 40.2549C100.318 40.9033 99.8861 41.4463 99.3244 41.8838C98.7717 42.3135 98.1202 42.6572 97.372 42.9151L96.2616 43.501H90.7435L90.7195 40.7588H94.8239C95.4395 40.7588 95.9493 40.6494 96.3554 40.4307C96.7604 40.2119 97.0647 39.9072 97.2672 39.5166C97.4777 39.126 97.5825 38.6729 97.5825 38.1572C97.5825 37.6104 97.4817 37.1377 97.2782 36.7393C97.0757 36.3408 96.7684 36.0362 96.3554 35.8252C95.9423 35.6143 95.4235 35.5088 94.8 35.5088H91.9586V49.8174H88.4518V32.7549ZM97.9686 49.8174L94.0867 42.2119L97.793 42.1885L101.722 49.6533V49.8174H97.9686ZM103.791 32.7549H110.139C111.441 32.7549 112.56 32.9502 113.494 33.3408C114.438 33.7315 115.162 34.3096 115.669 35.0752C116.176 35.8408 116.429 36.7822 116.429 37.8994C116.429 38.8135 116.274 39.5986 115.962 40.2549C115.657 40.9033 115.225 41.4463 114.664 41.8838C114.111 42.3135 113.459 42.6572 112.711 42.9151L111.601 43.501H106.083L106.059 40.7588H110.163C110.779 40.7588 111.288 40.6494 111.695 40.4307C112.1 40.2119 112.404 39.9072 112.606 39.5166C112.817 39.126 112.922 38.6729 112.922 38.1572C112.922 37.6104 112.821 37.1377 112.617 36.7393C112.415 36.3408 112.108 36.0362 111.695 35.8252C111.281 35.6143 110.763 35.5088 110.139 35.5088H107.298V49.8174H103.791V32.7549ZM113.308 49.8174L109.426 42.2119L113.132 42.1885L117.061 49.6533V49.8174H113.308ZM122.859 32.7549V49.8174H119.364V32.7549H122.859ZM132.282 46.2549L136.293 32.7549H140.198L134.271 49.8174H131.698L132.282 46.2549ZM128.588 32.7549L132.587 46.2549L133.194 49.8174H130.599L124.707 32.7549H128.588ZM153.211 47.0752V49.8174H144.15V47.0752H153.211ZM145.295 32.7549V49.8174H141.788V32.7549H145.295ZM152.029 39.7041V42.376H144.15V39.7041H152.029ZM153.199 32.7549V35.5088H144.15V32.7549H153.199ZM160.483 49.8174H156.776L156.8 47.0752H160.483C161.402 47.0752 162.178 46.8682 162.809 46.4541C163.441 46.0322 163.916 45.419 164.236 44.6143C164.563 43.8096 164.727 42.8369 164.727 41.6963V40.8643C164.727 39.9893 164.633 39.2197 164.446 38.5557C164.267 37.8916 163.997 37.333 163.639 36.8799C163.281 36.4268 162.84 36.0869 162.318 35.8604C161.795 35.626 161.196 35.5088 160.517 35.5088H156.706V32.7549H160.517C161.656 32.7549 162.696 32.9502 163.639 33.3408C164.59 33.7236 165.412 34.2744 166.106 34.9932C166.8 35.7119 167.334 36.5713 167.708 37.5713C168.09 38.5635 168.28 39.669 168.28 40.8877V41.6963C168.28 42.9072 168.09 44.0127 167.708 45.0127C167.334 46.0127 166.8 46.8721 166.106 47.5908C165.42 48.3018 164.598 48.8526 163.639 49.2432C162.688 49.626 161.636 49.8174 160.483 49.8174ZM158.764 32.7549V49.8174H155.257V32.7549H158.764Z" fill="#141416"/>
<path d="M228.816 17C228.75 17 228.684 16.9903 228.617 16.97L206.985 10.3459C206.624 10.2353 206.42 9.85116 206.53 9.48778C206.64 9.12423 207.022 8.91932 207.383 9.03004L229.015 15.6541C229.376 15.7647 229.58 16.1489 229.47 16.5123C229.38 16.8089 229.109 17 228.816 17Z" fill="#565A65"/>
<path d="M194.113 28C193.774 28 193.5 27.7047 193.5 27.3394C193.5 27.2305 193.525 27.122 193.573 27.0261L201.346 11.3496C201.506 11.0273 201.877 10.9061 202.176 11.0783C202.475 11.2507 202.587 11.6515 202.427 11.9734L194.661 27.6355C194.56 27.8516 194.353 28 194.113 28Z" fill="#141416"/>
<path d="M227.499 3C229.158 3 230.5 4.11876 230.5 5.50004C230.5 6.88124 229.158 8 227.499 8C225.842 8 224.5 6.88124 224.5 5.50004C224.5 4.11876 225.842 3 227.499 3Z" fill="url(#paint0_linear_1018_384436)"/>
<path d="M218 59C219.38 59 220.5 57.8807 220.5 56.5C220.5 55.1193 219.38 54 218 54C216.619 54 215.5 55.1193 215.5 56.5C215.5 57.8807 216.619 59 218 59Z" fill="#29CC6A"/>
<path d="M239.5 10C240.052 10 240.5 9.55229 240.5 9.00004C240.5 8.44771 240.052 8 239.5 8C238.948 8 238.5 8.44771 238.5 9.00004C238.5 9.55229 238.948 10 239.5 10Z" fill="#29CC6A"/>
<path d="M236.688 16.2554L240.5 28.5356L187.469 45L183.656 32.7198C183.103 31.0167 184.067 29.1983 185.807 28.6581C187.72 28.0643 229.707 15.0304 232.535 14.1524C234.276 13.6123 236.135 14.5536 236.688 16.2554Z" fill="#7E140C"/>
<path d="M236.5 50C237.052 50 237.5 49.5523 237.5 49C237.5 48.4477 237.052 48 236.5 48C235.948 48 235.5 48.4477 235.5 49C235.5 49.5523 235.948 50 236.5 50Z" fill="url(#paint1_linear_1018_384436)"/>
<path d="M229.5 60C230.052 60 230.5 59.5523 230.5 59C230.5 58.4477 230.052 58 229.5 58C228.948 58 228.5 58.4477 228.5 59C228.5 59.5523 228.948 60 229.5 60Z" fill="url(#paint2_linear_1018_384436)"/>
<path d="M217.5 5C218.052 5 218.5 4.55231 218.5 4C218.5 3.44778 218.052 3 217.5 3C216.948 3 216.5 3.44778 216.5 4C216.5 4.55231 216.948 5 217.5 5Z" fill="url(#paint3_linear_1018_384436)"/>
<path d="M206.339 5.44974C208.301 6.4656 209.067 8.87841 208.051 10.8395C207.035 12.8004 204.621 13.5669 202.659 12.5511C200.699 11.5353 199.933 9.12103 200.95 7.16007C201.965 5.19911 204.378 4.43262 206.339 5.44974Z" fill="#141416"/>
<path d="M190.5 2C191.052 2 191.5 1.55222 191.5 1C191.5 0.447686 191.052 0 190.5 0C189.948 0 189.5 0.447686 189.5 1C189.5 1.55222 189.948 2 190.5 2Z" fill="url(#paint4_linear_1018_384436)"/>
<path d="M188.5 18C189.052 18 189.5 17.5523 189.5 17C189.5 16.4477 189.052 16 188.5 16C187.948 16 187.5 16.4477 187.5 17C187.5 17.5523 187.948 18 188.5 18Z" fill="#29CC6A"/>
<path d="M185.5 55C186.052 55 186.5 54.5523 186.5 54C186.5 53.4477 186.052 53 185.5 53C184.948 53 184.5 53.4477 184.5 54C184.5 54.5523 184.948 55 185.5 55Z" fill="url(#paint5_linear_1018_384436)"/>
<path d="M243.345 37.6299C243.894 39.3907 242.937 41.2726 241.209 41.8315L194.8 56.8424C193.072 57.4014 191.225 56.4259 190.677 54.6651L185.584 37.4132C185.273 36.3587 185.85 35.2449 186.88 34.9117L211.357 26.9941L235.776 19.0951C236.829 18.7546 237.951 19.358 238.269 20.4355L243.345 37.6299Z" fill="#DA291C"/>
<path d="M205.622 44.9654C205.45 45.0236 205.28 45.0083 205.112 44.9198C204.952 44.8287 204.843 44.6942 204.787 44.5162L202.536 37.3655C202.479 37.1875 202.49 37.0125 202.568 36.8405C202.653 36.666 202.782 36.5496 202.953 36.4914L203.199 36.408C203.624 36.2639 203.998 36.3511 204.321 36.6697L208.714 40.91C208.716 40.9177 208.722 40.9203 208.729 40.9178C208.736 40.9153 208.739 40.91 208.736 40.9023L207.132 35.8064C207.076 35.6284 207.09 35.4521 207.176 35.2775C207.261 35.103 207.389 34.9867 207.561 34.9285L207.807 34.845C207.978 34.7868 208.144 34.8033 208.306 34.8944C208.473 34.9829 208.585 35.1162 208.642 35.2942L210.893 42.4448C210.949 42.6228 210.934 42.7991 210.849 42.9736C210.771 43.1456 210.646 43.2608 210.475 43.319L210.229 43.4024C209.804 43.5465 209.43 43.4593 209.107 43.1407L204.715 38.9005C204.712 38.8927 204.707 38.8901 204.7 38.8926C204.692 38.8952 204.69 38.9003 204.692 38.9081L206.297 44.0041C206.352 44.182 206.338 44.3583 206.253 44.5329C206.168 44.7074 206.039 44.8238 205.867 44.8819L205.622 44.9654ZM213.507 42.2905C213.336 42.3487 213.165 42.3335 212.998 42.2449C212.829 42.1563 212.717 42.023 212.661 41.8451L210.41 34.6945C210.354 34.5164 210.368 34.3402 210.454 34.1657C210.539 33.991 210.668 33.8747 210.839 33.8165L214.642 32.5267C214.813 32.4686 214.982 32.4837 215.151 32.5722C215.32 32.6609 215.432 32.7942 215.487 32.9721C215.544 33.1501 215.529 33.3264 215.443 33.5009C215.355 33.6678 215.226 33.7802 215.054 33.8384L212.281 34.7793C212.214 34.802 212.192 34.8482 212.213 34.9179L212.801 36.7868C212.824 36.8564 212.868 36.8799 212.935 36.8571L215.519 35.9808C215.69 35.9226 215.851 35.9365 216.002 36.0223C216.161 36.1057 216.267 36.2325 216.32 36.4027C216.373 36.573 216.36 36.7403 216.28 36.9046C216.205 37.0586 216.081 37.1646 215.91 37.2228L213.326 38.0992C213.259 38.1219 213.236 38.1682 213.259 38.2378L213.99 40.5594C214.011 40.629 214.056 40.6525 214.123 40.6298L216.896 39.6889C217.068 39.6308 217.238 39.646 217.406 39.7345C217.572 39.8154 217.683 39.9448 217.739 40.1227C217.795 40.3007 217.78 40.477 217.695 40.6515C217.609 40.8261 217.481 40.9424 217.31 41.0006L213.507 42.2905ZM220.433 39.2218L216.743 32.5335C216.651 32.3758 216.638 32.2136 216.701 32.0466C216.771 31.8771 216.888 31.7646 217.052 31.7089L217.377 31.5989C217.563 31.5357 217.743 31.5432 217.916 31.6215C218.089 31.6998 218.22 31.8267 218.309 32.0024L221.159 37.7934C221.161 37.8011 221.167 37.8037 221.174 37.8012C221.189 37.7961 221.195 37.7898 221.193 37.782L220.165 31.3726C220.136 31.1767 220.17 30.9942 220.265 30.8249C220.36 30.6555 220.501 30.5392 220.687 30.476L221.358 30.2484C221.544 30.1851 221.725 30.1927 221.898 30.2709C222.071 30.3492 222.202 30.4762 222.29 30.6518L225.118 36.4504C225.121 36.4582 225.125 36.4608 225.133 36.4582C225.141 36.4557 225.143 36.4506 225.141 36.4429L224.146 30.0221C224.117 29.8263 224.151 29.6436 224.246 29.4743C224.342 29.3049 224.482 29.1887 224.669 29.1255L224.948 29.0306C225.112 28.9749 225.267 28.9952 225.413 29.0914C225.559 29.1875 225.644 29.3258 225.667 29.5062L226.495 37.1656C226.515 37.3639 226.475 37.5491 226.372 37.721C226.27 37.8928 226.125 38.0104 225.939 38.0736L225.346 38.2747C225.159 38.3379 224.976 38.3316 224.795 38.2559C224.622 38.1776 224.491 38.0506 224.403 37.875L221.552 32.0839C221.55 32.0762 221.545 32.0736 221.537 32.0762C221.53 32.0787 221.527 32.0838 221.53 32.0916L222.525 38.5123C222.553 38.7081 222.516 38.892 222.413 39.0639C222.318 39.2332 222.178 39.3495 221.991 39.4128L221.398 39.6139C221.212 39.6771 221.028 39.6708 220.848 39.595C220.666 39.5193 220.528 39.3948 220.433 39.2218Z" fill="white"/>
</g>
<defs>
<linearGradient id="paint0_linear_1018_384436" x1="224.5" y1="3" x2="228.953" y2="8.25205" gradientUnits="userSpaceOnUse">
<stop stop-color="#F0816B"/>
<stop offset="1" stop-color="#EB4F44"/>
</linearGradient>
<linearGradient id="paint1_linear_1018_384436" x1="235.5" y1="48" x2="237.305" y2="49.7736" gradientUnits="userSpaceOnUse">
<stop stop-color="#F0816B"/>
<stop offset="1" stop-color="#EB4F44"/>
</linearGradient>
<linearGradient id="paint2_linear_1018_384436" x1="228.5" y1="58" x2="230.305" y2="59.7743" gradientUnits="userSpaceOnUse">
<stop stop-color="#F0816B"/>
<stop offset="1" stop-color="#EB4F44"/>
</linearGradient>
<linearGradient id="paint3_linear_1018_384436" x1="216.5" y1="3" x2="218.305" y2="4.77443" gradientUnits="userSpaceOnUse">
<stop stop-color="#F0816B"/>
<stop offset="1" stop-color="#EB4F44"/>
</linearGradient>
<linearGradient id="paint4_linear_1018_384436" x1="189.5" y1="0" x2="191.304" y2="1.77443" gradientUnits="userSpaceOnUse">
<stop stop-color="#F0816B"/>
<stop offset="1" stop-color="#EB4F44"/>
</linearGradient>
<linearGradient id="paint5_linear_1018_384436" x1="184.5" y1="53" x2="186.305" y2="54.7743" gradientUnits="userSpaceOnUse">
<stop stop-color="#F0816B"/>
<stop offset="1" stop-color="#EB4F44"/>
</linearGradient>
<clipPath id="clip0_1018_384436">
<rect width="243" height="60" fill="white" transform="translate(0.5)"/>
</clipPath>
</defs>
</svg>
