<svg width="230" height="60" viewBox="0 0 230 60" fill="none" xmlns="http://www.w3.org/2000/svg">
<mask id="mask0_1189_412394" style="mask-type:luminance" maskUnits="userSpaceOnUse" x="14" y="17" width="24" height="24">
<path d="M37.8499 17.0015H14.1562V40.4381H37.8499V17.0015Z" fill="white"/>
</mask>
<g mask="url(#mask0_1189_412394)">
<path d="M26.0058 30.1417C27.2085 30.1417 28.1873 29.1738 28.1873 27.9843V19.1589C28.1873 17.9693 27.2085 17.0015 26.0058 17.0015C24.803 17.0015 23.8242 17.9693 23.8242 19.1589V27.9843C23.8242 29.1739 24.803 30.1417 26.0058 30.1417Z" fill="#DA291C"/>
<path d="M33.3457 22.9618C33.3407 22.9558 33.3347 22.95 33.3297 22.9448C32.9178 22.5374 32.3699 22.313 31.787 22.313C31.2042 22.313 30.6563 22.5373 30.2443 22.9448C29.8324 23.3523 29.6055 23.8941 29.6055 24.4704C29.6065 25.0374 29.8255 25.5711 30.2254 25.9763C30.2314 25.983 30.2383 25.9897 30.2443 25.9963C31.3771 27.1167 32.001 28.6065 32.001 30.1911C32.001 33.4622 29.3106 36.1235 26.0033 36.1235C22.697 36.1235 20.0066 33.4622 20.0066 30.1911C20.0066 28.6064 20.6304 27.1166 21.7632 25.9963C22.613 25.1552 22.613 23.7865 21.7632 22.9449C21.3503 22.5376 20.8034 22.3132 20.2205 22.3132C19.6377 22.3132 19.0898 22.5376 18.6779 22.9451C16.7213 24.8806 15.6445 27.454 15.6445 30.1911C15.6445 32.9283 16.7213 35.5016 18.6779 37.4371C20.6354 39.3727 23.2369 40.4386 26.0033 40.4386C28.7707 40.4386 31.3721 39.3727 33.3297 37.4371C35.2863 35.5017 36.363 32.9283 36.363 30.1911C36.363 27.4621 35.2923 24.8953 33.3457 22.9618Z" fill="#DA291C"/>
<path d="M28.1844 27.9843V19.1589C28.1844 17.9693 27.2066 17.0015 26.0039 17.0015V30.1417C27.2066 30.1417 28.1844 29.1739 28.1844 27.9843Z" fill="#AC1B10"/>
<path d="M33.3463 22.9618C33.3403 22.9558 33.3343 22.95 33.3293 22.9448C32.9174 22.5374 32.3695 22.313 31.7867 22.313C31.2048 22.313 30.6569 22.5373 30.245 22.9448C29.8331 23.3523 29.6061 23.8941 29.6061 24.4704C29.6061 25.0374 29.8261 25.5711 30.225 25.9763C30.232 25.983 30.238 25.9897 30.245 25.9963C31.3777 27.1167 32.0016 28.6065 32.0016 30.1911C32.0016 33.4622 29.3112 36.1235 26.0039 36.1235V40.4386C28.7713 40.4386 31.3728 39.3727 33.3293 37.4371C35.2859 35.5017 36.3636 32.9283 36.3636 30.1911C36.3636 27.4621 35.2919 24.8953 33.3463 22.9618Z" fill="#AC1B10"/>
</g>
<path d="M56 21V39H51.949L44.051 26.9341V39H40V21H44.051L51.9628 33.0783V21H56Z" fill="#DA291C"/>
<path d="M51.3099 0C53.078 0 54.5094 1.41318 54.5094 3.1579C54.5094 4.90262 53.078 6.31579 51.3099 6.31579C49.5417 6.31579 48.1094 4.90262 48.1094 3.1579C48.1094 1.41318 49.5417 0 51.3099 0Z" fill="url(#paint0_linear_1189_412394)"/>
<path d="M18.1081 59.2104C19.6551 59.2104 20.9086 57.9733 20.9086 56.4472C20.9086 54.9212 19.6551 53.6841 18.1081 53.6841C16.5621 53.6841 15.3086 54.9212 15.3086 56.4472C15.3086 57.9733 16.5621 59.2104 18.1081 59.2104Z" fill="#29CC6A"/>
<path d="M62.9114 12.6315C63.5741 12.6315 64.1109 11.9246 64.1109 11.0526C64.1109 10.1806 63.5741 9.47363 62.9114 9.47363C62.2488 9.47363 61.7109 10.1806 61.7109 11.0526C61.7109 11.9246 62.2488 12.6315 62.9114 12.6315Z" fill="#29CC6A"/>
<path d="M62.1097 53.6843C62.7723 53.6843 63.3102 53.1542 63.3102 52.5002C63.3102 51.8461 62.7723 51.3159 62.1097 51.3159C61.447 51.3159 60.9102 51.8461 60.9102 52.5002C60.9102 53.1542 61.447 53.6843 62.1097 53.6843Z" fill="url(#paint1_linear_1189_412394)"/>
<path d="M42.1097 59.9998C42.7723 59.9998 43.3102 59.4696 43.3102 58.8156C43.3102 58.1615 42.7723 57.6313 42.1097 57.6313C41.447 57.6313 40.9102 58.1615 40.9102 58.8156C40.9102 59.4696 41.447 59.9998 42.1097 59.9998Z" fill="url(#paint2_linear_1189_412394)"/>
<path d="M38.9105 2.36842C39.5741 2.36842 40.1109 1.83826 40.1109 1.18426C40.1109 0.530258 39.5741 0 38.9105 0C38.2478 0 37.7109 0.530258 37.7109 1.18426C37.7109 1.83826 38.2478 2.36842 38.9105 2.36842Z" fill="url(#paint3_linear_1189_412394)"/>
<path d="M9.30888 6.31569C9.97154 6.31569 10.5094 5.78543 10.5094 5.13143C10.5094 4.47743 9.97154 3.94727 9.30888 3.94727C8.64623 3.94727 8.10938 4.47743 8.10938 5.13143C8.10938 5.78543 8.64623 6.31569 9.30888 6.31569Z" fill="url(#paint4_linear_1189_412394)"/>
<path d="M4.50908 14.2107C5.17173 14.2107 5.70859 13.6805 5.70859 13.0264C5.70859 12.3724 5.17173 11.8423 4.50908 11.8423C3.84643 11.8423 3.30859 12.3724 3.30859 13.0264C3.30859 13.6805 3.84643 14.2107 4.50908 14.2107Z" fill="#29CC6A"/>
<path d="M1.30987 50.5261C1.97252 50.5261 2.50937 49.996 2.50937 49.3419C2.50937 48.6879 1.97252 48.1577 1.30987 48.1577C0.646235 48.1577 0.109375 48.6879 0.109375 49.3419C0.109375 49.996 0.646235 50.5261 1.30987 50.5261Z" fill="url(#paint5_linear_1189_412394)"/>
<path d="M92.043 29.6191V36.3809C91.7773 36.7012 91.3672 37.0488 90.8125 37.4238C90.2578 37.791 89.543 38.1074 88.668 38.373C87.793 38.6387 86.7344 38.7715 85.4922 38.7715C84.3906 38.7715 83.3867 38.5918 82.4805 38.2324C81.5742 37.8652 80.793 37.3301 80.1367 36.627C79.4883 35.9238 78.9883 35.0645 78.6367 34.0488C78.2852 33.0254 78.1094 31.8574 78.1094 30.5449V29.4785C78.1094 28.166 78.2773 26.998 78.6133 25.9746C78.957 24.9512 79.4453 24.0879 80.0781 23.3848C80.7109 22.6816 81.4648 22.1465 82.3398 21.7793C83.2148 21.4121 84.1875 21.2285 85.2578 21.2285C86.7422 21.2285 87.9609 21.4707 88.9141 21.9551C89.8672 22.4316 90.5938 23.0957 91.0938 23.9473C91.6016 24.791 91.9141 25.7598 92.0312 26.8535H88.6211C88.5352 26.2754 88.3711 25.7715 88.1289 25.3418C87.8867 24.9121 87.5391 24.5762 87.0859 24.334C86.6406 24.0918 86.0625 23.9707 85.3516 23.9707C84.7656 23.9707 84.2422 24.0918 83.7812 24.334C83.3281 24.5684 82.9453 24.916 82.6328 25.377C82.3203 25.8379 82.082 26.4082 81.918 27.0879C81.7539 27.7676 81.6719 28.5566 81.6719 29.4551V30.5449C81.6719 31.4355 81.7578 32.2246 81.9297 32.9121C82.1016 33.5918 82.3555 34.166 82.6914 34.6348C83.0352 35.0957 83.457 35.4434 83.957 35.6777C84.457 35.9121 85.0391 36.0293 85.7031 36.0293C86.2578 36.0293 86.7188 35.9824 87.0859 35.8887C87.4609 35.7949 87.7617 35.6816 87.9883 35.5488C88.2227 35.4082 88.4023 35.2754 88.5273 35.1504V32.127H85.3164V29.6191H92.043Z" fill="#141416"/>
<path d="M108.895 29.6074V30.416C108.895 31.7129 108.719 32.877 108.367 33.9082C108.016 34.9395 107.52 35.8184 106.879 36.5449C106.238 37.2637 105.473 37.8145 104.582 38.1973C103.699 38.5801 102.719 38.7715 101.641 38.7715C100.57 38.7715 99.5898 38.5801 98.6992 38.1973C97.8164 37.8145 97.0508 37.2637 96.4023 36.5449C95.7539 35.8184 95.25 34.9395 94.8906 33.9082C94.5391 32.877 94.3633 31.7129 94.3633 30.416V29.6074C94.3633 28.3027 94.5391 27.1387 94.8906 26.1152C95.2422 25.084 95.7383 24.2051 96.3789 23.4785C97.0273 22.752 97.793 22.1973 98.6758 21.8145C99.5664 21.4316 100.547 21.2402 101.617 21.2402C102.695 21.2402 103.676 21.4316 104.559 21.8145C105.449 22.1973 106.215 22.752 106.855 23.4785C107.504 24.2051 108.004 25.084 108.355 26.1152C108.715 27.1387 108.895 28.3027 108.895 29.6074ZM105.344 30.416V29.584C105.344 28.6777 105.262 27.8809 105.098 27.1934C104.934 26.5059 104.691 25.9277 104.371 25.459C104.051 24.9902 103.66 24.6387 103.199 24.4043C102.738 24.1621 102.211 24.041 101.617 24.041C101.023 24.041 100.496 24.1621 100.035 24.4043C99.582 24.6387 99.1953 24.9902 98.875 25.459C98.5625 25.9277 98.3242 26.5059 98.1602 27.1934C97.9961 27.8809 97.9141 28.6777 97.9141 29.584V30.416C97.9141 31.3145 97.9961 32.1113 98.1602 32.8066C98.3242 33.4941 98.5664 34.0762 98.8867 34.5527C99.207 35.0215 99.5977 35.377 100.059 35.6191C100.52 35.8613 101.047 35.9824 101.641 35.9824C102.234 35.9824 102.762 35.8613 103.223 35.6191C103.684 35.377 104.07 35.0215 104.383 34.5527C104.695 34.0762 104.934 33.4941 105.098 32.8066C105.262 32.1113 105.344 31.3145 105.344 30.416Z" fill="#141416"/>
<path d="M115.164 21.4746V38.5371H111.66V21.4746H115.164Z" fill="#141416"/>
<path d="M132.344 21.4746V38.5371H128.828L121.973 27.0996V38.5371H118.457V21.4746H121.973L128.84 32.9238V21.4746H132.344Z" fill="#141416"/>
<path d="M148.926 29.6191V36.3809C148.66 36.7012 148.25 37.0488 147.695 37.4238C147.141 37.791 146.426 38.1074 145.551 38.373C144.676 38.6387 143.617 38.7715 142.375 38.7715C141.273 38.7715 140.27 38.5918 139.363 38.2324C138.457 37.8652 137.676 37.3301 137.02 36.627C136.371 35.9238 135.871 35.0645 135.52 34.0488C135.168 33.0254 134.992 31.8574 134.992 30.5449V29.4785C134.992 28.166 135.16 26.998 135.496 25.9746C135.84 24.9512 136.328 24.0879 136.961 23.3848C137.594 22.6816 138.348 22.1465 139.223 21.7793C140.098 21.4121 141.07 21.2285 142.141 21.2285C143.625 21.2285 144.844 21.4707 145.797 21.9551C146.75 22.4316 147.477 23.0957 147.977 23.9473C148.484 24.791 148.797 25.7598 148.914 26.8535H145.504C145.418 26.2754 145.254 25.7715 145.012 25.3418C144.77 24.9121 144.422 24.5762 143.969 24.334C143.523 24.0918 142.945 23.9707 142.234 23.9707C141.648 23.9707 141.125 24.0918 140.664 24.334C140.211 24.5684 139.828 24.916 139.516 25.377C139.203 25.8379 138.965 26.4082 138.801 27.0879C138.637 27.7676 138.555 28.5566 138.555 29.4551V30.5449C138.555 31.4355 138.641 32.2246 138.812 32.9121C138.984 33.5918 139.238 34.166 139.574 34.6348C139.918 35.0957 140.34 35.4434 140.84 35.6777C141.34 35.9121 141.922 36.0293 142.586 36.0293C143.141 36.0293 143.602 35.9824 143.969 35.8887C144.344 35.7949 144.645 35.6816 144.871 35.5488C145.105 35.4082 145.285 35.2754 145.41 35.1504V32.127H142.199V29.6191H148.926Z" fill="#141416"/>
<path d="M169.188 35.7949V38.5371H160.105V35.7949H169.188ZM161.254 21.4746V38.5371H157.738V21.4746H161.254ZM168.004 28.4238V31.0957H160.105V28.4238H168.004ZM169.176 21.4746V24.2285H160.105V21.4746H169.176Z" fill="#141416"/>
<path d="M177.391 34.9746L181.41 21.4746H185.324L179.383 38.5371H176.805L177.391 34.9746ZM173.688 21.4746L177.695 34.9746L178.305 38.5371H175.703L169.797 21.4746H173.688Z" fill="#141416"/>
<path d="M198.367 35.7949V38.5371H189.285V35.7949H198.367ZM190.434 21.4746V38.5371H186.918V21.4746H190.434ZM197.184 28.4238V31.0957H189.285V28.4238H197.184ZM198.355 21.4746V24.2285H189.285V21.4746H198.355Z" fill="#141416"/>
<path d="M214.305 21.4746V38.5371H210.789L203.934 27.0996V38.5371H200.418V21.4746H203.934L210.801 32.9238V21.4746H214.305Z" fill="#141416"/>
<path d="M224.641 21.4746V38.5371H221.137V21.4746H224.641ZM229.891 21.4746V24.2285H215.969V21.4746H229.891Z" fill="#141416"/>
<defs>
<linearGradient id="paint0_linear_1189_412394" x1="48.1094" y1="0" x2="53.8106" y2="5.67898" gradientUnits="userSpaceOnUse">
<stop stop-color="#F0816B"/>
<stop offset="1" stop-color="#EB4F44"/>
</linearGradient>
<linearGradient id="paint1_linear_1189_412394" x1="60.9102" y1="51.3159" x2="63.0481" y2="53.4454" gradientUnits="userSpaceOnUse">
<stop stop-color="#F0816B"/>
<stop offset="1" stop-color="#EB4F44"/>
</linearGradient>
<linearGradient id="paint2_linear_1189_412394" x1="40.9102" y1="57.6313" x2="43.0482" y2="59.7608" gradientUnits="userSpaceOnUse">
<stop stop-color="#F0816B"/>
<stop offset="1" stop-color="#EB4F44"/>
</linearGradient>
<linearGradient id="paint3_linear_1189_412394" x1="37.7109" y1="0" x2="39.8489" y2="2.1295" gradientUnits="userSpaceOnUse">
<stop stop-color="#F0816B"/>
<stop offset="1" stop-color="#EB4F44"/>
</linearGradient>
<linearGradient id="paint4_linear_1189_412394" x1="8.10938" y1="3.94727" x2="10.2473" y2="6.07676" gradientUnits="userSpaceOnUse">
<stop stop-color="#F0816B"/>
<stop offset="1" stop-color="#EB4F44"/>
</linearGradient>
<linearGradient id="paint5_linear_1189_412394" x1="0.109375" y1="48.1577" x2="2.24741" y2="50.2872" gradientUnits="userSpaceOnUse">
<stop stop-color="#F0816B"/>
<stop offset="1" stop-color="#EB4F44"/>
</linearGradient>
</defs>
</svg>
