<svg width="344" height="60" viewBox="0 0 344 60" fill="none" xmlns="http://www.w3.org/2000/svg">
<path d="M7.26172 38.3086H3.54688L3.57031 35.5664H7.26172C8.18359 35.5664 8.96094 35.3594 9.59375 34.9453C10.2266 34.5234 10.7031 33.9102 11.0234 33.1055C11.3516 32.3008 11.5156 31.3281 11.5156 30.1875V29.3555C11.5156 28.4805 11.4219 27.7109 11.2344 27.0469C11.0547 26.3828 10.7852 25.8242 10.4258 25.3711C10.0664 24.918 9.625 24.5781 9.10156 24.3516C8.57812 24.1172 7.97656 24 7.29688 24H3.47656V21.2461H7.29688C8.4375 21.2461 9.48047 21.4414 10.4258 21.832C11.3789 22.2148 12.2031 22.7656 12.8984 23.4844C13.5938 24.2031 14.1289 25.0625 14.5039 26.0625C14.8867 27.0547 15.0781 28.1602 15.0781 29.3789V30.1875C15.0781 31.3984 14.8867 32.5039 14.5039 33.5039C14.1289 34.5039 13.5938 35.3633 12.8984 36.082C12.2109 36.793 11.3867 37.3438 10.4258 37.7344C9.47266 38.1172 8.41797 38.3086 7.26172 38.3086ZM5.53906 21.2461V38.3086H2.02344V21.2461H5.53906Z" fill="black"/>
<path d="M21.3711 21.2461V38.3086H17.8672V21.2461H21.3711Z" fill="black"/>
<path d="M33.5469 33.8438C33.5469 33.5391 33.5 33.2656 33.4062 33.0234C33.3203 32.7734 33.1562 32.5469 32.9141 32.3438C32.6719 32.1328 32.332 31.9258 31.8945 31.7227C31.457 31.5195 30.8906 31.3086 30.1953 31.0898C29.4219 30.8398 28.6875 30.5586 27.9922 30.2461C27.3047 29.9336 26.6953 29.5703 26.1641 29.1562C25.6406 28.7344 25.2266 28.2461 24.9219 27.6914C24.625 27.1367 24.4766 26.4922 24.4766 25.7578C24.4766 25.0469 24.6328 24.4023 24.9453 23.8242C25.2578 23.2383 25.6953 22.7383 26.2578 22.3242C26.8203 21.9023 27.4844 21.5781 28.25 21.3516C29.0234 21.125 29.8711 21.0117 30.793 21.0117C32.0508 21.0117 33.1484 21.2383 34.0859 21.6914C35.0234 22.1445 35.75 22.7656 36.2656 23.5547C36.7891 24.3438 37.0508 25.2461 37.0508 26.2617H33.5586C33.5586 25.7617 33.4531 25.3242 33.2422 24.9492C33.0391 24.5664 32.7266 24.2656 32.3047 24.0469C31.8906 23.8281 31.3672 23.7188 30.7344 23.7188C30.125 23.7188 29.6172 23.8125 29.2109 24C28.8047 24.1797 28.5 24.4258 28.2969 24.7383C28.0938 25.043 27.9922 25.3867 27.9922 25.7695C27.9922 26.0586 28.0625 26.3203 28.2031 26.5547C28.3516 26.7891 28.5703 27.0078 28.8594 27.2109C29.1484 27.4141 29.5039 27.6055 29.9258 27.7852C30.3477 27.9648 30.8359 28.1406 31.3906 28.3125C32.3203 28.5938 33.1367 28.9102 33.8398 29.2617C34.5508 29.6133 35.1445 30.0078 35.6211 30.4453C36.0977 30.8828 36.457 31.3789 36.6992 31.9336C36.9414 32.4883 37.0625 33.1172 37.0625 33.8203C37.0625 34.5625 36.918 35.2266 36.6289 35.8125C36.3398 36.3984 35.9219 36.8945 35.375 37.3008C34.8281 37.707 34.1758 38.0156 33.418 38.2266C32.6602 38.4375 31.8125 38.543 30.875 38.543C30.0312 38.543 29.1992 38.4336 28.3789 38.2148C27.5586 37.9883 26.8125 37.6484 26.1406 37.1953C25.4766 36.7422 24.9453 36.1641 24.5469 35.4609C24.1484 34.7578 23.9492 33.9258 23.9492 32.9648H27.4766C27.4766 33.4961 27.5586 33.9453 27.7227 34.3125C27.8867 34.6797 28.1172 34.9766 28.4141 35.2031C28.7188 35.4297 29.0781 35.5938 29.4922 35.6953C29.9141 35.7969 30.375 35.8477 30.875 35.8477C31.4844 35.8477 31.9844 35.7617 32.375 35.5898C32.7734 35.418 33.0664 35.1797 33.2539 34.875C33.4492 34.5703 33.5469 34.2266 33.5469 33.8438Z" fill="black"/>
<path d="M49.3438 32.6484H52.8477C52.7773 33.7969 52.4609 34.8164 51.8984 35.707C51.3438 36.5977 50.5664 37.293 49.5664 37.793C48.5742 38.293 47.3789 38.543 45.9805 38.543C44.8867 38.543 43.9062 38.3555 43.0391 37.9805C42.1719 37.5977 41.4297 37.0508 40.8125 36.3398C40.2031 35.6289 39.7383 34.7695 39.418 33.7617C39.0977 32.7539 38.9375 31.625 38.9375 30.375V29.1914C38.9375 27.9414 39.1016 26.8125 39.4297 25.8047C39.7656 24.7891 40.2422 23.9258 40.8594 23.2148C41.4844 22.5039 42.2305 21.957 43.0977 21.5742C43.9648 21.1914 44.9336 21 46.0039 21C47.4258 21 48.625 21.2578 49.6016 21.7734C50.5859 22.2891 51.3477 23 51.8867 23.9062C52.4336 24.8125 52.7617 25.8438 52.8711 27H49.3555C49.3164 26.3125 49.1797 25.7305 48.9453 25.2539C48.7109 24.7695 48.3555 24.4062 47.8789 24.1641C47.4102 23.9141 46.7852 23.7891 46.0039 23.7891C45.418 23.7891 44.9062 23.8984 44.4688 24.1172C44.0312 24.3359 43.6641 24.668 43.3672 25.1133C43.0703 25.5586 42.8477 26.1211 42.6992 26.8008C42.5586 27.4727 42.4883 28.2617 42.4883 29.168V30.375C42.4883 31.2578 42.5547 32.0352 42.6875 32.707C42.8203 33.3711 43.0234 33.9336 43.2969 34.3945C43.5781 34.8477 43.9375 35.1914 44.375 35.4258C44.8203 35.6523 45.3555 35.7656 45.9805 35.7656C46.7148 35.7656 47.3203 35.6484 47.7969 35.4141C48.2734 35.1797 48.6367 34.832 48.8867 34.3711C49.1445 33.9102 49.2969 33.3359 49.3438 32.6484Z" fill="black"/>
<path d="M69.1719 29.3789V30.1875C69.1719 31.4844 68.9961 32.6484 68.6445 33.6797C68.293 34.7109 67.7969 35.5898 67.1562 36.3164C66.5156 37.0352 65.75 37.5859 64.8594 37.9688C63.9766 38.3516 62.9961 38.543 61.918 38.543C60.8477 38.543 59.8672 38.3516 58.9766 37.9688C58.0938 37.5859 57.3281 37.0352 56.6797 36.3164C56.0312 35.5898 55.5273 34.7109 55.168 33.6797C54.8164 32.6484 54.6406 31.4844 54.6406 30.1875V29.3789C54.6406 28.0742 54.8164 26.9102 55.168 25.8867C55.5195 24.8555 56.0156 23.9766 56.6562 23.25C57.3047 22.5234 58.0703 21.9688 58.9531 21.5859C59.8438 21.2031 60.8242 21.0117 61.8945 21.0117C62.9727 21.0117 63.9531 21.2031 64.8359 21.5859C65.7266 21.9688 66.4922 22.5234 67.1328 23.25C67.7812 23.9766 68.2812 24.8555 68.6328 25.8867C68.9922 26.9102 69.1719 28.0742 69.1719 29.3789ZM65.6211 30.1875V29.3555C65.6211 28.4492 65.5391 27.6523 65.375 26.9648C65.2109 26.2773 64.9688 25.6992 64.6484 25.2305C64.3281 24.7617 63.9375 24.4102 63.4766 24.1758C63.0156 23.9336 62.4883 23.8125 61.8945 23.8125C61.3008 23.8125 60.7734 23.9336 60.3125 24.1758C59.8594 24.4102 59.4727 24.7617 59.1523 25.2305C58.8398 25.6992 58.6016 26.2773 58.4375 26.9648C58.2734 27.6523 58.1914 28.4492 58.1914 29.3555V30.1875C58.1914 31.0859 58.2734 31.8828 58.4375 32.5781C58.6016 33.2656 58.8438 33.8477 59.1641 34.3242C59.4844 34.793 59.875 35.1484 60.3359 35.3906C60.7969 35.6328 61.3242 35.7539 61.918 35.7539C62.5117 35.7539 63.0391 35.6328 63.5 35.3906C63.9609 35.1484 64.3477 34.793 64.6602 34.3242C64.9727 33.8477 65.2109 33.2656 65.375 32.5781C65.5391 31.8828 65.6211 31.0859 65.6211 30.1875Z" fill="black"/>
<path d="M81.125 21.2461H84.6289V32.5195C84.6289 33.832 84.3477 34.9375 83.7852 35.8359C83.2305 36.7344 82.4609 37.4102 81.4766 37.8633C80.5 38.3164 79.375 38.543 78.1016 38.543C76.8281 38.543 75.6953 38.3164 74.7031 37.8633C73.7188 37.4102 72.9453 36.7344 72.3828 35.8359C71.8281 34.9375 71.5508 33.832 71.5508 32.5195V21.2461H75.0664V32.5195C75.0664 33.2852 75.1875 33.9102 75.4297 34.3945C75.6719 34.8789 76.0195 35.2344 76.4727 35.4609C76.9336 35.6875 77.4766 35.8008 78.1016 35.8008C78.7422 35.8008 79.2852 35.6875 79.7305 35.4609C80.1836 35.2344 80.5273 34.8789 80.7617 34.3945C81.0039 33.9102 81.125 33.2852 81.125 32.5195V21.2461Z" fill="black"/>
<path d="M101.41 21.2461V38.3086H97.8945L91.0391 26.8711V38.3086H87.5234V21.2461H91.0391L97.9062 32.6953V21.2461H101.41Z" fill="black"/>
<path d="M111.746 21.2461V38.3086H108.242V21.2461H111.746ZM116.996 21.2461V24H103.074V21.2461H116.996Z" fill="black"/>
<path d="M127.859 21.2461V38.3086H124.344V21.2461H127.859ZM134.656 28.5352V31.2773H126.898V28.5352H134.656ZM135.477 21.2461V24H126.898V21.2461H135.477Z" fill="black"/>
<path d="M137.516 21.2461H143.879C145.184 21.2461 146.305 21.4414 147.242 21.832C148.188 22.2227 148.914 22.8008 149.422 23.5664C149.93 24.332 150.184 25.2734 150.184 26.3906C150.184 27.3047 150.027 28.0898 149.715 28.7461C149.41 29.3945 148.977 29.9375 148.414 30.375C147.859 30.8047 147.207 31.1484 146.457 31.4062L145.344 31.9922H139.812L139.789 29.25H143.902C144.52 29.25 145.031 29.1406 145.438 28.9219C145.844 28.7031 146.148 28.3984 146.352 28.0078C146.562 27.6172 146.668 27.1641 146.668 26.6484C146.668 26.1016 146.566 25.6289 146.363 25.2305C146.16 24.832 145.852 24.5273 145.438 24.3164C145.023 24.1055 144.504 24 143.879 24H141.031V38.3086H137.516V21.2461ZM147.055 38.3086L143.164 30.7031L146.879 30.6797L150.816 38.1445V38.3086H147.055Z" fill="black"/>
<path d="M166.906 29.3789V30.1875C166.906 31.4844 166.73 32.6484 166.379 33.6797C166.027 34.7109 165.531 35.5898 164.891 36.3164C164.25 37.0352 163.484 37.5859 162.594 37.9688C161.711 38.3516 160.73 38.543 159.652 38.543C158.582 38.543 157.602 38.3516 156.711 37.9688C155.828 37.5859 155.062 37.0352 154.414 36.3164C153.766 35.5898 153.262 34.7109 152.902 33.6797C152.551 32.6484 152.375 31.4844 152.375 30.1875V29.3789C152.375 28.0742 152.551 26.9102 152.902 25.8867C153.254 24.8555 153.75 23.9766 154.391 23.25C155.039 22.5234 155.805 21.9688 156.688 21.5859C157.578 21.2031 158.559 21.0117 159.629 21.0117C160.707 21.0117 161.688 21.2031 162.57 21.5859C163.461 21.9688 164.227 22.5234 164.867 23.25C165.516 23.9766 166.016 24.8555 166.367 25.8867C166.727 26.9102 166.906 28.0742 166.906 29.3789ZM163.355 30.1875V29.3555C163.355 28.4492 163.273 27.6523 163.109 26.9648C162.945 26.2773 162.703 25.6992 162.383 25.2305C162.062 24.7617 161.672 24.4102 161.211 24.1758C160.75 23.9336 160.223 23.8125 159.629 23.8125C159.035 23.8125 158.508 23.9336 158.047 24.1758C157.594 24.4102 157.207 24.7617 156.887 25.2305C156.574 25.6992 156.336 26.2773 156.172 26.9648C156.008 27.6523 155.926 28.4492 155.926 29.3555V30.1875C155.926 31.0859 156.008 31.8828 156.172 32.5781C156.336 33.2656 156.578 33.8477 156.898 34.3242C157.219 34.793 157.609 35.1484 158.07 35.3906C158.531 35.6328 159.059 35.7539 159.652 35.7539C160.246 35.7539 160.773 35.6328 161.234 35.3906C161.695 35.1484 162.082 34.793 162.395 34.3242C162.707 33.8477 162.945 33.2656 163.109 32.5781C163.273 31.8828 163.355 31.0859 163.355 30.1875Z" fill="black"/>
<path d="M171.043 21.2461H174.02L178.402 33.7734L182.785 21.2461H185.762L179.598 38.3086H177.207L171.043 21.2461ZM169.438 21.2461H172.402L172.941 33.457V38.3086H169.438V21.2461ZM184.402 21.2461H187.379V38.3086H183.863V33.457L184.402 21.2461Z" fill="black"/>
<path d="M203.117 30.8203H198.734L198.711 28.4062H202.391C203.039 28.4062 203.57 28.3242 203.984 28.1602C204.398 27.9883 204.707 27.7422 204.91 27.4219C205.121 27.0938 205.227 26.6953 205.227 26.2266C205.227 25.6953 205.125 25.2656 204.922 24.9375C204.727 24.6094 204.418 24.3711 203.996 24.2227C203.582 24.0742 203.047 24 202.391 24H199.953V38.3086H196.438V21.2461H202.391C203.383 21.2461 204.27 21.3398 205.051 21.5273C205.84 21.7148 206.508 22 207.055 22.3828C207.602 22.7656 208.02 23.25 208.309 23.8359C208.598 24.4141 208.742 25.1016 208.742 25.8984C208.742 26.6016 208.582 27.25 208.262 27.8438C207.949 28.4375 207.453 28.9219 206.773 29.2969C206.102 29.6719 205.223 29.8789 204.137 29.918L203.117 30.8203ZM202.965 38.3086H197.773L199.145 35.5664H202.965C203.582 35.5664 204.086 35.4688 204.477 35.2734C204.867 35.0703 205.156 34.7969 205.344 34.4531C205.531 34.1094 205.625 33.7148 205.625 33.2695C205.625 32.7695 205.539 32.3359 205.367 31.9688C205.203 31.6016 204.938 31.3203 204.57 31.125C204.203 30.9219 203.719 30.8203 203.117 30.8203H199.73L199.754 28.4062H203.973L204.781 29.3555C205.82 29.3398 206.656 29.5234 207.289 29.9062C207.93 30.2812 208.395 30.7695 208.684 31.3711C208.98 31.9727 209.129 32.6172 209.129 33.3047C209.129 34.3984 208.891 35.3203 208.414 36.0703C207.938 36.8125 207.238 37.3711 206.316 37.7461C205.402 38.1211 204.285 38.3086 202.965 38.3086Z" fill="black"/>
<path d="M218.703 24.1641L214.062 38.3086H210.324L216.664 21.2461H219.043L218.703 24.1641ZM222.559 38.3086L217.906 24.1641L217.531 21.2461H219.934L226.309 38.3086H222.559ZM222.348 31.957V34.7109H213.336V31.957H222.348Z" fill="black"/>
<path d="M241.777 21.2461V38.3086H238.262L231.406 26.8711V38.3086H227.891V21.2461H231.406L238.273 32.6953V21.2461H241.777Z" fill="black"/>
<path d="M248.352 21.2461V38.3086H244.836V21.2461H248.352ZM258.57 21.2461L251.809 29.6719L247.906 33.8672L247.273 30.5391L249.91 26.9297L254.258 21.2461H258.57ZM254.574 38.3086L249.547 30.4219L252.148 28.2422L258.734 38.3086H254.574Z" fill="black"/>
<path d="M284.66 37.2787C285.278 37.2787 285.778 36.7808 285.778 36.1665C285.778 35.5522 285.278 35.0542 284.66 35.0542C284.043 35.0542 283.543 35.5522 283.543 36.1665C283.543 36.7808 284.043 37.2787 284.66 37.2787Z" fill="url(#paint0_linear_1453_427621)"/>
<path d="M288.297 10.4237C288.914 10.4237 289.414 9.92578 289.414 9.31153C289.414 8.69719 288.914 8.19922 288.297 8.19922C287.68 8.19922 287.18 8.69719 287.18 9.31153C287.18 9.92578 287.68 10.4237 288.297 10.4237Z" fill="#29CC6A"/>
<path d="M334.964 40.2831C335.582 40.2831 336.082 39.7852 336.082 39.1709C336.082 38.5566 335.582 38.0586 334.964 38.0586C334.348 38.0586 333.848 38.5566 333.848 39.1709C333.848 39.7852 334.348 40.2831 334.964 40.2831Z" fill="#29CC6A"/>
<path d="M294.934 3.81388C295.551 3.81388 296.052 3.31591 296.052 2.70167C296.052 2.08732 295.551 1.58936 294.934 1.58936C294.317 1.58936 293.816 2.08732 293.816 2.70167C293.816 3.31591 294.317 3.81388 294.934 3.81388Z" fill="url(#paint1_linear_1453_427621)"/>
<path d="M317.054 2.22452C317.672 2.22452 318.172 1.72656 318.172 1.11221C318.172 0.497967 317.672 0 317.054 0C316.438 0 315.938 0.497967 315.938 1.11221C315.938 1.72656 316.438 2.22452 317.054 2.22452Z" fill="url(#paint2_linear_1453_427621)"/>
<path d="M304.898 59.9999C305.516 59.9999 306.016 59.5019 306.016 58.8877C306.016 58.2734 305.516 57.7754 304.898 57.7754C304.281 57.7754 303.781 58.2734 303.781 58.8877C303.781 59.5019 304.281 59.9999 304.898 59.9999Z" fill="url(#paint3_linear_1453_427621)"/>
<path d="M327.921 13.2417C328.539 13.2417 329.039 12.7436 329.039 12.1294C329.039 11.5151 328.539 11.0171 327.921 11.0171C327.305 11.0171 326.805 11.5151 326.805 12.1294C326.805 12.7436 327.305 13.2417 327.921 13.2417Z" fill="#29CC6A"/>
<path d="M294.376 57.7756C295.905 57.7756 297.143 56.5425 297.143 55.0213C297.143 53.5002 295.905 52.2671 294.376 52.2671C292.848 52.2671 291.609 53.5002 291.609 55.0213C291.609 56.5425 292.848 57.7756 294.376 57.7756Z" fill="#29CC6A"/>
<path d="M328.6 0C330.247 0 331.58 1.32734 331.58 2.96607C331.58 4.60489 330.247 5.93213 328.6 5.93213C326.954 5.93213 325.621 4.60489 325.621 2.96607C325.621 1.32734 326.954 0 328.6 0Z" fill="url(#paint4_linear_1453_427621)"/>
<path d="M335.972 50.2988C336.59 50.2988 337.09 49.8008 337.09 49.1865C337.09 48.5722 336.59 48.0742 335.972 48.0742C335.355 48.0742 334.855 48.5722 334.855 49.1865C334.855 49.8008 335.355 50.2988 335.972 50.2988Z" fill="url(#paint5_linear_1453_427621)"/>
<path d="M317.885 42.9438C318.189 43.4333 318.652 43.8036 319.196 43.993C319.74 44.1824 320.333 44.1792 320.875 43.9842L324.516 42.6588C325.139 42.4321 325.647 41.9671 325.927 41.3662C326.207 40.7652 326.237 40.0776 326.01 39.4546L315.75 11.2638C315.523 10.6407 315.058 10.1333 314.457 9.85306C313.856 9.57285 313.168 9.54283 312.545 9.7696L308.904 11.0949C308.363 11.2939 307.907 11.6724 307.612 12.1672C307.317 12.662 307.201 13.2431 307.283 13.8133C307.407 14.6667 307.233 15.5368 306.791 16.2771C306.349 17.0173 305.665 17.5825 304.855 17.8775C304.044 18.1724 303.157 18.1791 302.342 17.8963C301.528 17.6135 300.835 17.0586 300.382 16.325C300.078 15.8356 299.616 15.4652 299.071 15.2758C298.527 15.0865 297.935 15.0896 297.393 15.2847L293.751 16.61C293.128 16.8368 292.621 17.3018 292.341 17.9027C292.061 18.5036 292.03 19.1912 292.257 19.8143L302.518 48.0051C302.745 48.6281 303.21 49.1356 303.811 49.4158C304.411 49.696 305.099 49.726 305.722 49.4992L309.363 48.1739C309.904 47.9749 310.36 47.5964 310.655 47.1016C310.95 46.6068 311.067 46.0258 310.985 45.4555C310.86 44.6022 311.034 43.7321 311.476 42.9918C311.919 42.2515 312.603 41.6863 313.413 41.3914C314.223 41.0964 315.11 41.0898 315.925 41.3725C316.74 41.6553 317.432 42.2102 317.885 42.9438ZM298.248 17.6339C299.001 18.8634 300.155 19.7949 301.516 20.2705C302.877 20.746 304.361 20.7365 305.716 20.2434C307.07 19.7503 308.213 18.804 308.95 17.5649C309.687 16.3257 309.973 14.8699 309.759 13.4442L313.4 12.1188L316.393 20.3411L297.599 27.1815L294.606 18.9592L298.248 17.6339Z" fill="#DA291C"/>
<defs>
<linearGradient id="paint0_linear_1453_427621" x1="283.543" y1="35.0542" x2="285.55" y2="37.0369" gradientUnits="userSpaceOnUse">
<stop stop-color="#F0816B"/>
<stop offset="1" stop-color="#EB4F44"/>
</linearGradient>
<linearGradient id="paint1_linear_1453_427621" x1="293.816" y1="1.58936" x2="295.825" y2="3.57208" gradientUnits="userSpaceOnUse">
<stop stop-color="#F0816B"/>
<stop offset="1" stop-color="#EB4F44"/>
</linearGradient>
<linearGradient id="paint2_linear_1453_427621" x1="315.938" y1="0" x2="317.946" y2="1.98271" gradientUnits="userSpaceOnUse">
<stop stop-color="#F0816B"/>
<stop offset="1" stop-color="#EB4F44"/>
</linearGradient>
<linearGradient id="paint3_linear_1453_427621" x1="303.781" y1="57.7754" x2="305.789" y2="59.7581" gradientUnits="userSpaceOnUse">
<stop stop-color="#F0816B"/>
<stop offset="1" stop-color="#EB4F44"/>
</linearGradient>
<linearGradient id="paint4_linear_1453_427621" x1="325.621" y1="0" x2="330.976" y2="5.28715" gradientUnits="userSpaceOnUse">
<stop stop-color="#F0816B"/>
<stop offset="1" stop-color="#EB4F44"/>
</linearGradient>
<linearGradient id="paint5_linear_1453_427621" x1="334.855" y1="48.0742" x2="336.863" y2="50.0569" gradientUnits="userSpaceOnUse">
<stop stop-color="#F0816B"/>
<stop offset="1" stop-color="#EB4F44"/>
</linearGradient>
</defs>
</svg>
