<svg width="232" height="60" viewBox="0 0 232 60" fill="none" xmlns="http://www.w3.org/2000/svg">
<g clip-path="url(#clip0_1018_384409)">
<path d="M6.645 39.3043H2.297V36.5621H6.645C7.317 36.5621 7.864 36.4527 8.285 36.234C8.707 36.0074 9.016 35.6949 9.211 35.2965C9.407 34.898 9.504 34.4488 9.504 33.9488C9.504 33.441 9.407 32.9683 9.211 32.5308C9.016 32.0933 8.707 31.7418 8.285 31.4761C7.864 31.2105 7.317 31.0777 6.645 31.0777H3.516V45.3863H0V28.3238H6.645C7.981 28.3238 9.125 28.566 10.078 29.0504C11.039 29.5269 11.774 30.1871 12.282 31.0308C12.789 31.8746 13.043 32.8394 13.043 33.9254C13.043 35.0269 12.789 35.9801 12.282 36.7847C11.774 37.5894 11.039 38.2105 10.078 38.648C9.125 39.0855 7.981 39.3043 6.645 39.3043ZM15.469 28.3238H21.832C23.137 28.3238 24.258 28.5191 25.196 28.9097C26.141 29.3004 26.867 29.8785 27.375 30.6441C27.883 31.4097 28.137 32.3511 28.137 33.4683C28.137 34.3824 27.981 35.1675 27.668 35.8238C27.364 36.4722 26.93 37.0152 26.367 37.4527C25.813 37.8824 25.16 38.2261 24.41 38.484L23.297 39.0699H17.766L17.742 36.3277H21.856C22.473 36.3277 22.985 36.2183 23.391 35.9996C23.797 35.7808 24.102 35.4761 24.305 35.0855C24.516 34.6949 24.621 34.2418 24.621 33.7261C24.621 33.1793 24.52 32.7066 24.317 32.3082C24.114 31.9097 23.805 31.6051 23.391 31.3941C22.977 31.1832 22.457 31.0777 21.832 31.0777H18.985V45.3863H15.469V28.3238ZM25.008 45.3863L21.117 37.7808L24.832 37.7574L28.77 45.2222V45.3863H25.008ZM44.86 36.4566V37.2652C44.86 38.5621 44.684 39.7261 44.332 40.7574C43.981 41.7886 43.485 42.6675 42.844 43.3941C42.203 44.1129 41.438 44.6636 40.547 45.0465C39.664 45.4293 38.684 45.6207 37.606 45.6207C36.535 45.6207 35.555 45.4293 34.664 45.0465C33.782 44.6636 33.016 44.1129 32.367 43.3941C31.719 42.6675 31.215 41.7886 30.856 40.7574C30.504 39.7261 30.328 38.5621 30.328 37.2652V36.4566C30.328 35.1519 30.504 33.9879 30.856 32.9644C31.207 31.9332 31.703 31.0543 32.344 30.3277C32.992 29.6011 33.758 29.0465 34.641 28.6636C35.532 28.2808 36.512 28.0894 37.582 28.0894C38.66 28.0894 39.641 28.2808 40.524 28.6636C41.414 29.0465 42.18 29.6011 42.821 30.3277C43.469 31.0543 43.969 31.9332 44.321 32.9644C44.68 33.9879 44.86 35.1519 44.86 36.4566ZM41.309 37.2652V36.4332C41.309 35.5269 41.227 34.7301 41.063 34.0425C40.899 33.3551 40.657 32.7769 40.336 32.3082C40.016 31.8394 39.625 31.4879 39.164 31.2535C38.703 31.0113 38.176 30.8902 37.582 30.8902C36.989 30.8902 36.461 31.0113 36 31.2535C35.547 31.4879 35.16 31.8394 34.84 32.3082C34.528 32.7769 34.289 33.3551 34.125 34.0425C33.961 34.7301 33.879 35.5269 33.879 36.4332V37.2652C33.879 38.1636 33.961 38.9605 34.125 39.6558C34.289 40.3433 34.532 40.9254 34.852 41.4019C35.172 41.8707 35.563 42.2261 36.024 42.4683C36.485 42.7105 37.012 42.8316 37.606 42.8316C38.2 42.8316 38.727 42.7105 39.188 42.4683C39.649 42.2261 40.035 41.8707 40.348 41.4019C40.66 40.9254 40.899 40.3433 41.063 39.6558C41.227 38.9605 41.309 38.1636 41.309 37.2652ZM48.996 28.3238H51.973L56.356 40.8511L60.739 28.3238H63.715L57.551 45.3863H55.16L48.996 28.3238ZM47.391 28.3238H50.356L50.895 40.5347V45.3863H47.391V28.3238ZM62.356 28.3238H65.332V45.3863H61.817V40.5347L62.356 28.3238ZM82.43 36.4566V37.2652C82.43 38.5621 82.254 39.7261 81.903 40.7574C81.551 41.7886 81.055 42.6675 80.414 43.3941C79.774 44.1129 79.008 44.6636 78.117 45.0465C77.235 45.4293 76.254 45.6207 75.176 45.6207C74.106 45.6207 73.125 45.4293 72.235 45.0465C71.352 44.6636 70.586 44.1129 69.938 43.3941C69.289 42.6675 68.785 41.7886 68.426 40.7574C68.074 39.7261 67.899 38.5621 67.899 37.2652V36.4566C67.899 35.1519 68.074 33.9879 68.426 32.9644C68.778 31.9332 69.274 31.0543 69.914 30.3277C70.563 29.6011 71.328 29.0465 72.211 28.6636C73.102 28.2808 74.082 28.0894 75.153 28.0894C76.231 28.0894 77.211 28.2808 78.094 28.6636C78.985 29.0465 79.75 29.6011 80.391 30.3277C81.039 31.0543 81.539 31.9332 81.891 32.9644C82.25 33.9879 82.43 35.1519 82.43 36.4566ZM78.879 37.2652V36.4332C78.879 35.5269 78.797 34.7301 78.633 34.0425C78.469 33.3551 78.227 32.7769 77.907 32.3082C77.586 31.8394 77.196 31.4879 76.735 31.2535C76.274 31.0113 75.746 30.8902 75.153 30.8902C74.559 30.8902 74.032 31.0113 73.571 31.2535C73.117 31.4879 72.731 31.8394 72.41 32.3082C72.098 32.7769 71.86 33.3551 71.696 34.0425C71.532 34.7301 71.45 35.5269 71.45 36.4332V37.2652C71.45 38.1636 71.532 38.9605 71.696 39.6558C71.86 40.3433 72.102 40.9254 72.422 41.4019C72.742 41.8707 73.133 42.2261 73.594 42.4683C74.055 42.7105 74.582 42.8316 75.176 42.8316C75.77 42.8316 76.297 42.7105 76.758 42.4683C77.219 42.2261 77.606 41.8707 77.918 41.4019C78.231 40.9254 78.469 40.3433 78.633 39.6558C78.797 38.9605 78.879 38.1636 78.879 37.2652ZM91.793 28.3238V45.3863H88.289V28.3238H91.793ZM97.043 28.3238V31.0777H83.121V28.3238H97.043ZM102.785 28.3238V45.3863H99.282V28.3238H102.785ZM120.094 36.4566V37.2652C120.094 38.5621 119.918 39.7261 119.567 40.7574C119.215 41.7886 118.719 42.6675 118.078 43.3941C117.438 44.1129 116.672 44.6636 115.782 45.0465C114.899 45.4293 113.918 45.6207 112.84 45.6207C111.77 45.6207 110.789 45.4293 109.899 45.0465C109.016 44.6636 108.25 44.1129 107.602 43.3941C106.953 42.6675 106.45 41.7886 106.09 40.7574C105.739 39.7261 105.563 38.5621 105.563 37.2652V36.4566C105.563 35.1519 105.739 33.9879 106.09 32.9644C106.442 31.9332 106.938 31.0543 107.578 30.3277C108.227 29.6011 108.992 29.0465 109.875 28.6636C110.766 28.2808 111.746 28.0894 112.817 28.0894C113.895 28.0894 114.875 28.2808 115.758 28.6636C116.649 29.0465 117.414 29.6011 118.055 30.3277C118.703 31.0543 119.203 31.9332 119.555 32.9644C119.914 33.9879 120.094 35.1519 120.094 36.4566ZM116.543 37.2652V36.4332C116.543 35.5269 116.461 34.7301 116.297 34.0425C116.133 33.3551 115.891 32.7769 115.571 32.3082C115.25 31.8394 114.86 31.4879 114.399 31.2535C113.938 31.0113 113.41 30.8902 112.817 30.8902C112.223 30.8902 111.696 31.0113 111.235 31.2535C110.782 31.4879 110.395 31.8394 110.074 32.3082C109.762 32.7769 109.524 33.3551 109.36 34.0425C109.196 34.7301 109.114 35.5269 109.114 36.4332V37.2652C109.114 38.1636 109.196 38.9605 109.36 39.6558C109.524 40.3433 109.766 40.9254 110.086 41.4019C110.407 41.8707 110.797 42.2261 111.258 42.4683C111.719 42.7105 112.246 42.8316 112.84 42.8316C113.434 42.8316 113.961 42.7105 114.422 42.4683C114.883 42.2261 115.27 41.8707 115.582 41.4019C115.895 40.9254 116.133 40.3433 116.297 39.6558C116.461 38.9605 116.543 38.1636 116.543 37.2652ZM136.512 28.3238V45.3863H132.996L126.141 33.9488V45.3863H122.625V28.3238H126.141L133.008 39.773V28.3238H136.512Z" fill="#141416"/>
<path d="M167.551 27.3735V44.436H164.035L157.179 32.9985V44.436H153.664V27.3735H157.179L164.047 38.8227V27.3735H167.551Z" fill="#141416"/>
<path d="M187.699 12.6426H192.751V22.7899H187.699V12.6426Z" fill="#565A65"/>
<path d="M190.227 12.6426H192.753V22.7899H190.227V12.6426Z" fill="#141416"/>
<path d="M196.962 15.1786H183.491C182.096 15.1786 180.965 14.0428 180.965 12.6418C180.965 11.2408 182.096 10.105 183.491 10.105H196.962C198.357 10.105 199.488 11.2408 199.488 12.6418C199.488 14.0428 198.357 15.1786 196.962 15.1786Z" fill="#DA291C"/>
<path d="M196.963 10.105H190.227V15.1786H196.963C198.358 15.1786 199.488 14.0428 199.488 12.6418C199.488 11.2408 198.358 10.105 196.963 10.105Z" fill="#C61B0F"/>
<path d="M177.722 29.0436L174.15 25.4561C173.164 24.4654 173.164 22.8592 174.15 21.8685C175.137 20.8778 176.736 20.8778 177.722 21.8685L181.295 25.4561L177.722 29.0436Z" fill="#565A65"/>
<path d="M199.156 25.4561L202.728 21.8685C203.714 20.8778 205.313 20.8778 206.3 21.8685C207.286 22.8592 207.286 24.4654 206.3 25.4561L202.728 29.0436L199.156 25.4561Z" fill="#141416"/>
<path d="M190.229 53.2305C198.599 53.2305 205.384 46.4159 205.384 38.0096C205.384 29.6033 198.599 22.7886 190.229 22.7886C181.859 22.7886 175.074 29.6033 175.074 38.0096C175.074 46.4159 181.859 53.2305 190.229 53.2305Z" fill="#E6E8EC"/>
<path d="M190.227 22.7886V53.2305C198.597 53.2305 205.382 46.4159 205.382 38.0096C205.382 29.6032 198.597 22.7886 190.227 22.7886Z" fill="#F4F5F6"/>
<path d="M190.228 55.7655C180.479 55.7655 172.547 47.7993 172.547 38.0077C172.547 28.2161 180.479 20.25 190.228 20.25C199.978 20.25 207.91 28.2161 207.91 38.0077C207.91 47.7993 199.978 55.7655 190.228 55.7655ZM190.228 25.3236C183.264 25.3236 177.599 31.0137 177.599 38.0077C177.599 45.0017 183.264 50.6918 190.228 50.6918C197.192 50.6918 202.858 45.0017 202.858 38.0077C202.858 31.0137 197.192 25.3236 190.228 25.3236Z" fill="#DA291C"/>
<path d="M190.227 20.25V25.3236C197.191 25.3236 202.856 31.0137 202.856 38.0077C202.856 45.0017 197.191 50.6918 190.227 50.6918V55.7655C199.976 55.7655 207.908 47.7993 207.908 38.0077C207.908 28.2161 199.976 20.25 190.227 20.25Z" fill="#C61B0F"/>
<path d="M188.443 39.8019C187.457 38.8112 187.457 37.2051 188.443 36.2144L192.015 32.6268C193.002 31.6361 194.601 31.6361 195.587 32.6268C196.574 33.6175 196.574 35.2237 195.587 36.2144L192.015 39.8019C191.029 40.7925 189.43 40.7925 188.443 39.8019Z" fill="#565A65"/>
<path d="M195.585 32.6268C194.599 31.6361 192.999 31.6361 192.013 32.6268L190.227 34.4207V40.5451C190.873 40.5451 191.52 40.2973 192.013 39.8019L195.585 36.2144C196.571 35.2237 196.571 33.6175 195.585 32.6268Z" fill="#141416"/>
<path d="M217.347 41.729L220.746 27.3735H222.644L223.078 29.7641L219.457 44.436H217.417L217.347 41.729ZM215.601 27.3735L218.414 41.729L218.179 44.436H215.906L212.121 27.3735H215.601ZM226.066 41.6704L228.843 27.3735H232.324L228.55 44.436H226.277L226.066 41.6704ZM223.71 27.3735L227.132 41.7876L227.039 44.436H224.999L221.355 29.7524L221.824 27.3735H223.71Z" fill="#141416"/>
<path d="M216.723 55.5073C217.337 55.5073 217.834 55.01 217.834 54.3967C217.834 53.7833 217.337 53.2861 216.723 53.2861C216.11 53.2861 215.613 53.7833 215.613 54.3967C215.613 55.01 216.11 55.5073 216.723 55.5073Z" fill="url(#paint0_linear_1018_384409)"/>
<path d="M203.981 0C205.618 0 206.943 1.3253 206.943 2.9615C206.943 4.5978 205.618 5.923 203.981 5.923C202.345 5.923 201.02 4.5978 201.02 2.9615C201.02 1.3253 202.345 0 203.981 0Z" fill="url(#paint1_linear_1018_384409)"/>
<path d="M169.961 57.6865C171.48 57.6865 172.711 56.4553 172.711 54.9365C172.711 53.4177 171.48 52.1865 169.961 52.1865C168.442 52.1865 167.211 53.4177 167.211 54.9365C167.211 56.4553 168.442 57.6865 169.961 57.6865Z" fill="#29CC6A"/>
<path d="M217.676 7.77393C218.29 7.77393 218.787 7.27663 218.787 6.66333C218.787 6.04993 218.29 5.55273 217.676 5.55273C217.063 5.55273 216.566 6.04993 216.566 6.66333C216.566 7.27663 217.063 7.77393 217.676 7.77393Z" fill="#29CC6A"/>
<path d="M180.423 59.9076C181.037 59.9076 181.534 59.4104 181.534 58.7971C181.534 58.1837 181.037 57.6865 180.423 57.6865C179.81 57.6865 179.312 58.1837 179.312 58.7971C179.312 59.4104 179.81 59.9076 180.423 59.9076Z" fill="url(#paint2_linear_1018_384409)"/>
<path d="M192.505 2.2211C193.119 2.2211 193.616 1.7239 193.616 1.1105C193.616 0.4972 193.119 0 192.505 0C191.892 0 191.395 0.4972 191.395 1.1105C191.395 1.7239 191.892 2.2211 192.505 2.2211Z" fill="url(#paint3_linear_1018_384409)"/>
<path d="M170.521 3.80801C171.134 3.80801 171.632 3.31081 171.632 2.69751C171.632 2.08411 171.134 1.58691 170.521 1.58691C169.908 1.58691 169.41 2.08411 169.41 2.69751C169.41 3.31081 169.908 3.80801 170.521 3.80801Z" fill="url(#paint4_linear_1018_384409)"/>
<path d="M163.923 10.4076C164.537 10.4076 165.034 9.91042 165.034 9.29712C165.034 8.68372 164.537 8.18652 163.923 8.18652C163.31 8.18652 162.812 8.68372 162.812 9.29712C162.812 9.91042 163.31 10.4076 163.923 10.4076Z" fill="#29CC6A"/>
<path d="M153.305 50.0497C153.919 50.0497 154.416 49.5525 154.416 48.9392C154.416 48.3258 153.919 47.8286 153.305 47.8286C152.692 47.8286 152.195 48.3258 152.195 48.9392C152.195 49.5525 152.692 50.0497 153.305 50.0497Z" fill="url(#paint5_linear_1018_384409)"/>
</g>
<defs>
<linearGradient id="paint0_linear_1018_384409" x1="215.613" y1="53.2861" x2="217.617" y2="55.2566" gradientUnits="userSpaceOnUse">
<stop stop-color="#F0816B"/>
<stop offset="1" stop-color="#EB4F44"/>
</linearGradient>
<linearGradient id="paint1_linear_1018_384409" x1="201.02" y1="0" x2="206.366" y2="5.2546" gradientUnits="userSpaceOnUse">
<stop stop-color="#F0816B"/>
<stop offset="1" stop-color="#EB4F44"/>
</linearGradient>
<linearGradient id="paint2_linear_1018_384409" x1="179.312" y1="57.6865" x2="181.318" y2="59.657" gradientUnits="userSpaceOnUse">
<stop stop-color="#F0816B"/>
<stop offset="1" stop-color="#EB4F44"/>
</linearGradient>
<linearGradient id="paint3_linear_1018_384409" x1="191.395" y1="0" x2="193.4" y2="1.97051" gradientUnits="userSpaceOnUse">
<stop stop-color="#F0816B"/>
<stop offset="1" stop-color="#EB4F44"/>
</linearGradient>
<linearGradient id="paint4_linear_1018_384409" x1="169.41" y1="1.58691" x2="171.415" y2="3.55743" gradientUnits="userSpaceOnUse">
<stop stop-color="#F0816B"/>
<stop offset="1" stop-color="#EB4F44"/>
</linearGradient>
<linearGradient id="paint5_linear_1018_384409" x1="152.195" y1="47.8286" x2="154.199" y2="49.7991" gradientUnits="userSpaceOnUse">
<stop stop-color="#F0816B"/>
<stop offset="1" stop-color="#EB4F44"/>
</linearGradient>
<clipPath id="clip0_1018_384409">
<rect width="232" height="60" fill="white"/>
</clipPath>
</defs>
</svg>
