<svg width="304" height="60" viewBox="0 0 304 60" fill="none" xmlns="http://www.w3.org/2000/svg">
<g clip-path="url(#clip0_1018_384452)">
<path d="M63.2388 12.6896H66.2148L70.5978 25.2169L74.9808 12.6896H77.9578L71.7938 29.7521H69.4028L63.2388 12.6896ZM61.6328 12.6896H64.5978L65.1368 24.9005V29.7521H61.6328V12.6896ZM76.5978 12.6896H79.5748V29.7521H76.0588V24.9005L76.5978 12.6896ZM87.8948 29.7521H84.1798L84.2038 27.0099H87.8948C88.8168 27.0099 89.5938 26.8029 90.2268 26.3888C90.8598 25.9669 91.3368 25.3537 91.6568 24.549C91.9848 23.7443 92.1488 22.7716 92.1488 21.631V20.799C92.1488 19.924 92.0548 19.1544 91.8678 18.4904C91.6878 17.8263 91.4188 17.2677 91.0588 16.8146C90.6998 16.3615 90.2578 16.0216 89.7348 15.7951C89.2118 15.5607 88.6098 15.4435 87.9298 15.4435H84.1098V12.6896H87.9298C89.0708 12.6896 90.1138 12.8849 91.0588 13.2755C92.0118 13.6583 92.8368 14.2091 93.5318 14.9279C94.2268 15.6466 94.7618 16.506 95.1368 17.506C95.5198 18.4982 95.7118 19.6037 95.7118 20.8224V21.631C95.7118 22.8419 95.5198 23.9474 95.1368 24.9474C94.7618 25.9474 94.2268 26.8068 93.5318 27.5255C92.8438 28.2365 92.0198 28.7873 91.0588 29.1779C90.1058 29.5607 89.0508 29.7521 87.8948 29.7521ZM86.1728 12.6896V29.7521H82.6568V12.6896H86.1728ZM101.137 11.7521V13.5333C101.137 14.0412 101.04 14.5646 100.844 15.1037C100.657 15.6427 100.403 16.1544 100.083 16.6388C99.7618 17.1154 99.4108 17.5216 99.0278 17.8576L97.4458 16.9435C97.7348 16.4826 97.9808 15.9826 98.1838 15.4435C98.3868 14.8966 98.4888 14.2638 98.4888 13.5451V11.7521H101.137ZM108.145 26.2482C108.145 26.006 108.075 25.7873 107.934 25.5919C107.794 25.3966 107.532 25.2169 107.149 25.0529C106.774 24.881 106.231 24.7248 105.52 24.5841C104.88 24.4435 104.282 24.2677 103.727 24.0568C103.18 23.838 102.704 23.5763 102.298 23.2716C101.899 22.9669 101.587 22.6076 101.36 22.1935C101.133 21.7716 101.02 21.2912 101.02 20.7521C101.02 20.2209 101.133 19.7209 101.36 19.2521C101.594 18.7833 101.926 18.3693 102.356 18.0099C102.794 17.6427 103.325 17.3576 103.95 17.1544C104.583 16.9435 105.294 16.838 106.083 16.838C107.184 16.838 108.13 17.0138 108.919 17.3654C109.715 17.7169 110.325 18.2013 110.747 18.8185C111.176 19.4279 111.391 20.1232 111.391 20.9044H108.016C108.016 20.5763 107.946 20.2833 107.805 20.0255C107.673 19.7599 107.462 19.5529 107.173 19.4044C106.891 19.2482 106.524 19.1701 106.071 19.1701C105.696 19.1701 105.372 19.2365 105.098 19.3693C104.825 19.4943 104.614 19.6662 104.465 19.8849C104.325 20.0959 104.255 20.3302 104.255 20.588C104.255 20.7833 104.294 20.9591 104.372 21.1154C104.458 21.2638 104.594 21.4005 104.782 21.5255C104.969 21.6505 105.212 21.7677 105.508 21.8771C105.813 21.9787 106.188 22.0724 106.633 22.1583C107.548 22.3459 108.364 22.5919 109.083 22.8966C109.801 23.1935 110.372 23.5998 110.794 24.1154C111.215 24.6232 111.426 25.2912 111.426 26.1193C111.426 26.6818 111.301 27.1974 111.051 27.6662C110.801 28.1349 110.442 28.5451 109.973 28.8966C109.505 29.2404 108.942 29.5099 108.286 29.7052C107.637 29.8927 106.907 29.9865 106.094 29.9865C104.915 29.9865 103.915 29.7755 103.094 29.3537C102.282 28.9318 101.665 28.3966 101.243 27.7482C100.829 27.0919 100.622 26.4201 100.622 25.7326H103.821C103.837 26.1935 103.954 26.5646 104.173 26.8459C104.399 27.1271 104.684 27.3302 105.028 27.4552C105.38 27.5802 105.758 27.6427 106.165 27.6427C106.602 27.6427 106.965 27.5841 107.255 27.4669C107.544 27.3419 107.762 27.1779 107.911 26.9748C108.067 26.7638 108.145 26.5216 108.145 26.2482Z" fill="#141416"/>
<path d="M136.25 23.6701H131.902V20.9279H136.25C136.922 20.9279 137.468 20.8185 137.89 20.5998C138.312 20.3732 138.621 20.0607 138.816 19.6623C139.011 19.2638 139.109 18.8146 139.109 18.3146C139.109 17.8068 139.011 17.3341 138.816 16.8966C138.621 16.4591 138.312 16.1076 137.89 15.8419C137.468 15.5763 136.922 15.4435 136.25 15.4435H133.121V29.7521H129.605V12.6896H136.25C137.586 12.6896 138.73 12.9318 139.683 13.4162C140.644 13.8927 141.379 14.5529 141.886 15.3966C142.394 16.2404 142.648 17.2052 142.648 18.2912C142.648 19.3927 142.394 20.3459 141.886 21.1505C141.379 21.9552 140.644 22.5763 139.683 23.0138C138.73 23.4513 137.586 23.6701 136.25 23.6701ZM148.812 12.6896V29.7521H145.308V12.6896H148.812ZM161.996 24.0919H165.5C165.429 25.2404 165.113 26.2599 164.55 27.1505C163.996 28.0412 163.218 28.7365 162.218 29.2365C161.226 29.7365 160.031 29.9865 158.632 29.9865C157.539 29.9865 156.558 29.799 155.691 29.424C154.824 29.0412 154.082 28.4943 153.464 27.7833C152.855 27.0724 152.39 26.213 152.07 25.2052C151.75 24.1974 151.589 23.0685 151.589 21.8185V20.6349C151.589 19.3849 151.754 18.256 152.082 17.2482C152.418 16.2326 152.894 15.3693 153.511 14.6583C154.136 13.9474 154.882 13.4005 155.75 13.0177C156.617 12.6349 157.586 12.4435 158.656 12.4435C160.078 12.4435 161.277 12.7013 162.254 13.2169C163.238 13.7326 164 14.4435 164.539 15.3498C165.086 16.256 165.414 17.2873 165.523 18.4435H162.007C161.968 17.756 161.832 17.174 161.597 16.6974C161.363 16.213 161.007 15.8498 160.531 15.6076C160.062 15.3576 159.437 15.2326 158.656 15.2326C158.07 15.2326 157.558 15.3419 157.121 15.5607C156.683 15.7794 156.316 16.1115 156.019 16.5568C155.722 17.0021 155.5 17.5646 155.351 18.2443C155.211 18.9162 155.14 19.7052 155.14 20.6115V21.8185C155.14 22.7013 155.207 23.4787 155.339 24.1505C155.472 24.8146 155.675 25.3771 155.949 25.838C156.23 26.2912 156.589 26.6349 157.027 26.8693C157.472 27.0959 158.007 27.2091 158.632 27.2091C159.367 27.2091 159.972 27.0919 160.449 26.8576C160.925 26.6232 161.289 26.2755 161.539 25.8146C161.797 25.3537 161.949 24.7794 161.996 24.0919ZM171.324 12.6896V29.7521H167.808V12.6896H171.324ZM181.543 12.6896L174.781 21.1154L170.879 25.3107L170.246 21.9826L172.882 18.3732L177.23 12.6896H181.543ZM177.547 29.7521L172.519 21.8654L175.121 19.6857L181.707 29.7521H177.547ZM191.949 25.2873C191.949 24.9826 191.902 24.7091 191.808 24.4669C191.722 24.2169 191.558 23.9904 191.316 23.7873C191.074 23.5763 190.734 23.3693 190.297 23.1662C189.859 22.963 189.293 22.7521 188.597 22.5333C187.824 22.2833 187.089 22.0021 186.394 21.6896C185.707 21.3771 185.097 21.0138 184.566 20.5998C184.043 20.1779 183.629 19.6896 183.324 19.1349C183.027 18.5802 182.879 17.9357 182.879 17.2013C182.879 16.4904 183.035 15.8459 183.347 15.2677C183.66 14.6818 184.097 14.1818 184.66 13.7677C185.222 13.3459 185.886 13.0216 186.652 12.7951C187.425 12.5685 188.273 12.4552 189.195 12.4552C190.453 12.4552 191.55 12.6818 192.488 13.1349C193.425 13.588 194.152 14.2091 194.668 14.9982C195.191 15.7873 195.453 16.6896 195.453 17.7052H191.961C191.961 17.2052 191.855 16.7677 191.644 16.3927C191.441 16.0099 191.129 15.7091 190.707 15.4904C190.293 15.2716 189.769 15.1623 189.136 15.1623C188.527 15.1623 188.019 15.256 187.613 15.4435C187.207 15.6232 186.902 15.8693 186.699 16.1818C186.496 16.4865 186.394 16.8302 186.394 17.213C186.394 17.5021 186.464 17.7638 186.605 17.9982C186.754 18.2326 186.972 18.4513 187.261 18.6544C187.55 18.8576 187.906 19.049 188.328 19.2287C188.75 19.4083 189.238 19.5841 189.793 19.756C190.722 20.0373 191.539 20.3537 192.242 20.7052C192.953 21.0568 193.547 21.4513 194.023 21.8888C194.5 22.3263 194.859 22.8224 195.101 23.3771C195.343 23.9318 195.464 24.5607 195.464 25.2638C195.464 26.006 195.32 26.6701 195.031 27.256C194.742 27.8419 194.324 28.338 193.777 28.7443C193.23 29.1505 192.578 29.4591 191.82 29.6701C191.062 29.881 190.214 29.9865 189.277 29.9865C188.433 29.9865 187.601 29.8771 186.781 29.6583C185.961 29.4318 185.214 29.0919 184.543 28.6388C183.879 28.1857 183.347 27.6076 182.949 26.9044C182.55 26.2013 182.351 25.3693 182.351 24.4083H185.879C185.879 24.9396 185.961 25.3888 186.125 25.756C186.289 26.1232 186.519 26.4201 186.816 26.6466C187.121 26.8732 187.48 27.0373 187.894 27.1388C188.316 27.2404 188.777 27.2912 189.277 27.2912C189.886 27.2912 190.386 27.2052 190.777 27.0333C191.175 26.8615 191.468 26.6232 191.656 26.3185C191.851 26.0138 191.949 25.6701 191.949 25.2873Z" fill="#DA291C"/>
<mask id="mask0_1018_384452" style="mask-type:luminance" maskUnits="userSpaceOnUse" x="216" y="2" width="32" height="32">
<path d="M247.088 2.94995H216.949V33.0883H247.088V2.94995Z" fill="white"/>
</mask>
<g mask="url(#mask0_1018_384452)">
<path d="M232.842 25.1415C232.842 29.5387 229.292 33.0882 224.895 33.0882C220.499 33.0882 216.949 29.5387 216.949 25.1415C216.949 20.7444 220.499 17.1949 224.895 17.1949C229.292 17.1949 232.842 20.7444 232.842 25.1415Z" fill="#DA291C"/>
<path d="M232.842 25.1415C232.842 29.5387 229.292 33.0882 224.895 33.0882V17.1949C229.292 17.1949 232.842 20.7444 232.842 25.1415Z" fill="#AB1C11"/>
<path d="M228.163 23.9941L224.896 27.2787L224.013 28.1617L221.629 25.76L222.865 24.5238L224.013 25.6539L224.896 24.771L226.927 22.7579L228.163 23.9941Z" fill="#FFF5F5"/>
<path d="M228.161 23.993L224.895 27.2777V24.77L226.925 22.7569L228.161 23.993Z" fill="#EFE2DD"/>
<path d="M240.171 21.0969L237.681 23.5869C236.904 24.3816 235.827 24.7523 234.644 24.7523C232.648 24.7523 230.281 23.6927 228.322 21.7151C225.161 18.5716 224.349 14.4571 226.449 12.3556L228.94 9.86557L240.171 21.0969Z" fill="#D8AA8B"/>
<path d="M240.17 21.0979L237.68 23.5879C236.903 24.3826 235.826 24.7532 234.643 24.7532C232.647 24.7532 230.281 23.6936 228.32 21.716L234.554 15.4821L240.17 21.0979Z" fill="#CE9875"/>
<path d="M240.173 21.0972C239.414 21.8565 238.372 22.2451 237.154 22.2451C236.694 22.2451 236.2 22.1919 235.688 22.0685C233.993 21.6799 232.262 20.6734 230.814 19.2253C229.366 17.7771 228.359 16.0467 227.971 14.3515C227.53 12.5148 227.882 10.908 228.942 9.86596C230.601 8.18823 233.639 8.34713 236.482 10.2368L239.802 13.5569C241.692 16.3998 241.851 19.4371 240.173 21.0972Z" fill="#777E91"/>
<path d="M240.172 21.0977C239.413 21.8569 238.37 22.2456 237.152 22.2456C236.693 22.2456 236.199 22.1924 235.687 22.069C233.992 21.6804 232.26 20.6739 230.812 19.2258L238.141 11.8972L239.801 13.5572C241.69 16.4003 241.85 19.4375 240.172 21.0977Z" fill="#565A65"/>
<path d="M245.887 8.52366L236.074 16.4705C235.403 16.4705 234.767 16.2056 234.308 15.7289C233.831 15.2698 233.566 14.634 233.566 13.963L241.507 4.14398C242.637 2.69609 244.827 2.51951 246.17 3.86143C247.512 5.18589 247.353 7.37578 245.887 8.52366Z" fill="#D8AA8B"/>
<path d="M245.887 8.52419L236.074 16.471C235.403 16.471 234.767 16.2062 234.309 15.7295L246.169 3.86197C247.512 5.18642 247.352 7.37632 245.887 8.52419Z" fill="#CE9875"/>
<path d="M224.65 3.61887C225.575 3.61887 226.325 4.36814 226.325 5.29323C226.325 6.21832 225.575 6.96759 224.65 6.96759C223.725 6.96759 222.977 6.21832 222.977 5.29323C222.977 4.36814 223.725 3.61887 224.65 3.61887Z" fill="url(#paint0_linear_1018_384452)"/>
</g>
<path d="M247 28C247.276 28 247.5 27.7761 247.5 27.5C247.5 27.2239 247.276 27 247 27C246.724 27 246.5 27.2239 246.5 27.5C246.5 27.7761 246.724 28 247 28Z" fill="url(#paint1_linear_1018_384452)"/>
<path d="M235.5 31C236.053 31 236.5 30.5524 236.5 30.0001C236.5 29.4478 236.053 29 235.5 29C234.948 29 234.5 29.4478 234.5 30.0001C234.5 30.5524 234.948 31 235.5 31Z" fill="#29CC6A"/>
<path d="M244 18C244.276 18 244.5 17.7762 244.5 17.5C244.5 17.2238 244.276 17 244 17C243.724 17 243.5 17.2238 243.5 17.5C243.5 17.7762 243.724 18 244 18Z" fill="#29CC6A"/>
<path d="M227 34C227.276 34 227.5 33.7762 227.5 33.5C227.5 33.2238 227.276 33 227 33C226.724 33 226.5 33.2238 226.5 33.5C226.5 33.7762 226.724 34 227 34Z" fill="url(#paint2_linear_1018_384452)"/>
<path d="M231 1C231.276 1 231.5 0.776152 231.5 0.500045C231.5 0.223851 231.276 0 231 0C230.724 0 230.5 0.223851 230.5 0.500045C230.5 0.776152 230.724 1 231 1Z" fill="url(#paint3_linear_1018_384452)"/>
<path d="M218.5 3C219.053 3 219.5 2.55226 219.5 2C219.5 1.44774 219.053 1 218.5 1C217.949 1 217.5 1.44774 217.5 2C217.5 2.55226 217.949 3 218.5 3Z" fill="url(#paint4_linear_1018_384452)"/>
<path d="M215 10C215.276 10 215.5 9.77613 215.5 9.5C215.5 9.22387 215.276 9 215 9C214.724 9 214.5 9.22387 214.5 9.5C214.5 9.77613 214.724 10 215 10Z" fill="#29CC6A"/>
<path d="M215 31C215.276 31 215.5 30.7761 215.5 30.5C215.5 30.2239 215.276 30 215 30C214.724 30 214.5 30.2239 214.5 30.5C214.5 30.7761 214.724 31 215 31Z" fill="url(#paint5_linear_1018_384452)"/>
<path d="M4.0479 52.5011H1.5254L1.5118 51.4416H3.8018C4.1801 51.4416 4.5105 51.3778 4.793 51.2501C5.0756 51.1225 5.2943 50.9403 5.4493 50.7033C5.6088 50.4617 5.6885 50.1746 5.6885 49.8419C5.6885 49.4774 5.6179 49.1811 5.4766 48.9533C5.3399 48.7209 5.128 48.5522 4.8409 48.4474C4.5583 48.338 4.1983 48.2833 3.7608 48.2833H1.8194V57.1564H0.5V47.2033H3.7608C4.2712 47.2033 4.7269 47.2557 5.128 47.3605C5.529 47.4608 5.8685 47.6203 6.1465 47.839C6.4291 48.0532 6.6433 48.3266 6.7891 48.6593C6.9349 48.992 7.0079 49.3908 7.0079 49.8556C7.0079 50.2658 6.903 50.6372 6.6934 50.9699C6.4838 51.298 6.1921 51.5669 5.8184 51.7765C5.4493 51.9861 5.0163 52.1206 4.5196 52.1798L4.0479 52.5011ZM3.9864 57.1564H1.0059L1.751 56.0832H3.9864C4.4056 56.0832 4.7611 56.0102 5.0528 55.8644C5.349 55.7186 5.5746 55.5135 5.7295 55.2492C5.8845 54.9803 5.962 54.6636 5.962 54.299C5.962 53.9298 5.8959 53.6108 5.7637 53.3419C5.6316 53.0731 5.4242 52.8657 5.1416 52.7199C4.8591 52.574 4.4945 52.5011 4.0479 52.5011H2.168L2.1817 51.4416H4.752L5.0323 51.8244C5.5108 51.8654 5.9164 52.0021 6.2491 52.2345C6.5817 52.4624 6.8347 52.7541 7.0079 53.1095C7.1856 53.465 7.2745 53.8569 7.2745 54.2853C7.2745 54.9051 7.1377 55.4292 6.8643 55.8576C6.5954 56.2814 6.2149 56.605 5.7227 56.8283C5.2305 57.047 4.6517 57.1564 3.9864 57.1564ZM12.1006 57.2931C11.5857 57.2931 11.1185 57.2065 10.6993 57.0333C10.2845 56.8556 9.9268 56.6072 9.626 56.2882C9.3298 55.9692 9.1019 55.591 8.9424 55.1535C8.7829 54.716 8.70321 54.2375 8.70321 53.7179V53.4308C8.70321 52.8292 8.792 52.2938 8.9698 51.8244C9.1475 51.3504 9.389 50.9494 9.6944 50.6212C9.9997 50.2931 10.3461 50.0447 10.7334 49.8761C11.1208 49.7075 11.5219 49.6232 11.9366 49.6232C12.4652 49.6232 12.9209 49.7143 13.3038 49.8966C13.6911 50.0789 14.0079 50.3341 14.2539 50.6623C14.5 50.9858 14.6823 51.3686 14.8008 51.8107C14.9193 52.2482 14.9786 52.7267 14.9786 53.2462V53.8136H9.4551V52.7814H13.7139V52.6857C13.6957 52.3576 13.6273 52.0386 13.5088 51.7287C13.3949 51.4188 13.2126 51.1636 12.962 50.963C12.7113 50.7625 12.3695 50.6623 11.9366 50.6623C11.6495 50.6623 11.3851 50.7238 11.1436 50.8468C10.9021 50.9653 10.6947 51.1431 10.5215 51.38C10.3483 51.617 10.2139 51.9064 10.1182 52.2482C10.0225 52.59 9.9746 52.9842 9.9746 53.4308V53.7179C9.9746 54.0688 10.0225 54.3992 10.1182 54.7091C10.2185 55.0145 10.362 55.2833 10.5489 55.5158C10.7403 55.7482 10.9704 55.9305 11.2393 56.0626C11.5127 56.1948 11.8226 56.2609 12.169 56.2609C12.6156 56.2609 12.9939 56.1697 13.3038 55.9875C13.6136 55.8052 13.8848 55.5613 14.1172 55.256L14.8829 55.8644C14.7233 56.1059 14.5205 56.3361 14.2745 56.5548C14.0284 56.7736 13.7253 56.9513 13.3653 57.088C13.0098 57.2248 12.5883 57.2931 12.1006 57.2931ZM20.1192 47.2033H23.4141C24.1615 47.2033 24.7927 47.3172 25.3077 47.5451C25.8272 47.7729 26.2214 48.1102 26.4903 48.5568C26.7637 48.9988 26.9004 49.5434 26.9004 50.1906C26.9004 50.6463 26.807 51.0633 26.6202 51.4416C26.4379 51.8153 26.1735 52.1343 25.8272 52.3986C25.4854 52.6583 25.0752 52.852 24.5967 52.9796L24.2276 53.1232H21.1309L21.1172 52.05H23.4551C23.9291 52.05 24.3233 51.9679 24.6377 51.8039C24.9522 51.6352 25.1892 51.4097 25.3487 51.1271C25.5082 50.8445 25.5879 50.5324 25.5879 50.1906C25.5879 49.8078 25.5127 49.4728 25.3623 49.1857C25.212 48.8986 24.975 48.6776 24.6514 48.5226C24.3324 48.3631 23.92 48.2833 23.4141 48.2833H21.4385V57.1564H20.1192V47.2033ZM25.9366 57.1564L23.5166 52.6447L24.8907 52.6378L27.3448 57.0744V57.1564H25.9366ZM31.6241 57.2931C31.1091 57.2931 30.642 57.2065 30.2227 57.0333C29.808 56.8556 29.4502 56.6072 29.1495 56.2882C28.8532 55.9692 28.6254 55.591 28.4659 55.1535C28.3064 54.716 28.2266 54.2375 28.2266 53.7179V53.4308C28.2266 52.8292 28.3155 52.2938 28.4932 51.8244C28.6709 51.3504 28.9125 50.9494 29.2178 50.6212C29.5232 50.2931 29.8695 50.0447 30.2569 49.8761C30.6442 49.7075 31.0453 49.6232 31.46 49.6232C31.9886 49.6232 32.4444 49.7143 32.8272 49.8966C33.2146 50.0789 33.5313 50.3341 33.7774 50.6623C34.0235 50.9858 34.2058 51.3686 34.3243 51.8107C34.4427 52.2482 34.502 52.7267 34.502 53.2462V53.8136H28.9786V52.7814H33.2373V52.6857C33.2191 52.3576 33.1508 52.0386 33.0323 51.7287C32.9183 51.4188 32.736 51.1636 32.4854 50.963C32.2347 50.7625 31.8929 50.6623 31.46 50.6623C31.1729 50.6623 30.9086 50.7238 30.667 50.8468C30.4255 50.9653 30.2181 51.1431 30.045 51.38C29.8718 51.617 29.7373 51.9064 29.6416 52.2482C29.5459 52.59 29.4981 52.9842 29.4981 53.4308V53.7179C29.4981 54.0688 29.5459 54.3992 29.6416 54.7091C29.7419 55.0145 29.8855 55.2833 30.0723 55.5158C30.2637 55.7482 30.4939 55.9305 30.7627 56.0626C31.0362 56.1948 31.3461 56.2609 31.6924 56.2609C32.139 56.2609 32.5173 56.1697 32.8272 55.9875C33.1371 55.8052 33.4082 55.5613 33.6407 55.256L34.4063 55.8644C34.2468 56.1059 34.044 56.3361 33.7979 56.5548C33.5518 56.7736 33.2487 56.9513 32.8887 57.088C32.5332 57.2248 32.1117 57.2931 31.6241 57.2931ZM40.3394 55.8917V52.0841C40.3394 51.7925 40.2804 51.5395 40.1624 51.3253C40.0484 51.1066 39.8754 50.938 39.6424 50.8195C39.4104 50.701 39.1234 50.6417 38.7814 50.6417C38.4624 50.6417 38.1824 50.6964 37.9405 50.8058C37.7035 50.9152 37.5166 51.0587 37.3799 51.2365C37.2478 51.4142 37.1817 51.6056 37.1817 51.8107H35.917C35.917 51.5464 35.9854 51.2843 36.1221 51.0246C36.2588 50.7648 36.4548 50.5301 36.71 50.3205C36.9698 50.1063 37.2797 49.9376 37.6397 49.8146C38.0044 49.687 38.4094 49.6232 38.8564 49.6232C39.3944 49.6232 39.8684 49.7143 40.2784 49.8966C40.6934 50.0789 41.0164 50.3546 41.2494 50.7238C41.4864 51.0884 41.6044 51.5464 41.6044 52.0978V55.5431C41.6044 55.7892 41.6254 56.0513 41.6664 56.3292C41.7114 56.6072 41.7774 56.8465 41.8644 57.047V57.1564H40.5454C40.4814 57.0106 40.4314 56.8169 40.3944 56.5753C40.3584 56.3292 40.3394 56.1014 40.3394 55.8917ZM40.5584 52.672L40.5724 53.5607H39.2944C38.9344 53.5607 38.6124 53.5903 38.3304 53.6496C38.0474 53.7042 37.8106 53.7886 37.6192 53.9025C37.4278 54.0164 37.2819 54.16 37.1817 54.3332C37.0814 54.5018 37.0313 54.7 37.0313 54.9279C37.0313 55.1603 37.0837 55.3722 37.1885 55.5636C37.2933 55.755 37.4506 55.9077 37.6602 56.0216C37.8744 56.131 38.1364 56.1857 38.4464 56.1857C38.8334 56.1857 39.1754 56.1037 39.4714 55.9396C39.7684 55.7755 40.0024 55.575 40.1754 55.338C40.3534 55.1011 40.4494 54.8709 40.4634 54.6476L41.0034 55.256C40.9714 55.4474 40.8844 55.6593 40.7434 55.8917C40.6024 56.1242 40.4124 56.3475 40.1754 56.5617C39.9434 56.7713 39.6654 56.9468 39.3414 57.088C39.0224 57.2248 38.6624 57.2931 38.2614 57.2931C37.7605 57.2931 37.3207 57.1951 36.9424 56.9992C36.5687 56.8032 36.2771 56.5412 36.0674 56.213C35.8623 55.8804 35.7598 55.5089 35.7598 55.0988C35.7598 54.7023 35.8373 54.3537 35.9922 54.0529C36.1472 53.7475 36.3705 53.4946 36.6622 53.2941C36.9538 53.089 37.3047 52.9341 37.7149 52.8292C38.1254 52.7244 38.5834 52.672 39.0894 52.672H40.5584ZM48.2554 55.7209V46.6564H49.5274V57.1564H48.3654L48.2554 55.7209ZM43.2794 53.5402V53.3966C43.2794 52.8315 43.3474 52.3188 43.4844 51.8585C43.6254 51.3937 43.8244 50.9949 44.0794 50.6623C44.3394 50.3296 44.6464 50.0744 45.0024 49.8966C45.3624 49.7143 45.7634 49.6232 46.2054 49.6232C46.6704 49.6232 47.0754 49.7052 47.4224 49.8693C47.7724 50.0288 48.0694 50.2635 48.3104 50.5734C48.5564 50.8787 48.7504 51.2479 48.8914 51.6808C49.0334 52.1138 49.1314 52.6037 49.1854 53.1505V53.7794C49.1354 54.3218 49.0374 54.8094 48.8914 55.2423C48.7504 55.6753 48.5564 56.0444 48.3104 56.3498C48.0694 56.6551 47.7724 56.8898 47.4224 57.0539C47.0714 57.2134 46.6604 57.2931 46.1914 57.2931C45.7584 57.2931 45.3624 57.1997 45.0024 57.0128C44.6464 56.826 44.3394 56.5639 44.0794 56.2267C43.8244 55.8895 43.6254 55.493 43.4844 55.0373C43.3474 54.577 43.2794 54.0779 43.2794 53.5402ZM44.5504 53.3966V53.5402C44.5504 53.9093 44.5874 54.2557 44.6604 54.5792C44.7374 54.9028 44.8564 55.1876 45.0154 55.4337C45.1754 55.6798 45.3784 55.8735 45.6244 56.0148C45.8704 56.1515 46.1644 56.2199 46.5054 56.2199C46.9254 56.2199 47.2694 56.131 47.5384 55.9533C47.8114 55.7755 48.0304 55.5408 48.1944 55.2492C48.3584 54.9575 48.4864 54.6408 48.5774 54.299V52.6515C48.5224 52.4009 48.4424 52.1593 48.3384 51.9269C48.2374 51.6899 48.1054 51.4803 47.9414 51.298C47.7824 51.1111 47.5834 50.963 47.3464 50.8537C47.1144 50.7443 46.8384 50.6896 46.5194 50.6896C46.1734 50.6896 45.8744 50.7625 45.6244 50.9083C45.3784 51.0496 45.1754 51.2456 45.0154 51.4962C44.8564 51.7423 44.7374 52.0294 44.6604 52.3576C44.5874 52.6811 44.5504 53.0275 44.5504 53.3966ZM53.5744 56.3908L55.6314 49.7599H56.9854L54.0184 58.298C53.9504 58.4803 53.8594 58.6763 53.7454 58.8859C53.6354 59.1001 53.4944 59.3029 53.3214 59.4943C53.1484 59.6857 52.9384 59.8406 52.6924 59.9591C52.4504 60.0822 52.1614 60.1437 51.8244 60.1437C51.7244 60.1437 51.5964 60.13 51.4414 60.1027C51.2864 60.0753 51.1774 60.0526 51.1134 60.0343L51.1064 59.0089C51.1434 59.0135 51.2004 59.0181 51.2774 59.0226C51.3594 59.0317 51.4164 59.0363 51.4484 59.0363C51.7354 59.0363 51.9794 58.9975 52.1794 58.9201C52.3804 58.8472 52.5484 58.7218 52.6854 58.5441C52.8264 58.3709 52.9474 58.1317 53.0474 57.8263L53.5744 56.3908ZM52.0634 49.7599L53.9844 55.5021L54.3124 56.8351L53.4034 57.3L50.6824 49.7599H52.0634ZM59.6314 47.2033L59.5424 54.3468H58.4004L58.3044 47.2033H59.6314ZM58.2634 56.5207C58.2634 56.3156 58.3254 56.1424 58.4484 56.0011C58.5754 55.8598 58.7624 55.7892 59.0084 55.7892C59.2504 55.7892 59.4354 55.8598 59.5624 56.0011C59.6944 56.1424 59.7604 56.3156 59.7604 56.5207C59.7604 56.7166 59.6944 56.8852 59.5624 57.0265C59.4354 57.1678 59.2504 57.2384 59.0084 57.2384C58.7624 57.2384 58.5754 57.1678 58.4484 57.0265C58.3254 56.8852 58.2634 56.7166 58.2634 56.5207ZM68.8044 47.2033V57.1564H67.5054V47.2033H68.8044ZM72.0044 47.2033V48.2833H64.3134V47.2033H72.0044ZM72.2704 53.5402V53.383C72.2704 52.8498 72.3484 52.3553 72.5034 51.8996C72.6584 51.4393 72.8814 51.0405 73.1724 50.7033C73.4644 50.3615 73.8174 50.0972 74.2324 49.9103C74.6474 49.7189 75.1124 49.6232 75.6274 49.6232C76.1464 49.6232 76.6134 49.7189 77.0284 49.9103C77.4474 50.0972 77.8034 50.3615 78.0944 50.7033C78.3914 51.0405 78.6164 51.4393 78.7714 51.8996C78.9264 52.3553 79.0044 52.8498 79.0044 53.383V53.5402C79.0044 54.0734 78.9264 54.5679 78.7714 55.0236C78.6164 55.4793 78.3914 55.8781 78.0944 56.2199C77.8034 56.5571 77.4504 56.8214 77.0354 57.0128C76.6254 57.1997 76.1604 57.2931 75.6404 57.2931C75.1214 57.2931 74.6544 57.1997 74.2394 57.0128C73.8244 56.8214 73.4694 56.5571 73.1724 56.2199C72.8814 55.8781 72.6584 55.4793 72.5034 55.0236C72.3484 54.5679 72.2704 54.0734 72.2704 53.5402ZM73.5354 53.383V53.5402C73.5354 53.9093 73.5784 54.258 73.6654 54.5861C73.7514 54.9097 73.8814 55.1968 74.0544 55.4474C74.2324 55.6981 74.4534 55.8963 74.7174 56.0421C74.9824 56.1834 75.2894 56.2541 75.6404 56.2541C75.9874 56.2541 76.2904 56.1834 76.5494 56.0421C76.8144 55.8963 77.0334 55.6981 77.2064 55.4474C77.3794 55.1968 77.5094 54.9097 77.5954 54.5861C77.6864 54.258 77.7324 53.9093 77.7324 53.5402V53.383C77.7324 53.0184 77.6864 52.6743 77.5954 52.3507C77.5094 52.0226 77.3774 51.7332 77.1994 51.4826C77.0264 51.2274 76.8074 51.0268 76.5434 50.881C76.2834 50.7352 75.9784 50.6623 75.6274 50.6623C75.2804 50.6623 74.9754 50.7352 74.7114 50.881C74.4514 51.0268 74.2324 51.2274 74.0544 51.4826C73.8814 51.7332 73.7514 52.0226 73.6654 52.3507C73.5784 52.6743 73.5354 53.0184 73.5354 53.383ZM85.2524 55.7209V46.6564H86.5234V57.1564H85.3614L85.2524 55.7209ZM80.2754 53.5402V53.3966C80.2754 52.8315 80.3434 52.3188 80.4804 51.8585C80.6214 51.3937 80.8204 50.9949 81.0754 50.6623C81.3354 50.3296 81.6424 50.0744 81.9984 49.8966C82.3584 49.7143 82.7594 49.6232 83.2014 49.6232C83.6664 49.6232 84.0714 49.7052 84.4184 49.8693C84.7694 50.0288 85.0654 50.2635 85.3064 50.5734C85.5524 50.8787 85.7464 51.2479 85.8874 51.6808C86.0294 52.1138 86.1274 52.6037 86.1814 53.1505V53.7794C86.1314 54.3218 86.0334 54.8094 85.8874 55.2423C85.7464 55.6753 85.5524 56.0444 85.3064 56.3498C85.0654 56.6551 84.7694 56.8898 84.4184 57.0539C84.0674 57.2134 83.6574 57.2931 83.1874 57.2931C82.7544 57.2931 82.3584 57.1997 81.9984 57.0128C81.6424 56.826 81.3354 56.5639 81.0754 56.2267C80.8204 55.8895 80.6214 55.493 80.4804 55.0373C80.3434 54.577 80.2754 54.0779 80.2754 53.5402ZM81.5474 53.3966V53.5402C81.5474 53.9093 81.5834 54.2557 81.6564 54.5792C81.7334 54.9028 81.8524 55.1876 82.0114 55.4337C82.1714 55.6798 82.3744 55.8735 82.6204 56.0148C82.8664 56.1515 83.1604 56.2199 83.5024 56.2199C83.9214 56.2199 84.2654 56.131 84.5344 55.9533C84.8074 55.7755 85.0264 55.5408 85.1904 55.2492C85.3544 54.9575 85.4824 54.6408 85.5734 54.299V52.6515C85.5184 52.4009 85.4384 52.1593 85.3344 51.9269C85.2334 51.6899 85.1014 51.4803 84.9374 51.298C84.7784 51.1111 84.5794 50.963 84.3424 50.8537C84.1104 50.7443 83.8344 50.6896 83.5154 50.6896C83.1694 50.6896 82.8704 50.7625 82.6204 50.9083C82.3744 51.0496 82.1714 51.2456 82.0114 51.4962C81.8524 51.7423 81.7334 52.0294 81.6564 52.3576C81.5834 52.6811 81.5474 53.0275 81.5474 53.3966ZM92.8534 55.8917V52.0841C92.8534 51.7925 92.7944 51.5395 92.6754 51.3253C92.5614 51.1066 92.3884 50.938 92.1564 50.8195C91.9234 50.701 91.6364 50.6417 91.2954 50.6417C90.9764 50.6417 90.6954 50.6964 90.4544 50.8058C90.2174 50.9152 90.0304 51.0587 89.8934 51.2365C89.7614 51.4142 89.6954 51.6056 89.6954 51.8107H88.4304C88.4304 51.5464 88.4994 51.2843 88.6354 51.0246C88.7724 50.7648 88.9684 50.5301 89.2234 50.3205C89.4834 50.1063 89.7934 49.9376 90.1534 49.8146C90.5184 49.687 90.9234 49.6232 91.3704 49.6232C91.9084 49.6232 92.3814 49.7143 92.7924 49.8966C93.2064 50.0789 93.5304 50.3546 93.7624 50.7238C93.9994 51.0884 94.1184 51.5464 94.1184 52.0978V55.5431C94.1184 55.7892 94.1384 56.0513 94.1794 56.3292C94.2254 56.6072 94.2914 56.8465 94.3784 57.047V57.1564H93.0584C92.9944 57.0106 92.9444 56.8169 92.9084 56.5753C92.8714 56.3292 92.8534 56.1014 92.8534 55.8917ZM93.0724 52.672L93.0864 53.5607H91.8074C91.4474 53.5607 91.1264 53.5903 90.8434 53.6496C90.5614 53.7042 90.3244 53.7886 90.1324 53.9025C89.9414 54.0164 89.7954 54.16 89.6954 54.3332C89.5954 54.5018 89.5454 54.7 89.5454 54.9279C89.5454 55.1603 89.5974 55.3722 89.7024 55.5636C89.8074 55.755 89.9644 55.9077 90.1734 56.0216C90.3884 56.131 90.6504 56.1857 90.9604 56.1857C91.3474 56.1857 91.6894 56.1037 91.9854 55.9396C92.2814 55.7755 92.5164 55.575 92.6894 55.338C92.8674 55.1011 92.9634 54.8709 92.9764 54.6476L93.5164 55.256C93.4844 55.4474 93.3984 55.6593 93.2564 55.8917C93.1154 56.1242 92.9264 56.3475 92.6894 56.5617C92.4574 56.7713 92.1794 56.9468 91.8554 57.088C91.5364 57.2248 91.1764 57.2931 90.7754 57.2931C90.2744 57.2931 89.8344 57.1951 89.4564 56.9992C89.0824 56.8032 88.7904 56.5412 88.5814 56.213C88.3764 55.8804 88.2734 55.5089 88.2734 55.0988C88.2734 54.7023 88.3514 54.3537 88.5054 54.0529C88.6604 53.7475 88.8844 53.4946 89.1754 53.2941C89.4674 53.089 89.8184 52.9341 90.2284 52.8292C90.6384 52.7244 91.0964 52.672 91.6024 52.672H93.0724ZM98.0764 56.3908L100.133 49.7599H101.487L98.5204 58.298C98.4524 58.4803 98.3614 58.6763 98.2474 58.8859C98.1374 59.1001 97.9964 59.3029 97.8234 59.4943C97.6504 59.6857 97.4404 59.8406 97.1944 59.9591C96.9524 60.0822 96.6634 60.1437 96.3264 60.1437C96.2264 60.1437 96.0984 60.13 95.9434 60.1027C95.7884 60.0753 95.6794 60.0526 95.6154 60.0343L95.6084 59.0089C95.6444 59.0135 95.7014 59.0181 95.7794 59.0226C95.8614 59.0317 95.9184 59.0363 95.9504 59.0363C96.2374 59.0363 96.4814 58.9975 96.6814 58.9201C96.8824 58.8472 97.0504 58.7218 97.1874 58.5441C97.3284 58.3709 97.4494 58.1317 97.5494 57.8263L98.0764 56.3908ZM96.5654 49.7599L98.4864 55.5021L98.8144 56.8351L97.9054 57.3L95.1844 49.7599H96.5654ZM103.51 46.6564V47.4083L103.367 49.924H102.485L102.492 47.5246V46.6564H103.51ZM108.945 55.1945C108.945 55.0122 108.904 54.8436 108.822 54.6886C108.744 54.5291 108.583 54.3856 108.337 54.258C108.095 54.1258 107.73 54.0119 107.243 53.9162C106.833 53.8296 106.461 53.727 106.129 53.6085C105.8 53.4901 105.52 53.3465 105.288 53.1779C105.06 53.0093 104.884 52.811 104.761 52.5832C104.638 52.3553 104.577 52.0887 104.577 51.7833C104.577 51.4917 104.641 51.216 104.768 50.9562C104.9 50.6964 105.085 50.4663 105.322 50.2658C105.563 50.0653 105.853 49.908 106.19 49.7941C106.527 49.6802 106.903 49.6232 107.318 49.6232C107.91 49.6232 108.416 49.728 108.836 49.9376C109.255 50.1473 109.576 50.4276 109.799 50.7785C110.023 51.1248 110.134 51.5099 110.134 51.9337H108.87C108.87 51.7287 108.808 51.5304 108.685 51.339C108.567 51.1431 108.391 50.9813 108.159 50.8537C107.931 50.7261 107.651 50.6623 107.318 50.6623C106.967 50.6623 106.682 50.7169 106.464 50.8263C106.249 50.9311 106.092 51.0656 105.992 51.2296C105.896 51.3937 105.848 51.5669 105.848 51.7492C105.848 51.8859 105.871 52.0089 105.917 52.1183C105.967 52.2231 106.053 52.3211 106.176 52.4123C106.299 52.4988 106.473 52.5809 106.696 52.6583C106.919 52.7358 107.204 52.8133 107.55 52.8908C108.157 53.0275 108.656 53.1916 109.047 53.383C109.439 53.5744 109.731 53.8091 109.922 54.0871C110.114 54.3651 110.21 54.7023 110.21 55.0988C110.21 55.4223 110.141 55.7186 110.005 55.9875C109.872 56.2563 109.679 56.4888 109.423 56.6847C109.173 56.8761 108.872 57.0265 108.521 57.1359C108.175 57.2407 107.785 57.2931 107.352 57.2931C106.7 57.2931 106.149 57.1769 105.698 56.9445C105.247 56.7121 104.905 56.4113 104.672 56.0421C104.44 55.673 104.324 55.2833 104.324 54.8732H105.595C105.614 55.2195 105.714 55.4953 105.896 55.7003C106.078 55.9009 106.302 56.0444 106.566 56.131C106.83 56.213 107.092 56.2541 107.352 56.2541C107.699 56.2541 107.988 56.2085 108.22 56.1173C108.457 56.0262 108.637 55.9009 108.76 55.7414C108.883 55.5819 108.945 55.3996 108.945 55.1945ZM119.65 55.1945C119.65 55.0122 119.609 54.8436 119.527 54.6886C119.45 54.5291 119.288 54.3856 119.042 54.258C118.8 54.1258 118.436 54.0119 117.948 53.9162C117.538 53.8296 117.166 53.727 116.834 53.6085C116.505 53.4901 116.225 53.3465 115.993 53.1779C115.765 53.0093 115.589 52.811 115.466 52.5832C115.343 52.3553 115.282 52.0887 115.282 51.7833C115.282 51.4917 115.346 51.216 115.473 50.9562C115.605 50.6964 115.79 50.4663 116.027 50.2658C116.269 50.0653 116.558 49.908 116.895 49.7941C117.232 49.6802 117.608 49.6232 118.023 49.6232C118.616 49.6232 119.121 49.728 119.541 49.9376C119.96 50.1473 120.281 50.4276 120.505 50.7785C120.728 51.1248 120.839 51.5099 120.839 51.9337H119.575C119.575 51.7287 119.513 51.5304 119.39 51.339C119.272 51.1431 119.096 50.9813 118.864 50.8537C118.636 50.7261 118.356 50.6623 118.023 50.6623C117.672 50.6623 117.387 50.7169 117.169 50.8263C116.954 50.9311 116.797 51.0656 116.697 51.2296C116.601 51.3937 116.553 51.5669 116.553 51.7492C116.553 51.8859 116.576 52.0089 116.622 52.1183C116.672 52.2231 116.758 52.3211 116.881 52.4123C117.005 52.4988 117.178 52.5809 117.401 52.6583C117.624 52.7358 117.909 52.8133 118.255 52.8908C118.862 53.0275 119.361 53.1916 119.753 53.383C120.144 53.5744 120.436 53.8091 120.628 54.0871C120.819 54.3651 120.915 54.7023 120.915 55.0988C120.915 55.4223 120.846 55.7186 120.71 55.9875C120.577 56.2563 120.384 56.4888 120.129 56.6847C119.878 56.8761 119.577 57.0265 119.226 57.1359C118.88 57.2407 118.49 57.2931 118.057 57.2931C117.406 57.2931 116.854 57.1769 116.403 56.9445C115.952 56.7121 115.61 56.4113 115.378 56.0421C115.145 55.673 115.029 55.2833 115.029 54.8732H116.3C116.319 55.2195 116.419 55.4953 116.601 55.7003C116.783 55.9009 117.007 56.0444 117.271 56.131C117.535 56.213 117.797 56.2541 118.057 56.2541C118.404 56.2541 118.693 56.2085 118.925 56.1173C119.162 56.0262 119.342 55.9009 119.465 55.7414C119.589 55.5819 119.65 55.3996 119.65 55.1945ZM123.84 46.6564V57.1564H122.576V46.6564H123.84ZM123.54 53.1779L123.013 53.1574C123.018 52.6515 123.093 52.1844 123.239 51.756C123.385 51.3231 123.59 50.9471 123.854 50.6281C124.118 50.3091 124.433 50.063 124.797 49.8898C125.167 49.7121 125.575 49.6232 126.021 49.6232C126.386 49.6232 126.714 49.6733 127.005 49.7736C127.297 49.8693 127.546 50.0242 127.751 50.2384C127.96 50.4526 128.12 50.7306 128.229 51.0724C128.339 51.4097 128.393 51.8221 128.393 52.3097V57.1564H127.122V52.296C127.122 51.9087 127.065 51.5988 126.951 51.3664C126.837 51.1294 126.671 50.9585 126.452 50.8537C126.233 50.7443 125.964 50.6896 125.645 50.6896C125.331 50.6896 125.044 50.7557 124.784 50.8878C124.529 51.02 124.308 51.2023 124.121 51.4347C123.938 51.6671 123.795 51.9337 123.69 52.2345C123.59 52.5307 123.54 52.8452 123.54 53.1779ZM129.952 53.5402V53.383C129.952 52.8498 130.029 52.3553 130.184 51.8996C130.339 51.4393 130.562 51.0405 130.854 50.7033C131.146 50.3615 131.499 50.0972 131.914 49.9103C132.328 49.7189 132.793 49.6232 133.308 49.6232C133.828 49.6232 134.295 49.7189 134.71 49.9103C135.129 50.0972 135.484 50.3615 135.776 50.7033C136.072 51.0405 136.298 51.4393 136.453 51.8996C136.608 52.3553 136.685 52.8498 136.685 53.383V53.5402C136.685 54.0734 136.608 54.5679 136.453 55.0236C136.298 55.4793 136.072 55.8781 135.776 56.2199C135.484 56.5571 135.131 56.8214 134.716 57.0128C134.306 57.1997 133.841 57.2931 133.322 57.2931C132.802 57.2931 132.335 57.1997 131.921 57.0128C131.506 56.8214 131.15 56.5571 130.854 56.2199C130.562 55.8781 130.339 55.4793 130.184 55.0236C130.029 54.5679 129.952 54.0734 129.952 53.5402ZM131.216 53.383V53.5402C131.216 53.9093 131.26 54.258 131.346 54.5861C131.433 54.9097 131.563 55.1968 131.736 55.4474C131.914 55.6981 132.135 55.8963 132.399 56.0421C132.663 56.1834 132.971 56.2541 133.322 56.2541C133.668 56.2541 133.971 56.1834 134.231 56.0421C134.495 55.8963 134.714 55.6981 134.887 55.4474C135.061 55.1968 135.19 54.9097 135.277 54.5861C135.368 54.258 135.414 53.9093 135.414 53.5402V53.383C135.414 53.0184 135.368 52.6743 135.277 52.3507C135.19 52.0226 135.058 51.7332 134.881 51.4826C134.707 51.2274 134.489 51.0268 134.224 50.881C133.964 50.7352 133.659 50.6623 133.308 50.6623C132.962 50.6623 132.657 50.7352 132.392 50.881C132.132 51.0268 131.914 51.2274 131.736 51.4826C131.563 51.7332 131.433 52.0226 131.346 52.3507C131.26 52.6743 131.216 53.0184 131.216 53.383ZM139.536 51.1818V60.0001H138.264V49.7599H139.426L139.536 51.1818ZM144.519 53.3966V53.5402C144.519 54.0779 144.455 54.577 144.328 55.0373C144.2 55.493 144.013 55.8895 143.767 56.2267C143.526 56.5639 143.227 56.826 142.872 57.0128C142.516 57.1997 142.108 57.2931 141.648 57.2931C141.179 57.2931 140.764 57.2156 140.404 57.0607C140.044 56.9057 139.739 56.6802 139.488 56.3839C139.237 56.0877 139.037 55.7322 138.886 55.3175C138.741 54.9028 138.64 54.4357 138.586 53.9162V53.1505C138.64 52.6037 138.743 52.1138 138.893 51.6808C139.044 51.2479 139.242 50.8787 139.488 50.5734C139.739 50.2635 140.042 50.0288 140.397 49.8693C140.753 49.7052 141.163 49.6232 141.628 49.6232C142.092 49.6232 142.505 49.7143 142.865 49.8966C143.225 50.0744 143.528 50.3296 143.774 50.6623C144.02 50.9949 144.205 51.3937 144.328 51.8585C144.455 52.3188 144.519 52.8315 144.519 53.3966ZM143.248 53.5402V53.3966C143.248 53.0275 143.209 52.6811 143.131 52.3576C143.054 52.0294 142.933 51.7423 142.769 51.4962C142.61 51.2456 142.405 51.0496 142.154 50.9083C141.903 50.7625 141.605 50.6896 141.258 50.6896C140.939 50.6896 140.661 50.7443 140.424 50.8537C140.192 50.963 139.994 51.1111 139.83 51.298C139.666 51.4803 139.531 51.6899 139.426 51.9269C139.326 52.1593 139.251 52.4009 139.201 52.6515V54.422C139.292 54.741 139.42 55.0418 139.584 55.3244C139.748 55.6024 139.966 55.8279 140.24 56.0011C140.513 56.1697 140.857 56.2541 141.272 56.2541C141.614 56.2541 141.908 56.1834 142.154 56.0421C142.405 55.8963 142.61 55.6981 142.769 55.4474C142.933 55.1968 143.054 54.9097 143.131 54.5861C143.209 54.258 143.248 53.9093 143.248 53.5402ZM147.397 51.1818V60.0001H146.126V49.7599H147.288L147.397 51.1818ZM152.381 53.3966V53.5402C152.381 54.0779 152.317 54.577 152.189 55.0373C152.061 55.493 151.875 55.8895 151.629 56.2267C151.387 56.5639 151.089 56.826 150.733 57.0128C150.378 57.1997 149.97 57.2931 149.509 57.2931C149.04 57.2931 148.625 57.2156 148.265 57.0607C147.905 56.9057 147.6 56.6802 147.349 56.3839C147.099 56.0877 146.898 55.7322 146.748 55.3175C146.602 54.9028 146.502 54.4357 146.447 53.9162V53.1505C146.502 52.6037 146.604 52.1138 146.755 51.6808C146.905 51.2479 147.103 50.8787 147.349 50.5734C147.6 50.2635 147.903 50.0288 148.258 49.8693C148.614 49.7052 149.024 49.6232 149.489 49.6232C149.954 49.6232 150.366 49.7143 150.726 49.8966C151.086 50.0744 151.389 50.3296 151.635 50.6623C151.881 50.9949 152.066 51.3937 152.189 51.8585C152.317 52.3188 152.381 52.8315 152.381 53.3966ZM151.109 53.5402V53.3966C151.109 53.0275 151.07 52.6811 150.993 52.3576C150.915 52.0294 150.795 51.7423 150.631 51.4962C150.471 51.2456 150.266 51.0496 150.015 50.9083C149.765 50.7625 149.466 50.6896 149.12 50.6896C148.801 50.6896 148.523 50.7443 148.286 50.8537C148.053 50.963 147.855 51.1111 147.691 51.298C147.527 51.4803 147.393 51.6899 147.288 51.9269C147.187 52.1593 147.112 52.4009 147.062 52.6515V54.422C147.153 54.741 147.281 55.0418 147.445 55.3244C147.609 55.6024 147.828 55.8279 148.101 56.0011C148.375 56.1697 148.719 56.2541 149.133 56.2541C149.475 56.2541 149.769 56.1834 150.015 56.0421C150.266 55.8963 150.471 55.6981 150.631 55.4474C150.795 55.1968 150.915 54.9097 150.993 54.5861C151.07 54.258 151.109 53.9093 151.109 53.5402ZM155.368 49.7599V57.1564H154.096V49.7599H155.368ZM154.001 47.798C154.001 47.5929 154.062 47.4197 154.185 47.2785C154.313 47.1372 154.5 47.0666 154.746 47.0666C154.987 47.0666 155.172 47.1372 155.299 47.2785C155.432 47.4197 155.498 47.5929 155.498 47.798C155.498 47.994 155.432 48.1626 155.299 48.3039C155.172 48.4406 154.987 48.5089 154.746 48.5089C154.5 48.5089 154.313 48.4406 154.185 48.3039C154.062 48.1626 154.001 47.994 154.001 47.798ZM158.663 51.339V57.1564H157.398V49.7599H158.594L158.663 51.339ZM158.362 53.1779L157.836 53.1574C157.84 52.6515 157.915 52.1844 158.061 51.756C158.207 51.3231 158.412 50.9471 158.676 50.6281C158.941 50.3091 159.255 50.063 159.62 49.8898C159.989 49.7121 160.397 49.6232 160.843 49.6232C161.208 49.6232 161.536 49.6733 161.828 49.7736C162.119 49.8693 162.368 50.0242 162.573 50.2384C162.783 50.4526 162.942 50.7306 163.051 51.0724C163.161 51.4097 163.215 51.8221 163.215 52.3097V57.1564H161.944V52.296C161.944 51.9087 161.887 51.5988 161.773 51.3664C161.659 51.1294 161.493 50.9585 161.274 50.8537C161.055 50.7443 160.786 50.6896 160.467 50.6896C160.153 50.6896 159.866 50.7557 159.606 50.8878C159.351 51.02 159.13 51.2023 158.943 51.4347C158.761 51.6671 158.617 51.9337 158.512 52.2345C158.412 52.5307 158.362 52.8452 158.362 53.1779ZM169.928 49.7599H171.077V56.9992C171.077 57.6509 170.945 58.2069 170.68 58.6671C170.416 59.1274 170.047 59.4761 169.573 59.713C169.103 59.9546 168.561 60.0753 167.946 60.0753C167.691 60.0753 167.39 60.0343 167.044 59.9523C166.702 59.8748 166.365 59.7404 166.032 59.549C165.704 59.3621 165.428 59.1092 165.205 58.7902L165.868 58.0382C166.178 58.4119 166.501 58.6717 166.839 58.8175C167.18 58.9634 167.518 59.0363 167.85 59.0363C168.251 59.0363 168.598 58.9611 168.889 58.8107C169.181 58.6603 169.407 58.437 169.566 58.1408C169.73 57.8491 169.812 57.4891 169.812 57.0607V51.3869L169.928 49.7599ZM164.836 53.5402V53.3966C164.836 52.8315 164.902 52.3188 165.034 51.8585C165.171 51.3937 165.364 50.9949 165.615 50.6623C165.87 50.3296 166.178 50.0744 166.538 49.8966C166.898 49.7143 167.303 49.6232 167.755 49.6232C168.219 49.6232 168.625 49.7052 168.971 49.8693C169.322 50.0288 169.618 50.2635 169.86 50.5734C170.106 50.8787 170.3 51.2479 170.441 51.6808C170.582 52.1138 170.68 52.6037 170.735 53.1505V53.7794C170.685 54.3218 170.587 54.8094 170.441 55.2423C170.3 55.6753 170.106 56.0444 169.86 56.3498C169.618 56.6551 169.322 56.8898 168.971 57.0539C168.62 57.2134 168.21 57.2931 167.741 57.2931C167.299 57.2931 166.898 57.1997 166.538 57.0128C166.182 56.826 165.877 56.5639 165.622 56.2267C165.367 55.8895 165.171 55.493 165.034 55.0373C164.902 54.577 164.836 54.0779 164.836 53.5402ZM166.1 53.3966V53.5402C166.1 53.9093 166.137 54.2557 166.21 54.5792C166.287 54.9028 166.403 55.1876 166.558 55.4337C166.718 55.6798 166.921 55.8735 167.167 56.0148C167.413 56.1515 167.707 56.2199 168.048 56.2199C168.468 56.2199 168.814 56.131 169.088 55.9533C169.361 55.7755 169.577 55.5408 169.737 55.2492C169.901 54.9575 170.029 54.6408 170.12 54.299V52.6515C170.07 52.4009 169.992 52.1593 169.887 51.9269C169.787 51.6899 169.655 51.4803 169.491 51.298C169.331 51.1111 169.133 50.963 168.896 50.8537C168.659 50.7443 168.381 50.6896 168.062 50.6896C167.716 50.6896 167.417 50.7625 167.167 50.9083C166.921 51.0496 166.718 51.2456 166.558 51.4962C166.403 51.7423 166.287 52.0294 166.21 52.3576C166.137 52.6811 166.1 53.0275 166.1 53.3966ZM179.43 56.2541C179.731 56.2541 180.009 56.1925 180.264 56.0695C180.519 55.9464 180.729 55.7778 180.893 55.5636C181.057 55.3449 181.151 55.0965 181.173 54.8185H182.377C182.354 55.256 182.206 55.6639 181.932 56.0421C181.663 56.4158 181.31 56.7189 180.873 56.9513C180.435 57.1792 179.954 57.2931 179.43 57.2931C178.874 57.2931 178.389 57.1951 177.974 56.9992C177.564 56.8032 177.222 56.5343 176.949 56.1925C176.68 55.8507 176.477 55.4588 176.34 55.0167C176.208 54.5701 176.142 54.0985 176.142 53.6017V53.3146C176.142 52.8179 176.208 52.3485 176.34 51.9064C176.477 51.4598 176.68 51.0656 176.949 50.7238C177.222 50.382 177.564 50.1131 177.974 49.9171C178.389 49.7212 178.874 49.6232 179.43 49.6232C180.009 49.6232 180.515 49.7417 180.948 49.9787C181.381 50.2111 181.72 50.5301 181.966 50.9357C182.217 51.3367 182.354 51.7925 182.377 52.3029H181.173C181.151 51.9975 181.064 51.7218 180.914 51.4757C180.768 51.2296 180.567 51.0337 180.312 50.8878C180.061 50.7375 179.768 50.6623 179.43 50.6623C179.043 50.6623 178.717 50.7397 178.453 50.8947C178.193 51.0451 177.986 51.2501 177.831 51.5099C177.68 51.7651 177.571 52.05 177.503 52.3644C177.439 52.6743 177.407 52.991 177.407 53.3146V53.6017C177.407 53.9253 177.439 54.2443 177.503 54.5587C177.566 54.8732 177.673 55.158 177.824 55.4132C177.979 55.6684 178.186 55.8735 178.446 56.0285C178.71 56.1789 179.038 56.2541 179.43 56.2541ZM188.16 55.8917V52.0841C188.16 51.7925 188.101 51.5395 187.982 51.3253C187.868 51.1066 187.695 50.938 187.463 50.8195C187.23 50.701 186.943 50.6417 186.601 50.6417C186.282 50.6417 186.002 50.6964 185.76 50.8058C185.523 50.9152 185.337 51.0587 185.2 51.2365C185.068 51.4142 185.002 51.6056 185.002 51.8107H183.737C183.737 51.5464 183.805 51.2843 183.942 51.0246C184.079 50.7648 184.275 50.5301 184.53 50.3205C184.79 50.1063 185.1 49.9376 185.46 49.8146C185.824 49.687 186.23 49.6232 186.676 49.6232C187.214 49.6232 187.688 49.7143 188.098 49.8966C188.513 50.0789 188.837 50.3546 189.069 50.7238C189.306 51.0884 189.424 51.5464 189.424 52.0978V55.5431C189.424 55.7892 189.445 56.0513 189.486 56.3292C189.532 56.6072 189.598 56.8465 189.684 57.047V57.1564H188.365C188.301 57.0106 188.251 56.8169 188.214 56.5753C188.178 56.3292 188.16 56.1014 188.16 55.8917ZM188.379 52.672L188.392 53.5607H187.114C186.754 53.5607 186.433 53.5903 186.15 53.6496C185.867 53.7042 185.631 53.7886 185.439 53.9025C185.248 54.0164 185.102 54.16 185.002 54.3332C184.901 54.5018 184.851 54.7 184.851 54.9279C184.851 55.1603 184.904 55.3722 185.008 55.5636C185.113 55.755 185.27 55.9077 185.48 56.0216C185.694 56.131 185.956 56.1857 186.266 56.1857C186.654 56.1857 186.995 56.1037 187.292 55.9396C187.588 55.7755 187.823 55.575 187.996 55.338C188.173 55.1011 188.269 54.8709 188.283 54.6476L188.823 55.256C188.791 55.4474 188.704 55.6593 188.563 55.8917C188.422 56.1242 188.233 56.3475 187.996 56.5617C187.763 56.7713 187.485 56.9468 187.162 57.088C186.843 57.2248 186.483 57.2931 186.082 57.2931C185.58 57.2931 185.141 57.1951 184.762 56.9992C184.389 56.8032 184.097 56.5412 183.887 56.213C183.682 55.8804 183.58 55.5089 183.58 55.0988C183.58 54.7023 183.657 54.3537 183.812 54.0529C183.967 53.7475 184.19 53.4946 184.482 53.2941C184.774 53.089 185.125 52.9341 185.535 52.8292C185.945 52.7244 186.403 52.672 186.909 52.672H188.379ZM192.678 50.922V57.1564H191.414V49.7599H192.644L192.678 50.922ZM194.989 49.7189L194.982 50.8947C194.877 50.8719 194.777 50.8582 194.681 50.8537C194.59 50.8445 194.485 50.84 194.367 50.84C194.075 50.84 193.818 50.8856 193.594 50.9767C193.371 51.0679 193.182 51.1955 193.027 51.3595C192.872 51.5236 192.749 51.7195 192.658 51.9474C192.571 52.1707 192.514 52.4168 192.487 52.6857L192.131 52.8908C192.131 52.4442 192.175 52.0249 192.261 51.633C192.353 51.241 192.492 50.8947 192.678 50.5939C192.865 50.2886 193.102 50.0516 193.389 49.883C193.681 49.7098 194.027 49.6232 194.428 49.6232C194.519 49.6232 194.624 49.6346 194.743 49.6574C194.861 49.6756 194.943 49.6961 194.989 49.7189ZM199.596 49.7599V50.7306H195.597V49.7599H199.596ZM196.951 47.9621H198.215V55.3244C198.215 55.575 198.254 55.7641 198.332 55.8917C198.409 56.0194 198.509 56.1037 198.632 56.1447C198.755 56.1857 198.888 56.2062 199.029 56.2062C199.134 56.2062 199.243 56.1971 199.357 56.1789C199.476 56.1561 199.564 56.1378 199.624 56.1242L199.631 57.1564C199.53 57.1883 199.398 57.2179 199.234 57.2453C199.075 57.2772 198.881 57.2931 198.653 57.2931C198.343 57.2931 198.058 57.2316 197.798 57.1085C197.539 56.9855 197.331 56.7804 197.176 56.4933C197.026 56.2016 196.951 55.8097 196.951 55.3175V47.9621ZM207.622 57.2931C207.107 57.2931 206.64 57.2065 206.22 57.0333C205.806 56.8556 205.448 56.6072 205.147 56.2882C204.851 55.9692 204.623 55.591 204.464 55.1535C204.304 54.716 204.224 54.2375 204.224 53.7179V53.4308C204.224 52.8292 204.313 52.2938 204.491 51.8244C204.669 51.3504 204.91 50.9494 205.215 50.6212C205.521 50.2931 205.867 50.0447 206.255 49.8761C206.642 49.7075 207.043 49.6232 207.458 49.6232C207.986 49.6232 208.442 49.7143 208.825 49.8966C209.212 50.0789 209.529 50.3341 209.775 50.6623C210.021 50.9858 210.203 51.3686 210.322 51.8107C210.44 52.2482 210.5 52.7267 210.5 53.2462V53.8136H204.976V52.7814H209.235V52.6857C209.217 52.3576 209.148 52.0386 209.03 51.7287C208.916 51.4188 208.734 51.1636 208.483 50.963C208.232 50.7625 207.891 50.6623 207.458 50.6623C207.171 50.6623 206.906 50.7238 206.665 50.8468C206.423 50.9653 206.216 51.1431 206.043 51.38C205.869 51.617 205.735 51.9064 205.639 52.2482C205.544 52.59 205.496 52.9842 205.496 53.4308V53.7179C205.496 54.0688 205.544 54.3992 205.639 54.7091C205.74 55.0145 205.883 55.2833 206.07 55.5158C206.261 55.7482 206.492 55.9305 206.76 56.0626C207.034 56.1948 207.344 56.2609 207.69 56.2609C208.137 56.2609 208.515 56.1697 208.825 55.9875C209.135 55.8052 209.406 55.5613 209.638 55.256L210.404 55.8644C210.244 56.1059 210.042 56.3361 209.796 56.5548C209.549 56.7736 209.246 56.9513 208.886 57.088C208.531 57.2248 208.109 57.2931 207.622 57.2931ZM216.283 55.1945C216.283 55.0122 216.242 54.8436 216.16 54.6886C216.082 54.5291 215.921 54.3856 215.674 54.258C215.433 54.1258 215.068 54.0119 214.581 53.9162C214.171 53.8296 213.799 53.727 213.466 53.6085C213.138 53.4901 212.858 53.3465 212.626 53.1779C212.398 53.0093 212.222 52.811 212.099 52.5832C211.976 52.3553 211.915 52.0887 211.915 51.7833C211.915 51.4917 211.978 51.216 212.106 50.9562C212.238 50.6964 212.423 50.4663 212.66 50.2658C212.901 50.0653 213.191 49.908 213.528 49.7941C213.865 49.6802 214.241 49.6232 214.656 49.6232C215.248 49.6232 215.754 49.728 216.173 49.9376C216.593 50.1473 216.914 50.4276 217.137 50.7785C217.361 51.1248 217.472 51.5099 217.472 51.9337H216.208C216.208 51.7287 216.146 51.5304 216.023 51.339C215.905 51.1431 215.729 50.9813 215.497 50.8537C215.269 50.7261 214.989 50.6623 214.656 50.6623C214.305 50.6623 214.02 50.7169 213.801 50.8263C213.587 50.9311 213.43 51.0656 213.33 51.2296C213.234 51.3937 213.186 51.5669 213.186 51.7492C213.186 51.8859 213.209 52.0089 213.255 52.1183C213.305 52.2231 213.391 52.3211 213.514 52.4123C213.637 52.4988 213.811 52.5809 214.034 52.6583C214.257 52.7358 214.542 52.8133 214.888 52.8908C215.494 53.0275 215.993 53.1916 216.385 53.383C216.777 53.5744 217.069 53.8091 217.26 54.0871C217.452 54.3651 217.547 54.7023 217.547 55.0988C217.547 55.4223 217.479 55.7186 217.342 55.9875C217.21 56.2563 217.017 56.4888 216.761 56.6847C216.511 56.8761 216.21 57.0265 215.859 57.1359C215.513 57.2407 215.123 57.2931 214.69 57.2931C214.038 57.2931 213.487 57.1769 213.036 56.9445C212.585 56.7121 212.243 56.4113 212.01 56.0421C211.778 55.673 211.662 55.2833 211.662 54.8732H212.933C212.951 55.2195 213.052 55.4953 213.234 55.7003C213.416 55.9009 213.64 56.0444 213.904 56.131C214.168 56.213 214.43 56.2541 214.69 56.2541C215.036 56.2541 215.326 56.2085 215.558 56.1173C215.795 56.0262 215.975 55.9009 216.098 55.7414C216.221 55.5819 216.283 55.3996 216.283 55.1945ZM223.515 55.1945C223.515 55.0122 223.474 54.8436 223.392 54.6886C223.315 54.5291 223.153 54.3856 222.907 54.258C222.665 54.1258 222.301 54.0119 221.813 53.9162C221.403 53.8296 221.032 53.727 220.699 53.6085C220.371 53.4901 220.09 53.3465 219.858 53.1779C219.63 53.0093 219.455 52.811 219.332 52.5832C219.209 52.3553 219.147 52.0887 219.147 51.7833C219.147 51.4917 219.211 51.216 219.339 50.9562C219.471 50.6964 219.655 50.4663 219.892 50.2658C220.134 50.0653 220.423 49.908 220.76 49.7941C221.098 49.6802 221.474 49.6232 221.888 49.6232C222.481 49.6232 222.987 49.728 223.406 49.9376C223.825 50.1473 224.146 50.4276 224.37 50.7785C224.593 51.1248 224.705 51.5099 224.705 51.9337H223.44C223.44 51.7287 223.379 51.5304 223.255 51.339C223.137 51.1431 222.962 50.9813 222.729 50.8537C222.501 50.7261 222.221 50.6623 221.888 50.6623C221.537 50.6623 221.253 50.7169 221.034 50.8263C220.82 50.9311 220.662 51.0656 220.562 51.2296C220.466 51.3937 220.419 51.5669 220.419 51.7492C220.419 51.8859 220.441 52.0089 220.487 52.1183C220.537 52.2231 220.624 52.3211 220.747 52.4123C220.87 52.4988 221.043 52.5809 221.266 52.6583C221.49 52.7358 221.774 52.8133 222.121 52.8908C222.727 53.0275 223.226 53.1916 223.618 53.383C224.01 53.5744 224.301 53.8091 224.493 54.0871C224.684 54.3651 224.78 54.7023 224.78 55.0988C224.78 55.4223 224.712 55.7186 224.575 55.9875C224.443 56.2563 224.249 56.4888 223.994 56.6847C223.743 56.8761 223.442 57.0265 223.091 57.1359C222.745 57.2407 222.355 57.2931 221.922 57.2931C221.271 57.2931 220.719 57.1769 220.268 56.9445C219.817 56.7121 219.475 56.4113 219.243 56.0421C219.01 55.673 218.894 55.2833 218.894 54.8732H220.166C220.184 55.2195 220.284 55.4953 220.466 55.7003C220.649 55.9009 220.872 56.0444 221.136 56.131C221.401 56.213 221.663 56.2541 221.922 56.2541C222.269 56.2541 222.558 56.2085 222.791 56.1173C223.028 56.0262 223.208 55.9009 223.331 55.7414C223.454 55.5819 223.515 55.3996 223.515 55.1945ZM229.51 57.2931C228.995 57.2931 228.528 57.2065 228.109 57.0333C227.694 56.8556 227.337 56.6072 227.036 56.2882C226.74 55.9692 226.512 55.591 226.352 55.1535C226.193 54.716 226.113 54.2375 226.113 53.7179V53.4308C226.113 52.8292 226.202 52.2938 226.38 51.8244C226.557 51.3504 226.799 50.9494 227.104 50.6212C227.409 50.2931 227.756 50.0447 228.143 49.8761C228.531 49.7075 228.932 49.6232 229.346 49.6232C229.875 49.6232 230.331 49.7143 230.714 49.8966C231.101 50.0789 231.418 50.3341 231.664 50.6623C231.91 50.9858 232.092 51.3686 232.211 51.8107C232.329 52.2482 232.388 52.7267 232.388 53.2462V53.8136H226.865V52.7814H231.124V52.6857C231.105 52.3576 231.037 52.0386 230.919 51.7287C230.805 51.4188 230.622 51.1636 230.372 50.963C230.121 50.7625 229.779 50.6623 229.346 50.6623C229.059 50.6623 228.795 50.7238 228.553 50.8468C228.312 50.9653 228.104 51.1431 227.931 51.38C227.758 51.617 227.624 51.9064 227.528 52.2482C227.432 52.59 227.384 52.9842 227.384 53.4308V53.7179C227.384 54.0688 227.432 54.3992 227.528 54.7091C227.628 55.0145 227.772 55.2833 227.959 55.5158C228.15 55.7482 228.38 55.9305 228.649 56.0626C228.922 56.1948 229.232 56.2609 229.579 56.2609C230.025 56.2609 230.404 56.1697 230.714 55.9875C231.023 55.8052 231.295 55.5613 231.527 55.256L232.293 55.8644C232.133 56.1059 231.93 56.3361 231.684 56.5548C231.438 56.7736 231.135 56.9513 230.775 57.088C230.42 57.2248 229.998 57.2931 229.51 57.2931ZM235.13 51.339V57.1564H233.865V49.7599H235.061L235.13 51.339ZM234.829 53.1779L234.302 53.1574C234.307 52.6515 234.382 52.1844 234.528 51.756C234.674 51.3231 234.879 50.9471 235.143 50.6281C235.408 50.3091 235.722 50.063 236.087 49.8898C236.456 49.7121 236.864 49.6232 237.31 49.6232C237.675 49.6232 238.003 49.6733 238.295 49.7736C238.586 49.8693 238.835 50.0242 239.04 50.2384C239.249 50.4526 239.409 50.7306 239.518 51.0724C239.628 51.4097 239.682 51.8221 239.682 52.3097V57.1564H238.411V52.296C238.411 51.9087 238.354 51.5988 238.24 51.3664C238.126 51.1294 237.96 50.9585 237.741 50.8537C237.522 50.7443 237.253 50.6896 236.934 50.6896C236.62 50.6896 236.333 50.7557 236.073 50.8878C235.818 51.02 235.597 51.2023 235.41 51.4347C235.228 51.6671 235.084 51.9337 234.979 52.2345C234.879 52.5307 234.829 52.8452 234.829 53.1779ZM244.7 49.7599V50.7306H240.701V49.7599H244.7ZM242.054 47.9621H243.319V55.3244C243.319 55.575 243.358 55.7641 243.435 55.8917C243.513 56.0194 243.613 56.1037 243.736 56.1447C243.859 56.1857 243.991 56.2062 244.132 56.2062C244.237 56.2062 244.347 56.1971 244.461 56.1789C244.579 56.1561 244.668 56.1378 244.727 56.1242L244.734 57.1564C244.634 57.1883 244.502 57.2179 244.338 57.2453C244.178 57.2772 243.984 57.2931 243.756 57.2931C243.447 57.2931 243.162 57.2316 242.902 57.1085C242.642 56.9855 242.435 56.7804 242.28 56.4933C242.13 56.2016 242.054 55.8097 242.054 55.3175V47.9621ZM247.557 49.7599V57.1564H246.286V49.7599H247.557ZM246.19 47.798C246.19 47.5929 246.252 47.4197 246.375 47.2785C246.502 47.1372 246.689 47.0666 246.935 47.0666C247.177 47.0666 247.361 47.1372 247.489 47.2785C247.621 47.4197 247.687 47.5929 247.687 47.798C247.687 47.994 247.621 48.1626 247.489 48.3039C247.361 48.4406 247.177 48.5089 246.935 48.5089C246.689 48.5089 246.502 48.4406 246.375 48.3039C246.252 48.1626 246.19 47.994 246.19 47.798ZM253.949 55.8917V52.0841C253.949 51.7925 253.89 51.5395 253.771 51.3253C253.657 51.1066 253.484 50.938 253.252 50.8195C253.019 50.701 252.732 50.6417 252.39 50.6417C252.071 50.6417 251.791 50.6964 251.549 50.8058C251.312 50.9152 251.126 51.0587 250.989 51.2365C250.857 51.4142 250.791 51.6056 250.791 51.8107H249.526C249.526 51.5464 249.594 51.2843 249.731 51.0246C249.868 50.7648 250.064 50.5301 250.319 50.3205C250.579 50.1063 250.889 49.9376 251.249 49.8146C251.613 49.687 252.019 49.6232 252.465 49.6232C253.003 49.6232 253.477 49.7143 253.887 49.8966C254.302 50.0789 254.626 50.3546 254.858 50.7238C255.095 51.0884 255.214 51.5464 255.214 52.0978V55.5431C255.214 55.7892 255.234 56.0513 255.275 56.3292C255.321 56.6072 255.387 56.8465 255.473 57.047V57.1564H254.154C254.09 57.0106 254.04 56.8169 254.004 56.5753C253.967 56.3292 253.949 56.1014 253.949 55.8917ZM254.168 52.672L254.181 53.5607H252.903C252.543 53.5607 252.222 53.5903 251.939 53.6496C251.657 53.7042 251.42 53.7886 251.228 53.9025C251.037 54.0164 250.891 54.16 250.791 54.3332C250.69 54.5018 250.64 54.7 250.64 54.9279C250.64 55.1603 250.693 55.3722 250.797 55.5636C250.902 55.755 251.06 55.9077 251.269 56.0216C251.483 56.131 251.745 56.1857 252.055 56.1857C252.443 56.1857 252.784 56.1037 253.081 55.9396C253.377 55.7755 253.612 55.575 253.785 55.338C253.963 55.1011 254.058 54.8709 254.072 54.6476L254.612 55.256C254.58 55.4474 254.493 55.6593 254.352 55.8917C254.211 56.1242 254.022 56.3475 253.785 56.5617C253.552 56.7713 253.274 56.9468 252.951 57.088C252.632 57.2248 252.272 57.2931 251.871 57.2931C251.369 57.2931 250.93 57.1951 250.551 56.9992C250.178 56.8032 249.886 56.5412 249.676 56.213C249.471 55.8804 249.369 55.5089 249.369 55.0988C249.369 54.7023 249.446 54.3537 249.601 54.0529C249.756 53.7475 249.979 53.4946 250.271 53.2941C250.563 53.089 250.914 52.9341 251.324 52.8292C251.734 52.7244 252.192 52.672 252.698 52.672H254.168ZM258.577 46.6564V57.1564H257.305V46.6564H258.577ZM265.454 46.6564V57.1564H264.182V46.6564H265.454ZM268.858 49.7599V57.1564H267.587V49.7599H268.858ZM267.491 47.798C267.491 47.5929 267.552 47.4197 267.675 47.2785C267.803 47.1372 267.99 47.0666 268.236 47.0666C268.478 47.0666 268.662 47.1372 268.79 47.2785C268.922 47.4197 268.988 47.5929 268.988 47.798C268.988 47.994 268.922 48.1626 268.79 48.3039C268.662 48.4406 268.478 48.5089 268.236 48.5089C267.99 48.5089 267.803 48.4406 267.675 48.3039C267.552 48.1626 267.491 47.994 267.491 47.798ZM272.153 51.339V57.1564H270.888V49.7599H272.085L272.153 51.339ZM271.852 53.1779L271.326 53.1574C271.33 52.6515 271.406 52.1844 271.551 51.756C271.697 51.3231 271.902 50.9471 272.167 50.6281C272.431 50.3091 272.745 50.063 273.11 49.8898C273.479 49.7121 273.887 49.6232 274.334 49.6232C274.698 49.6232 275.026 49.6733 275.318 49.7736C275.61 49.8693 275.858 50.0242 276.063 50.2384C276.273 50.4526 276.432 50.7306 276.542 51.0724C276.651 51.4097 276.706 51.8221 276.706 52.3097V57.1564H275.434V52.296C275.434 51.9087 275.377 51.5988 275.263 51.3664C275.149 51.1294 274.983 50.9585 274.764 50.8537C274.546 50.7443 274.277 50.6896 273.958 50.6896C273.643 50.6896 273.356 50.7557 273.096 50.8878C272.841 51.02 272.62 51.2023 272.433 51.4347C272.251 51.6671 272.107 51.9337 272.003 52.2345C271.902 52.5307 271.852 52.8452 271.852 53.1779ZM281.696 57.2931C281.181 57.2931 280.714 57.2065 280.295 57.0333C279.88 56.8556 279.522 56.6072 279.221 56.2882C278.925 55.9692 278.697 55.591 278.538 55.1535C278.378 54.716 278.298 54.2375 278.298 53.7179V53.4308C278.298 52.8292 278.387 52.2938 278.565 51.8244C278.743 51.3504 278.984 50.9494 279.29 50.6212C279.595 50.2931 279.941 50.0447 280.329 49.8761C280.716 49.7075 281.117 49.6232 281.532 49.6232C282.061 49.6232 282.516 49.7143 282.899 49.8966C283.286 50.0789 283.603 50.3341 283.849 50.6623C284.095 50.9858 284.278 51.3686 284.396 51.8107C284.515 52.2482 284.574 52.7267 284.574 53.2462V53.8136H279.05V52.7814H283.309V52.6857C283.291 52.3576 283.223 52.0386 283.104 51.7287C282.99 51.4188 282.808 51.1636 282.557 50.963C282.307 50.7625 281.965 50.6623 281.532 50.6623C281.245 50.6623 280.98 50.7238 280.739 50.8468C280.497 50.9653 280.29 51.1431 280.117 51.38C279.944 51.617 279.809 51.9064 279.714 52.2482C279.618 52.59 279.57 52.9842 279.57 53.4308V53.7179C279.57 54.0688 279.618 54.3992 279.714 54.7091C279.814 55.0145 279.957 55.2833 280.144 55.5158C280.336 55.7482 280.566 55.9305 280.835 56.0626C281.108 56.1948 281.418 56.2609 281.764 56.2609C282.211 56.2609 282.589 56.1697 282.899 55.9875C283.209 55.8052 283.48 55.5613 283.713 55.256L284.478 55.8644C284.319 56.1059 284.116 56.3361 283.87 56.5548C283.624 56.7736 283.321 56.9513 282.961 57.088C282.605 57.2248 282.184 57.2931 281.696 57.2931ZM288.682 52.4054V53.4445H285.346V52.4054H288.682ZM294.445 55.4474V49.7599H295.716V57.1564H294.506L294.445 55.4474ZM294.684 53.8888L295.211 53.8751C295.211 54.3673 295.158 54.8231 295.053 55.2423C294.953 55.657 294.789 56.0171 294.561 56.3224C294.333 56.6278 294.035 56.867 293.666 57.0402C293.297 57.2088 292.848 57.2931 292.319 57.2931C291.959 57.2931 291.629 57.2407 291.328 57.1359C291.032 57.0311 290.776 56.8693 290.562 56.6505C290.348 56.4318 290.182 56.147 290.063 55.796C289.949 55.4451 289.892 55.0236 289.892 54.5314V49.7599H291.157V54.5451C291.157 54.8778 291.193 55.1535 291.266 55.3722C291.344 55.5864 291.446 55.7573 291.574 55.8849C291.706 56.008 291.852 56.0945 292.011 56.1447C292.175 56.1948 292.344 56.2199 292.517 56.2199C293.055 56.2199 293.481 56.1173 293.796 55.9123C294.11 55.7026 294.336 55.4223 294.472 55.0714C294.614 54.716 294.684 54.3218 294.684 53.8888ZM298.909 51.1818V60.0001H297.637V49.7599H298.799L298.909 51.1818ZM303.892 53.3966V53.5402C303.892 54.0779 303.828 54.577 303.701 55.0373C303.573 55.493 303.386 55.8895 303.14 56.2267C302.899 56.5639 302.6 56.826 302.245 57.0128C301.889 57.1997 301.481 57.2931 301.021 57.2931C300.552 57.2931 300.137 57.2156 299.777 57.0607C299.417 56.9057 299.112 56.6802 298.861 56.3839C298.61 56.0877 298.41 55.7322 298.259 55.3175C298.114 54.9028 298.013 54.4357 297.959 53.9162V53.1505C298.013 52.6037 298.116 52.1138 298.266 51.6808C298.417 51.2479 298.615 50.8787 298.861 50.5734C299.112 50.2635 299.415 50.0288 299.77 49.8693C300.126 49.7052 300.536 49.6232 301.001 49.6232C301.465 49.6232 301.878 49.7143 302.238 49.8966C302.598 50.0744 302.901 50.3296 303.147 50.6623C303.393 50.9949 303.578 51.3937 303.701 51.8585C303.828 52.3188 303.892 52.8315 303.892 53.3966ZM302.621 53.5402V53.3966C302.621 53.0275 302.582 52.6811 302.505 52.3576C302.427 52.0294 302.306 51.7423 302.142 51.4962C301.983 51.2456 301.778 51.0496 301.527 50.9083C301.276 50.7625 300.978 50.6896 300.631 50.6896C300.312 50.6896 300.034 50.7443 299.797 50.8537C299.565 50.963 299.367 51.1111 299.203 51.298C299.039 51.4803 298.904 51.6899 298.799 51.9269C298.699 52.1593 298.624 52.4009 298.574 52.6515V54.422C298.665 54.741 298.793 55.0418 298.957 55.3244C299.121 55.6024 299.339 55.8279 299.613 56.0011C299.886 56.1697 300.23 56.2541 300.645 56.2541C300.987 56.2541 301.281 56.1834 301.527 56.0421C301.778 55.8963 301.983 55.6981 302.142 55.4474C302.306 55.1968 302.427 54.9097 302.505 54.5861C302.582 54.258 302.621 53.9093 302.621 53.5402Z" fill="#777E91"/>
</g>
<defs>
<linearGradient id="paint0_linear_1018_384452" x1="222.977" y1="3.61887" x2="225.998" y2="6.5896" gradientUnits="userSpaceOnUse">
<stop stop-color="#F0816B"/>
<stop offset="1" stop-color="#EB4F44"/>
</linearGradient>
<linearGradient id="paint1_linear_1018_384452" x1="246.5" y1="27" x2="247.402" y2="27.8878" gradientUnits="userSpaceOnUse">
<stop stop-color="#F0816B"/>
<stop offset="1" stop-color="#EB4F44"/>
</linearGradient>
<linearGradient id="paint2_linear_1018_384452" x1="226.5" y1="33" x2="227.403" y2="33.8871" gradientUnits="userSpaceOnUse">
<stop stop-color="#F0816B"/>
<stop offset="1" stop-color="#EB4F44"/>
</linearGradient>
<linearGradient id="paint3_linear_1018_384452" x1="230.5" y1="0" x2="231.403" y2="0.887087" gradientUnits="userSpaceOnUse">
<stop stop-color="#F0816B"/>
<stop offset="1" stop-color="#EB4F44"/>
</linearGradient>
<linearGradient id="paint4_linear_1018_384452" x1="217.5" y1="1" x2="219.306" y2="2.774" gradientUnits="userSpaceOnUse">
<stop stop-color="#F0816B"/>
<stop offset="1" stop-color="#EB4F44"/>
</linearGradient>
<linearGradient id="paint5_linear_1018_384452" x1="214.5" y1="30" x2="215.402" y2="30.887" gradientUnits="userSpaceOnUse">
<stop stop-color="#F0816B"/>
<stop offset="1" stop-color="#EB4F44"/>
</linearGradient>
<clipPath id="clip0_1018_384452">
<rect width="303" height="60" fill="white" transform="translate(0.5)"/>
</clipPath>
</defs>
</svg>
