<svg width="242" height="60" viewBox="0 0 242 60" fill="none" xmlns="http://www.w3.org/2000/svg">
<g clip-path="url(#clip0_1018_384478)">
<path d="M10.0746 33.8438C10.0746 33.5391 10.0287 33.2657 9.93496 33.0235C9.84916 32.7735 9.68554 32.5469 9.44411 32.3438C9.20167 32.1329 8.86346 31.9258 8.42648 31.7227C7.9905 31.5196 7.42482 31.3086 6.73144 31.0899C5.95925 30.8399 5.22695 30.5586 4.53358 30.2461C3.84718 29.9336 3.2396 29.5704 2.70984 29.1563C2.18706 28.7344 1.77402 28.2461 1.46973 27.6914C1.17442 27.1368 1.02577 26.4922 1.02577 25.7579C1.02577 25.0469 1.18141 24.4024 1.49368 23.8243C1.80495 23.2383 2.24193 22.7383 2.80262 22.3243C3.36431 21.9024 4.02676 21.5782 4.79098 21.3516C5.56217 21.125 6.4082 21.0118 7.32805 21.0118C8.58212 21.0118 9.67756 21.2383 10.6134 21.6914C11.5482 22.1446 12.2735 22.7657 12.7873 23.5547C13.3101 24.3438 13.5705 25.2461 13.5705 26.2618H10.0866C10.0866 25.7618 9.98184 25.3243 9.77134 24.9493C9.56881 24.5664 9.25654 24.2657 8.83553 24.0469C8.42249 23.8282 7.90071 23.7188 7.26919 23.7188C6.66161 23.7188 6.15479 23.8125 5.74974 24C5.34368 24.1797 5.04039 24.4258 4.83687 24.7383C4.63434 25.043 4.53358 25.3868 4.53358 25.7696C4.53358 26.0586 4.60341 26.3204 4.74408 26.5547C4.89174 26.7891 5.11023 27.0079 5.39856 27.211C5.68688 27.4141 6.04105 27.6055 6.46207 27.7852C6.88308 27.9649 7.37095 28.1407 7.92366 28.3125C8.85149 28.5938 9.66558 28.9102 10.3669 29.2618C11.0763 29.6133 11.6689 30.0079 12.1448 30.4454C12.6197 30.8829 12.9788 31.3789 13.2203 31.9336C13.4617 32.4883 13.5824 33.1172 13.5824 33.8204C13.5824 34.5625 13.4388 35.2266 13.1494 35.8125C12.8611 36.3985 12.4441 36.8946 11.8994 37.3008C11.3536 37.7071 10.7022 38.0157 9.94693 38.2266C9.1907 38.4375 8.34467 38.543 7.40986 38.543C6.56783 38.543 5.73776 38.4336 4.91868 38.2149C4.10059 37.9883 3.35633 37.6485 2.68589 37.1954C2.02344 36.7422 1.49368 36.1641 1.09561 35.461C0.698536 34.7579 0.5 33.9258 0.5 32.9649H4.01878C4.01878 33.4961 4.10059 33.9454 4.26421 34.3125C4.42783 34.6797 4.65829 34.9766 4.9546 35.2032C5.25789 35.4297 5.61704 35.5938 6.03008 35.6954C6.45109 35.7969 6.91102 35.8477 7.40986 35.8477C8.01744 35.8477 8.51627 35.7618 8.90636 35.5899C9.30343 35.418 9.59575 35.1797 9.78231 34.875C9.97786 34.5704 10.0746 34.2266 10.0746 33.8438ZM27.3203 28.1954V30.9375H18.4341V28.1954H27.3203ZM19.4747 21.2461V38.3086H15.9679V21.2461H19.4747ZM29.8215 21.2461V38.3086H26.3267V21.2461H29.8215ZM46.8567 29.3789V30.1875C46.8567 31.4844 46.6811 32.6485 46.3299 33.6797C45.9797 34.711 45.4849 35.5899 44.8454 36.3164C44.2059 37.0352 43.4427 37.586 42.5537 37.9688C41.6728 38.3516 40.6951 38.543 39.6196 38.543C38.5511 38.543 37.5734 38.3516 36.6845 37.9688C35.8045 37.586 35.0403 37.0352 34.3928 36.3164C33.7463 35.5899 33.2435 34.711 32.8853 33.6797C32.5342 32.6485 32.3586 31.4844 32.3586 30.1875V29.3789C32.3586 28.0743 32.5342 26.9102 32.8853 25.8868C33.2355 24.8555 33.7304 23.9766 34.3699 23.25C35.0163 22.5235 35.7806 21.9688 36.6615 21.586C37.5504 21.2032 38.5282 21.0118 39.5957 21.0118C40.6711 21.0118 41.6499 21.2032 42.5308 21.586C43.4187 21.9688 44.1829 22.5235 44.8224 23.25C45.4689 23.9766 45.9678 24.8555 46.3189 25.8868C46.6771 26.9102 46.8567 28.0743 46.8567 29.3789ZM43.314 30.1875V29.3555C43.314 28.4493 43.2322 27.6524 43.0685 26.9649C42.9049 26.2774 42.6635 25.6993 42.3432 25.2305C42.024 24.7618 41.6339 24.4102 41.174 24.1758C40.714 23.9336 40.1883 23.8125 39.5957 23.8125C39.004 23.8125 38.4773 23.9336 38.0173 24.1758C37.5654 24.4102 37.1793 24.7618 36.86 25.2305C36.5488 25.6993 36.3103 26.2774 36.1467 26.9649C35.9831 27.6524 35.9013 28.4493 35.9013 29.3555V30.1875C35.9013 31.086 35.9831 31.8829 36.1467 32.5782C36.3103 33.2657 36.5528 33.8477 36.872 34.3243C37.1913 34.793 37.5814 35.1485 38.0413 35.3907C38.5012 35.6329 39.027 35.7539 39.6196 35.7539C40.2112 35.7539 40.738 35.6329 41.1979 35.3907C41.6578 35.1485 42.0429 34.793 42.3552 34.3243C42.6665 33.8477 42.9049 33.2657 43.0685 32.5782C43.2322 31.8829 43.314 31.086 43.314 30.1875ZM56.0103 32.2266H51.6734V29.4844H56.0103C56.6807 29.4844 57.2265 29.375 57.6475 29.1563C58.0685 28.9297 58.3768 28.6172 58.5713 28.2188C58.7659 27.8204 58.8636 27.3711 58.8636 26.8711C58.8636 26.3633 58.7659 25.8907 58.5713 25.4532C58.3768 25.0157 58.0685 24.6641 57.6475 24.3985C57.2265 24.1329 56.6807 24 56.0103 24H52.8896V38.3086H49.3818V21.2461H56.0103C57.3432 21.2461 58.4855 21.4883 59.4363 21.9727C60.3951 22.4493 61.1273 23.1094 61.6342 23.9532C62.141 24.7969 62.3944 25.7618 62.3944 26.8477C62.3944 27.9493 62.141 28.9024 61.6342 29.7071C61.1273 30.5118 60.3951 31.1329 59.4363 31.5704C58.4855 32.0079 57.3432 32.2266 56.0103 32.2266ZM71.4432 32.2266H67.1064V29.4844H71.4432C72.1137 29.4844 72.6594 29.375 73.0804 29.1563C73.5014 28.9297 73.8087 28.6172 74.0043 28.2188C74.1988 27.8204 74.2966 27.3711 74.2966 26.8711C74.2966 26.3633 74.1988 25.8907 74.0043 25.4532C73.8087 25.0157 73.5014 24.6641 73.0804 24.3985C72.6594 24.1329 72.1137 24 71.4432 24H68.3215V38.3086H64.8147V21.2461H71.4432C72.7761 21.2461 73.9185 21.4883 74.8692 21.9727C75.828 22.4493 76.5603 23.1094 77.0671 23.9532C77.5739 24.7969 77.8273 25.7618 77.8273 26.8477C77.8273 27.9493 77.5739 28.9024 77.0671 29.7071C76.5603 30.5118 75.828 31.1329 74.8692 31.5704C73.9185 32.0079 72.7761 32.2266 71.4432 32.2266ZM83.977 21.2461V38.3086H80.4811V21.2461H83.977ZM101.116 21.2461V38.3086H97.6091L90.7691 26.8711V38.3086H87.2623V21.2461H90.7691L97.6201 32.6954V21.2461H101.116ZM117.659 29.3907V36.1524C117.395 36.4727 116.986 36.8204 116.432 37.1954C115.878 37.5625 115.165 37.8789 114.292 38.1446C113.419 38.4102 112.364 38.543 111.125 38.543C110.025 38.543 109.023 38.3633 108.12 38.0039C107.216 37.6368 106.435 37.1016 105.781 36.3985C105.135 35.6954 104.636 34.836 104.285 33.8204C103.934 32.7969 103.759 31.6289 103.759 30.3164V29.25C103.759 27.9375 103.926 26.7696 104.262 25.7461C104.604 24.7227 105.092 23.8594 105.723 23.1563C106.354 22.4532 107.106 21.918 107.979 21.5508C108.852 21.1836 109.823 21 110.89 21C112.372 21 113.587 21.2422 114.538 21.7266C115.489 22.2032 116.214 22.8672 116.712 23.7188C117.219 24.5625 117.531 25.5313 117.648 26.625H114.246C114.16 26.0469 113.997 25.543 113.754 25.1133C113.513 24.6836 113.166 24.3477 112.714 24.1055C112.27 23.8633 111.693 23.7422 110.984 23.7422C110.399 23.7422 109.877 23.8633 109.418 24.1055C108.966 24.3399 108.583 24.6875 108.271 25.1485C107.96 25.6094 107.721 26.1797 107.558 26.8594C107.394 27.5391 107.312 28.3282 107.312 29.2266V30.3164C107.312 31.2071 107.398 31.9961 107.57 32.6836C107.741 33.3633 107.995 33.9375 108.33 34.4063C108.673 34.8672 109.093 35.2149 109.592 35.4493C110.091 35.6836 110.672 35.8008 111.335 35.8008C111.888 35.8008 112.348 35.7539 112.714 35.6602C113.088 35.5664 113.388 35.4532 113.615 35.3204C113.848 35.1797 114.028 35.0469 114.152 34.9219V31.8985H110.949V29.3907H117.659Z" fill="#141416"/>
<path d="M140.979 35.5664V38.3086H132.409V35.5664H140.979ZM133.543 21.2461V38.3086H130.035V21.2461H133.543ZM146.719 21.2461V38.3086H143.223V21.2461H146.719ZM153.511 21.2461V38.3086H150.005V21.2461H153.511ZM160.292 28.5352V31.2774H152.553V28.5352H160.292ZM161.112 21.2461V24H152.553V21.2461H161.112ZM174.568 35.5664V38.3086H165.507V35.5664H174.568ZM166.653 21.2461V38.3086H163.146V21.2461H166.653ZM173.387 28.1954V30.8672H165.507V28.1954H173.387ZM174.556 21.2461V24H165.507V21.2461H174.556Z" fill="#141416"/>
<mask id="mask0_1018_384478" style="mask-type:luminance" maskUnits="userSpaceOnUse" x="181" y="0" width="61" height="60">
<path d="M230.271 5.77529e-05L181.695 11.3076L192.977 59.9967L241.552 48.6892L230.271 5.77529e-05Z" fill="white"/>
</mask>
<g mask="url(#mask0_1018_384478)">
<path d="M215.431 20.094L201.2 23.4067C200.413 23.5898 199.629 23.1 199.446 22.3115L198.124 16.6058C197.941 15.8173 198.431 15.0312 199.217 14.848L213.448 11.5353C214.234 11.3522 215.019 11.842 215.201 12.6305L216.524 18.3362C216.706 19.1247 216.218 19.9108 215.431 20.094Z" fill="#B1B5C4"/>
<path d="M221.766 4.02477C221.082 3.597 220.18 3.80665 219.754 4.49324L218.341 6.76597L216.073 5.34984C215.389 4.92207 214.488 5.13172 214.061 5.81832C213.634 6.50491 213.843 7.40763 214.529 7.8354L218.036 10.0258C218.379 10.2397 218.775 10.2942 219.139 10.2094C219.503 10.1247 219.835 9.9006 220.048 9.5573L222.233 6.04185C222.66 5.35514 222.451 4.45254 221.766 4.02477Z" fill="#DA291C"/>
<path d="M220.048 9.5573L222.233 6.04185C222.659 5.35525 222.45 4.45254 221.766 4.02477C221.081 3.597 220.18 3.80665 219.753 4.49324L218.34 6.76597L219.138 10.2094C219.502 10.1247 219.834 9.9006 220.048 9.5573Z" fill="#B41D12"/>
<path d="M226.813 17.4421L215.428 20.0923C214.641 20.2753 213.857 19.7856 213.674 18.9971L211.69 10.4385C211.508 9.65003 211.997 8.86391 212.783 8.68073L224.168 6.03058C224.955 5.8474 225.739 6.33729 225.922 7.12577L227.904 15.6843C228.088 16.4728 227.599 17.2589 226.813 17.4421Z" fill="#777E91"/>
<path d="M224.169 6.03143L218.477 7.35651L221.121 18.768L226.814 17.4429C227.6 17.2598 228.088 16.4737 227.906 15.6852L225.923 7.12651C225.741 6.33814 224.956 5.84826 224.169 6.03143Z" fill="#B1B5C4"/>
<path d="M193.235 22.2533L188.927 14.2363L184.132 15.3526C183.345 15.5358 182.56 15.0459 182.378 14.2575C182.195 13.469 182.685 12.6829 183.471 12.4997L189.353 11.1305C189.995 10.981 190.655 11.2808 190.969 11.8627L196.715 22.5521L193.235 22.2533Z" fill="#565A65"/>
<path d="M229.255 40.9281L206.485 46.2285C205.701 46.411 204.914 45.9204 204.732 45.1333C204.56 44.3965 204.97 43.6581 205.681 43.4163C206.444 43.1564 206.855 42.3238 206.592 41.5584C206.336 40.7929 205.51 40.4113 204.74 40.6432C202.6 41.3718 201.374 43.5865 201.885 45.7958C202.432 48.1555 204.791 49.6293 207.146 49.0813L229.915 43.7809C230.703 43.5978 231.191 42.8115 231.008 42.0232C230.826 41.2347 230.041 40.7451 229.255 40.9281Z" fill="#565A65"/>
<path d="M229.257 40.9287L220.719 42.9163L221.38 45.7692L229.917 43.7815C230.705 43.5984 231.193 42.8122 231.01 42.0238C230.828 41.2354 230.043 40.7455 229.257 40.9287Z" fill="#363A42"/>
<path d="M205.818 43.3487C205.181 43.4969 204.515 43.204 204.202 42.618L193.234 22.2532L231.845 13.2656C232.261 13.1685 232.701 13.2599 233.049 13.5168C233.392 13.7744 233.606 14.1694 233.633 14.5992L234.753 32.3791C234.794 33.0402 234.39 33.6453 233.762 33.859C201.918 44.6787 206.16 43.2692 205.818 43.3487Z" fill="#DA291C"/>
<path d="M231.847 13.2652L214.77 17.2404L219.726 38.6311C223.377 37.3891 227.967 35.8286 233.765 33.8586C234.392 33.6449 234.797 33.04 234.755 32.3787L233.635 14.5988C233.609 14.169 233.394 13.7741 233.051 13.5165C232.704 13.2595 232.264 13.1681 231.847 13.2652Z" fill="#B41D12"/>
<path d="M231.238 49.4884C228.884 50.0364 226.524 48.5626 225.977 46.203C225.431 43.8433 226.901 41.4778 229.256 40.9298C231.609 40.3818 233.969 41.8556 234.516 44.2153C235.063 46.575 233.593 48.9404 231.238 49.4884Z" fill="#363A42"/>
<path d="M230.577 46.6363C231.363 46.4532 231.853 45.6662 231.67 44.8785C231.488 44.0907 230.702 43.6003 229.916 43.7833C229.13 43.9663 228.641 44.7533 228.823 45.5411C229.006 46.3288 229.792 46.8192 230.577 46.6363Z" fill="#D9E5FF"/>
<path d="M211.312 54.1244C208.959 54.6724 206.598 53.1986 206.051 50.8388C205.506 48.4791 206.975 46.1137 209.33 45.5657C211.684 45.0177 214.043 46.4915 214.59 48.8512C215.137 51.2109 213.667 53.5764 211.312 54.1244Z" fill="#565A65"/>
<path d="M210.652 51.2721C211.437 51.0892 211.927 50.3022 211.744 49.5145C211.562 48.7266 210.777 48.2363 209.99 48.4193C209.205 48.6022 208.715 49.3892 208.897 50.1769C209.08 50.9647 209.866 51.4551 210.652 51.2721Z" fill="#ECF2FF"/>
<path d="M226.614 29.5177C225.827 29.7008 225.043 29.211 224.861 28.4225L223.538 22.7168C223.356 21.9284 223.844 21.1422 224.631 20.9592C225.417 20.776 226.201 21.2659 226.384 22.0542L227.706 27.7601C227.889 28.5484 227.401 29.3347 226.614 29.5177Z" fill="#D9E5FF"/>
<path d="M209.536 33.4917C208.75 33.6749 207.965 33.185 207.783 32.3967L206.46 26.6908C206.278 25.9025 206.766 25.1162 207.553 24.9332C208.339 24.75 209.124 25.2399 209.306 26.0284L210.629 31.7341C210.811 32.5225 210.323 33.3087 209.536 33.4917Z" fill="#ECF2FF"/>
<path d="M218.075 31.5043C217.288 31.6873 216.504 31.1976 216.321 30.4091L214.999 24.7034C214.816 23.9149 215.306 23.1288 216.092 22.9456C216.878 22.7625 217.663 23.2523 217.846 24.0408L219.167 29.7465C219.35 30.535 218.861 31.3211 218.075 31.5043Z" fill="#ECF2FF"/>
<path d="M219.166 29.7469L217.843 24.0411C217.662 23.2527 216.876 22.7628 216.09 22.946L218.073 31.5045C218.86 31.3215 219.348 30.5352 219.166 29.7469Z" fill="#D9E5FF"/>
</g>
</g>
<defs>
<clipPath id="clip0_1018_384478">
<rect width="241" height="60" fill="white" transform="translate(0.5)"/>
</clipPath>
</defs>
</svg>
