<?xml version="1.0" encoding="utf-8"?>
<!-- Generator: Adobe Illustrator 27.4.0, SVG Export Plug-In . SVG Version: 6.00 Build 0)  -->
<svg version="1.1" xmlns="http://www.w3.org/2000/svg" xmlns:xlink="http://www.w3.org/1999/xlink" x="0px" y="0px"
	 viewBox="0 0 38.8 38.8" style="enable-background:new 0 0 38.8 38.8;" xml:space="preserve">
<style type="text/css">
	.st0{display:none;}
	.st1{display:inline;}
	.st2{clip-path:url(#SVGID_00000119107355072999394290000012180646113635969465_);}
	.st3{fill:#6BB893;}
	.st4{fill:#8FDCB6;}
	.st5{fill:#FFD1D4;}
	.st6{fill:#F1AAAE;}
	.st7{fill:#F49FA4;}
	.st8{fill:#C85960;}
	.st9{fill:#F9E95B;}
	.st10{fill:#E3D01D;}
	.st11{clip-path:url(#SVGID_00000085973052269300936440000008340785918771452560_);}
	.st12{fill:#B40166;}
	.st13{fill:#FEFDFD;}
	.st14{fill:#118ACB;}
	.st15{fill:#33B44A;}
	.st16{fill:#39B54A;}
	.st17{fill:#ED1B23;}
	.st18{fill:#005AAA;}
	.st19{fill:#009DDB;}
	.st20{fill:#005BAA;}
	.st21{fill:#ED1C24;}
	.st22{fill:#009EDB;}
</style>
<g id="Layer_1" class="st0">
	<g class="st1">
		<g>
			<defs>
				<rect id="SVGID_1_" x="5.1" y="5.1" width="28.6" height="28.6"/>
			</defs>
			<clipPath id="SVGID_00000152961000360209620110000006285086162368512946_">
				<use xlink:href="#SVGID_1_"  style="overflow:visible;"/>
			</clipPath>
			<g style="clip-path:url(#SVGID_00000152961000360209620110000006285086162368512946_);">
				<path class="st3" d="M14.4,11.3l12.3-5.5l2.6,5.5l-8,2.1L14.4,11.3z"/>
				<path class="st4" d="M10.5,11.3l12.3-5.5l2.6,5.5l-8.6,2.5L10.5,11.3z"/>
				<path class="st5" d="M29.7,33.2h-22c-1.4,0-2.6-1.2-2.6-2.6V14c0-1.4,1.2-2.6,2.6-2.6h22c1.4,0,2.6,1.2,2.6,2.6v16.6
					C32.3,32.1,31.2,33.2,29.7,33.2z"/>
				<path class="st6" d="M10.5,33.2H7.7c-1.4,0-2.6-1.2-2.6-2.6V14c0-1.4,1.2-2.6,2.6-2.6h2.8c-1.4,0-2.6,1.2-2.6,2.6v16.6
					C7.9,32.1,9.1,33.2,10.5,33.2z"/>
				<path class="st7" d="M24.2,26.4h8c0.8,0,1.5-0.7,1.5-1.5v-5.3c0-0.8-0.7-1.5-1.5-1.5h-8c-0.8,0-1.5,0.7-1.5,1.5v5.3
					C22.7,25.7,23.4,26.4,24.2,26.4z"/>
				<path class="st8" d="M25.7,26.4h-1.5c-0.8,0-1.5-0.7-1.5-1.5v-5.3c0-0.8,0.7-1.5,1.5-1.5h1.5c-0.8,0-1.5,0.7-1.5,1.5v5.3
					C24.2,25.7,24.9,26.4,25.7,26.4z"/>
				<path class="st9" d="M27.4,24.3c1.1,0,2.1-1,2.1-2.1s-1-2.1-2.1-2.1c-1.1,0-2.1,1-2.1,2.1S26.3,24.3,27.4,24.3z"/>
				<path class="st10" d="M28.1,24.2c-0.1,0-0.4,0.1-0.7,0.1c-1.1,0-2.1-1-2.1-2.1s1-2.1,2.1-2.1c0.3,0,0.4,0,0.7,0.1
					c-0.8,0.3-1.4,1.1-1.4,1.9C26.5,23.2,27.2,23.9,28.1,24.2z"/>
			</g>
		</g>
	</g>
</g>
<g id="Layer_2" class="st0">
	<g class="st1">
		<defs>
			<rect id="SVGID_00000033358841922498734330000014351925509957111963_" x="5.7" y="5.7" width="27.4" height="27.4"/>
		</defs>
		<clipPath id="SVGID_00000005229442192719025830000014298439666107560343_">
			<use xlink:href="#SVGID_00000033358841922498734330000014351925509957111963_"  style="overflow:visible;"/>
		</clipPath>
		<g style="clip-path:url(#SVGID_00000005229442192719025830000014298439666107560343_);">
			<path class="st12" d="M19.4,5.7c3.9,0,7.9,0,11.8,0c0.9,0,1.7,0.6,1.9,1.6c0,0.1,0,0.2,0,0.2c0,7.9,0,15.8,0,23.7
				c0,1-0.8,1.9-1.9,1.9c-7.9,0-15.8,0-23.7,0c-1,0-1.7-0.7-1.9-1.6c0-0.1,0-0.2,0-0.3c0-7.8,0-15.7,0-23.5c0-1,0.6-1.7,1.6-1.9
				c0.1,0,0.2,0,0.3,0C11.5,5.7,15.5,5.7,19.4,5.7L19.4,5.7z M10.1,15.9L10.1,15.9c0,0.8,0,1.7,0,2.5c0,0.1,0,0.2,0.2,0.2
				c0.6,0,1.3,0,1.9,0c0.2,0,0.2,0,0.2-0.2c0-1.5,0-3.1,0-4.6c0-0.1,0-0.1,0-0.2c0-0.3,0.2-0.5,0.5-0.6c0.4-0.1,0.8,0.2,0.8,0.7
				c0,1.6,0,3.2,0,4.7c0,0.1,0,0.2,0.2,0.2c0.6,0,1.3,0,1.9,0c0.2,0,0.2,0,0.2-0.2c0-1.6,0-3.1,0-4.7c0-0.1,0-0.1,0-0.2
				c0.1-0.4,0.4-0.6,0.8-0.5c0.3,0.1,0.6,0.3,0.6,0.7c0,1.6,0,3.2,0,4.7c0,0.1,0,0.2,0.2,0.2c0.6,0,1.3,0,1.9,0c0.2,0,0.2,0,0.2-0.2
				c0-1.6,0-3.2,0-4.8c0-1.2-0.5-2-1.5-2.6c-1-0.6-2.1-0.5-3,0.1c-0.1,0.1-0.2,0.1-0.3,0c-1-0.6-2-0.7-3.1-0.1
				c-1,0.5-1.5,1.4-1.6,2.6C10.1,14.4,10.1,15.2,10.1,15.9L10.1,15.9z M19.6,25.5c0-0.8,0-1.5,0-2.3c0-1.2-0.5-2.1-1.6-2.6
				c-1-0.5-2-0.5-3,0.2c-0.1,0.1-0.2,0.1-0.3,0c-1-0.6-2-0.7-3-0.2c-1,0.5-1.6,1.4-1.6,2.5c0,1.6,0,3.3,0,4.9c0,0.1,0.1,0.1,0.2,0.1
				c0.7,0,1.3,0,2,0c0.1,0,0.2-0.1,0.2-0.2c0-0.6,0-1.3,0-1.9c0-1,0-1.9,0-2.9c0-0.4,0.3-0.7,0.6-0.7c0.4,0,0.7,0.3,0.7,0.7
				c0,1.6,0,3.1,0,4.7c0,0.1,0,0.2,0.2,0.2c0.6,0,1.3,0,1.9,0c0.1,0,0.2,0,0.2-0.2c0-1.2,0-2.4,0-3.6c0-0.4,0-0.8,0-1.2
				c0-0.3,0.3-0.6,0.6-0.6c0.3,0,0.6,0.2,0.7,0.5c0,0.1,0,0.2,0,0.3c0,1.5,0,3.1,0,4.6c0,0.1,0,0.2,0.2,0.2c0.6,0,1.3,0,1.9,0
				c0.1,0,0.2,0,0.2-0.2C19.6,27.2,19.6,26.3,19.6,25.5L19.6,25.5z M28.6,14.6c0-2.2-1.8-3.9-3.9-3.9c-2.2,0-3.9,1.8-3.9,3.9
				c0,2.2,1.8,4,3.9,4C26.9,18.6,28.6,16.8,28.6,14.6L28.6,14.6z M24.7,20.3c-2.2,0-3.9,1.8-3.9,3.9c0,2.2,1.8,3.9,3.9,3.9
				c2.2,0,4-1.7,4-3.9C28.6,22,26.9,20.3,24.7,20.3z"/>
			<path class="st13" d="M10.1,15.9c0-0.7,0-1.5,0-2.2c0-1.2,0.5-2.1,1.6-2.6c1-0.6,2.1-0.5,3.1,0.1c0.1,0.1,0.2,0.1,0.3,0
				c1-0.6,2-0.7,3-0.1c1,0.5,1.5,1.4,1.5,2.6c0,1.6,0,3.2,0,4.8c0,0.1,0,0.2-0.2,0.2c-0.6,0-1.3,0-1.9,0c-0.1,0-0.2,0-0.2-0.2
				c0-1.6,0-3.2,0-4.7c0-0.4-0.2-0.6-0.6-0.7c-0.4-0.1-0.7,0.2-0.8,0.5c0,0.1,0,0.1,0,0.2c0,1.6,0,3.1,0,4.7c0,0.2,0,0.2-0.2,0.2
				c-0.6,0-1.3,0-1.9,0c-0.1,0-0.2,0-0.2-0.2c0-1.6,0-3.2,0-4.7c0-0.5-0.4-0.8-0.8-0.7c-0.3,0.1-0.5,0.3-0.5,0.6c0,0.1,0,0.1,0,0.2
				c0,1.5,0,3.1,0,4.6c0,0.1,0,0.2-0.2,0.2c-0.6,0-1.3,0-1.9,0c-0.1,0-0.2,0-0.2-0.2C10.2,17.6,10.1,16.7,10.1,15.9L10.1,15.9
				L10.1,15.9z"/>
			<path class="st13" d="M19.6,25.5c0,0.8,0,1.7,0,2.5c0,0.1,0,0.2-0.2,0.2c-0.6,0-1.3,0-1.9,0c-0.1,0-0.2,0-0.2-0.2
				c0-1.5,0-3.1,0-4.6c0-0.1,0-0.2,0-0.3c-0.1-0.3-0.4-0.5-0.7-0.5c-0.3,0-0.6,0.3-0.6,0.6c0,0.4,0,0.8,0,1.2c0,1.2,0,2.4,0,3.6
				c0,0.1,0,0.2-0.2,0.2c-0.6,0-1.3,0-1.9,0c-0.2,0-0.2,0-0.2-0.2c0-1.6,0-3.1,0-4.7c0-0.5-0.3-0.8-0.7-0.7c-0.4,0-0.6,0.3-0.6,0.7
				c0,1,0,1.9,0,2.9c0,0.6,0,1.3,0,1.9c0,0.1,0,0.2-0.2,0.2c-0.7,0-1.3,0-2,0c-0.1,0-0.2,0-0.2-0.1c0-1.6,0-3.3,0-4.9
				c0-1.1,0.6-2,1.6-2.5c1-0.5,2-0.4,3,0.2c0.1,0.1,0.2,0.1,0.3,0c1-0.6,2-0.7,3-0.2c1,0.5,1.6,1.4,1.6,2.6
				C19.6,24,19.6,24.7,19.6,25.5L19.6,25.5z"/>
			<path class="st13" d="M28.6,14.6c0,2.2-1.8,4-3.9,4c-2.2,0-4-1.8-3.9-4c0-2.2,1.8-3.9,3.9-3.9C26.9,10.7,28.6,12.5,28.6,14.6
				L28.6,14.6z M26.4,14.6c0-0.9-0.7-1.7-1.7-1.7c-0.9,0-1.7,0.7-1.7,1.7c0,0.9,0.7,1.7,1.7,1.7C25.6,16.3,26.4,15.6,26.4,14.6
				L26.4,14.6z"/>
			<path class="st13" d="M24.7,20.3c2.2,0,3.9,1.7,3.9,3.9c0,2.2-1.8,3.9-4,3.9c-2.2,0-3.9-1.8-3.9-3.9C20.7,22,22.5,20.3,24.7,20.3
				z M24.7,22.5c-0.9,0-1.7,0.8-1.7,1.7c0,0.9,0.8,1.7,1.7,1.7c0.9,0,1.6-0.8,1.6-1.7C26.4,23.3,25.6,22.5,24.7,22.5z"/>
			<path class="st12" d="M26.4,14.6c0,0.9-0.8,1.7-1.7,1.7c-0.9,0-1.7-0.8-1.7-1.7c0-0.9,0.8-1.7,1.7-1.7
				C25.6,13,26.4,13.7,26.4,14.6L26.4,14.6z"/>
			<path class="st12" d="M24.7,22.5c0.9,0,1.7,0.7,1.7,1.7c0,0.9-0.7,1.7-1.6,1.7c-1,0-1.7-0.7-1.7-1.7C23,23.3,23.8,22.6,24.7,22.5
				z"/>
		</g>
	</g>
</g>
<g id="Layer_3">
	<g id="XMLID_115_">
		<g id="XMLID_538_">
			<path id="XMLID_273_" class="st14" d="M21.6,10.1c-0.2-0.2-0.5-0.3-0.8-0.3c-0.5,0-0.8,0.2-1,0.7c-0.5-0.5-1.1-0.8-1.9-0.8
				c-1,0-1.8,0.4-2.4,1.1c-0.7,0.7-1,1.7-1,2.7s0.3,2,1,2.7c0.7,0.7,1.5,1.1,2.4,1.1c0.8,0,1.4-0.3,1.9-0.8c0.2,0.5,0.6,0.7,1,0.7
				c0.3,0,0.6-0.1,0.8-0.3c0.2-0.2,0.3-0.5,0.3-0.8v-5.2C21.9,10.6,21.8,10.3,21.6,10.1z M19.3,14.8c-0.3,0.3-0.6,0.5-1.1,0.5
				c-0.5,0-0.8-0.2-1.1-0.5c-0.3-0.3-0.4-0.8-0.4-1.3c0-0.5,0.1-0.9,0.4-1.3c0.3-0.3,0.6-0.5,1.1-0.5c0.5,0,0.8,0.2,1.1,0.5
				s0.4,0.8,0.4,1.3C19.7,14,19.6,14.5,19.3,14.8z"/>
			<path id="XMLID_272_" class="st14" d="M24.4,16.9c-0.2,0.2-0.5,0.3-0.8,0.3c-0.3,0-0.6-0.1-0.8-0.3c-0.2-0.2-0.3-0.5-0.3-0.8V6.8
				c0-0.3,0.1-0.6,0.3-0.8s0.5-0.3,0.8-0.3c0.3,0,0.6,0.1,0.8,0.3c0.2,0.2,0.3,0.5,0.3,0.8v9.3C24.8,16.4,24.7,16.7,24.4,16.9
				L24.4,16.9z"/>
			<path id="XMLID_269_" class="st14" d="M31.8,10.8c-0.7-0.7-1.6-1.1-2.7-1.1s-2,0.4-2.7,1.1c-0.7,0.7-1,1.6-1,2.7s0.3,2,1,2.7
				c0.7,0.7,1.6,1.1,2.7,1.1s2-0.4,2.7-1.1c0.7-0.7,1-1.6,1-2.7C32.8,12.4,32.5,11.5,31.8,10.8z M30.2,14.8
				c-0.3,0.3-0.6,0.5-1.1,0.5c-0.5,0-0.8-0.2-1.1-0.5s-0.4-0.8-0.4-1.3c0-0.5,0.1-0.9,0.4-1.3s0.6-0.5,1.1-0.5
				c0.5,0,0.8,0.2,1.1,0.5c0.3,0.3,0.4,0.8,0.4,1.3C30.6,14,30.5,14.5,30.2,14.8z"/>
			<path id="XMLID_268_" class="st14" d="M13.3,9.9c0.8-1,1.2-1.7,1.2-2c0-0.8-0.5-1.2-1.5-1.2H7.5c-0.4,0-0.7,0.1-1,0.3
				C6.3,7.2,6.2,7.4,6.2,7.8c0,0.3,0.1,0.6,0.3,0.8c0.2,0.2,0.6,0.3,1,0.3h3.7l-4.7,6.1C6.2,15.3,6,15.7,6,16c0,0.9,0.6,1.3,1.8,1.3
				h5.5c0.9,0,1.3-0.4,1.3-1.1c0-0.7-0.4-1.1-1.3-1.1H9.3L13.3,9.9L13.3,9.9z"/>
		</g>
		<g id="XMLID_288_">
			<path id="XMLID_267_" class="st15" d="M10.6,23.1H9.2v2.9h1.4c0.4,0,0.7-0.1,1-0.4c0.3-0.3,0.4-0.6,0.4-1c0-0.4-0.1-0.8-0.4-1
				C11.4,23.2,11,23.1,10.6,23.1z"/>
			<path id="XMLID_266_" class="st15" d="M17.5,25.8c-0.4,0-0.8,0.2-1,0.5c-0.2,0.3-0.4,0.7-0.4,1.2c0,0.5,0.1,0.9,0.4,1.2
				c0.2,0.3,0.6,0.5,1,0.5s0.8-0.2,1-0.5c0.2-0.3,0.4-0.7,0.4-1.2c0-0.5-0.1-0.9-0.4-1.2C18.3,25.9,17.9,25.8,17.5,25.8z"/>
			<path id="XMLID_262_" class="st16" d="M27.2,19h-20C6.6,19,6,19.5,6,20.2v11.7c0,0.7,0.5,1.2,1.2,1.2H23
				c-0.2-0.2-0.2-0.3-0.2-0.6c0-0.2,0-0.4,0.1-0.5l0.7-1.7l-2.1-5.2c-0.1-0.1-0.1-0.3-0.1-0.5c0-0.2,0.1-0.4,0.3-0.6
				c0.2-0.2,0.4-0.2,0.6-0.2c0.5,0,0.8,0.2,0.9,0.7l1.3,3.5l1.4-3.5c0.2-0.4,0.5-0.7,0.9-0.7c0.2,0,0.4,0.1,0.6,0.2
				c0.2,0.2,0.3,0.3,0.3,0.6c0,0.2,0,0.3-0.1,0.5l-3,7.4c-0.1,0.2-0.2,0.4-0.3,0.5h2.9c0.7,0,1.2-0.5,1.2-1.2V20.2
				C28.5,19.5,27.9,19,27.2,19z M13.1,26.9c-0.6,0.6-1.4,0.9-2.4,0.9H9.2v2.2c0,0.3-0.1,0.6-0.3,0.8C8.8,30.9,8.5,31,8.2,31
				s-0.5-0.1-0.7-0.3c-0.2-0.2-0.3-0.4-0.3-0.8v-7.6c0-0.7,0.4-1.1,1.1-1.1h2.4c1,0,1.8,0.3,2.5,0.9c0.7,0.6,1,1.4,1,2.3
				C14.1,25.5,13.8,26.3,13.1,26.9z M20.9,29.9c0,0.3-0.1,0.5-0.3,0.7c-0.2,0.2-0.4,0.3-0.7,0.3c-0.4,0-0.8-0.2-1-0.6
				c-0.4,0.5-1,0.8-1.8,0.8c-0.9,0-1.6-0.3-2.3-1c-0.6-0.7-0.9-1.5-0.9-2.5s0.3-1.8,0.9-2.5c0.6-0.7,1.4-1,2.3-1
				c0.7,0,1.3,0.3,1.8,0.8c0.2-0.4,0.5-0.6,1-0.6c0.3,0,0.5,0.1,0.7,0.3c0.2,0.2,0.3,0.4,0.3,0.7V29.9z"/>
		</g>
	</g>
</g>
<g id="Layer_4" class="st0">
	<g class="st1">
		<g>
			<g>
				<g>
					<path class="st17" d="M30,24c0.3-0.2,0.7-0.3,1.1-0.3c0.3,0,0.6,0.2,0.8,0.4c0.3,0.3,0.4,0.7,0.3,1.1c0,0.3-0.2,0.7-0.5,0.9
						c0.2,0.2,0.4,0.4,0.7,0.5c0.1,0.1,0.3,0.1,0.4,0.1c-0.1,0.1-0.2,0.2-0.4,0.2c-0.2,0.1-0.4,0.1-0.6,0c-0.3-0.1-0.5-0.3-0.8-0.5
						c0,0-0.1,0-0.1,0c-0.4,0.1-0.7-0.1-1-0.3c-0.3-0.2-0.4-0.6-0.5-1C29.5,24.7,29.7,24.2,30,24z M30.7,24.1
						c-0.2,0-0.3,0.2-0.3,0.3c-0.1,0.2-0.1,0.4-0.1,0.6c0,0.2,0,0.3,0.1,0.5c0.1,0.2,0.1,0.3,0.3,0.5c0.2,0.2,0.4,0.2,0.6,0.1
						c0.1-0.1,0.2-0.2,0.2-0.4c0.1-0.2,0.1-0.5,0-0.7c0-0.2-0.1-0.4-0.2-0.6C31.2,24.1,30.9,24,30.7,24.1z"/>
				</g>
				<path class="st17" d="M4,23.7c0.6,0,1.2,0,1.7,0c0.5,1.3,1,2.7,1.5,4c0.4-1.1,0.8-2.2,1.2-3.3c0-0.1,0-0.2,0-0.2
					c-0.1-0.2-0.2-0.3-0.2-0.5c0.4,0,0.9,0,1.3,0c-0.1,0.2-0.2,0.5-0.2,0.7c-0.6,1.6-1.1,3.2-1.7,4.8c-0.5-0.1-1-0.3-1.4-0.6
					c-0.2-0.2-0.3-0.4-0.4-0.6c-0.1-0.3-0.2-0.5-0.3-0.8c-0.4-1-0.8-2.1-1.2-3.1C4.1,23.9,4,23.8,4,23.7z"/>
				<path class="st17" d="M9.6,23.7c0.6,0,1.1,0,1.7,0c0.9,1.1,1.8,2.2,2.7,3.4c0-0.9,0-1.7,0-2.6c0-0.1,0-0.2,0-0.3
					c-0.1-0.2-0.2-0.3-0.3-0.5c0.5,0,1.1,0,1.6,0c-0.1,0.2-0.3,0.3-0.4,0.5c0,0,0,0.1,0,0.2c0,1.6,0,3.2,0,4.9c-0.3,0-0.7-0.1-1-0.3
					c-0.3-0.1-0.5-0.3-0.7-0.6c-0.8-0.9-1.5-1.9-2.3-2.8c0,1,0,1.9,0,2.9c0,0.1,0,0.1,0.1,0.2c0.1,0.2,0.3,0.3,0.4,0.5
					c-0.5,0-1.1,0-1.6,0c0.1-0.1,0.2-0.3,0.3-0.4c0.1-0.1,0.1-0.2,0.1-0.3c0-0.8,0-1.6,0-2.5c0-0.5,0-1,0-1.5
					C9.9,24.2,9.8,23.9,9.6,23.7z"/>
				<g>
					<path class="st17" d="M32.4,23.7c0.4,0,0.9,0,1.3,0c0.2,0,0.4,0,0.5,0.1c0.2,0.1,0.3,0.4,0.3,0.6c0,0.1-0.1,0.3-0.2,0.4
						C34.2,25,34.1,25,34,25.1c0.2,0.3,0.3,0.6,0.5,0.9c0.1,0.1,0.2,0.3,0.3,0.4c-0.2,0-0.5,0-0.7,0c-0.1,0-0.2,0-0.3-0.1
						c-0.1-0.1-0.1-0.2-0.2-0.3c-0.1-0.2-0.2-0.5-0.4-0.7c0,0.2,0,0.5,0,0.7c0,0.1,0,0.2,0.1,0.3c0,0.1,0.1,0.1,0.1,0.1
						c-0.4,0-0.7,0-1.1,0c0,0,0.1-0.1,0.1-0.1c0-0.1,0.1-0.2,0.1-0.3c0-0.5,0-1.1,0-1.6c0-0.1,0-0.3,0-0.4
						C32.5,23.8,32.4,23.8,32.4,23.7z M33.3,24.1c0,0.3,0,0.6,0,0.9c0.1,0,0.2-0.1,0.3-0.1c0.2-0.2,0.2-0.5,0.1-0.7
						C33.5,24.1,33.4,24.1,33.3,24.1z"/>
				</g>
			</g>
			<g>
				<path class="st18" d="M15.6,23.7c0.3,0,0.5,0,0.8,0c0.6,0,1.1,0,1.7,0c0.3,0,0.7,0.1,1,0.2c0.2,0.1,0.4,0.3,0.5,0.5
					c0.1,0.3,0.2,0.6,0.2,1c0,0.3-0.2,0.6-0.4,0.8c-0.3,0.3-0.7,0.4-1.1,0.5c-0.1,0-0.3,0-0.4,0c-0.1,0-0.3,0-0.4,0
					c0.3-0.1,0.5-0.3,0.6-0.5c0.2-0.3,0.2-0.6,0.2-0.9c0-0.2-0.1-0.5-0.3-0.6c-0.2-0.1-0.4-0.2-0.6-0.2c0,1,0,2,0,3.1
					c0,0.2,0,0.4,0,0.6c0,0.3,0.1,0.6,0.3,0.8c0,0,0.1,0.1,0.1,0.1c-0.7,0-1.5,0-2.2,0c0.1-0.1,0.1-0.1,0.2-0.2
					c0.1-0.2,0.2-0.4,0.2-0.6c0-1.2,0-2.4,0-3.7c0-0.2,0-0.4-0.1-0.5C15.8,24,15.7,23.8,15.6,23.7z"/>
				<g>
					<path class="st18" d="M20.7,23.7c0.7,0,1.3,0,2,0c0.5,1.4,1.1,2.8,1.6,4.2c0.1,0.3,0.2,0.5,0.4,0.8c0.1,0.1,0.2,0.2,0.3,0.3
						c0,0,0,0,0,0.1c-0.8,0-1.7,0-2.5,0c0,0,0,0,0,0c0.1-0.1,0.3-0.2,0.3-0.4c0-0.2,0-0.4-0.1-0.6c-0.1-0.2-0.1-0.4-0.2-0.7
						c-0.5,0-1.1,0-1.6,0c-0.1,0.2-0.1,0.4-0.2,0.5c-0.1,0.2-0.1,0.4-0.2,0.6c0,0.2,0.1,0.3,0.2,0.4c0,0,0.1,0.1,0.1,0.1
						c-0.6,0-1.1,0-1.7,0c0,0,0-0.1,0.1-0.1c0.1-0.1,0.3-0.3,0.3-0.4c0.1-0.2,0.2-0.5,0.3-0.7c0.4-1,0.7-2,1.1-3.1
						c0.1-0.2,0.1-0.4,0.1-0.6C21,24,20.9,23.9,20.7,23.7z M21.7,25.1c-0.2,0.5-0.4,1.1-0.6,1.6c0.4,0,0.8,0,1.1,0
						C22.1,26.2,21.9,25.6,21.7,25.1z"/>
				</g>
				<path class="st18" d="M23.8,23.7c0.7,0,1.3,0,2,0c0.4,0.6,0.8,1.3,1.2,1.9c0.2-0.3,0.5-0.6,0.7-1c0.1-0.1,0.1-0.2,0.2-0.4
					c0-0.1,0-0.3,0-0.4c-0.1-0.1-0.2-0.2-0.2-0.2c0.6,0,1.3,0,1.9,0c-0.7,1-1.3,1.9-2,2.9c0,0,0,0,0,0.1c0,0.3,0,0.6,0,0.9
					c0,0.2,0,0.5,0,0.7c0,0.2,0.1,0.4,0.2,0.6c0,0.1,0.1,0.1,0.1,0.1c-0.8,0-1.5,0-2.3,0c0,0,0-0.1,0.1-0.1c0.1-0.1,0.2-0.2,0.2-0.4
					c0.1-0.2,0-0.4,0-0.6c0-0.4,0-0.9,0-1.4c-0.5-0.7-1-1.4-1.5-2.2c-0.1-0.2-0.2-0.3-0.4-0.5C24.1,23.9,23.9,23.8,23.8,23.7z"/>
			</g>
			<g>
				<g>
					<path class="st19" d="M21,30.1c0.2,0,0.4,0,0.5-0.1c0.3,0,0.6,0,0.8,0.1c0.1,0.1,0.2,0.1,0.3,0.3c0.1,0.2,0,0.4,0,0.6
						c-0.1,0.2-0.2,0.4-0.3,0.6c-0.2,0.2-0.5,0.2-0.7,0.2c-0.2,0-0.3,0-0.5,0c-0.1,0.3-0.1,0.6-0.2,0.9c0,0,0,0.1-0.1,0.1
						c-0.1,0-0.3,0-0.4,0c0,0-0.1-0.1,0-0.1c0.2-0.8,0.4-1.7,0.5-2.5C20.9,30.2,20.9,30.1,21,30.1z M21.3,30.5
						c-0.1,0.3-0.1,0.6-0.2,0.9c0.2,0,0.4,0,0.6,0c0.1,0,0.3-0.2,0.3-0.3c0-0.1,0.1-0.3,0-0.4c0-0.1-0.1-0.1-0.2-0.2
						C21.7,30.5,21.5,30.5,21.3,30.5z"/>
				</g>
				<path class="st19" d="M8.2,30.1c0.3,0,0.6,0,0.9,0.1c0,0,0.1,0,0.1,0.1c0,0.1,0,0.1,0,0.2c0,0,0,0.1,0,0.1c0,0-0.1,0-0.1,0
					c-0.2-0.1-0.4-0.1-0.6-0.1c-0.1,0-0.3,0-0.4,0.1C8,30.7,8,30.8,8,30.9c0.1,0.1,0.3,0.2,0.4,0.3c0.2,0.1,0.4,0.2,0.5,0.4
					c0.1,0.2,0.1,0.5,0,0.7c-0.1,0.3-0.4,0.5-0.7,0.5c-0.3,0.1-0.6,0.1-0.9,0c-0.1,0-0.2-0.1-0.2-0.1c0-0.1,0-0.2,0-0.3
					c0,0,0-0.1,0.1-0.1c0.3,0.1,0.6,0.1,0.8,0.1c0.1,0,0.2-0.1,0.3-0.2c0.1-0.1,0.1-0.2,0-0.3c-0.1-0.1-0.1-0.1-0.2-0.2
					c-0.1-0.1-0.3-0.2-0.4-0.3c-0.1-0.1-0.3-0.2-0.3-0.4c0-0.2,0.1-0.5,0.3-0.7C7.9,30.2,8.1,30.1,8.2,30.1z"/>
				<path class="st19" d="M16.7,30.4c0.1,0,0.2,0,0.3-0.1c0,0,0.1,0,0.1,0c0,0.1-0.1,0.3-0.1,0.4c0.1,0,0.3,0,0.4,0
					c0,0,0.1,0,0.1,0.1c0,0.1,0,0.2,0,0.2c0,0-0.1,0.1-0.1,0.1c-0.1,0-0.2,0-0.4,0c-0.1,0.4-0.2,0.8-0.3,1.2c0,0,0,0.1,0,0.1
					c0.1,0,0.2,0,0.4,0c0,0,0,0,0,0c0,0.1,0,0.2-0.1,0.3c0,0-0.1,0.1-0.1,0.1c-0.2,0-0.3,0-0.5,0c-0.1,0-0.2-0.1-0.2-0.2
					c0-0.1,0-0.2,0-0.4c0.1-0.4,0.2-0.7,0.2-1.1c-0.1,0-0.2,0-0.3-0.1c0,0-0.1,0-0.1-0.1c0-0.1,0-0.1,0-0.2c0,0,0-0.1,0.1-0.1
					c0.1,0,0.2,0,0.3,0c0-0.1,0-0.2,0.1-0.3C16.6,30.4,16.7,30.4,16.7,30.4z"/>
				<path class="st19" d="M10.1,30.8c0.2-0.1,0.5-0.1,0.7,0c0,0,0.1,0,0.1,0.1c0,0.1,0,0.2-0.1,0.3c0,0-0.1,0.1-0.1,0
					c-0.2-0.1-0.3-0.1-0.5-0.1c-0.1,0-0.2,0.1-0.3,0.2c-0.1,0.1-0.1,0.3-0.1,0.5c0,0.1-0.1,0.3,0,0.4c0,0.1,0.1,0.2,0.2,0.2
					c0.2,0,0.3,0,0.5-0.1c0,0,0.1,0,0.1,0c0,0.1,0,0.2,0,0.2c0,0,0,0.1-0.1,0.1c-0.2,0.1-0.4,0.1-0.5,0.1c-0.1,0-0.3,0-0.4-0.1
					c-0.1-0.1-0.2-0.2-0.2-0.4c0-0.2,0-0.3,0-0.5c0-0.2,0.1-0.4,0.2-0.6C9.6,31,9.8,30.8,10.1,30.8z"/>
				<g>
					<path class="st19" d="M11.4,30.8c0.2-0.1,0.5-0.1,0.8-0.1c0.2,0,0.3,0.1,0.4,0.2c0.1,0.1,0.1,0.3,0.1,0.5
						c-0.1,0.4-0.2,0.8-0.3,1.3c0,0,0,0.1-0.1,0.1c-0.3,0.1-0.7,0.1-1,0.1c-0.2,0-0.3-0.1-0.4-0.2c-0.1-0.2,0-0.4,0-0.5
						c0.1-0.2,0.2-0.3,0.4-0.4c0.3-0.1,0.6-0.1,0.8-0.1c0-0.1,0.1-0.2,0-0.3c0-0.1-0.1-0.1-0.2-0.1c-0.2,0-0.5,0-0.7,0.1
						c0,0-0.1,0-0.1,0c0-0.1,0-0.2,0-0.3C11.3,30.9,11.4,30.8,11.4,30.8z M11.6,31.9c-0.1,0-0.1,0.1-0.2,0.1c0,0.1-0.1,0.2-0.1,0.3
						c0,0.1,0.1,0.1,0.1,0.1c0.2,0,0.3,0,0.5,0c0-0.2,0.1-0.4,0.1-0.5C11.9,31.9,11.8,31.9,11.6,31.9z"/>
				</g>
				<path class="st19" d="M13.4,30.8c0.3-0.1,0.6-0.1,0.9-0.1c0.2,0,0.4,0.1,0.5,0.2c0.1,0.2,0.1,0.4,0,0.6
					c-0.1,0.4-0.2,0.8-0.3,1.2c0,0,0,0.1-0.1,0.1c-0.1,0-0.2,0-0.3,0c0,0-0.1-0.1,0-0.1c0.1-0.4,0.2-0.8,0.3-1.2c0-0.1,0-0.2,0-0.3
					c0-0.1-0.1-0.1-0.2-0.1c-0.1,0-0.3,0-0.4,0c-0.1,0.5-0.2,1-0.3,1.6c0,0,0,0.1-0.1,0.1c-0.1,0-0.2,0-0.3,0c0,0-0.1-0.1,0-0.1
					c0.1-0.6,0.3-1.2,0.4-1.8C13.2,30.8,13.3,30.8,13.4,30.8z"/>
				<g>
					<path class="st19" d="M18.3,30.7c0.2,0,0.4,0,0.6,0c0.1,0.1,0.3,0.2,0.3,0.3c0.1,0.2,0.1,0.4,0,0.5c0,0.2-0.1,0.4-0.2,0.6
						c-0.1,0.3-0.3,0.5-0.6,0.5c-0.2,0.1-0.4,0.1-0.6,0c-0.2,0-0.3-0.1-0.4-0.3c-0.1-0.2-0.1-0.4,0-0.6c0-0.2,0.1-0.5,0.2-0.7
						C17.8,31,18,30.8,18.3,30.7z M18.4,31.1c-0.1,0-0.2,0.1-0.3,0.2C18,31.4,18,31.6,18,31.7c0,0.2-0.1,0.3,0,0.5
						c0,0.1,0.1,0.2,0.2,0.2c0.1,0,0.3,0,0.4-0.1c0.1-0.1,0.2-0.3,0.2-0.4c0-0.1,0.1-0.3,0.1-0.4c0-0.1,0-0.2-0.1-0.3
						C18.6,31.1,18.5,31.1,18.4,31.1z"/>
				</g>
				<g>
					<path class="st19" d="M22.9,30.8c0.2-0.1,0.5-0.1,0.7-0.1c0.2,0,0.3,0.1,0.4,0.2c0.1,0.1,0.1,0.3,0.1,0.5
						c-0.1,0.4-0.2,0.8-0.2,1.2c0,0.1,0,0.1,0,0.2c0,0-0.1,0-0.1,0c-0.3,0.1-0.6,0.1-0.8,0.1c-0.2,0-0.3,0-0.4-0.2
						c-0.1-0.1-0.1-0.3-0.1-0.4c0-0.2,0.1-0.3,0.2-0.5c0.1-0.1,0.4-0.2,0.6-0.2c0.2,0,0.3,0,0.5,0c0-0.1,0.1-0.2,0-0.3
						c0-0.1-0.1-0.1-0.2-0.1c-0.2,0-0.4,0-0.6,0.1c-0.1,0-0.1,0-0.2,0c0,0,0-0.1,0-0.1c0-0.1,0-0.1,0-0.2
						C22.8,30.9,22.8,30.8,22.9,30.8z M23.1,31.9c-0.1,0-0.2,0.1-0.2,0.1c0,0.1-0.1,0.2-0.1,0.3c0,0.1,0.1,0.1,0.1,0.1
						c0.2,0,0.3,0,0.5,0c0-0.2,0.1-0.4,0.1-0.5C23.4,31.9,23.2,31.9,23.1,31.9z"/>
				</g>
				<path class="st19" d="M24.6,30.8C24.6,30.8,24.6,30.7,24.6,30.8c0.2-0.1,0.3-0.1,0.5-0.1c0,0,0,0.1,0,0.1c0,0.5,0,1,0.1,1.5
					c0,0,0,0.1,0.1,0.1c0.2-0.5,0.5-1,0.7-1.5c0,0,0-0.1,0.1-0.1c0,0,0.1,0,0.1,0c0.1,0,0.2,0,0.3,0c0,0,0.1,0.1,0,0.1
					c-0.3,0.6-0.6,1.3-1,1.9c-0.1,0.2-0.2,0.3-0.3,0.5c-0.1,0.1-0.2,0.2-0.4,0.3c-0.2,0-0.4,0-0.6,0c-0.1,0-0.1,0-0.2-0.1
					c0-0.1,0-0.2,0.1-0.3c0,0,0-0.1,0.1-0.1c0.2,0,0.4,0,0.6,0c0.1,0,0.2-0.2,0.3-0.3c-0.1,0-0.2,0-0.2-0.1
					c-0.1-0.1-0.1-0.2-0.1-0.3C24.6,31.9,24.6,31.4,24.6,30.8z"/>
			</g>
		</g>
		<g>
			<path class="st20" d="M20.7,10.8l-1.6,1.6L19,12.5L18.5,13l-0.4,0.4l-0.5,0.5L17.6,14l-0.2,0.2l-0.1,0.1l0,0l-0.8,0.8l0,0
				l-0.1,0.1c-0.2,0.2-0.5,0.4-0.7,0.6c-0.1,0.1-0.3,0.1-0.4,0.2c-0.3,0.1-0.6,0.2-1,0.2c-0.2,0-0.4,0-0.6,0c-0.4,0-0.9-0.2-1.3-0.4
				c-0.2-0.1-0.3-0.2-0.5-0.3l0,0l-0.1-0.1l-2.9-3l-0.1-0.1c-0.1-0.1-0.1-0.1-0.1-0.2c-0.1-0.2-0.2-0.4-0.2-0.6c0,0,0-0.1,0-0.1
				c0,0,0-0.1,0-0.1v0l0,0c0-0.1,0.1-0.3,0.2-0.4c0,0,0.1-0.1,0.1-0.1l0.1-0.1l3.2-3.1l0,0L14,5.6c0.4-0.4,1.1-0.4,1.5-0.1
				L20.7,10.8z"/>
			<path class="st21" d="M15,17.9c-0.3,0-0.5-0.1-0.7-0.2l-0.6-0.6l-0.1-0.1l0,0l-0.3-0.3l-1.4-1.4l0.1,0.1c0.1,0.1,0.3,0.3,0.5,0.3
				c0.4,0.2,0.8,0.4,1.3,0.4c0.2,0,0.4,0,0.6,0c0.3,0,0.7-0.1,1-0.2c0.1-0.1,0.3-0.1,0.4-0.2c0.3-0.2,0.5-0.3,0.7-0.6l0.1-0.1l0,0
				l0.8-0.8l0,0l0.1-0.1l0.2-0.2l0.1-0.1l0.5-0.5l0.4-0.4l0.5-0.5l0.1-0.1l3.3-3.2l1.3-1.5l0,0l0.1-0.1c0.4-0.4,1.1-0.4,1.5,0
				L26,8.4l0,0h0c-0.3,0-0.7,0.1-0.9,0.3l-2.5,2.4l0,0l-4.3,4.3l0,0L16.7,17l0,0l-0.1,0.1c-0.2,0.2-0.5,0.4-0.7,0.5
				c-0.1,0.1-0.3,0.1-0.5,0.2C15.3,17.8,15.2,17.8,15,17.9L15,17.9z"/>
			<path class="st21" d="M30,13.8L30,13.8l-3.6,3.6l-3.7,3.8c-0.1,0.1-0.2,0.2-0.4,0.3l0,0l-0.1,0l0,0c-1.3,0.9-3.1,0.8-4.3-0.3l0,0
				l-0.1-0.1l-0.6-0.6l-1.8-1.8l-0.6-0.6l-0.1-0.1c0.1,0,0.2,0,0.3,0h0.1c0.1,0,0.2,0,0.3,0c0.2,0,0.4-0.1,0.5-0.2
				c0.3-0.1,0.6-0.3,0.8-0.6l0.1-0.1l1.4-1.3l0,0l4.7-4.6l0,0L25.3,9c0.3-0.3,0.8-0.3,1.1-0.1L27,9.4l0,0l2.9,3c0,0,0.1,0.1,0.1,0.1
				C30.4,12.9,30.4,13.5,30,13.8z"/>
			<path class="st22" d="M18.6,9.9c-0.1,0.1-0.2,0.1-0.3,0c-1.4-1.4-3.7-1.4-5.1,0s-1.4,3.7,0,5.1l1.1,1.1c0,0-0.4,0-0.6,0l-0.8-0.8
				c-1.6-1.6-1.6-4.1,0-5.7s4.1-1.6,5.7,0l0,0C18.7,9.7,18.7,9.8,18.6,9.9z"/>
			<path class="st22" d="M20.3,11.3L20,11.6l-0.5-0.5c-0.1-0.1-0.1-0.2,0-0.3l0,0c0.1-0.1,0.2-0.1,0.3,0l0,0L20.3,11.3z"/>
			<path class="st22" d="M15.7,15.7c0,0-0.3,0.1-0.4,0.2l-1.5-1.5c-0.9-0.9-1.1-2.4-0.3-3.5c0.1-0.1,0.2-0.1,0.3-0.1
				c0.1,0.1,0.1,0.2,0.1,0.3l0,0c-0.6,0.9-0.5,2.2,0.3,2.9L15.7,15.7z"/>
			<path class="st22" d="M19.4,12.2L19.4,12.2l-0.2,0.2l-0.1,0.1l-1.7-1.7c-0.6-0.6-1.5-0.8-2.4-0.6c-0.1,0-0.2,0-0.3-0.1
				c0-0.1,0-0.2,0.1-0.3c0,0,0,0,0,0c1-0.3,2.1-0.1,2.8,0.7L19.4,12.2z"/>
			<path class="st22" d="M18.4,13.1l-0.3,0.3l-1.7-1.7c-0.4-0.4-1.1-0.3-1.5,0.1c-0.3,0.4-0.3,0.9,0,1.3l1.1,1.1
				c0.1,0.1,0.1,0.2,0,0.3c-0.1,0.1-0.2,0.1-0.3,0l-1.1-1.1c-0.6-0.6-0.5-1.5,0.1-2.1c0.6-0.5,1.4-0.5,2,0L18.4,13.1z"/>
			<path class="st22" d="M17.5,14l-0.3,0.3l-1.7-1.7c-0.1-0.1-0.1-0.2,0-0.3s0.2-0.1,0.3,0L17.5,14z"/>
		</g>
	</g>
</g>
</svg>
